<?xml version="1.0" encoding="UTF-8"?><svg id="Layer_1" xmlns="http://www.w3.org/2000/svg" xmlns:xlink="http://www.w3.org/1999/xlink" viewBox="0 0 1200 750"><defs><style>.cls-1{fill:none;}.cls-2{clip-path:url(#clippath);}.cls-3{fill:#fff;}.cls-4{fill:#232c38;}</style><clipPath id="clippath"><rect class="cls-1" y="-.5" width="1200" height="750"/></clipPath></defs><rect y="-.5" width="1200" height="750"/><g class="cls-2"><g><path class="cls-4" d="M116.28,266.57c63.05-60.06,137.59-109.67,219.17-135.75,40.64-13.19,82.52-20.11,123.84-22.21,20.73-1.22,41.17-.1,61.71,.86,20.57,1.13,41.09,3.75,61.25,8.09,80.44,17.87,153.08,58.26,217.56,109.54C738.75,67.61,584.34-45.68,403.38-45.68c-234.42,0-424.45,190.04-424.45,424.45,0,15.75,.92,31.27,2.6,46.57,40.24-57.07,84.39-111,134.76-158.78Z"/><path class="cls-4" d="M755.34,287.86c-21.85-29.11-48.64-54.71-79.72-73.59-30.9-19.15-65.88-31.28-101.68-36.24-35.66-5.12-72.56-4.54-108.15,2.75-35.46,6.79-69.35,19.03-99.76,36.51-61.21,34.7-108.01,88.77-139.79,150.44-32,61.78-50.01,130.96-57.3,201.37-6.07,60.09-4.11,121.44,5.18,181.77,66.13,42.54,144.78,67.33,229.26,67.33,213.45,0,390.04-157.58,419.94-362.75-9.33-61.01-31.67-119.09-67.97-167.59Z"/></g></g><g><g><path class="cls-3" d="M486.08,356.94h19.93v29.34c-3.94,2.67-8.8,4.87-14.57,6.61-5.78,1.74-11.17,2.6-16.17,2.6-7.28,0-13.8-1.59-19.58-4.76-5.78-3.17-10.3-7.54-13.57-13.12-3.27-5.57-4.91-11.87-4.91-18.88,0-6.94,1.7-13.2,5.11-18.78,3.41-5.57,8.11-9.93,14.12-13.07,6.01-3.14,12.78-4.71,20.33-4.71,5.47,0,10.97,1,16.47,3.01,5.51,2,10.13,4.67,13.87,8.01l-13.12,15.92c-2.34-2.34-5.09-4.19-8.26-5.56-3.17-1.37-6.19-2.05-9.06-2.05-2.94,0-5.61,.75-8.01,2.25-2.4,1.5-4.27,3.55-5.61,6.16-1.34,2.6-2,5.54-2,8.81,0,3.34,.68,6.33,2.05,8.96,1.37,2.64,3.25,4.71,5.66,6.21,2.4,1.5,5.11,2.25,8.11,2.25,2.54,0,5.61-.8,9.21-2.4v-16.82Z"/><path class="cls-3" d="M565.89,393.89l-3.5-9.91h-26.34l-3.61,9.91h-23.83l29.64-70.2h23.83l28.54,70.2h-24.73Zm-23.83-26.54h14.62l-7.21-20.53-7.41,20.53Z"/><path class="cls-3" d="M582.12,323.69h63.19v18.33h-20.03v51.88h-23.23v-51.88h-19.93v-18.33Z"/><path class="cls-3" d="M654.82,323.69h59.38v17.62h-36.15v8.61h32.85v17.62h-32.85v8.71h37.05v17.62h-60.29v-70.2Z"/><path class="cls-3" d="M812.94,323.69h23.73l-23.73,70.2h-23.83l-10.52-41.96-10.82,41.96h-23.83l-23.53-70.2h24.84l11.31,46.07,11.22-46.07h22.63l11.42,46.07,11.11-46.07Z"/><path class="cls-3" d="M884.44,393.89l-3.5-9.91h-26.34l-3.61,9.91h-23.83l29.64-70.2h23.83l28.54,70.2h-24.73Zm-23.83-26.54h14.62l-7.21-20.53-7.41,20.53Z"/><path class="cls-3" d="M973.17,323.69l-25.14,48.37v21.83h-23.23v-21.33l-25.64-48.87h23.13l14.12,27.04,13.62-27.04h23.13Z"/></g><g><path class="cls-3" d="M464.06,418.99c-1.37-.65-2.76-.97-4.16-.97-1.76,0-3.37,.42-4.83,1.26-1.46,.84-2.61,2-3.45,3.48-.84,1.48-1.26,3.09-1.26,4.85,0,1.76,.42,3.38,1.26,4.86,.84,1.48,1.99,2.64,3.45,3.49,1.46,.85,3.07,1.28,4.83,1.28,1.35,0,2.71-.3,4.08-.89,1.37-.59,2.58-1.42,3.64-2.48l3.21,3.57c-1.49,1.52-3.22,2.71-5.2,3.6-1.98,.88-3.98,1.32-6.01,1.32-2.74,0-5.24-.65-7.51-1.95-2.28-1.3-4.06-3.07-5.36-5.3-1.3-2.24-1.95-4.71-1.95-7.41,0-2.71,.66-5.17,1.99-7.39,1.33-2.22,3.14-3.97,5.42-5.24,2.29-1.27,4.83-1.91,7.62-1.91,2.03,0,4.02,.4,5.97,1.22,1.95,.81,3.62,1.94,5,3.37l-3.17,3.98c-1-1.16-2.19-2.07-3.55-2.72Z"/><path class="cls-3" d="M499.4,415.05c2.32,1.27,4.14,3.02,5.46,5.24,1.33,2.22,1.99,4.69,1.99,7.39,0,2.71-.66,5.18-1.99,7.41-1.33,2.24-3.15,4-5.46,5.3-2.31,1.3-4.88,1.95-7.7,1.95s-5.38-.65-7.7-1.95c-2.32-1.3-4.14-3.07-5.46-5.3-1.33-2.24-1.99-4.71-1.99-7.41s.66-5.17,1.99-7.39,3.15-3.97,5.46-5.24c2.31-1.27,4.88-1.91,7.7-1.91,2.82,0,5.38,.64,7.7,1.91Zm-12.45,4.25c-1.49,.85-2.67,2.02-3.54,3.49-.87,1.48-1.3,3.11-1.3,4.9s.44,3.42,1.32,4.92c.88,1.49,2.06,2.67,3.53,3.53,1.48,.87,3.08,1.3,4.81,1.3,1.71,0,3.29-.43,4.75-1.3,1.46-.87,2.62-2.04,3.47-3.53,.85-1.49,1.28-3.13,1.28-4.92,0-1.79-.43-3.42-1.28-4.9-.85-1.47-2.01-2.64-3.47-3.49-1.46-.85-3.05-1.28-4.75-1.28-1.73,0-3.35,.43-4.83,1.28Z"/><path class="cls-3" d="M515.71,413.51h6.21l9.42,18.32,9.34-18.32h6.22v28.44h-5v-20.39l-8.85,17.47h-3.49l-8.9-17.47v20.39h-4.95v-28.44Z"/><path class="cls-3" d="M557.96,413.51h6.21l9.42,18.32,9.34-18.32h6.22v28.44h-5v-20.39l-8.85,17.47h-3.49l-8.9-17.47v20.39h-4.95v-28.44Z"/><path class="cls-3" d="M607.03,435.53c1.27,1.27,2.98,1.91,5.12,1.91,2.14,0,3.82-.64,5.06-1.91,1.23-1.27,1.85-3.03,1.85-5.28v-16.74h5.44v16.74c0,2.47-.5,4.61-1.5,6.44-1,1.83-2.43,3.23-4.29,4.2-1.85,.98-4.04,1.46-6.56,1.46-2.55,0-4.76-.49-6.64-1.46-1.88-.97-3.33-2.37-4.33-4.2-1-1.83-1.5-3.97-1.5-6.44v-16.74h5.44v16.74c0,2.25,.64,4.01,1.91,5.28Z"/><path class="cls-3" d="M654.79,413.51h5.28v28.44h-5.16l-14.62-19.58v19.58h-5.32v-28.44h5.16l14.66,19.62v-19.62Z"/><path class="cls-3" d="M671.13,413.51h5.44v28.44h-5.44v-28.44Z"/><path class="cls-3" d="M684.45,413.51h23.2v4.83h-8.86v23.6h-5.48v-23.6h-8.86v-4.83Z"/><path class="cls-3" d="M738.43,413.51l-10.36,19.13v9.3h-5.44v-9.1l-10.6-19.34h5.52l7.76,13.36,7.64-13.36h5.48Z"/><path class="cls-3" d="M777.04,418.99c-1.37-.65-2.76-.97-4.16-.97-1.76,0-3.37,.42-4.83,1.26-1.46,.84-2.61,2-3.45,3.48-.84,1.48-1.26,3.09-1.26,4.85s.42,3.38,1.26,4.86c.84,1.48,1.99,2.64,3.45,3.49,1.46,.85,3.07,1.28,4.83,1.28,1.35,0,2.71-.3,4.08-.89,1.37-.59,2.58-1.42,3.64-2.48l3.21,3.57c-1.49,1.52-3.22,2.71-5.2,3.6-1.98,.88-3.98,1.32-6.01,1.32-2.74,0-5.24-.65-7.51-1.95-2.28-1.3-4.06-3.07-5.36-5.3-1.3-2.24-1.95-4.71-1.95-7.41,0-2.71,.66-5.17,1.99-7.39,1.33-2.22,3.14-3.97,5.42-5.24,2.29-1.27,4.83-1.91,7.62-1.91,2.03,0,4.02,.4,5.97,1.22,1.95,.81,3.62,1.94,5,3.37l-3.17,3.98c-1-1.16-2.19-2.07-3.55-2.72Z"/><path class="cls-3" d="M792.34,413.51h5.44v12.15h14.18v-12.15h5.44v28.44h-5.44v-11.54h-14.18v11.54h-5.44v-28.44Z"/><path class="cls-3" d="M835.31,435.53c1.27,1.27,2.98,1.91,5.12,1.91,2.14,0,3.82-.64,5.06-1.91,1.23-1.27,1.85-3.03,1.85-5.28v-16.74h5.44v16.74c0,2.47-.5,4.61-1.5,6.44-1,1.83-2.43,3.23-4.29,4.2-1.85,.98-4.04,1.46-6.56,1.46-2.55,0-4.76-.49-6.64-1.46-1.88-.97-3.33-2.37-4.33-4.2s-1.5-3.97-1.5-6.44v-16.74h5.44v16.74c0,2.25,.64,4.01,1.91,5.28Z"/><path class="cls-3" d="M881.05,441.94l-4.92-8.41c-.22,.03-.55,.04-1.01,.04h-6.42v8.37h-5.44v-28.44h11.86c3.68,0,6.52,.86,8.53,2.56,2,1.71,3.01,4.12,3.01,7.23,0,2.22-.48,4.12-1.44,5.69-.96,1.57-2.36,2.75-4.21,3.53l6.26,9.42h-6.22Zm-12.35-13.16h6.42c2.06,0,3.63-.45,4.71-1.34s1.63-2.22,1.63-3.98c0-1.73-.54-3.03-1.63-3.9-1.08-.86-2.65-1.3-4.71-1.3h-6.42v10.52Z"/><path class="cls-3" d="M913.73,418.99c-1.37-.65-2.76-.97-4.16-.97-1.76,0-3.37,.42-4.83,1.26-1.46,.84-2.61,2-3.45,3.48-.84,1.48-1.26,3.09-1.26,4.85,0,1.76,.42,3.38,1.26,4.86,.84,1.48,1.99,2.64,3.45,3.49,1.46,.85,3.07,1.28,4.83,1.28,1.35,0,2.71-.3,4.08-.89,1.37-.59,2.58-1.42,3.64-2.48l3.21,3.57c-1.49,1.52-3.22,2.71-5.2,3.6-1.98,.88-3.98,1.32-6.01,1.32-2.74,0-5.24-.65-7.51-1.95-2.28-1.3-4.06-3.07-5.36-5.3-1.3-2.24-1.95-4.71-1.95-7.41,0-2.71,.66-5.17,1.99-7.39,1.33-2.22,3.14-3.97,5.42-5.24,2.29-1.27,4.83-1.91,7.62-1.91,2.03,0,4.02,.4,5.97,1.22,1.95,.81,3.62,1.94,5,3.37l-3.17,3.98c-1-1.16-2.19-2.07-3.55-2.72Z"/><path class="cls-3" d="M929.03,413.51h5.44v12.15h14.18v-12.15h5.44v28.44h-5.44v-11.54h-14.18v11.54h-5.44v-28.44Z"/></g><g><path class="cls-3" d="M280.08,359.62c10.38-9.89,22.66-18.07,36.1-22.36,6.69-2.17,13.59-3.31,20.4-3.66,3.41-.2,6.78-.02,10.16,.14,3.39,.19,6.77,.62,10.09,1.33,13.25,2.94,25.22,9.6,35.84,18.04-10.06-26.27-35.49-44.93-65.3-44.93-38.61,0-69.92,31.3-69.92,69.92,0,2.59,.15,5.15,.43,7.67,6.63-9.4,13.9-18.28,22.2-26.15Z"/><path class="cls-3" d="M385.34,363.13c-3.6-4.8-8.01-9.01-13.13-12.12-5.09-3.15-10.85-5.15-16.75-5.97-5.87-.84-11.95-.75-17.82,.45-5.84,1.12-11.42,3.13-16.43,6.01-10.08,5.72-17.79,14.62-23.03,24.78-5.27,10.18-8.24,21.57-9.44,33.17-1,9.9-.68,20,.85,29.94,10.89,7.01,23.85,11.09,37.76,11.09,35.16,0,64.25-25.96,69.17-59.75-1.54-10.05-5.22-19.62-11.2-27.6Z"/></g></g></svg>