<svg id="Layer_1" data-name="Layer 1" xmlns="http://www.w3.org/2000/svg" viewBox="0 0 250 195"><defs><style>.cls-1{fill:#eaeaea;}.cls-2{fill:#3d3838;}</style></defs><circle class="cls-1" cx="149.72" cy="97.5" r="91.79"/><rect class="cls-2" x="8.5" y="17.69" width="113.91" height="39.82" rx="2.56"/><path class="cls-2" d="M11.05,73.08h110.4a0,0,0,0,1,0,0v.13A39.69,39.69,0,0,1,81.76,112.9H11.05a2.56,2.56,0,0,1-2.56-2.56V75.63a2.56,2.56,0,0,1,2.56-2.56Z"/><path class="cls-2" d="M11.05,127.5H87a0,0,0,0,1,0,0v.13A39.69,39.69,0,0,1,47.3,167.32H11.05a2.56,2.56,0,0,1-2.56-2.56v-34.7a2.56,2.56,0,0,1,2.56-2.56Z"/></svg>