<svg id="Layer_1" data-name="Layer 1" xmlns="http://www.w3.org/2000/svg" viewBox="0 0 250 195"><defs><style>.cls-1{fill:#eaeaea;}.cls-2{fill:#3d3838;}</style></defs><circle class="cls-1" cx="149.72" cy="97.5" r="91.79"/><rect class="cls-2" x="-28.41" y="72.59" width="113.91" height="39.82" rx="2.56" transform="translate(-63.96 121.05) rotate(-90)"/><path class="cls-2" d="M30,73.07h110.4a0,0,0,0,1,0,0v.13a39.69,39.69,0,0,1-39.69,39.69H30a2.56,2.56,0,0,1-2.56-2.56V75.63A2.56,2.56,0,0,1,30,73.07Z" transform="translate(-9.05 176.92) rotate(-90)"/><path class="cls-2" d="M101.67,90.31h75.94a0,0,0,0,1,0,0v.13a39.69,39.69,0,0,1-39.69,39.69H101.67a2.56,2.56,0,0,1-2.56-2.56V92.86a2.56,2.56,0,0,1,2.56-2.56Z" transform="translate(28.15 248.58) rotate(-90)"/></svg>