<svg id="Layer_1" data-name="Layer 1" xmlns="http://www.w3.org/2000/svg" viewBox="0 0 583 117"><defs><style>.cls-1{fill:#232323;}</style></defs><rect class="cls-1" x="25.82" y="39.23" width="41.42" height="14.48" rx="0.93" transform="translate(-19.23 46.52) rotate(-45)"/><path class="cls-1" d="M70.09,61.64,51.91,79.82a.92.92,0,0,1-1.32,0L41.67,70.9a.94.94,0,0,1,0-1.32L70.06,41.2l0,0A14.42,14.42,0,0,1,70.09,61.64Z"/><path class="cls-1" d="M75.22,84.5,65.9,93.82a.93.93,0,0,1-1.31,0l-8.93-8.93a.93.93,0,0,1,0-1.31L75.19,64.05l0,0A14.42,14.42,0,0,1,75.22,84.5Z"/><path class="cls-1" d="M135.7,65.34h.22l8.62-24.4H158v37h-8.29V50.69h-.27l-9.59,27.2h-8.73l-9.59-27.2h-.27v27.2h-7.54V40.94h13.42Z"/><path class="cls-1" d="M176.64,67.66H177l5.71-17.3h7.76l-9.8,26c-2.43,6.46-6,11.58-11.91,11.58a11.34,11.34,0,0,1-4.63-.81V81.61a10.69,10.69,0,0,0,3.61.75c2.32,0,3.93-1.62,4.9-5l-10.39-27h8.34Z"/><path class="cls-1" d="M219.09,61.35v4.1H200.23c0,5.06,1.94,7.59,5.93,7.59,3.23,0,5.33-1.78,5.33-5.44H219c0,7.6-6.08,10.83-12.44,10.83h-.86c-7.65,0-13.47-5-13.47-13.52V63.35c0-8.57,5.93-13.52,13.47-13.52h.86C213.16,49.83,219.09,54,219.09,61.35Zm-18.86-.21h10.88c0-3.4-1.4-5.93-5.33-5.93C202.55,55.21,200.5,57.8,200.23,61.14Z"/><path class="cls-1" d="M247.2,58.28A21.72,21.72,0,0,1,247,61h-6.57V59.79c0-1.88-.92-4.09-3.83-4.09-2.53,0-3.88,1.88-3.88,5.17v17H225V50.36h5.81l1,4a8.55,8.55,0,0,1,7.71-4.57C244.56,49.83,247.2,53.38,247.2,58.28Z"/><path class="cls-1" d="M274.29,57.26a5.38,5.38,0,0,1-.1,1.18h-6.9v-.37c0-2-2-2.86-5-2.86s-5,.92-5,2.43c0,5,17.56.1,17.56,11.52,0,7-5.87,9.27-12.23,9.27h-1.78c-6.73,0-11.58-3.29-11.58-8.24a5.62,5.62,0,0,1,.06-1.08h6.94a1.57,1.57,0,0,0-.05.48c0,2.64,3,3.45,5.82,3.45,2.37,0,5.55-.59,5.55-2.69,0-5.44-17.46-.54-17.46-11.8,0-5.82,5.71-8.72,12-8.72h1.08C268.8,49.83,274.29,52.73,274.29,57.26Z"/><path class="cls-1" d="M323,57.31v4.2C323,72,315.5,77.89,306.5,77.89h-14V40.94h14C315.5,40.94,323,46.81,323,57.31Zm-22.14,14h5.65c4.42,0,7.76-2.9,7.76-8.56V56.13c0-5.66-3.34-8.57-7.76-8.57h-5.65Z"/><path class="cls-1" d="M354.71,61.35v4.1H335.86c0,5.06,1.94,7.59,5.92,7.59,3.24,0,5.34-1.78,5.34-5.44h7.54c0,7.6-6.09,10.83-12.45,10.83h-.86c-7.64,0-13.46-5-13.46-13.52V63.35c0-8.57,5.92-13.52,13.46-13.52h.86C348.79,49.83,354.71,54,354.71,61.35Zm-18.85-.21h10.88c0-3.4-1.4-5.93-5.33-5.93C338.18,55.21,336.13,57.8,335.86,61.14Z"/><path class="cls-1" d="M383.58,57.26a4.91,4.91,0,0,1-.11,1.18h-6.89v-.37c0-2-2.05-2.86-5-2.86s-5,.92-5,2.43c0,5,17.55.1,17.55,11.52,0,7-5.87,9.27-12.22,9.27h-1.78c-6.73,0-11.58-3.29-11.58-8.24a6.72,6.72,0,0,1,.05-1.08h6.95a1.57,1.57,0,0,0,0,.48c0,2.64,3,3.45,5.82,3.45,2.36,0,5.54-.59,5.54-2.69,0-5.44-17.45-.54-17.45-11.8,0-5.82,5.71-8.72,12-8.72h1.08C378.09,49.83,383.58,52.73,383.58,57.26Z"/><path class="cls-1" d="M397.53,45.3h-8V39.11h8Zm0,5.06V77.89h-7.87V50.36Z"/><path class="cls-1" d="M421.12,50.47c3.34-2,3.94-4.09,4-5.06h6.14c0,4-2.15,6.25-5.71,7.11l0,.16a7.53,7.53,0,0,1,2.85,5.82c0,4.74-4.2,8.62-10.77,8.62h-3.71c-2.32,0-3.4,1.24-3.4,2.26,0,1.35,1,2.26,3.4,2.26h9.58c5.17,0,7.81,3.29,7.81,7.7,0,5.07-4.68,8.68-10.5,8.68H409.43c-4.2,0-7.75-2.37-7.75-6.79a6.75,6.75,0,0,1,4.09-5.93,5.39,5.39,0,0,1-2.53-4.57c0-2.7,1.94-4.8,4.63-5.61A7.79,7.79,0,0,1,404,58.5c0-4.8,3.71-8.67,11.74-8.67A17.88,17.88,0,0,1,421.12,50.47Zm-9.58,27.37a2.77,2.77,0,0,0-2.91,2.63,2.82,2.82,0,0,0,2.91,2.7h9c1.89,0,3.45-1.29,3.45-2.8s-1.18-2.53-3.12-2.53Zm0-19.34c0,2.64,2.1,4,4.74,4s4.79-1.34,4.79-4-2.15-4-4.79-4S411.54,55.86,411.54,58.5Z"/><path class="cls-1" d="M460.55,58.66V77.89h-7.86V60.38c0-2.8-1.78-4.84-4.31-4.84A5.3,5.3,0,0,0,443.26,61V77.89H435.4V50.36h5.87l.86,4a10.67,10.67,0,0,1,8.78-4.57C456.19,49.83,460.55,52.68,460.55,58.66Z"/><path class="cls-1" d="M510.05,55.59h-7.92c0-5.66-2.58-8.56-7.22-8.56-4.3,0-7.75,2.9-7.75,8.56v7.65c0,5.65,3.5,8.56,7.81,8.56,5.11,0,7.49-2.69,7.49-8.45h7.59c0,9.8-6.46,15.08-14.7,15.08h-.76c-9.16,0-16.16-5.66-16.16-16.38V56.77c0-10.44,7.11-16.37,15.95-16.37h.75C503.53,40.4,510.05,45.41,510.05,55.59Z"/><path class="cls-1" d="M515,64.91V63.35c0-8.57,5.87-13.52,13.47-13.52h.86c7.59,0,13.47,5,13.47,13.52v1.56c0,8.56-5.88,13.52-13.47,13.52h-.86C520.82,78.43,515,73.47,515,64.91Zm19.82,1.4V62c0-4.53-2.58-6.74-5.92-6.74s-5.93,2.21-5.93,6.74v4.36c0,4.52,2.59,6.73,5.93,6.73S534.77,70.83,534.77,66.31Z"/><path class="cls-1" d="M556.43,77.89h-7.87V70h7.87Z"/></svg>