<svg id="Layer_1" data-name="Layer 1" xmlns="http://www.w3.org/2000/svg" viewBox="0 0 1000 87"><defs><style>.cls-1{fill:#232323;}</style></defs><path class="cls-1" d="M46.23,55.27h.27L60,20.49H73.7V68.21H65.08V30.58h-.35L50.12,68.21H41.84L27.23,30.58h-.34V68.21h-7.8V20.49H32.87Z"/><path class="cls-1" d="M125.81,41.15h.27l11.41-20.66h8.84L129.77,49.85V68.21h-8.63V49.85L104.59,20.49h9.74Z"/><path class="cls-1" d="M205.38,20.49l-1,7.3H181.59V40.18h20.87v7.23H181.59v13.5h23.1l1,7.3H173V20.49Z"/><path class="cls-1" d="M271.26,32.25a13.16,13.16,0,0,1-8.55,12.52v.34a12,12,0,0,1,7.65,11.41c0,5.71.9,8.35,3.55,9.26v2.15a13.41,13.41,0,0,1-4.53.7c-4,0-7.51-1.53-7.51-8.56,0-6.26-2.57-11.13-7.79-11.13H243.85V68.21H235.3V20.49h20.87C264.17,20.49,271.26,24.25,271.26,32.25Zm-27.41-4.46V41.71H256c3.75,0,6.68-3.69,6.68-7.86,0-3.55-2.37-6.06-6.4-6.06Z"/><path class="cls-1" d="M336.3,33.43v.83H328v-.83c0-4-3.55-6.33-8.91-6.33-5.84,0-9.39,2-9.39,5.42,0,10.09,27.83,3.9,27.83,21.08,0,11.06-7.66,15.31-18.86,15.31-10.85,0-18.71-4.53-18.71-14.47A10.62,10.62,0,0,1,300,53h8.35a8.73,8.73,0,0,0-.07,1.32c0,4.73,3.82,7.3,10.23,7.3,6.95,0,10.22-2.71,10.22-6.33,0-10.85-27.69-4.1-27.69-21.63,0-9.6,7.93-13.85,17.81-13.85C329,19.79,336.3,24.31,336.3,33.43Z"/><path class="cls-1" d="M442.18,41.78v5.14c0,13.36-8.63,21.29-20.45,21.29H404.47V20.49h17.26C433.55,20.49,442.18,28.42,442.18,41.78ZM413.1,60.91h8.63c7,0,11.61-4.46,11.61-13.29V41.08c0-8.63-4.45-13.29-11.61-13.29H413.1Z"/><path class="cls-1" d="M503.88,20.49l-1,7.3H480.09V40.18H501v7.23H480.09v13.5h23.09l1.05,7.3h-32.7V20.49Z"/><path class="cls-1" d="M567.46,33.43v.83h-8.35v-.83c0-4-3.54-6.33-8.9-6.33-5.84,0-9.39,2-9.39,5.42,0,10.09,27.82,3.9,27.82,21.08,0,11.06-7.65,15.31-18.85,15.31-10.85,0-18.71-4.53-18.71-14.47a10.62,10.62,0,0,1,.07-1.46h8.35a8.73,8.73,0,0,0-.07,1.32c0,4.73,3.82,7.3,10.22,7.3,7,0,10.23-2.71,10.23-6.33,0-10.85-27.69-4.1-27.69-21.63,0-9.6,7.93-13.85,17.81-13.85C560.16,19.79,567.46,24.31,567.46,33.43Z"/><path class="cls-1" d="M616.29,27.79h-5.56V60.91h5.56v7.3H596.47v-7.3H602V27.79h-5.56v-7.3h19.82Z"/><path class="cls-1" d="M683.42,37.32h-8.34c0-6.74-4.11-10.22-10.51-10.22-7,0-11.48,4.52-11.48,13.28v7.93c0,8.7,4.46,13.29,11.62,13.29,6.68,0,10.44-3.41,10.44-10.92V49.57H662.9V42.68h20.52V59a85.47,85.47,0,0,0,.42,9.18H679l-1.53-5.56c-3,4-7.65,6.26-13.35,6.26h-.35c-11.76,0-19.48-8.07-19.48-21.29V41.08c0-13.22,7.93-21.29,20.1-21.29H665C675.7,19.79,683.42,26.82,683.42,37.32Z"/><path class="cls-1" d="M740.05,47.06l3.27,5.15.21-.14V20.49h7.86V68.21h-7.31L725.86,41.08l-3-4.8-.21.14V68.21H714.8V20.49h7.44Z"/><path class="cls-1" d="M858.38,39.06H850c0-7.65-3.69-12-10.51-12-7,0-11.54,4.52-11.54,13.28v7.93c0,8.7,4.38,13.29,11.47,13.29,7.31,0,10.93-4.17,10.93-11.82h8.07c0,12-7.73,19.13-18.44,19.13h-.83c-11.9,0-20-7.66-20-21.29V41.08c0-13.36,8.21-21.29,19.76-21.29h.9C850.58,19.79,858.38,26.61,858.38,39.06Z"/><path class="cls-1" d="M886.62,47.62V41.08c0-13.5,8.76-21.29,20.1-21.29h.7c11.27,0,20.1,7.86,20.1,21.29v6.54c0,13.36-8.7,21.29-20,21.29h-.7C895.45,68.91,886.62,61.11,886.62,47.62Zm32.07.69V40.38c0-8.69-4.39-13.28-11.62-13.28-7,0-11.55,4.45-11.55,13.28v7.93c0,8.7,4.38,13.29,11.55,13.29C914,61.6,918.69,57.22,918.69,48.31Z"/><path class="cls-1" d="M965.36,68.21h-8.48v-8.9h8.48Z"/></svg>