<svg id="Layer_1" data-name="Layer 1" xmlns="http://www.w3.org/2000/svg" viewBox="0 0 434 176"><defs><style>.cls-1{fill:#232323;}.cls-2{fill:#fff;}</style></defs><path class="cls-1" d="M144.8-105.82H272a7.73,7.73,0,0,1,7.73,7.73V141.72A142.68,142.68,0,0,1,137.07,284.39h0a0,0,0,0,1,0,0V-98.09a7.73,7.73,0,0,1,7.73-7.73Z" transform="translate(119.12 297.69) rotate(-90)"/><path class="cls-2" d="M97.29,109.88h.34l18.65-45.35h12.85v57.62H120.9v-48h-.51l-19.9,48h-7l-19.82-48h-.42v48H65.79V64.53H78.73Z"/><path class="cls-2" d="M210.27,90.4v5.88c0,15.87-9.32,25.87-23.85,25.87h-20V64.53h20C201,64.53,210.27,74.52,210.27,90.4Zm-35.61,24.27h11.76c9.82,0,15.62-6.13,15.62-18.39V90.4c0-11.85-5.38-18.4-15.62-18.4H174.66Z"/><path class="cls-2" d="M285,86.62H276.8c0-9.66-4.87-15.46-14-15.46-10,0-15.45,6.3-15.45,18.4v7.56c0,11.92,5.2,18.39,15.28,18.39,9.58,0,14.54-5.79,14.54-15.28H285c0,13.85-8.73,22.76-21.67,22.76h-.92c-14.45,0-23.36-9.58-23.36-25.87V89.56c0-16,8.91-25.87,23.1-25.87h.93C276.21,63.69,285,72.34,285,86.62Z"/></svg>