<?xml version="1.0" encoding="UTF-8"?><svg id="Layer_1" xmlns="http://www.w3.org/2000/svg" viewBox="0 0 1000 1000"><defs><style>.cls-1{fill:#fff;}.cls-2{fill:#2d2d2d;}</style></defs><circle class="cls-1" cx="476.63" cy="390.89" r="388.15"/><g><rect class="cls-2" x="-191.88" y="596.76" width="596.15" height="206.62" rx="13.32" ry="13.32" transform="translate(-593.88 806.27) rotate(-90)"/><path class="cls-2" d="M111.39,599.27H689.21c0,114.04-92.58,206.62-206.62,206.62H111.39c-7.34,0-13.31-5.96-13.31-13.31v-180.01c0-7.34,5.96-13.31,13.31-13.31Z" transform="translate(-308.94 1096.23) rotate(-90)"/><path class="cls-2" d="M483.99,689.44h397.48c0,114.04-92.58,206.62-206.62,206.62h-190.86c-7.34,0-13.31-5.96-13.31-13.31v-180.01c0-7.34,5.96-13.31,13.31-13.31Z" transform="translate(-116.68 1468.83) rotate(-90)"/></g></svg>