<svg id="Layer_1" data-name="Layer 1" xmlns="http://www.w3.org/2000/svg" viewBox="0 0 1000 1000"><defs><style>.cls-1{fill:#fff;}</style></defs><rect class="cls-1" x="259.45" y="186.24" width="481.11" height="166.75" rx="10.75"/><path class="cls-1" d="M270.18,418.22H736.5a0,0,0,0,1,0,0v0A166.75,166.75,0,0,1,569.75,585H270.18a10.74,10.74,0,0,1-10.74-10.74V429a10.74,10.74,0,0,1,10.74-10.74Z"/><path class="cls-1" d="M270.18,646.15H591a0,0,0,0,1,0,0v0A166.75,166.75,0,0,1,424.21,812.9h-154a10.74,10.74,0,0,1-10.74-10.74V656.88a10.74,10.74,0,0,1,10.74-10.74Z"/></svg>