<svg id="Layer_1" data-name="Layer 1" xmlns="http://www.w3.org/2000/svg" viewBox="0 0 1000 1000"><defs><style>.cls-1{fill:#fff;}</style></defs><rect class="cls-1" x="29.49" y="416.19" width="481.11" height="166.75" rx="10.75" transform="translate(-229.52 769.61) rotate(-90)"/><path class="cls-1" d="M274.24,418.22H740.55a0,0,0,0,1,0,0v0A166.75,166.75,0,0,1,573.8,585H274.24a10.74,10.74,0,0,1-10.74-10.74V429A10.74,10.74,0,0,1,274.24,418.22Z" transform="translate(0.43 1003.62) rotate(-90)"/><path class="cls-1" d="M574.93,491H895.71a0,0,0,0,1,0,0v0A166.75,166.75,0,0,1,729,657.74h-154A10.74,10.74,0,0,1,564.2,647V501.73A10.74,10.74,0,0,1,574.93,491Z" transform="translate(155.58 1304.32) rotate(-90)"/></svg>