<?xml version="1.0" encoding="UTF-8"?><svg id="Layer_1" xmlns="http://www.w3.org/2000/svg" viewBox="0 0 1000 1000"><defs><style>.cls-1{fill:none;stroke:#5f5b5b;stroke-miterlimit:10;stroke-width:2px;}</style></defs><circle class="cls-1" cx="611.63" cy="390.89" r="388.15"/><g><rect class="cls-1" x="-56.88" y="596.76" width="596.15" height="206.62" rx="13.32" ry="13.32" transform="translate(-458.88 941.27) rotate(-90)"/><path class="cls-1" d="m246.39,599.27h577.82c0,114.04-92.58,206.62-206.62,206.62H246.39c-7.34,0-13.31-5.96-13.31-13.31v-180.01c0-7.34,5.96-13.31,13.31-13.31Z" transform="translate(-173.94 1231.23) rotate(-90)"/><path class="cls-1" d="m618.99,689.44h397.48c0,114.04-92.58,206.62-206.62,206.62h-190.86c-7.34,0-13.31-5.96-13.31-13.31v-180.01c0-7.34,5.96-13.31,13.31-13.31Z" transform="translate(18.32 1603.83) rotate(-90)"/></g></svg>