<svg id="Layer_1" data-name="Layer 1" xmlns="http://www.w3.org/2000/svg" viewBox="0 0 917 139"><defs><style>.cls-1{fill:#232323;}</style></defs><rect class="cls-1" x="18.49" y="38.94" width="61.1" height="21.18" rx="1.37" transform="translate(-20.66 49.18) rotate(-45)"/><path class="cls-1" d="M40.76,59.95H100a0,0,0,0,1,0,0v0A21.18,21.18,0,0,1,78.8,81.13h-38a1.36,1.36,0,0,1-1.36-1.36V61.31a1.36,1.36,0,0,1,1.36-1.36Z" transform="translate(-29.47 69.94) rotate(-45)"/><path class="cls-1" d="M63.93,87h40.74a0,0,0,0,1,0,0v0a21.18,21.18,0,0,1-21.18,21.18H63.93a1.36,1.36,0,0,1-1.36-1.36V88.32A1.36,1.36,0,0,1,63.93,87Z" transform="translate(-44.48 87.7) rotate(-45)"/><path class="cls-1" d="M180.93,70.44h.33l8.1-30.54h28.88V97.15H200.71V60.43h-.33l-10,36.72H170.24l-9.93-36.72h-.42V97.15H144V39.9h28.71Z"/><path class="cls-1" d="M246.86,76.62h.67l5.59-22.12h16.27L255,94.15c-3.84,10.6-10.77,18.61-21.2,18.61-3.59,0-6.35-.33-8.27-1.25V100.74a17.34,17.34,0,0,0,6.26,1.17c5.18,0,6-3.92,6.51-6L222.65,54.5h17.61Z"/><path class="cls-1" d="M316.88,72.87V78H289.09c0,5.42.91,9.85,5.92,9.85,4.43,0,6.51-2.67,6.51-6.76H316.8C316.8,90.56,309.2,98,296,98h-1.25c-13.27,0-23.37-7.51-23.37-20.87V74.53c0-13.35,9.52-20.86,22.79-20.86h2.08C309.37,53.67,316.88,61.76,316.88,72.87Zm-27.79-2.09H300.6c0-4.84-2.42-7-5.75-7C291.34,63.77,289.09,66.19,289.09,70.78Z"/><path class="cls-1" d="M360.53,66.52a41.45,41.45,0,0,1-.34,5.26H346.67v-2c0-2.34-1.25-4.18-3.5-4.18s-3.59,1.84-3.59,4.18V97.15H323.47V54.5h12.35l1.84,6.18c.58-1.25,4.34-7,11.27-7C357,53.67,360.53,58.17,360.53,66.52Z"/><path class="cls-1" d="M405,65.1a13.43,13.43,0,0,1-.17,2.17H391.16v-.41c0-2.51-3.59-3.34-5.85-3.34-1.58,0-6.17,0-6.17,2.42,0,6.09,26.79-1.59,26.79,17,0,11.36-10,15-19.78,15h-4.34c-8.93,0-18.45-4.18-18.45-13.27a8.51,8.51,0,0,1,.09-1.51h13.6a1.72,1.72,0,0,0-.08.59c0,3.25,4.25,4.09,7.17,4.09,1.59,0,7.1-.09,7.1-2.59C391.24,79,364.7,86,364.7,68c0-10.26,10.93-14.35,19.61-14.35h2.59C394.24,53.67,405,57.26,405,65.1Z"/><path class="cls-1" d="M479.79,64.94v7.17a25,25,0,0,1-25,25H429V39.9h25.79A25,25,0,0,1,479.79,64.94ZM446.65,83.88h6.43a8.27,8.27,0,0,0,8.35-8.34V61.26a8.27,8.27,0,0,0-8.35-8.34h-6.43Z"/><path class="cls-1" d="M530,72.87V78H502.24c0,5.42.91,9.85,5.92,9.85,4.43,0,6.51-2.67,6.51-6.76H530c0,9.43-7.6,16.86-20.79,16.86h-1.25c-13.27,0-23.37-7.51-23.37-20.87V74.53c0-13.35,9.52-20.86,22.79-20.86h2.08C522.52,53.67,530,61.76,530,72.87Zm-27.79-2.09h11.51c0-4.84-2.42-7-5.75-7C504.49,63.77,502.24,66.19,502.24,70.78Z"/><path class="cls-1" d="M575.93,65.1a14.88,14.88,0,0,1-.16,2.17H562.08v-.41c0-2.51-3.59-3.34-5.85-3.34-1.58,0-6.17,0-6.17,2.42,0,6.09,26.79-1.59,26.79,17,0,11.36-10,15-19.78,15h-4.34c-8.93,0-18.45-4.18-18.45-13.27a8.51,8.51,0,0,1,.09-1.51H548a1.72,1.72,0,0,0-.08.59c0,3.25,4.25,4.09,7.18,4.09,1.58,0,7.09-.09,7.09-2.59,0-6.26-26.54.67-26.54-17.28,0-10.26,10.93-14.35,19.61-14.35h2.59C565.17,53.67,575.93,57.26,575.93,65.1Z"/><path class="cls-1" d="M599.71,49H583.27V37.06h16.44Zm0,5.6V97.15H583.27V54.59Z"/><path class="cls-1" d="M634.85,54.17c4.68-3.09,5.84-5.93,5.84-7.35h12.36c0,6.6-3.59,9.6-9.18,11.19l-.09.25c2.76,2.34,4.76,5.42,4.76,8.76,0,7.43-7.6,13.44-16.69,13.44h-5.76c-3.42,0-4.76,1.17-4.76,2.5s.83,2.59,4.76,2.59h13.6c9.18,0,13.36,5.43,13.36,13s-7.6,14.27-16.7,14.27H614.24a10,10,0,0,1-10-10,10.6,10.6,0,0,1,6.34-9.52,8.92,8.92,0,0,1-4-7.26c0-4.25,3.42-7.84,7.68-8.93-3.59-2.42-6.43-5.92-6.43-10,0-7.43,6.17-13.44,19.2-13.44A50.77,50.77,0,0,1,634.85,54.17Zm-12.77,43c-2.34,0-4.17,1.51-4.17,3.43s1.83,3.5,4.17,3.5H634c2.33,0,4.17-1.5,4.17-3.42s-1.84-3.51-4.17-3.51Zm1.34-30a5.09,5.09,0,1,0,5.09-5.26A5.09,5.09,0,0,0,623.42,67.11Z"/><path class="cls-1" d="M699.2,66.19v31H682.67V70.44c0-2.75-2-5-4.42-5s-4.42,2.25-4.42,5V97.15H657.3V54.5h12.44l1.66,6.18c3.68-4.93,7.77-7,14.11-7C694,53.67,699.2,58.93,699.2,66.19Z"/><path class="cls-1" d="M774.14,63.35H757.7c0-8.43-2.67-11.27-8.85-11.27-5.09,0-8.26,3.42-8.26,8.35V76.54c0,4.92,2.92,8.34,8.26,8.34,7.1,0,9.6-2.58,9.6-11.1h15.69c0,15-10,24.21-23.53,24.21h-2.34c-14.69,0-26.54-9.18-26.54-25V64.1c0-15,12-25,25.87-25h2.34C763.54,39.06,774.14,47.07,774.14,63.35Z"/><path class="cls-1" d="M778.31,76.7V75c0-12.6,9.43-21.28,22.12-21.28h2.67c12.69,0,22.12,8.68,22.12,21.28V76.7c0,12.69-9.43,21.29-22.12,21.29h-2.67C787.74,98,778.31,89.22,778.31,76.7Zm29.22,5.35V69.61a5.76,5.76,0,1,0-11.52,0V82.05a5.76,5.76,0,1,0,11.52,0Z"/><path class="cls-1" d="M847.33,97.15H831.39V81.88h15.94Z"/></svg>