<svg id="Layer_1" data-name="Layer 1" xmlns="http://www.w3.org/2000/svg" viewBox="0 0 1000 1000"><defs><style>.cls-1{fill:#232323;}</style></defs><rect class="cls-1" x="147.32" y="253.59" width="481.11" height="166.75" rx="10.75" transform="translate(-124.67 372.96) rotate(-45)"/><path class="cls-1" d="M322.68,419.06H789a0,0,0,0,1,0,0v0A166.75,166.75,0,0,1,622.25,585.81H322.68a10.74,10.74,0,0,1-10.74-10.74V429.8a10.74,10.74,0,0,1,10.74-10.74Z" transform="translate(-194.04 536.4) rotate(-45)"/><path class="cls-1" d="M505.17,631.68H825.94a0,0,0,0,1,0,0v0A166.75,166.75,0,0,1,659.19,798.43h-154a10.74,10.74,0,0,1-10.74-10.74V642.42A10.74,10.74,0,0,1,505.17,631.68Z" transform="translate(-312.26 676.26) rotate(-45)"/></svg>