<svg id="Layer_1" data-name="Layer 1" xmlns="http://www.w3.org/2000/svg" viewBox="0 0 677 251"><defs><style>.cls-1{fill:#232323;}</style></defs><path class="cls-1" d="M284.35,91.09h.26l6.22-23.47H313v44H299.55V83.39h-.26l-7.69,28.22H276.14l-7.63-28.22h-.32v28.22H255.94v-44H278Z"/><path class="cls-1" d="M335,95.83h.51l4.3-17h12.51l-11,30.46c-2.95,8.15-8.28,14.3-16.29,14.3a15.25,15.25,0,0,1-6.35-1v-8.27a13.32,13.32,0,0,0,4.81.9c4,0,4.61-3,5-4.62L316.42,78.84H330Z"/><path class="cls-1" d="M388.83,93v4H367.48c0,4.17.7,7.57,4.55,7.57,3.4,0,5-2,5-5.19h11.74c0,7.24-5.84,13-16,13h-1c-10.2,0-18-5.77-18-16v-2c0-10.26,7.31-16,17.51-16H373C383.06,78.2,388.83,84.42,388.83,93Zm-21.35-1.6h8.85c0-3.72-1.86-5.39-4.43-5.39S367.48,87.82,367.48,91.35Z"/><path class="cls-1" d="M422.38,88.07a33.93,33.93,0,0,1-.26,4.05H411.73V90.58c0-1.8-1-3.21-2.69-3.21s-2.76,1.41-2.76,3.21v21H393.9V78.84h9.49l1.41,4.74c.45-1,3.34-5.38,8.66-5.38C419.68,78.2,422.38,81.66,422.38,88.07Z"/><path class="cls-1" d="M456.56,87a11.65,11.65,0,0,1-.12,1.67H445.92v-.32c0-1.92-2.76-2.56-4.49-2.56-1.22,0-4.75,0-4.75,1.86,0,4.68,20.59-1.22,20.59,13.08,0,8.72-7.7,11.54-15.2,11.54h-3.34c-6.86,0-14.17-3.2-14.17-10.19a6.46,6.46,0,0,1,.07-1.16h10.45a1.33,1.33,0,0,0-.06.45c0,2.5,3.27,3.14,5.51,3.14,1.22,0,5.45-.06,5.45-2,0-4.81-20.39.52-20.39-13.27,0-7.89,8.4-11,15.07-11h2C448.29,78.2,456.56,81,456.56,87Z"/><path class="cls-1" d="M295,142.65v5.52a19.22,19.22,0,0,1-19.24,19.24H255.94v-44h19.82A19.22,19.22,0,0,1,295,142.65Zm-25.46,14.56h4.93a6.36,6.36,0,0,0,6.42-6.41v-11a6.36,6.36,0,0,0-6.42-6.41h-4.93Z"/><path class="cls-1" d="M333.61,148.74v4H312.25c0,4.17.71,7.57,4.56,7.57,3.4,0,5-2,5-5.2h11.73c0,7.25-5.83,13-16,13h-1c-10.19,0-17.95-5.77-17.95-16v-2c0-10.26,7.31-16,17.5-16h1.61C327.84,134,333.61,140.21,333.61,148.74Zm-21.36-1.6h8.85c0-3.72-1.86-5.39-4.42-5.39S312.25,143.61,312.25,147.14Z"/><path class="cls-1" d="M368.88,142.78a11.89,11.89,0,0,1-.12,1.67H358.24v-.32c0-1.93-2.76-2.57-4.49-2.57-1.22,0-4.75,0-4.75,1.86,0,4.68,20.59-1.22,20.59,13.08,0,8.73-7.7,11.55-15.2,11.55h-3.33c-6.87,0-14.18-3.21-14.18-10.2a6.35,6.35,0,0,1,.07-1.15H347.4a1.33,1.33,0,0,0-.06.45c0,2.5,3.27,3.14,5.51,3.14,1.22,0,5.45-.07,5.45-2,0-4.81-20.39.51-20.39-13.27,0-7.89,8.4-11,15.07-11h2C360.61,134,368.88,136.75,368.88,142.78Z"/><path class="cls-1" d="M387.17,130.4H374.53v-9.17h12.64Zm0,4.3v32.71H374.53V134.7Z"/><path class="cls-1" d="M414.17,134.38c3.59-2.37,4.49-4.55,4.49-5.64h9.49c0,5.06-2.76,7.37-7.06,8.59l-.06.19c2.12,1.8,3.66,4.17,3.66,6.73,0,5.71-5.84,10.33-12.83,10.33h-4.43c-2.63,0-3.65.9-3.65,1.92s.64,2,3.65,2h10.46c7.05,0,10.26,4.17,10.26,10s-5.84,11-12.83,11h-17a7.71,7.71,0,0,1-7.7-7.69,8.13,8.13,0,0,1,4.88-7.31,6.88,6.88,0,0,1-3.08-5.58c0-3.27,2.63-6,5.9-6.86-2.76-1.86-4.94-4.56-4.94-7.7,0-5.71,4.74-10.33,14.75-10.33A39.18,39.18,0,0,1,414.17,134.38Zm-9.81,33c-1.8,0-3.21,1.15-3.21,2.63a3,3,0,0,0,3.21,2.69h9.17c1.79,0,3.2-1.15,3.2-2.63a3,3,0,0,0-3.2-2.69Zm1-23.09a3.92,3.92,0,1,0,3.91-4A3.92,3.92,0,0,0,405.38,144.32Z"/><path class="cls-1" d="M463.62,143.61v23.8h-12.7V146.88a3.43,3.43,0,1,0-6.8,0v20.53h-12.7V134.64H441l1.28,4.74c2.82-3.78,6-5.39,10.84-5.39C459.64,134,463.62,138,463.62,143.61Z"/><path class="cls-1" d="M521.21,141.43H508.58c0-6.47-2.05-8.65-6.8-8.65a6,6,0,0,0-6.35,6.41v12.38c0,3.78,2.25,6.41,6.35,6.41,5.45,0,7.38-2,7.38-8.53h12.05c0,11.54-7.69,18.6-18.08,18.6h-1.8c-11.29,0-20.39-7.06-20.39-19.24V142c0-11.54,9.23-19.24,19.88-19.24h1.8C513.07,122.77,521.21,128.93,521.21,141.43Z"/><path class="cls-1" d="M524.42,151.69v-1.34c0-9.69,7.25-16.36,17-16.36h2.05c9.75,0,17,6.67,17,16.36v1.34c0,9.75-7.25,16.36-17,16.36h-2.05C531.67,168.05,524.42,161.31,524.42,151.69Zm22.45,4.11v-9.56a4.43,4.43,0,1,0-8.85,0v9.56a4.43,4.43,0,1,0,8.85,0Z"/><path class="cls-1" d="M577.47,167.41H565.22V155.67h12.25Z"/><rect class="cls-1" x="75.35" y="72.79" width="94.64" height="32.8" rx="2.11" transform="translate(-27.14 112.86) rotate(-45)"/><path class="cls-1" d="M109.84,105.34h91.73a0,0,0,0,1,0,0v0a32.8,32.8,0,0,1-32.8,32.8H109.84a2.11,2.11,0,0,1-2.11-2.11V107.45A2.11,2.11,0,0,1,109.84,105.34Z" transform="translate(-40.78 145.01) rotate(-45)"/><path class="cls-1" d="M145.74,147.16h63.1a0,0,0,0,1,0,0v0A32.8,32.8,0,0,1,176,180h-30.3a2.11,2.11,0,0,1-2.11-2.11V149.27a2.11,2.11,0,0,1,2.11-2.11Z" transform="translate(-64.04 172.52) rotate(-45)"/></svg>