<svg id="Layer_1" data-name="Layer 1" xmlns="http://www.w3.org/2000/svg" viewBox="0 0 1000 270"><defs><style>.cls-1{fill:#ccaa8f;}</style></defs><rect class="cls-1" x="-9.9" y="104.96" width="193.56" height="67.12" rx="4.33" transform="translate(-51.64 225.4) rotate(-90)"/><path class="cls-1" d="M88.61,105.74H276.22a0,0,0,0,1,0,0v0a67.1,67.1,0,0,1-67.1,67.1H88.61a4.32,4.32,0,0,1-4.32-4.32V110.06a4.32,4.32,0,0,1,4.32-4.32Z" transform="translate(40.95 319.56) rotate(-90)"/><path class="cls-1" d="M209.64,135H338.69a0,0,0,0,1,0,0v0a67.1,67.1,0,0,1-67.1,67.1h-62a4.32,4.32,0,0,1-4.32-4.32V139.31a4.32,4.32,0,0,1,4.32-4.32Z" transform="translate(103.45 440.55) rotate(-90)"/><path d="M386.72,228.36v-179h62.66l30.95,156h4.6l30.95-156h62.66v179H545.8V74.14h-4.6L510.51,228.36H454.75L424.06,74.14h-4.6V228.36Z"/><path d="M624.58,228.36V198.69h23.53V79H624.58V49.33h73.66q36.06,0,54.86,18.28T771.9,122v33.76q0,36.06-18.8,54.35t-54.86,18.29Zm57.29-30.69h16.88q20.46,0,29.92-10.74t9.47-30.18V120.94q0-19.69-9.47-30.31T698.75,80H681.87Z"/><path d="M880.33,231.94q-33.24,0-52.68-18.54t-19.44-53.07v-43q0-34.53,19.44-53.07t52.68-18.54q33,0,51,18t18,49.49v1.53H916.14v-2.56q0-15.85-8.82-26.08t-27-10.23q-17.9,0-28.13,11T842,116.85v44q0,18.67,10.23,29.79t28.13,11.13q18.17,0,27-10.36t8.82-26v-4.6h33.25v3.58q0,31.46-18,49.49T880.33,231.94Z"/></svg>