<svg id="Layer_1" data-name="Layer 1" xmlns="http://www.w3.org/2000/svg" viewBox="0 0 1014 792"><defs><style>.cls-1{fill:#eaeaea;}.cls-2{fill:#fff;}</style></defs><title>Brand2020</title><rect class="cls-1" x="-0.12" y="0.24" width="1014.24" height="791.53"/><rect class="cls-2" x="69.13" y="183.94" width="414.74" height="143.75" rx="9.27" transform="translate(-99.9 270.44) rotate(-45)"/><path class="cls-2" d="M220.3,326.58h402a0,0,0,0,1,0,0v0A143.75,143.75,0,0,1,478.55,470.33H220.3a9.26,9.26,0,0,1-9.26-9.26V335.84a9.26,9.26,0,0,1,9.26-9.26Z" transform="translate(-159.71 411.33) rotate(-45)"/><path class="cls-2" d="M377.61,509.88H654.14a0,0,0,0,1,0,0v0A143.75,143.75,0,0,1,510.39,653.62H377.61a9.26,9.26,0,0,1-9.26-9.26V519.13a9.26,9.26,0,0,1,9.26-9.26Z" transform="translate(-261.62 531.9) rotate(-45)"/></svg>