<svg id="Layer_1" data-name="Layer 1" xmlns="http://www.w3.org/2000/svg" viewBox="0 0 1014 792"><defs><style>.cls-1{fill:#f1eaea;}.cls-2{opacity:0.68;}.cls-3{fill:#fff;}.cls-4{fill:#d3cdcd;}</style></defs><rect class="cls-1" x="-0.12" y="0.24" width="1014.24" height="791.53"/><g class="cls-2"><circle class="cls-3" cx="627.23" cy="394.14" r="309.11"/><rect class="cls-4" x="64.83" y="198.2" width="386.88" height="134.09" rx="8.64" transform="translate(-111.91 260.31) rotate(-45)"/><path class="cls-4" d="M205.85,331.26h375a0,0,0,0,1,0,0v0A134.09,134.09,0,0,1,446.74,465.35H205.85a8.63,8.63,0,0,1-8.63-8.63V339.89a8.63,8.63,0,0,1,8.63-8.63Z" transform="translate(-167.7 391.74) rotate(-45)"/><path class="cls-4" d="M352.59,502.24H610.53a0,0,0,0,1,0,0v0A134.09,134.09,0,0,1,476.45,636.33H352.59a8.63,8.63,0,0,1-8.63-8.63V510.87a8.63,8.63,0,0,1,8.63-8.63Z" transform="translate(-262.76 504.2) rotate(-45)"/></g></svg>