<svg id="Layer_1" data-name="Layer 1" xmlns="http://www.w3.org/2000/svg" viewBox="0 0 1200 2966"><defs><style>.cls-1{fill:#161617;}.cls-2{fill:#828284;}.cls-3{fill:#231f20;}.cls-4{fill:none;stroke:#000;stroke-miterlimit:10;stroke-width:1.05px;}</style></defs><path class="cls-1" d="M197,1914.23l-79.72,79.64,51.06,51.06,32.58-32.58L248,1965.28Zm-2.47,13,6.55,6.56-6.55,6.57-4.55,4.54-6.56-6.57Zm-18.36,18.35,6.56,6.56-6.56,6.57-4.54,4.55-6.56-6.57Zm-36.7,49.84-4.54,4.54-6.57-6.56,11.11-11.11,6.56,6.56Zm13.8-13.82-6.56-6.56,11.11-11.11,6.56,6.57-6.57,6.56Zm20.27,47.89L169,2034l-6.56-6.55,11.11-11.11,6.55,6.56Zm18.35-18.36-4.54,4.55-6.56-6.57L191.87,1998l6.54,6.57Zm18.35-18.36-4.54,4.55-6.56-6.56,11.11-11.11,6.56,6.57ZM224,1979l-6.57-6.56,11.11-11.11,6.56,6.56-6.56,6.57Z"/><polygon class="cls-2" points="155.72 1955.44 247.94 1965.29 196.97 1914.23 155.72 1955.44"/><path class="cls-1" d="M184.5,1824.57l-79.72,79.64,51.06,51.06,32.58-32.58,47.06-47.06Zm-2.46,13,6.54,6.56-6.55,6.56-4.55,4.54-6.55-6.56Zm-18.36,18.35,6.56,6.56-6.57,6.56-4.54,4.55-6.56-6.57ZM127,1905.74l-4.54,4.54-6.57-6.56L127,1892.61l6.55,6.56Zm13.81-13.81-6.56-6.57,11.11-11.1,6.56,6.56-6.57,6.57ZM161,1939.81l-4.54,4.54-6.56-6.56,11.11-11.11,6.55,6.56Zm18.35-18.36-4.54,4.55-6.56-6.57,11.11-11.1,6.55,6.56Zm18.35-18.35-4.54,4.54-6.56-6.55L197.75,1890l6.56,6.57Zm13.81-13.81-6.56-6.56,11.11-11.11,6.55,6.56-6.56,6.57Z"/><polygon class="cls-1" points="1063.14 643.45 1056.16 636.47 1042.39 650.25 1028.61 636.47 1021.64 643.45 1042.39 664.2 1042.39 664.2 1042.39 664.2 1063.14 643.45"/><path class="cls-1" d="M1100.31,692.87a73.75,73.75,0,1,1,0-89.74l.2.26,28-10.61a102.8,102.8,0,1,0,0,110.44l-28-10.61Z"/><path class="cls-2" d="M1041.8,576.41a71.59,71.59,0,1,0,55.91,116.29l-27.33-10.37a44.7,44.7,0,1,1,0-68.66l27.34-10.37A71.12,71.12,0,0,0,1041.8,576.41Z"/><polygon class="cls-2" points="729.79 671.41 729.79 694.33 676.29 645.61 676.29 622.7 729.79 671.41"/><polygon class="cls-1" points="729.79 724.25 729.79 699.29 676.29 650.58 676.29 724.25 729.79 724.25"/><polygon class="cls-2" points="467.12 671.41 467.12 694.33 520.62 645.61 520.62 622.7 467.12 671.41"/><polygon class="cls-1" points="520.62 724.25 520.62 650.58 467.12 699.29 467.12 724.25 520.62 724.25"/><path class="cls-1" d="M647.05,724.25c2.22,0,3.06-1.39,2.08-3.2L624,664.85,647.6,616.3c1-1.95.14-3.34-1.94-3.34H631.05a3.3,3.3,0,0,0-3.2,2.08l-21.42,43.83V615.74a2.49,2.49,0,0,0-2.78-2.78H590.29a2.49,2.49,0,0,0-2.78,2.78V721.47a2.5,2.5,0,0,0,2.78,2.78h13.36a2.5,2.5,0,0,0,2.78-2.78V690.72l5.14-9.87,17.54,41.31a3.05,3.05,0,0,0,3.19,2.09Z"/><path class="cls-1" d="M548,653c0,13.08,6.94,20,20,20h18.37c12.93,0,20-7,20-20V614.34a2,2,0,0,0-2.22-2.23H580.77a1.94,1.94,0,0,0-2.23,2.23v13.91a2,2,0,0,0,2.23,2.23H588v18.64c0,3.75-2,5.56-5.57,5.56h-10c-3.61,0-5.56-1.81-5.56-5.56V585.69c0-3.63,1.81-5.57,5.56-5.57h10c3.62,0,5.57,1.94,5.57,5.57v10.57a2,2,0,0,0,2.22,2.22h13.92a2,2,0,0,0,2.22-2.22V581.79c0-13.08-7.1-20-20-20H568c-13.08,0-20,7-20,20Z"/><path class="cls-2" d="M170.66,650.77c-3,.69-6.77,1.6-11.29,2.77.09,1.28.16,2.56.16,3.87a51.4,51.4,0,0,1-2.38,15.52,15.18,15.18,0,0,0,9.19,3.16,10.07,10.07,0,0,0,1.95-.32,63.28,63.28,0,0,0,2.37-25Z"/><path class="cls-2" d="M145.76,692.6a51.95,51.95,0,1,1-61.43-81.66A91.23,91.23,0,0,1,86,597.72,63.44,63.44,0,1,0,159.38,694,103,103,0,0,1,145.76,692.6Z"/><path class="cls-2" d="M139.77,602.77c-.38,4.78-.47,9.4-.41,13.58A52.56,52.56,0,0,1,149.69,627l12.55-1.75A64,64,0,0,0,139.77,602.77Z"/><path class="cls-1" d="M179.1,695.84s20.83-1.3,33-24c.18,18.23-7.3,53.6-8.38,57.88-5.71,22.6-35.61,24-41.44,19.17C163.81,742.3,179.1,695.84,179.1,695.84ZM84.77,646.6c-10.33,9.2-4.63,40.36.7,34.15,2.87-3.35,7.24-9.24,13.1-13.4a91.1,91.1,0,0,1-11.43-22A8.45,8.45,0,0,0,84.77,646.6Zm222.06-32.1c-3.16-1.37-108.16,12.21-163.15,20,.44,6.61,2,10.84,3.37,15.54,16.11-4.44,38.57-10.08,39-7.44,6.49,39.92-19.71,40-19.71,40-27.14,0-32.19-47.21-32.19-47.21s-12.7-84.5,39.37-84.5c0,0,13.52.09,22.32,4.85a9.68,9.68,0,1,0,7.56,1.8v-.13s-10.82-12.57-37.63-12.57c0,0-75.07,0-75.07,72.42,0,0-.91,70.15,72.8,70.15,15.48,0,51.27-8.28,51.27-49.78,0,0,31.81-9.11,93.08-14.11C307.85,623.57,310.14,615.94,306.83,614.5Z"/><path class="cls-1" d="M1048.45,1099.86s4.08-13.3-9.22-13.3-46.55,75.21-2,75.21c0,0,25.58,4.61,24.56-21,0,0,.84-11.85-17.4-20.47C1023.86,1110.65,1039.75,1083.49,1048.45,1099.86Z"/><path class="cls-2" d="M1037.84,1082.69s-2.47-1.52-2.47-5.92,2.82-4.33,2.82-4.33,2.88.14,2.61,4.88A6.3,6.3,0,0,1,1037.84,1082.69Z"/><path class="cls-2" d="M1001.44,1034.27s-7.73.31-14.24-9.45-.15-13.79-.15-13.79,6.6-3.95,13,7C1005.47,1027.19,1001.44,1034.27,1001.44,1034.27Z"/><path class="cls-2" d="M930.2,1143.64s-1.64,5.46-9.14,6.88-8.46-4.27-8.46-4.27-.85-5.83,7.33-6.82A11,11,0,0,1,930.2,1143.64Z"/><path class="cls-2" d="M937.45,1135.85s-.85,2.85-4.77,3.59-4.42-2.23-4.42-2.23-.45-3,3.83-3.57A5.74,5.74,0,0,1,937.45,1135.85Z"/><path class="cls-2" d="M942.36,1124.41s-2.18,4.18-8.5,4.17-6.21-4.79-6.21-4.79.21-4.87,7-4.4A9.06,9.06,0,0,1,942.36,1124.41Z"/><path class="cls-2" d="M921,1127.67s-1.08,3.59-6,4.52-5.56-2.81-5.56-2.81-.57-3.84,4.82-4.49A7.22,7.22,0,0,1,921,1127.67Z"/><path class="cls-2" d="M932.3,1110.89s-1.4,4.67-7.83,5.89-7.23-3.65-7.23-3.65-.73-5,6.27-5.84A9.37,9.37,0,0,1,932.3,1110.89Z"/><path class="cls-2" d="M925.78,1096.1s-1.58,5.26-8.8,6.63-8.15-4.11-8.15-4.11-.82-5.62,7.06-6.57A10.56,10.56,0,0,1,925.78,1096.1Z"/><path class="cls-2" d="M923.33,1084s-4.42,2.48-10.09-1.25-2.77-8-2.77-8,3-4.25,8.9.16A9.78,9.78,0,0,1,923.33,1084Z"/><path class="cls-2" d="M940.47,1076.57s-7.35,2.81-15.22-4.19-2.47-12.83-2.47-12.83,5.65-5.86,13.63,2.25A15.14,15.14,0,0,1,940.47,1076.57Z"/><path class="cls-2" d="M921.61,1054.13s-6.13,1-11.11-5.64.12-10.32.12-10.32,5.3-3.64,10.19,3.9A11.93,11.93,0,0,1,921.61,1054.13Z"/><path class="cls-2" d="M943.91,1056.46s-4.58,1.92-9.68-2.34-1.81-8-1.81-8,3.45-3.8,8.64,1.15A9.55,9.55,0,0,1,943.91,1056.46Z"/><path class="cls-2" d="M954.28,1045.1s-7,1-12.47-6.63.36-11.69.36-11.69,6.07-4,11.47,4.63A13.53,13.53,0,0,1,954.28,1045.1Z"/><path class="cls-2" d="M975.44,1037.79s-5.61.61-9.79-5.68.64-9.36.64-9.36,5-3,9,4.06A10.85,10.85,0,0,1,975.44,1037.79Z"/><path class="cls-2" d="M1012.53,1016.08s-3.84-.57-5.53-5.5,2.07-6.13,2.07-6.13,3.85-1.14,5.31,4.29A7.48,7.48,0,0,1,1012.53,1016.08Z"/><path class="cls-2" d="M1028.12,1006.68s-6.71-1.92-8.55-11.09,5.1-10.41,5.1-10.41,7.12-1.13,8.46,8.87A13.43,13.43,0,0,1,1028.12,1006.68Z"/><path class="cls-2" d="M1038.4,1027.84s-5.49-1.29-7.34-8.62,3.72-8.61,3.72-8.61,5.7-1.2,7.17,6.83A10.85,10.85,0,0,1,1038.4,1027.84Z"/><path class="cls-2" d="M1041.62,1006.45s-3.75-2.41-3.19-8.34,5-5.43,5-5.43,4.56.61,3.54,7A8.55,8.55,0,0,1,1041.62,1006.45Z"/><path class="cls-2" d="M1055.88,1017.76s-6.24-4.26-5-14.31,8.78-9,8.78-9,7.72,1.26,5.69,12A14.55,14.55,0,0,1,1055.88,1017.76Z"/><path class="cls-2" d="M1064.49,1033s-4.2-3.77-2.31-11.09,7.39-5.77,7.39-5.77,5.58,1.69,3,9.44A10.86,10.86,0,0,1,1064.49,1033Z"/><path class="cls-2" d="M1077.79,1043.69s-4.2-3.77-2.3-11.08,7.39-5.78,7.39-5.78,5.57,1.7,3,9.45A10.85,10.85,0,0,1,1077.79,1043.69Z"/><path class="cls-2" d="M1089.51,1023.81s-3.47-3.11-1.9-9.15,6.1-4.77,6.1-4.77,4.62,1.4,2.5,7.8A9,9,0,0,1,1089.51,1023.81Z"/><path class="cls-2" d="M1097.3,1039.57s-4-5-.39-12.88,9.41-5,9.41-5,5.93,3,1.53,11.17A12.38,12.38,0,0,1,1097.3,1039.57Z"/><path class="cls-2" d="M1112.79,1018.84s-1.83-2.2-.33-5.73,4.14-2.34,4.14-2.34,2.67,1.27.8,5A5.51,5.51,0,0,1,1112.79,1018.84Z"/><path class="cls-2" d="M1115.84,1034.86s-3.11-2.79-1.71-8.21,5.47-4.26,5.47-4.26,4.13,1.25,2.23,7A8,8,0,0,1,1115.84,1034.86Z"/><path class="cls-2" d="M1107.19,1050.09s-2.82-4.06.28-9.91,7.46-3.42,7.46-3.42,4.42,2.57.66,8.65A9.5,9.5,0,0,1,1107.19,1050.09Z"/><path class="cls-2" d="M1123.15,1049.51s-3.16-5.59,1.53-12.78,10-3.55,10-3.55,5.4,3.85-.16,11.27A12.36,12.36,0,0,1,1123.15,1049.51Z"/><path class="cls-2" d="M1125.7,1071.15s-2.08-7.44,5.48-14.5,12.77-1.24,12.77-1.24,5.21,6.06-3.44,13.13A14.87,14.87,0,0,1,1125.7,1071.15Z"/><path class="cls-2" d="M1142.87,1074.78s-1-3.87,3-7.46,6.62-.53,6.62-.53,2.65,3.18-1.89,6.76A7.69,7.69,0,0,1,1142.87,1074.78Z"/><path class="cls-2" d="M1127.89,1092.4s0-5.81,6.9-9.38,9.49,1.68,9.49,1.68,2.54,5.44-5.14,8.8A11.18,11.18,0,0,1,1127.89,1092.4Z"/><path class="cls-2" d="M1147.26,1096.05s-1.12-4.44,3.47-8.51,7.59-.53,7.59-.53,3,3.67-2.24,7.72A8.82,8.82,0,0,1,1147.26,1096.05Z"/><path class="cls-2" d="M1143.74,1105.54s1.68-4.4,8-5.11,6.72,4,6.72,4,.34,4.87-6.47,5.18A9,9,0,0,1,1143.74,1105.54Z"/><path class="cls-2" d="M1134.52,1122.43s1.69-4.41,8-5.12,6.71,4,6.71,4,.35,4.86-6.46,5.18A9.09,9.09,0,0,1,1134.52,1122.43Z"/><path class="cls-2" d="M1132.38,1139.64s2.78-5.77,11.37-6,8.64,6.24,8.64,6.24-.07,6.63-9.35,6.28A12.35,12.35,0,0,1,1132.38,1139.64Z"/><path class="cls-2" d="M948.7,1156.57s-2.26,7-12,8.68-10.85-5.73-10.85-5.73-1-7.58,9.67-8.67A14.24,14.24,0,0,1,948.7,1156.57Z"/><path class="cls-2" d="M947.79,1142s-1,3.36-5.64,4.24-5.21-2.63-5.21-2.63-.53-3.6,4.52-4.21A6.76,6.76,0,0,1,947.79,1142Z"/><path class="cls-2" d="M955,1131.56s-1.17,3.31-5.84,4-5.08-2.88-5.08-2.88-.35-3.62,4.72-4A6.78,6.78,0,0,1,955,1131.56Z"/><path class="cls-2" d="M954,1111.72s-3.56,4.45-11,3-6.26-7.12-6.26-7.12,1.39-5.73,9.35-3.59A11,11,0,0,1,954,1111.72Z"/><path class="cls-2" d="M944.19,1093.32s-3.55,4.38-10.92,2.87-6.13-7.07-6.13-7.07,1.4-5.64,9.24-3.48A10.82,10.82,0,0,1,944.19,1093.32Z"/><path class="cls-2" d="M964,1101.24s-2.25,2.71-6.85,1.7-3.78-4.45-3.78-4.45.92-3.52,5.81-2.12A6.79,6.79,0,0,1,964,1101.24Z"/><path class="cls-2" d="M968.56,1086.46s-4.87,5.27-14.13,2.72-7.19-9.49-7.19-9.49,2.26-7.07,12-3.65A13.78,13.78,0,0,1,968.56,1086.46Z"/><path class="cls-2" d="M973.65,1074.88s-2.36,2.6-6.91,1.39-3.57-4.63-3.57-4.63,1.08-3.48,5.9-1.84A6.75,6.75,0,0,1,973.65,1074.88Z"/><path class="cls-2" d="M964.43,1064.81s-3.84,4.22-11.22,2.26-5.78-7.51-5.78-7.51,1.76-5.63,9.57-3A11,11,0,0,1,964.43,1064.81Z"/><path class="cls-2" d="M975.68,1060.45s-7.16,2.23-14.23-4.9-1.57-12.36-1.57-12.36,5.73-5.22,12.83,3A14.42,14.42,0,0,1,975.68,1060.45Z"/><path class="cls-2" d="M991,1062.76s-3.77.69-6.9-3.38,0-6.35,0-6.35,3.23-2.29,6.32,2.31A7.36,7.36,0,0,1,991,1062.76Z"/><path class="cls-2" d="M993.86,1049.46s-5,.17-8.26-5.65,1.17-8.2,1.17-8.2,4.59-2.35,7.71,4.16A9.59,9.59,0,0,1,993.86,1049.46Z"/><path class="cls-2" d="M1016.51,1056.56s-7.75.83-13.5-7.87.9-12.92.9-12.92,6.9-4.16,12.48,5.63A15,15,0,0,1,1016.51,1056.56Z"/><path class="cls-2" d="M1020.22,1037.53s-5.72-.33-8.85-7.34,2.2-9.27,2.2-9.27,5.51-2.19,8.39,5.59A11,11,0,0,1,1020.22,1037.53Z"/><path class="cls-2" d="M1030.27,1040s-3.33-1.54-3.56-6.46,3.5-5,3.5-5,3.8,0,3.69,5.31A7.09,7.09,0,0,1,1030.27,1040Z"/><path class="cls-2" d="M1039.5,1051.62s-4.2-3.36-2.8-10.42,6.7-5.9,6.7-5.9,5.41,1.31,3.4,8.82A10.36,10.36,0,0,1,1039.5,1051.62Z"/><path class="cls-2" d="M1049.22,1035.76s-4.2-3.36-2.81-10.42,6.72-5.9,6.72-5.9,5.4,1.3,3.39,8.81A10.34,10.34,0,0,1,1049.22,1035.76Z"/><path class="cls-2" d="M1056.39,1048.55s-4.21-3.35-2.81-10.42,6.71-5.9,6.71-5.9,5.4,1.3,3.39,8.81A10.35,10.35,0,0,1,1056.39,1048.55Z"/><path class="cls-2" d="M1067.48,1057.43s-3.51-2.8-2.34-8.69,5.59-4.92,5.59-4.92,4.51,1.09,2.83,7.36A8.63,8.63,0,0,1,1067.48,1057.43Z"/><path class="cls-2" d="M1075.69,1071.68s-4.6-5.06-1.4-13.64,9.61-6,9.61-6,6.52,2.74,2.47,11.75A13.17,13.17,0,0,1,1075.69,1071.68Z"/><path class="cls-2" d="M1090.19,1051s-3.11-2.48-2.08-7.71,5-4.37,5-4.37,4,1,2.51,6.52A7.68,7.68,0,0,1,1090.19,1051Z"/><path class="cls-2" d="M1094.94,1063.68s-3-4,0-10,7.38-3.67,7.38-3.67,4.52,2.45.94,8.67A9.56,9.56,0,0,1,1094.94,1063.68Z"/><path class="cls-2" d="M1110.15,1068s-2.55-4.73,1.52-10.68,8.49-2.78,8.49-2.78,4.45,3.32-.35,9.44A10.34,10.34,0,0,1,1110.15,1068Z"/><path class="cls-2" d="M1103.49,1092s-2.23-6.93,4.64-13.85,12-1.62,12-1.62,5.12,5.52-2.78,12.48A14,14,0,0,1,1103.49,1092Z"/><path class="cls-2" d="M1108.5,1103.18s-.53-5.36,5.5-9.29,8.91.68,8.91.68,2.84,4.78-3.94,8.59A10.36,10.36,0,0,1,1108.5,1103.18Z"/><path class="cls-2" d="M1122.23,1109.76s1.33-4.7,7.74-6,7.3,3.55,7.3,3.55.81,5-6.19,5.93A9.38,9.38,0,0,1,1122.23,1109.76Z"/><path class="cls-2" d="M1111.4,1129.58s3.1-6.36,12.57-6.59,9.51,6.94,9.51,6.94-.13,7.31-10.36,6.88A13.59,13.59,0,0,1,1111.4,1129.58Z"/><path class="cls-2" d="M1113.61,1149.26s1.5-5.16,8.57-6.55,8,4,8,4,.84,5.49-6.87,6.48A10.32,10.32,0,0,1,1113.61,1149.26Z"/><path class="cls-2" d="M1095.78,1085.39s-4.2-3.36-2.8-10.42,6.71-5.9,6.71-5.9,5.4,1.3,3.39,8.81A10.34,10.34,0,0,1,1095.78,1085.39Z"/><path class="cls-2" d="M1045.38,1071.63s-3-1.61-3-6.31,3.4-4.62,3.4-4.62,3.4.14,3.15,5.21S1045.38,1071.63,1045.38,1071.63Z"/><path class="cls-2" d="M1056.05,1074.24s-5-4.11-3.22-12.86,8-7.35,8-7.35,6.27,1.54,3.93,10.88S1056.05,1074.24,1056.05,1074.24Z"/><path class="cls-2" d="M1050.11,1054a3.74,3.74,0,0,1-.92-3.64c.5-2.47,2.28-2.08,2.28-2.08s1.78.44,1.12,3.08S1050.11,1054,1050.11,1054Z"/><path class="cls-2" d="M1079.68,1084s-1.83-4.49,2.42-9.68,8-2,8-2,3.62,3.24-1.24,8.6S1079.68,1084,1079.68,1084Z"/><path class="cls-2" d="M1062.29,1084.51s-1.83-4.49,2.42-9.68,7.94-2,7.94-2,3.63,3.25-1.24,8.62S1062.29,1084.51,1062.29,1084.51Z"/><path class="cls-2" d="M1070.66,1093.46s-1.36-3.33,1.79-7.17,5.88-1.5,5.88-1.5,2.68,2.4-.92,6.38S1070.66,1093.46,1070.66,1093.46Z"/><path class="cls-2" d="M1082.21,1102.21s-2.38-5.84,3.15-12.6,10.34-2.64,10.34-2.64,4.72,4.22-1.62,11.21S1082.21,1102.21,1082.21,1102.21Z"/><path class="cls-2" d="M1093.65,1106.45s0-4.07,5-6.69,6.8,1,6.8,1,1.74,3.7-3.78,6.25S1093.65,1106.45,1093.65,1106.45Z"/><path class="cls-2" d="M1103.69,1112.13s1.59-3.75,7.2-4.27,5.9,3.54,5.9,3.54.2,4.08-5.87,4.34S1103.69,1112.13,1103.69,1112.13Z"/><path class="cls-2" d="M1089.06,1119.52s1-3.67,6.15-4.84,5.89,2.56,5.89,2.56.69,3.75-4.9,4.74S1089.06,1119.52,1089.06,1119.52Z"/><path class="cls-2" d="M1105.6,1124s.33-3.63,5-5.63,6,1.39,6,1.39,1.3,3.41-3.8,5.32S1105.6,1124,1105.6,1124Z"/><path class="cls-2" d="M1095.19,1128.58s1.9-3,6.81-2.67,4.59,3.89,4.59,3.89-.4,3.54-5.67,2.92S1095.19,1128.58,1095.19,1128.58Z"/><path class="cls-2" d="M1084.33,1140.59s2.37-4.22,9.09-4.1,6.52,5,6.52,5-.3,4.85-7.53,4.37S1084.33,1140.59,1084.33,1140.59Z"/><path class="cls-2" d="M1102.93,1141.14s1.36-2.48,5.28-2.46,3.83,2.86,3.83,2.86-.14,2.83-4.36,2.6S1102.93,1141.14,1102.93,1141.14Z"/><path class="cls-2" d="M1092.24,1153.5s1.8-3.37,7.07-3.4,5.23,3.78,5.23,3.78-.14,3.82-5.83,3.58S1092.24,1153.5,1092.24,1153.5Z"/><path class="cls-2" d="M972.09,1161.64s-1.42,4.44-7.58,5.48-6.84-3.62-6.84-3.62-.61-4.78,6.09-5.46A9,9,0,0,1,972.09,1161.64Z"/><path class="cls-2" d="M962.71,1151.4s-1.88,3.37-7,3.2-4.95-4-4.95-4,.28-4,5.83-3.43A7.43,7.43,0,0,1,962.71,1151.4Z"/><path class="cls-2" d="M961.66,1141.37s-2.2,2.61-6.67,1.61-3.65-4.37-3.65-4.37.92-3.41,5.67-2A6.58,6.58,0,0,1,961.66,1141.37Z"/><path class="cls-2" d="M979.45,1134.41s-1.07,5.45-8.22,7.53-8.6-3.35-8.6-3.35-1.38-5.58,6.47-7.31A10.69,10.69,0,0,1,979.45,1134.41Z"/><path class="cls-2" d="M985.37,1125.7s-1.78,3.88-7.5,4.15-5.82-4-5.82-4,0-4.41,6.14-4.29A8.21,8.21,0,0,1,985.37,1125.7Z"/><path class="cls-2" d="M969.9,1121.93s-.9,4.57-6.89,6.32-7.22-2.81-7.22-2.81-1.16-4.68,5.43-6.13A9,9,0,0,1,969.9,1121.93Z"/><path class="cls-2" d="M977.82,1118.65s-5.61,3-12.62-1.84-3.27-10-3.27-10,4-5.26,11.15.44A12.25,12.25,0,0,1,977.82,1118.65Z"/><path class="cls-2" d="M983.32,1097s-2.48,3.94-8.71,3.41-5.72-5.22-5.72-5.22.6-4.78,7.27-3.77A9,9,0,0,1,983.32,1097Z"/><path class="cls-2" d="M984.2,1086.05s-3,2.83-8.17,1-3.76-5.7-3.76-5.7,1.55-4,7-1.64A7.89,7.89,0,0,1,984.2,1086.05Z"/><path class="cls-2" d="M986.83,1075.42s-5.24,1.76-10.57-3.38-1.36-9.09-1.36-9.09,4.14-4,9.51,2A10.66,10.66,0,0,1,986.83,1075.42Z"/><path class="cls-2" d="M1001.68,1086.64s-4.66-.3-7.17-6,1.85-7.52,1.85-7.52,4.49-1.76,6.78,4.58A9,9,0,0,1,1001.68,1086.64Z"/><path class="cls-2" d="M1009.88,1072.72s-6.19,1.27-11.53-5.31-.28-10.51-.28-10.51,5.25-3.91,10.52,3.57A12.18,12.18,0,0,1,1009.88,1072.72Z"/><path class="cls-2" d="M1023.9,1074.15s-4.56-1-6.18-7,3-7.16,3-7.16,4.7-1,6,5.56A9,9,0,0,1,1023.9,1074.15Z"/><path class="cls-2" d="M1026.75,1056.26s-3.38-.72-4.61-5.19,2.16-5.32,2.16-5.32,3.49-.81,4.49,4.09A6.64,6.64,0,0,1,1026.75,1056.26Z"/><path class="cls-2" d="M1035.61,1065.9s-3.93-1.39-4.69-6.9,3.41-6,3.41-6,4.28-.42,4.71,5.58A8,8,0,0,1,1035.61,1065.9Z"/><path class="cls-2" d="M1024.79,1094.58s-5.84.87-11.6-6-1.26-10.45-1.26-10.45,4.68-3.54,10.46,4.21C1027.25,1088.86,1024.79,1094.58,1024.79,1094.58Z"/><path class="cls-2" d="M1051.92,1100.73s-1.37-5.78,4.6-10.86,9.79-.42,9.79-.42,3.8,4.86-3,9.9A11.3,11.3,0,0,1,1051.92,1100.73Z"/><path class="cls-2" d="M1050.39,1120.53s-1-4.33,3.45-8.15,7.35-.31,7.35-.31,2.85,3.64-2.26,7.43A8.48,8.48,0,0,1,1050.39,1120.53Z"/><path class="cls-2" d="M1064.52,1108.6s-1.09-4.59,3.65-8.62,7.78-.33,7.78-.33,3,3.84-2.4,7.85A9,9,0,0,1,1064.52,1108.6Z"/><path class="cls-2" d="M1079.2,1113.87s-1-4.32,3.43-8.12,7.32-.31,7.32-.31,2.84,3.62-2.25,7.39A8.45,8.45,0,0,1,1079.2,1113.87Z"/><path class="cls-2" d="M1069.29,1121.5s.82-3.69,5.65-5,5.71,2.47,5.71,2.47.83,3.83-4.46,4.83A7.17,7.17,0,0,1,1069.29,1121.5Z"/><path class="cls-2" d="M1059.5,1126.18a5,5,0,0,1,3-4.19c3-1.6,4.21.76,4.21.76s1.16,2.43-2.23,3.93A4.94,4.94,0,0,1,1059.5,1126.18Z"/><path class="cls-2" d="M1062.47,1135s.14-4.06,5-6.34,6.53,1.49,6.53,1.49,1.63,3.88-3.76,6A7.74,7.74,0,0,1,1062.47,1135Z"/><path class="cls-2" d="M1077.37,1131.4s.83-3.52,5.46-4.65,5.42,2.45,5.42,2.45.74,3.67-4.33,4.55A6.87,6.87,0,0,1,1077.37,1131.4Z"/><path class="cls-2" d="M1065.07,1144.86s2.1-4.71,8.91-5.06,7,4.88,7,4.88.06,5.34-7.29,5.23A9.82,9.82,0,0,1,1065.07,1144.86Z"/><path class="cls-2" d="M1060.86,1155.78s1.94-2.52,6.07-1.76,3.47,3.93,3.47,3.93-.73,3.21-5.12,2.09A6.05,6.05,0,0,1,1060.86,1155.78Z"/><path class="cls-2" d="M1077.11,1156.44s2.4-3.12,7.51-2.18,4.3,4.87,4.3,4.87-.91,4-6.35,2.58A7.48,7.48,0,0,1,1077.11,1156.44Z"/><path class="cls-2" d="M1016.62,1106.22s-4.66,1.65-10.48-3.08-2.71-8.38-2.71-8.38,3.29-3.66,9.27,1.78C1017.74,1101.13,1016.62,1106.22,1016.62,1106.22Z"/><path class="cls-2" d="M1017.4,1116.85s-3.24,3.05-9.76,1.25-5.26-5.94-5.26-5.94,1.39-4.2,8.29-1.87C1016.48,1112.25,1017.4,1116.85,1017.4,1116.85Z"/><path class="cls-2" d="M1014.21,1156.46s-.91,3.19-6.19,5.07-6.23-1-6.23-1-.89-3,4.9-4.78C1011.56,1154.24,1014.21,1156.46,1014.21,1156.46Z"/><path class="cls-2" d="M1009.6,1145.08s-1.62,5.2-9.63,7.2-9.16-3.14-9.16-3.14-1.06-5.31,7.68-7C1005.85,1140.74,1009.6,1145.08,1009.6,1145.08Z"/><path class="cls-2" d="M996,1159.88s-1.22,3.91-7.24,5.42-6.9-2.38-6.9-2.38-.8-4,5.78-5.25C993.19,1156.61,996,1159.88,996,1159.88Z"/><path class="cls-2" d="M986.52,1146.45s-1.14,5.76-8.69,8-9.08-3.54-9.08-3.54-1.45-5.89,6.83-7.71A11.29,11.29,0,0,1,986.52,1146.45Z"/><path class="cls-2" d="M994.23,1135.2s-1.33,3-6.3,3.71-5.33-2.51-5.33-2.51-.29-3.28,5.11-3.71A7.2,7.2,0,0,1,994.23,1135.2Z"/><path class="cls-2" d="M1012.67,1136.31s-1.72,2.94-6.91,3-5.16-3.22-5.16-3.22.11-3.4,5.69-3.18C1011,1133.12,1012.67,1136.31,1012.67,1136.31Z"/><path class="cls-2" d="M1006,1128.93s-4.71,3.56-13,.27-6.1-8.56-6.1-8.56,2.41-5.35,11.19-1.31C1005.43,1122.72,1006,1128.93,1006,1128.93Z"/><path class="cls-2" d="M999.24,1111.72s-4.46,3-11.86-.4-5.12-8.08-5.12-8.08,2.45-4.74,10.23-.63C999,1106.06,999.24,1111.72,999.24,1111.72Z"/><path class="cls-2" d="M999.1,1097.51s-4.25,1.73-9.86-2.39-2.88-7.65-2.88-7.65,2.88-3.54,8.67,1.24C999.91,1092.73,999.1,1097.51,999.1,1097.51Z"/><path class="cls-2" d="M1033.2,1083.54s-2.14-.14-3.65-3,.35-3.81.35-3.81,1.86-.86,3.39,2.3A4.85,4.85,0,0,1,1033.2,1083.54Z"/><path class="cls-2" d="M1042.48,1083.09s-1-2.79,1.78-6.33,5-1.68,5-1.68,2.4,2.12-1,5.59A7.18,7.18,0,0,1,1042.48,1083.09Z"/><path class="cls-1" d="M1040.6,1162.48s2.56,15.84-1.37,19.77c-.34.34-1.87,3.74,3.08,1.53s9.71,2.91,10.22,1.71-9.37-12.57-9.37-23Z"/><path class="cls-1" d="M1029.31,1162.48s-1.93,16.25,1,20.41c.25.36,1.41,3.69-2.32,1.34s-7.32,3.5-7.7,2.24,7.06-13.55,7.06-24Z"/><path class="cls-1" d="M479.16,2820.28a7,7,0,0,0-3.93-2.22l.95-.44a7.89,7.89,0,0,0,.95-.67,5.42,5.42,0,0,0,2-4.63,6.9,6.9,0,0,0-1.79-4.64,6.66,6.66,0,0,0-2.94-1.74,14.66,14.66,0,0,0-4.65-.65H459.42v26.56h11.63q5.46,0,7.67-2.47a7.12,7.12,0,0,0,1.9-4.9A6.19,6.19,0,0,0,479.16,2820.28Zm-13.81-10h2.85a8.51,8.51,0,0,1,3.72.58,2.34,2.34,0,0,1,1.1,2.33,2.26,2.26,0,0,1-1.19,2.3,9.64,9.64,0,0,1-3.67.53h-2.81Zm7.88,15.91a9,9,0,0,1-3.82.62h-4.06v-6.11h3.49a11.68,11.68,0,0,1,4.32.58,2.4,2.4,0,0,1,1.34,2.44A2.49,2.49,0,0,1,473.23,2826.21Z"/><path class="cls-1" d="M504.75,2805.29H499l-11.47,26.56h6.3l2.48-5.74h11.13l2.47,5.74h6.3Zm-6.2,15.61,3.35-7.71,3.31,7.71Z"/><path class="cls-1" d="M537.2,2826.6a7.4,7.4,0,0,1-5.44-2.24,8,8,0,0,1-2.24-6,7.61,7.61,0,0,1,2.38-5.88,8.13,8.13,0,0,1,5.72-2.19,8.66,8.66,0,0,1,7,3.5l3.68-4.18a14,14,0,0,0-10.94-5,13.66,13.66,0,0,0-9.9,4,14,14,0,0,0-.07,19.65,14.34,14.34,0,0,0,20.76-1.22l-3.8-3.91a8.75,8.75,0,0,1-7.14,3.45"/><path class="cls-1" d="M558.51,2831.85h5.93v-7.53l2.66-3,7.79,10.49h6.92q-1.83-2.55-5.52-7.74t-5-7.08l10.57-11.75h-7.34l-10,10.91v-10.91h-5.93Z"/><polygon class="cls-1" points="623.41 2816.38 612.85 2816.38 612.85 2805.29 606.92 2805.29 606.92 2831.85 612.85 2831.85 612.85 2821.4 623.41 2821.4 623.41 2831.85 629.34 2831.85 629.34 2805.29 623.41 2805.29 623.41 2816.38"/><path class="cls-1" d="M663.91,2808.61a14.47,14.47,0,0,0-19.83,0,13.89,13.89,0,0,0,0,19.57,14.45,14.45,0,0,0,19.83,0,13.89,13.89,0,0,0,0-19.57Zm-4.29,15.85a7.55,7.55,0,0,1-11.21,0,9.17,9.17,0,0,1,0-12.1,7.51,7.51,0,0,1,11.21,0,9.17,9.17,0,0,1,0,12.1Z"/><polygon class="cls-1" points="702.44 2831.85 708.37 2831.85 708.37 2805.29 700.39 2805.29 693.51 2819.88 686.67 2805.29 678.66 2805.29 678.66 2831.85 684.59 2831.85 684.59 2815.13 691.73 2829.64 695.26 2829.64 702.44 2815.13 702.44 2831.85"/><polygon class="cls-1" points="720.6 2805.29 720.6 2831.85 740.17 2831.85 740.17 2826.6 726.53 2826.6 726.53 2821.1 738.42 2821.1 738.42 2816.04 726.53 2816.04 726.53 2810.57 739.75 2810.57 739.75 2805.29 720.6 2805.29"/><path class="cls-2" d="M438.92,2792.58a22.45,22.45,0,0,0,11.73-1.53c4.83-2.1,8.62-5.94,11.28-11.46h42.34v-7.69H456.8l-1,2.43c-5.72,14.58-18,10.37-19.35,9.85l-5.26-2.08v63.32h7.69Z"/><polygon class="cls-2" points="765.68 2771.91 690.24 2771.91 690.24 2779.59 757.99 2779.59 757.99 2845.43 765.68 2845.43 765.68 2771.91"/><polygon class="cls-1" points="265.7 999.07 265.7 999.13 255.73 1029.58 222.12 1029.58 222.12 1051.37 248.69 1051.37 239.17 1073.16 222.12 1073.16 222.12 1112.38 182.9 1112.38 182.9 1029.58 161.11 1029.58 161.11 1112.38 126.25 1112.38 126.25 1029.58 97.01 1029.58 87.03 999.13 87.03 999.07 265.7 999.07"/><polygon class="cls-2" points="126.25 1154.67 174.19 1172.72 222.12 1153.96 222.12 1134.17 126.25 1134.17 126.25 1154.67"/><polygon class="cls-2" points="937.64 236.72 922.28 230.03 910.11 258.08 937.23 269.88 943.91 254.53 932.12 249.41 937.64 236.72"/><path class="cls-1" d="M1027.77,192.1a12.39,12.39,0,0,1,6.25-1.32,21.62,21.62,0,0,1,17.72,8.12l9.33-12a35.63,35.63,0,0,0-12.26-8.07,44,44,0,0,0-15.25-2.39,38.7,38.7,0,0,0-14.92,2.62,21.07,21.07,0,0,0-9.51,7.28,18.17,18.17,0,0,0-3.27,10.73q0,6.42,3.35,10.3a21,21,0,0,0,8.45,5.84,74.64,74.64,0,0,0,12.54,3.35,42.5,42.5,0,0,1,8,2.05c1.65.69,2.47,1.61,2.47,2.79,0,2.74-2.83,4.1-8.48,4.11a28.38,28.38,0,0,1-10.87-1.91,22.09,22.09,0,0,1-8.34-6.3l-8.86,13.06a36.23,36.23,0,0,0,12.13,7.23q6.51,2.3,17.15,2.29a39.19,39.19,0,0,0,13.71-2.25,21.56,21.56,0,0,0,9.6-6.62,16.19,16.19,0,0,0,3.54-10.55,17.82,17.82,0,0,0-2.46-9.69,18.24,18.24,0,0,0-7.83-6.48,57.15,57.15,0,0,0-14.33-4.15,46.42,46.42,0,0,1-7.74-2c-1.55-.61-2.32-1.48-2.32-2.61A3.88,3.88,0,0,1,1027.77,192.1Z"/><path class="cls-2" d="M1029.8,294.8c-5.93,2.6-9.73,3.65-13.11,3.65h-.55a13.48,13.48,0,0,1-2.59-.36c-5-1.22-8.54-4.93-12-12.43l-16.08-35.27c-3.77-8.27-9.79-12.58-19.53-14l-1.39-.22.78-1.15c5.42-8.07,6.11-15.45,2.25-23.92l-16.07-35.26c-3.42-7.5-3.89-12.64-1.55-17.19,2.19-4.25,6.84-7.12,13.15-10.14l1.51-.73-6.22-13.65-1.56.7c-14.05,6.41-21.14,11.68-24.47,18.21-3.79,7.44-2.77,16.69,3.3,30l16.07,35.25a18.33,18.33,0,0,1,1.12,8.61,11.63,11.63,0,0,1-5.49,9.11l-1.23.8L952,249.72l1.38-.34a13.44,13.44,0,0,1,3.75-.41,13,13,0,0,1,6.83,2.32,18.29,18.29,0,0,1,5.68,6.31l16.08,35.26c6.07,13.32,12.38,20.15,20.5,22.17a21.55,21.55,0,0,0,4.3.59l.94,0c6.16,0,13.72-2.21,24.55-7.14l1.55-.71-6.22-13.67Z"/><path class="cls-2" d="M1116.89,197a18,18,0,0,1-1.06-8.29,12.67,12.67,0,0,1,5.52-9.39l1.16-.81-5.86-12.85-1.4.39a12.64,12.64,0,0,1-4,.51,11.93,11.93,0,0,1-6.63-2.4,18.29,18.29,0,0,1-5.67-6.42l-16.07-35.27c-6.21-13.59-12.28-20.25-20.33-22.25-7.11-1.77-15.7.11-30,6.61l-1.55.71,6.22,13.67,1.54-.67c6.28-2.72,10.24-3.77,13.68-3.63a12.07,12.07,0,0,1,2.59.36c5,1.2,8.55,4.92,12,12.43L1083.15,165c3.86,8.47,9.87,12.79,19.53,14l1.4.19-.76,1.18c-5.35,8.26-6,15.63-2.27,23.92l16.08,35.26c3.42,7.48,3.87,12.62,1.54,17.19-2.19,4.24-6.83,7.11-13.15,10.13l-1.51.72,6.23,13.65,1.55-.71c14-6.37,21.36-11.84,24.65-18.28,3.76-7.38,2.72-16.33-3.48-29.93Z"/><polygon class="cls-2" points="1129.96 145.02 1123.66 160.54 1135.57 165.37 1130.36 178.19 1145.88 184.48 1157.38 156.16 1129.96 145.02"/><path class="cls-1" d="M1077.45,290.09q-2.51,2.22-7.24,2.23-11.71,0-11.73-17.42c0-5.8,1-10.14,3.08-13a10.19,10.19,0,0,1,8.84-4.35c3,0,5.33.72,6.91,2.13s2.71,4.06,3.4,7.89l16.74-6.7a20.43,20.43,0,0,0-9.55-13.58q-7.47-4.49-18.06-4.49a34.19,34.19,0,0,0-16.65,3.83,26.12,26.12,0,0,0-10.78,11.07,41.41,41.41,0,0,0,0,34.57,25.7,25.7,0,0,0,10.83,11.08,35.17,35.17,0,0,0,16.69,3.78q10.89,0,18.21-4.75t9.88-14.75L1080.8,283C1080.24,286.23,1079.12,288.62,1077.45,290.09Z"/><polygon class="cls-1" points="983.49 176.71 985.87 176.71 1003.2 176.71 1004.92 176.71 1004.92 133.2 1023.75 133.2 1023.75 113.07 967.26 113.07 967.26 133.2 983.49 133.2 983.49 176.71"/><path class="cls-1" d="M599.7,201.5l39.59,35.23a1.45,1.45,0,0,0,1.8.11l59.33-40.78a1.46,1.46,0,0,0,.37-2l-10.25-14.91a1.45,1.45,0,0,0-2-.38l-13.61,9.35a1.46,1.46,0,0,1-2.24-.85,76.23,76.23,0,0,0-73.87-57.79c-35.56,0-65.5,24.52-74.35,58.07a1.45,1.45,0,0,1-2.22.84l-14-9.43a1.46,1.46,0,0,0-2,.4l-10.12,15a1.45,1.45,0,0,0,.39,2l59.91,40.46a1.46,1.46,0,0,0,1.79-.12l39.55-35.19A1.48,1.48,0,0,1,599.7,201.5ZM544,203.05a1.46,1.46,0,0,1-.65-1.35c2.8-28.88,26.57-51.24,55.46-51.24a55.15,55.15,0,0,1,55,51.31,1.48,1.48,0,0,1-.63,1.31l-10.35,7.11a1.46,1.46,0,0,1-1.8-.11L599.7,173.37a1.48,1.48,0,0,0-2,0l-41.32,36.76a1.45,1.45,0,0,1-1.79.12Z"/><path class="cls-2" d="M640.83,258.74l-41-36.47a1.65,1.65,0,0,0-2.22,0L556.55,258.8a1.66,1.66,0,0,1-2,.13l-46.07-31.11a1.68,1.68,0,0,0-2.32.45l-9.9,14.65a1.68,1.68,0,0,0,.45,2.32l59.61,40.25a1.67,1.67,0,0,0,2-.13l39.29-35a1.68,1.68,0,0,1,2.22,0l39.34,35a1.66,1.66,0,0,0,2.05.12l59-40.57a1.66,1.66,0,0,0,.44-2.32l-10-14.57a1.67,1.67,0,0,0-2.32-.43l-45.45,31.24A1.67,1.67,0,0,1,640.83,258.74Z"/><rect class="cls-2" x="157.49" y="1484" width="90.67" height="16.34"/><path class="cls-3" d="M275.44,1396.5H110.64s-7.73,0-7.73,7.36v20.72c-.9.08-1.83.16-2.76.26-4.9.57-15.1,1.74-17.14,9.87-.93,3.76-7.16,48.09-5.79,79l-.21.18c-7.3,6.67-7.89,16.76-7.89,28.29,0,17.43,1.83,31.77,5.43,42.6,3.24,9.75,7.94,16.55,13.59,19.68,7.63,4.2,19.76,4.62,22.11,4.66h0c2.35-.05,14.47-.46,22.1-4.66a24.58,24.58,0,0,0,8.55-8.7h78.58a8.17,8.17,0,0,0,6.41-3.08l54-67.89a21.56,21.56,0,0,0,3.66-12v-108S283.59,1396.5,275.44,1396.5ZM99.12,1442.36a76.16,76.16,0,0,1,11.14-.93,76.55,76.55,0,0,1,11.15.93c1.7,11.4,5.8,45.75,4.74,70.38a105.06,105.06,0,0,1-15.88.9,105.29,105.29,0,0,1-15.9-.9C93.32,1488,97.42,1453.74,99.12,1442.36Zm30.54,137c-2.3,6.93-4.87,9.64-5.58,10-2.58,1.43-9.19,2.42-13.79,2.53-4.66-.11-11.27-1.1-13.84-2.52-.71-.41-3.28-3.11-5.58-10-2.08-6.23-4.56-17.74-4.56-37.18,0-5.28.16-10.4,1.11-13.41,4.75,1.32,11.88,2,21.74,2h2.22c9.83,0,17-.71,21.73-2,.95,3,1.1,8.13,1.1,13.41C134.21,1561.63,131.74,1573.16,129.66,1579.4Zm98.05-15.17v-38.69h30.78Zm39.56-55H219.52a8.19,8.19,0,0,0-8.17,8.17v2.06h0v.19h-48V1536h48v43.49H147.52c2.57-10,3.89-22.51,3.89-37.23,0-11.54-.6-21.62-7.89-28.29l-.21-.17c1.39-31.12-4.86-75.32-5.8-79-2-8.14-12.22-9.31-17.19-9.88-1.13-.13-2.24-.22-3.32-.3V1412.6l150.27,0Z"/><rect class="cls-2" x="152.46" y="1447.63" width="95.69" height="16.35"/><rect class="cls-1" x="947.02" y="1560.76" width="173.44" height="28.83"/><polygon class="cls-1" points="1120.46 1473.77 947.03 1473.76 947.03 1444.92 1033.68 1416.06 1120.46 1444.93 1120.46 1473.77"/><rect class="cls-1" x="947.03" y="1503.01" width="74.25" height="28.84"/><rect class="cls-1" x="1046.21" y="1503.01" width="74.25" height="28.83"/><path class="cls-2" d="M598.05,1439.79h0A33.23,33.23,0,0,1,631.28,1473v62.12a0,0,0,0,1,0,0H598.05a0,0,0,0,1,0,0v-95.35A0,0,0,0,1,598.05,1439.79Z" transform="translate(2102.12 872.8) rotate(90)"/><path class="cls-1" d="M617.22,1364.61h0a0,0,0,0,1,0,0v127.24a0,0,0,0,1,0,0h0a37,37,0,0,1-37-37V1401.6A37,37,0,0,1,617.22,1364.61Z" transform="translate(2026.95 829.51) rotate(90)"/><path class="cls-1" d="M662.34,1558.93h0a37,37,0,0,1-37,37H572.09a37,37,0,0,1-37-37H662.34Z"/><rect class="cls-1" x="535.1" y="1470.85" width="32.61" height="66.45" transform="translate(1102.81 3008.14) rotate(-180)"/><path class="cls-1" d="M1123.88,2364.38c2.26-15.2-2.9-16.61-7.66-17.65-10.79-2.35-37.9,6-56.76,89-7.07,35.69-12.67,62.52,15.2,62.52,47.74,0,49.23-38,49.78-38s5.57-.68,5.57,4.39c0,34.13-49,43.39-49,43.39-62.29,12.41-83.62-44-83.62-67.51,0-33,21.36-106,106.66-106,2.58,0,35.46,2.78,30.17,28.62C1131.06,2378.43,1123.88,2364.38,1123.88,2364.38Z"/><path class="cls-2" d="M948.48,2491.77c6.07,8.09,19.21,8.47,29.33.86s13.44-20.32,7.37-28.4-19.19-8.47-29.33-.86S942.42,2483.69,948.48,2491.77Z"/><path class="cls-2" d="M933.15,2425.17c2.35,9.84,14.25,15.4,26.57,12.45s20.4-13.31,18-23.14-14.25-15.4-26.57-12.45S930.79,2415.35,933.15,2425.17Z"/><path class="cls-2" d="M946.38,2349c-5,8.81,0,21,11,27.2s24,4.12,29-4.69,0-21-11-27.2S951.34,2340.16,946.38,2349Z"/><path class="cls-2" d="M995.09,2303.13c-8.21,5.89-8.86,19-1.48,29.31s20,13.85,28.25,8,8.87-19,1.48-29.31S1003.31,2297.24,995.09,2303.13Z"/><path class="cls-1" d="M826.73,1079.4s-10-1.39-58.7-1.39-80.12,12.34-94.09,19.33c0-24.69-.93-27.88-3.49-27.95-3.61-.11-8.78,0-9.79,4.19-7,25.23-22.61,27.12-22.61,27.12s-5.2.21-5.2-10.82c0-11.21,4-19.1,8.48-19.1,2.56,0,6.19,5.15,7,6.29a2.41,2.41,0,0,0,3.16,1,1.5,1.5,0,0,0,1-1.91s-2.09-10.71-14.44-10.71a16.46,16.46,0,0,0-15.84,10.48s.76.19-16.7,14.4-24.42,14.44-27.55,14c-.93-2.09-2.1-10.94-2.1-18.63s-2.1-14.9-9.78-14.9-13.05.23-28,21.42c-.7-3.72,1.4-14.76,1.4-14.76s17.93-25.53,17.93-55.81c0,0,.7-17.94-16.07-17.94-20.27,0-18.4,77.8-18.4,77.8s-22.12,10.71-68.48,10.71S371.38,1075,371.38,1075s-1.8-1.48-1.8.48c0,2.56,46.29,20,84.25,20a245.65,245.65,0,0,0,68.95-10c-.7,1.39-.93,14.44-.93,20s11,4.07,12.57,3.62c1.35-.38,3.06-1.91,3.5-5.25,1.2-9.24,16.07-26.09,19.33-26.09s.93,19.1.93,22.13c0,10.55,1.61,13.37,11.16,13.37,24,0,44.31-26.27,50.84-31.16-2.8,2.8-1.52,24,11.4,24,20.64,0,25.82-17.83,28.62-22-.51,2.26-1.17,12-1.17,21.13-13.11,9-22.36,32.44-22.36,42.46s2.8,14.44,10.25,14.44,17.16-1.67,22.83-17.71c2.39-6.76,4.58-35.55,4.42-44.25,36.18-17.08,69.29-19.92,93.67-19.92,48.44,0,52.5.77,54.59.77s4.9.73,4.9-.67C827.33,1079.32,826.73,1079.4,826.73,1079.4Zm-286-48.45c1-9.26,2.69-21,6.06-21,2,0,7.33.84,7.33,12.25s-5.12,39-14.55,49.38C539.55,1071.6,539.73,1040.4,540.71,1031Zm105,126c-5.13,0-4.43-9.78-4.43-10.83,0-16.88,17.35-36.79,17.35-36.79C658.8,1153.13,650.88,1157,645.76,1157Z"/><path class="cls-2" d="M528.44,1134.34H525.5v-11H532v2.39h-3.58v2.11h3.3v2.39h-3.3Z"/><path class="cls-2" d="M540,1134.34v-11h3v8.62h4.24v2.4Z"/><path class="cls-2" d="M564.55,1128.82a6,6,0,0,1-1.36,4.23,6.2,6.2,0,0,1-8,0,7.16,7.16,0,0,1,0-8.44,5.27,5.27,0,0,1,4-1.45,5.22,5.22,0,0,1,4,1.44A5.93,5.93,0,0,1,564.55,1128.82Zm-7.59,0c0,2.13.74,3.2,2.23,3.2a1.92,1.92,0,0,0,1.68-.78,5.69,5.69,0,0,0,0-4.86,1.88,1.88,0,0,0-1.65-.79C557.72,1125.59,557,1126.67,557,1128.82Z"/><path class="cls-2" d="M574.76,1130.33v4h-3v-11h3.61c3,0,4.49,1.09,4.49,3.26a3.25,3.25,0,0,1-1.86,3l3.2,4.8h-3.37l-2.34-4Zm0-2.23h.56c1,0,1.56-.47,1.56-1.38q0-1.14-1.53-1.14h-.59Z"/><path class="cls-2" d="M595.17,1134.34l-.54-2.06h-3.58l-.56,2.06h-3.27l3.6-11.06h4l3.64,11.06Zm-1.16-4.5-.47-1.81c-.11-.4-.25-.93-.4-1.56s-.26-1.1-.32-1.38c0,.26-.13.68-.26,1.27s-.44,1.75-.89,3.48Z"/><path class="cls-2" d="M605.79,1134.34v-11h3v8.62H613v2.4Z"/><path class="cls-2" d="M628.17,1131a3.31,3.31,0,0,1-.52,1.82,3.41,3.41,0,0,1-1.5,1.23,5.46,5.46,0,0,1-2.3.45,9.49,9.49,0,0,1-1.85-.16,6.38,6.38,0,0,1-1.55-.54v-2.65a8.63,8.63,0,0,0,1.77.68,6.74,6.74,0,0,0,1.69.24,1.68,1.68,0,0,0,1-.22.75.75,0,0,0,.31-.6.59.59,0,0,0-.13-.39,1.35,1.35,0,0,0-.39-.34,15.08,15.08,0,0,0-1.47-.71,7.43,7.43,0,0,1-1.62-1,2.86,2.86,0,0,1-.79-1.06,3.38,3.38,0,0,1-.27-1.41,2.82,2.82,0,0,1,1.11-2.37,4.89,4.89,0,0,1,3-.85,8.52,8.52,0,0,1,3.49.79l-.91,2.29a6.62,6.62,0,0,0-2.68-.7,1.37,1.37,0,0,0-.84.2.64.64,0,0,0-.26.5.74.74,0,0,0,.33.59,13.2,13.2,0,0,0,1.82.93,5,5,0,0,1,2,1.38A3,3,0,0,1,628.17,1131Z"/><path class="cls-1" d="M713.5,2365.08c-5.25,6.06-23.62,18.93-23.62,32.87,0,10.84,10.57,20.54,23.62,20.54s23.63-9.19,23.63-20.54C737.13,2385.79,718.38,2371.55,713.5,2365.08Zm0,35.41c-2.68,0-4.85-2-4.85-4.22,0-2.86,3.74-5.82,4.82-7.06h0c1,1.33,4.87,4.56,4.87,7.06C718.36,2398.6,716.18,2400.49,713.5,2400.49Z"/><path class="cls-2" d="M454.1,2443.09a1,1,0,0,1,.3.73.94.94,0,0,1-.3.71,1,1,0,0,1-.73.29h-8a1.37,1.37,0,0,1-1-.41,1.38,1.38,0,0,1-.41-1V2430.1a1.05,1.05,0,0,1,.29-.73,1,1,0,0,1,.72-.3,1,1,0,0,1,.72.3,1,1,0,0,1,.31.73v12.69h7.33A1,1,0,0,1,454.1,2443.09Z"/><path class="cls-2" d="M471,2443.2a.92.92,0,0,1,.29.68.89.89,0,0,1-.29.68.92.92,0,0,1-.68.26h-9a1,1,0,0,1-1-1v-13.61a1,1,0,0,1,.29-.73.94.94,0,0,1,.71-.3h9a.9.9,0,0,1,.68.28.92.92,0,0,1,.29.68.91.91,0,0,1-.29.68.93.93,0,0,1-.68.27h-8V2436h7.16a.93.93,0,0,1,.68.28,1,1,0,0,1,.28.68.94.94,0,0,1-.28.68,1,1,0,0,1-.68.27h-7.16v5h8A.9.9,0,0,1,471,2443.2Z"/><path class="cls-2" d="M490.71,2443.48,485,2430a1.35,1.35,0,0,0-1.3-.92h-.23a1.34,1.34,0,0,0-1.3.92l-5.71,13.49a1.38,1.38,0,0,0-.11.57.86.86,0,0,0,.27.6,1.1,1.1,0,0,0,.85.29.9.9,0,0,0,.85-.63l1.45-3.5h7.63l1.45,3.5a.9.9,0,0,0,.86.63,1.15,1.15,0,0,0,.85-.29.94.94,0,0,0,.26-.6A1.56,1.56,0,0,0,490.71,2443.48ZM480.56,2439l3-7.29,3,7.29Z"/><path class="cls-2" d="M508.84,2443.3a1.09,1.09,0,0,1,.25.7.9.9,0,0,1-.28.66,1,1,0,0,1-.75.28.9.9,0,0,1-.76-.41l-5.78-7.37-2.56,2.58v4.19a1,1,0,0,1-.3.72,1,1,0,0,1-.73.29,1,1,0,0,1-1-1V2430.1a1.05,1.05,0,0,1,.29-.73,1,1,0,0,1,.72-.3,1,1,0,0,1,.73.3,1,1,0,0,1,.3.73v7.13l7.67-7.8a.88.88,0,0,1,.72-.36.94.94,0,0,1,.71.26.87.87,0,0,1,.27.67.86.86,0,0,1-.25.66l-5.18,5.16Z"/><path class="cls-2" d="M537.43,2434.19a7,7,0,0,0-1.47-2.5,7.55,7.55,0,0,0-6-2.51h-4.5a1,1,0,0,0-.72.3,1.05,1.05,0,0,0-.29.73v13.61a1,1,0,0,0,.29.71.94.94,0,0,0,.72.29H530a7.54,7.54,0,0,0,6-2.5,7.12,7.12,0,0,0,1.47-2.5,8.33,8.33,0,0,0,0-5.63Zm-3.19,7.09a6.17,6.17,0,0,1-4.48,1.64h-3.23v-11.83h3.23a6.2,6.2,0,0,1,4.48,1.63,6.35,6.35,0,0,1,0,8.56Z"/><path class="cls-2" d="M555.34,2443.2a.92.92,0,0,1,.29.68.89.89,0,0,1-.29.68.92.92,0,0,1-.68.26h-9a1,1,0,0,1-1-1v-13.61a1,1,0,0,1,.3-.73.94.94,0,0,1,.71-.3h9a.9.9,0,0,1,.68.28.92.92,0,0,1,.29.68.91.91,0,0,1-.29.68.93.93,0,0,1-.68.27h-8V2436h7.15a.94.94,0,0,1,.69.28,1,1,0,0,1,.27.68.93.93,0,0,1-.27.68,1,1,0,0,1-.69.27H546.7v5h8A.9.9,0,0,1,555.34,2443.2Z"/><path class="cls-2" d="M573.25,2429.46a.91.91,0,0,1,.28.68.9.9,0,0,1-.28.68.93.93,0,0,1-.68.27H568v12.84a1,1,0,0,1-.3.72,1.06,1.06,0,0,1-.74.29,1,1,0,0,1-.71-.29,1,1,0,0,1-.29-.72v-12.84h-4.57a.93.93,0,0,1-.68-.27,1,1,0,0,1-.26-.68,1,1,0,0,1,.26-.68.9.9,0,0,1,.68-.28h11.16A.9.9,0,0,1,573.25,2429.46Z"/><path class="cls-2" d="M590.07,2443.2a.94.94,0,0,1,.27.68.91.91,0,0,1-.27.68,1,1,0,0,1-.69.26h-9a1,1,0,0,1-1-1v-13.61a1,1,0,0,1,.28-.73,1,1,0,0,1,.72-.3h9a1,1,0,0,1,.69,1.64,1,1,0,0,1-.69.27h-8V2436h7.14a.94.94,0,0,1,.69.28,1,1,0,0,1,.28.68.94.94,0,0,1-.28.68,1,1,0,0,1-.69.27h-7.14v5h8A.94.94,0,0,1,590.07,2443.2Z"/><path class="cls-2" d="M608.12,2442.05a1.12,1.12,0,0,1,.5-.09.73.73,0,0,1,.57.26.88.88,0,0,1,.23.59.87.87,0,0,1-.49.85,13.92,13.92,0,0,1-2.26,1,9,9,0,0,1-2.87.4,8.49,8.49,0,0,1-3.1-.55,7.15,7.15,0,0,1-2.49-1.6,8.88,8.88,0,0,1,0-11.79,7.61,7.61,0,0,1,5.61-2.15,9,9,0,0,1,2.85.4,12.61,12.61,0,0,1,1.84.75,2.44,2.44,0,0,1,.78.56,1.08,1.08,0,0,1,.13.54.85.85,0,0,1-.23.58.76.76,0,0,1-.57.26,1.12,1.12,0,0,1-.5-.09,10.82,10.82,0,0,0-1.84-.76,8.1,8.1,0,0,0-2.34-.29,6.46,6.46,0,0,0-2.54.47,5.19,5.19,0,0,0-1.89,1.3,7,7,0,0,0,0,8.65,5.83,5.83,0,0,0,4.51,1.77,7.81,7.81,0,0,0,2.26-.29A11.7,11.7,0,0,0,608.12,2442.05Z"/><path class="cls-2" d="M626.82,2429.46a.91.91,0,0,1,.28.68.9.9,0,0,1-.28.68.93.93,0,0,1-.68.27h-4.55v12.84a1,1,0,0,1-.3.72,1,1,0,0,1-.73.29,1,1,0,0,1-1-1v-12.84H615a.9.9,0,0,1-.67-.27.93.93,0,0,1-.27-.68.94.94,0,0,1,.27-.68.88.88,0,0,1,.67-.28h11.16A.9.9,0,0,1,626.82,2429.46Z"/><path class="cls-2" d="M634,2429.07a1,1,0,0,1,.73.3,1,1,0,0,1,.3.73v13.83a1,1,0,0,1-.3.72,1,1,0,0,1-1.74-.72V2430.1a1.05,1.05,0,0,1,.29-.73A1,1,0,0,1,634,2429.07Z"/><path class="cls-2" d="M655.32,2431.22a8.29,8.29,0,0,0-11.38,0,8.77,8.77,0,0,0,0,11.57,8.29,8.29,0,0,0,11.38,0,8.77,8.77,0,0,0,0-11.57Zm-1.38,10.15a6.1,6.1,0,0,1-8.61,0,7,7,0,0,1,0-8.74,6.12,6.12,0,0,1,8.61,0,7,7,0,0,1,0,8.74Z"/><path class="cls-2" d="M676.86,2429.07a1,1,0,0,1,1,1v13.38a1.39,1.39,0,0,1-.44,1,1.44,1.44,0,0,1-1,.43h-.27a1.39,1.39,0,0,1-1.19-.61l-8.68-12.53v12.13a1,1,0,0,1-.3.72,1.05,1.05,0,0,1-1.45,0,1,1,0,0,1-.28-.72v-13.38a1.47,1.47,0,0,1,.42-1.05,1.38,1.38,0,0,1,1-.43H666a1.58,1.58,0,0,1,1.24.67l8.62,12.46v-12.1a1,1,0,0,1,.3-.73A.94.94,0,0,1,676.86,2429.07Z"/><path class="cls-2" d="M695.8,2429.07a1,1,0,0,1,.73.3,1,1,0,0,1,.3.73v13.83a1,1,0,0,1-.3.72,1,1,0,0,1-1.74-.72V2430.1a1.05,1.05,0,0,1,.29-.73A1,1,0,0,1,695.8,2429.07Z"/><path class="cls-2" d="M717.16,2429.07a1,1,0,0,1,.73.3,1,1,0,0,1,.3.73v13.38a1.38,1.38,0,0,1-.43,1,1.42,1.42,0,0,1-1,.43h-.27a1.38,1.38,0,0,1-1.19-.61l-8.68-12.53v12.13a1,1,0,0,1-.3.72,1,1,0,0,1-.72.29,1,1,0,0,1-1-1v-13.38a1.48,1.48,0,0,1,.43-1.05,1.4,1.4,0,0,1,1-.43h.29a1.53,1.53,0,0,1,1.23.67l8.64,12.46v-12.1a1,1,0,0,1,.29-.73A.94.94,0,0,1,717.16,2429.07Z"/><path class="cls-2" d="M737.14,2442.05a1.12,1.12,0,0,1,.5-.09.72.72,0,0,1,.56.26.88.88,0,0,1,.23.59.87.87,0,0,1-.49.85,13.44,13.44,0,0,1-2.25,1,9,9,0,0,1-2.87.4,8.59,8.59,0,0,1-3.11-.55,7.11,7.11,0,0,1-2.48-1.6,8.88,8.88,0,0,1,0-11.79,7.59,7.59,0,0,1,5.6-2.15,9,9,0,0,1,2.86.4,12.61,12.61,0,0,1,1.84.75,2.36,2.36,0,0,1,.77.56,1,1,0,0,1,.13.54.85.85,0,0,1-.23.58.76.76,0,0,1-.56.26,1.12,1.12,0,0,1-.5-.09,11.16,11.16,0,0,0-1.84-.76,8.2,8.2,0,0,0-2.34-.29,6.43,6.43,0,0,0-2.54.47,5.19,5.19,0,0,0-1.89,1.3,7,7,0,0,0,0,8.65,5.82,5.82,0,0,0,4.5,1.77,7.93,7.93,0,0,0,2.27-.29A12.11,12.11,0,0,0,737.14,2442.05Z"/><path class="cls-2" d="M746.65,2442.62a1.18,1.18,0,0,1,.37.88v.14a1.18,1.18,0,0,1-.37.88,1.2,1.2,0,0,1-.89.37h-.22a1.22,1.22,0,0,1-.89-.37,1.18,1.18,0,0,1-.37-.88v-.14a1.18,1.18,0,0,1,.37-.88,1.22,1.22,0,0,1,.89-.37h.22A1.2,1.2,0,0,1,746.65,2442.62Z"/><path class="cls-1" d="M426.32,2418.52a34.52,34.52,0,0,1-6-.53,32.83,32.83,0,0,1-5.72-1.57,34.6,34.6,0,0,1-5.18-2.42,25.37,25.37,0,0,1-4.36-3.09l10.36-11.26a16.61,16.61,0,0,0,4.75,3.43,13.42,13.42,0,0,0,6.12,1.5,6.45,6.45,0,0,0,2.6-.5,1.84,1.84,0,0,0,1.18-1.86,1.94,1.94,0,0,0-.39-1.22,4.67,4.67,0,0,0-1.4-1,23.53,23.53,0,0,0-2.74-1.18c-1.18-.43-2.64-.93-4.4-1.5a37.13,37.13,0,0,1-4.94-2,17.54,17.54,0,0,1-4.17-2.9,12.79,12.79,0,0,1-2.9-4.12,14,14,0,0,1-1.07-5.76,15.59,15.59,0,0,1,1.93-8,16.87,16.87,0,0,1,5-5.41,20.26,20.26,0,0,1,6.82-3,31.45,31.45,0,0,1,7.51-.93,29,29,0,0,1,10.18,1.93,27.2,27.2,0,0,1,9.11,5.57L438,2383.35a12,12,0,0,0-8.72-4.35,7.07,7.07,0,0,0-3,.53,1.81,1.81,0,0,0-1.15,1.75,1.85,1.85,0,0,0,1.18,1.72,33.14,33.14,0,0,0,3.82,1.43c1.82.57,3.72,1.24,5.72,2a24.32,24.32,0,0,1,5.54,3,15.62,15.62,0,0,1,4.18,4.47,12.21,12.21,0,0,1,1.65,6.58,16.5,16.5,0,0,1-1.83,8,17.14,17.14,0,0,1-4.78,5.65,20.89,20.89,0,0,1-6.68,3.36A26.44,26.44,0,0,1,426.32,2418.52Z"/><path class="cls-1" d="M480.13,2418.52a29.66,29.66,0,0,1-10.33-1.64,20.67,20.67,0,0,1-7.32-4.51,17.75,17.75,0,0,1-4.36-6.75,24.29,24.29,0,0,1-1.43-8.4v-30.73h17v28.87a8.41,8.41,0,0,0,1.75,5.68,7.06,7.06,0,0,0,9.93,0,8.36,8.36,0,0,0,1.76-5.68v-28.87h16.94v30.73a22.8,22.8,0,0,1-1.54,8.4,18.67,18.67,0,0,1-4.54,6.75,21.35,21.35,0,0,1-7.47,4.51A30.19,30.19,0,0,1,480.13,2418.52Z"/><path class="cls-1" d="M554.18,2375.32a14.78,14.78,0,0,0-4.72-5.22,19.38,19.38,0,0,0-6.65-2.79,34.92,34.92,0,0,0-7.58-.82H513.51v50.6h16.94V2400.8h4.78a31.88,31.88,0,0,0,7.69-.94,19,19,0,0,0,6.65-3,15.47,15.47,0,0,0,4.64-5.36,19.42,19.42,0,0,0,0-16.18Zm-16.62,11.57a6.71,6.71,0,0,1-3.54,1h-3.57v-8.15H534a9.77,9.77,0,0,1,1.86.18,5.43,5.43,0,0,1,1.68.61,3.15,3.15,0,0,1,1.18,1.17,4,4,0,0,1,.43,2A3.48,3.48,0,0,1,537.56,2386.89Z"/><polygon class="cls-1" points="563.11 2366.49 597.91 2366.49 597.91 2380.64 579.12 2380.64 579.12 2385 596.77 2385 596.77 2398.22 579.12 2398.22 579.12 2402.94 599.13 2402.94 599.13 2417.09 563.11 2417.09 563.11 2366.49"/><path class="cls-1" d="M643.18,2396.58a14.36,14.36,0,0,0,8.84-13.66,16.08,16.08,0,0,0-1.79-8,14.34,14.34,0,0,0-4.69-5.08,18.59,18.59,0,0,0-6.57-2.64,36.94,36.94,0,0,0-7.4-.75H609.78v50.6h16.5V2399h.51l9.69,18.08H656Zm-8.42-10.76a4.16,4.16,0,0,1-1.49,1.28,5.48,5.48,0,0,1-1.91.61,13.25,13.25,0,0,1-1.88.15h-3.34v-8.15h4a15.11,15.11,0,0,1,1.71.11,5.08,5.08,0,0,1,1.7.5,3.21,3.21,0,0,1,1.28,1.18,4,4,0,0,1,.49,2.14A3.61,3.61,0,0,1,634.76,2385.82Z"/><path class="cls-1" d="M779.05,2396.58a14.32,14.32,0,0,0,8.84-13.66,16.08,16.08,0,0,0-1.79-8,14.4,14.4,0,0,0-4.68-5.08,18.75,18.75,0,0,0-6.57-2.64,37,37,0,0,0-7.41-.75H745.65v50.6h16.51V2399h.5l9.69,18.08h19.54Zm-8.42-10.76a4.16,4.16,0,0,1-1.49,1.28,5.48,5.48,0,0,1-1.91.61,13.14,13.14,0,0,1-1.88.15H762v-8.15h4a15.09,15.09,0,0,1,1.7.11,5.08,5.08,0,0,1,1.7.5,3.15,3.15,0,0,1,1.28,1.18,4,4,0,0,1,.49,2.14A3.54,3.54,0,0,1,770.63,2385.82Z"/><rect class="cls-1" x="664.38" y="2366.49" width="17.15" height="50.6"/><path class="cls-1" d="M198.73,198.57a4.4,4.4,0,0,0-4.4-4.39h-5.85a4.39,4.39,0,0,0-4.39,4.41V214.4l-14.25-18.48a4.42,4.42,0,0,0-3.48-1.72h-6.65a4.4,4.4,0,0,0-4.4,4.4l0,35.83a4.42,4.42,0,0,0,4.4,4.4h5.92a4.4,4.4,0,0,0,4.39-4.4v-15.7l14.19,18.37a4.44,4.44,0,0,0,3.48,1.71h6.65a4.4,4.4,0,0,0,4.39-4.41Z"/><rect class="cls-2" x="168.58" y="290.29" width="16.58" height="25.36" rx="2.23"/><rect class="cls-2" x="168.91" y="99.61" width="16.58" height="25.36" rx="2.23"/><rect class="cls-2" x="99.99" y="263.71" width="25.36" height="16.58" rx="2.23" transform="translate(-159.43 159.58) rotate(-45.05)"/><rect class="cls-2" x="235.05" y="129.11" width="25.36" height="16.58" rx="2.23" transform="translate(-24.54 215.64) rotate(-45.05)"/><rect class="cls-2" x="234.68" y="259.21" width="16.58" height="25.36" rx="2.23" transform="translate(-121.11 251.74) rotate(-45.05)"/><rect class="cls-2" x="99.39" y="124.84" width="16.58" height="25.36" rx="2.23" transform="translate(-65.72 116.57) rotate(-45.05)"/><rect class="cls-2" x="68.35" y="197.23" width="25.36" height="16.58" rx="2.23"/><rect class="cls-2" x="259.02" y="197.55" width="25.36" height="16.58" rx="2.23"/><path class="cls-1" d="M250.44,192a76.4,76.4,0,0,0-11-25.45c-9.19-13.6-27.25-29.8-61-29.8h-.09c-33.71,0-52.49,16.15-62.3,29.67a80.13,80.13,0,0,0-12.18,25.4,5,5,0,0,0,2.86,6l7.65,3.29a5.22,5.22,0,0,0,2,.4,61.31,61.31,0,0,0-1.37,13,62.1,62.1,0,0,0,62,62h.05a62,62,0,0,0,60.49-75.55,5.07,5.07,0,0,0,1.76-.28l7.88-2.8A5,5,0,0,0,250.44,192Zm-72.09-38.67h.08c22.62,0,36.26,8.82,44.43,18.66-10.85-4.84-25.39-8.59-44.38-8.59h-.12c-19.37,0-34.47,3.92-45.83,8.87C141.27,162.26,155.48,153.3,178.35,153.29Zm30.86,93.23a45.17,45.17,0,0,1-32.13,13.34h0a45.44,45.44,0,0,1-35.91-73.3c9.25-3.71,21.49-6.61,37.24-6.62h.11c14.08,0,25.08,2.31,33.52,5.43a45.45,45.45,0,0,1-2.79,61.15Z"/><path class="cls-1" d="M1038,1936.91a4.4,4.4,0,0,1-1.58,1.36,6.12,6.12,0,0,1-2,.65,14.62,14.62,0,0,1-2,.15h-3.53v-8.64h4.28a17,17,0,0,1,1.81.11,5.38,5.38,0,0,1,1.8.54,3.46,3.46,0,0,1,1.36,1.25,4.31,4.31,0,0,1,.52,2.27A3.79,3.79,0,0,1,1038,1936.91Z"/><path class="cls-1" d="M972.9,2787.1c13.46-12.83,29.39-23.43,46.82-29a102.47,102.47,0,0,1,26.45-4.75,123.14,123.14,0,0,1,13.18.19,84.83,84.83,0,0,1,13.09,1.72c17.18,3.82,32.7,12.45,46.47,23.4A90.65,90.65,0,0,0,944.11,2821,224.32,224.32,0,0,1,972.9,2787.1Z"/><path class="cls-1" d="M1109.41,2791.65a61.34,61.34,0,0,0-17-15.72,56,56,0,0,0-21.72-7.75,67.92,67.92,0,0,0-23.1.59,68.7,68.7,0,0,0-21.31,7.8c-13.08,7.41-23.08,19-29.86,32.14s-10.69,28-12.25,43a154.64,154.64,0,0,0,1.11,38.84,90.65,90.65,0,0,0,138.68-63.11A79.53,79.53,0,0,0,1109.41,2791.65Z"/><path class="cls-1" d="M516.82,1956.78c0-21.42,14.28-37.79,36.22-37.79,8.36,0,14.63,2.61,18.63,6.27v-33.09c0-9.75-4.53-12-13.93-12v-1.05l33.78-3.48v103.26c0,8.71,2.79,12,12.19,12v1H572V1982c-5,6.27-12.71,11.84-23.68,11.84C529,1993.87,516.82,1976.63,516.82,1956.78Zm54.85,23.68v-47.19c-1.22-6.62-6.62-12.71-14.63-12.71-13.06,0-19.15,18.81-19.15,35.17,0,17.24,5.75,32.74,19.33,32.74C563.66,1988.47,568.36,1984.82,571.67,1980.46Z"/><path class="cls-2" d="M605.54,1957a46.63,46.63,0,0,1,.5-6.83h-9.67v10.07h9.29C605.59,1959.12,605.54,1958,605.54,1957Z"/><path class="cls-2" d="M566.82,1950.12H543c-.17,1.86-.25,3.74-.25,5.61,0,1.49,0,3,.14,4.46h23.94Z"/><path class="cls-2" d="M488.47,1956.79l2.65-1.61-2.63-1.64c-14.64-9.13-25.49-19.54-32.24-31a1.93,1.93,0,0,0-1.65-.94H443.17l1.9,2.95a114.88,114.88,0,0,0,28.58,30.55c-10.73,7.69-20.06,17.71-28.45,30.56l-1.92,3H454.6a1.92,1.92,0,0,0,1.62-.89A98.83,98.83,0,0,1,488.47,1956.79Z"/><path class="cls-2" d="M512,1956.78a51.75,51.75,0,0,1,.43-6.66h-4.62a.53.53,0,0,1-.3-.09c-12-8.26-21-17.47-26.9-27.44a1.91,1.91,0,0,0-1.64-.94H468.47a.52.52,0,0,0-.44.81l1.37,2.14a115.22,115.22,0,0,0,28,30.13.5.5,0,0,1,0,.83c-10.48,7.63-19.63,17.53-27.87,30.15l-1.4,2.14a.53.53,0,0,0,.44.82h10.36a1.92,1.92,0,0,0,1.61-.89,96.94,96.94,0,0,1,26.88-27.49.51.51,0,0,1,.3-.1h4.36C512,1959.07,512,1957.93,512,1956.78Z"/><path class="cls-2" d="M752.84,1953.54c-14.64-9.13-25.49-19.54-32.25-31a1.91,1.91,0,0,0-1.64-.94H709a.78.78,0,0,0-.65,1.21l1.12,1.74a114.94,114.94,0,0,0,27.73,29.92.77.77,0,0,1,0,1.25c-10.36,7.6-19.42,17.43-27.59,29.94l-1.14,1.74a.79.79,0,0,0,.66,1.22H719a1.92,1.92,0,0,0,1.61-.89,99,99,0,0,1,32.26-31A1.9,1.9,0,0,0,752.84,1953.54Z"/><path class="cls-2" d="M729.39,1956.79h0a1.91,1.91,0,0,0,0-3.25c-14.63-9.13-25.48-19.54-32.24-31a1.91,1.91,0,0,0-1.64-.94H685.05a.53.53,0,0,0-.44.81l1.38,2.14a117.79,117.79,0,0,0,21.14,24.6.52.52,0,0,1-.34.92H681.55a15.34,15.34,0,0,1-13.35,7.5,15.6,15.6,0,0,1-13.45-7.5H636.31c-.12,1.65-.17,3.3-.17,4.92,0,1.45,0,3.22.19,5.15h70.39a.53.53,0,0,1,.34.93,118.16,118.16,0,0,0-20.94,24.59l-1.39,2.14a.53.53,0,0,0,.44.82h10.35a1.92,1.92,0,0,0,1.61-.89C704.8,1975.67,716,1965,729.39,1956.79Z"/><path class="cls-1" d="M610.39,1957c0-23.68,18.63-38,39.18-38,18.46,0,29.6,11.32,29.6,21.94,0,7-4.7,11.84-11,11.84a11.14,11.14,0,0,1-1.74-22.11c-1.91-5.05-6.44-10.45-14.63-10.45-14.62,0-20.54,17.41-20.54,34.83,0,22.11,8.7,35.17,23.5,35.17,11.32,0,19.86-7.66,24.56-16.37l1,.53c-4.87,8.88-14.8,19.5-33.26,19.5C623.8,1993.87,610.39,1977,610.39,1957Z"/><path class="cls-1" d="M85.88,2917.44v-3.31l14.3-6.64V2798l-13.68-8.92v-3.32l45.61-13.47h3.31l1.66,12.65h.83q14.51-12.64,29.86-12.65,12.63,0,23.32,12.44t10.67,33.79q0,24.46-14.82,38.87t-34.1,14.41a60.71,60.71,0,0,1-15.34-1.66v37.31l17,6.64v3.31ZM147,2791.2a14.29,14.29,0,0,0-4.87.72,37.84,37.84,0,0,0-4.66,2.18V2855c1.52,3.6,4.62,5.39,9.33,5.39q5.79,0,11.71-6.73t5.91-29.55q0-16.79-5.71-24.87T147,2791.2Z"/><polygon class="cls-2" points="266.85 2789.87 231.14 2789.87 231.14 2739.23 178.46 2739.23 178.46 2707.89 266.85 2707.89 266.85 2789.87"/><path class="cls-2" d="M194.77,2306v13.65c50.65,8.77,89.33,52.92,89.33,106a107.74,107.74,0,0,1-215.47,0c0-53.12,38.68-97.27,89.33-106V2306c-58.12,8.92-102.83,59.11-102.83,119.69a121.24,121.24,0,1,0,242.47,0C297.6,2365.11,252.89,2314.92,194.77,2306Z"/><polygon class="cls-1" points="167.12 2342.55 176.37 2336.14 185.61 2342.55 185.61 2295.65 202.41 2295.65 202.41 2280 185.61 2280 185.61 2263.18 167.12 2263.18 167.12 2280 150.32 2280 150.32 2295.65 167.12 2295.65 167.12 2342.55"/><path class="cls-1" d="M167.88,2521.52c2.75.19,5,.27,7.22.27,3.13,0,6.42-.16,9.77-.47l.74-.07v-37.83h7.95a.57.57,0,0,0,.57-.57v-14.51a.56.56,0,0,0-.57-.57h-7.95V2397a2.27,2.27,0,0,0-1-1.87l-7.94-5.5a.56.56,0,0,0-.65,0l-7.94,5.5a2.27,2.27,0,0,0-1,1.87v70.75h-8a.56.56,0,0,0-.57.57v14.51a.57.57,0,0,0,.57.57h8v38Z"/><path class="cls-1" d="M206.05,2517.11a104.41,104.41,0,0,0,14.11-5.56l.46-.23V2387a4.58,4.58,0,0,0-2-3.76l-42-29.05a.56.56,0,0,0-.65,0l-42,29.05a4.58,4.58,0,0,0-2,3.76v125.47l.48.22a105.38,105.38,0,0,0,14.12,5.14l1,.29V2392.81l28.6-19.8,28.61,19.8v124.63Z"/><path class="cls-1" d="M238.67,2500.63a37.64,37.64,0,0,0,14.18-29.69v-28.05a29.82,29.82,0,0,0-14.41-25.45l-1.24-.75v51.08h-5.84a.56.56,0,0,0-.57.57v14.51a.57.57,0,0,0,.57.57h5.84v18.35Z"/><path class="cls-1" d="M114.06,2500.63a37.64,37.64,0,0,1-14.18-29.69v-28.05a29.82,29.82,0,0,1,14.41-25.45l1.24-.75v51.08h5.84a.56.56,0,0,1,.57.57v14.51a.57.57,0,0,1-.57.57h-5.84v18.35Z"/><path class="cls-2" d="M1153,1964a27.32,27.32,0,0,1-3.3,13.41,39.1,39.1,0,0,1-6.91,9.13,69.18,69.18,0,0,1-15.18,11.1,151.33,151.33,0,0,1-30.92,12.51,218.89,218.89,0,0,1-63,8.1c-21-.34-42.11-2.71-62.94-8.33a146.23,146.23,0,0,1-31-12.14,67.2,67.2,0,0,1-15.22-11.13,39.25,39.25,0,0,1-6.86-9.21,27.36,27.36,0,0,1-3.24-13.44,26.32,26.32,0,0,1,4-13,36,36,0,0,1,7.28-8.39,63.28,63.28,0,0,1,15.55-9.36,114.63,114.63,0,0,1,14-5l7.76,18.66a98.08,98.08,0,0,0-12.13,5.69,39,39,0,0,0-9.33,7.06,11.31,11.31,0,0,0-2.12,3.18c-.32.84-.16,1.14,0,1.22s.27.2.77.8a18.72,18.72,0,0,0,2.53,2.36,45.06,45.06,0,0,0,9.68,5.29c7.63,3.24,16.52,5.42,25.5,7.1a294.16,294.16,0,0,0,55.88,4.17c9.42-.15,18.83-.53,28.16-1.23,4.66-.36,9.33-.7,13.93-1.28s9.22-1.09,13.73-1.89a121.56,121.56,0,0,0,25.62-6.73,42.52,42.52,0,0,0,9.72-5.32,17.58,17.58,0,0,0,2.49-2.43c.48-.63.57-.76.7-.84s.24-.36-.1-1.18a11.63,11.63,0,0,0-2.15-3.11,41.06,41.06,0,0,0-9.3-7,104.14,104.14,0,0,0-16-7.36l6.84-18.41a119.43,119.43,0,0,1,18.88,6.17,61.36,61.36,0,0,1,15.6,9.39,36.33,36.33,0,0,1,7.24,8.46A26.5,26.5,0,0,1,1153,1964Z"/><path class="cls-1" d="M1103.46,1851.28c-10.08,0-20.62,3-20.62,11v.23c0,7.33,7.56,8.7,3.21,22L1076,1915.65l-16-51.54c-3-10.08-4.81-12.83-15.12-12.83-10.08,0-11.91,3.67-14.2,10.31l-19.24,56.35-11.91-35c-3.44-10.3,3.66-14,3.66-21.76v-.46c0-8.47-15.57-9.39-32.3-9.39-20.61,0-30.69,3-30.69,11.69v.45c0,10.08,10.08,14.21,14.43,25l26.11,62.77c4.13,9.85,8.25,13,20.39,13,12.83,0,14.2-5.49,18.33-16.49l13.51-34.82,12.83,38.26c3.44,10.08,7.33,13,19.47,13,12.6,0,14.43-5.49,18.56-16.49l23.13-62.31c4.13-10.76,15.81-15.8,15.81-23.59v-.23C1122.7,1854.26,1112.85,1851.28,1103.46,1851.28Z"/><path d="M17.29,40.84V60.19H14.78v-15l-3.63,0V43.74l.65-.21a10,10,0,0,0,2.24-1,6.35,6.35,0,0,0,1.58-1.43l.24-.29Z"/><path d="M23.91,60.45a1.62,1.62,0,0,1-1.22-.51,1.73,1.73,0,0,1,0-2.39,1.7,1.7,0,0,1,2.92,1.2A1.68,1.68,0,0,1,25.13,60,1.64,1.64,0,0,1,23.91,60.45Z"/><line class="cls-4" x1="8" y1="14.16" x2="369.94" y2="13.64"/><path d="M422,60.19v-1.8l4.23-3.93,3.13-2.89a12.12,12.12,0,0,0,2.1-2.42,4.61,4.61,0,0,0,.76-2.58,3.43,3.43,0,0,0-.56-2,3.77,3.77,0,0,0-1.44-1.25,4.16,4.16,0,0,0-1.82-.43,4.22,4.22,0,0,0-2,.42,3.33,3.33,0,0,0-1.2,1,4.31,4.31,0,0,0-.6,1.22,5.93,5.93,0,0,0-.24,1.46h-2.46a10.91,10.91,0,0,1,.22-1.68,7.58,7.58,0,0,1,.57-1.55,5.74,5.74,0,0,1,1.11-1.56,5.49,5.49,0,0,1,1.85-1.2,7.91,7.91,0,0,1,5.92.22,5.84,5.84,0,0,1,2.34,2,5.67,5.67,0,0,1,.88,3.23,6,6,0,0,1-.87,3.18,14.19,14.19,0,0,1-2.32,2.79c-.95.9-2,1.88-3.13,2.93l-2.67,2.45h9.41v2.33Z"/><path d="M440.61,60.45a1.6,1.6,0,0,1-1.21-.51,1.7,1.7,0,0,1,2.43-2.39,1.66,1.66,0,0,1,.48,1.2,1.68,1.68,0,0,1-.48,1.21A1.63,1.63,0,0,1,440.61,60.45Z"/><line class="cls-4" x1="417.75" y1="14.16" x2="779.69" y2="13.64"/><path d="M838.09,60.45a8.25,8.25,0,0,1-3.23-.65,5.53,5.53,0,0,1-3.44-5.41h2.44a3.52,3.52,0,0,0,2.21,3.47,5.08,5.08,0,0,0,2,.42,4.89,4.89,0,0,0,2.07-.43,3.69,3.69,0,0,0,1.52-1.27,3.49,3.49,0,0,0,.57-2,3.11,3.11,0,0,0-1-2.45,4,4,0,0,0-2.72-.9H835.9v-2h2.61a3.66,3.66,0,0,0,2.42-.84,2.82,2.82,0,0,0,1-2.28,3,3,0,0,0-.54-1.79A3.74,3.74,0,0,0,840,43.14a4.36,4.36,0,0,0-1.9-.42,4.26,4.26,0,0,0-1.87.43,3.6,3.6,0,0,0-1.47,1.3,3.8,3.8,0,0,0-.58,2.19h-2.38a5.62,5.62,0,0,1,3.31-5.4,7.46,7.46,0,0,1,6.09,0,5.75,5.75,0,0,1,2.32,1.83,4.62,4.62,0,0,1,.89,2.84,4.36,4.36,0,0,1-2.78,4.21v.13a4.74,4.74,0,0,1,2.28,1.59,4.43,4.43,0,0,1,.89,2.83,5.23,5.23,0,0,1-.94,3.11,6.11,6.11,0,0,1-2.46,2A7.87,7.87,0,0,1,838.09,60.45Z"/><path d="M850.59,60.45a1.6,1.6,0,0,1-1.21-.51,1.7,1.7,0,0,1,2.43-2.39,1.66,1.66,0,0,1,.48,1.2,1.68,1.68,0,0,1-.48,1.21A1.63,1.63,0,0,1,850.59,60.45Z"/><line class="cls-4" x1="827.49" y1="14.16" x2="1189.43" y2="13.64"/><path d="M21,494.1v-4.5l-9.47,0v-2.33l8.89-12.5h3.14v12.63h3.37v2.22H23.57v4.5Zm-6.83-6.72H21v-9.62Z"/><path d="M32.41,494.36a1.62,1.62,0,0,1-1.22-.51,1.73,1.73,0,0,1,0-2.39,1.7,1.7,0,0,1,2.92,1.2,1.68,1.68,0,0,1-.48,1.21A1.64,1.64,0,0,1,32.41,494.36Z"/><line class="cls-4" x1="8" y1="448.07" x2="369.94" y2="447.55"/><path d="M428.35,494.36a8,8,0,0,1-2.81-.43,5.72,5.72,0,0,1-3.09-2.55,6.32,6.32,0,0,1-.63-1.44,9.78,9.78,0,0,1-.3-1.54h2.41a6.08,6.08,0,0,0,.32,1.32,4.09,4.09,0,0,0,.7,1.13,3.72,3.72,0,0,0,1.29.94,5.11,5.11,0,0,0,2.11.38,4.44,4.44,0,0,0,2.51-.66,4.12,4.12,0,0,0,1.49-1.67,4.88,4.88,0,0,0,.5-2.15,5.2,5.2,0,0,0-.5-2.21,4.52,4.52,0,0,0-5.78-2,3.84,3.84,0,0,0-1.19.83,5.52,5.52,0,0,0-.8,1.21h-2.51l1.52-10.75H434V477h-8.5l-.79,5.55h.08a6.56,6.56,0,0,1,.8-.72,4.55,4.55,0,0,1,1.27-.66,6.05,6.05,0,0,1,2-.27,6.07,6.07,0,0,1,5.76,3.49,7.26,7.26,0,0,1,.75,3.23,7.16,7.16,0,0,1-.43,2.46,6.46,6.46,0,0,1-1.3,2.16,6.33,6.33,0,0,1-2.17,1.53A7.66,7.66,0,0,1,428.35,494.36Z"/><path d="M440.85,494.36a1.62,1.62,0,0,1-1.22-.51,1.73,1.73,0,0,1,0-2.39,1.65,1.65,0,0,1,1.22-.5,1.69,1.69,0,0,1,1.7,1.7,1.65,1.65,0,0,1-.49,1.21A1.61,1.61,0,0,1,440.85,494.36Z"/><line class="cls-4" x1="417.75" y1="448.07" x2="779.69" y2="447.55"/><path d="M838.8,494.36a7,7,0,0,1-3.23-.7,6.18,6.18,0,0,1-2.26-2,8.52,8.52,0,0,1-1.32-2.84,12.66,12.66,0,0,1-.44-3.35,14.9,14.9,0,0,1,.32-3,13.18,13.18,0,0,1,1-3,9.15,9.15,0,0,1,1.78-2.58,8.38,8.38,0,0,1,2.69-1.81,9.22,9.22,0,0,1,3.7-.68,11.89,11.89,0,0,1,1.53.09,13.64,13.64,0,0,1,1.53.3v2.35c-.63-.14-1.18-.24-1.66-.3a11.64,11.64,0,0,0-1.45-.09,7,7,0,0,0-2.73.48,5.69,5.69,0,0,0-1.91,1.29,6.48,6.48,0,0,0-1.23,1.72,8.31,8.31,0,0,0-.67,1.83,7.84,7.84,0,0,0-.23,1.56,4.4,4.4,0,0,1,.73-.86,5.06,5.06,0,0,1,1.54-1,7.39,7.39,0,0,1,6.1.49,5.9,5.9,0,0,1,2.13,2.39,6.86,6.86,0,0,1,.72,3.08,7,7,0,0,1-.74,3.13,6.09,6.09,0,0,1-2.19,2.46A6.7,6.7,0,0,1,838.8,494.36Zm0-2.19a4.55,4.55,0,0,0,2-.47,4,4,0,0,0,1.57-1.43,4.95,4.95,0,0,0,0-4.76,4,4,0,0,0-1.57-1.43,4.55,4.55,0,0,0-2-.47,4.49,4.49,0,0,0-2,.47,3.91,3.91,0,0,0-1.57,1.43,4.88,4.88,0,0,0,0,4.76,3.91,3.91,0,0,0,1.57,1.43A4.49,4.49,0,0,0,838.75,492.17Z"/><path d="M851.12,494.36a1.61,1.61,0,0,1-1.22-.51,1.73,1.73,0,0,1,0-2.39,1.71,1.71,0,1,1,1.22,2.9Z"/><line class="cls-4" x1="827.49" y1="448.07" x2="1189.43" y2="447.55"/><path d="M14.83,928a22.86,22.86,0,0,1,.66-4.77A26.26,26.26,0,0,1,16.93,919a32.39,32.39,0,0,1,1.8-3.54c.63-1.05,1.23-2,1.79-2.73s1-1.37,1.4-1.81H11.54v-2.27H24.85v1.91c-.7.78-1.32,1.54-1.87,2.27A31.93,31.93,0,0,0,19.45,919,27,27,0,0,0,18,923.21a23,23,0,0,0-.68,4.8Z"/><path d="M29.38,928.27a1.61,1.61,0,0,1-1.22-.51,1.73,1.73,0,0,1,0-2.39,1.71,1.71,0,1,1,1.22,2.9Z"/><line class="cls-4" x1="8" y1="881.98" x2="369.94" y2="881.46"/><path d="M428.14,928.27a8,8,0,0,1-3.55-.74,5.87,5.87,0,0,1-2.34-2,5.12,5.12,0,0,1-.83-2.86,5,5,0,0,1,.49-2.34,5,5,0,0,1,1.17-1.49,7.26,7.26,0,0,1,1.66-1v-.13a6.35,6.35,0,0,1-1.4-.87,4,4,0,0,1-1.4-3.19,4.81,4.81,0,0,1,.76-2.67,5.12,5.12,0,0,1,2.16-1.85,8.25,8.25,0,0,1,6.56,0,5.24,5.24,0,0,1,2.16,1.85,4.9,4.9,0,0,1,.76,2.67,4.09,4.09,0,0,1-.42,1.94,4.22,4.22,0,0,1-1,1.25,6.59,6.59,0,0,1-1.4.87v.13a7.48,7.48,0,0,1,1.66,1,4.79,4.79,0,0,1,1.66,3.83,5.05,5.05,0,0,1-.84,2.86,5.87,5.87,0,0,1-2.34,2A8,8,0,0,1,428.14,928.27Zm0-2.06a4.71,4.71,0,0,0,2.36-.55,3.67,3.67,0,0,0,1.44-1.43,3.62,3.62,0,0,0,.49-1.81,3.44,3.44,0,0,0-.47-1.74,3.62,3.62,0,0,0-1.43-1.36,5.56,5.56,0,0,0-4.78,0,3.55,3.55,0,0,0-1.43,1.36,3.44,3.44,0,0,0-.47,1.74,3.73,3.73,0,0,0,1.92,3.24A4.77,4.77,0,0,0,428.14,926.21Zm0-9.42a4.25,4.25,0,0,0,2.09-.47,3.18,3.18,0,0,0,1.26-1.2,3.07,3.07,0,0,0,.41-1.49,3.18,3.18,0,0,0-.41-1.55,3.22,3.22,0,0,0-1.26-1.19,5.06,5.06,0,0,0-4.17,0,3.19,3.19,0,0,0-1.27,1.19,3.09,3.09,0,0,0-.42,1.55,3,3,0,0,0,.42,1.49,3.14,3.14,0,0,0,1.27,1.2A4.29,4.29,0,0,0,428.14,916.79Z"/><path d="M440.17,928.27a1.62,1.62,0,0,1-1.22-.51,1.73,1.73,0,0,1,0-2.39,1.65,1.65,0,0,1,1.22-.5,1.69,1.69,0,0,1,1.7,1.7,1.65,1.65,0,0,1-.49,1.21A1.61,1.61,0,0,1,440.17,928.27Z"/><line class="cls-4" x1="417.75" y1="881.98" x2="779.69" y2="881.46"/><path d="M838.17,908.4a7,7,0,0,1,3.23.7,6.18,6.18,0,0,1,2.26,1.95,8.46,8.46,0,0,1,1.32,2.83,12.57,12.57,0,0,1,.44,3.36,14.9,14.9,0,0,1-.32,3,13.18,13.18,0,0,1-1,3,9.15,9.15,0,0,1-1.78,2.58,8.38,8.38,0,0,1-2.69,1.81,9.22,9.22,0,0,1-3.7.68,10.39,10.39,0,0,1-1.52-.1c-.47-.07-1-.17-1.54-.29v-2.35c.63.12,1.18.22,1.66.28a10,10,0,0,0,1.45.11,7,7,0,0,0,2.73-.48,5.69,5.69,0,0,0,1.91-1.29,6.48,6.48,0,0,0,1.23-1.72,8.31,8.31,0,0,0,.67-1.83,7.84,7.84,0,0,0,.23-1.56,4.4,4.4,0,0,1-.73.86,5.06,5.06,0,0,1-1.54,1,7.34,7.34,0,0,1-6.08-.49,6,6,0,0,1-2.15-2.4,7,7,0,0,1,0-6.21,6,6,0,0,1,2.21-2.45A6.59,6.59,0,0,1,838.17,908.4Zm.05,2.19a4.55,4.55,0,0,0-2,.47,4,4,0,0,0-1.57,1.42,4.25,4.25,0,0,0-.61,2.38,4.33,4.33,0,0,0,.61,2.39,3.88,3.88,0,0,0,1.57,1.42,4.43,4.43,0,0,0,2,.48,4.37,4.37,0,0,0,2-.48,3.82,3.82,0,0,0,1.57-1.42,4.33,4.33,0,0,0,.62-2.39,4.25,4.25,0,0,0-.62-2.38,4,4,0,0,0-1.57-1.42A4.49,4.49,0,0,0,838.22,910.59Z"/><path d="M851.12,928.27a1.61,1.61,0,0,1-1.22-.51,1.73,1.73,0,0,1,0-2.39,1.71,1.71,0,1,1,1.22,2.9Z"/><line class="cls-4" x1="827.49" y1="881.98" x2="1189.43" y2="881.46"/><path d="M17.29,1342.57v19.35H14.78v-15l-3.63,0v-1.47l.65-.21a10,10,0,0,0,2.24-1,6.16,6.16,0,0,0,1.58-1.43l.24-.29Z"/><path d="M29,1362.16a6.3,6.3,0,0,1-3.19-.8,6.94,6.94,0,0,1-2.31-2.17,10.73,10.73,0,0,1-1.42-3.18,15.28,15.28,0,0,1,0-7.6,10.79,10.79,0,0,1,1.42-3.17,6.65,6.65,0,0,1,2.31-2.17,6.84,6.84,0,0,1,6.38,0,6.68,6.68,0,0,1,2.32,2.17,10.77,10.77,0,0,1,1.41,3.17,15.28,15.28,0,0,1,0,7.6,10.72,10.72,0,0,1-1.41,3.18,7,7,0,0,1-2.32,2.17A6.3,6.3,0,0,1,29,1362.16Zm0-2.36a4,4,0,0,0,3.41-1.92,12.52,12.52,0,0,0,0-11.31,4,4,0,0,0-6.82,0,12.5,12.5,0,0,0,0,11.3A4,4,0,0,0,29,1359.8Z"/><path d="M41.59,1362.18a1.62,1.62,0,0,1-1.22-.51,1.73,1.73,0,0,1,0-2.39,1.7,1.7,0,0,1,2.92,1.2,1.68,1.68,0,0,1-.48,1.21A1.64,1.64,0,0,1,41.59,1362.18Z"/><line class="cls-4" x1="8" y1="1315.89" x2="369.94" y2="1315.37"/><path d="M427,1342.57v19.35h-2.51v-15l-3.64,0v-1.47l.66-.21a9.87,9.87,0,0,0,2.23-1,6,6,0,0,0,1.59-1.43l.23-.29Z"/><path d="M437.11,1342.57v19.35H434.6v-15l-3.64,0v-1.47l.66-.21a9.87,9.87,0,0,0,2.23-1,6,6,0,0,0,1.59-1.43l.23-.29Z"/><path d="M443.73,1362.18a1.61,1.61,0,0,1-1.22-.51,1.73,1.73,0,0,1,0-2.39,1.73,1.73,0,0,1,2.43,0,1.67,1.67,0,0,1,.49,1.2,1.69,1.69,0,0,1-.49,1.21A1.62,1.62,0,0,1,443.73,1362.18Z"/><line class="cls-4" x1="417.75" y1="1315.89" x2="779.69" y2="1315.37"/><path d="M836.79,1342.57v19.35h-2.52v-15l-3.63,0v-1.47l.65-.21a10,10,0,0,0,2.24-1,6,6,0,0,0,1.58-1.43l.24-.29Z"/><path d="M841.78,1361.92v-1.8l4.24-3.93,3.12-2.89a12.53,12.53,0,0,0,2.11-2.42,4.69,4.69,0,0,0,.76-2.58,3.36,3.36,0,0,0-.57-2,3.64,3.64,0,0,0-1.43-1.24,4.07,4.07,0,0,0-1.82-.44,4.29,4.29,0,0,0-2,.42,3.33,3.33,0,0,0-1.2,1,4.36,4.36,0,0,0-.6,1.23,6.84,6.84,0,0,0-.24,1.45h-2.45a8.9,8.9,0,0,1,.22-1.68,7.51,7.51,0,0,1,.56-1.55,5.74,5.74,0,0,1,1.11-1.56,5.43,5.43,0,0,1,1.86-1.2,7.88,7.88,0,0,1,5.91.22,5.51,5.51,0,0,1,3.23,5.24,5.9,5.9,0,0,1-.88,3.18,13.78,13.78,0,0,1-2.31,2.79l-3.14,2.93-2.67,2.45H855v2.33Z"/><path d="M860.43,1362.18a1.61,1.61,0,0,1-1.22-.51,1.73,1.73,0,0,1,0-2.39,1.64,1.64,0,0,1,1.22-.5,1.69,1.69,0,0,1,1.7,1.7,1.65,1.65,0,0,1-.49,1.21A1.61,1.61,0,0,1,860.43,1362.18Z"/><line class="cls-4" x1="827.49" y1="1315.89" x2="1189.43" y2="1315.37"/><path d="M17.29,1776.48v19.35H14.78v-15l-3.63,0v-1.47l.65-.21a10.48,10.48,0,0,0,2.24-1,6.4,6.4,0,0,0,1.58-1.44l.24-.29Z"/><path d="M28.67,1796.09a8.07,8.07,0,0,1-3.23-.65A5.53,5.53,0,0,1,22,1790h2.43a3.66,3.66,0,0,0,.62,2.19,3.62,3.62,0,0,0,1.59,1.28,5.13,5.13,0,0,0,2,.42,4.89,4.89,0,0,0,2.07-.43,3.66,3.66,0,0,0,1.51-1.27,3.4,3.4,0,0,0,.58-2,3.12,3.12,0,0,0-1-2.45,4,4,0,0,0-2.72-.9H26.47v-2h2.62a3.66,3.66,0,0,0,2.42-.84,2.8,2.8,0,0,0,1-2.27,3,3,0,0,0-.54-1.8,3.74,3.74,0,0,0-1.41-1.16,4.39,4.39,0,0,0-3.77,0,3.69,3.69,0,0,0-1.48,1.3,3.91,3.91,0,0,0-.57,2.2H22.37a5.62,5.62,0,0,1,3.31-5.41,7.23,7.23,0,0,1,3-.66,7.32,7.32,0,0,1,3.05.64,5.82,5.82,0,0,1,2.31,1.83,4.56,4.56,0,0,1,.89,2.84,4.34,4.34,0,0,1-2.77,4.21v.13a4.79,4.79,0,0,1,2.28,1.59,4.45,4.45,0,0,1,.89,2.83,5.17,5.17,0,0,1-.95,3.11,6,6,0,0,1-2.45,2A7.87,7.87,0,0,1,28.67,1796.09Z"/><path d="M41.17,1796.09a1.59,1.59,0,0,1-1.21-.51,1.7,1.7,0,0,1,0-2.39,1.61,1.61,0,0,1,1.21-.5,1.7,1.7,0,1,1,0,3.4Z"/><line class="cls-4" x1="8" y1="1749.8" x2="369.94" y2="1749.28"/><path d="M427,1776.48v19.35h-2.51v-15l-3.64,0v-1.47l.66-.21a10.38,10.38,0,0,0,2.23-1,6.26,6.26,0,0,0,1.59-1.44l.23-.29Z"/><path d="M440.82,1795.83v-4.5l-9.46,0V1789l8.89-12.5h3.14v12.63h3.37v2.22h-3.37v4.5Zm-6.82-6.72h6.82v-9.62Z"/><path d="M452.23,1796.09a1.61,1.61,0,0,1-1.22-.51,1.73,1.73,0,0,1,0-2.39,1.73,1.73,0,0,1,2.43,0,1.73,1.73,0,0,1,0,2.41A1.62,1.62,0,0,1,452.23,1796.09Z"/><line class="cls-4" x1="417.75" y1="1749.8" x2="779.69" y2="1749.28"/><path d="M836.79,1776.48v19.35h-2.52v-15l-3.63,0v-1.47l.65-.21a10.48,10.48,0,0,0,2.24-1,6.23,6.23,0,0,0,1.58-1.44l.24-.29Z"/><path d="M848.16,1796.09a8.06,8.06,0,0,1-2.81-.43,5.69,5.69,0,0,1-1.91-1.11,5.79,5.79,0,0,1-1.18-1.44,6.73,6.73,0,0,1-.62-1.44,9.78,9.78,0,0,1-.3-1.54h2.4a5.53,5.53,0,0,0,.33,1.32,4.3,4.3,0,0,0,.69,1.13,3.73,3.73,0,0,0,1.3.94,5.09,5.09,0,0,0,2.1.38,4.44,4.44,0,0,0,2.51-.66,4.12,4.12,0,0,0,1.49-1.67,4.87,4.87,0,0,0,.5-2.14,5.14,5.14,0,0,0-.5-2.21,4.07,4.07,0,0,0-3.89-2.4,4.27,4.27,0,0,0-1.89.37,3.81,3.81,0,0,0-1.19.84,5.2,5.2,0,0,0-.79,1.2h-2.52l1.52-10.75h10.41v2.27h-8.5l-.78,5.55h.08a5.75,5.75,0,0,1,.79-.72,4.56,4.56,0,0,1,1.27-.65,5.81,5.81,0,0,1,2-.28,6.27,6.27,0,0,1,3.59,1,6.51,6.51,0,0,1,2.18,2.51,7.26,7.26,0,0,1,.75,3.23,7.17,7.17,0,0,1-.44,2.46,6.44,6.44,0,0,1-1.29,2.16,6.26,6.26,0,0,1-2.17,1.53A7.68,7.68,0,0,1,848.16,1796.09Z"/><path d="M860.66,1796.09a1.59,1.59,0,0,1-1.21-.51,1.7,1.7,0,0,1,0-2.39,1.61,1.61,0,0,1,1.21-.5,1.64,1.64,0,0,1,1.22.5,1.75,1.75,0,0,1,0,2.41A1.63,1.63,0,0,1,860.66,1796.09Z"/><line class="cls-4" x1="827.49" y1="1749.8" x2="1189.43" y2="1749.28"/><path d="M17.29,2210.39v19.35H14.78v-15l-3.63,0v-1.47l.65-.21a10.48,10.48,0,0,0,2.24-1,6.4,6.4,0,0,0,1.58-1.44l.24-.29Z"/><path d="M29.38,2230a7,7,0,0,1-3.23-.7,6.29,6.29,0,0,1-2.27-2,8.83,8.83,0,0,1-1.32-2.84,13.07,13.07,0,0,1-.43-3.34,15,15,0,0,1,.32-3,13.18,13.18,0,0,1,1-3,8.77,8.77,0,0,1,1.78-2.57,8.14,8.14,0,0,1,2.69-1.82,9.19,9.19,0,0,1,3.7-.68,11.89,11.89,0,0,1,1.53.09,13.64,13.64,0,0,1,1.53.3v2.35c-.63-.14-1.18-.24-1.66-.3a11.64,11.64,0,0,0-1.45-.09,6.85,6.85,0,0,0-2.74.49,5.73,5.73,0,0,0-1.9,1.28,6.48,6.48,0,0,0-1.23,1.72,8.31,8.31,0,0,0-.67,1.83,8.9,8.9,0,0,0-.24,1.56,5,5,0,0,1,.74-.86,5.06,5.06,0,0,1,1.54-1,6.36,6.36,0,0,1,2.54-.44,6.31,6.31,0,0,1,3.55.93,6,6,0,0,1,2.13,2.39,7,7,0,0,1,0,6.21,6.11,6.11,0,0,1-2.2,2.46A6.56,6.56,0,0,1,29.38,2230Zm-.06-2.19a4.56,4.56,0,0,0,2-.47,4,4,0,0,0,1.56-1.43,4.26,4.26,0,0,0,.62-2.37,4.36,4.36,0,0,0-.62-2.39,3.93,3.93,0,0,0-1.56-1.42,4.51,4.51,0,0,0-4,0,4,4,0,0,0-1.57,1.42,4.35,4.35,0,0,0-.61,2.39,4.26,4.26,0,0,0,.61,2.37,4,4,0,0,0,1.57,1.43A4.55,4.55,0,0,0,29.32,2227.81Z"/><path d="M41.7,2230a1.64,1.64,0,0,1-1.22-.5,1.71,1.71,0,0,1-.48-1.2,1.66,1.66,0,0,1,.48-1.2,1.73,1.73,0,0,1,2.43,0,1.73,1.73,0,0,1,0,2.41A1.62,1.62,0,0,1,41.7,2230Z"/><line class="cls-4" x1="8" y1="2183.71" x2="369.94" y2="2183.19"/><path d="M427,2210.39v19.35h-2.51v-15l-3.64,0v-1.47l.66-.21a10.38,10.38,0,0,0,2.23-1,6.26,6.26,0,0,0,1.59-1.44l.23-.29Z"/><path d="M434.65,2229.74a22.22,22.22,0,0,1,.65-4.77,27.85,27.85,0,0,1,1.44-4.22,33.46,33.46,0,0,1,1.81-3.55c.63-1,1.22-2,1.79-2.73s1-1.37,1.4-1.8H431.36v-2.28h13.31v1.91c-.7.78-1.32,1.54-1.87,2.27a30.59,30.59,0,0,0-3.53,6.16,27,27,0,0,0-1.43,4.21,23.64,23.64,0,0,0-.68,4.8Z"/><path d="M449.19,2230a1.61,1.61,0,0,1-1.21-.5,1.68,1.68,0,0,1-.49-1.2,1.69,1.69,0,0,1,1.7-1.7,1.7,1.7,0,1,1,0,3.4Z"/><line class="cls-4" x1="417.75" y1="2183.71" x2="779.69" y2="2183.19"/><path d="M836.79,2210.39v19.35h-2.52v-15l-3.63,0v-1.47l.65-.21a10.48,10.48,0,0,0,2.24-1,6.23,6.23,0,0,0,1.58-1.44l.24-.29Z"/><path d="M848,2230a7.83,7.83,0,0,1-3.54-.74,5.92,5.92,0,0,1-2.34-2,5.09,5.09,0,0,1-.84-2.87,4.94,4.94,0,0,1,.5-2.34,5.11,5.11,0,0,1,1.16-1.49,7.87,7.87,0,0,1,1.66-1v-.13a6.21,6.21,0,0,1-1.4-.87,4.22,4.22,0,0,1-1-1.25,4.06,4.06,0,0,1-.42-1.94,4.84,4.84,0,0,1,.76-2.66,5.19,5.19,0,0,1,2.16-1.86,8.27,8.27,0,0,1,6.57,0,5.1,5.1,0,0,1,2.15,1.86,4.76,4.76,0,0,1,.76,2.66,4,4,0,0,1-1.4,3.19,6,6,0,0,1-1.4.87v.13a7.39,7.39,0,0,1,1.66,1,4.71,4.71,0,0,1,1.66,3.83,5.08,5.08,0,0,1-.83,2.87,5.92,5.92,0,0,1-2.34,2A7.9,7.9,0,0,1,848,2230Zm0-2.06a4.67,4.67,0,0,0,2.37-.55,3.67,3.67,0,0,0,1.44-1.43,3.72,3.72,0,0,0,.48-1.81,3.5,3.5,0,0,0-.47-1.74,3.59,3.59,0,0,0-1.42-1.36,5.58,5.58,0,0,0-4.79,0,3.62,3.62,0,0,0-1.43,1.36,3.5,3.5,0,0,0-.47,1.74,3.62,3.62,0,0,0,.49,1.81,3.67,3.67,0,0,0,1.44,1.43A4.61,4.61,0,0,0,848,2227.94Zm0-9.42a4.12,4.12,0,0,0,2.09-.47,3.18,3.18,0,0,0,1.26-1.2,3,3,0,0,0,.42-1.49,3,3,0,0,0-.42-1.54,3.09,3.09,0,0,0-1.26-1.19,4.23,4.23,0,0,0-2.09-.46,4.29,4.29,0,0,0-2.08.46,3.08,3.08,0,0,0-1.68,2.73,3,3,0,0,0,.42,1.49,3.11,3.11,0,0,0,1.26,1.2A4.18,4.18,0,0,0,848,2218.52Z"/><path d="M860,2230a1.63,1.63,0,0,1-1.21-.5,1.68,1.68,0,0,1-.49-1.2,1.71,1.71,0,0,1,2.92-1.2,1.75,1.75,0,0,1,0,2.41A1.63,1.63,0,0,1,860,2230Z"/><line class="cls-4" x1="827.49" y1="2183.71" x2="1189.43" y2="2183.19"/><path d="M17.29,2644.3v19.35H14.78v-15l-3.63,0v-1.47l.65-.21a10,10,0,0,0,2.24-1,6.16,6.16,0,0,0,1.58-1.43l.24-.29Z"/><path d="M28.75,2644a7,7,0,0,1,3.23.7,6.26,6.26,0,0,1,2.26,2,8.87,8.87,0,0,1,1.32,2.83,12.57,12.57,0,0,1,.43,3.36,14.87,14.87,0,0,1-.31,3,13.69,13.69,0,0,1-1,3,9.36,9.36,0,0,1-1.78,2.58,8.38,8.38,0,0,1-2.69,1.81,9.22,9.22,0,0,1-3.7.68,10.39,10.39,0,0,1-1.52-.1c-.47-.07-1-.17-1.54-.29v-2.35c.62.12,1.18.22,1.66.29a10,10,0,0,0,1.45.1,7,7,0,0,0,2.73-.48,5.69,5.69,0,0,0,1.91-1.29,6.72,6.72,0,0,0,1.23-1.72,8.85,8.85,0,0,0,.67-1.83,8.65,8.65,0,0,0,.23-1.56,4.4,4.4,0,0,1-.73.86,5.19,5.19,0,0,1-1.54,1,6.4,6.4,0,0,1-2.54.44,6.35,6.35,0,0,1-3.54-.93,5.91,5.91,0,0,1-2.15-2.4,7,7,0,0,1-.72-3.07,7.13,7.13,0,0,1,.73-3.14,6.06,6.06,0,0,1,2.22-2.45A6.67,6.67,0,0,1,28.75,2644Zm.05,2.19a4.4,4.4,0,0,0-2,.48,3.86,3.86,0,0,0-1.57,1.41,4.27,4.27,0,0,0-.61,2.38,4.33,4.33,0,0,0,.61,2.39,3.91,3.91,0,0,0,1.57,1.43,4.49,4.49,0,0,0,4,0,3.91,3.91,0,0,0,1.57-1.43,4.33,4.33,0,0,0,.62-2.39,4.27,4.27,0,0,0-.62-2.38,3.86,3.86,0,0,0-1.57-1.41A4.37,4.37,0,0,0,28.8,2646.23Z"/><path d="M41.7,2663.91a1.61,1.61,0,0,1-1.22-.51,1.73,1.73,0,0,1,0-2.39,1.73,1.73,0,0,1,2.43,0,1.67,1.67,0,0,1,.49,1.2,1.69,1.69,0,0,1-.49,1.21A1.62,1.62,0,0,1,41.7,2663.91Z"/><line class="cls-4" x1="8" y1="2617.62" x2="369.94" y2="2617.1"/><path d="M422,2663.65v-1.8l4.23-3.93,3.13-2.88a12.69,12.69,0,0,0,2.1-2.42,4.67,4.67,0,0,0,.76-2.59,3.43,3.43,0,0,0-.56-2,3.67,3.67,0,0,0-1.44-1.24,4,4,0,0,0-1.82-.43,4.23,4.23,0,0,0-2,.41,3.33,3.33,0,0,0-1.2,1,4.36,4.36,0,0,0-.6,1.23,5.84,5.84,0,0,0-.24,1.45h-2.46a10.91,10.91,0,0,1,.22-1.68,7.58,7.58,0,0,1,.57-1.55,5.74,5.74,0,0,1,1.11-1.56,5.49,5.49,0,0,1,1.85-1.2,7.91,7.91,0,0,1,5.92.22,5.84,5.84,0,0,1,2.34,2,5.7,5.7,0,0,1,.88,3.23,6,6,0,0,1-.87,3.18,14.19,14.19,0,0,1-2.32,2.79c-.95.9-2,1.88-3.13,2.93l-2.67,2.45h9.41v2.33Z"/><path d="M445.71,2663.89a6.32,6.32,0,0,1-3.19-.8,7,7,0,0,1-2.31-2.17,10.73,10.73,0,0,1-1.42-3.18,15.28,15.28,0,0,1,0-7.6,10.79,10.79,0,0,1,1.42-3.17,6.73,6.73,0,0,1,2.31-2.17,6.84,6.84,0,0,1,6.38,0,6.68,6.68,0,0,1,2.32,2.17,10.52,10.52,0,0,1,1.41,3.17,15.28,15.28,0,0,1,0,7.6,10.47,10.47,0,0,1-1.41,3.18,7,7,0,0,1-2.32,2.17A6.27,6.27,0,0,1,445.71,2663.89Zm0-2.36a4,4,0,0,0,3.42-1.92,12.6,12.6,0,0,0,0-11.31,4,4,0,0,0-6.83,0,12.5,12.5,0,0,0,0,11.3A4,4,0,0,0,445.71,2661.53Z"/><path d="M458.29,2663.91a1.59,1.59,0,0,1-1.21-.51,1.7,1.7,0,0,1,0-2.39,1.61,1.61,0,0,1,1.21-.5,1.64,1.64,0,0,1,1.22.5,1.66,1.66,0,0,1,.48,1.2,1.68,1.68,0,0,1-.48,1.21A1.63,1.63,0,0,1,458.29,2663.91Z"/><line class="cls-4" x1="417.75" y1="2617.62" x2="779.69" y2="2617.1"/><path d="M831.71,2663.65v-1.8l4.24-3.93c1.18-1.09,2.22-2.06,3.12-2.88a13.15,13.15,0,0,0,2.11-2.42,4.75,4.75,0,0,0,.76-2.59,3.43,3.43,0,0,0-.56-2,3.74,3.74,0,0,0-1.44-1.24,4.05,4.05,0,0,0-1.82-.43,4.23,4.23,0,0,0-2,.41,3.29,3.29,0,0,0-1.21,1,4.36,4.36,0,0,0-.6,1.23,6.38,6.38,0,0,0-.23,1.45h-2.46a8.9,8.9,0,0,1,.22-1.68,7.51,7.51,0,0,1,.56-1.55,5.74,5.74,0,0,1,1.11-1.56,5.43,5.43,0,0,1,1.86-1.2,7.88,7.88,0,0,1,5.91.22,5.51,5.51,0,0,1,3.23,5.24,5.9,5.9,0,0,1-.88,3.18,13.78,13.78,0,0,1-2.31,2.79l-3.14,2.93-2.67,2.45h9.42v2.33Z"/><path d="M853.81,2644.3v19.35H851.3v-15l-3.64,0v-1.47l.66-.21a9.87,9.87,0,0,0,2.23-1,6,6,0,0,0,1.59-1.43l.23-.29Z"/><path d="M860.43,2663.91a1.61,1.61,0,0,1-1.22-.51,1.73,1.73,0,0,1,0-2.39,1.64,1.64,0,0,1,1.22-.5,1.69,1.69,0,0,1,1.7,1.7,1.65,1.65,0,0,1-.49,1.21A1.61,1.61,0,0,1,860.43,2663.91Z"/><line class="cls-4" x1="827.49" y1="2617.62" x2="1189.43" y2="2617.1"/><rect class="cls-2" x="163" y="1519.5" width="48" height="17"/></svg>