<svg id="Layer_1" data-name="Layer 1" xmlns="http://www.w3.org/2000/svg" viewBox="0 0 370 2966"><defs><style>.cls-1{fill:#828284;}.cls-2{fill:#161617;}.cls-3{fill:none;stroke:#000;stroke-miterlimit:10;stroke-width:1.05px;}</style></defs><polygon class="cls-1" points="316.79 671.41 316.79 694.33 263.29 645.61 263.29 622.7 316.79 671.41"/><polygon class="cls-2" points="316.79 724.25 316.79 699.29 263.29 650.58 263.29 724.25 316.79 724.25"/><polygon class="cls-1" points="54.12 671.41 54.12 694.33 107.62 645.61 107.62 622.7 54.12 671.41"/><polygon class="cls-2" points="107.62 724.25 107.62 650.58 54.12 699.29 54.12 724.25 107.62 724.25"/><path class="cls-2" d="M234.05,724.25c2.22,0,3.06-1.39,2.08-3.2L211,664.85,234.6,616.3c1-1.95.14-3.34-1.94-3.34H218.05a3.3,3.3,0,0,0-3.2,2.08l-21.42,43.83V615.74a2.49,2.49,0,0,0-2.78-2.78H177.29a2.49,2.49,0,0,0-2.78,2.78V721.47a2.5,2.5,0,0,0,2.78,2.78h13.36a2.5,2.5,0,0,0,2.78-2.78V690.72l5.14-9.87,17.54,41.31a3.05,3.05,0,0,0,3.19,2.09Z"/><path class="cls-2" d="M135,653c0,13.08,6.94,20,20,20h18.37c12.93,0,20-7,20-20V614.34a2,2,0,0,0-2.22-2.23H167.77a1.94,1.94,0,0,0-2.23,2.23v13.91a2,2,0,0,0,2.23,2.23H175v18.64c0,3.75-1.95,5.56-5.57,5.56h-10c-3.61,0-5.56-1.81-5.56-5.56V585.69c0-3.63,1.81-5.57,5.56-5.57h10c3.62,0,5.57,1.94,5.57,5.57v10.57a2,2,0,0,0,2.22,2.22h13.92a2,2,0,0,0,2.22-2.22V581.79c0-13.08-7.1-20-20-20H155c-13.08,0-20,7-20,20Z"/><path class="cls-2" d="M66.16,2820.28a7,7,0,0,0-3.93-2.22l1-.44a7.89,7.89,0,0,0,.95-.67,5.42,5.42,0,0,0,2-4.63,6.9,6.9,0,0,0-1.79-4.64,6.66,6.66,0,0,0-2.94-1.74,14.66,14.66,0,0,0-4.65-.65H46.42v26.56H58.05q5.46,0,7.67-2.47a7.12,7.12,0,0,0,1.9-4.9A6.19,6.19,0,0,0,66.16,2820.28Zm-13.81-10H55.2a8.51,8.51,0,0,1,3.72.58,2.34,2.34,0,0,1,1.1,2.33,2.26,2.26,0,0,1-1.19,2.3,9.64,9.64,0,0,1-3.67.53H52.35Zm7.88,15.91a9,9,0,0,1-3.82.62H52.35v-6.11h3.49a11.68,11.68,0,0,1,4.32.58,2.4,2.4,0,0,1,1.34,2.44A2.49,2.49,0,0,1,60.23,2826.21Z"/><path class="cls-2" d="M91.75,2805.29H86l-11.47,26.56h6.3l2.48-5.74H94.45l2.47,5.74h6.3Zm-6.2,15.61,3.35-7.71,3.31,7.71Z"/><path class="cls-2" d="M124.2,2826.6a7.4,7.4,0,0,1-5.44-2.24,8,8,0,0,1-2.24-6,7.61,7.61,0,0,1,2.38-5.88,8.13,8.13,0,0,1,5.72-2.19,8.66,8.66,0,0,1,7,3.5l3.68-4.18a14,14,0,0,0-10.94-5,13.66,13.66,0,0,0-9.9,4,14,14,0,0,0-.07,19.65,14.34,14.34,0,0,0,20.76-1.22l-3.8-3.91a8.75,8.75,0,0,1-7.14,3.45"/><path class="cls-2" d="M145.51,2831.85h5.93v-7.53l2.66-3,7.79,10.49h6.92q-1.83-2.55-5.52-7.74t-5-7.08l10.57-11.75h-7.34l-10,10.91v-10.91h-5.93Z"/><polygon class="cls-2" points="210.41 2816.38 199.85 2816.38 199.85 2805.29 193.92 2805.29 193.92 2831.85 199.85 2831.85 199.85 2821.4 210.41 2821.4 210.41 2831.85 216.34 2831.85 216.34 2805.29 210.41 2805.29 210.41 2816.38"/><path class="cls-2" d="M250.91,2808.61a14.47,14.47,0,0,0-19.83,0,13.89,13.89,0,0,0,0,19.57,14.45,14.45,0,0,0,19.83,0,13.89,13.89,0,0,0,0-19.57Zm-4.29,15.85a7.55,7.55,0,0,1-11.21,0,9.17,9.17,0,0,1,0-12.1,7.51,7.51,0,0,1,11.21,0,9.17,9.17,0,0,1,0,12.1Z"/><polygon class="cls-2" points="289.44 2831.85 295.37 2831.85 295.37 2805.29 287.39 2805.29 280.51 2819.88 273.67 2805.29 265.66 2805.29 265.66 2831.85 271.58 2831.85 271.58 2815.13 278.73 2829.64 282.26 2829.64 289.44 2815.13 289.44 2831.85"/><polygon class="cls-2" points="307.6 2805.29 307.6 2831.85 327.17 2831.85 327.17 2826.6 313.53 2826.6 313.53 2821.1 325.42 2821.1 325.42 2816.04 313.53 2816.04 313.53 2810.57 326.75 2810.57 326.75 2805.29 307.6 2805.29"/><path class="cls-1" d="M25.92,2792.58a22.45,22.45,0,0,0,11.73-1.53c4.83-2.1,8.62-5.94,11.28-11.46H91.27v-7.69H43.8l-1,2.43c-5.72,14.58-18,10.37-19.35,9.85l-5.26-2.08v63.32h7.69Z"/><polygon class="cls-1" points="352.68 2771.91 277.24 2771.91 277.24 2779.59 344.99 2779.59 344.99 2845.43 352.68 2845.43 352.68 2771.91"/><path class="cls-2" d="M186.7,201.5l39.59,35.23a1.45,1.45,0,0,0,1.8.11l59.33-40.78a1.46,1.46,0,0,0,.37-2l-10.25-14.91a1.45,1.45,0,0,0-2-.38l-13.61,9.35a1.46,1.46,0,0,1-2.24-.85,76.23,76.23,0,0,0-73.87-57.79c-35.56,0-65.5,24.52-74.35,58.07a1.45,1.45,0,0,1-2.22.84l-14-9.43a1.46,1.46,0,0,0-2,.4l-10.12,15a1.45,1.45,0,0,0,.39,2l59.91,40.46a1.46,1.46,0,0,0,1.79-.12l39.55-35.19A1.48,1.48,0,0,1,186.7,201.5ZM131,203.05a1.46,1.46,0,0,1-.65-1.35c2.8-28.88,26.57-51.24,55.46-51.24a55.15,55.15,0,0,1,55,51.31,1.48,1.48,0,0,1-.63,1.31l-10.35,7.11a1.46,1.46,0,0,1-1.8-.11L186.7,173.37a1.48,1.48,0,0,0-1.95,0l-41.32,36.76a1.45,1.45,0,0,1-1.79.12Z"/><path class="cls-1" d="M227.83,258.74l-41-36.47a1.65,1.65,0,0,0-2.22,0L143.55,258.8a1.66,1.66,0,0,1-2,.13L95.44,227.82a1.68,1.68,0,0,0-2.32.45l-9.9,14.65a1.68,1.68,0,0,0,.45,2.32l59.61,40.25a1.67,1.67,0,0,0,2-.13l39.29-35a1.68,1.68,0,0,1,2.22,0l39.34,35a1.66,1.66,0,0,0,2.05.12l59-40.57a1.66,1.66,0,0,0,.44-2.32l-10-14.57a1.67,1.67,0,0,0-2.32-.43l-45.45,31.24A1.67,1.67,0,0,1,227.83,258.74Z"/><path class="cls-1" d="M185.05,1439.79h0A33.23,33.23,0,0,1,218.28,1473v62.12a0,0,0,0,1,0,0H185.05a0,0,0,0,1,0,0v-95.35A0,0,0,0,1,185.05,1439.79Z" transform="translate(1689.12 1285.8) rotate(90)"/><path class="cls-2" d="M204.22,1364.61h0a0,0,0,0,1,0,0v127.24a0,0,0,0,1,0,0h0a37,37,0,0,1-37-37V1401.6A37,37,0,0,1,204.22,1364.61Z" transform="translate(1613.95 1242.51) rotate(90)"/><path class="cls-2" d="M249.34,1558.93h0a37,37,0,0,1-37,37H159.09a37,37,0,0,1-37-37H249.34Z"/><rect class="cls-2" x="122.1" y="1470.85" width="32.61" height="66.45" transform="translate(276.81 3008.14) rotate(-180)"/><path class="cls-2" d="M413.73,1079.4s-10-1.39-58.7-1.39-80.12,12.34-94.09,19.33c0-24.69-.93-27.88-3.49-27.95-3.61-.11-8.78,0-9.79,4.19-7,25.23-22.61,27.12-22.61,27.12s-5.2.21-5.2-10.82c0-11.21,4-19.1,8.48-19.1,2.56,0,6.19,5.15,7,6.29a2.41,2.41,0,0,0,3.16,1,1.5,1.5,0,0,0,1-1.91s-2.09-10.71-14.44-10.71a16.46,16.46,0,0,0-15.84,10.48s.76.19-16.7,14.4-24.42,14.44-27.55,14c-.93-2.09-2.1-10.94-2.1-18.63s-2.1-14.9-9.78-14.9-13,.23-27.95,21.42c-.7-3.72,1.4-14.76,1.4-14.76s17.93-25.53,17.93-55.81c0,0,.7-17.94-16.07-17.94-20.27,0-18.4,77.8-18.4,77.8s-22.12,10.71-68.48,10.71S-41.62,1075-41.62,1075s-1.8-1.48-1.8.48c0,2.56,46.29,20,84.25,20a245.65,245.65,0,0,0,69-10c-.7,1.39-.93,14.44-.93,20s11,4.07,12.57,3.62c1.35-.38,3.06-1.91,3.5-5.25,1.2-9.24,16.07-26.09,19.33-26.09s.93,19.1.93,22.13c0,10.55,1.61,13.37,11.16,13.37,24,0,44.31-26.27,50.84-31.16-2.8,2.8-1.52,24,11.4,24,20.64,0,25.82-17.83,28.62-22-.51,2.26-1.17,12-1.17,21.13-13.11,9-22.36,32.44-22.36,42.46s2.8,14.44,10.25,14.44,17.16-1.67,22.83-17.71c2.39-6.76,4.58-35.55,4.42-44.25,36.18-17.08,69.29-19.92,93.67-19.92,48.44,0,52.5.77,54.59.77s4.9.73,4.9-.67C414.33,1079.32,413.73,1079.4,413.73,1079.4Zm-286-48.45c1-9.26,2.69-21,6.06-21,2,0,7.33.84,7.33,12.25s-5.12,39-14.55,49.38C126.55,1071.6,126.73,1040.4,127.71,1031Zm105.05,126c-5.13,0-4.43-9.78-4.43-10.83,0-16.88,17.35-36.79,17.35-36.79C245.8,1153.13,237.88,1157,232.76,1157Z"/><path class="cls-1" d="M115.44,1134.34H112.5v-11H119v2.39h-3.58v2.11h3.3v2.39h-3.3Z"/><path class="cls-1" d="M127,1134.34v-11h3v8.62h4.24v2.4Z"/><path class="cls-1" d="M151.55,1128.82a6,6,0,0,1-1.36,4.23,6.2,6.2,0,0,1-8,0,7.16,7.16,0,0,1,0-8.44,5.27,5.27,0,0,1,4-1.45,5.22,5.22,0,0,1,4,1.44A5.93,5.93,0,0,1,151.55,1128.82Zm-7.59,0c0,2.13.74,3.2,2.23,3.2a1.92,1.92,0,0,0,1.68-.78,5.69,5.69,0,0,0,0-4.86,1.88,1.88,0,0,0-1.65-.79C144.72,1125.59,144,1126.67,144,1128.82Z"/><path class="cls-1" d="M161.76,1130.33v4h-3v-11h3.61c3,0,4.49,1.09,4.49,3.26a3.25,3.25,0,0,1-1.86,3l3.2,4.8h-3.37l-2.34-4Zm0-2.23h.56c1.05,0,1.56-.47,1.56-1.38q0-1.14-1.53-1.14h-.59Z"/><path class="cls-1" d="M182.17,1134.34l-.54-2.06h-3.58l-.56,2.06h-3.27l3.6-11.06h4l3.64,11.06Zm-1.16-4.5-.47-1.81c-.11-.4-.25-.93-.4-1.56s-.26-1.1-.32-1.38c0,.26-.13.68-.26,1.27s-.44,1.75-.89,3.48Z"/><path class="cls-1" d="M192.79,1134.34v-11h3v8.62H200v2.4Z"/><path class="cls-1" d="M215.17,1131a3.31,3.31,0,0,1-.52,1.82,3.41,3.41,0,0,1-1.5,1.23,5.46,5.46,0,0,1-2.3.45,9.49,9.49,0,0,1-1.85-.16,6.38,6.38,0,0,1-1.55-.54v-2.65a8.63,8.63,0,0,0,1.77.68,6.74,6.74,0,0,0,1.69.24,1.68,1.68,0,0,0,1-.22.75.75,0,0,0,.31-.6.59.59,0,0,0-.13-.39,1.35,1.35,0,0,0-.39-.34,15.08,15.08,0,0,0-1.47-.71,7.43,7.43,0,0,1-1.62-1,2.86,2.86,0,0,1-.79-1.06,3.38,3.38,0,0,1-.27-1.41,2.82,2.82,0,0,1,1.11-2.37,4.89,4.89,0,0,1,3.05-.85,8.52,8.52,0,0,1,3.49.79l-.91,2.29a6.62,6.62,0,0,0-2.68-.7,1.37,1.37,0,0,0-.84.2.64.64,0,0,0-.26.5.74.74,0,0,0,.33.59,13.2,13.2,0,0,0,1.82.93,5,5,0,0,1,2,1.38A3,3,0,0,1,215.17,1131Z"/><path class="cls-2" d="M300.5,2365.08c-5.25,6.06-23.62,18.93-23.62,32.87,0,10.84,10.57,20.54,23.62,20.54s23.63-9.19,23.63-20.54C324.13,2385.79,305.38,2371.55,300.5,2365.08Zm0,35.41c-2.68,0-4.85-2-4.85-4.22,0-2.86,3.74-5.82,4.82-7.06h0c1,1.33,4.87,4.56,4.87,7.06C305.36,2398.6,303.18,2400.49,300.5,2400.49Z"/><path class="cls-1" d="M41.1,2443.09a1,1,0,0,1,.3.73.94.94,0,0,1-.3.71,1,1,0,0,1-.73.29h-8a1.37,1.37,0,0,1-1-.41,1.38,1.38,0,0,1-.41-1V2430.1a1.05,1.05,0,0,1,.29-.73,1,1,0,0,1,.72-.3,1,1,0,0,1,.72.3,1,1,0,0,1,.31.73v12.69h7.33A1,1,0,0,1,41.1,2443.09Z"/><path class="cls-1" d="M58,2443.2a.92.92,0,0,1,.29.68.89.89,0,0,1-.29.68.92.92,0,0,1-.68.26h-9a1,1,0,0,1-1-1v-13.61a1,1,0,0,1,.29-.73.94.94,0,0,1,.71-.3h9a.9.9,0,0,1,.68.28.92.92,0,0,1,.29.68.91.91,0,0,1-.29.68.93.93,0,0,1-.68.27h-8V2436h7.16a.93.93,0,0,1,.68.28,1,1,0,0,1,.28.68.94.94,0,0,1-.28.68,1,1,0,0,1-.68.27H49.31v5h8A.9.9,0,0,1,58,2443.2Z"/><path class="cls-1" d="M77.71,2443.48,72,2430a1.35,1.35,0,0,0-1.3-.92h-.23a1.34,1.34,0,0,0-1.3.92l-5.71,13.49a1.38,1.38,0,0,0-.11.57.86.86,0,0,0,.27.6,1.1,1.1,0,0,0,.85.29.9.9,0,0,0,.85-.63l1.45-3.5H74.4l1.45,3.5a.9.9,0,0,0,.86.63,1.15,1.15,0,0,0,.85-.29.94.94,0,0,0,.26-.6A1.56,1.56,0,0,0,77.71,2443.48ZM67.56,2439l3-7.29,3,7.29Z"/><path class="cls-1" d="M95.84,2443.3a1.09,1.09,0,0,1,.25.7.9.9,0,0,1-.28.66,1,1,0,0,1-.75.28.9.9,0,0,1-.76-.41l-5.78-7.37L86,2439.74v4.19a1,1,0,0,1-.3.72,1,1,0,0,1-.73.29,1,1,0,0,1-1-1V2430.1a1.05,1.05,0,0,1,.29-.73,1,1,0,0,1,.72-.3,1,1,0,0,1,.73.3,1,1,0,0,1,.3.73v7.13l7.67-7.8a.88.88,0,0,1,.72-.36.94.94,0,0,1,.71.26.87.87,0,0,1,.27.67.86.86,0,0,1-.25.66l-5.18,5.16Z"/><path class="cls-1" d="M124.43,2434.19a7,7,0,0,0-1.47-2.5,7.55,7.55,0,0,0-6-2.51h-4.5a1,1,0,0,0-.72.3,1.05,1.05,0,0,0-.29.73v13.61a1,1,0,0,0,.29.71.94.94,0,0,0,.72.29H117a7.54,7.54,0,0,0,6-2.5,7.12,7.12,0,0,0,1.47-2.5,8.33,8.33,0,0,0,0-5.63Zm-3.19,7.09a6.17,6.17,0,0,1-4.48,1.64h-3.23v-11.83h3.23a6.2,6.2,0,0,1,4.48,1.63,6.35,6.35,0,0,1,0,8.56Z"/><path class="cls-1" d="M142.34,2443.2a.92.92,0,0,1,.29.68.89.89,0,0,1-.29.68.92.92,0,0,1-.68.26h-9a1,1,0,0,1-1-1v-13.61a1,1,0,0,1,.3-.73.94.94,0,0,1,.71-.3h9a.9.9,0,0,1,.68.28.92.92,0,0,1,.29.68.91.91,0,0,1-.29.68.93.93,0,0,1-.68.27h-8V2436h7.15a.94.94,0,0,1,.69.28,1,1,0,0,1,.27.68.93.93,0,0,1-.27.68,1,1,0,0,1-.69.27H133.7v5h8A.9.9,0,0,1,142.34,2443.2Z"/><path class="cls-1" d="M160.25,2429.46a.91.91,0,0,1,.28.68.9.9,0,0,1-.28.68.93.93,0,0,1-.68.27H155v12.84a1,1,0,0,1-.3.72,1.06,1.06,0,0,1-.74.29,1,1,0,0,1-.71-.29,1,1,0,0,1-.29-.72v-12.84h-4.57a.93.93,0,0,1-.68-.27,1,1,0,0,1-.26-.68,1,1,0,0,1,.26-.68.9.9,0,0,1,.68-.28h11.16A.9.9,0,0,1,160.25,2429.46Z"/><path class="cls-1" d="M177.07,2443.2a.94.94,0,0,1,.27.68.91.91,0,0,1-.27.68,1,1,0,0,1-.69.26h-9a1,1,0,0,1-1-1v-13.61a1,1,0,0,1,.28-.73,1,1,0,0,1,.72-.3h9a1,1,0,0,1,.69,1.64,1,1,0,0,1-.69.27h-7.95V2436h7.14a.94.94,0,0,1,.69.28,1,1,0,0,1,.28.68.94.94,0,0,1-.28.68,1,1,0,0,1-.69.27h-7.14v5h7.95A.94.94,0,0,1,177.07,2443.2Z"/><path class="cls-1" d="M195.12,2442.05a1.12,1.12,0,0,1,.5-.09.73.73,0,0,1,.57.26.88.88,0,0,1,.23.59.87.87,0,0,1-.49.85,13.92,13.92,0,0,1-2.26,1,9,9,0,0,1-2.87.4,8.49,8.49,0,0,1-3.1-.55,7.15,7.15,0,0,1-2.49-1.6,8.88,8.88,0,0,1,0-11.79,7.61,7.61,0,0,1,5.61-2.15,9,9,0,0,1,2.85.4,12.61,12.61,0,0,1,1.84.75,2.44,2.44,0,0,1,.78.56,1.08,1.08,0,0,1,.13.54.85.85,0,0,1-.23.58.76.76,0,0,1-.57.26,1.12,1.12,0,0,1-.5-.09,10.82,10.82,0,0,0-1.84-.76,8.1,8.1,0,0,0-2.34-.29,6.46,6.46,0,0,0-2.54.47,5.19,5.19,0,0,0-1.89,1.3,7,7,0,0,0,0,8.65,5.83,5.83,0,0,0,4.51,1.77,7.81,7.81,0,0,0,2.26-.29A11.7,11.7,0,0,0,195.12,2442.05Z"/><path class="cls-1" d="M213.82,2429.46a.91.91,0,0,1,.28.68.9.9,0,0,1-.28.68.93.93,0,0,1-.68.27h-4.55v12.84a1,1,0,0,1-.3.72,1,1,0,0,1-.73.29,1,1,0,0,1-1-1v-12.84H202a.9.9,0,0,1-.67-.27.93.93,0,0,1-.27-.68.94.94,0,0,1,.27-.68.88.88,0,0,1,.67-.28h11.16A.9.9,0,0,1,213.82,2429.46Z"/><path class="cls-1" d="M221,2429.07a1,1,0,0,1,.73.3,1,1,0,0,1,.3.73v13.83a1,1,0,0,1-.3.72,1,1,0,0,1-1.74-.72V2430.1a1.05,1.05,0,0,1,.29-.73A1,1,0,0,1,221,2429.07Z"/><path class="cls-1" d="M242.32,2431.22a8.29,8.29,0,0,0-11.38,0,8.77,8.77,0,0,0,0,11.57,8.29,8.29,0,0,0,11.38,0,8.77,8.77,0,0,0,0-11.57Zm-1.38,10.15a6.1,6.1,0,0,1-8.61,0,7,7,0,0,1,0-8.74,6.12,6.12,0,0,1,8.61,0,7,7,0,0,1,0,8.74Z"/><path class="cls-1" d="M263.86,2429.07a1,1,0,0,1,1,1v13.38a1.39,1.39,0,0,1-.44,1,1.44,1.44,0,0,1-1,.43h-.27a1.39,1.39,0,0,1-1.19-.61l-8.68-12.53v12.13a1,1,0,0,1-.3.72,1.05,1.05,0,0,1-1.45,0,1,1,0,0,1-.28-.72v-13.38a1.47,1.47,0,0,1,.42-1.05,1.38,1.38,0,0,1,1-.43H253a1.58,1.58,0,0,1,1.24.67l8.62,12.46v-12.1a1,1,0,0,1,.3-.73A.94.94,0,0,1,263.86,2429.07Z"/><path class="cls-1" d="M282.8,2429.07a1,1,0,0,1,.73.3,1,1,0,0,1,.3.73v13.83a1,1,0,0,1-.3.72,1,1,0,0,1-1.74-.72V2430.1a1.05,1.05,0,0,1,.29-.73A1,1,0,0,1,282.8,2429.07Z"/><path class="cls-1" d="M304.16,2429.07a1,1,0,0,1,.73.3,1,1,0,0,1,.3.73v13.38a1.38,1.38,0,0,1-.43,1,1.42,1.42,0,0,1-1,.43h-.27a1.38,1.38,0,0,1-1.19-.61l-8.68-12.53v12.13a1,1,0,0,1-.3.72,1,1,0,0,1-.72.29,1,1,0,0,1-1-1v-13.38a1.48,1.48,0,0,1,.43-1.05,1.4,1.4,0,0,1,1-.43h.29a1.53,1.53,0,0,1,1.23.67l8.64,12.46v-12.1a1,1,0,0,1,.29-.73A.94.94,0,0,1,304.16,2429.07Z"/><path class="cls-1" d="M324.14,2442.05a1.12,1.12,0,0,1,.5-.09.72.72,0,0,1,.56.26.88.88,0,0,1,.23.59.87.87,0,0,1-.49.85,13.44,13.44,0,0,1-2.25,1,9,9,0,0,1-2.87.4,8.59,8.59,0,0,1-3.11-.55,7.11,7.11,0,0,1-2.48-1.6,8.88,8.88,0,0,1,0-11.79,7.59,7.59,0,0,1,5.6-2.15,9,9,0,0,1,2.86.4,12.61,12.61,0,0,1,1.84.75,2.36,2.36,0,0,1,.77.56,1,1,0,0,1,.13.54.85.85,0,0,1-.23.58.76.76,0,0,1-.56.26,1.12,1.12,0,0,1-.5-.09,11.16,11.16,0,0,0-1.84-.76,8.2,8.2,0,0,0-2.34-.29,6.43,6.43,0,0,0-2.54.47,5.19,5.19,0,0,0-1.89,1.3,7,7,0,0,0,0,8.65,5.82,5.82,0,0,0,4.5,1.77,7.93,7.93,0,0,0,2.27-.29A12.11,12.11,0,0,0,324.14,2442.05Z"/><path class="cls-1" d="M333.65,2442.62a1.18,1.18,0,0,1,.37.88v.14a1.18,1.18,0,0,1-.37.88,1.2,1.2,0,0,1-.89.37h-.22a1.22,1.22,0,0,1-.89-.37,1.18,1.18,0,0,1-.37-.88v-.14a1.18,1.18,0,0,1,.37-.88,1.22,1.22,0,0,1,.89-.37h.22A1.2,1.2,0,0,1,333.65,2442.62Z"/><path class="cls-2" d="M13.32,2418.52a34.52,34.52,0,0,1-6-.53,32.83,32.83,0,0,1-5.72-1.57A34.6,34.6,0,0,1-3.62,2414,25.37,25.37,0,0,1-8,2410.91l10.36-11.26a16.61,16.61,0,0,0,4.75,3.43,13.42,13.42,0,0,0,6.12,1.5,6.45,6.45,0,0,0,2.6-.5,1.84,1.84,0,0,0,1.18-1.86,1.94,1.94,0,0,0-.39-1.22,4.67,4.67,0,0,0-1.4-1,23.53,23.53,0,0,0-2.74-1.18c-1.18-.43-2.64-.93-4.4-1.5a37.13,37.13,0,0,1-4.94-2,17.54,17.54,0,0,1-4.17-2.9,12.79,12.79,0,0,1-2.9-4.12A14,14,0,0,1-5,2382.46a15.59,15.59,0,0,1,1.93-8,16.87,16.87,0,0,1,5-5.41,20.26,20.26,0,0,1,6.82-3,31.45,31.45,0,0,1,7.51-.93A29,29,0,0,1,26.43,2367a27.2,27.2,0,0,1,9.11,5.57L25,2383.35a11.21,11.21,0,0,0-4.22-3.25,11.26,11.26,0,0,0-4.5-1.1,7.07,7.07,0,0,0-3,.53,1.81,1.81,0,0,0-1.15,1.75,1.85,1.85,0,0,0,1.18,1.72,33.14,33.14,0,0,0,3.82,1.43c1.82.57,3.72,1.24,5.72,2a24.32,24.32,0,0,1,5.54,3,15.62,15.62,0,0,1,4.18,4.47,12.21,12.21,0,0,1,1.65,6.58,16.5,16.5,0,0,1-1.83,8,17.14,17.14,0,0,1-4.78,5.65,20.89,20.89,0,0,1-6.68,3.36A26.44,26.44,0,0,1,13.32,2418.52Z"/><path class="cls-2" d="M67.13,2418.52a29.66,29.66,0,0,1-10.33-1.64,20.67,20.67,0,0,1-7.32-4.51,17.75,17.75,0,0,1-4.36-6.75,24.29,24.29,0,0,1-1.43-8.4v-30.73h17v28.87a8.41,8.41,0,0,0,1.75,5.68,6.19,6.19,0,0,0,5,2,6.17,6.17,0,0,0,5-2,8.36,8.36,0,0,0,1.76-5.68v-28.87H91.08v30.73a22.8,22.8,0,0,1-1.54,8.4,18.67,18.67,0,0,1-4.54,6.75,21.35,21.35,0,0,1-7.47,4.51A30.19,30.19,0,0,1,67.13,2418.52Z"/><path class="cls-2" d="M141.18,2375.32a14.78,14.78,0,0,0-4.72-5.22,19.38,19.38,0,0,0-6.65-2.79,34.92,34.92,0,0,0-7.58-.82H100.51v50.6h16.94V2400.8h4.78a31.88,31.88,0,0,0,7.69-.94,19,19,0,0,0,6.65-3,15.47,15.47,0,0,0,4.64-5.36,19.42,19.42,0,0,0,0-16.18Zm-16.62,11.57a6.71,6.71,0,0,1-3.54,1h-3.57v-8.15H121a9.77,9.77,0,0,1,1.86.18,5.43,5.43,0,0,1,1.68.61,3.15,3.15,0,0,1,1.18,1.17,4,4,0,0,1,.43,2A3.48,3.48,0,0,1,124.56,2386.89Z"/><polygon class="cls-2" points="150.11 2366.49 184.91 2366.49 184.91 2380.64 166.12 2380.64 166.12 2385 183.77 2385 183.77 2398.22 166.12 2398.22 166.12 2402.94 186.13 2402.94 186.13 2417.09 150.11 2417.09 150.11 2366.49"/><path class="cls-2" d="M230.18,2396.58a14.36,14.36,0,0,0,8.84-13.66,16.08,16.08,0,0,0-1.79-8,14.34,14.34,0,0,0-4.69-5.08,18.59,18.59,0,0,0-6.57-2.64,36.94,36.94,0,0,0-7.4-.75H196.78v50.6h16.5V2399h.51l9.69,18.08H243Zm-8.42-10.76a4.16,4.16,0,0,1-1.49,1.28,5.48,5.48,0,0,1-1.91.61,13.25,13.25,0,0,1-1.88.15h-3.34v-8.15h4a15.11,15.11,0,0,1,1.71.11,5.08,5.08,0,0,1,1.7.5,3.21,3.21,0,0,1,1.28,1.18,4,4,0,0,1,.49,2.14A3.61,3.61,0,0,1,221.76,2385.82Z"/><path class="cls-2" d="M366.05,2396.58a14.32,14.32,0,0,0,8.84-13.66,16.08,16.08,0,0,0-1.79-8,14.4,14.4,0,0,0-4.68-5.08,18.75,18.75,0,0,0-6.57-2.64,37,37,0,0,0-7.41-.75H332.65v50.6h16.51V2399h.5l9.69,18.08h19.54Zm-8.42-10.76a4.16,4.16,0,0,1-1.49,1.28,5.48,5.48,0,0,1-1.91.61,13.14,13.14,0,0,1-1.88.15H349v-8.15h4a15.09,15.09,0,0,1,1.7.11,5.08,5.08,0,0,1,1.7.5,3.15,3.15,0,0,1,1.28,1.18,4,4,0,0,1,.49,2.14A3.54,3.54,0,0,1,357.63,2385.82Z"/><rect class="cls-2" x="251.38" y="2366.49" width="17.15" height="50.6"/><path class="cls-2" d="M103.82,1956.78c0-21.42,14.28-37.79,36.22-37.79,8.36,0,14.63,2.61,18.63,6.27v-33.09c0-9.75-4.53-12-13.93-12v-1.05l33.78-3.48v103.26c0,8.71,2.79,12,12.19,12v1H159V1982c-5.05,6.27-12.71,11.84-23.68,11.84C116,1993.87,103.82,1976.63,103.82,1956.78Zm54.85,23.68v-47.19c-1.22-6.62-6.62-12.71-14.63-12.71-13.06,0-19.15,18.81-19.15,35.17,0,17.24,5.75,32.74,19.33,32.74C150.66,1988.47,155.36,1984.82,158.67,1980.46Z"/><path class="cls-1" d="M192.54,1957a46.63,46.63,0,0,1,.5-6.83h-9.67v10.07h9.29C192.59,1959.12,192.54,1958,192.54,1957Z"/><path class="cls-1" d="M153.82,1950.12H130c-.17,1.86-.25,3.74-.25,5.61,0,1.49,0,3,.14,4.46h23.94Z"/><path class="cls-1" d="M75.47,1956.79l2.65-1.61-2.63-1.64c-14.64-9.13-25.49-19.54-32.24-31a1.93,1.93,0,0,0-1.65-.94H30.17l1.9,2.95a114.88,114.88,0,0,0,28.58,30.55c-10.73,7.69-20.06,17.71-28.45,30.56l-1.92,3H41.6a1.92,1.92,0,0,0,1.62-.89A98.83,98.83,0,0,1,75.47,1956.79Z"/><path class="cls-1" d="M99,1956.78a51.75,51.75,0,0,1,.43-6.66H94.78a.53.53,0,0,1-.3-.09c-12-8.26-21-17.47-26.9-27.44a1.91,1.91,0,0,0-1.64-.94H55.47a.52.52,0,0,0-.44.81l1.37,2.14a115.22,115.22,0,0,0,28,30.13.5.5,0,0,1,0,.83c-10.48,7.63-19.63,17.53-27.87,30.15l-1.4,2.14a.53.53,0,0,0,.44.82H65.94a1.92,1.92,0,0,0,1.61-.89,96.94,96.94,0,0,1,26.88-27.49.51.51,0,0,1,.3-.1h4.36C99,1959.07,99,1957.93,99,1956.78Z"/><path class="cls-1" d="M339.84,1953.54c-14.64-9.13-25.49-19.54-32.25-31a1.91,1.91,0,0,0-1.64-.94H296a.78.78,0,0,0-.65,1.21l1.12,1.74a114.94,114.94,0,0,0,27.73,29.92.77.77,0,0,1,0,1.25c-10.36,7.6-19.42,17.43-27.59,29.94l-1.14,1.74a.79.79,0,0,0,.66,1.22H306a1.92,1.92,0,0,0,1.61-.89,99,99,0,0,1,32.26-31A1.9,1.9,0,0,0,339.84,1953.54Z"/><path class="cls-1" d="M316.39,1956.79h0a1.91,1.91,0,0,0,0-3.25c-14.63-9.13-25.48-19.54-32.24-31a1.91,1.91,0,0,0-1.64-.94H272.05a.53.53,0,0,0-.44.81l1.38,2.14a117.79,117.79,0,0,0,21.14,24.6.52.52,0,0,1-.34.92H268.55a15.34,15.34,0,0,1-13.35,7.5,15.6,15.6,0,0,1-13.45-7.5H223.31c-.12,1.65-.17,3.3-.17,4.92,0,1.45,0,3.22.19,5.15h70.39a.53.53,0,0,1,.34.93,118.16,118.16,0,0,0-20.94,24.59l-1.39,2.14a.53.53,0,0,0,.44.82h10.35a1.92,1.92,0,0,0,1.61-.89C291.8,1975.67,303,1965,316.39,1956.79Z"/><path class="cls-2" d="M197.39,1957c0-23.68,18.63-38,39.18-38,18.46,0,29.6,11.32,29.6,21.94,0,7-4.7,11.84-11,11.84a11.14,11.14,0,0,1-1.74-22.11c-1.91-5.05-6.44-10.45-14.63-10.45-14.62,0-20.54,17.41-20.54,34.83,0,22.11,8.7,35.17,23.5,35.17,11.32,0,19.86-7.66,24.56-16.37l1,.53c-4.87,8.88-14.8,19.5-33.26,19.5C210.8,1993.87,197.39,1977,197.39,1957Z"/><path d="M9,60.19v-1.8l4.23-3.93,3.13-2.89a12.12,12.12,0,0,0,2.1-2.42,4.61,4.61,0,0,0,.76-2.58,3.43,3.43,0,0,0-.56-2,3.77,3.77,0,0,0-1.44-1.25,4.16,4.16,0,0,0-1.82-.43,4.22,4.22,0,0,0-2,.42,3.33,3.33,0,0,0-1.2,1,4.31,4.31,0,0,0-.6,1.22A5.93,5.93,0,0,0,11.32,47H8.86a10.91,10.91,0,0,1,.22-1.68,7.58,7.58,0,0,1,.57-1.55,5.74,5.74,0,0,1,1.11-1.56,5.49,5.49,0,0,1,1.85-1.2,7.2,7.2,0,0,1,2.79-.47,7.2,7.2,0,0,1,3.13.69,5.84,5.84,0,0,1,2.34,2,5.67,5.67,0,0,1,.88,3.23,6,6,0,0,1-.87,3.18,14.19,14.19,0,0,1-2.32,2.79c-.95.9-2,1.88-3.13,2.93l-2.67,2.45h9.41v2.33Z"/><path d="M27.61,60.45a1.6,1.6,0,0,1-1.21-.51,1.7,1.7,0,0,1,2.43-2.39,1.66,1.66,0,0,1,.48,1.2A1.68,1.68,0,0,1,28.83,60,1.63,1.63,0,0,1,27.61,60.45Z"/><line class="cls-3" x1="4.75" y1="14.16" x2="366.69" y2="13.64"/><path d="M15.35,494.36a8,8,0,0,1-2.81-.43,5.72,5.72,0,0,1-3.09-2.55,6.32,6.32,0,0,1-.63-1.44,9.78,9.78,0,0,1-.3-1.54h2.41a6.08,6.08,0,0,0,.32,1.32,4.09,4.09,0,0,0,.7,1.13,3.72,3.72,0,0,0,1.29.94,5.11,5.11,0,0,0,2.11.38,4.44,4.44,0,0,0,2.51-.66,4.12,4.12,0,0,0,1.49-1.67,4.88,4.88,0,0,0,.5-2.15,5.2,5.2,0,0,0-.5-2.21,4.11,4.11,0,0,0-3.9-2.39,4.2,4.2,0,0,0-1.88.37,3.84,3.84,0,0,0-1.19.83,5.52,5.52,0,0,0-.8,1.21H9.07l1.52-10.75H21V477H12.5l-.79,5.55h.08a6.56,6.56,0,0,1,.8-.72,4.55,4.55,0,0,1,1.27-.66,6.05,6.05,0,0,1,2-.27,6.07,6.07,0,0,1,5.76,3.49,7.26,7.26,0,0,1,.75,3.23,7.16,7.16,0,0,1-.43,2.46,6.46,6.46,0,0,1-1.3,2.16,6.33,6.33,0,0,1-2.17,1.53A7.66,7.66,0,0,1,15.35,494.36Z"/><path d="M27.85,494.36a1.62,1.62,0,0,1-1.22-.51,1.73,1.73,0,0,1,0-2.39,1.65,1.65,0,0,1,1.22-.5,1.69,1.69,0,0,1,1.7,1.7,1.65,1.65,0,0,1-.49,1.21A1.61,1.61,0,0,1,27.85,494.36Z"/><line class="cls-3" x1="4.75" y1="448.07" x2="366.69" y2="447.55"/><path d="M15.14,928.27a8,8,0,0,1-3.55-.74,5.87,5.87,0,0,1-2.34-2,5.12,5.12,0,0,1-.83-2.86,5,5,0,0,1,.49-2.34,5,5,0,0,1,1.17-1.49,7.26,7.26,0,0,1,1.66-1v-.13a6.35,6.35,0,0,1-1.4-.87,4,4,0,0,1-1.4-3.19,4.81,4.81,0,0,1,.76-2.67,5.12,5.12,0,0,1,2.16-1.85,7.31,7.31,0,0,1,3.28-.68,7.34,7.34,0,0,1,3.28.68,5.24,5.24,0,0,1,2.16,1.85,4.9,4.9,0,0,1,.76,2.67,4.09,4.09,0,0,1-.42,1.94,4.22,4.22,0,0,1-1,1.25,6.59,6.59,0,0,1-1.4.87v.13a7.48,7.48,0,0,1,1.66,1,4.79,4.79,0,0,1,1.66,3.83,5.05,5.05,0,0,1-.84,2.86,5.87,5.87,0,0,1-2.34,2A8,8,0,0,1,15.14,928.27Zm0-2.06a4.71,4.71,0,0,0,2.36-.55,3.67,3.67,0,0,0,1.44-1.43,3.62,3.62,0,0,0,.49-1.81,3.44,3.44,0,0,0-.47-1.74,3.62,3.62,0,0,0-1.43-1.36,4.8,4.8,0,0,0-2.39-.54,4.78,4.78,0,0,0-2.39.54,3.55,3.55,0,0,0-1.43,1.36,3.44,3.44,0,0,0-.47,1.74,3.73,3.73,0,0,0,1.92,3.24A4.77,4.77,0,0,0,15.14,926.21Zm0-9.42a4.25,4.25,0,0,0,2.09-.47,3.18,3.18,0,0,0,1.26-1.2,3.07,3.07,0,0,0,.41-1.49,3.18,3.18,0,0,0-.41-1.55,3.22,3.22,0,0,0-1.26-1.19,4.37,4.37,0,0,0-2.09-.45,4.41,4.41,0,0,0-2.08.45,3.19,3.19,0,0,0-1.27,1.19,3.09,3.09,0,0,0-.42,1.55,3,3,0,0,0,.42,1.49,3.14,3.14,0,0,0,1.27,1.2A4.29,4.29,0,0,0,15.14,916.79Z"/><path d="M27.17,928.27a1.62,1.62,0,0,1-1.22-.51,1.73,1.73,0,0,1,0-2.39,1.65,1.65,0,0,1,1.22-.5,1.69,1.69,0,0,1,1.7,1.7,1.65,1.65,0,0,1-.49,1.21A1.61,1.61,0,0,1,27.17,928.27Z"/><line class="cls-3" x1="4.75" y1="881.98" x2="366.69" y2="881.46"/><path d="M14,1342.57v19.35H11.53v-15l-3.64,0v-1.47l.66-.21a9.87,9.87,0,0,0,2.23-1,6,6,0,0,0,1.59-1.43l.23-.29Z"/><path d="M24.11,1342.57v19.35H21.6v-15l-3.64,0v-1.47l.66-.21a9.87,9.87,0,0,0,2.23-1,6,6,0,0,0,1.59-1.43l.23-.29Z"/><path d="M30.73,1362.18a1.61,1.61,0,0,1-1.22-.51,1.73,1.73,0,0,1,0-2.39,1.73,1.73,0,0,1,2.43,0,1.67,1.67,0,0,1,.49,1.2,1.69,1.69,0,0,1-.49,1.21A1.62,1.62,0,0,1,30.73,1362.18Z"/><line class="cls-3" x1="4.75" y1="1315.89" x2="366.69" y2="1315.37"/><path d="M14,1776.48v19.35H11.53v-15l-3.64,0v-1.47l.66-.21a10.38,10.38,0,0,0,2.23-1,6.26,6.26,0,0,0,1.59-1.44l.23-.29Z"/><path d="M27.82,1795.83v-4.5l-9.46,0V1789l8.89-12.5h3.14v12.63h3.37v2.22H30.39v4.5ZM21,1789.11h6.82v-9.62Z"/><path d="M39.23,1796.09a1.61,1.61,0,0,1-1.22-.51,1.73,1.73,0,0,1,0-2.39,1.73,1.73,0,0,1,2.43,0,1.73,1.73,0,0,1,0,2.41A1.62,1.62,0,0,1,39.23,1796.09Z"/><line class="cls-3" x1="4.75" y1="1749.8" x2="366.69" y2="1749.28"/><path d="M14,2210.39v19.35H11.53v-15l-3.64,0v-1.47l.66-.21a10.38,10.38,0,0,0,2.23-1,6.26,6.26,0,0,0,1.59-1.44l.23-.29Z"/><path d="M21.65,2229.74a22.22,22.22,0,0,1,.65-4.77,27.85,27.85,0,0,1,1.44-4.22,33.46,33.46,0,0,1,1.81-3.55c.63-1,1.22-2,1.79-2.73s1-1.37,1.4-1.8H18.36v-2.28H31.67v1.91c-.7.78-1.32,1.54-1.87,2.27a30.59,30.59,0,0,0-3.53,6.16,27,27,0,0,0-1.43,4.21,23.64,23.64,0,0,0-.68,4.8Z"/><path d="M36.19,2230a1.61,1.61,0,0,1-1.21-.5,1.68,1.68,0,0,1-.49-1.2,1.69,1.69,0,0,1,1.7-1.7,1.7,1.7,0,1,1,0,3.4Z"/><line class="cls-3" x1="4.75" y1="2183.71" x2="366.69" y2="2183.19"/><path d="M9,2663.65v-1.8l4.23-3.93,3.13-2.88a12.69,12.69,0,0,0,2.1-2.42,4.67,4.67,0,0,0,.76-2.59,3.43,3.43,0,0,0-.56-2,3.67,3.67,0,0,0-1.44-1.24,4,4,0,0,0-1.82-.43,4.23,4.23,0,0,0-2,.41,3.33,3.33,0,0,0-1.2,1,4.36,4.36,0,0,0-.6,1.23,5.84,5.84,0,0,0-.24,1.45H8.86a10.91,10.91,0,0,1,.22-1.68,7.58,7.58,0,0,1,.57-1.55,5.74,5.74,0,0,1,1.11-1.56,5.49,5.49,0,0,1,1.85-1.2,7.2,7.2,0,0,1,2.79-.47,7.2,7.2,0,0,1,3.13.69,5.84,5.84,0,0,1,2.34,2,5.7,5.7,0,0,1,.88,3.23,6,6,0,0,1-.87,3.18,14.19,14.19,0,0,1-2.32,2.79c-.95.9-2,1.88-3.13,2.93l-2.67,2.45h9.41v2.33Z"/><path d="M32.71,2663.89a6.32,6.32,0,0,1-3.19-.8,7,7,0,0,1-2.31-2.17,10.73,10.73,0,0,1-1.42-3.18,15.28,15.28,0,0,1,0-7.6,10.79,10.79,0,0,1,1.42-3.17,6.73,6.73,0,0,1,2.31-2.17,6.84,6.84,0,0,1,6.38,0,6.68,6.68,0,0,1,2.32,2.17,10.52,10.52,0,0,1,1.41,3.17,15.28,15.28,0,0,1,0,7.6,10.47,10.47,0,0,1-1.41,3.18,7,7,0,0,1-2.32,2.17A6.27,6.27,0,0,1,32.71,2663.89Zm0-2.36a4,4,0,0,0,3.42-1.92,12.6,12.6,0,0,0,0-11.31,4,4,0,0,0-6.83,0,12.5,12.5,0,0,0,0,11.3A4,4,0,0,0,32.71,2661.53Z"/><path d="M45.29,2663.91a1.59,1.59,0,0,1-1.21-.51,1.7,1.7,0,0,1,0-2.39,1.61,1.61,0,0,1,1.21-.5,1.64,1.64,0,0,1,1.22.5,1.66,1.66,0,0,1,.48,1.2,1.68,1.68,0,0,1-.48,1.21A1.63,1.63,0,0,1,45.29,2663.91Z"/><line class="cls-3" x1="4.75" y1="2617.62" x2="366.69" y2="2617.1"/></svg>