<svg id="Layer_1" data-name="Layer 1" xmlns="http://www.w3.org/2000/svg" xmlns:xlink="http://www.w3.org/1999/xlink" viewBox="0 0 1200 750"><defs><style>.cls-1,.cls-12{fill:none;}.cls-2{fill:#fff;}.cls-3{fill:#e8ebec;}.cls-4{fill:#363a42;}.cls-5{fill:#36b24a;}.cls-6{clip-path:url(#clip-path);}.cls-7{fill:#9fa6ac;}.cls-8{fill:#1c2128;}.cls-9{fill:#0f1317;}.cls-10{fill:#a0a7ac;}.cls-11{fill:#37b34a;}.cls-12{stroke:#a0a7ac;stroke-miterlimit:10;}</style><clipPath id="clip-path"><rect class="cls-1" x="150.05" y="198.45" width="611.52" height="390.24"/></clipPath></defs><rect class="cls-2" y="-0.5" width="1200" height="750"/><path class="cls-3" d="M206.66,414.61c31.12-29.64,67.91-54.12,108.18-67a237,237,0,0,1,61.11-11c10.24-.6,20.32,0,30.46.43a194.9,194.9,0,0,1,30.23,4c39.7,8.82,75.55,28.76,107.37,54.06-30.13-78.71-106.34-134.62-195.65-134.62-115.7,0-209.49,93.79-209.49,209.48a212.83,212.83,0,0,0,1.28,23C160,464.81,181.8,438.2,206.66,414.61Z"/><path class="cls-3" d="M522.06,425.13a141.58,141.58,0,0,0-39.34-36.32,129.18,129.18,0,0,0-50.18-17.89,156.22,156.22,0,0,0-53.38,1.36,158.94,158.94,0,0,0-49.24,18c-30.21,17.13-53.31,43.82-69,74.25s-24.68,64.64-28.28,99.39a355.47,355.47,0,0,0,2.56,89.71,208.39,208.39,0,0,0,113.15,33.23c105.34,0,192.5-77.78,207.25-179C551,477.73,540,449.06,522.06,425.13Z"/><path class="cls-4" d="M81.72,700.74H95.08v1.39H88.92v8.36h6.16v1.42H81.72v-1.42h6v-8.36h-6Z"/><path class="cls-4" d="M93.86,677.39h1.22v9.45H81.72v-9.17h1.22v7.76H87.7v-6.92h1.2v6.92h5Z"/><path class="cls-4" d="M81.72,664.52v-1.41H93.86v-7.49h1.22v8.9Z"/><path class="cls-4" d="M82.94,634.72a4.16,4.16,0,0,1,3.36-1.45,4.12,4.12,0,0,1,3.35,1.45,6.06,6.06,0,0,1,1.22,4v3.59h4.21v1.41H81.72v-5A6.06,6.06,0,0,1,82.94,634.72Zm5.81,1a3,3,0,0,0-2.45-1.05,3.05,3.05,0,0,0-2.49,1.05,4.65,4.65,0,0,0-.87,3v3.55h6.68v-3.55A4.65,4.65,0,0,0,88.75,635.73Z"/><path class="cls-4" d="M81.72,620.67v-1.41H95.08v1.41Z"/><path class="cls-4" d="M81.72,594.19H95.08v1.16l-10.84,8.59H95.08v1.42H81.72v-1.17l10.84-8.61H81.72Z"/><path class="cls-4" d="M88.4,570.88v-1.36h5.1a6.46,6.46,0,0,1,1.26,2.22,8.29,8.29,0,0,1,.44,2.69,7.37,7.37,0,0,1-.88,3.61,6.47,6.47,0,0,1-2.43,2.52,7.13,7.13,0,0,1-7,0A6.5,6.5,0,0,1,82.48,578a7.49,7.49,0,0,1-.87-3.63,8,8,0,0,1,.48-2.81,5.66,5.66,0,0,1,1.44-2.15l.9.87a5.51,5.51,0,0,0-1.56,4,6,6,0,0,0,.71,2.93,5.23,5.23,0,0,0,2,2.05,5.71,5.71,0,0,0,5.66,0,5.25,5.25,0,0,0,2-2,6.33,6.33,0,0,0-.3-6.41Z"/><path class="cls-4" d="M89.33,531a3.24,3.24,0,0,1,2.18-.72,3.08,3.08,0,0,1,2.65,1.27,6.33,6.33,0,0,1,.92,3.75v6.15H81.72v-5.77a5.77,5.77,0,0,1,.9-3.46A3,3,0,0,1,85.16,531a3.07,3.07,0,0,1,3,2A3.49,3.49,0,0,1,89.33,531Zm-6.45,9h4.85v-4.26a4.24,4.24,0,0,0-.62-2.5,2,2,0,0,0-1.8-.88,2.08,2.08,0,0,0-1.81.88,4.31,4.31,0,0,0-.62,2.5Zm10.43-7.43a2.15,2.15,0,0,0-1.91-.92q-2.5,0-2.5,3.63V540h5v-4.72A4.88,4.88,0,0,0,93.31,532.6Z"/><path class="cls-4" d="M95.08,508.37l-4.29,3.06a9.2,9.2,0,0,1,.06,1.07v3.59h4.23v1.41H81.72v-5a6.06,6.06,0,0,1,1.22-4A4.16,4.16,0,0,1,86.3,507a4.34,4.34,0,0,1,2.65.79,4.39,4.39,0,0,1,1.55,2.26l4.58-3.26Zm-6.32,1.13a3,3,0,0,0-2.46-1.05,3.05,3.05,0,0,0-2.49,1.05,4.64,4.64,0,0,0-.87,3v3.56h6.7v-3.56A4.58,4.58,0,0,0,88.76,509.5Z"/><path class="cls-4" d="M94.31,491.91a6.54,6.54,0,0,1-2.43,2.52,7.16,7.16,0,0,1-6.95,0,6.57,6.57,0,0,1-2.44-2.52,7.8,7.8,0,0,1,0-7.18,6.54,6.54,0,0,1,2.44-2.51,7.06,7.06,0,0,1,7,0,6.51,6.51,0,0,1,2.43,2.51,7.22,7.22,0,0,1,.88,3.58A7.39,7.39,0,0,1,94.31,491.91Zm-1.09-6.47a5.14,5.14,0,0,0-2-2,5.87,5.87,0,0,0-5.67,0,5.17,5.17,0,0,0-2,2,6.16,6.16,0,0,0,0,5.74,5.31,5.31,0,0,0,2,2,5.87,5.87,0,0,0,5.67,0,5.29,5.29,0,0,0,2-2,6.08,6.08,0,0,0,0-5.74Z"/><path class="cls-4" d="M88.8,464.44l2.77,2.73h3.51v1.42H81.72v-1.42H89.8l-8.08-7.84V457.7l6,5.79,7.31-6.19V459Z"/><path class="cls-4" d="M93.86,436h1.22v9.45H81.72V436.3h1.22v7.75H87.7v-6.91h1.2v6.91h5Z"/><path class="cls-4" d="M81.72,412H95.08v1.17l-10.84,8.59H95.08v1.41H81.72V422l10.84-8.61H81.72Z"/><path class="cls-4" d="M82.94,374.52a4.19,4.19,0,0,1,3.36-1.45,4.15,4.15,0,0,1,3.35,1.45,6.08,6.08,0,0,1,1.22,4v3.59h4.21v1.41H81.72v-5A6.08,6.08,0,0,1,82.94,374.52Zm5.81,1a3,3,0,0,0-2.45-1.05,3,3,0,0,0-2.49,1.05,4.64,4.64,0,0,0-.87,3v3.55h6.68v-3.55A4.64,4.64,0,0,0,88.75,375.54Z"/><path class="cls-4" d="M93.86,351h1.22v9.45H81.72v-9.16h1.22v7.75H87.7v-6.91h1.2v6.91h5Z"/><path class="cls-4" d="M94.31,336a6.54,6.54,0,0,1-2.43,2.52,7.09,7.09,0,0,1-6.95,0A6.57,6.57,0,0,1,82.49,336a7.8,7.8,0,0,1,0-7.18,6.54,6.54,0,0,1,2.44-2.51,7.06,7.06,0,0,1,7,0,6.51,6.51,0,0,1,2.43,2.51,7.25,7.25,0,0,1,.88,3.58A7.39,7.39,0,0,1,94.31,336Zm-1.09-6.46a5.1,5.1,0,0,0-2-2,5.94,5.94,0,0,0-5.67,0,5.13,5.13,0,0,0-2,2,5.7,5.7,0,0,0-.71,2.86,5.76,5.76,0,0,0,.71,2.87,5.25,5.25,0,0,0,2,2,5.87,5.87,0,0,0,5.67,0,5.22,5.22,0,0,0,2-2,5.77,5.77,0,0,0,.72-2.87A5.71,5.71,0,0,0,93.22,329.53Z"/><path class="cls-4" d="M82.94,303.66a4.16,4.16,0,0,1,3.36-1.45,4.12,4.12,0,0,1,3.35,1.45,6.06,6.06,0,0,1,1.22,4v3.59h4.21v1.41H81.72v-5A6.06,6.06,0,0,1,82.94,303.66Zm5.81,1a3,3,0,0,0-2.45-1.05,3.05,3.05,0,0,0-2.49,1.05,4.65,4.65,0,0,0-.87,3v3.55h6.68v-3.55A4.65,4.65,0,0,0,88.75,304.67Z"/><path class="cls-4" d="M81.72,289.61v-1.42H93.86v-7.48h1.22v8.9Z"/><path class="cls-4" d="M93.86,259.37h1.22v9.45H81.72v-9.17h1.22v7.75H87.7v-6.91h1.2v6.91h5Z"/><path class="cls-4" d="M105.85,710.49h5.25v-6.91h1.22v6.91H118v1.42H104.63v-9.17h1.22Z"/><path class="cls-4" d="M104.63,690.27v-1.41H118v1.41Z"/><path class="cls-4" d="M104.63,663.79H118V665l-10.84,8.59H118V675H104.63V673.8l10.84-8.61H104.63Z"/><path class="cls-4" d="M104.63,649.9v-5.44a7.94,7.94,0,0,1,.85-3.75,6.13,6.13,0,0,1,2.37-2.52,7.19,7.19,0,0,1,6.93,0,6.17,6.17,0,0,1,2.36,2.52,7.94,7.94,0,0,1,.85,3.75v5.44Zm12.14-5.37a6.41,6.41,0,0,0-.7-3.07,5,5,0,0,0-1.92-2,5.87,5.87,0,0,0-5.67,0,5,5,0,0,0-1.93,2,6.41,6.41,0,0,0-.7,3.07v4h10.92Z"/><path class="cls-4" d="M104.63,591.69l13.36,4.5v1.49l-11.39,3.91L118,605.53V607l-13.36,4.5v-1.45l11.49-3.85-11.49-4v-1.32L116.18,597,104.63,593Z"/><path class="cls-4" d="M104.63,568.4H118v1.39h-6.16v8.36H118v1.41H104.63v-1.41h6v-8.36h-6Z"/><path class="cls-4" d="M117.22,552.25a6.41,6.41,0,0,1-2.43,2.52,7.09,7.09,0,0,1-7,0,6.43,6.43,0,0,1-2.44-2.52,7.7,7.7,0,0,1,0-7.17,6.5,6.5,0,0,1,2.44-2.52,7.11,7.11,0,0,1,7,0,6.5,6.5,0,0,1,2.44,2.52,7.21,7.21,0,0,1,.88,3.57A7.33,7.33,0,0,1,117.22,552.25Zm-1.09-6.46a5.21,5.21,0,0,0-2-2,5.59,5.59,0,0,0-2.84-.73,5.53,5.53,0,0,0-2.83.73,5.17,5.17,0,0,0-2,2,5.73,5.73,0,0,0-.72,2.86,5.81,5.81,0,0,0,.72,2.88,5.22,5.22,0,0,0,2,2,5.53,5.53,0,0,0,2.83.74,5.6,5.6,0,0,0,2.84-.74,5.26,5.26,0,0,0,2-2,5.81,5.81,0,0,0,.72-2.88A5.73,5.73,0,0,0,116.13,545.79Z"/><path class="cls-4" d="M104.63,528.93v-1.41h12.14V520H118v8.89Z"/><path class="cls-4" d="M116.77,498.69H118v9.45H104.63V499h1.22v7.75h4.75v-6.91h1.21v6.91h5Z"/><path class="cls-4" d="M104.63,474.66H118v1.16l-10.84,8.59H118v1.42H104.63v-1.17l10.84-8.61H104.63Z"/><path class="cls-4" d="M116.77,451.31H118v9.45H104.63v-9.17h1.22v7.76h4.75v-6.92h1.21v6.92h5Z"/><path class="cls-4" d="M117.63,437.61a5.31,5.31,0,0,1-1.26,2.11l-1.09-.55a5.31,5.31,0,0,0,1.18-1.93,7,7,0,0,0,.45-2.48,4.55,4.55,0,0,0-.66-2.7,2,2,0,0,0-1.71-.89,1.72,1.72,0,0,0-1.28.48,3.47,3.47,0,0,0-.74,1.2,18.7,18.7,0,0,0-.56,2,20.92,20.92,0,0,1-.73,2.41,4.07,4.07,0,0,1-1.08,1.54,2.92,2.92,0,0,1-2,.64,3.3,3.3,0,0,1-1.84-.54,3.62,3.62,0,0,1-1.33-1.64,6.76,6.76,0,0,1-.5-2.75,8.09,8.09,0,0,1,.32-2.24,6.4,6.4,0,0,1,.87-1.9l1.12.47a7,7,0,0,0-.83,1.8,6.87,6.87,0,0,0-.27,1.87,4.25,4.25,0,0,0,.68,2.64,2.07,2.07,0,0,0,1.74.89,1.71,1.71,0,0,0,1.29-.49,3.17,3.17,0,0,0,.74-1.22,19.08,19.08,0,0,0,.57-2,20.52,20.52,0,0,1,.71-2.38,4.07,4.07,0,0,1,1.07-1.54,2.85,2.85,0,0,1,1.94-.63,3.29,3.29,0,0,1,1.84.55,3.58,3.58,0,0,1,1.32,1.67,6.87,6.87,0,0,1,.49,2.77A8.53,8.53,0,0,1,117.63,437.61Z"/><path class="cls-4" d="M117.63,416.32a5.24,5.24,0,0,1-1.26,2.11l-1.09-.55a5.23,5.23,0,0,0,1.18-1.93,7,7,0,0,0,.45-2.48,4.52,4.52,0,0,0-.66-2.69,2,2,0,0,0-1.71-.9,1.69,1.69,0,0,0-1.28.49,3.34,3.34,0,0,0-.74,1.19,19,19,0,0,0-.56,2,21.29,21.29,0,0,1-.73,2.4,4.07,4.07,0,0,1-1.08,1.54,2.87,2.87,0,0,1-2,.64,3.3,3.3,0,0,1-1.84-.54,3.57,3.57,0,0,1-1.33-1.64,6.73,6.73,0,0,1-.5-2.75,8.09,8.09,0,0,1,.32-2.24,6.51,6.51,0,0,1,.87-1.9l1.12.48a7.1,7.1,0,0,0-.83,1.79,6.87,6.87,0,0,0-.27,1.87,4.28,4.28,0,0,0,.68,2.65,2.1,2.1,0,0,0,1.74.89,1.75,1.75,0,0,0,1.29-.49,3.25,3.25,0,0,0,.74-1.22,18.65,18.65,0,0,0,.57-2,21.15,21.15,0,0,1,.71-2.38,4,4,0,0,1,1.07-1.53,2.85,2.85,0,0,1,1.94-.63,3.28,3.28,0,0,1,1.84.54,3.58,3.58,0,0,1,1.32,1.67,6.9,6.9,0,0,1,.49,2.77A8.53,8.53,0,0,1,117.63,416.32Z"/><path class="cls-4" d="M104.63,381.32v-1.41H118v1.41Z"/><path class="cls-4" d="M104.63,354.84H118V356l-10.84,8.6H118V366H104.63v-1.17l10.84-8.61H104.63Z"/><path class="cls-4" d="M117.23,324.17a6.44,6.44,0,0,1-2.44,2.5,7.11,7.11,0,0,1-7,0,6.4,6.4,0,0,1-2.44-2.51,7.78,7.78,0,0,1-.38-6.34,5.8,5.8,0,0,1,1.45-2.14l.9.9a5.32,5.32,0,0,0-1.59,3.95,5.88,5.88,0,0,0,.73,2.89,5.32,5.32,0,0,0,2,2,5.83,5.83,0,0,0,5.65,0,5.29,5.29,0,0,0,2-2,5.77,5.77,0,0,0,.73-2.89,5.25,5.25,0,0,0-1.61-3.95l.9-.9a5.87,5.87,0,0,1,1.46,2.15,7.36,7.36,0,0,1,.51,2.76A7.25,7.25,0,0,1,117.23,324.17Z"/><path class="cls-4" d="M104.63,292H118v1.4h-6.16v8.36H118v1.41H104.63v-1.41h6v-8.36h-6Z"/><path class="cls-4" d="M118,268.93,113.7,272a9.36,9.36,0,0,1,0,1.07v3.59H118v1.41H104.63v-5a6.08,6.08,0,0,1,1.22-4,4.19,4.19,0,0,1,3.36-1.45,4.42,4.42,0,0,1,2.65.79,4.47,4.47,0,0,1,1.55,2.27l4.58-3.27Zm-6.32,1.12a3,3,0,0,0-2.46-1.05,3.05,3.05,0,0,0-2.49,1.05,4.67,4.67,0,0,0-.87,3v3.55h6.7v-3.55A4.61,4.61,0,0,0,111.67,270.05Z"/><path class="cls-4" d="M104.63,254.71v-1.42H118v1.42Z"/><path class="cls-4" d="M117.63,238.56a5.24,5.24,0,0,1-1.26,2.11l-1.09-.55a5.23,5.23,0,0,0,1.18-1.93,7,7,0,0,0,.45-2.48,4.52,4.52,0,0,0-.66-2.69,2,2,0,0,0-1.71-.9,1.69,1.69,0,0,0-1.28.49,3.34,3.34,0,0,0-.74,1.19,19,19,0,0,0-.56,2,21.29,21.29,0,0,1-.73,2.4,4.07,4.07,0,0,1-1.08,1.54,2.87,2.87,0,0,1-2,.64,3.3,3.3,0,0,1-1.84-.54,3.57,3.57,0,0,1-1.33-1.64,6.73,6.73,0,0,1-.5-2.75,8.09,8.09,0,0,1,.32-2.24,6.4,6.4,0,0,1,.87-1.9l1.12.48a7.1,7.1,0,0,0-.83,1.79,6.87,6.87,0,0,0-.27,1.87,4.28,4.28,0,0,0,.68,2.65,2.1,2.1,0,0,0,1.74.89,1.75,1.75,0,0,0,1.29-.49,3.25,3.25,0,0,0,.74-1.22,18.65,18.65,0,0,0,.57-2,21.15,21.15,0,0,1,.71-2.38,4,4,0,0,1,1.07-1.53,2.85,2.85,0,0,1,1.94-.63,3.28,3.28,0,0,1,1.84.54,3.58,3.58,0,0,1,1.32,1.67,6.9,6.9,0,0,1,.49,2.77A8.53,8.53,0,0,1,117.63,238.56Z"/><path class="cls-4" d="M105.85,215.7v4.7h-1.22V209.59h1.22v4.7H118v1.41Z"/><path class="cls-5" d="M198.05,237.13h2.08v5.93a8.05,8.05,0,0,1-2.63,1.43,9.9,9.9,0,0,1-3.12.5,8.53,8.53,0,0,1-4.15-1,7.46,7.46,0,0,1-2.9-2.78,8.11,8.11,0,0,1,0-8,7.28,7.28,0,0,1,2.91-2.78,8.64,8.64,0,0,1,4.18-1,8.75,8.75,0,0,1,3.31.6,6.71,6.71,0,0,1,2.53,1.74l-1.34,1.35a6.15,6.15,0,0,0-4.41-1.76,6.43,6.43,0,0,0-3.12.75,5.5,5.5,0,0,0-2.16,2.09,6.14,6.14,0,0,0,0,6,5.59,5.59,0,0,0,2.16,2.1,6.38,6.38,0,0,0,3.1.76,6.47,6.47,0,0,0,3.56-1Z"/><path class="cls-5" d="M211.83,234.37a4.56,4.56,0,0,1,1.27,3.5v6.95h-2v-1.53a3.25,3.25,0,0,1-1.49,1.23,5.67,5.67,0,0,1-2.29.43,4.79,4.79,0,0,1-3.09-.94,3,3,0,0,1-1.16-2.45,3.05,3.05,0,0,1,1.1-2.45,5.49,5.49,0,0,1,3.52-.92H211v-.41a2.64,2.64,0,0,0-.78-2.06,3.29,3.29,0,0,0-2.3-.72,6.21,6.21,0,0,0-2,.33,5.23,5.23,0,0,0-1.65.91l-.87-1.57a6.3,6.3,0,0,1,2.13-1.09,8.71,8.71,0,0,1,2.63-.38A5.22,5.22,0,0,1,211.83,234.37Zm-2.08,8.44A3.07,3.07,0,0,0,211,241.3v-1.61H207.8c-1.77,0-2.65.59-2.65,1.78a1.6,1.6,0,0,0,.67,1.37,3.1,3.1,0,0,0,1.87.5A3.9,3.9,0,0,0,209.75,242.81Z"/><path class="cls-5" d="M223.44,244.14a3.3,3.3,0,0,1-1.13.6,4.68,4.68,0,0,1-1.39.21,3.72,3.72,0,0,1-2.7-.94,3.58,3.58,0,0,1-.95-2.67V235h-2V233.3h2v-2.51h2.08v2.51h3.3V235h-3.3v6.23a2,2,0,0,0,.47,1.44,1.76,1.76,0,0,0,1.34.5,2.47,2.47,0,0,0,1.62-.55Z"/><path class="cls-5" d="M236,239.75h-9.34a3.62,3.62,0,0,0,1.33,2.45,4.4,4.4,0,0,0,2.84.92,4.26,4.26,0,0,0,3.32-1.39l1.15,1.35a5,5,0,0,1-1.94,1.39,7.31,7.31,0,0,1-5.83-.27,5.34,5.34,0,0,1-2.19-2.1,6.05,6.05,0,0,1-.77-3,6.12,6.12,0,0,1,.75-3,5.38,5.38,0,0,1,2.06-2.09,5.9,5.9,0,0,1,3-.75,5.74,5.74,0,0,1,2.94.75,5.21,5.21,0,0,1,2,2.09,6.36,6.36,0,0,1,.73,3.09C236,239.29,236,239.49,236,239.75Zm-8.16-3.88a3.66,3.66,0,0,0-1.18,2.39H234a3.68,3.68,0,0,0-1.18-2.38,3.9,3.9,0,0,0-5,0Z"/><path class="cls-5" d="M256.1,233.3l-4.3,11.52h-2l-3.32-8.74-3.37,8.74h-2l-4.28-11.52h2l3.35,9.17,3.47-9.17h1.76l3.41,9.21,3.43-9.21Z"/><path class="cls-5" d="M265.71,234.37a4.52,4.52,0,0,1,1.27,3.5v6.95h-2v-1.53a3.22,3.22,0,0,1-1.48,1.23,5.74,5.74,0,0,1-2.29.43,4.83,4.83,0,0,1-3.1-.94,3.21,3.21,0,0,1-.05-4.9,5.46,5.46,0,0,1,3.51-.92h3.31v-.41a2.61,2.61,0,0,0-.79-2.06,3.27,3.27,0,0,0-2.3-.72,6.26,6.26,0,0,0-2,.33,5.23,5.23,0,0,0-1.65.91l-.87-1.57a6.5,6.5,0,0,1,2.13-1.09,8.71,8.71,0,0,1,2.63-.38A5.22,5.22,0,0,1,265.71,234.37Zm-2.07,8.44a3.12,3.12,0,0,0,1.26-1.51v-1.61h-3.22c-1.76,0-2.65.59-2.65,1.78a1.61,1.61,0,0,0,.68,1.37,3.07,3.07,0,0,0,1.86.5A3.93,3.93,0,0,0,263.64,242.81Z"/><path class="cls-5" d="M280.84,233.3,275.26,246a5.77,5.77,0,0,1-1.73,2.47,3.93,3.93,0,0,1-2.38.72,5.08,5.08,0,0,1-1.64-.27,3.26,3.26,0,0,1-1.31-.8l.89-1.56a2.87,2.87,0,0,0,2.06.85,2,2,0,0,0,1.27-.4,3.41,3.41,0,0,0,.92-1.38l.37-.81-5.08-11.49h2.17l4,9.21,4-9.21Z"/><path class="cls-5" d="M291.62,244a7.47,7.47,0,0,1-2.88-2.78,8.15,8.15,0,0,1,0-8,7.43,7.43,0,0,1,2.89-2.78A9,9,0,0,1,299,230a6.42,6.42,0,0,1,2.52,1.77l-1.41,1.36a5.66,5.66,0,0,0-4.28-1.8,6.25,6.25,0,0,0-3.06.76,5.61,5.61,0,0,0-2.14,2.1,6.17,6.17,0,0,0,0,6,5.61,5.61,0,0,0,2.14,2.1,6.25,6.25,0,0,0,3.06.76,5.66,5.66,0,0,0,4.28-1.83l1.41,1.37a6.61,6.61,0,0,1-2.53,1.78,9,9,0,0,1-7.38-.4Z"/><path class="cls-5" d="M305.73,244.19a5.47,5.47,0,0,1-2.14-2.1,6.35,6.35,0,0,1,0-6.06,5.36,5.36,0,0,1,2.14-2.08,6.3,6.3,0,0,1,3.08-.75,6.23,6.23,0,0,1,3.07.75A5.39,5.39,0,0,1,314,236a6.35,6.35,0,0,1,0,6.06,5.51,5.51,0,0,1-2.13,2.1,6.24,6.24,0,0,1-3.07.76A6.3,6.3,0,0,1,305.73,244.19Zm5.07-1.58a3.72,3.72,0,0,0,1.38-1.43,4.74,4.74,0,0,0,0-4.24,3.63,3.63,0,0,0-1.38-1.42,4.21,4.21,0,0,0-4,0,3.65,3.65,0,0,0-1.39,1.42,4.66,4.66,0,0,0,0,4.24,3.75,3.75,0,0,0,1.39,1.43,4.14,4.14,0,0,0,4,0Z"/><path class="cls-5" d="M335.51,234.46a5,5,0,0,1,1.27,3.73v6.63H334.7v-6.39a3.67,3.67,0,0,0-.77-2.52,2.86,2.86,0,0,0-2.21-.85,3.32,3.32,0,0,0-2.52,1,4,4,0,0,0-.93,2.84v5.93h-2.09v-6.39a3.62,3.62,0,0,0-.77-2.52,2.84,2.84,0,0,0-2.2-.85,3.29,3.29,0,0,0-2.52,1,4,4,0,0,0-.93,2.84v5.93h-2.09V233.3h2V235a4.07,4.07,0,0,1,1.65-1.36,5.52,5.52,0,0,1,2.32-.46,5.1,5.1,0,0,1,2.39.54,3.78,3.78,0,0,1,1.61,1.58,4.46,4.46,0,0,1,1.81-1.56,5.89,5.89,0,0,1,2.62-.56A4.65,4.65,0,0,1,335.51,234.46Z"/><path class="cls-5" d="M358.47,234.46a5,5,0,0,1,1.27,3.73v6.63h-2.09v-6.39a3.62,3.62,0,0,0-.77-2.52,2.84,2.84,0,0,0-2.2-.85,3.29,3.29,0,0,0-2.52,1,4,4,0,0,0-.93,2.84v5.93h-2.09v-6.39a3.67,3.67,0,0,0-.77-2.52,2.84,2.84,0,0,0-2.2-.85,3.29,3.29,0,0,0-2.52,1,4,4,0,0,0-.94,2.84v5.93h-2.08V233.3h2V235a3.94,3.94,0,0,1,1.65-1.36,5.52,5.52,0,0,1,2.32-.46,5.13,5.13,0,0,1,2.39.54,3.83,3.83,0,0,1,1.61,1.58,4.4,4.4,0,0,1,1.81-1.56,5.86,5.86,0,0,1,2.62-.56A4.68,4.68,0,0,1,358.47,234.46Z"/><path class="cls-5" d="M374.31,233.3v11.52h-2v-1.74a4.17,4.17,0,0,1-1.66,1.38,5.21,5.21,0,0,1-2.24.49,5,5,0,0,1-3.63-1.28,4.94,4.94,0,0,1-1.33-3.74V233.3h2.09v6.39a3.61,3.61,0,0,0,.8,2.53,3,3,0,0,0,2.31.86,3.43,3.43,0,0,0,2.6-1,3.92,3.92,0,0,0,1-2.82v-6Z"/><path class="cls-5" d="M387.92,234.47a5,5,0,0,1,1.29,3.72v6.63h-2.08v-6.39a3.53,3.53,0,0,0-.81-2.52,3,3,0,0,0-2.3-.85,3.58,3.58,0,0,0-2.67,1,3.89,3.89,0,0,0-1,2.84v5.93h-2.08V233.3h2V235a4.09,4.09,0,0,1,1.71-1.37,6.1,6.1,0,0,1,2.44-.47A4.76,4.76,0,0,1,387.92,234.47Z"/><path class="cls-5" d="M393.11,230.7a1.28,1.28,0,0,1-.4-1,1.29,1.29,0,0,1,.4-1,1.36,1.36,0,0,1,1-.4,1.43,1.43,0,0,1,1,.37,1.25,1.25,0,0,1,.4.95,1.34,1.34,0,0,1-.4,1,1.37,1.37,0,0,1-1,.4A1.39,1.39,0,0,1,393.11,230.7Zm0,2.6h2.08v11.52h-2.08Z"/><path class="cls-5" d="M405.61,244.14a3.21,3.21,0,0,1-1.13.6,4.64,4.64,0,0,1-1.39.21,3.68,3.68,0,0,1-2.69-.94,3.55,3.55,0,0,1-1-2.67V235h-1.95V233.3h1.95v-2.51h2.08v2.51h3.31V235h-3.31v6.23a2,2,0,0,0,.47,1.44,1.76,1.76,0,0,0,1.34.5,2.49,2.49,0,0,0,1.63-.55Z"/><path class="cls-5" d="M418.09,233.3,412.51,246a5.68,5.68,0,0,1-1.72,2.47,4,4,0,0,1-2.38.72,5,5,0,0,1-1.64-.27,3.26,3.26,0,0,1-1.31-.8l.89-1.56a2.87,2.87,0,0,0,2.06.85,2,2,0,0,0,1.27-.4,3.41,3.41,0,0,0,.92-1.38l.37-.81-5.08-11.49h2.17l4,9.21,4-9.21Z"/><path class="cls-5" d="M428.88,244A7.47,7.47,0,0,1,426,241.2a8.15,8.15,0,0,1,0-8,7.43,7.43,0,0,1,2.89-2.78,9,9,0,0,1,7.38-.41,6.42,6.42,0,0,1,2.52,1.77l-1.41,1.36a5.66,5.66,0,0,0-4.28-1.8,6.25,6.25,0,0,0-3.06.76,5.61,5.61,0,0,0-2.14,2.1,6.17,6.17,0,0,0,0,6,5.61,5.61,0,0,0,2.14,2.1,6.25,6.25,0,0,0,3.06.76,5.66,5.66,0,0,0,4.28-1.83l1.41,1.37a6.69,6.69,0,0,1-2.53,1.78,9,9,0,0,1-7.38-.4Z"/><path class="cls-5" d="M451.23,234.47a5,5,0,0,1,1.29,3.72v6.63h-2.09v-6.39a3.53,3.53,0,0,0-.8-2.52,3,3,0,0,0-2.3-.85,3.58,3.58,0,0,0-2.67,1,3.84,3.84,0,0,0-1,2.84v5.93h-2.09V228.7h2.09v6.23a4.33,4.33,0,0,1,1.7-1.28,6,6,0,0,1,2.36-.45A4.76,4.76,0,0,1,451.23,234.47Z"/><path class="cls-5" d="M467.11,233.3v11.52h-2v-1.74a4.31,4.31,0,0,1-1.66,1.38,5.29,5.29,0,0,1-2.25.49,5,5,0,0,1-3.63-1.28,4.94,4.94,0,0,1-1.32-3.74V233.3h2.08v6.39a3.61,3.61,0,0,0,.8,2.53,3,3,0,0,0,2.31.86,3.4,3.4,0,0,0,2.6-1,3.92,3.92,0,0,0,1-2.82v-6Z"/><path class="cls-5" d="M474.69,233.72a5.81,5.81,0,0,1,2.59-.52v2a3,3,0,0,0-.48,0,3.51,3.51,0,0,0-2.66,1,4,4,0,0,0-1,2.88v5.74h-2.08V233.3h2v1.94A3.47,3.47,0,0,1,474.69,233.72Z"/><path class="cls-5" d="M481.63,244.19a5.59,5.59,0,0,1-2.16-2.1,6.28,6.28,0,0,1,0-6.06,5.47,5.47,0,0,1,2.16-2.08,6.48,6.48,0,0,1,3.14-.75,6,6,0,0,1,2.79.63,4.45,4.45,0,0,1,1.9,1.82l-1.58,1a3.7,3.7,0,0,0-1.35-1.24,3.92,3.92,0,0,0-1.78-.41,4.15,4.15,0,0,0-2,.5,3.57,3.57,0,0,0-1.41,1.42,4.22,4.22,0,0,0-.52,2.12,4.27,4.27,0,0,0,.52,2.14,3.57,3.57,0,0,0,1.41,1.42,4,4,0,0,0,2,.5,3.92,3.92,0,0,0,1.78-.41,3.7,3.7,0,0,0,1.35-1.24l1.58,1a4.47,4.47,0,0,1-1.9,1.83,5.92,5.92,0,0,1-2.79.65A6.48,6.48,0,0,1,481.63,244.19Z"/><path class="cls-5" d="M501.66,234.47a5,5,0,0,1,1.29,3.72v6.63h-2.09v-6.39a3.53,3.53,0,0,0-.8-2.52,3,3,0,0,0-2.3-.85,3.58,3.58,0,0,0-2.67,1,3.84,3.84,0,0,0-1,2.84v5.93H492V228.7h2.09v6.23a4.33,4.33,0,0,1,1.7-1.28,6,6,0,0,1,2.36-.45A4.77,4.77,0,0,1,501.66,234.47Z"/><path class="cls-4" d="M202.76,335.73l-10.85,4,10.85,3.94v4.08l-15.51-5.9v-4.24l15.51-5.89Z"/><path class="cls-4" d="M222.27,335.73l-10.84,4,10.84,3.94v4.08l-15.5-5.9v-4.24l15.5-5.89Z"/><path class="cls-4" d="M247.88,328.3v22.8h-4.33l-11.37-13.84V351.1H227V328.3h4.36l11.34,13.85V328.3Z"/><path class="cls-4" d="M266.25,335.26q2.19,1.94,2.19,5.84v10h-4.76v-2.18q-1.44,2.44-5.34,2.45a8.26,8.26,0,0,1-3.51-.69,5.23,5.23,0,0,1-2.26-1.89,4.91,4.91,0,0,1-.78-2.74,4.56,4.56,0,0,1,1.84-3.84q1.85-1.4,5.68-1.4h4a3.22,3.22,0,0,0-1-2.56,4.47,4.47,0,0,0-3-.89,8.65,8.65,0,0,0-2.75.44,7.08,7.08,0,0,0-2.29,1.19l-1.83-3.56a11.12,11.12,0,0,1,3.44-1.56,15.33,15.33,0,0,1,4.12-.55A9.07,9.07,0,0,1,266.25,335.26Zm-4.33,12.08a3.28,3.28,0,0,0,1.43-1.77v-1.8h-3.48c-2.09,0-3.13.69-3.13,2.06a1.82,1.82,0,0,0,.77,1.54,3.45,3.45,0,0,0,2.1.57A4.42,4.42,0,0,0,261.92,347.34Z"/><path class="cls-4" d="M300.71,335.26q1.94,1.94,1.93,5.81v10h-5.08v-9.25a4.79,4.79,0,0,0-.86-3.11,3.06,3.06,0,0,0-2.46-1,3.64,3.64,0,0,0-2.84,1.16,5,5,0,0,0-1,3.44v8.79h-5.08v-9.25q0-4.14-3.32-4.14a3.61,3.61,0,0,0-2.81,1.16,5,5,0,0,0-1,3.44v8.79H273V333.58h4.85v2a6.45,6.45,0,0,1,2.4-1.7,8,8,0,0,1,3.11-.58,7.53,7.53,0,0,1,3.36.73,6,6,0,0,1,2.41,2.13,7.12,7.12,0,0,1,2.72-2.11,8.53,8.53,0,0,1,3.6-.75A7.06,7.06,0,0,1,300.71,335.26Z"/><path class="cls-4" d="M324.47,343.77H311.21a4.11,4.11,0,0,0,1.7,2.58,5.57,5.57,0,0,0,3.32.94,6.81,6.81,0,0,0,2.43-.4,6,6,0,0,0,2-1.29l2.7,2.93q-2.47,2.84-7.23,2.84a11.46,11.46,0,0,1-5.25-1.16,8.5,8.5,0,0,1-3.52-3.21,9.44,9.44,0,0,1,0-9.3,8.6,8.6,0,0,1,3.35-3.23,10.44,10.44,0,0,1,9.43-.05,8.1,8.1,0,0,1,3.28,3.18,9.51,9.51,0,0,1,1.19,4.81C324.57,342.47,324.54,342.93,324.47,343.77Zm-11.89-5.63a4.14,4.14,0,0,0-1.43,2.67h8.63a4.21,4.21,0,0,0-1.43-2.65,4.27,4.27,0,0,0-2.87-1A4.39,4.39,0,0,0,312.58,338.14Z"/><path class="cls-4" d="M343.14,337.58v4.24l-15.51,5.9v-4.08l10.85-3.94-10.85-4v-4Z"/><path class="cls-4" d="M362.65,337.58v4.24l-15.51,5.9v-4.08L358,339.7l-10.85-4v-4Z"/><path class="cls-4" d="M198.28,447.7l-9,3.47,9,3.47v2.1l-11.35-4.48v-2.18l11.35-4.49Z"/><path class="cls-4" d="M213,447.7l-9,3.47,9,3.47v2.1l-11.35-4.48v-2.18L213,445.59Z"/><path class="cls-4" d="M230.26,457.83V460H217.39V442.3H229.9v2.2h-10V450h8.89v2.16h-8.89v5.72Z"/><path class="cls-4" d="M254.82,448a5.88,5.88,0,0,1,1.49,4.36V460h-2.44v-7.45a4.24,4.24,0,0,0-.9-2.94,3.27,3.27,0,0,0-2.57-1,3.86,3.86,0,0,0-2.94,1.15,4.67,4.67,0,0,0-1.09,3.31V460h-2.43v-7.45a4.24,4.24,0,0,0-.9-2.94,3.3,3.3,0,0,0-2.57-1,3.86,3.86,0,0,0-2.94,1.15,4.62,4.62,0,0,0-1.09,3.31V460H234V446.61h2.33v2a4.68,4.68,0,0,1,1.93-1.58,6.31,6.31,0,0,1,2.71-.55,6,6,0,0,1,2.78.63,4.42,4.42,0,0,1,1.88,1.85,5.22,5.22,0,0,1,2.11-1.82,6.94,6.94,0,0,1,3.06-.66A5.42,5.42,0,0,1,254.82,448Z"/><path class="cls-4" d="M270,447.85a5.27,5.27,0,0,1,1.48,4.08V460h-2.3v-1.78a3.88,3.88,0,0,1-1.74,1.44,6.77,6.77,0,0,1-2.67.49,5.55,5.55,0,0,1-3.61-1.09,3.74,3.74,0,0,1-.07-5.71,6.38,6.38,0,0,1,4.11-1.08H269v-.48a3.1,3.1,0,0,0-.91-2.41,3.85,3.85,0,0,0-2.69-.84,6.92,6.92,0,0,0-2.33.4,5.89,5.89,0,0,0-1.92,1l-1-1.83a7.61,7.61,0,0,1,2.49-1.28,10.53,10.53,0,0,1,3.06-.44A6.09,6.09,0,0,1,270,447.85Zm-2.42,9.84a3.49,3.49,0,0,0,1.47-1.76v-1.87h-3.75q-3.09,0-3.09,2.07a1.87,1.87,0,0,0,.79,1.6,3.54,3.54,0,0,0,2.17.58A4.46,4.46,0,0,0,267.53,457.69Z"/><path class="cls-4" d="M276,443.57a1.57,1.57,0,0,1,0-2.24,1.57,1.57,0,0,1,1.18-.47,1.65,1.65,0,0,1,1.18.44,1.47,1.47,0,0,1,.47,1.1,1.56,1.56,0,0,1-.47,1.15,1.59,1.59,0,0,1-1.18.47A1.64,1.64,0,0,1,276,443.57Zm0,3h2.44V460h-2.44Z"/><path class="cls-4" d="M283,441.24h2.43V460H283Z"/><path class="cls-4" d="M300.82,450.08v2.18l-11.35,4.48v-2.1l9-3.47-9-3.47v-2.11Z"/><path class="cls-4" d="M315.57,450.08v2.18l-11.35,4.48v-2.1l9-3.47-9-3.47v-2.11Z"/><path class="cls-4" d="M198.28,480.28l-9,3.47,9,3.47v2.11l-11.35-4.49v-2.18l11.35-4.48Z"/><path class="cls-4" d="M213,480.28l-9,3.47,9,3.47v2.11l-11.35-4.49v-2.18L213,478.18Z"/><path class="cls-4" d="M229.73,476.53a6.2,6.2,0,0,1,0,9.07,8.23,8.23,0,0,1-5.43,1.65h-4.38v5.37h-2.53V474.89h6.91A8.23,8.23,0,0,1,229.73,476.53ZM227.9,484a4.06,4.06,0,0,0,0-5.9,5.67,5.67,0,0,0-3.67-1h-4.31v8h4.31A5.73,5.73,0,0,0,227.9,484Z"/><path class="cls-4" d="M246.56,480.55a5.81,5.81,0,0,1,1.51,4.34v7.73h-2.43v-7.45a4.11,4.11,0,0,0-.94-2.94,3.51,3.51,0,0,0-2.69-1,4.17,4.17,0,0,0-3.11,1.15,4.51,4.51,0,0,0-1.14,3.31v6.91h-2.43v-18.8h2.43v7.27a4.94,4.94,0,0,1,2-1.49,6.75,6.75,0,0,1,2.75-.53A5.53,5.53,0,0,1,246.56,480.55Z"/><path class="cls-4" d="M254.79,491.89a6.4,6.4,0,0,1-2.5-2.45,7.39,7.39,0,0,1,0-7.07,6.29,6.29,0,0,1,2.5-2.43,7.84,7.84,0,0,1,7.18,0,6.37,6.37,0,0,1,2.48,2.43,7.39,7.39,0,0,1,0,7.07,6.48,6.48,0,0,1-2.48,2.45,7.76,7.76,0,0,1-7.18,0Zm5.91-1.84a4.18,4.18,0,0,0,1.61-1.67,5.55,5.55,0,0,0,0-4.94,4.09,4.09,0,0,0-1.61-1.66,4.84,4.84,0,0,0-4.63,0,4.2,4.2,0,0,0-1.63,1.66,5.47,5.47,0,0,0,0,4.94,4.29,4.29,0,0,0,1.63,1.67,4.77,4.77,0,0,0,4.63,0Z"/><path class="cls-4" d="M280,480.55a5.85,5.85,0,0,1,1.51,4.34v7.73H279v-7.45a4.15,4.15,0,0,0-.93-2.94,3.53,3.53,0,0,0-2.69-1,4.18,4.18,0,0,0-3.12,1.15,4.51,4.51,0,0,0-1.14,3.31v6.91h-2.43V479.19h2.33v2a4.86,4.86,0,0,1,2-1.6,7,7,0,0,1,2.85-.55A5.55,5.55,0,0,1,280,480.55Z"/><path class="cls-4" d="M298.11,486.72H287.22a4.21,4.21,0,0,0,1.56,2.85,5.06,5.06,0,0,0,3.3,1.08A5,5,0,0,0,296,489l1.34,1.57a5.89,5.89,0,0,1-2.26,1.63,8.64,8.64,0,0,1-6.81-.32,6.22,6.22,0,0,1-2.54-2.44,7,7,0,0,1-.9-3.55,7.12,7.12,0,0,1,.87-3.52,6.17,6.17,0,0,1,2.41-2.45,6.87,6.87,0,0,1,3.46-.87,6.75,6.75,0,0,1,3.43.87,6.19,6.19,0,0,1,2.36,2.45,7.46,7.46,0,0,1,.84,3.59A5.68,5.68,0,0,1,298.11,486.72Zm-9.51-4.54a4.25,4.25,0,0,0-1.38,2.79h8.61a4.25,4.25,0,0,0-1.38-2.77,4.53,4.53,0,0,0-5.85,0Z"/><path class="cls-4" d="M312.28,482.66v2.18l-11.35,4.49v-2.11l9-3.47-9-3.47v-2.1Z"/><path class="cls-4" d="M327,482.66v2.18l-11.35,4.49v-2.11l9-3.47-9-3.47v-2.1Z"/><g class="cls-6"><path class="cls-7" d="M204.7,565.11l-5,13.33H198l-4.21-10.92-4.21,10.92h-1.69l-5-13.33h1.72l4.18,11.33L193,565.11h1.54l4.26,11.33,4.23-11.33Z"/><path class="cls-7" d="M226.87,565.11l-5,13.33h-1.7l-4.21-10.92-4.21,10.92H210l-5-13.33h1.72l4.18,11.33,4.29-11.33h1.54L221,576.44l4.23-11.33Z"/><path class="cls-7" d="M249,565.11l-5,13.33h-1.7l-4.21-10.92-4.2,10.92h-1.7l-5-13.33h1.72l4.19,11.33,4.28-11.33h1.54l4.26,11.33,4.23-11.33Z"/><path class="cls-7" d="M250.14,578.16a1.37,1.37,0,0,1-.39-1,1.31,1.31,0,0,1,.39-1,1.27,1.27,0,0,1,1-.4,1.31,1.31,0,0,1,1,.4,1.29,1.29,0,0,1,.41,1,1.35,1.35,0,0,1-.41,1,1.32,1.32,0,0,1-1,.41A1.28,1.28,0,0,1,250.14,578.16Z"/><path class="cls-7" d="M268.27,565.11v11.71a6.78,6.78,0,0,1-1.66,5,6.87,6.87,0,0,1-5,1.63,11.22,11.22,0,0,1-3.51-.54,7.3,7.3,0,0,1-2.7-1.51l.91-1.37a6.87,6.87,0,0,0,2.34,1.34,8.78,8.78,0,0,0,2.9.48,5.15,5.15,0,0,0,3.73-1.17,5,5,0,0,0,1.19-3.67v-1.69a5.48,5.48,0,0,1-2.19,1.92,6.8,6.8,0,0,1-3,.66,7.07,7.07,0,0,1-3.41-.82,6.09,6.09,0,0,1-2.41-2.31,6.88,6.88,0,0,1,0-6.7,6,6,0,0,1,2.4-2.28,7.14,7.14,0,0,1,3.42-.81,6.81,6.81,0,0,1,3.06.68,5.62,5.62,0,0,1,2.21,2v-2.56Zm-4.21,10.6a4.53,4.53,0,0,0,1.82-1.73,5.32,5.32,0,0,0,0-5.06,4.72,4.72,0,0,0-1.8-1.72,5.52,5.52,0,0,0-2.63-.62,5.38,5.38,0,0,0-2.59.61,4.39,4.39,0,0,0-1.8,1.72,5.27,5.27,0,0,0,0,5.07,4.48,4.48,0,0,0,1.8,1.73,5.28,5.28,0,0,0,2.59.62A5.36,5.36,0,0,0,264.06,575.71Z"/><path class="cls-7" d="M275.3,577.7a6.17,6.17,0,0,1-2.44-2.42,7.33,7.33,0,0,1,0-7,6.28,6.28,0,0,1,2.44-2.41,7.23,7.23,0,0,1,3.53-.86,6.8,6.8,0,0,1,3.08.67,5.07,5.07,0,0,1,2.14,2l-1.34.92a4.25,4.25,0,0,0-1.67-1.49,5.11,5.11,0,0,0-2.21-.49,5.21,5.21,0,0,0-2.59.65,4.53,4.53,0,0,0-1.8,1.83,6,6,0,0,0,0,5.44,4.57,4.57,0,0,0,1.8,1.82,5.21,5.21,0,0,0,2.59.65,5.1,5.1,0,0,0,2.21-.48,4.13,4.13,0,0,0,1.67-1.47l1.34.91a5,5,0,0,1-2.15,2,6.82,6.82,0,0,1-3.07.68A7.13,7.13,0,0,1,275.3,577.7Z"/><path class="cls-7" d="M289.36,577.7a6.17,6.17,0,0,1-2.44-2.42,7.33,7.33,0,0,1,0-7,6.28,6.28,0,0,1,2.44-2.41,7.25,7.25,0,0,1,3.54-.86,6.83,6.83,0,0,1,3.08.67,5.19,5.19,0,0,1,2.14,2l-1.35.92a4.19,4.19,0,0,0-1.67-1.49,5.07,5.07,0,0,0-2.2-.49,5.23,5.23,0,0,0-2.6.65,4.53,4.53,0,0,0-1.8,1.83,6.1,6.1,0,0,0,0,5.44,4.57,4.57,0,0,0,1.8,1.82,5.23,5.23,0,0,0,2.6.65,5.06,5.06,0,0,0,2.2-.48,4.06,4.06,0,0,0,1.67-1.47l1.35.91a5.06,5.06,0,0,1-2.16,2,6.81,6.81,0,0,1-3.06.68A7.14,7.14,0,0,1,289.36,577.7Z"/><path class="cls-7" d="M304.29,561.67a2.61,2.61,0,0,0-.6,1.87v1.57h4.11v1.52h-4.06v11.81h-1.8V566.63h-2.38v-1.52h2.38v-1.65a3.87,3.87,0,0,1,1.06-2.88,4,4,0,0,1,3-1.07,4.8,4.8,0,0,1,1.47.22,3.28,3.28,0,0,1,1.19.62l-.61,1.34a3,3,0,0,0-2-.66A2.26,2.26,0,0,0,304.29,561.67Z"/><path class="cls-7" d="M315.87,565.69A6.46,6.46,0,0,1,319,565v1.75l-.43,0a4.25,4.25,0,0,0-3.29,1.29,5.15,5.15,0,0,0-1.2,3.63v6.79h-1.79V565.11H314v2.61A4.38,4.38,0,0,1,315.87,565.69Z"/><path class="cls-7" d="M330.88,566.31a5,5,0,0,1,1.39,3.87v8.26h-1.72v-2.08a4.16,4.16,0,0,1-1.79,1.62,6.22,6.22,0,0,1-2.8.59,5.46,5.46,0,0,1-3.54-1.07,3.66,3.66,0,0,1-.09-5.55,6,6,0,0,1,3.91-1h4.23v-.81a3.41,3.41,0,0,0-1-2.62,4,4,0,0,0-2.81-.9,7.15,7.15,0,0,0-2.44.42,6.24,6.24,0,0,0-2,1.15l-.81-1.34a7.14,7.14,0,0,1,2.43-1.33,9.61,9.61,0,0,1,3-.47A5.65,5.65,0,0,1,330.88,566.31Zm-2,10.14a4.1,4.1,0,0,0,1.62-2v-2.17h-4.18c-2.28,0-3.42.79-3.42,2.38a2.16,2.16,0,0,0,.89,1.83,4,4,0,0,0,2.48.68A4.77,4.77,0,0,0,328.85,576.45Z"/><path class="cls-7" d="M347.94,566.47a5.67,5.67,0,0,1,1.49,4.24v7.73h-1.8v-7.55a4.43,4.43,0,0,0-1-3.17,3.89,3.89,0,0,0-3-1.09,4.55,4.55,0,0,0-3.4,1.28,4.82,4.82,0,0,0-1.26,3.54v7h-1.8V565.11h1.73v2.46a5,5,0,0,1,2-1.89,6.43,6.43,0,0,1,3-.67A5.43,5.43,0,0,1,347.94,566.47Z"/><path class="cls-7" d="M359.26,571.75l-3.14,2.89v3.8h-1.8v-18.8h1.8v12.74l7.95-7.27h2.23l-5.7,5.45,6.23,7.88h-2.2Z"/><path class="cls-7" d="M369.54,559.64h1.8v18.8h-1.8Z"/><path class="cls-7" d="M376.33,561.82a1.27,1.27,0,0,1-.37-.92,1.21,1.21,0,0,1,.37-.88,1.27,1.27,0,0,1,.94-.38,1.31,1.31,0,0,1,.94.36,1.2,1.2,0,0,1,.38.88,1.31,1.31,0,0,1-.38.94,1.29,1.29,0,0,1-.94.38A1.31,1.31,0,0,1,376.33,561.82Zm0,3.29h1.8v13.33h-1.8Z"/><path class="cls-7" d="M394,566.47a5.67,5.67,0,0,1,1.48,4.24v7.73h-1.8v-7.55a4.43,4.43,0,0,0-1-3.17,3.88,3.88,0,0,0-3-1.09,4.55,4.55,0,0,0-3.41,1.28,4.82,4.82,0,0,0-1.26,3.54v7h-1.79V565.11h1.72v2.46a5,5,0,0,1,2-1.89,6.5,6.5,0,0,1,3-.67A5.46,5.46,0,0,1,394,566.47Z"/><path class="cls-7" d="M399.56,578.16a1.34,1.34,0,0,1-.4-1,1.28,1.28,0,0,1,.4-1,1.27,1.27,0,0,1,.95-.4,1.31,1.31,0,0,1,1,.4,1.29,1.29,0,0,1,.41,1,1.35,1.35,0,0,1-.41,1,1.32,1.32,0,0,1-1,.41A1.28,1.28,0,0,1,399.56,578.16Z"/><path class="cls-7" d="M407.31,577.7a6.17,6.17,0,0,1-2.44-2.42,7.33,7.33,0,0,1,0-7,6.28,6.28,0,0,1,2.44-2.41,7.23,7.23,0,0,1,3.53-.86,6.8,6.8,0,0,1,3.08.67,5.07,5.07,0,0,1,2.14,2l-1.34.92a4.25,4.25,0,0,0-1.67-1.49,5.11,5.11,0,0,0-2.21-.49,5.21,5.21,0,0,0-2.59.65,4.53,4.53,0,0,0-1.8,1.83,6,6,0,0,0,0,5.44,4.57,4.57,0,0,0,1.8,1.82,5.21,5.21,0,0,0,2.59.65,5.1,5.1,0,0,0,2.21-.48,4.13,4.13,0,0,0,1.67-1.47l1.34.91a5,5,0,0,1-2.15,2,6.82,6.82,0,0,1-3.07.68A7.13,7.13,0,0,1,407.31,577.7Z"/><path class="cls-7" d="M421.36,577.69a6.35,6.35,0,0,1-2.43-2.42,7.31,7.31,0,0,1,0-7,6.32,6.32,0,0,1,2.43-2.41,7.43,7.43,0,0,1,6.94,0,6.23,6.23,0,0,1,2.42,2.41,7.38,7.38,0,0,1,0,7,6.25,6.25,0,0,1-2.42,2.42,7.28,7.28,0,0,1-6.94,0Zm6-1.37a4.5,4.5,0,0,0,1.76-1.83,6.17,6.17,0,0,0,0-5.43,4.5,4.5,0,0,0-1.76-1.83,5.31,5.31,0,0,0-5.09,0,4.55,4.55,0,0,0-1.78,1.83,6.08,6.08,0,0,0,0,5.43,4.55,4.55,0,0,0,1.78,1.83,5.31,5.31,0,0,0,5.09,0Z"/><path class="cls-7" d="M455.83,566.45a5.79,5.79,0,0,1,1.43,4.26v7.73h-1.8v-7.55a4.52,4.52,0,0,0-1-3.17,3.62,3.62,0,0,0-2.82-1.09,4.25,4.25,0,0,0-3.27,1.28,5,5,0,0,0-1.19,3.54v7h-1.8v-7.55a4.52,4.52,0,0,0-1-3.17,3.67,3.67,0,0,0-2.85-1.09,4.28,4.28,0,0,0-3.26,1.28,5,5,0,0,0-1.2,3.54v7h-1.8V565.11H437v2.43a4.89,4.89,0,0,1,2-1.87,6.21,6.21,0,0,1,2.91-.66,5.78,5.78,0,0,1,2.91.71,4.34,4.34,0,0,1,1.83,2.1,5.14,5.14,0,0,1,2.12-2.06,6.49,6.49,0,0,1,3.15-.75A5.3,5.3,0,0,1,455.83,566.45Z"/><path class="cls-7" d="M545.1,562a10.24,10.24,0,0,1,4.17,3.95,11.23,11.23,0,0,1,1.5,5.81,9.59,9.59,0,0,1-1.12,5,3.46,3.46,0,0,1-3.09,1.82,2.82,2.82,0,0,1-2-.74,2.92,2.92,0,0,1-.84-2,5.3,5.3,0,0,1-2.08,2,6.16,6.16,0,0,1-3,.73,6.26,6.26,0,0,1-3.21-.85,6.13,6.13,0,0,1-2.25-2.35,6.84,6.84,0,0,1-.83-3.37,6.74,6.74,0,0,1,.83-3.35,6,6,0,0,1,2.25-2.32,6.25,6.25,0,0,1,3.21-.84,6.07,6.07,0,0,1,2.93.7,5.54,5.54,0,0,1,2.09,2v-2.56h1.64v9.61a2.15,2.15,0,0,0,.43,1.47,1.51,1.51,0,0,0,1.14.45,2.1,2.1,0,0,0,1.89-1.42,9,9,0,0,0,.7-4,10,10,0,0,0-1.32-5.18,9.07,9.07,0,0,0-3.69-3.49,11.57,11.57,0,0,0-5.41-1.24,11.28,11.28,0,0,0-5.43,1.28,9.13,9.13,0,0,0-3.69,3.6,10.5,10.5,0,0,0-1.32,5.28,10.68,10.68,0,0,0,1.31,5.3,9.21,9.21,0,0,0,3.65,3.62,11,11,0,0,0,5.38,1.29,12.32,12.32,0,0,0,2.5-.27,9.48,9.48,0,0,0,2.37-.84l.43,1.24a10.21,10.21,0,0,1-2.52.86,13.61,13.61,0,0,1-2.78.31,12.4,12.4,0,0,1-6.1-1.47,10.49,10.49,0,0,1-4.15-4.1A11.9,11.9,0,0,1,527.2,572a11.65,11.65,0,0,1,1.5-5.94,10.41,10.41,0,0,1,4.19-4,13.7,13.7,0,0,1,12.21,0Zm-3.79,14.5a4.56,4.56,0,0,0,1.73-1.78,6,6,0,0,0,0-5.33,4.53,4.53,0,0,0-1.73-1.77,4.87,4.87,0,0,0-2.45-.62,5,5,0,0,0-2.5.63,4.53,4.53,0,0,0-1.72,1.78A5.35,5.35,0,0,0,534,572a5.43,5.43,0,0,0,.62,2.65,4.52,4.52,0,0,0,1.72,1.8,4.88,4.88,0,0,0,2.5.65A4.79,4.79,0,0,0,541.31,576.46Z"/><path class="cls-7" d="M566.91,565.11v11.71a5.85,5.85,0,0,1-6.67,6.66,11.31,11.31,0,0,1-3.51-.54,7.46,7.46,0,0,1-2.7-1.51l.92-1.37a6.87,6.87,0,0,0,2.34,1.34,8.78,8.78,0,0,0,2.9.48,5.16,5.16,0,0,0,3.73-1.17,5,5,0,0,0,1.19-3.67v-1.69a5.48,5.48,0,0,1-2.19,1.92,6.81,6.81,0,0,1-3,.66,7.1,7.1,0,0,1-3.41-.82,6.06,6.06,0,0,1-2.4-2.31,6.82,6.82,0,0,1,0-6.7,6,6,0,0,1,2.39-2.28,7.17,7.17,0,0,1,3.42-.81,6.85,6.85,0,0,1,3.07.68,5.53,5.53,0,0,1,2.2,2v-2.56Zm-4.21,10.6a4.44,4.44,0,0,0,1.81-1.73,5.25,5.25,0,0,0,0-5.06,4.59,4.59,0,0,0-1.8-1.72,5.85,5.85,0,0,0-5.22,0,4.39,4.39,0,0,0-1.8,1.72,5.34,5.34,0,0,0,0,5.07,4.48,4.48,0,0,0,1.8,1.73,5.34,5.34,0,0,0,2.6.62A5.41,5.41,0,0,0,562.7,575.71Z"/><path class="cls-7" d="M573.94,577.7a6.2,6.2,0,0,1-2.45-2.42,7.4,7.4,0,0,1,0-7,6.31,6.31,0,0,1,2.45-2.41,7.21,7.21,0,0,1,3.53-.86,6.8,6.8,0,0,1,3.08.67,5.13,5.13,0,0,1,2.14,2l-1.34.92a4.25,4.25,0,0,0-1.67-1.49,5.11,5.11,0,0,0-2.21-.49,5.25,5.25,0,0,0-2.6.65,4.57,4.57,0,0,0-1.79,1.83,6,6,0,0,0,0,5.44,4.61,4.61,0,0,0,1.79,1.82,5.25,5.25,0,0,0,2.6.65,5.1,5.1,0,0,0,2.21-.48,4.13,4.13,0,0,0,1.67-1.47l1.34.91a5,5,0,0,1-2.15,2,6.85,6.85,0,0,1-3.07.68A7.1,7.1,0,0,1,573.94,577.7Z"/><path class="cls-7" d="M588,577.7a6.26,6.26,0,0,1-2.45-2.42,7.4,7.4,0,0,1,0-7,6.37,6.37,0,0,1,2.45-2.41,7.23,7.23,0,0,1,3.53-.86,6.8,6.8,0,0,1,3.08.67,5.07,5.07,0,0,1,2.14,2l-1.34.92a4.25,4.25,0,0,0-1.67-1.49,5.11,5.11,0,0,0-2.21-.49,5.21,5.21,0,0,0-2.59.65,4.53,4.53,0,0,0-1.8,1.83,6,6,0,0,0,0,5.44,4.57,4.57,0,0,0,1.8,1.82,5.21,5.21,0,0,0,2.59.65,5.1,5.1,0,0,0,2.21-.48,4.13,4.13,0,0,0,1.67-1.47l1.34.91a5,5,0,0,1-2.15,2,6.82,6.82,0,0,1-3.07.68A7.13,7.13,0,0,1,588,577.7Z"/><path class="cls-7" d="M602.92,561.67a2.65,2.65,0,0,0-.59,1.87v1.57h4.1v1.52h-4v11.81h-1.8V566.63H598.2v-1.52h2.38v-1.65a3.91,3.91,0,0,1,1-2.88,4,4,0,0,1,3-1.07,4.9,4.9,0,0,1,1.47.22,3.28,3.28,0,0,1,1.19.62l-.61,1.34a3,3,0,0,0-2-.66A2.29,2.29,0,0,0,602.92,561.67Z"/><path class="cls-7" d="M614.48,565.69a6.46,6.46,0,0,1,3.1-.68v1.75l-.43,0a4.25,4.25,0,0,0-3.29,1.29,5.14,5.14,0,0,0-1.19,3.63v6.79h-1.8V565.11h1.72v2.61A4.38,4.38,0,0,1,614.48,565.69Z"/><path class="cls-7" d="M629.49,566.31a5,5,0,0,1,1.39,3.87v8.26h-1.72v-2.08a4.16,4.16,0,0,1-1.79,1.62,6.19,6.19,0,0,1-2.8.59A5.46,5.46,0,0,1,621,577.5a3.66,3.66,0,0,1-.09-5.55,6,6,0,0,1,3.91-1h4.23v-.81a3.41,3.41,0,0,0-1-2.62,4,4,0,0,0-2.81-.9,7.05,7.05,0,0,0-2.43.42,6,6,0,0,0-2,1.15l-.82-1.34a7.09,7.09,0,0,1,2.44-1.33,9.5,9.5,0,0,1,3-.47A5.63,5.63,0,0,1,629.49,566.31Zm-2,10.14a4.1,4.1,0,0,0,1.62-2v-2.17H624.9c-2.28,0-3.42.79-3.42,2.38a2.16,2.16,0,0,0,.89,1.83,4,4,0,0,0,2.48.68A4.75,4.75,0,0,0,627.46,576.45Z"/><path class="cls-7" d="M646.55,566.47a5.67,5.67,0,0,1,1.49,4.24v7.73h-1.8v-7.55a4.43,4.43,0,0,0-1-3.17,3.89,3.89,0,0,0-3-1.09,4.55,4.55,0,0,0-3.4,1.28,4.82,4.82,0,0,0-1.26,3.54v7h-1.8V565.11h1.73v2.46a5,5,0,0,1,2-1.89,6.49,6.49,0,0,1,3-.67A5.43,5.43,0,0,1,646.55,566.47Z"/><path class="cls-7" d="M657.87,571.75l-3.14,2.89v3.8h-1.8v-18.8h1.8v12.74l7.95-7.27h2.23l-5.7,5.45,6.23,7.88h-2.2Z"/><path class="cls-7" d="M668.16,559.64H670v18.8h-1.79Z"/><path class="cls-7" d="M675,561.82a1.24,1.24,0,0,1-.38-.92A1.18,1.18,0,0,1,675,560a1.23,1.23,0,0,1,.93-.38,1.31,1.31,0,0,1,.94.36,1.2,1.2,0,0,1,.38.88,1.31,1.31,0,0,1-.38.94,1.29,1.29,0,0,1-.94.38A1.27,1.27,0,0,1,675,561.82Zm0,3.29h1.8v13.33H675Z"/><path class="cls-7" d="M692.57,566.47a5.67,5.67,0,0,1,1.48,4.24v7.73h-1.8v-7.55a4.39,4.39,0,0,0-1-3.17,3.88,3.88,0,0,0-3-1.09,4.57,4.57,0,0,0-3.41,1.28,4.81,4.81,0,0,0-1.25,3.54v7h-1.8V565.11h1.72v2.46a5,5,0,0,1,2-1.89,6.5,6.5,0,0,1,3-.67A5.46,5.46,0,0,1,692.57,566.47Z"/></g><path class="cls-4" d="M198.28,378.09l-9,3.47,9,3.47v2.1l-11.35-4.48v-2.18L198.28,376Z"/><path class="cls-4" d="M213,378.09l-9,3.47,9,3.47v2.1l-11.35-4.48v-2.18L213,376Z"/><path class="cls-4" d="M220.91,374.9h-6.08v-2.21H229.5v2.21h-6.08v15.53h-2.51Z"/><path class="cls-4" d="M231.64,374a1.51,1.51,0,0,1-.47-1.12,1.54,1.54,0,0,1,.47-1.12,1.56,1.56,0,0,1,1.18-.47,1.69,1.69,0,0,1,1.18.44,1.46,1.46,0,0,1,.46,1.1A1.59,1.59,0,0,1,234,374a1.73,1.73,0,0,1-2.36,0Zm0,3H234v13.43H231.6Z"/><path class="cls-4" d="M246.22,389.64a3.47,3.47,0,0,1-1.32.7,5.48,5.48,0,0,1-1.62.24,4.28,4.28,0,0,1-3.14-1.09,4.17,4.17,0,0,1-1.12-3.11V379h-2.28v-2H239v-2.94h2.44V377h3.85v2h-3.85v7.27A2.39,2.39,0,0,0,242,388a2.07,2.07,0,0,0,1.56.58,2.89,2.89,0,0,0,1.9-.64Z"/><path class="cls-4" d="M249.16,371.63h2.43v18.8h-2.43Z"/><path class="cls-4" d="M268.32,384.53h-10.9a4.21,4.21,0,0,0,1.56,2.85,5.14,5.14,0,0,0,3.31,1.07,5,5,0,0,0,3.87-1.62l1.34,1.57a5.8,5.8,0,0,1-2.26,1.62,7.79,7.79,0,0,1-3,.56,8,8,0,0,1-3.78-.87,6.31,6.31,0,0,1-2.54-2.45,7,7,0,0,1-.9-3.55,7.15,7.15,0,0,1,.87-3.52,6.28,6.28,0,0,1,2.41-2.44,6.77,6.77,0,0,1,3.46-.88,6.64,6.64,0,0,1,3.43.88,6.09,6.09,0,0,1,2.36,2.44,7.54,7.54,0,0,1,.85,3.6C268.37,384,268.35,384.22,268.32,384.53ZM258.8,380a4.34,4.34,0,0,0-1.38,2.79H266a4.35,4.35,0,0,0-1.39-2.78,4.15,4.15,0,0,0-2.92-1.08A4.21,4.21,0,0,0,258.8,380Z"/><path class="cls-4" d="M282.48,380.47v2.18l-11.35,4.48V385l9-3.47-9-3.47V376Z"/><path class="cls-4" d="M297.23,380.47v2.18l-11.36,4.48V385l9-3.47-9-3.47V376Z"/><rect class="cls-4" x="929.88" y="199.67" width="227.52" height="369.3"/><rect class="cls-8" x="702.36" y="199.67" width="227.52" height="369.3"/><rect class="cls-9" x="474.83" y="199.67" width="227.52" height="369.3"/><rect class="cls-10" x="474.83" y="568.98" width="600.31" height="139.21"/><rect class="cls-3" x="1014.08" y="568.98" width="345.02" height="139.21"/><rect class="cls-11" x="1157.4" y="199.67" width="201.7" height="369.3"/><path class="cls-2" d="M504.18,244.33a8,8,0,0,1-3.15-3,8.69,8.69,0,0,1,0-8.64,8,8,0,0,1,3.15-3,9.37,9.37,0,0,1,4.51-1.08,9.57,9.57,0,0,1,3.82.74,7.78,7.78,0,0,1,2.86,2.13L513,233.72a5.18,5.18,0,0,0-4.08-1.9,5.42,5.42,0,0,0-2.69.66,4.74,4.74,0,0,0-1.85,1.84,5.81,5.81,0,0,0,0,5.38,4.74,4.74,0,0,0,1.85,1.84,5.42,5.42,0,0,0,2.69.67,5.18,5.18,0,0,0,4.08-1.93l2.41,2.23a7.43,7.43,0,0,1-2.88,2.15,10.08,10.08,0,0,1-8.31-.33Z"/><path class="cls-2" d="M523.17,244.31a8.06,8.06,0,0,1-3.18-3,8.68,8.68,0,0,1,0-8.6,8.13,8.13,0,0,1,3.18-3,10,10,0,0,1,9.1,0,8.27,8.27,0,0,1,0,14.6,10,10,0,0,1-9.1,0Zm7.15-2.77a4.67,4.67,0,0,0,1.82-1.84,5.81,5.81,0,0,0,0-5.38,4.67,4.67,0,0,0-1.82-1.84,5.43,5.43,0,0,0-5.19,0,4.73,4.73,0,0,0-1.82,1.84,5.81,5.81,0,0,0,0,5.38,4.73,4.73,0,0,0,1.82,1.84,5.36,5.36,0,0,0,5.19,0Z"/><path class="cls-2" d="M541.75,228.9h3.76v13.17h8.14v3.06h-11.9Z"/><path class="cls-2" d="M561.1,244.31a8.06,8.06,0,0,1-3.18-3,8.68,8.68,0,0,1,0-8.6,8.13,8.13,0,0,1,3.18-3,10,10,0,0,1,9.1,0,8.27,8.27,0,0,1,0,14.6,10,10,0,0,1-9.1,0Zm7.15-2.77a4.67,4.67,0,0,0,1.82-1.84,5.81,5.81,0,0,0,0-5.38,4.67,4.67,0,0,0-1.82-1.84,5.43,5.43,0,0,0-5.19,0,4.73,4.73,0,0,0-1.82,1.84,5.81,5.81,0,0,0,0,5.38,4.73,4.73,0,0,0,1.82,1.84,5.36,5.36,0,0,0,5.19,0Z"/><path class="cls-2" d="M590,245.13l-3.13-4.53h-3.46v4.53h-3.75V228.9h7a8.94,8.94,0,0,1,3.74.72,5.44,5.44,0,0,1,2.45,2,5.62,5.62,0,0,1,.86,3.13,5.3,5.3,0,0,1-3.34,5.12l3.64,5.22Zm-.95-12.44a4,4,0,0,0-2.58-.73h-3.06v5.65h3.06a3.89,3.89,0,0,0,2.58-.74,2.92,2.92,0,0,0,0-4.18Z"/><path class="cls-2" d="M600.66,244.88a8.73,8.73,0,0,1-2.89-1.35L599,240.7a8.77,8.77,0,0,0,2.49,1.23,9.21,9.21,0,0,0,2.87.46,4.64,4.64,0,0,0,2.36-.47,1.43,1.43,0,0,0,.77-1.27,1.19,1.19,0,0,0-.45-1,3.45,3.45,0,0,0-1.16-.62c-.47-.15-1.11-.32-1.91-.51a24.55,24.55,0,0,1-3-.88,4.85,4.85,0,0,1-2-1.41,3.86,3.86,0,0,1-.85-2.6,4.53,4.53,0,0,1,.77-2.56,5.19,5.19,0,0,1,2.31-1.82,9.33,9.33,0,0,1,3.76-.67,12.34,12.34,0,0,1,3,.37,8.87,8.87,0,0,1,2.6,1.07l-1.16,2.85a9.07,9.07,0,0,0-4.5-1.28,4.21,4.21,0,0,0-2.33.51,1.56,1.56,0,0,0-.75,1.35,1.32,1.32,0,0,0,.87,1.24,14.16,14.16,0,0,0,2.65.8,26.43,26.43,0,0,1,3,.88,5.06,5.06,0,0,1,2,1.39,3.74,3.74,0,0,1,.84,2.57,4.47,4.47,0,0,1-.77,2.54,5.24,5.24,0,0,1-2.33,1.82,9.5,9.5,0,0,1-3.78.67A13.11,13.11,0,0,1,600.66,244.88Z"/><path class="cls-2" d="M969.25,432.1v13.53h-2.57l-6.74-8.21v8.21h-3.09V432.1h2.58l6.73,8.22V432.1Z"/><path class="cls-2" d="M983.3,442.73H977l-1.2,2.9h-3.21l6-13.53h3.09l6,13.53h-3.29Zm-1-2.38-2.14-5.17L978,440.35Z"/><path class="cls-2" d="M1003.39,432.1l-5.85,13.53h-3.1l-5.83-13.53H992l4.12,9.66,4.17-9.66Z"/><path class="cls-2" d="M1012.74,440.84v4.79h-3.13V440.8l-5.23-8.7h3.32l3.61,6,3.61-6H1018Z"/><path class="cls-2" d="M966.68,468.81l-3.09-4.34c-.35,0-.71,0-1.08,0h-3.63v4.29h-1.44V455.29h5.07a6.07,6.07,0,0,1,4,1.24,4.19,4.19,0,0,1,1.47,3.4,4.42,4.42,0,0,1-.8,2.67,4.47,4.47,0,0,1-2.29,1.58l3.31,4.63Zm-1.14-6.39a3.05,3.05,0,0,0,1.06-2.49,3.1,3.1,0,0,0-1.06-2.53,4.74,4.74,0,0,0-3.07-.87h-3.59v6.78h3.59A4.68,4.68,0,0,0,965.54,462.42Z"/><path class="cls-2" d="M972.47,460.37a1.05,1.05,0,0,1-.3-.75,1,1,0,0,1,.3-.75,1,1,0,0,1,.72-.3,1,1,0,0,1,.73.3,1,1,0,0,1,.31.75,1,1,0,0,1-.31.75,1,1,0,0,1-.73.31A1,1,0,0,1,972.47,460.37Zm0,8.23a1,1,0,0,1-.3-.75,1,1,0,0,1,.3-.75,1,1,0,0,1,.72-.3,1,1,0,0,1,.73.3,1,1,0,0,1,.31.75,1,1,0,0,1-.31.75,1,1,0,0,1-.73.31A1,1,0,0,1,972.47,468.6Z"/><path class="cls-2" d="M993,461.89a3.51,3.51,0,0,1,1.35,2.94,4.12,4.12,0,0,1-.55,2.11,3.78,3.78,0,0,1-1.66,1.46,6.22,6.22,0,0,1-2.7.53,8.06,8.06,0,0,1-2.75-.47,5.69,5.69,0,0,1-2.1-1.27l.68-1.1a5,5,0,0,0,1.77,1.13,6.45,6.45,0,0,0,2.38.43,4,4,0,0,0,2.6-.75,2.47,2.47,0,0,0,.92-2,2.38,2.38,0,0,0-1-2.1,6.31,6.31,0,0,0-3.48-.72h-2.88l.69-6.78h7.4v1.24h-6.18l-.46,4.3h1.73A6.88,6.88,0,0,1,993,461.89Z"/><path class="cls-2" d="M1009.53,465.26h-2.7v3.55h-1.39v-3.55H997.8v-1l7.17-9h1.55L999.6,464h5.88v-3.13h1.35V464h2.7Z"/><path class="cls-2" d="M967,485.24h1.37v5.16a6.74,6.74,0,0,1-2.24,1.27,8.21,8.21,0,0,1-2.72.45,7.54,7.54,0,0,1-3.66-.89,6.65,6.65,0,0,1-2.55-2.47,7.21,7.21,0,0,1,0-7.05,6.56,6.56,0,0,1,2.55-2.46,7.59,7.59,0,0,1,3.68-.89,7.92,7.92,0,0,1,2.84.49,5.7,5.7,0,0,1,2.18,1.46l-.89.91a5.56,5.56,0,0,0-4.08-1.59,6.09,6.09,0,0,0-3,.73,5.29,5.29,0,0,0-2.08,2,5.85,5.85,0,0,0,0,5.73,5.4,5.4,0,0,0,2.07,2,6.44,6.44,0,0,0,6.49-.31Z"/><path class="cls-2" d="M973.43,483.56a1.06,1.06,0,0,1-.3-.76,1,1,0,0,1,.3-.74,1,1,0,0,1,.73-.3,1,1,0,0,1,.73.3,1,1,0,0,1,.31.74,1.06,1.06,0,0,1-1,1.07A1,1,0,0,1,973.43,483.56Zm0,8.23a1.06,1.06,0,0,1-.3-.76,1,1,0,0,1,.3-.74,1,1,0,0,1,.73-.3,1,1,0,0,1,.73.3,1,1,0,0,1,.31.74,1.06,1.06,0,0,1-1,1.07A1,1,0,0,1,973.43,491.79Z"/><path class="cls-2" d="M994,485.07a3.55,3.55,0,0,1,1.34,2.95,4.05,4.05,0,0,1-.55,2.11,3.79,3.79,0,0,1-1.65,1.45,6.12,6.12,0,0,1-2.71.54,7.92,7.92,0,0,1-2.75-.48,5.68,5.68,0,0,1-2.1-1.26l.68-1.11a4.88,4.88,0,0,0,1.78,1.14,6.4,6.4,0,0,0,2.37.43,4,4,0,0,0,2.6-.75,2.47,2.47,0,0,0,.92-2,2.4,2.4,0,0,0-1-2.11,6.34,6.34,0,0,0-3.49-.71H986.5l.7-6.79h7.4v1.24h-6.19L988,484h1.74A7,7,0,0,1,994,485.07Z"/><path class="cls-2" d="M1008.71,486.18a3.16,3.16,0,0,1,.69,2.05,3.45,3.45,0,0,1-.64,2.06,4,4,0,0,1-1.83,1.35,7.41,7.41,0,0,1-2.79.48,6.19,6.19,0,0,1-3.82-1.05,3.34,3.34,0,0,1-1.39-2.84,3.24,3.24,0,0,1,.66-2.06,4,4,0,0,1,1.94-1.26,3.38,3.38,0,0,1-1.58-1.17,3.05,3.05,0,0,1-.54-1.81,3.12,3.12,0,0,1,1.28-2.61,5.65,5.65,0,0,1,3.45-1,6.61,6.61,0,0,1,2.5.43,3.8,3.8,0,0,1,1.68,1.25,3.15,3.15,0,0,1,.59,1.89,2.93,2.93,0,0,1-.56,1.81,3.44,3.44,0,0,1-1.6,1.17A4.14,4.14,0,0,1,1008.71,486.18Zm-1.76,4a2.44,2.44,0,0,0,0-4,5.8,5.8,0,0,0-5.6,0,2.3,2.3,0,0,0-1,2,2.32,2.32,0,0,0,1,2,5.72,5.72,0,0,0,5.61,0Zm-5.26-6.45a4,4,0,0,0,2.45.66,4.09,4.09,0,0,0,2.47-.66,2.21,2.21,0,0,0,0-3.56,4.2,4.2,0,0,0-2.45-.65,4.11,4.11,0,0,0-2.44.65,2.22,2.22,0,0,0,0,3.56Z"/><path class="cls-2" d="M968,509.36a3.27,3.27,0,0,1,.73,2.21,3.12,3.12,0,0,1-1.29,2.68,6.42,6.42,0,0,1-3.79.93h-6.23V501.66h5.84a5.84,5.84,0,0,1,3.51.91,3,3,0,0,1,1.24,2.57,3.2,3.2,0,0,1-.55,1.9,3.27,3.27,0,0,1-1.52,1.17A3.58,3.58,0,0,1,968,509.36Zm-9.14-6.52v4.91h4.3a4.32,4.32,0,0,0,2.53-.63,2.09,2.09,0,0,0,.89-1.83,2.06,2.06,0,0,0-.89-1.82,4.32,4.32,0,0,0-2.53-.63Zm7.51,10.55a2.17,2.17,0,0,0,.93-1.93c0-1.69-1.23-2.54-3.67-2.54h-4.77V514h4.77A5,5,0,0,0,966.39,513.39Z"/><path class="cls-2" d="M973.07,506.74a1.05,1.05,0,0,1-.3-.75,1,1,0,0,1,.3-.75,1,1,0,0,1,.72-.3,1,1,0,0,1,.73.3,1,1,0,0,1,.31.75,1,1,0,0,1-.31.75,1,1,0,0,1-.73.31A1,1,0,0,1,973.07,506.74Zm0,8.23a1,1,0,0,1-.3-.75,1,1,0,0,1,.3-.75,1,1,0,0,1,.72-.3,1,1,0,0,1,.73.3,1,1,0,0,1,.31.75,1,1,0,0,1-.31.75,1,1,0,0,1-.73.31A1,1,0,0,1,973.07,515Z"/><path class="cls-2" d="M993.74,507.59a3.79,3.79,0,0,1,2.19,3.56,3.92,3.92,0,0,1-2.25,3.64,5.35,5.35,0,0,1-2.37.51,5,5,0,0,1-4.11-1.77,7.76,7.76,0,0,1-1.43-5,8.66,8.66,0,0,1,.77-3.83,5.5,5.5,0,0,1,2.17-2.37,6.38,6.38,0,0,1,3.24-.8,6.1,6.1,0,0,1,3.21.74l-.56,1.12a4.7,4.7,0,0,0-2.63-.64,4.49,4.49,0,0,0-3.52,1.42,6,6,0,0,0-1.27,4.13c0,.32,0,.68.06,1.1a3.58,3.58,0,0,1,1.6-1.71,5.09,5.09,0,0,1,2.53-.61A5.43,5.43,0,0,1,993.74,507.59Zm-.1,5.73a2.7,2.7,0,0,0,.92-2.14,2.68,2.68,0,0,0-.92-2.12,3.66,3.66,0,0,0-2.48-.79,4.15,4.15,0,0,0-1.81.38,3,3,0,0,0-1.22,1.07,2.65,2.65,0,0,0-.45,1.5,2.6,2.6,0,0,0,.42,1.43,2.9,2.9,0,0,0,1.22,1.06,4.18,4.18,0,0,0,1.94.41A3.51,3.51,0,0,0,993.64,513.32Z"/><path class="cls-2" d="M1007.44,507.59a3.79,3.79,0,0,1,2.19,3.56,3.92,3.92,0,0,1-2.25,3.64,5.35,5.35,0,0,1-2.37.51,5,5,0,0,1-4.11-1.77,7.7,7.7,0,0,1-1.43-5,8.52,8.52,0,0,1,.77-3.83,5.54,5.54,0,0,1,2.16-2.37,6.44,6.44,0,0,1,3.25-.8,6.1,6.1,0,0,1,3.21.74l-.56,1.12a4.7,4.7,0,0,0-2.63-.64,4.47,4.47,0,0,0-3.52,1.42,6,6,0,0,0-1.27,4.13c0,.32,0,.68.06,1.1a3.58,3.58,0,0,1,1.6-1.71,5.09,5.09,0,0,1,2.53-.61A5.43,5.43,0,0,1,1007.44,507.59Zm-.1,5.73a2.7,2.7,0,0,0,.92-2.14,2.68,2.68,0,0,0-.92-2.12,3.66,3.66,0,0,0-2.48-.79,4.12,4.12,0,0,0-1.81.38,3,3,0,0,0-1.22,1.07,2.65,2.65,0,0,0-.45,1.5,2.6,2.6,0,0,0,.42,1.43,2.9,2.9,0,0,0,1.22,1.06,4.18,4.18,0,0,0,1.94.41A3.51,3.51,0,0,0,1007.34,513.32Z"/><path class="cls-2" d="M965.25,529.58l-.5,4.06h2.74v1.06h-2.88l-.44,3.67h-1l.44-3.67h-4l-.47,3.67h-1l.45-3.67H955.8v-1.06h2.88l.5-4.06h-2.76v-1.06h2.9l.44-3.68h1.07l-.47,3.68h4l.45-3.68h1l-.44,3.68h2.72v1.06Zm-1,0h-4l-.53,4.06h4Z"/><path class="cls-2" d="M979.46,531.79a3.52,3.52,0,0,1,1.11,2.7,3.82,3.82,0,0,1-.56,2,3.76,3.76,0,0,1-1.66,1.42,6.2,6.2,0,0,1-2.69.53,8,8,0,0,1-2.77-.48,5.68,5.68,0,0,1-2.1-1.26l.68-1.11a4.89,4.89,0,0,0,1.8,1.14,6.5,6.5,0,0,0,2.39.43,4,4,0,0,0,2.57-.72,2.42,2.42,0,0,0,.91-2,2.38,2.38,0,0,0-.91-2,4.42,4.42,0,0,0-2.74-.71h-1v-1l3.75-4.7h-6.91v-1.24h8.69v1l-3.83,4.81A5,5,0,0,1,979.46,531.79Z"/><path class="cls-2" d="M992.42,530.78A3.8,3.8,0,0,1,994,532.2a4.23,4.23,0,0,1,0,4.31,3.9,3.9,0,0,1-1.65,1.46,5.36,5.36,0,0,1-2.37.52,5,5,0,0,1-4.12-1.77,7.79,7.79,0,0,1-1.42-5,8.5,8.5,0,0,1,.77-3.82,5.36,5.36,0,0,1,2.16-2.37,6.44,6.44,0,0,1,3.25-.8,6,6,0,0,1,3.2.73l-.56,1.12a4.75,4.75,0,0,0-2.62-.63,4.47,4.47,0,0,0-3.52,1.42,6,6,0,0,0-1.27,4.12c0,.32,0,.69,0,1.1a3.7,3.7,0,0,1,1.61-1.71,5.63,5.63,0,0,1,4.89-.1Zm-.09,5.72a2.93,2.93,0,0,0,0-4.26,3.71,3.71,0,0,0-2.48-.79,4,4,0,0,0-1.81.39,3.11,3.11,0,0,0-1.23,1.06,2.76,2.76,0,0,0,0,2.94A3,3,0,0,0,988,536.9a4.29,4.29,0,0,0,1.93.41A3.48,3.48,0,0,0,992.33,536.5Z"/><path class="cls-2" d="M1006,531.79a3.52,3.52,0,0,1,1.11,2.7,3.82,3.82,0,0,1-.56,2,3.76,3.76,0,0,1-1.66,1.42,6.23,6.23,0,0,1-2.69.53,8,8,0,0,1-2.77-.48,5.68,5.68,0,0,1-2.1-1.26l.68-1.11a4.93,4.93,0,0,0,1.79,1.14,6.59,6.59,0,0,0,2.4.43,4,4,0,0,0,2.57-.72,2.42,2.42,0,0,0,.91-2,2.38,2.38,0,0,0-.91-2,4.42,4.42,0,0,0-2.74-.71h-1v-1l3.75-4.7h-6.92v-1.24h8.7v1l-3.83,4.81A5,5,0,0,1,1006,531.79Z"/><path class="cls-2" d="M1020.74,534.76h-7.54l-1.62,3.61h-1.49l6.19-13.53h1.41l6.18,13.53h-1.51Zm-.52-1.16-3.25-7.27-3.24,7.27Z"/><path class="cls-2" d="M1038.05,534.81h-2.71v3.56H1034v-3.56h-7.63v-1l7.17-9H1035l-6.92,8.74H1034v-3.13h1.35v3.13h2.71Z"/><path class="cls-2" d="M1050.42,537.13v1.24h-9.49v-1l5.62-5.5a7.28,7.28,0,0,0,1.44-1.81,3.46,3.46,0,0,0,.38-1.53,2.29,2.29,0,0,0-.82-1.87,3.67,3.67,0,0,0-2.35-.67,4.65,4.65,0,0,0-3.69,1.51l-1-.85a5.23,5.23,0,0,1,2-1.43,7.37,7.37,0,0,1,2.78-.5,5.06,5.06,0,0,1,3.27,1,3.28,3.28,0,0,1,1.21,2.68,4.56,4.56,0,0,1-.47,2,8.55,8.55,0,0,1-1.75,2.22l-4.6,4.52Z"/><path class="cls-2" d="M726.68,432.1h3.13v13.53h-3.13Z"/><path class="cls-2" d="M747.36,432.1v13.53h-2.57L738,437.42v8.21H735V432.1h2.59l6.72,8.22V432.1Z"/><path class="cls-2" d="M757.42,440.32l-1.81,1.89v3.42H752.5V432.1h3.11v6.32l6-6.32h3.47l-5.6,6,5.93,7.5h-3.65Z"/><path class="cls-2" d="M736.52,468.81l-3.09-4.34c-.35,0-.71,0-1.09,0h-3.63v4.29h-1.43V455.29h5.06a6.08,6.08,0,0,1,4.06,1.24,4.19,4.19,0,0,1,1.47,3.4,4.42,4.42,0,0,1-.8,2.67,4.52,4.52,0,0,1-2.29,1.58l3.3,4.63Zm-1.14-6.39a3.05,3.05,0,0,0,1.06-2.49,3.1,3.1,0,0,0-1.06-2.53,4.74,4.74,0,0,0-3.07-.87h-3.6v6.78h3.6A4.68,4.68,0,0,0,735.38,462.42Z"/><path class="cls-2" d="M742.3,460.37a1.05,1.05,0,0,1-.3-.75,1,1,0,0,1,.3-.75,1,1,0,0,1,1.46,0,1,1,0,0,1,.31.75,1,1,0,0,1-.31.75,1,1,0,0,1-1.46,0Zm0,8.23a1,1,0,0,1-.3-.75,1,1,0,0,1,.3-.75,1,1,0,0,1,1.46,0,1,1,0,0,1,.31.75,1,1,0,0,1-.31.75,1,1,0,0,1-1.46,0Z"/><path class="cls-2" d="M764.24,467.58v1.23h-9.48v-1l5.62-5.51a7.26,7.26,0,0,0,1.44-1.8,3.48,3.48,0,0,0,.37-1.54,2.28,2.28,0,0,0-.82-1.87,3.64,3.64,0,0,0-2.34-.66,4.64,4.64,0,0,0-3.7,1.51l-1-.85a5.25,5.25,0,0,1,2-1.44,7.35,7.35,0,0,1,2.77-.5,5.09,5.09,0,0,1,3.28,1,3.25,3.25,0,0,1,1.2,2.67,4.55,4.55,0,0,1-.46,2,8.48,8.48,0,0,1-1.76,2.23l-4.6,4.52Z"/><path class="cls-2" d="M777.62,463a3.14,3.14,0,0,1,.69,2.05,3.42,3.42,0,0,1-.64,2.05,4,4,0,0,1-1.83,1.36,7.62,7.62,0,0,1-2.79.47,6.26,6.26,0,0,1-3.82-1,3.37,3.37,0,0,1-1.39-2.84,3.22,3.22,0,0,1,.66-2.06,4.1,4.1,0,0,1,1.94-1.27,3.38,3.38,0,0,1-1.58-1.17,3,3,0,0,1-.54-1.8,3.1,3.1,0,0,1,1.28-2.61,5.65,5.65,0,0,1,3.45-1,6.61,6.61,0,0,1,2.5.44,3.78,3.78,0,0,1,1.68,1.24,3.11,3.11,0,0,1,.59,1.9,2.92,2.92,0,0,1-.56,1.8,3.44,3.44,0,0,1-1.6,1.17A4.15,4.15,0,0,1,777.62,463Zm-1.76,4a2.34,2.34,0,0,0,1-2,2.29,2.29,0,0,0-1-2,5.73,5.73,0,0,0-5.6,0,2.28,2.28,0,0,0-1,2,2.33,2.33,0,0,0,1,2,5.79,5.79,0,0,0,5.61,0Zm-5.26-6.46a4,4,0,0,0,2.45.66,4.09,4.09,0,0,0,2.47-.66,2.07,2.07,0,0,0,.89-1.75,2.1,2.1,0,0,0-.91-1.8,4.13,4.13,0,0,0-2.45-.66,4,4,0,0,0-2.44.66,2.21,2.21,0,0,0,0,3.55Z"/><path class="cls-2" d="M736.81,485.24h1.37v5.16a6.74,6.74,0,0,1-2.24,1.27,8.23,8.23,0,0,1-2.73.45,7.5,7.5,0,0,1-3.65-.89,6.65,6.65,0,0,1-2.55-2.47,7.15,7.15,0,0,1,0-7.05,6.56,6.56,0,0,1,2.55-2.46,7.55,7.55,0,0,1,3.67-.89,7.88,7.88,0,0,1,2.84.49,5.74,5.74,0,0,1,2.19,1.46l-.89.91a5.56,5.56,0,0,0-4.08-1.59,6.09,6.09,0,0,0-3,.73,5.23,5.23,0,0,0-2.08,2,5.85,5.85,0,0,0,0,5.73,5.4,5.4,0,0,0,2.07,2,6.44,6.44,0,0,0,6.49-.31Z"/><path class="cls-2" d="M743.27,483.56a1.06,1.06,0,0,1-.3-.76,1,1,0,0,1,.3-.74,1,1,0,0,1,.72-.3,1,1,0,0,1,1,1,1.07,1.07,0,0,1-.31.76,1,1,0,0,1-.74.31A1,1,0,0,1,743.27,483.56Zm0,8.23a1.06,1.06,0,0,1-.3-.76,1,1,0,0,1,.3-.74,1,1,0,0,1,.72-.3,1,1,0,0,1,1,1,1.07,1.07,0,0,1-.31.76,1,1,0,0,1-.74.31A1,1,0,0,1,743.27,491.79Z"/><path class="cls-2" d="M763.81,485.42a3.52,3.52,0,0,1,1.11,2.7,3.67,3.67,0,0,1-2.22,3.47,6.23,6.23,0,0,1-2.69.53,8,8,0,0,1-2.77-.48,5.68,5.68,0,0,1-2.1-1.26l.68-1.11a4.93,4.93,0,0,0,1.79,1.14,6.59,6.59,0,0,0,2.4.43,4.05,4.05,0,0,0,2.57-.72,2.42,2.42,0,0,0,.91-2,2.38,2.38,0,0,0-.91-2,4.44,4.44,0,0,0-2.74-.71h-1v-1l3.75-4.7H755.7v-1.24h8.7v1l-3.83,4.81A5,5,0,0,1,763.81,485.42Z"/><path class="cls-2" d="M776.54,485.42a3.52,3.52,0,0,1,1.11,2.7,3.82,3.82,0,0,1-.56,2.05,3.76,3.76,0,0,1-1.66,1.42,6.23,6.23,0,0,1-2.69.53,8,8,0,0,1-2.77-.48,5.68,5.68,0,0,1-2.1-1.26l.68-1.11a4.89,4.89,0,0,0,1.8,1.14,6.5,6.5,0,0,0,2.39.43,4,4,0,0,0,2.57-.72,2.42,2.42,0,0,0,.91-2,2.38,2.38,0,0,0-.91-2,4.42,4.42,0,0,0-2.74-.71h-1v-1l3.75-4.7h-6.92v-1.24h8.7v1l-3.83,4.81A5,5,0,0,1,776.54,485.42Z"/><path class="cls-2" d="M737.86,509.36a3.32,3.32,0,0,1,.72,2.21,3.11,3.11,0,0,1-1.28,2.68,6.45,6.45,0,0,1-3.8.93h-6.22V501.66h5.84a5.81,5.81,0,0,1,3.5.91,3,3,0,0,1,1.25,2.57,3.2,3.2,0,0,1-.55,1.9,3.32,3.32,0,0,1-1.52,1.17A3.58,3.58,0,0,1,737.86,509.36Zm-9.15-6.52v4.91H733a4.32,4.32,0,0,0,2.53-.63,2.11,2.11,0,0,0,.89-1.83,2.08,2.08,0,0,0-.89-1.82,4.32,4.32,0,0,0-2.53-.63Zm7.52,10.55a2.17,2.17,0,0,0,.93-1.93q0-2.54-3.68-2.54h-4.77V514h4.77A5,5,0,0,0,736.23,513.39Z"/><path class="cls-2" d="M742.9,506.74a1.05,1.05,0,0,1-.3-.75,1,1,0,0,1,.3-.75,1,1,0,0,1,.73-.3,1,1,0,0,1,.73.3,1,1,0,0,1,.31.75,1,1,0,0,1-.31.75,1,1,0,0,1-.73.31A1,1,0,0,1,742.9,506.74Zm0,8.23a1,1,0,0,1-.3-.75,1,1,0,0,1,.3-.75,1,1,0,0,1,.73-.3,1,1,0,0,1,.73.3,1,1,0,0,1,.31.75,1,1,0,0,1-.31.75,1,1,0,0,1-.73.31A1,1,0,0,1,742.9,515Z"/><path class="cls-2" d="M767.1,511.63h-2.7v3.55H763v-3.55h-7.64v-1l7.17-9h1.55l-6.92,8.73H763v-3.13h1.36v3.13h2.7Z"/><path class="cls-2" d="M772.91,514.47a5.35,5.35,0,0,1-1.91-2.39,10.05,10.05,0,0,1,0-7.32,5.4,5.4,0,0,1,1.91-2.39,5.1,5.1,0,0,1,5.58,0,5.58,5.58,0,0,1,1.93,2.39,10.05,10.05,0,0,1,0,7.32,5.52,5.52,0,0,1-1.93,2.39,5.1,5.1,0,0,1-5.58,0Zm4.87-1.1a4.32,4.32,0,0,0,1.4-1.91,9.46,9.46,0,0,0,0-6.07,4.21,4.21,0,0,0-1.4-1.91,3.61,3.61,0,0,0-4.16,0,4.28,4.28,0,0,0-1.4,1.91,9.46,9.46,0,0,0,0,6.07,4.39,4.39,0,0,0,1.4,1.91,3.65,3.65,0,0,0,4.16,0Z"/><path class="cls-2" d="M735.09,529.58l-.5,4.06h2.74v1.06h-2.88l-.44,3.67h-1l.45-3.67h-4l-.47,3.67h-1l.44-3.67h-2.74v-1.06h2.88l.5-4.06h-2.76v-1.06h2.9l.44-3.68h1.06l-.46,3.68h4l.45-3.68h1l-.45,3.68H738v1.06Zm-1.05,0h-4l-.52,4.06h4Z"/><path class="cls-2" d="M745.21,524.84v13.53h-1.39V526.08h-3.19v-1.24Z"/><path class="cls-2" d="M753.82,537.6a6.53,6.53,0,0,1-2.53-2.47,7.21,7.21,0,0,1,0-7,6.46,6.46,0,0,1,2.54-2.46,7.45,7.45,0,0,1,3.63-.89,7.59,7.59,0,0,1,2.78.5,5.88,5.88,0,0,1,2.17,1.47l-.91.91a5.4,5.4,0,0,0-4-1.61,5.89,5.89,0,0,0-2.92.74,5.35,5.35,0,0,0-2.05,2,5.83,5.83,0,0,0,0,5.72,5.35,5.35,0,0,0,2.05,2,5.89,5.89,0,0,0,2.92.73,5.32,5.32,0,0,0,4-1.62l.91.91a5.84,5.84,0,0,1-2.18,1.47,7.78,7.78,0,0,1-6.41-.37Z"/><path class="cls-2" d="M775.28,537.13v1.24h-9.49v-1l5.62-5.5a7.28,7.28,0,0,0,1.44-1.81,3.46,3.46,0,0,0,.38-1.53,2.29,2.29,0,0,0-.82-1.87,3.67,3.67,0,0,0-2.35-.67,4.64,4.64,0,0,0-3.69,1.51l-1-.85a5.23,5.23,0,0,1,2-1.43,7.35,7.35,0,0,1,2.77-.5,5.09,5.09,0,0,1,3.28,1,3.28,3.28,0,0,1,1.21,2.68,4.56,4.56,0,0,1-.47,2,8.41,8.41,0,0,1-1.76,2.22l-4.59,4.52Z"/><path class="cls-2" d="M782.69,524.84v13.53H781.3V526.08h-3.18v-1.24Z"/><path class="cls-2" d="M797.09,537.13v1.24H787.6v-1l5.62-5.5a7.28,7.28,0,0,0,1.44-1.81,3.46,3.46,0,0,0,.38-1.53,2.26,2.26,0,0,0-.82-1.87,3.67,3.67,0,0,0-2.35-.67,4.66,4.66,0,0,0-3.69,1.51l-1-.85a5.19,5.19,0,0,1,2-1.43,7.4,7.4,0,0,1,2.78-.5,5,5,0,0,1,3.27,1,3.25,3.25,0,0,1,1.21,2.68,4.69,4.69,0,0,1-.46,2,8.63,8.63,0,0,1-1.76,2.22l-4.6,4.52Z"/><path class="cls-2" d="M810.47,532.55a3.15,3.15,0,0,1,.68,2.05,3.45,3.45,0,0,1-.63,2.06,4,4,0,0,1-1.83,1.35,7.41,7.41,0,0,1-2.79.48,6.24,6.24,0,0,1-3.83-1,3.37,3.37,0,0,1-1.39-2.84,3.19,3.19,0,0,1,.67-2.06,4,4,0,0,1,1.94-1.26,3.33,3.33,0,0,1-1.58-1.17,3.05,3.05,0,0,1-.54-1.81,3.1,3.1,0,0,1,1.28-2.61,5.65,5.65,0,0,1,3.45-1,6.61,6.61,0,0,1,2.5.43,3.77,3.77,0,0,1,1.67,1.25,3.09,3.09,0,0,1,.6,1.89,3,3,0,0,1-.56,1.81,3.49,3.49,0,0,1-1.6,1.17A4.14,4.14,0,0,1,810.47,532.55Zm-1.76,4a2.46,2.46,0,0,0,0-4,4.79,4.79,0,0,0-2.81-.72,4.72,4.72,0,0,0-2.79.72,2.31,2.31,0,0,0-1,2,2.33,2.33,0,0,0,1,2,4.66,4.66,0,0,0,2.8.73A4.71,4.71,0,0,0,808.71,536.57Zm-5.26-6.45a4,4,0,0,0,2.45.66,4.08,4.08,0,0,0,2.46-.66,2.2,2.2,0,0,0,0-3.56,4.15,4.15,0,0,0-2.44-.65,4.09,4.09,0,0,0-2.44.65,2.22,2.22,0,0,0,0,3.56Z"/><path class="cls-2" d="M512.33,439.82a3.39,3.39,0,0,1,.66,2.12,3.1,3.1,0,0,1-1.39,2.73,7,7,0,0,1-4,1h-7V432.1h6.61a6.5,6.5,0,0,1,3.8.95,3,3,0,0,1,1.32,2.57,3.36,3.36,0,0,1-.47,1.76,3.41,3.41,0,0,1-1.33,1.22A3.54,3.54,0,0,1,512.33,439.82Zm-8.64-5.36v3.19h3.11a3.13,3.13,0,0,0,1.76-.41,1.35,1.35,0,0,0,.6-1.19,1.33,1.33,0,0,0-.6-1.19,3.14,3.14,0,0,0-1.76-.4Zm5.52,8.41a1.39,1.39,0,0,0,.63-1.26c0-1.12-.83-1.68-2.5-1.68h-3.65v3.34h3.65A3.49,3.49,0,0,0,509.21,442.87Z"/><path class="cls-2" d="M517.29,432.1h3.13v11h6.79v2.55h-9.92Z"/><path class="cls-2" d="M539.92,442.73h-6.28l-1.2,2.9h-3.2l6-13.53h3.09l6,13.53h-3.28Zm-1-2.38-2.14-5.17-2.14,5.17Z"/><path class="cls-2" d="M550.29,445a6.64,6.64,0,0,1-2.63-2.49,7.25,7.25,0,0,1,0-7.21,6.64,6.64,0,0,1,2.63-2.49,7.76,7.76,0,0,1,3.75-.9,8,8,0,0,1,3.18.62,6.41,6.41,0,0,1,2.39,1.78l-2,1.85a4.35,4.35,0,0,0-3.4-1.58,4.45,4.45,0,0,0-2.24.55,3.93,3.93,0,0,0-1.54,1.54,4.45,4.45,0,0,0-.55,2.24,4.51,4.51,0,0,0,.55,2.24,3.91,3.91,0,0,0,1.54,1.53,4.45,4.45,0,0,0,2.24.55,4.3,4.3,0,0,0,3.4-1.6l2,1.86a6.37,6.37,0,0,1-2.4,1.79,8,8,0,0,1-3.19.62A7.71,7.71,0,0,1,550.29,445Z"/><path class="cls-2" d="M568.57,440.32l-1.81,1.89v3.42h-3.11V432.1h3.11v6.32l6-6.32h3.47l-5.6,6,5.93,7.5H572.9Z"/><path class="cls-2" d="M510.42,468.81l-3.09-4.34c-.35,0-.71,0-1.09,0h-3.63v4.29h-1.43V455.29h5.06a6.08,6.08,0,0,1,4.06,1.24,4.19,4.19,0,0,1,1.47,3.4,4.42,4.42,0,0,1-.8,2.67,4.52,4.52,0,0,1-2.29,1.58l3.3,4.63Zm-1.14-6.39a3.08,3.08,0,0,0,1.06-2.49,3.13,3.13,0,0,0-1.06-2.53,4.77,4.77,0,0,0-3.08-.87h-3.59v6.78h3.59A4.71,4.71,0,0,0,509.28,462.42Z"/><path class="cls-2" d="M516.2,460.37a1.05,1.05,0,0,1-.3-.75,1,1,0,0,1,.3-.75,1,1,0,0,1,.73-.3,1,1,0,0,1,.73.3,1,1,0,0,1,.31.75,1,1,0,0,1-.31.75,1,1,0,0,1-.73.31A1,1,0,0,1,516.2,460.37Zm0,8.23a1,1,0,0,1-.3-.75,1,1,0,0,1,.3-.75,1,1,0,0,1,.73-.3,1,1,0,0,1,.73.3,1,1,0,0,1,.31.75,1,1,0,0,1-.31.75,1,1,0,0,1-.73.31A1,1,0,0,1,516.2,468.6Z"/><path class="cls-2" d="M532.65,455.29v13.52h-1.39V456.53h-3.19v-1.24Z"/><path class="cls-2" d="M545.65,461.89a3.53,3.53,0,0,1,1.34,2.94,4,4,0,0,1-.55,2.11,3.81,3.81,0,0,1-1.65,1.46,6.29,6.29,0,0,1-2.71.53,8.15,8.15,0,0,1-2.75-.47,5.69,5.69,0,0,1-2.1-1.27l.68-1.1a5,5,0,0,0,1.78,1.13,6.36,6.36,0,0,0,2.37.43,4,4,0,0,0,2.6-.75,2.47,2.47,0,0,0,.92-2,2.39,2.39,0,0,0-1-2.1,6.35,6.35,0,0,0-3.49-.72h-2.88l.7-6.78h7.39v1.24h-6.18l-.46,4.3h1.74A6.9,6.9,0,0,1,545.65,461.89Z"/><path class="cls-2" d="M510.71,485.24h1.37v5.16a6.74,6.74,0,0,1-2.24,1.27,8.27,8.27,0,0,1-2.73.45,7.5,7.5,0,0,1-3.65-.89,6.65,6.65,0,0,1-2.55-2.47,7.15,7.15,0,0,1,0-7.05,6.56,6.56,0,0,1,2.55-2.46,7.55,7.55,0,0,1,3.67-.89,7.88,7.88,0,0,1,2.84.49,5.82,5.82,0,0,1,2.19,1.46l-.89.91a5.56,5.56,0,0,0-4.08-1.59,6.13,6.13,0,0,0-3,.73,5.27,5.27,0,0,0-2.07,2,5.6,5.6,0,0,0,2.06,7.74,6.46,6.46,0,0,0,6.5-.31Z"/><path class="cls-2" d="M517.17,483.56a1.06,1.06,0,0,1-.3-.76,1,1,0,0,1,.3-.74,1,1,0,0,1,.72-.3,1,1,0,0,1,1.05,1,1.07,1.07,0,0,1-.31.76,1,1,0,0,1-.74.31A1,1,0,0,1,517.17,483.56Zm0,8.23a1.06,1.06,0,0,1-.3-.76,1,1,0,0,1,.3-.74,1,1,0,0,1,.72-.3,1,1,0,0,1,1.05,1,1.07,1.07,0,0,1-.31.76,1,1,0,0,1-.74.31A1,1,0,0,1,517.17,491.79Z"/><path class="cls-2" d="M533.62,478.47V492h-1.39V479.71H529v-1.24Z"/><path class="cls-2" d="M547.11,480.13a7.74,7.74,0,0,1,1.43,5,8.54,8.54,0,0,1-.78,3.83,5.34,5.34,0,0,1-2.16,2.36,6.35,6.35,0,0,1-3.25.81,6,6,0,0,1-3.2-.74l.56-1.12a4.66,4.66,0,0,0,2.62.64,4.51,4.51,0,0,0,3.52-1.42,6,6,0,0,0,1.28-4.13c0-.33,0-.7-.06-1.1a3.61,3.61,0,0,1-1.61,1.71,5.09,5.09,0,0,1-2.53.61,5.35,5.35,0,0,1-2.36-.5,3.93,3.93,0,0,1-1.62-1.42,4,4,0,0,1,1.67-5.78,5.39,5.39,0,0,1,2.37-.51A5,5,0,0,1,547.11,480.13ZM545,485a3,3,0,0,0,1.23-1.06,2.72,2.72,0,0,0,.44-1.5,2.65,2.65,0,0,0-.41-1.43,3,3,0,0,0-1.23-1.07,4.29,4.29,0,0,0-1.93-.4,3.47,3.47,0,0,0-2.39.8,2.93,2.93,0,0,0,0,4.26,3.66,3.66,0,0,0,2.48.79A4,4,0,0,0,545,485Z"/><path class="cls-2" d="M511.76,509.36a3.32,3.32,0,0,1,.72,2.21,3.11,3.11,0,0,1-1.28,2.68,6.45,6.45,0,0,1-3.8.93h-6.22V501.66H507a5.83,5.83,0,0,1,3.5.91,3,3,0,0,1,1.25,2.57,3.28,3.28,0,0,1-.55,1.9,3.32,3.32,0,0,1-1.52,1.17A3.58,3.58,0,0,1,511.76,509.36Zm-9.15-6.52v4.91h4.31a4.34,4.34,0,0,0,2.53-.63,2.11,2.11,0,0,0,.89-1.83,2.08,2.08,0,0,0-.89-1.82,4.34,4.34,0,0,0-2.53-.63Zm7.52,10.55a2.16,2.16,0,0,0,.92-1.93q0-2.54-3.67-2.54h-4.77V514h4.77A5,5,0,0,0,510.13,513.39Z"/><path class="cls-2" d="M516.8,506.74a1.05,1.05,0,0,1-.3-.75,1,1,0,0,1,.3-.75,1,1,0,0,1,.73-.3,1,1,0,0,1,.73.3,1,1,0,0,1,.31.75,1,1,0,0,1-.31.75,1,1,0,0,1-.73.31A1,1,0,0,1,516.8,506.74Zm0,8.23a1,1,0,0,1-.3-.75,1,1,0,0,1,.3-.75,1,1,0,0,1,.73-.3,1,1,0,0,1,.73.3,1,1,0,0,1,.31.75,1,1,0,0,1-.31.75,1,1,0,0,1-.73.31A1,1,0,0,1,516.8,515Z"/><path class="cls-2" d="M538.74,514v1.23h-9.49v-1l5.63-5.51a7.77,7.77,0,0,0,1.44-1.8,3.48,3.48,0,0,0,.37-1.54,2.28,2.28,0,0,0-.82-1.87,3.67,3.67,0,0,0-2.35-.66,4.63,4.63,0,0,0-3.69,1.51l-1-.85a5.25,5.25,0,0,1,2-1.44,7.31,7.31,0,0,1,2.77-.5,5,5,0,0,1,3.27,1,3.23,3.23,0,0,1,1.21,2.67,4.55,4.55,0,0,1-.46,2,8.48,8.48,0,0,1-1.76,2.23L531.3,514Z"/><path class="cls-2" d="M550.25,508.6a3.52,3.52,0,0,1,1.11,2.7,3.66,3.66,0,0,1-2.23,3.48,6.19,6.19,0,0,1-2.68.52,8.18,8.18,0,0,1-2.77-.47,5.69,5.69,0,0,1-2.1-1.27l.68-1.1a5,5,0,0,0,1.79,1.13,6.59,6.59,0,0,0,2.4.43,4.05,4.05,0,0,0,2.57-.72,2.43,2.43,0,0,0,.91-2,2.39,2.39,0,0,0-.91-2,4.37,4.37,0,0,0-2.74-.72h-1v-1l3.75-4.69h-6.92v-1.24h8.69v1L547,507.46A5,5,0,0,1,550.25,508.6Z"/><path class="cls-2" d="M509,529.58l-.51,4.06h2.75v1.06h-2.88l-.45,3.67h-1l.45-3.67h-4l-.46,3.67h-1l.44-3.67h-2.74v-1.06h2.88l.5-4.06h-2.76v-1.06h2.9l.44-3.68h1.06l-.46,3.68h4l.44-3.68h1.05l-.45,3.68h2.73v1.06Zm-1.05,0h-4l-.52,4.06h4Z"/><path class="cls-2" d="M518,537.65a5.37,5.37,0,0,1-1.91-2.38,10.05,10.05,0,0,1,0-7.32,5.35,5.35,0,0,1,1.91-2.39,5.1,5.1,0,0,1,5.58,0,5.52,5.52,0,0,1,1.93,2.39,10.05,10.05,0,0,1,0,7.32,5.55,5.55,0,0,1-1.93,2.38,5.05,5.05,0,0,1-5.58,0Zm4.87-1.1a4.14,4.14,0,0,0,1.4-1.91,9.46,9.46,0,0,0,0-6.07,4.24,4.24,0,0,0-1.4-1.91,3.59,3.59,0,0,0-4.15,0,4.33,4.33,0,0,0-1.41,1.91,9.46,9.46,0,0,0,0,6.07,4.22,4.22,0,0,0,1.41,1.91,3.59,3.59,0,0,0,4.15,0Z"/><path class="cls-2" d="M532.71,526.08v5.31h7v1.24h-7v5.74h-1.43V524.84h9.28v1.24Z"/><path class="cls-2" d="M548.29,524.84v13.53h-1.4V526.08h-3.18v-1.24Z"/><path class="cls-2" d="M561.28,531.79a3.52,3.52,0,0,1,1.11,2.7,3.82,3.82,0,0,1-.56,2,3.76,3.76,0,0,1-1.66,1.42,6.23,6.23,0,0,1-2.69.53,8,8,0,0,1-2.77-.48,5.68,5.68,0,0,1-2.1-1.26l.68-1.11a4.89,4.89,0,0,0,1.8,1.14,6.5,6.5,0,0,0,2.39.43,4,4,0,0,0,2.57-.72,2.42,2.42,0,0,0,.91-2,2.38,2.38,0,0,0-.91-2,4.42,4.42,0,0,0-2.74-.71h-1v-1l3.75-4.7h-6.92v-1.24h8.7v1L558,530.64A5,5,0,0,1,561.28,531.79Z"/><path class="cls-2" d="M570,524.84v13.53h-1.39V526.08h-3.19v-1.24Z"/><path class="cls-2" d="M584.72,524.84v1l-5.66,12.54h-1.5l5.56-12.29h-7v2.53h-1.38v-3.77Z"/><path class="cls-2" d="M512.89,613.86l0-8.11-4,6.68h-1.41l-4-6.51v7.94h-2.94V600.34h2.59l5.06,8.4,5-8.4h2.57l0,13.52Z"/><path class="cls-2" d="M521,600.34h3.13v13.52H521Z"/><path class="cls-2" d="M529.23,600.34h6.15a8.63,8.63,0,0,1,3.89.84,6.3,6.3,0,0,1,2.63,2.37,7.19,7.19,0,0,1,0,7.11,6.35,6.35,0,0,1-2.63,2.36,8.63,8.63,0,0,1-3.89.84h-6.15Zm6,10.95a4.51,4.51,0,0,0,3.24-1.13,4.47,4.47,0,0,0,0-6.12,4.55,4.55,0,0,0-3.24-1.13h-2.86v8.38Z"/><path class="cls-2" d="M556.26,606.89h2.86v5.49a8,8,0,0,1-2.55,1.27,9.75,9.75,0,0,1-2.91.45,7.89,7.89,0,0,1-3.79-.9,6.74,6.74,0,0,1-2.64-2.49,7.32,7.32,0,0,1,0-7.21,6.66,6.66,0,0,1,2.66-2.49,8,8,0,0,1,3.82-.9,8.37,8.37,0,0,1,3.23.6,6.42,6.42,0,0,1,2.44,1.74l-2,1.85a4.66,4.66,0,0,0-3.5-1.53,4.77,4.77,0,0,0-2.3.55,3.89,3.89,0,0,0-1.57,1.52,4.54,4.54,0,0,0-.56,2.26,4.46,4.46,0,0,0,.56,2.24,4,4,0,0,0,1.56,1.54,4.57,4.57,0,0,0,2.27.55,5,5,0,0,0,2.43-.58Z"/><path class="cls-2" d="M572.57,613.86,570,610.1h-2.88v3.76H564V600.34h5.86a7.49,7.49,0,0,1,3.12.6,4.64,4.64,0,0,1,2,1.7,4.72,4.72,0,0,1,.71,2.61,4.63,4.63,0,0,1-.72,2.6,4.7,4.7,0,0,1-2.06,1.67l3,4.34Zm-.79-10.36a3.28,3.28,0,0,0-2.15-.61h-2.55v4.71h2.55a3.28,3.28,0,0,0,2.15-.61,2.17,2.17,0,0,0,.73-1.74A2.13,2.13,0,0,0,571.78,603.5Z"/><path class="cls-2" d="M589,611h-6.28l-1.19,2.89h-3.21l6-13.52h3.09l6.05,13.52h-3.29Zm-1-2.38-2.15-5.18-2.14,5.18Z"/><path class="cls-2" d="M602.48,609.07v4.79h-3.13V609l-5.24-8.69h3.33l3.61,6,3.61-6h3.07Z"/><path class="cls-2" d="M510.42,637.05l-3.09-4.35a9.56,9.56,0,0,1-1.09.06h-3.63v4.29h-1.43V623.52h5.06a6.14,6.14,0,0,1,4.06,1.24,4.2,4.2,0,0,1,1.47,3.4,4.18,4.18,0,0,1-3.09,4.25l3.3,4.64Zm-1.14-6.4a3.08,3.08,0,0,0,1.06-2.49,3.12,3.12,0,0,0-1.06-2.52,4.71,4.71,0,0,0-3.08-.88h-3.59v6.78h3.59A4.66,4.66,0,0,0,509.28,630.65Z"/><path class="cls-2" d="M516.2,628.61a1.06,1.06,0,0,1-.3-.76,1,1,0,0,1,.3-.74,1,1,0,0,1,.73-.3,1,1,0,0,1,.73.3,1,1,0,0,1,.31.74,1,1,0,0,1-.31.76,1,1,0,0,1-.73.31A1,1,0,0,1,516.2,628.61Zm0,8.23a1.06,1.06,0,0,1-.3-.76,1,1,0,0,1,.3-.74,1,1,0,0,1,.73-.3,1,1,0,0,1,.73.3,1,1,0,0,1,.31.74,1,1,0,0,1-.31.76,1,1,0,0,1-.73.31A1,1,0,0,1,516.2,636.84Z"/><path class="cls-2" d="M532.65,623.52v13.53h-1.39V624.76h-3.19v-1.24Z"/><path class="cls-2" d="M545.78,629.46a3.8,3.8,0,0,1,1.62,1.42,4.29,4.29,0,0,1,0,4.31,3.87,3.87,0,0,1-1.66,1.46,5.35,5.35,0,0,1-2.36.52,5,5,0,0,1-4.12-1.77,7.79,7.79,0,0,1-1.43-5,8.64,8.64,0,0,1,.77-3.82,5.44,5.44,0,0,1,2.17-2.37,6.44,6.44,0,0,1,3.25-.8,6.09,6.09,0,0,1,3.2.73l-.56,1.12a4.76,4.76,0,0,0-2.63-.63,4.47,4.47,0,0,0-3.51,1.42,6,6,0,0,0-1.28,4.12c0,.32,0,.69.06,1.1a3.73,3.73,0,0,1,1.6-1.71,5.65,5.65,0,0,1,4.9-.1Zm-.09,5.72a2.95,2.95,0,0,0,0-4.26,3.73,3.73,0,0,0-2.49-.79,4,4,0,0,0-1.8.39,3.11,3.11,0,0,0-1.23,1.06,2.65,2.65,0,0,0-.45,1.51,2.62,2.62,0,0,0,.42,1.43,3,3,0,0,0,1.23,1.06,4.26,4.26,0,0,0,1.93.41A3.5,3.5,0,0,0,545.69,635.18Z"/><path class="cls-2" d="M555.26,623.52v13.53h-1.39V624.76h-3.19v-1.24Z"/><path class="cls-2" d="M510.71,653.47h1.37v5.16a6.76,6.76,0,0,1-2.24,1.28,8.53,8.53,0,0,1-2.73.44,7.5,7.5,0,0,1-3.65-.89,6.56,6.56,0,0,1-2.55-2.46,7.15,7.15,0,0,1,0-7,6.65,6.65,0,0,1,2.55-2.47,7.55,7.55,0,0,1,3.67-.89,7.88,7.88,0,0,1,2.84.5,5.79,5.79,0,0,1,2.19,1.45l-.89.91a5.59,5.59,0,0,0-4.08-1.58,6.13,6.13,0,0,0-3,.72,5.4,5.4,0,0,0-2.07,2,5.53,5.53,0,0,0-.76,2.87,5.49,5.49,0,0,0,2.82,4.87,6,6,0,0,0,3,.74,5.89,5.89,0,0,0,3.54-1.05Z"/><path class="cls-2" d="M517.17,651.79a1.05,1.05,0,0,1-.3-.75,1,1,0,0,1,.3-.75,1,1,0,0,1,.72-.3,1,1,0,0,1,1.05,1,1.06,1.06,0,0,1-.31.75,1,1,0,0,1-.74.31A1,1,0,0,1,517.17,651.79Zm0,8.23a1,1,0,0,1-.3-.75,1,1,0,0,1,1-1,1.07,1.07,0,0,1,.74.3,1,1,0,0,1,.31.75,1,1,0,0,1-.31.75,1,1,0,0,1-.74.31A1,1,0,0,1,517.17,660Z"/><path class="cls-2" d="M533.62,646.71v13.52h-1.39V648H529v-1.24Z"/><path class="cls-2" d="M546.75,652.64a3.79,3.79,0,0,1,2.19,3.56,3.92,3.92,0,0,1-2.25,3.64,5.35,5.35,0,0,1-2.37.51,5,5,0,0,1-4.11-1.77,7.7,7.7,0,0,1-1.43-5,8.69,8.69,0,0,1,.77-3.83,5.45,5.45,0,0,1,2.16-2.36,6.35,6.35,0,0,1,3.25-.81,6.1,6.1,0,0,1,3.21.74l-.56,1.12a4.7,4.7,0,0,0-2.63-.64,4.49,4.49,0,0,0-3.52,1.42,6,6,0,0,0-1.27,4.13c0,.32,0,.68.06,1.1a3.58,3.58,0,0,1,1.6-1.71,5.09,5.09,0,0,1,2.53-.61A5.43,5.43,0,0,1,546.75,652.64Zm-.1,5.73a2.93,2.93,0,0,0,0-4.26,3.66,3.66,0,0,0-2.48-.79,4.15,4.15,0,0,0-1.81.38,3,3,0,0,0-1.22,1.07,2.65,2.65,0,0,0-.45,1.5,2.57,2.57,0,0,0,.42,1.43,2.92,2.92,0,0,0,1.22,1.07,4.31,4.31,0,0,0,1.94.4A3.51,3.51,0,0,0,546.65,658.37Z"/><path class="cls-2" d="M562.19,654.42a3.2,3.2,0,0,1,.68,2.05,3.36,3.36,0,0,1-.64,2,4,4,0,0,1-1.82,1.36,7.65,7.65,0,0,1-2.79.47,6.29,6.29,0,0,1-3.83-1,3.36,3.36,0,0,1-1.39-2.84,3.19,3.19,0,0,1,.67-2.06,4,4,0,0,1,1.94-1.27,3.36,3.36,0,0,1-1.59-1.17,3,3,0,0,1-.54-1.8,3.08,3.08,0,0,1,1.29-2.61,5.61,5.61,0,0,1,3.45-1,6.64,6.64,0,0,1,2.5.44,3.81,3.81,0,0,1,1.67,1.24,3.14,3.14,0,0,1,.6,1.9,3,3,0,0,1-.56,1.8,3.52,3.52,0,0,1-1.61,1.17A4.18,4.18,0,0,1,562.19,654.42Zm-1.76,4a2.34,2.34,0,0,0,1-2,2.31,2.31,0,0,0-1-2,5.75,5.75,0,0,0-5.61,0,2.31,2.31,0,0,0-1,2,2.33,2.33,0,0,0,1,2,5.81,5.81,0,0,0,5.62,0ZM555.16,652a4,4,0,0,0,2.46.66,4.08,4.08,0,0,0,2.46-.66,2.05,2.05,0,0,0,.9-1.75,2.11,2.11,0,0,0-.92-1.8,4.1,4.1,0,0,0-2.44-.66,4,4,0,0,0-2.45.66,2.21,2.21,0,0,0,0,3.55Z"/><path class="cls-2" d="M1196.14,438.65H1199v5.49a8,8,0,0,1-2.55,1.28,10,10,0,0,1-2.91.44,7.89,7.89,0,0,1-3.79-.9,6.74,6.74,0,0,1-2.64-2.49,7.32,7.32,0,0,1,0-7.21,6.72,6.72,0,0,1,2.66-2.49,8,8,0,0,1,3.82-.9,8.37,8.37,0,0,1,3.23.6,6.42,6.42,0,0,1,2.44,1.74l-2,1.86a4.66,4.66,0,0,0-3.5-1.53,4.79,4.79,0,0,0-2.3.54,3.92,3.92,0,0,0-1.57,1.53,4.8,4.8,0,0,0,0,4.5,4,4,0,0,0,1.56,1.53,4.57,4.57,0,0,0,2.27.55,5.13,5.13,0,0,0,2.43-.57Z"/><path class="cls-2" d="M1196.84,468.81l-3.09-4.34c-.35,0-.71,0-1.08,0H1189v4.29h-1.44V455.29h5.07a6.05,6.05,0,0,1,4,1.24,4.19,4.19,0,0,1,1.47,3.4,4.42,4.42,0,0,1-.8,2.67,4.47,4.47,0,0,1-2.29,1.58l3.31,4.63Zm-1.14-6.39a3.05,3.05,0,0,0,1.06-2.49,3.1,3.1,0,0,0-1.06-2.53,4.74,4.74,0,0,0-3.07-.87H1189v6.78h3.59A4.68,4.68,0,0,0,1195.7,462.42Z"/><path class="cls-2" d="M1197.13,485.24h1.37v5.16a6.74,6.74,0,0,1-2.24,1.27,8.21,8.21,0,0,1-2.72.45,7.54,7.54,0,0,1-3.66-.89,6.65,6.65,0,0,1-2.55-2.47,7.21,7.21,0,0,1,0-7.05,6.56,6.56,0,0,1,2.55-2.46,7.59,7.59,0,0,1,3.68-.89,7.92,7.92,0,0,1,2.84.49,5.7,5.7,0,0,1,2.18,1.46l-.89.91a5.56,5.56,0,0,0-4.08-1.59,6.09,6.09,0,0,0-3,.73,5.29,5.29,0,0,0-2.08,2,5.85,5.85,0,0,0,0,5.73,5.4,5.4,0,0,0,2.07,2,6.44,6.44,0,0,0,6.49-.31Z"/><path class="cls-2" d="M1198.18,509.36a3.27,3.27,0,0,1,.73,2.21,3.12,3.12,0,0,1-1.29,2.68,6.42,6.42,0,0,1-3.79.93h-6.23V501.66h5.84a5.84,5.84,0,0,1,3.51.91,3,3,0,0,1,1.24,2.57,3.2,3.2,0,0,1-.55,1.9,3.3,3.3,0,0,1-1.51,1.17A3.58,3.58,0,0,1,1198.18,509.36Zm-9.14-6.52v4.91h4.3a4.32,4.32,0,0,0,2.53-.63,2.09,2.09,0,0,0,.89-1.83,2.06,2.06,0,0,0-.89-1.82,4.32,4.32,0,0,0-2.53-.63Zm7.51,10.55a2.17,2.17,0,0,0,.93-1.93c0-1.69-1.23-2.54-3.67-2.54H1189V514h4.77A5,5,0,0,0,1196.55,513.39Z"/><path class="cls-2" d="M1195.41,529.58l-.5,4.06h2.74v1.06h-2.88l-.44,3.67h-1l.44-3.67h-4l-.47,3.67h-1l.45-3.67H1186v-1.06h2.88l.5-4.06h-2.76v-1.06h2.9l.44-3.68H1191l-.47,3.68h4l.45-3.68h1l-.44,3.68h2.72v1.06Zm-1,0h-4l-.53,4.06h4Z"/><path class="cls-2" d="M637.14,632.18a3.32,3.32,0,0,1,.72,2.21,3.14,3.14,0,0,1-1.28,2.68,6.48,6.48,0,0,1-3.8.93h-6.22V624.48h5.83a5.84,5.84,0,0,1,3.51.91,3,3,0,0,1,1.25,2.57,3.28,3.28,0,0,1-.55,1.9,3.38,3.38,0,0,1-1.52,1.17A3.56,3.56,0,0,1,637.14,632.18ZM628,625.66v4.9h4.31a4.36,4.36,0,0,0,2.53-.62,2.11,2.11,0,0,0,.89-1.83,2.08,2.08,0,0,0-.89-1.82,4.36,4.36,0,0,0-2.53-.63Zm7.51,10.55a2.17,2.17,0,0,0,.93-1.94c0-1.68-1.22-2.53-3.67-2.53H628v5.08h4.77A5,5,0,0,0,635.5,636.21Z"/><path class="cls-2" d="M642.18,629.56a1.05,1.05,0,0,1-.3-.75,1,1,0,0,1,.3-.75,1,1,0,0,1,.72-.3,1,1,0,0,1,1.05,1,1.06,1.06,0,0,1-.31.75,1,1,0,0,1-.74.31A1,1,0,0,1,642.18,629.56Zm0,8.23a1.05,1.05,0,0,1-.3-.75,1,1,0,0,1,.3-.75,1,1,0,0,1,.72-.3,1,1,0,0,1,1.05,1,1.06,1.06,0,0,1-.31.75,1,1,0,0,1-.74.31A1,1,0,0,1,642.18,637.79Z"/><path class="cls-2" d="M658.63,624.48V638h-1.39V625.71h-3.19v-1.23Z"/><path class="cls-2" d="M673.33,624.48v1L667.67,638h-1.5l5.56-12.29h-7v2.54H663.4v-3.77Z"/><path class="cls-2" d="M684.76,631.42a3.52,3.52,0,0,1,1.11,2.7,3.77,3.77,0,0,1-.56,2.06,3.83,3.83,0,0,1-1.66,1.42,6.21,6.21,0,0,1-2.69.52,8.22,8.22,0,0,1-2.77-.47,5.57,5.57,0,0,1-2.09-1.27l.67-1.1a5,5,0,0,0,1.8,1.13,6.54,6.54,0,0,0,2.39.43,4,4,0,0,0,2.57-.72,2.4,2.4,0,0,0,.91-2,2.36,2.36,0,0,0-.91-2,4.35,4.35,0,0,0-2.74-.72h-1v-1l3.75-4.7h-6.91v-1.23h8.69v1l-3.82,4.81A5.07,5.07,0,0,1,684.76,631.42Z"/><path class="cls-2" d="M634.36,652.4l-.5,4.05h2.74v1.07h-2.87l-.45,3.67h-1l.44-3.67h-4l-.46,3.67h-1l.45-3.67h-2.74v-1.07h2.87l.51-4.05h-2.77v-1.07h2.9l.45-3.67h1.06l-.46,3.67h4l.44-3.67h1l-.44,3.67h2.72v1.07Zm-1,0h-4l-.52,4.05h4Z"/><path class="cls-2" d="M650.42,657.57h-7.54l-1.62,3.62h-1.49L646,647.66h1.41l6.18,13.53H652Zm-.52-1.15-3.25-7.27-3.24,7.27Z"/><path class="cls-2" d="M659.48,647.66v13.53h-1.39V648.9H654.9v-1.24Z"/><path class="cls-2" d="M674.32,657.57h-7.54l-1.62,3.62h-1.49l6.19-13.53h1.41l6.18,13.53h-1.51Zm-.52-1.15-3.25-7.27-3.25,7.27Z"/><path class="cls-2" d="M690,655.37a3.2,3.2,0,0,1,.68,2,3.39,3.39,0,0,1-.64,2.06,4.06,4.06,0,0,1-1.82,1.35,7.41,7.41,0,0,1-2.79.47,6.22,6.22,0,0,1-3.83-1,3.36,3.36,0,0,1-1.39-2.84,3.19,3.19,0,0,1,.67-2.06,4,4,0,0,1,1.94-1.26,3.36,3.36,0,0,1-1.59-1.17,3.05,3.05,0,0,1-.54-1.81,3.11,3.11,0,0,1,1.29-2.61,5.61,5.61,0,0,1,3.45-1,6.65,6.65,0,0,1,2.5.43,3.83,3.83,0,0,1,1.67,1.25,3.09,3.09,0,0,1,.6,1.89,3,3,0,0,1-.56,1.81,3.52,3.52,0,0,1-1.61,1.17A4.17,4.17,0,0,1,690,655.37Zm-1.76,4a2.34,2.34,0,0,0,1-2,2.31,2.31,0,0,0-1-2,5.82,5.82,0,0,0-5.61,0,2.47,2.47,0,0,0,0,4,5.72,5.72,0,0,0,5.61,0ZM683,652.94a5,5,0,0,0,4.92,0,2.08,2.08,0,0,0,.9-1.76,2.11,2.11,0,0,0-.92-1.8,4.92,4.92,0,0,0-4.89,0,2.22,2.22,0,0,0,0,3.56Z"/><path class="cls-2" d="M704.17,657.57h-7.54L695,661.19h-1.49l6.19-13.53h1.41l6.18,13.53h-1.51Zm-.52-1.15-3.25-7.27-3.24,7.27Z"/><path class="cls-2" d="M711.47,647.66H717a8.11,8.11,0,0,1,3.79.86,6.35,6.35,0,0,1,2.55,2.4,7.28,7.28,0,0,1,0,7,6.35,6.35,0,0,1-2.55,2.4,8.11,8.11,0,0,1-3.79.86h-5.51ZM716.9,660a6.55,6.55,0,0,0,3.11-.7,5.08,5.08,0,0,0,2.07-2,6,6,0,0,0,0-5.73,5.22,5.22,0,0,0-2.07-2,6.55,6.55,0,0,0-3.11-.7h-4V660Z"/><path class="cls-4" d="M1064,607.7h3.13v11h6.78v2.55H1064Z"/><path class="cls-4" d="M1077.56,607.7h3.13v13.52h-3.13Z"/><path class="cls-4" d="M1088.63,610.25h-4.33V607.7h11.79v2.55h-4.33v11h-3.13Z"/><path class="cls-4" d="M1110.17,618.71v2.51H1099.7V607.7h10.22v2.51h-7.11v2.94h6.28v2.43h-6.28v3.13Z"/><path class="cls-4" d="M1123.7,614.25h2.86v5.48A8.26,8.26,0,0,1,1124,621a9.8,9.8,0,0,1-2.92.44,7.92,7.92,0,0,1-3.79-.9,6.51,6.51,0,0,1-2.63-2.49,7.23,7.23,0,0,1,0-7.2,6.59,6.59,0,0,1,2.65-2.5,8.08,8.08,0,0,1,3.83-.9,8.6,8.6,0,0,1,3.23.6,6.46,6.46,0,0,1,2.43,1.74l-2,1.86a4.65,4.65,0,0,0-3.5-1.53,4.79,4.79,0,0,0-2.3.54,3.83,3.83,0,0,0-1.56,1.53,4.43,4.43,0,0,0-.56,2.26,4.38,4.38,0,0,0,.56,2.24,4,4,0,0,0,1.55,1.54,4.71,4.71,0,0,0,2.27.55,5.14,5.14,0,0,0,2.44-.58Z"/><path class="cls-4" d="M1140,621.22l-2.6-3.77h-2.88v3.77h-3.13V607.7h5.85a7.49,7.49,0,0,1,3.12.6,4.49,4.49,0,0,1,2.76,4.3,4.59,4.59,0,0,1-.73,2.6,4.52,4.52,0,0,1-2.06,1.67l3,4.35Zm-.79-10.36a3.25,3.25,0,0,0-2.14-.61h-2.55V615h2.55a3.2,3.2,0,0,0,2.14-.62,2.15,2.15,0,0,0,.74-1.74A2.12,2.12,0,0,0,1139.21,610.86Z"/><path class="cls-4" d="M1156.43,618.32h-6.28l-1.2,2.9h-3.21l6-13.52h3.09l6.05,13.52h-3.28Zm-1-2.37-2.14-5.18-2.15,5.18Z"/><path class="cls-4" d="M1169.91,616.43v4.79h-3.13v-4.83l-5.23-8.69h3.32l3.61,6,3.62-6h3.07Z"/><path class="cls-4" d="M1073.79,644.41l-3.09-4.35a9.51,9.51,0,0,1-1.08.06H1066v4.29h-1.43V630.88h5.06a6.08,6.08,0,0,1,4.06,1.24,4.2,4.2,0,0,1,1.47,3.4,4.32,4.32,0,0,1-.81,2.67,4.38,4.38,0,0,1-2.29,1.58l3.31,4.64Zm-1.14-6.4a3.47,3.47,0,0,0,0-5,4.66,4.66,0,0,0-3.07-.88H1066v6.78h3.59A4.66,4.66,0,0,0,1072.65,638Z"/><path class="cls-4" d="M1079.58,636a1,1,0,0,1-.3-.75,1,1,0,0,1,.3-.74,1,1,0,0,1,.72-.3,1,1,0,0,1,.74.3,1,1,0,0,1,.31.74,1,1,0,0,1-.31.75,1,1,0,0,1-.74.31A1,1,0,0,1,1079.58,636Zm0,8.23a1,1,0,0,1-.3-.75,1,1,0,0,1,.3-.74,1,1,0,0,1,.72-.3,1,1,0,0,1,.74.3,1,1,0,0,1,.31.74,1,1,0,0,1-.31.75,1,1,0,0,1-.74.31A1,1,0,0,1,1079.58,644.19Z"/><path class="cls-4" d="M1101.52,643.17v1.24H1092v-1l5.62-5.51a7.09,7.09,0,0,0,1.44-1.8,3.47,3.47,0,0,0,.38-1.54,2.24,2.24,0,0,0-.82-1.86,3.62,3.62,0,0,0-2.35-.67,4.63,4.63,0,0,0-3.69,1.51l-1-.85a5.09,5.09,0,0,1,2-1.43,7.21,7.21,0,0,1,2.78-.5,5.06,5.06,0,0,1,3.27,1,3.24,3.24,0,0,1,1.21,2.68,4.76,4.76,0,0,1-.46,2,8.63,8.63,0,0,1-1.76,2.22l-4.6,4.52Z"/><path class="cls-4" d="M1113,637.83a3.51,3.51,0,0,1,1.11,2.69,3.67,3.67,0,0,1-2.22,3.48,6.19,6.19,0,0,1-2.68.52,8.24,8.24,0,0,1-2.78-.47,5.65,5.65,0,0,1-2.09-1.27l.67-1.1a4.87,4.87,0,0,0,1.8,1.13,6.6,6.6,0,0,0,2.4.44,4,4,0,0,0,2.57-.73,2.42,2.42,0,0,0,.9-2,2.39,2.39,0,0,0-.9-2,4.45,4.45,0,0,0-2.75-.71h-1v-1l3.74-4.69h-6.91v-1.24h8.69v1l-3.82,4.81A5,5,0,0,1,1113,637.83Z"/><path class="cls-4" d="M1127.16,643.17v1.24h-9.49v-1l5.62-5.51a7.09,7.09,0,0,0,1.44-1.8,3.47,3.47,0,0,0,.38-1.54,2.27,2.27,0,0,0-.82-1.86,3.62,3.62,0,0,0-2.35-.67,4.6,4.6,0,0,0-3.69,1.51l-1-.85a5.12,5.12,0,0,1,2-1.43,7.16,7.16,0,0,1,2.77-.5,5.09,5.09,0,0,1,3.28,1,3.27,3.27,0,0,1,1.21,2.68,4.63,4.63,0,0,1-.47,2,8.41,8.41,0,0,1-1.76,2.22l-4.59,4.52Z"/><path class="cls-4" d="M1074.08,660.83h1.38V666a6.62,6.62,0,0,1-2.25,1.27,8.21,8.21,0,0,1-2.72.45,7.5,7.5,0,0,1-3.65-.89,6.56,6.56,0,0,1-2.55-2.46,7.16,7.16,0,0,1,0-7.06,6.56,6.56,0,0,1,2.55-2.46,7.52,7.52,0,0,1,3.67-.89,8.1,8.1,0,0,1,2.84.49,5.7,5.7,0,0,1,2.18,1.46l-.89.91a5.52,5.52,0,0,0-4.07-1.58,6.1,6.1,0,0,0-3,.72,5.36,5.36,0,0,0-2.08,2,5.59,5.59,0,0,0-.75,2.87,5.44,5.44,0,0,0,2.82,4.87,6,6,0,0,0,3,.73,5.9,5.9,0,0,0,3.53-1Z"/><path class="cls-4" d="M1080.54,659.15a1.08,1.08,0,0,1-.29-.75,1.05,1.05,0,0,1,.29-.75,1,1,0,0,1,.73-.3,1,1,0,0,1,.73.3,1,1,0,0,1,.31.75,1.06,1.06,0,0,1-1,1.06A1,1,0,0,1,1080.54,659.15Zm0,8.23a1.08,1.08,0,0,1-.29-.75,1.05,1.05,0,0,1,.29-.75,1,1,0,0,1,.73-.3,1,1,0,0,1,.73.3,1,1,0,0,1,.31.75,1,1,0,0,1-.31.75,1,1,0,0,1-.73.31A1,1,0,0,1,1080.54,667.38Z"/><path class="cls-4" d="M1102.48,666.36v1.23H1093v-1l5.62-5.51a7.28,7.28,0,0,0,1.44-1.81,3.42,3.42,0,0,0,.38-1.53,2.28,2.28,0,0,0-.83-1.87,3.64,3.64,0,0,0-2.34-.66,4.63,4.63,0,0,0-3.69,1.5l-1-.85a5.23,5.23,0,0,1,2-1.43,7.35,7.35,0,0,1,2.77-.5,5.09,5.09,0,0,1,3.28,1,3.26,3.26,0,0,1,1.21,2.67,4.56,4.56,0,0,1-.47,2,8.11,8.11,0,0,1-1.76,2.22l-4.6,4.53Z"/><path class="cls-4" d="M1114,661a3.52,3.52,0,0,1,1.11,2.7,3.67,3.67,0,0,1-2.22,3.48,6.39,6.39,0,0,1-2.69.52,8,8,0,0,1-2.77-.48,5.55,5.55,0,0,1-2.1-1.26l.68-1.1a5,5,0,0,0,1.8,1.13,6.5,6.5,0,0,0,2.39.43,4,4,0,0,0,2.57-.72,2.42,2.42,0,0,0,.91-2,2.35,2.35,0,0,0-.91-2A4.35,4.35,0,0,0,1110,661h-1v-1l3.75-4.7h-6.92v-1.23h8.7v1l-3.83,4.81A5,5,0,0,1,1114,661Z"/><path class="cls-4" d="M1126.62,660.67a3.51,3.51,0,0,1,1.35,2.94,4.12,4.12,0,0,1-.55,2.11,3.78,3.78,0,0,1-1.66,1.46,6.22,6.22,0,0,1-2.7.53,7.88,7.88,0,0,1-2.75-.48,5.55,5.55,0,0,1-2.1-1.26l.68-1.1a5,5,0,0,0,1.77,1.13,6.45,6.45,0,0,0,2.38.43,4,4,0,0,0,2.6-.75,2.47,2.47,0,0,0,.92-2,2.41,2.41,0,0,0-1-2.11,6.42,6.42,0,0,0-3.48-.71h-2.88l.69-6.78h7.4v1.23h-6.18l-.46,4.31h1.73A6.88,6.88,0,0,1,1126.62,660.67Z"/><path class="cls-4" d="M1200.51,639.54a3.27,3.27,0,0,1,.73,2.21,3.14,3.14,0,0,1-1.28,2.68,6.48,6.48,0,0,1-3.8.93h-6.22V631.84h5.83a5.84,5.84,0,0,1,3.51.91,3,3,0,0,1,1.24,2.57,3.2,3.2,0,0,1-.55,1.9,3.3,3.3,0,0,1-1.51,1.17A3.55,3.55,0,0,1,1200.51,639.54Zm-9.14-6.52v4.91h4.3a4.37,4.37,0,0,0,2.54-.63,2.1,2.1,0,0,0,.88-1.83,2.07,2.07,0,0,0-.88-1.82,4.37,4.37,0,0,0-2.54-.63Zm7.51,10.55a2.16,2.16,0,0,0,.93-1.93q0-2.53-3.67-2.54h-4.77v5.09h4.77A5,5,0,0,0,1198.88,643.57Z"/><path class="cls-4" d="M1197.74,659.76l-.5,4.06H1200v1.06h-2.87l-.45,3.67h-1l.44-3.67h-4l-.46,3.67h-1.05l.45-3.67h-2.75v-1.06h2.88l.51-4.06h-2.77V658.7h2.9l.45-3.68h1.06l-.47,3.68h4l.45-3.68h1l-.44,3.68h2.72v1.06Zm-1,0h-4l-.52,4.06h4Z"/><rect class="cls-8" x="402.74" y="538.16" width="100.9" height="100.9"/><path class="cls-11" d="M318.23,580.64a38.58,38.58,0,0,1,14.59-9,32,32,0,0,1,8.25-1.48,40.22,40.22,0,0,1,4.11,0,26.66,26.66,0,0,1,4.08.54,36,36,0,0,1,14.49,7.3,28.27,28.27,0,0,0-54.67,10.1,28.84,28.84,0,0,0,.17,3.1A69.9,69.9,0,0,1,318.23,580.64Z"/><path class="cls-11" d="M360.79,582.05a19.38,19.38,0,0,0-5.31-4.9,17.52,17.52,0,0,0-6.77-2.41,21.3,21.3,0,0,0-7.21.18,21.67,21.67,0,0,0-6.64,2.43,24.05,24.05,0,0,0-9.31,10,37.71,37.71,0,0,0-3.82,13.41,48.2,48.2,0,0,0,.35,12.11,28.26,28.26,0,0,0,43.23-19.67A24.88,24.88,0,0,0,360.79,582.05Z"/><rect class="cls-8" x="54.28" y="538.16" width="100.9" height="100.9"/><rect class="cls-11" x="170.63" y="538.16" width="100.9" height="100.9"/><rect class="cls-12" x="286.97" y="538.16" width="100.9" height="100.9"/><path class="cls-2" d="M434,580.64a38.54,38.54,0,0,1,14.6-9,31.83,31.83,0,0,1,8.24-1.48,40.22,40.22,0,0,1,4.11,0,26.66,26.66,0,0,1,4.08.54,36,36,0,0,1,14.49,7.3,28.27,28.27,0,0,0-54.67,10.1,26.47,26.47,0,0,0,.18,3.1A70.41,70.41,0,0,1,434,580.64Z"/><path class="cls-2" d="M476.56,582.05a19.38,19.38,0,0,0-5.31-4.9,17.52,17.52,0,0,0-6.77-2.41,21.24,21.24,0,0,0-7.2.18,21.73,21.73,0,0,0-6.65,2.43,24.11,24.11,0,0,0-9.31,10,37.49,37.49,0,0,0-3.81,13.41,47.73,47.73,0,0,0,.34,12.11,28.26,28.26,0,0,0,43.23-19.67A24.77,24.77,0,0,0,476.56,582.05Z"/><path class="cls-2" d="M202.11,580.64a38.54,38.54,0,0,1,14.6-9,31.83,31.83,0,0,1,8.24-1.48,40.22,40.22,0,0,1,4.11,0,26.66,26.66,0,0,1,4.08.54,36,36,0,0,1,14.49,7.3A28.27,28.27,0,0,0,193,588.11a26.47,26.47,0,0,0,.18,3.1A69.26,69.26,0,0,1,202.11,580.64Z"/><path class="cls-2" d="M244.67,582.05a19.38,19.38,0,0,0-5.31-4.9,17.52,17.52,0,0,0-6.77-2.41,21.31,21.31,0,0,0-7.21.18,21.76,21.76,0,0,0-6.64,2.43,24.05,24.05,0,0,0-9.31,10,37.49,37.49,0,0,0-3.81,13.41,47.73,47.73,0,0,0,.34,12.11,28.26,28.26,0,0,0,43.23-19.67A24.77,24.77,0,0,0,244.67,582.05Z"/><path class="cls-11" d="M86.26,580.64a38.54,38.54,0,0,1,14.6-9,31.83,31.83,0,0,1,8.24-1.48,40.15,40.15,0,0,1,4.11,0,26.66,26.66,0,0,1,4.08.54,36,36,0,0,1,14.49,7.3,28.27,28.27,0,0,0-54.67,10.1,28.83,28.83,0,0,0,.18,3.1A70.41,70.41,0,0,1,86.26,580.64Z"/><path class="cls-11" d="M128.82,582.05a19.38,19.38,0,0,0-5.31-4.9,17.52,17.52,0,0,0-6.77-2.41,21.24,21.24,0,0,0-7.2.18,21.82,21.82,0,0,0-6.65,2.43,24.11,24.11,0,0,0-9.31,10,37.49,37.49,0,0,0-3.81,13.41,48.2,48.2,0,0,0,.34,12.11,28.27,28.27,0,0,0,43.24-19.67A24.9,24.9,0,0,0,128.82,582.05Z"/><path class="cls-4" d="M121.48,151.29q-19.65,0-30.38-9.53T80.37,116a53.2,53.2,0,0,1,4-20.4,55,55,0,0,1,29.34-29.87A57.69,57.69,0,0,1,137,61.18a82.72,82.72,0,0,1,13.41,1.12,51.87,51.87,0,0,1,12.36,3.5l-2.68,18.77-6,.14-1-12.51a21.69,21.69,0,0,0-8-3.27,47.29,47.29,0,0,0-10.8-1.19,38.62,38.62,0,0,0-31,14.44A46.76,46.76,0,0,0,95.05,97.3a55.82,55.82,0,0,0-2.76,17.5q0,14,7.75,22t21.74,8a45.65,45.65,0,0,0,7.15-.67,49.09,49.09,0,0,0,8.57-2.23,30.39,30.39,0,0,0,7.82-4.1L140,146.53l3.43-16.09c.59-2.58,1.07-4.81,1.41-6.7s.62-3.52.82-4.92a24.44,24.44,0,0,0,.3-3.27l-9.53-1.34,1.34-5.07h24.87l-.74,4.77-6.56,1.49c-.09.3-.32,1.34-.66,3.13s-.82,4.12-1.42,7q-1.34,6.71-2.09,10.57t-1.34,7.3a39.19,39.19,0,0,1-8.93,4.1,89.2,89.2,0,0,1-10.43,2.75A46.31,46.31,0,0,1,121.48,151.29Z"/><path class="cls-4" d="M306.92,150.7c-2.38-.3-4.42-.5-6.1-.6s-3.23-.15-4.62-.15H244.37l.74-4.76,9.38-1.94c.3-1,.62-2.26,1-3.8s.82-3.65,1.42-6.33,1.39-6.3,2.38-10.87l6.55-30.83Q268,80.85,268.87,76c.54-3.22.87-5.48,1-6.78l-8.49-1.93,1.35-4.77h49c1.09,0,2.18,0,3.28-.07s2.3-.13,3.65-.23l4.24-.29-1.79,18.91-5.95.75-1.94-12.37a13.31,13.31,0,0,0-2-.22c-.95,0-2-.07-3.06-.07H288.6c-1.89,0-3.47,0-4.76.07s-2.64.18-4,.37a26.81,26.81,0,0,0-.74,3c-.4,1.79-.89,3.93-1.49,6.41s-1.17,5-1.71,7.52-1,4.69-1.42,6.48l-6,28c-.39,1.89-.89,4.39-1.49,7.52s-1.16,6.09-1.71,8.86-.87,4.67-1,5.66l3.58.3q1.94.15,4,.15H289.5q4.46,0,7.07-.15a16.16,16.16,0,0,0,3.5-.44l9.68-13.86L316,130Zm-9.68-31.58.3-10.28a9.21,9.21,0,0,0-2.24-.44q-1.49-.15-3.72-.15H278.77c-1.09,0-2.43,0-4,.07s-3.38.13-5.36.23l1.64-7c1.88.1,3.57.15,5.06.15h16.53c1.49,0,2.73,0,3.73-.15s1.83-.2,2.53-.3l4.32-10.58h5.36l-6,28.45Z"/><path class="cls-4" d="M471.51,133.12,480,93.21q1.78-8.34,2.75-13.11t1.35-7.23c.24-1.63.42-2.85.52-3.65l-9.54-1.93,1.34-4.77h26.22l-.74,4.77-9.39,1.93c-.2.9-.5,2.12-.89,3.65s-.95,3.88-1.64,7-1.69,7.58-3,13.34l-8.19,38.57c-.5,2.49-1.07,5.36-1.71,8.64s-1.32,6.66-2,10.13h-5.36L432.78,73.84h1.34l-9.38,44.09q-.75,3.28-1.71,8.49t-1.86,9.91q-.9,4.68-1.2,6.92l9.54,1.94L428.17,150H401.8l.75-4.76,9.38-1.94c.4-1.09,1.09-3.85,2.09-8.26s2.28-10.31,3.87-17.66l5.51-26.06q2.24-10.72,3.05-16t1-6l-8.49-1.93,1.34-4.77h18.32l33.81,70Z"/><path class="cls-4" d="M639.67,150.7q-3.57-.45-6.11-.6c-1.69-.1-3.22-.15-4.61-.15H577.11l.75-4.76,9.38-1.94c.3-1,.62-2.26,1-3.8s.82-3.65,1.42-6.33,1.38-6.3,2.38-10.87l6.55-30.83q2.24-10.58,3.06-15.42t1-6.78l-8.49-1.93,1.34-4.77h49c1.09,0,2.18,0,3.27-.07s2.31-.13,3.65-.23l4.25-.29-1.79,18.91-6,.75-1.93-12.37a13.31,13.31,0,0,0-2-.22c-.95,0-2-.07-3.06-.07H621.35c-1.89,0-3.48,0-4.77.07s-2.63.18-4,.37a26.81,26.81,0,0,0-.74,3q-.6,2.69-1.49,6.41t-1.71,7.52q-.82,3.8-1.42,6.48l-6,28c-.4,1.89-.89,4.39-1.49,7.52s-1.17,6.09-1.71,8.86-.87,4.67-1,5.66l3.58.3q1.94.15,4,.15h17.57q4.47,0,7.08-.15a16.26,16.26,0,0,0,3.5-.44l9.68-13.86,6.26,1.2ZM630,119.12l.3-10.28a9.32,9.32,0,0,0-2.24-.44q-1.49-.15-3.72-.15H611.52c-1.09,0-2.43,0-4,.07s-3.38.13-5.36.23l1.63-7q2.84.15,5.07.15h16.53c1.49,0,2.73,0,3.73-.15s1.83-.2,2.53-.3L636,90.67h5.36l-6,28.45Z"/><path class="cls-4" d="M760.91,151.29a54.05,54.05,0,0,1-12.51-1.56,63.16,63.16,0,0,1-11.47-3.8l3.28-17.87,5.51-.3.6,12.51a28.11,28.11,0,0,0,7.52,3.43,31.18,31.18,0,0,0,8.71,1.19A28.59,28.59,0,0,0,772.9,143a18.4,18.4,0,0,0,7.9-5.66,14.65,14.65,0,0,0,3.05-9.46,12.21,12.21,0,0,0-2.53-7.82,24.69,24.69,0,0,0-6.55-5.66q-4-2.46-8.57-4.92a69.78,69.78,0,0,1-8.56-5.43A25.35,25.35,0,0,1,751.08,97a18.45,18.45,0,0,1-2.53-9.9A22,22,0,0,1,751.31,76a25.49,25.49,0,0,1,7.44-8.19,34.6,34.6,0,0,1,10.73-5.06A45.88,45.88,0,0,1,782.06,61a60.34,60.34,0,0,1,7.67.45,49.22,49.22,0,0,1,6.56,1.27,37.51,37.51,0,0,1,5.73,2l-3,17-4.91.29-1.64-12.36q-3.72-2.53-12.21-2.53a27.15,27.15,0,0,0-15.42,4.32q-6.48,4.32-6.48,12.81A12.26,12.26,0,0,0,760.91,92a26.16,26.16,0,0,0,6.56,5.89q4,2.61,8.56,5.14a78.43,78.43,0,0,1,8.57,5.51,26.17,26.17,0,0,1,6.55,6.92,17.14,17.14,0,0,1,2.53,9.46,21.06,21.06,0,0,1-5,14.08,33.15,33.15,0,0,1-12.51,9.08A38.53,38.53,0,0,1,760.91,151.29Z"/><path class="cls-4" d="M880.07,150l.75-4.76,9.38-1.94q.74-2.24,1.79-6.48t3.27-14.52l6.56-30.83q2.23-10.58,3-15.42a53.09,53.09,0,0,0,.74-6.78l-8.49-1.93,1.34-4.77H926.1l-.75,4.77L916,69.22q-.45,1.95-1.79,6.93T910.6,91.42l-6.55,30.83q-1.63,7.74-2.38,11.92t-1,6c-.21,1.24-.35,2.26-.45,3.05l8.49,1.94L907.33,150Z"/><path class="cls-4" d="M1026.78,151.29a54.05,54.05,0,0,1-12.51-1.56,63.16,63.16,0,0,1-11.47-3.8l3.28-17.87,5.51-.3.6,12.51a28.11,28.11,0,0,0,7.52,3.43,31.18,31.18,0,0,0,8.71,1.19,28.59,28.59,0,0,0,10.35-1.86,18.4,18.4,0,0,0,7.9-5.66,14.65,14.65,0,0,0,3-9.46,12.21,12.21,0,0,0-2.53-7.82,24.69,24.69,0,0,0-6.55-5.66q-4-2.46-8.57-4.92a69.78,69.78,0,0,1-8.56-5.43A25.35,25.35,0,0,1,1017,97a18.45,18.45,0,0,1-2.53-9.9,22,22,0,0,1,2.76-11.1,25.49,25.49,0,0,1,7.44-8.19,34.6,34.6,0,0,1,10.73-5.06A45.88,45.88,0,0,1,1047.93,61a60.34,60.34,0,0,1,7.67.45,49.22,49.22,0,0,1,6.56,1.27,37.51,37.51,0,0,1,5.73,2l-3,17L1060,82l-1.64-12.36q-3.72-2.53-12.21-2.53a27.15,27.15,0,0,0-15.42,4.32q-6.48,4.32-6.48,12.81a12.26,12.26,0,0,0,2.53,7.74,26.16,26.16,0,0,0,6.56,5.89q4,2.61,8.56,5.14a78.43,78.43,0,0,1,8.57,5.51,26.17,26.17,0,0,1,6.55,6.92,17.14,17.14,0,0,1,2.53,9.46,21.06,21.06,0,0,1-5,14.08,33.15,33.15,0,0,1-12.51,9.08A38.53,38.53,0,0,1,1026.78,151.29Z"/></svg>