<?xml version="1.0" encoding="UTF-8"?><svg id="a" xmlns="http://www.w3.org/2000/svg" viewBox="0 0 386 2966"><defs><style>.b{fill:none;stroke:#000;stroke-miterlimit:10;stroke-width:1.05px;}.c{fill:#161617;}</style></defs><g><polygon class="c" points="207.39 658.45 200.42 651.47 186.64 665.25 172.87 651.47 165.9 658.45 186.64 679.2 186.64 679.2 186.64 679.2 207.39 658.45"/><g><path class="c" d="M244.57,707.87c-14.09,18.35-35.42,28.88-58.51,28.88-40.66,0-73.75-33.08-73.75-73.74s33.08-73.75,73.75-73.75c23.09,0,44.41,10.53,58.5,28.88l.2,.26,27.98-10.61c-18.26-28.59-50.24-47.57-86.68-47.57-56.78,0-102.8,46.02-102.8,102.8s46.02,102.79,102.8,102.79c36.44,0,68.42-18.98,86.68-47.58l-27.97-10.61-.2,.26Z"/><path class="c" d="M186.06,591.41c-39.48,0-71.6,32.12-71.6,71.6s32.12,71.59,71.6,71.59c21.93,0,42.23-9.78,55.91-26.89l-27.33-10.37c-8.03,6.69-18.15,10.37-28.58,10.37-24.65,0-44.7-20.05-44.7-44.7s20.05-44.7,44.7-44.7c10.42,0,20.54,3.68,28.57,10.37l27.33-10.37c-13.68-17.11-33.98-26.89-55.91-26.89Z"/></g></g><g><path class="c" d="M192.7,1099.86s4.09-13.3-9.21-13.3-46.56,75.21-2.05,75.21c0,0,25.58,4.61,24.56-20.98,0,0,.85-11.85-17.4-20.46-20.49-9.68-4.6-36.84,4.1-20.46Z"/><path class="c" d="M182.1,1082.69s-2.48-1.52-2.48-5.92,2.82-4.33,2.82-4.33c0,0,2.88,.14,2.61,4.89-.22,3.99-2.96,5.37-2.96,5.37Z"/><path class="c" d="M145.7,1034.27s-7.73,.31-14.24-9.46c-6.51-9.77-.15-13.78-.15-13.78,0,0,6.6-3.95,13.02,6.96,5.4,9.19,1.37,16.28,1.37,16.28Z"/><g><path class="c" d="M74.45,1143.64s-1.64,5.46-9.14,6.88c-7.5,1.42-8.46-4.27-8.46-4.27,0,0-.85-5.83,7.33-6.82,6.89-.84,10.27,4.21,10.27,4.21Z"/><path class="c" d="M81.71,1135.85s-.86,2.85-4.78,3.59c-3.92,.74-4.42-2.23-4.42-2.23,0,0-.45-3.05,3.83-3.57,3.59-.43,5.36,2.2,5.36,2.2Z"/><path class="c" d="M86.61,1124.41s-2.18,4.18-8.5,4.16c-6.32-.01-6.21-4.78-6.21-4.78,0,0,.21-4.87,7.02-4.4,5.73,.39,7.68,5.02,7.68,5.02Z"/><path class="c" d="M65.3,1127.67s-1.08,3.59-6.02,4.53c-4.94,.93-5.57-2.81-5.57-2.81,0,0-.56-3.84,4.83-4.49,4.53-.55,6.76,2.78,6.76,2.78Z"/><path class="c" d="M76.55,1110.89s-1.4,4.67-7.82,5.89c-6.42,1.22-7.24-3.65-7.24-3.65,0,0-.73-4.99,6.27-5.84,5.9-.71,8.79,3.61,8.79,3.61Z"/><path class="c" d="M70.04,1096.1s-1.58,5.26-8.8,6.63c-7.23,1.36-8.15-4.11-8.15-4.11,0,0-.82-5.62,7.06-6.57,6.63-.81,9.89,4.06,9.89,4.06Z"/><path class="c" d="M67.59,1083.97s-4.42,2.48-10.09-1.25c-5.67-3.73-2.77-7.95-2.77-7.95,0,0,3.05-4.26,8.9,.16,4.92,3.72,3.96,9.04,3.96,9.04Z"/><path class="c" d="M84.72,1076.57s-7.35,2.81-15.22-4.19c-7.87-7-2.47-12.83-2.47-12.83,0,0,5.65-5.86,13.63,2.25,6.72,6.82,4.06,14.77,4.06,14.77Z"/><path class="c" d="M65.86,1054.13s-6.13,1.02-11.11-5.64c-4.98-6.66,.13-10.32,.13-10.32,0,0,5.3-3.63,10.19,3.9,4.12,6.34,.8,12.06,.8,12.06Z"/><path class="c" d="M88.16,1056.46s-4.57,1.92-9.67-2.33c-5.11-4.26-1.81-8.04-1.81-8.04,0,0,3.45-3.8,8.64,1.15,4.37,4.17,2.85,9.23,2.85,9.23Z"/><path class="c" d="M98.54,1045.1s-6.96,1.02-12.47-6.63c-5.51-7.65,.35-11.7,.35-11.7,0,0,6.08-4,11.47,4.63,4.53,7.27,.65,13.69,.65,13.69Z"/><path class="c" d="M119.7,1037.79s-5.61,.61-9.79-5.68c-4.18-6.29,.64-9.36,.64-9.36,0,0,4.99-3.02,9.04,4.06,3.41,5.96,.12,10.98,.12,10.98Z"/><path class="c" d="M156.79,1016.08s-3.84-.57-5.53-5.51c-1.69-4.93,2.06-6.12,2.06-6.12,0,0,3.86-1.14,5.32,4.29,1.23,4.57-1.85,7.34-1.85,7.34Z"/><path class="c" d="M172.37,1006.68s-6.71-1.92-8.55-11.09c-1.85-9.16,5.1-10.41,5.1-10.41,0,0,7.13-1.13,8.46,8.87,1.12,8.42-5.01,12.63-5.01,12.63Z"/><path class="c" d="M182.66,1027.84s-5.49-1.29-7.34-8.62c-1.85-7.32,3.71-8.61,3.71-8.61,0,0,5.71-1.2,7.17,6.83,1.24,6.75-3.55,10.39-3.55,10.39Z"/><path class="c" d="M185.88,1006.45s-3.75-2.41-3.19-8.34c.55-5.93,5.02-5.43,5.02-5.43,0,0,4.56,.61,3.54,6.97-.86,5.35-5.37,6.8-5.37,6.8Z"/><path class="c" d="M200.14,1017.76s-6.24-4.26-5.02-14.32c1.22-10.05,8.79-8.98,8.79-8.98,0,0,7.71,1.26,5.69,12-1.71,9.04-9.45,11.29-9.45,11.29Z"/><path class="c" d="M208.74,1032.95s-4.2-3.77-2.3-11.09c1.9-7.32,7.39-5.77,7.39-5.77,0,0,5.58,1.7,3.02,9.44-2.16,6.52-8.11,7.42-8.11,7.42Z"/><path class="c" d="M222.05,1043.69s-4.2-3.77-2.3-11.08c1.9-7.31,7.39-5.77,7.39-5.77,0,0,5.58,1.7,3.02,9.44-2.16,6.52-8.1,7.41-8.1,7.41Z"/><path class="c" d="M233.77,1023.81s-3.47-3.11-1.9-9.16c1.57-6.05,6.1-4.77,6.1-4.77,0,0,4.62,1.4,2.5,7.8-1.78,5.38-6.7,6.12-6.7,6.12Z"/><path class="c" d="M241.55,1039.57s-3.96-5.05-.39-12.88c3.56-7.83,9.42-5.01,9.42-5.01,0,0,5.92,3,1.52,11.17-3.71,6.88-10.55,6.71-10.55,6.71Z"/><path class="c" d="M257.04,1018.84s-1.82-2.2-.33-5.73c1.49-3.53,4.13-2.34,4.13-2.34,0,0,2.67,1.26,.8,4.95-1.57,3.11-4.61,3.12-4.61,3.12Z"/><path class="c" d="M260.1,1034.86s-3.11-2.79-1.71-8.2c1.41-5.41,5.47-4.27,5.47-4.27,0,0,4.13,1.25,2.23,6.98-1.6,4.82-5.99,5.49-5.99,5.49Z"/><path class="c" d="M251.44,1050.09s-2.81-4.07,.28-9.92c3.1-5.86,7.47-3.42,7.47-3.42,0,0,4.42,2.57,.66,8.65-3.16,5.12-8.41,4.68-8.41,4.68Z"/><path class="c" d="M267.41,1049.51s-3.16-5.58,1.53-12.78c4.69-7.19,10.05-3.55,10.05-3.55,0,0,5.4,3.85-.16,11.27-4.69,6.24-11.42,5.06-11.42,5.06Z"/><path class="c" d="M269.96,1071.15s-2.08-7.44,5.48-14.5c7.56-7.06,12.77-1.24,12.77-1.24,0,0,5.21,6.06-3.44,13.12-7.28,5.95-14.81,2.62-14.81,2.62Z"/><path class="c" d="M287.12,1074.78s-1.01-3.87,2.97-7.46c3.98-3.59,6.62-.53,6.62-.53,0,0,2.64,3.18-1.9,6.76-3.82,3.02-7.69,1.23-7.69,1.23Z"/><path class="c" d="M272.15,1092.4s0-5.81,6.9-9.38c6.9-3.58,9.49,1.68,9.49,1.68,0,0,2.54,5.44-5.15,8.8-6.47,2.83-11.24-1.1-11.24-1.1Z"/><path class="c" d="M291.52,1096.05s-1.12-4.44,3.47-8.51c4.59-4.07,7.59-.53,7.59-.53,0,0,2.99,3.67-2.25,7.72-4.41,3.41-8.82,1.32-8.82,1.32Z"/><path class="c" d="M287.99,1105.54s1.69-4.4,7.96-5.11c6.28-.71,6.72,4.04,6.72,4.04,0,0,.35,4.87-6.47,5.18-5.73,.26-8.21-4.11-8.21-4.11Z"/><path class="c" d="M278.78,1122.43s1.69-4.4,7.97-5.11c6.28-.71,6.72,4.04,6.72,4.04,0,0,.35,4.87-6.47,5.18-5.73,.26-8.21-4.11-8.21-4.11Z"/><path class="c" d="M276.64,1139.64s2.79-5.78,11.37-6.02c8.59-.25,8.65,6.24,8.65,6.24,0,0-.08,6.63-9.35,6.28-7.8-.29-10.66-6.5-10.66-6.5Z"/></g><g><path class="c" d="M92.95,1156.57s-2.25,7.03-12.01,8.69c-9.76,1.65-10.85-5.74-10.85-5.74,0,0-.96-7.58,9.67-8.66,8.94-.91,13.2,5.71,13.2,5.71Z"/><path class="c" d="M92.05,1142.04s-1.01,3.37-5.64,4.24c-4.63,.88-5.21-2.63-5.21-2.63,0,0-.53-3.6,4.52-4.21,4.25-.52,6.34,2.6,6.34,2.6Z"/><path class="c" d="M99.24,1131.56s-1.18,3.32-5.84,3.96c-4.67,.65-5.08-2.88-5.08-2.88,0,0-.35-3.62,4.72-3.98,4.27-.31,6.2,2.9,6.2,2.9Z"/><path class="c" d="M98.29,1111.72s-3.56,4.45-11.05,2.97c-7.49-1.49-6.25-7.12-6.25-7.12,0,0,1.38-5.73,9.35-3.59,6.71,1.8,7.96,7.74,7.96,7.74Z"/><path class="c" d="M88.44,1093.32s-3.54,4.38-10.92,2.87c-7.38-1.51-6.13-7.06-6.13-7.06,0,0,1.4-5.65,9.25-3.49,6.6,1.81,7.8,7.68,7.8,7.68Z"/><path class="c" d="M108.26,1101.24s-2.24,2.71-6.84,1.71c-4.6-.99-3.78-4.45-3.78-4.45,0,0,.92-3.52,5.8-2.12,4.12,1.19,4.82,4.86,4.82,4.86Z"/><path class="c" d="M112.81,1086.46s-4.87,5.26-14.13,2.72c-9.26-2.54-7.2-9.5-7.2-9.5,0,0,2.26-7.06,12.05-3.65,8.24,2.86,9.27,10.43,9.27,10.43Z"/><path class="c" d="M117.91,1074.88s-2.37,2.6-6.92,1.39c-4.55-1.21-3.57-4.63-3.57-4.63,0,0,1.08-3.47,5.9-1.84,4.05,1.37,4.59,5.08,4.59,5.08Z"/><path class="c" d="M108.69,1064.81s-3.84,4.22-11.22,2.25c-7.38-1.96-5.78-7.51-5.78-7.51,0,0,1.75-5.63,9.56-2.98,6.57,2.23,7.44,8.24,7.44,8.24Z"/><path class="c" d="M119.93,1060.45s-7.16,2.24-14.22-4.9c-7.07-7.13-1.57-12.36-1.57-12.36,0,0,5.73-5.22,12.83,2.97,5.98,6.9,2.97,14.29,2.97,14.29Z"/><path class="c" d="M135.23,1062.76s-3.77,.68-6.9-3.38c-3.13-4.06-.02-6.36-.02-6.36,0,0,3.23-2.29,6.31,2.31,2.6,3.87,.6,7.43,.6,7.43Z"/><path class="c" d="M138.12,1049.46s-4.98,.17-8.26-5.65c-3.28-5.82,1.17-8.21,1.17-8.21,0,0,4.59-2.34,7.71,4.17,2.62,5.47-.62,9.69-.62,9.69Z"/><path class="c" d="M160.77,1056.56s-7.75,.83-13.5-7.87c-5.76-8.7,.9-12.91,.9-12.91,0,0,6.9-4.17,12.48,5.63,4.69,8.23,.12,15.16,.12,15.16Z"/><path class="c" d="M164.48,1037.53s-5.73-.33-8.86-7.34c-3.13-7.01,2.21-9.27,2.21-9.27,0,0,5.5-2.19,8.38,5.59,2.42,6.54-1.73,11.02-1.73,11.02Z"/><path class="c" d="M174.53,1040.02s-3.34-1.54-3.56-6.46c-.22-4.93,3.5-5.02,3.5-5.02,0,0,3.8-.01,3.69,5.3-.09,4.48-3.62,6.18-3.62,6.18Z"/><path class="c" d="M183.76,1051.62s-4.21-3.35-2.81-10.42c1.4-7.07,6.71-5.9,6.71-5.9,0,0,5.41,1.3,3.39,8.82-1.69,6.32-7.3,7.5-7.3,7.5Z"/><path class="c" d="M193.48,1035.76s-4.21-3.35-2.81-10.42c1.4-7.07,6.71-5.9,6.71-5.9,0,0,5.4,1.3,3.4,8.81-1.7,6.33-7.3,7.5-7.3,7.5Z"/><path class="c" d="M200.65,1048.55s-4.21-3.35-2.81-10.42c1.4-7.07,6.71-5.9,6.71-5.9,0,0,5.4,1.3,3.39,8.82-1.7,6.32-7.29,7.5-7.29,7.5Z"/><path class="c" d="M211.73,1057.43s-3.5-2.8-2.34-8.69c1.17-5.89,5.6-4.92,5.6-4.92,0,0,4.51,1.08,2.83,7.35-1.41,5.27-6.08,6.25-6.08,6.25Z"/><path class="c" d="M219.94,1071.68s-4.59-5.06-1.4-13.64c3.19-8.58,9.61-6.04,9.61-6.04,0,0,6.52,2.73,2.47,11.75-3.41,7.58-10.68,7.92-10.68,7.92Z"/><path class="c" d="M234.44,1051.04s-3.11-2.48-2.08-7.7c1.04-5.23,4.97-4.37,4.97-4.37,0,0,4,.97,2.51,6.52-1.25,4.67-5.4,5.55-5.4,5.55Z"/><path class="c" d="M239.19,1063.68s-2.95-3.99-.02-9.96c2.92-5.97,7.39-3.67,7.39-3.67,0,0,4.51,2.45,.93,8.67-3.02,5.24-8.3,4.96-8.3,4.96Z"/><path class="c" d="M254.41,1068.04s-2.54-4.74,1.52-10.68c4.06-5.95,8.49-2.79,8.49-2.79,0,0,4.45,3.33-.35,9.44-4.05,5.14-9.66,4.03-9.66,4.03Z"/><path class="c" d="M247.75,1092.01s-2.22-6.93,4.64-13.85c6.87-6.92,11.99-1.62,11.99-1.62,0,0,5.12,5.52-2.78,12.48-6.64,5.86-13.85,2.99-13.85,2.99Z"/><path class="c" d="M252.76,1103.18s-.54-5.35,5.5-9.29c6.03-3.93,8.91,.68,8.91,.68,0,0,2.84,4.78-3.94,8.58-5.7,3.2-10.47,.02-10.47,.02Z"/><path class="c" d="M266.49,1109.76s1.33-4.7,7.74-6.01c6.41-1.32,7.3,3.55,7.3,3.55,0,0,.81,4.99-6.19,5.94-5.89,.8-8.85-3.48-8.85-3.48Z"/><path class="c" d="M255.65,1129.58s3.1-6.36,12.58-6.59c9.48-.22,9.5,6.93,9.5,6.93,0,0-.13,7.32-10.35,6.88-8.61-.36-11.73-7.23-11.73-7.23Z"/><path class="c" d="M257.87,1149.26s1.5-5.16,8.57-6.55c7.07-1.39,8.01,3.97,8.01,3.97,0,0,.85,5.49-6.87,6.49-6.49,.83-9.71-3.9-9.71-3.9Z"/><path class="c" d="M240.03,1085.39s-4.2-3.36-2.8-10.42c1.4-7.07,6.71-5.9,6.71-5.9,0,0,5.4,1.3,3.39,8.82-1.69,6.32-7.3,7.5-7.3,7.5Z"/></g><g><path class="c" d="M189.63,1071.63s-2.99-1.61-2.99-6.31,3.4-4.62,3.4-4.62c0,0,3.4,.14,3.15,5.21-.25,5.07-3.57,5.73-3.57,5.73Z"/><path class="c" d="M200.3,1074.24s-4.96-4.11-3.22-12.86c1.74-8.75,8.05-7.35,8.05-7.35,0,0,6.27,1.54,3.93,10.87-2.34,9.34-8.76,9.34-8.76,9.34Z"/><path class="c" d="M194.36,1053.99s-1.4-1.17-.91-3.64c.5-2.48,2.28-2.08,2.28-2.08,0,0,1.78,.43,1.12,3.08-.67,2.64-2.48,2.64-2.48,2.64Z"/><path class="c" d="M223.94,1084s-1.83-4.49,2.42-9.68c4.26-5.19,7.95-2.02,7.95-2.02,0,0,3.62,3.24-1.24,8.61-4.86,5.37-9.12,3.09-9.12,3.09Z"/><path class="c" d="M206.55,1084.51s-1.83-4.49,2.42-9.68c4.26-5.18,7.95-2.02,7.95-2.02,0,0,3.62,3.24-1.24,8.61-4.86,5.37-9.12,3.09-9.12,3.09Z"/><path class="c" d="M214.92,1093.46s-1.36-3.32,1.79-7.16c3.15-3.84,5.88-1.5,5.88-1.5,0,0,2.68,2.4-.91,6.38-3.6,3.97-6.75,2.29-6.75,2.29Z"/><path class="c" d="M226.47,1102.21s-2.38-5.84,3.15-12.59c5.54-6.75,10.34-2.64,10.34-2.64,0,0,4.72,4.22-1.62,11.21-6.33,6.99-11.87,4.03-11.87,4.03Z"/><path class="c" d="M237.91,1106.45s.05-4.07,5.05-6.69c5-2.62,6.81,1.04,6.81,1.04,0,0,1.74,3.7-3.78,6.25-5.53,2.56-8.07-.6-8.07-.6Z"/><path class="c" d="M247.94,1112.13s1.6-3.75,7.21-4.27c5.61-.52,5.89,3.54,5.89,3.54,0,0,.2,4.07-5.87,4.34-6.07,.26-7.23-3.61-7.23-3.61Z"/><path class="c" d="M233.32,1119.52s1.02-3.66,6.15-4.83c5.13-1.17,5.89,2.56,5.89,2.56,0,0,.69,3.75-4.9,4.74-5.59,.99-7.14-2.47-7.14-2.47Z"/><path class="c" d="M249.86,1123.96s.32-3.63,4.95-5.63c4.64-2,6.01,1.39,6.01,1.39,0,0,1.3,3.41-3.8,5.33-5.1,1.91-7.16-1.08-7.16-1.08Z"/><path class="c" d="M239.44,1128.58s1.91-3.01,6.81-2.68c4.91,.34,4.59,3.89,4.59,3.89,0,0-.4,3.54-5.67,2.92-5.28-.63-5.73-4.14-5.73-4.14Z"/><path class="c" d="M228.58,1140.59s2.38-4.22,9.09-4.11c6.71,.12,6.52,4.97,6.52,4.97,0,0-.3,4.85-7.52,4.37-7.23-.48-8.09-5.24-8.09-5.24Z"/><path class="c" d="M247.19,1141.14s1.36-2.48,5.28-2.46c3.92,.02,3.84,2.86,3.84,2.86,0,0-.14,2.84-4.36,2.6-4.22-.23-4.75-3-4.75-3Z"/><path class="c" d="M236.5,1153.5s1.8-3.37,7.07-3.4c5.28-.04,5.22,3.78,5.22,3.78,0,0-.14,3.82-5.83,3.58-5.69-.24-6.46-3.96-6.46-3.96Z"/><path class="c" d="M116.35,1161.64s-1.42,4.44-7.58,5.48c-6.16,1.04-6.84-3.62-6.84-3.62,0,0-.61-4.78,6.09-5.47,5.65-.57,8.33,3.61,8.33,3.61Z"/><path class="c" d="M106.97,1151.4s-1.88,3.36-7.04,3.2c-5.16-.16-4.95-4.05-4.95-4.05,0,0,.29-3.97,5.83-3.43,4.66,.46,6.16,4.28,6.16,4.28Z"/><path class="c" d="M105.92,1141.37s-2.2,2.62-6.67,1.61c-4.47-1-3.65-4.37-3.65-4.37,0,0,.92-3.41,5.66-2.01,3.99,1.18,4.65,4.77,4.65,4.77Z"/><path class="c" d="M123.71,1134.41s-1.07,5.45-8.22,7.53c-7.15,2.08-8.61-3.35-8.61-3.35,0,0-1.38-5.58,6.47-7.31,6.6-1.45,10.35,3.13,10.35,3.13Z"/><path class="c" d="M129.62,1125.7s-1.78,3.88-7.49,4.15c-5.71,.27-5.83-4.05-5.83-4.05,0,0-.03-4.41,6.15-4.29,5.19,.09,7.17,4.19,7.17,4.19Z"/><path class="c" d="M114.16,1121.93s-.9,4.57-6.9,6.32c-6,1.74-7.22-2.81-7.22-2.81,0,0-1.15-4.68,5.43-6.13,5.54-1.22,8.69,2.62,8.69,2.62Z"/><path class="c" d="M122.07,1118.65s-5.61,2.99-12.62-1.83c-7.02-4.82-3.26-10.05-3.26-10.05,0,0,3.94-5.26,11.15,.44,6.07,4.79,4.73,11.43,4.73,11.43Z"/><path class="c" d="M127.57,1096.97s-2.48,3.94-8.71,3.41c-6.22-.53-5.72-5.22-5.72-5.22,0,0,.6-4.78,7.27-3.76,5.61,.85,7.16,5.57,7.16,5.57Z"/><path class="c" d="M128.46,1086.05s-2.98,2.83-8.17,1.03c-5.19-1.8-3.76-5.7-3.76-5.7,0,0,1.55-3.95,7.03-1.64,4.6,1.95,4.91,6.31,4.91,6.31Z"/><path class="c" d="M131.09,1075.42s-5.24,1.77-10.57-3.38c-5.32-5.15-1.36-9.09-1.36-9.09,0,0,4.14-3.95,9.51,1.98,4.52,4.99,2.42,10.49,2.42,10.49Z"/><path class="c" d="M145.93,1086.64s-4.65-.3-7.16-6.02c-2.51-5.71,1.85-7.52,1.85-7.52,0,0,4.49-1.75,6.78,4.58,1.94,5.34-1.46,8.96-1.46,8.96Z"/><path class="c" d="M154.14,1072.72s-6.2,1.28-11.53-5.31c-5.34-6.58-.28-10.51-.28-10.51,0,0,5.25-3.91,10.53,3.57,4.44,6.29,1.29,12.25,1.29,12.25Z"/><path class="c" d="M168.15,1074.15s-4.56-.99-6.18-7.03c-1.62-6.03,2.96-7.16,2.96-7.16,0,0,4.7-1.06,6.02,5.55,1.11,5.56-2.8,8.63-2.8,8.63Z"/><path class="c" d="M171.01,1056.26s-3.38-.72-4.61-5.19c-1.23-4.47,2.16-5.33,2.16-5.33,0,0,3.49-.81,4.49,4.1,.85,4.12-2.04,6.42-2.04,6.42Z"/><path class="c" d="M179.86,1065.9s-3.92-1.39-4.69-6.9c-.76-5.52,3.41-6.01,3.41-6.01,0,0,4.28-.42,4.71,5.58,.36,5.04-3.43,7.33-3.43,7.33Z"/></g><g><path class="c" d="M169.05,1094.58s-5.84,.87-11.59-5.99c-5.75-6.88-1.26-10.45-1.26-10.45,0,0,4.68-3.55,10.46,4.21,4.86,6.52,2.4,12.23,2.4,12.23Z"/><path class="c" d="M196.18,1100.73s-1.38-5.78,4.6-10.86c5.97-5.08,9.78-.41,9.78-.41,0,0,3.8,4.85-3.01,9.89-5.73,4.24-11.38,1.39-11.38,1.39Z"/><path class="c" d="M194.64,1120.53s-1.03-4.34,3.45-8.16c4.48-3.82,7.35-.31,7.35-.31,0,0,2.85,3.64-2.26,7.43-4.3,3.19-8.54,1.04-8.54,1.04Z"/><path class="c" d="M208.78,1108.6s-1.09-4.59,3.65-8.62c4.74-4.04,7.77-.33,7.77-.33,0,0,3.02,3.85-2.39,7.85-4.55,3.37-9.03,1.1-9.03,1.1Z"/><path class="c" d="M223.46,1113.87s-1.03-4.32,3.43-8.12c4.46-3.8,7.31-.31,7.31-.31,0,0,2.84,3.62-2.25,7.4-4.28,3.17-8.5,1.03-8.5,1.03Z"/><path class="c" d="M213.55,1121.5s.82-3.69,5.64-4.95c4.82-1.26,5.71,2.47,5.71,2.47,0,0,.83,3.83-4.46,4.83-4.45,.85-6.89-2.35-6.89-2.35Z"/><path class="c" d="M203.76,1126.18s-.04-2.6,2.99-4.19c3.03-1.6,4.21,.76,4.21,.76,0,0,1.16,2.43-2.23,3.93-2.85,1.26-4.98-.5-4.98-.5Z"/><path class="c" d="M206.73,1135.02s.14-4.06,4.99-6.34c4.85-2.28,6.53,1.48,6.53,1.48,0,0,1.63,3.88-3.76,5.99-4.54,1.77-7.76-1.13-7.76-1.13Z"/><path class="c" d="M221.62,1131.4s.83-3.52,5.46-4.64c4.63-1.13,5.42,2.44,5.42,2.44,0,0,.74,3.67-4.33,4.55-4.26,.74-6.55-2.35-6.55-2.35Z"/><path class="c" d="M209.33,1144.86s2.1-4.71,8.91-5.06c6.8-.35,6.96,4.88,6.96,4.88,0,0,.06,5.34-7.29,5.23-6.19-.1-8.58-5.05-8.58-5.05Z"/><path class="c" d="M205.12,1155.78s1.93-2.52,6.06-1.76c4.13,.77,3.48,3.93,3.48,3.93,0,0-.73,3.21-5.13,2.09-3.7-.95-4.41-4.26-4.41-4.26Z"/><path class="c" d="M221.36,1156.44s2.4-3.12,7.51-2.17c5.11,.95,4.3,4.86,4.3,4.86,0,0-.91,3.98-6.35,2.58-4.58-1.17-5.47-5.27-5.47-5.27Z"/><path class="c" d="M160.87,1106.22s-4.66,1.65-10.48-3.08c-5.82-4.73-2.7-8.38-2.7-8.38,0,0,3.28-3.66,9.27,1.78,5.04,4.59,3.92,9.68,3.92,9.68Z"/><path class="c" d="M161.66,1116.85s-3.24,3.05-9.76,1.25c-6.51-1.8-5.26-5.94-5.26-5.94,0,0,1.39-4.2,8.29-1.88,5.81,1.96,6.73,6.56,6.73,6.56Z"/><path class="c" d="M158.46,1156.46s-.91,3.19-6.19,5.08c-5.28,1.89-6.23-1.04-6.23-1.04,0,0-.89-3.02,4.9-4.78,4.87-1.48,7.52,.73,7.52,.73Z"/><path class="c" d="M153.86,1145.08s-1.62,5.19-9.63,7.2c-8,2.01-9.16-3.15-9.16-3.15,0,0-1.06-5.31,7.68-6.98,7.36-1.41,11.11,2.93,11.11,2.93Z"/><path class="c" d="M140.27,1159.88s-1.22,3.91-7.24,5.42c-6.03,1.51-6.9-2.37-6.9-2.37,0,0-.79-3.99,5.79-5.26,5.54-1.06,8.36,2.21,8.36,2.21Z"/><path class="c" d="M130.78,1146.45s-1.13,5.76-8.69,7.95c-7.54,2.2-9.08-3.54-9.08-3.54,0,0-1.45-5.89,6.84-7.71,6.97-1.54,10.94,3.3,10.94,3.3Z"/><path class="c" d="M138.49,1135.2s-1.33,3.03-6.3,3.71c-4.97,.68-5.33-2.51-5.33-2.51,0,0-.29-3.28,5.11-3.71,4.55-.36,6.52,2.51,6.52,2.51Z"/><path class="c" d="M156.93,1136.31s-1.73,2.95-6.91,3.04c-5.18,.1-5.16-3.23-5.16-3.23,0,0,.11-3.39,5.69-3.18,4.7,.18,6.38,3.37,6.38,3.37Z"/><path class="c" d="M150.26,1128.93s-4.71,3.56-13.05,.28c-8.34-3.28-6.1-8.57-6.1-8.57,0,0,2.41-5.35,11.2-1.31,7.39,3.4,7.96,9.6,7.96,9.6Z"/><path class="c" d="M143.49,1111.72s-4.45,3-11.86-.4c-7.41-3.39-5.12-8.08-5.12-8.08,0,0,2.46-4.74,10.23-.64,6.54,3.45,6.75,9.11,6.75,9.11Z"/><path class="c" d="M143.36,1097.51s-4.25,1.74-9.86-2.38c-5.61-4.12-2.88-7.65-2.88-7.65,0,0,2.87-3.54,8.67,1.24,4.87,4.03,4.07,8.8,4.07,8.8Z"/></g><path class="c" d="M177.46,1083.54s-2.14-.14-3.65-3.02c-1.52-2.88,.35-3.8,.35-3.8,0,0,1.85-.86,3.39,2.3,1.21,2.49-.09,4.53-.09,4.53Z"/><path class="c" d="M186.74,1083.09s-1.02-2.8,1.78-6.34c2.81-3.53,5.03-1.68,5.03-1.68,0,0,2.41,2.12-1.02,5.59-2.84,2.88-5.8,2.43-5.8,2.43Z"/><path class="c" d="M184.85,1162.48s2.56,15.84-1.36,19.77c-.34,.34-1.88,3.74,3.07,1.53,4.94-2.21,9.72,2.91,10.23,1.72,.52-1.2-9.38-12.58-9.38-23.01h-2.56Z"/><path class="c" d="M173.56,1162.48s-1.92,16.25,1.03,20.41c.26,.36,1.41,3.69-2.31,1.34-3.72-2.35-7.32,3.5-7.7,2.24-.39-1.27,7.07-13.55,7.07-23.98h1.92Z"/></g><g><polygon class="c" points="81.9 248.72 66.53 242.03 54.36 270.08 81.49 281.88 88.17 266.53 76.38 261.41 81.9 248.72"/><path class="c" d="M172.03,204.1c1.49-.88,3.57-1.31,6.25-1.31,3.67,0,6.91,.63,9.74,1.91,2.83,1.28,5.5,3.34,7.98,6.21l9.33-12.03c-3.91-3.79-8.01-6.48-12.26-8.07-4.26-1.58-9.35-2.39-15.25-2.39-5.79,0-10.77,.88-14.92,2.62-4.17,1.74-7.34,4.16-9.52,7.28-2.18,3.11-3.27,6.68-3.27,10.73,0,4.28,1.12,7.72,3.36,10.3,2.24,2.58,5.05,4.53,8.44,5.84,3.39,1.29,7.56,2.41,12.55,3.35,3.67,.68,6.32,1.37,7.97,2.05,1.65,.7,2.47,1.61,2.47,2.79,0,2.74-2.83,4.11-8.49,4.12-4.17,0-7.79-.64-10.87-1.91-3.08-1.28-5.86-3.38-8.35-6.3l-8.86,13.06c3.73,3.29,7.77,5.71,12.13,7.23,4.35,1.54,10.06,2.29,17.15,2.29,5.1,0,9.67-.74,13.71-2.24,4.04-1.5,7.24-3.69,9.61-6.63,2.37-2.92,3.54-6.42,3.54-10.55,0-3.84-.82-7.08-2.46-9.69-1.65-2.61-4.26-4.77-7.83-6.48-3.59-1.72-8.36-3.08-14.33-4.15-3.6-.69-6.18-1.33-7.74-1.96-1.55-.61-2.32-1.48-2.32-2.6,0-1.44,.74-2.57,2.24-3.45Z"/><path class="c" d="M174.06,306.8c-5.93,2.6-9.73,3.65-13.11,3.65-.18,0-.37,0-.56,0-.89-.04-1.78-.16-2.59-.36-4.97-1.23-8.54-4.94-11.97-12.43l-16.08-35.27c-3.77-8.28-9.79-12.59-19.53-13.98l-1.4-.21,.78-1.16c5.42-8.07,6.11-15.45,2.25-23.92l-16.07-35.26c-3.42-7.5-3.89-12.63-1.55-17.18,2.19-4.25,6.84-7.12,13.16-10.14l1.51-.73-6.23-13.65-1.55,.71c-14.05,6.4-21.14,11.67-24.48,18.2-3.78,7.44-2.77,16.7,3.3,30.02l16.07,35.26c.47,1.03,1.58,4.58,1.13,8.61-.23,2.69-1.35,6.44-5.49,9.11l-1.24,.8,5.87,12.87,1.38-.34c1.24-.31,2.52-.46,3.74-.41,2.42,.1,4.74,.89,6.83,2.32,3.34,2.43,5.14,5.11,5.68,6.31l16.08,35.26c6.07,13.32,12.38,20.15,20.5,22.17,1.34,.34,2.78,.53,4.29,.6,.31,0,.63,.02,.94,.02,6.16,0,13.73-2.21,24.55-7.15l1.55-.7-6.23-13.67-1.56,.68Z"/><path class="c" d="M261.14,209.03c-.56-1.2-1.39-4.3-1.05-8.28,.45-4.01,2.31-7.17,5.51-9.39l1.16-.81-5.86-12.85-1.41,.39c-1.37,.39-2.69,.56-3.97,.51-2.33-.09-4.55-.89-6.63-2.4-3.27-2.26-5.19-5.4-5.67-6.43l-16.08-35.26c-6.2-13.6-12.28-20.25-20.32-22.25-7.11-1.78-15.7,.11-29.96,6.61l-1.55,.71,6.22,13.67,1.54-.67c6.28-2.72,10.24-3.77,13.68-3.64,.89,.04,1.77,.16,2.59,.36,4.96,1.2,8.55,4.92,11.96,12.44l16.08,35.26c3.86,8.47,9.88,12.78,19.53,13.98l1.4,.19-.76,1.18c-5.34,8.26-6.04,15.63-2.27,23.92l16.08,35.26c3.42,7.49,3.87,12.62,1.54,17.19-2.19,4.24-6.83,7.11-13.15,10.13l-1.51,.71,6.23,13.65,1.55-.71c13.99-6.38,21.36-11.84,24.65-18.29,3.76-7.38,2.72-16.32-3.48-29.93l-16.07-35.26Z"/><polygon class="c" points="274.21 157.02 267.92 172.54 279.83 177.37 274.61 190.19 290.14 196.48 301.64 168.16 274.21 157.02"/><path class="c" d="M221.7,302.09c-1.67,1.49-4.08,2.22-7.24,2.23-7.81,0-11.74-5.81-11.74-17.42,0-5.8,1.03-10.14,3.09-13.05,2.04-2.89,5-4.35,8.84-4.35,3.03,0,5.33,.71,6.91,2.13,1.57,1.42,2.71,4.06,3.4,7.89l16.74-6.7c-1.39-6.05-4.57-10.58-9.55-13.58-4.97-2.98-11.01-4.48-18.06-4.48-6.44,0-11.99,1.27-16.65,3.82-4.66,2.56-8.26,6.25-10.78,11.07-2.52,4.82-3.78,10.58-3.78,17.25s1.26,12.45,3.78,17.32c2.52,4.86,6.13,8.54,10.83,11.08,4.69,2.5,10.26,3.77,16.69,3.78,7.25,0,13.32-1.58,18.2-4.74,4.89-3.14,8.18-8.07,9.89-14.75l-17.22-4.63c-.56,3.27-1.68,5.66-3.36,7.13Z"/><polygon class="c" points="127.75 188.71 130.13 188.71 147.45 188.71 149.18 188.71 149.18 145.2 168.01 145.2 168.01 125.07 111.52 125.07 111.52 145.2 127.75 145.2 127.75 188.71"/></g><g><rect class="c" x="91.28" y="1575.76" width="173.44" height="28.83"/><polygon class="c" points="264.72 1488.77 91.28 1488.76 91.28 1459.92 177.93 1431.06 264.72 1459.93 264.72 1488.77"/><rect class="c" x="91.28" y="1518.01" width="74.25" height="28.84"/><rect class="c" x="190.47" y="1518.01" width="74.25" height="28.83"/></g><g><path class="c" d="M268.14,2355.38c2.26-15.21-2.9-16.61-7.66-17.65-10.79-2.36-37.91,6-56.76,89.03-7.07,35.69-12.67,62.52,15.2,62.52,47.74,0,49.23-38,49.78-38s5.57-.68,5.57,4.39c0,34.13-49.04,43.39-49.04,43.39-62.3,12.41-83.62-44.02-83.62-67.51,0-32.98,21.36-106.04,106.66-106.01,2.57,0,35.46,2.78,30.17,28.62-3.12,15.26-10.3,1.21-10.3,1.21Z"/><path class="c" d="M92.74,2482.77c6.07,8.08,19.2,8.47,29.33,.86,10.14-7.61,13.43-20.32,7.37-28.4-6.07-8.09-19.2-8.47-29.33-.86-10.14,7.6-13.43,20.32-7.37,28.4Z"/><path class="c" d="M77.4,2416.17c2.36,9.83,14.25,15.4,26.58,12.45,12.32-2.96,20.4-13.31,18.04-23.14-2.35-9.82-14.25-15.4-26.58-12.45-12.32,2.96-20.4,13.32-18.04,23.14Z"/><path class="c" d="M90.64,2339.96c-4.96,8.81-.02,20.99,11.01,27.2,11.05,6.21,24.01,4.12,28.98-4.69,4.96-8.81,.02-20.98-11.02-27.2-11.04-6.22-24.01-4.12-28.97,4.69Z"/><path class="c" d="M139.35,2294.13c-8.21,5.9-8.87,19.02-1.48,29.31,7.39,10.29,20.03,13.85,28.25,7.96,8.21-5.9,8.87-19.02,1.48-29.31-7.39-10.29-20.03-13.86-28.25-7.96Z"/></g><g><path class="c" d="M117.15,2787.1c13.47-12.83,29.39-23.43,46.82-29,8.68-2.82,17.63-4.3,26.45-4.75,4.43-.26,8.8-.02,13.18,.18,4.39,.24,8.78,.8,13.08,1.73,17.18,3.82,32.7,12.45,46.48,23.4-13.04-34.07-46.03-58.27-84.69-58.27-50.08,0-90.67,40.6-90.67,90.67,0,3.36,.2,6.68,.55,9.95,8.6-12.19,18.03-23.71,28.79-33.92Z"/><path class="c" d="M253.67,2791.65c-4.67-6.22-10.39-11.69-17.03-15.72-6.6-4.09-14.07-6.68-21.72-7.74-7.62-1.09-15.5-.97-23.1,.59-7.57,1.45-14.81,4.07-21.31,7.8-13.08,7.41-23.07,18.96-29.86,32.14-6.84,13.2-10.68,27.98-12.24,43.02-1.3,12.84-.88,25.94,1.11,38.83,14.13,9.09,30.93,14.38,48.97,14.38,45.6,0,83.32-33.66,89.71-77.49-1.99-13.03-6.76-25.44-14.52-35.8Z"/></g><g><path class="c" d="M182.25,1972.91c-.42,.58-.95,1.04-1.58,1.36-.63,.33-1.3,.55-2.03,.65-.73,.11-1.39,.15-1.99,.15h-3.54v-8.64h4.28c.56,0,1.16,.04,1.81,.11,.65,.08,1.25,.25,1.8,.53,.55,.28,1,.7,1.36,1.25,.35,.56,.53,1.32,.53,2.27s-.21,1.73-.64,2.31Z"/><path class="c" d="M297.29,1999.96c.14,4.92-1.31,9.72-3.3,13.41-2,3.74-4.44,6.64-6.9,9.13-4.96,4.84-10.07,8.26-15.18,11.1-10.23,5.68-20.54,9.42-30.92,12.51-20.78,5.96-41.94,8.33-62.98,8.09-21.05-.34-42.1-2.71-62.93-8.32-10.42-2.9-20.75-6.56-31.04-12.14-5.13-2.82-10.27-6.25-15.22-11.13-2.45-2.52-4.88-5.45-6.86-9.21-1.98-3.71-3.4-8.52-3.23-13.45,.12-4.93,1.81-9.56,3.97-13.03,2.17-3.52,4.73-6.16,7.28-8.38,5.14-4.31,10.39-7.07,15.56-9.37,4.66-2.05,9.32-3.66,13.97-5.03l7.76,18.66c-4.28,1.68-8.37,3.57-12.13,5.69-3.77,2.11-7.1,4.63-9.34,7.06-1.06,1.2-1.82,2.37-2.12,3.18-.31,.84-.16,1.14-.03,1.22,.15,.09,.27,.2,.77,.8,.49,.57,1.37,1.45,2.53,2.35,2.43,1.85,5.87,3.71,9.68,5.3,7.63,3.23,16.52,5.42,25.5,7.1,18.1,3.28,37.05,4.41,55.88,4.17,9.43-.15,18.83-.53,28.16-1.23,4.66-.35,9.33-.7,13.93-1.28,4.61-.53,9.21-1.09,13.73-1.89,9.01-1.49,17.92-3.6,25.62-6.73,3.83-1.56,7.29-3.43,9.71-5.32,1.15-.93,2.02-1.83,2.49-2.43,.48-.62,.57-.76,.7-.84,.11-.08,.23-.36-.1-1.18-.32-.79-1.08-1.93-2.15-3.1-2.25-2.38-5.55-4.9-9.3-7.03-4.86-2.83-10.29-5.25-15.97-7.36l6.84-18.41c6.28,1.53,12.57,3.47,18.88,6.17,5.19,2.27,10.46,5.04,15.6,9.39,2.54,2.25,5.08,4.91,7.24,8.46,2.15,3.49,3.81,8.14,3.9,13.07Z"/><path class="c" d="M247.71,1887.28c-10.08,0-20.62,2.98-20.62,11v.23c0,7.33,7.56,8.7,3.21,21.99l-10.08,31.15-16.04-51.54c-2.98-10.08-4.81-12.83-15.12-12.83s-11.91,3.67-14.2,10.31l-19.24,56.35-11.91-35.05c-3.44-10.31,3.67-13.97,3.67-21.76v-.46c0-8.47-15.58-9.39-32.3-9.39-20.62,0-30.69,2.98-30.69,11.68v.46c0,10.08,10.08,14.2,14.43,24.97l26.11,62.77c4.12,9.85,8.25,13.06,20.39,13.06,12.83,0,14.2-5.5,18.33-16.49l13.51-34.82,12.83,38.25c3.44,10.08,7.33,13.06,19.47,13.06s14.43-5.5,18.55-16.49l23.14-62.31c4.12-10.77,15.81-15.81,15.81-23.59v-.23c0-7.33-9.85-10.31-19.24-10.31Z"/></g><g><path d="M9.61,43.84h-.1l-4.21,3.3h-.26v-2.25l4.55-3.53h2.25v18.31h-2.22v-15.82Z"/><path d="M16.41,54.49h2.22c0,1.88,1.39,3.43,3.82,3.43,2.77,0,3.84-1.78,3.84-4.16s-1.18-4.08-3.82-4.08c-1.75,0-2.75,.84-3.45,1.8h-2.3l.71-10.12h10.25v2.01h-8.32l-.42,5.83h.1c.68-.73,1.83-1.49,3.77-1.49,3.69,0,5.73,2.56,5.73,5.96,0,3.69-1.99,6.22-6.09,6.22-3.74,0-6.04-2.35-6.04-5.41Z"/><path d="M31.94,56.79h2.82v2.88h-2.82v-2.88Z"/></g><line class="b" x1="1.49" y1="14.16" x2="363.43" y2="13.64"/><g><path d="M9.61,477.75h-.1l-4.21,3.3h-.26v-2.25l4.55-3.53h2.25v18.31h-2.22v-15.82Z"/><path d="M16.54,484.71c0-5.13,1.78-9.75,6.72-9.75,3.17,0,5.34,1.91,5.68,4.73h-2.28c-.18-1.67-1.52-2.72-3.4-2.72-3.32,0-4.5,3.35-4.5,7.17h.1c.79-1.49,2.2-2.51,4.45-2.51,3.77,0,5.83,2.69,5.83,6.02s-2.3,6.17-6.15,6.17c-4.71,0-6.46-3.92-6.46-9.1Zm10.33,2.98c0-2.3-1.31-4.11-3.84-4.11s-3.87,1.8-3.87,4.08,1.36,4.16,3.87,4.16,3.84-1.86,3.84-4.13Z"/><path d="M32.67,490.7h2.82v2.88h-2.82v-2.88Z"/></g><line class="b" x1="1.49" y1="448.07" x2="363.43" y2="447.55"/><g><path d="M9.61,911.67h-.1l-4.21,3.3h-.26v-2.25l4.55-3.53h2.25v18.31h-2.22v-15.82Z"/><path d="M17.45,927.23l7.92-15.88v-.1H15.88v-2.07h11.8v2.2l-8.03,16.11h-2.2v-.26Z"/><path d="M26.68,924.61h2.82v2.88h-2.82v-2.88Z"/></g><line class="b" x1="1.49" y1="881.98" x2="363.43" y2="881.46"/><g><path d="M9.61,1345.58h-.1l-4.21,3.3h-.26v-2.25l4.55-3.53h2.25v18.31h-2.22v-15.82Z"/><path d="M28.75,1356.35c0,3.3-2.35,5.26-6.17,5.28-3.82-.03-6.17-1.99-6.17-5.28,0-2.12,1.02-3.82,3.11-4.6v-.1c-1.67-.76-2.56-2.2-2.56-4.03,0-2.96,2.14-4.81,5.62-4.84,3.48,.03,5.62,1.88,5.62,4.84,0,1.83-.89,3.27-2.56,4.03v.1c2.09,.78,3.11,2.48,3.11,4.6Zm-2.28-.16c0-1.91-1.1-3.43-3.9-3.45-2.8,.03-3.9,1.54-3.9,3.45,0,2.04,1.18,3.48,3.9,3.5,2.72-.03,3.9-1.46,3.9-3.5Zm-3.9-5.39c2.25-.03,3.37-1.39,3.37-3.09s-1.1-2.98-3.37-3.01c-2.28,.03-3.37,1.25-3.37,3.01s1.12,3.06,3.37,3.09Z"/><path d="M32.15,1358.52h2.82v2.88h-2.82v-2.88Z"/></g><line class="b" x1="1.49" y1="1315.89" x2="363.43" y2="1315.37"/><g><path d="M9.61,1779.49h-.1l-4.21,3.3h-.26v-2.25l4.55-3.53h2.25v18.31h-2.22v-15.82Z"/><path d="M16.75,1790.81h2.28c.18,1.67,1.52,2.72,3.4,2.72,3.32,0,4.5-3.35,4.5-7.17h-.1c-.79,1.49-2.2,2.51-4.45,2.51-3.77,0-5.83-2.69-5.83-6.02s2.3-6.17,6.15-6.17c4.71,0,6.46,3.92,6.46,9.1s-1.78,9.75-6.72,9.75c-3.16,0-5.33-1.91-5.67-4.73Zm9.78-7.98c0-2.28-1.36-4.16-3.87-4.16s-3.84,1.86-3.84,4.13,1.31,4.11,3.84,4.11,3.87-1.8,3.87-4.08Z"/><path d="M32.67,1792.43h2.82v2.88h-2.82v-2.88Z"/></g><line class="b" x1="1.49" y1="1749.8" x2="363.43" y2="1749.28"/><g><path d="M5.34,2227.49l6.25-7.3c1.88-2.2,2.62-3.03,2.62-4.58,0-1.78-1.07-3.03-3.27-3.03s-3.43,1.23-3.43,3.45h-2.22c0-3.19,2.07-5.44,5.65-5.44s5.54,2.14,5.54,4.94c0,2.04-1.1,3.4-3.37,6.04l-4.73,5.49v.1h8.4v2.04H5.34v-1.73Z"/><path d="M20.3,2220.01c0-5.44,1.65-9.42,6.38-9.42s6.38,3.97,6.38,9.42-1.65,9.44-6.38,9.44-6.38-3.98-6.38-9.44Zm10.49,0c0-3.98-.81-7.43-4.11-7.43s-4.11,3.45-4.11,7.43,.78,7.45,4.11,7.45,4.11-3.45,4.11-7.45Z"/><path d="M36.6,2226.34h2.82v2.88h-2.82v-2.88Z"/></g><line class="b" x1="1.49" y1="2183.71" x2="363.43" y2="2183.19"/><g><path d="M5.34,2661.4l6.25-7.3c1.88-2.2,2.62-3.03,2.62-4.58,0-1.78-1.07-3.03-3.27-3.03s-3.43,1.23-3.43,3.45h-2.22c0-3.19,2.07-5.44,5.65-5.44s5.54,2.14,5.54,4.94c0,2.04-1.1,3.4-3.37,6.04l-4.73,5.49v.1h8.4v2.04H5.34v-1.73Z"/><path d="M24.49,2647.3h-.1l-4.21,3.3h-.26v-2.25l4.55-3.53h2.25v18.31h-2.22v-15.82Z"/><path d="M31.29,2660.25h2.82v2.88h-2.82v-2.88Z"/></g><line class="b" x1="1.49" y1="2617.62" x2="363.43" y2="2617.1"/></svg>