<svg id="Layer_1" data-name="Layer 1" xmlns="http://www.w3.org/2000/svg" viewBox="0 0 1200 750"><defs><style>.cls-1{fill:#f1f1f2;}.cls-2{fill:#ee8768;}.cls-3{fill:#df2e26;}.cls-4{fill:#8c2922;}.cls-5{fill:#210000;}</style></defs><path class="cls-1" d="M64.9-28.26h46.56l-31,155.42h-43L-7.82,47.79l-16,79.37H-70.57l31-155.42h43L48.94,51.56Z"/><path class="cls-1" d="M185.07-28.26,154,127.16H102.59l31-155.42Z"/><path class="cls-1" d="M296.81,45.35h44.13l-12.86,65a132.45,132.45,0,0,1-32.48,14.75,117,117,0,0,1-34.48,5.65q-22.4,0-39.8-9.53a68.55,68.55,0,0,1-27-26.28q-9.65-16.74-9.65-38a82.94,82.94,0,0,1,12.75-45.24,89.43,89.43,0,0,1,34.7-31.7Q254-31.59,280.85-31.59a99.92,99.92,0,0,1,35.7,6.65Q334.06-18.3,345.6-7.2L313,28.05a51.88,51.88,0,0,0-17.18-12.3,47.66,47.66,0,0,0-19.63-4.55,35.66,35.66,0,0,0-19.28,5.55,39.73,39.73,0,0,0-14.08,15.18,43.78,43.78,0,0,0-5.22,21.18q0,15.3,8.76,25t22.51,9.76q8.19,0,20.4-4.88Z"/><path class="cls-1" d="M481.06-28.27H532.5l-31,155.43H450l11.31-56.09H413.22l-11.31,56.09H350.47l31-155.43H433L421,32h48.11Z"/><path class="cls-1" d="M694.14-28.27l-8.21,40.58H641.59L618.53,127.16H567.09L590.15,12.31H546l8.21-40.58Z"/><path class="cls-1" d="M827.61-28.27l-8.2,40.58H775.06L752,127.16H700.56L723.62,12.31H679.5l8.2-40.58Z"/><path class="cls-1" d="M962.3,52.88a61.9,61.9,0,0,1-26.49,24.4l20.4,49.88H898.12L887.48,86.81h-19.3l-8,40.35H808.76l31-155.43H915q27.27,0,41.9,11.64t14.64,33.15Q971.51,37.14,962.3,52.88Zm-86.13-5.09h23.72q10,0,15.85-6.32t5.88-16.74q0-6.66-3.77-10.31t-10.64-3.66H883.48Z"/><path class="cls-1" d="M1082.59,127.16l-4-22h-58.31l-11.75,22H956.21l91.34-155.43h52.77l37.47,155.43Zm-42.8-58.75h32.38L1064,23.17Z"/><path class="cls-1" d="M1229.14-28.27l-31,155.43h-51.44l31-155.43Z"/><path class="cls-2" d="M64.9,135.29h46.56l-31,155.43h-43L-7.82,211.34l-16,79.38H-70.57l31-155.43h43l45.45,79.82Z"/><path class="cls-2" d="M185.07,135.29,154,290.72H102.59l31-155.43Z"/><path class="cls-2" d="M296.81,208.9h44.13l-12.86,65a132.43,132.43,0,0,1-32.48,14.74,117,117,0,0,1-34.48,5.66q-22.4,0-39.8-9.54a68.46,68.46,0,0,1-27-26.27q-9.65-16.74-9.65-38a82.93,82.93,0,0,1,12.75-45.23,89.28,89.28,0,0,1,34.7-31.7Q254,132,280.85,132a99.71,99.71,0,0,1,35.7,6.65q17.51,6.65,29.05,17.74L313,191.61a52,52,0,0,0-17.18-12.31,47.8,47.8,0,0,0-19.63-4.54,35.73,35.73,0,0,0-19.28,5.54,39.83,39.83,0,0,0-14.08,15.19,43.77,43.77,0,0,0-5.22,21.17q0,15.3,8.77,25.06t22.5,9.75q8.19,0,20.4-4.87Z"/><path class="cls-2" d="M481.06,135.29H532.5l-31,155.43H450l11.31-56.1H413.22l-11.31,56.1H350.47l31-155.43H433L421,195.6h48.11Z"/><path class="cls-2" d="M694.14,135.29l-8.21,40.58H641.59L618.53,290.72H567.09l23.06-114.85H546l8.2-40.58Z"/><path class="cls-2" d="M827.61,135.29l-8.2,40.58H775.06L752,290.72H700.56l23.06-114.85H679.5l8.2-40.58Z"/><path class="cls-2" d="M962.3,216.44a61.82,61.82,0,0,1-26.49,24.39l20.4,49.89H898.12l-10.64-40.35h-19.3l-8,40.35H808.76l31-155.43H915q27.27,0,41.9,11.64t14.64,33.15Q971.51,200.71,962.3,216.44Zm-86.13-5.1h23.72q10,0,15.85-6.32t5.88-16.74q0-6.65-3.77-10.31t-10.64-3.66H883.48Z"/><path class="cls-2" d="M1082.59,290.72l-4-22h-58.31l-11.75,22H956.21l91.34-155.43h52.77l37.47,155.43ZM1039.79,232h32.38L1064,186.73Z"/><path class="cls-2" d="M1229.15,135.29,1198.1,290.72h-51.44l31-155.43Z"/><path class="cls-3" d="M64.9,298.85h46.56l-31,155.43h-43L-7.82,374.9l-16,79.38H-70.57l31-155.43h43l45.45,79.82Z"/><path class="cls-3" d="M185.07,298.85,154,454.28H102.59l31-155.43Z"/><path class="cls-3" d="M296.81,372.46h44.13l-12.86,65a132.43,132.43,0,0,1-32.48,14.74,117,117,0,0,1-34.48,5.66q-22.4,0-39.8-9.54a68.46,68.46,0,0,1-27-26.27q-9.65-16.74-9.65-38a82.91,82.91,0,0,1,12.75-45.23,89.38,89.38,0,0,1,34.7-31.71q22-11.52,48.78-11.53a99.72,99.72,0,0,1,35.7,6.66q17.51,6.65,29.05,17.73L313,355.17a51.76,51.76,0,0,0-17.18-12.31,47.63,47.63,0,0,0-19.62-4.54,35.74,35.74,0,0,0-19.29,5.54,39.83,39.83,0,0,0-14.08,15.19,43.76,43.76,0,0,0-5.21,21.17q0,15.3,8.76,25.06t22.5,9.75q8.19,0,20.4-4.88Z"/><path class="cls-3" d="M481.06,298.85h51.45L501.46,454.28H450l11.31-56.1H413.22l-11.31,56.1H350.47l31-155.43H433l-12,60.31h48.11Z"/><path class="cls-3" d="M694.14,298.85l-8.21,40.57H641.59L618.53,454.28H567.09l23.06-114.86H546l8.2-40.57Z"/><path class="cls-3" d="M827.61,298.85l-8.2,40.57H775.06L752,454.28H700.56l23.06-114.86H679.5l8.2-40.57Z"/><path class="cls-3" d="M962.3,380a61.88,61.88,0,0,1-26.49,24.39l20.4,49.89H898.12l-10.64-40.36h-19.3l-8,40.36H808.76l31-155.43H915q27.27,0,41.9,11.64t14.64,33.15Q971.51,364.25,962.3,380Zm-86.13-5.1h23.72q10,0,15.85-6.32t5.88-16.74q0-6.64-3.77-10.31t-10.64-3.66H883.48Z"/><path class="cls-3" d="M1082.59,454.28l-4-21.95h-58.31l-11.75,21.95H956.21l91.34-155.43h52.77l37.47,155.43Zm-42.8-58.76h32.38L1064,350.29Z"/><path class="cls-3" d="M1229.15,298.85,1198.1,454.28h-51.44l31-155.43Z"/><path class="cls-4" d="M64.9,462.41h46.56l-31,155.43h-43L-7.82,538.46l-16,79.38H-70.57l31-155.43h43l45.45,79.82Z"/><path class="cls-4" d="M185.07,462.41,154,617.84H102.59l31-155.43Z"/><path class="cls-4" d="M296.81,536h44.13l-12.86,65a132.08,132.08,0,0,1-32.48,14.75,117,117,0,0,1-34.48,5.65q-22.4,0-39.8-9.53a68.52,68.52,0,0,1-27-26.27q-9.65-16.74-9.65-38a82.91,82.91,0,0,1,12.75-45.23,89.38,89.38,0,0,1,34.7-31.71q22-11.52,48.78-11.53a99.92,99.92,0,0,1,35.7,6.65q17.51,6.66,29.05,17.74L313,518.72a51.88,51.88,0,0,0-17.18-12.3,47.65,47.65,0,0,0-19.62-4.55,35.66,35.66,0,0,0-19.29,5.55,39.73,39.73,0,0,0-14.08,15.18,43.8,43.8,0,0,0-5.21,21.18q0,15.3,8.76,25.05t22.5,9.76q8.21,0,20.4-4.88Z"/><path class="cls-4" d="M481.07,462.41h51.44L501.46,617.84H450l11.31-56.1H413.22l-11.31,56.1H350.47l31-155.43H433l-12,60.31h48.11Z"/><path class="cls-4" d="M694.14,462.41,685.93,503H641.59L618.53,617.84H567.09L590.15,503H546l8.2-40.57Z"/><path class="cls-4" d="M827.61,462.41,819.41,503H775.06L752,617.83H700.56L723.62,503H679.5l8.2-40.57Z"/><path class="cls-4" d="M962.3,543.56A61.94,61.94,0,0,1,935.81,568l20.4,49.88H898.12l-10.64-40.35h-19.3l-8,40.35H808.76l31-155.42H915q27.27,0,41.9,11.64t14.64,33.15Q971.51,527.81,962.3,543.56Zm-86.13-5.1h23.72q10,0,15.85-6.32t5.88-16.74q0-6.66-3.77-10.31t-10.64-3.66H883.48Z"/><path class="cls-4" d="M1082.59,617.83l-4-22h-58.32l-11.75,22H956.21l91.34-155.42h52.78l37.46,155.42Zm-42.8-58.75h32.38L1064,513.85Z"/><path class="cls-4" d="M1229.15,462.41,1198.1,617.83h-51.43l31-155.42Z"/><path class="cls-5" d="M64.9,626h46.56l-31,155.42h-43L-7.82,702l-16,79.37H-70.57l31-155.42h43l45.45,79.82Z"/><path class="cls-5" d="M185.07,626,154,781.39H102.59l31-155.42Z"/><path class="cls-5" d="M296.82,699.58h44.12l-12.86,65a132.45,132.45,0,0,1-32.48,14.75,117,117,0,0,1-34.48,5.65q-22.4,0-39.8-9.53a68.61,68.61,0,0,1-27-26.28q-9.65-16.74-9.65-38a82.94,82.94,0,0,1,12.75-45.24,89.43,89.43,0,0,1,34.7-31.7q22-11.53,48.78-11.53a99.92,99.92,0,0,1,35.7,6.65q17.51,6.65,29.05,17.74L313,682.28A51.88,51.88,0,0,0,295.82,670a47.65,47.65,0,0,0-19.62-4.55A35.66,35.66,0,0,0,256.91,671a39.73,39.73,0,0,0-14.08,15.18,43.77,43.77,0,0,0-5.21,21.18q0,15.3,8.76,25t22.5,9.76q8.21,0,20.4-4.88Z"/><path class="cls-5" d="M481.07,626h51.44l-31,155.43H450l11.3-56.09H413.22l-11.31,56.09H350.47l31-155.43H433l-12,60.31h48.11Z"/><path class="cls-5" d="M694.14,626l-8.21,40.58H641.59L618.53,781.39H567.09l23.06-114.85H546l8.2-40.58Z"/><path class="cls-5" d="M827.61,626l-8.2,40.58H775.06L752,781.39H700.56l23.07-114.85H679.5L687.7,626Z"/><path class="cls-5" d="M962.3,707.11a61.9,61.9,0,0,1-26.49,24.4l20.4,49.88H898.12L887.48,741h-19.3l-8,40.35H808.77l31-155.43H915q27.27,0,41.9,11.64t14.64,33.15Q971.51,691.38,962.3,707.11ZM876.17,702h23.72q10,0,15.86-6.32T921.62,679q0-6.66-3.77-10.31T907.21,665H883.48Z"/><path class="cls-5" d="M1082.59,781.39l-4-21.95h-58.32l-11.75,21.95H956.21L1047.55,626h52.78l37.47,155.43Zm-42.79-58.75h32.37L1064,677.4Z"/><path class="cls-5" d="M1229.15,626,1198.1,781.39h-51.43l31-155.43Z"/></svg>