<svg id="Layer_1" data-name="Layer 1" xmlns="http://www.w3.org/2000/svg" viewBox="0 0 386 2966"><defs><style>.cls-1{fill:#fff;}.cls-2{fill:#161617;}.cls-3,.cls-4{fill:none;}.cls-3{stroke:#000;stroke-miterlimit:10;stroke-width:1.05px;}</style></defs><polygon class="cls-1" points="312.79 671.41 312.79 694.33 259.29 645.61 259.29 622.7 312.79 671.41"/><polygon class="cls-2" points="312.79 724.25 312.79 699.29 259.29 650.58 259.29 724.25 312.79 724.25"/><polygon class="cls-1" points="50.12 671.41 50.12 694.33 103.62 645.61 103.62 622.7 50.12 671.41"/><polygon class="cls-2" points="103.62 724.25 103.62 650.58 50.12 699.29 50.12 724.25 103.62 724.25"/><path class="cls-2" d="M230.05,724.25c2.22,0,3.06-1.39,2.08-3.2L207,664.85,230.6,616.3c1-1.95.14-3.34-1.94-3.34H214.05a3.3,3.3,0,0,0-3.2,2.08l-21.42,43.83V615.74a2.49,2.49,0,0,0-2.78-2.78H173.29a2.49,2.49,0,0,0-2.78,2.78V721.47a2.5,2.5,0,0,0,2.78,2.78h13.36a2.5,2.5,0,0,0,2.78-2.78V690.72l5.14-9.87,17.54,41.31a3.05,3.05,0,0,0,3.19,2.09Z"/><path class="cls-2" d="M131,653c0,13.08,6.94,20,20,20h18.37c12.93,0,20-7,20-20V614.34a2,2,0,0,0-2.22-2.23H163.77a1.94,1.94,0,0,0-2.23,2.23v13.91a2,2,0,0,0,2.23,2.23H171v18.64c0,3.75-1.95,5.56-5.57,5.56h-10c-3.61,0-5.56-1.81-5.56-5.56V585.69c0-3.63,1.81-5.57,5.56-5.57h10c3.62,0,5.57,1.94,5.57,5.57v10.57a2,2,0,0,0,2.22,2.22h13.92a2,2,0,0,0,2.22-2.22V581.79c0-13.08-7.1-20-20-20H151c-13.08,0-20,7-20,20Z"/><path class="cls-2" d="M62.16,2820.28a7,7,0,0,0-3.93-2.22l1-.44a7.89,7.89,0,0,0,1-.67,5.42,5.42,0,0,0,2-4.63,6.9,6.9,0,0,0-1.79-4.64,6.66,6.66,0,0,0-2.94-1.74,14.66,14.66,0,0,0-4.65-.65H42.42v26.56H54.05q5.46,0,7.67-2.47a7.12,7.12,0,0,0,1.9-4.9A6.19,6.19,0,0,0,62.16,2820.28Zm-13.81-10H51.2a8.51,8.51,0,0,1,3.72.58,2.34,2.34,0,0,1,1.1,2.33,2.26,2.26,0,0,1-1.19,2.3,9.64,9.64,0,0,1-3.67.53H48.35Zm7.88,15.91a9,9,0,0,1-3.82.62H48.35v-6.11h3.49a11.68,11.68,0,0,1,4.32.58,2.4,2.4,0,0,1,1.34,2.44A2.49,2.49,0,0,1,56.23,2826.21Z"/><path class="cls-2" d="M87.75,2805.29H82l-11.47,26.56h6.3l2.48-5.74H90.45l2.47,5.74h6.3Zm-6.2,15.61,3.35-7.71,3.31,7.71Z"/><path class="cls-2" d="M120.2,2826.6a7.4,7.4,0,0,1-5.44-2.24,8,8,0,0,1-2.24-6,7.61,7.61,0,0,1,2.38-5.88,8.13,8.13,0,0,1,5.72-2.19,8.66,8.66,0,0,1,7,3.5l3.68-4.18a14,14,0,0,0-10.94-5,13.66,13.66,0,0,0-9.9,4,14,14,0,0,0-.07,19.65,14.34,14.34,0,0,0,20.76-1.22l-3.8-3.91a8.75,8.75,0,0,1-7.14,3.45"/><path class="cls-2" d="M141.51,2831.85h5.93v-7.53l2.66-3,7.79,10.49h6.92q-1.83-2.55-5.52-7.74t-5-7.08l10.57-11.75h-7.34l-10,10.91v-10.91h-5.93Z"/><polygon class="cls-2" points="206.41 2816.38 195.85 2816.38 195.85 2805.29 189.92 2805.29 189.92 2831.85 195.85 2831.85 195.85 2821.4 206.41 2821.4 206.41 2831.85 212.34 2831.85 212.34 2805.29 206.41 2805.29 206.41 2816.38"/><path class="cls-2" d="M246.91,2808.61a14.47,14.47,0,0,0-19.83,0,13.89,13.89,0,0,0,0,19.57,14.45,14.45,0,0,0,19.83,0,13.89,13.89,0,0,0,0-19.57Zm-4.29,15.85a7.55,7.55,0,0,1-11.21,0,9.17,9.17,0,0,1,0-12.1,7.51,7.51,0,0,1,11.21,0,9.17,9.17,0,0,1,0,12.1Z"/><polygon class="cls-2" points="285.44 2831.85 291.37 2831.85 291.37 2805.29 283.39 2805.29 276.51 2819.88 269.67 2805.29 261.66 2805.29 261.66 2831.85 267.58 2831.85 267.58 2815.13 274.73 2829.64 278.26 2829.64 285.44 2815.13 285.44 2831.85"/><polygon class="cls-2" points="303.6 2805.29 303.6 2831.85 323.17 2831.85 323.17 2826.6 309.53 2826.6 309.53 2821.1 321.42 2821.1 321.42 2816.04 309.53 2816.04 309.53 2810.57 322.75 2810.57 322.75 2805.29 303.6 2805.29"/><path class="cls-1" d="M21.92,2792.58a22.45,22.45,0,0,0,11.73-1.53c4.83-2.1,8.62-5.94,11.28-11.46H87.27v-7.69H39.8l-1,2.43c-5.72,14.58-18,10.37-19.35,9.85l-5.26-2.08v63.32h7.69Z"/><polygon class="cls-1" points="348.68 2771.91 273.24 2771.91 273.24 2779.59 340.99 2779.59 340.99 2845.43 348.68 2845.43 348.68 2771.91"/><path class="cls-2" d="M182.7,201.5l39.59,35.23a1.45,1.45,0,0,0,1.8.11l59.33-40.78a1.46,1.46,0,0,0,.37-2l-10.25-14.91a1.45,1.45,0,0,0-2-.38l-13.61,9.35a1.46,1.46,0,0,1-2.24-.85,76.23,76.23,0,0,0-73.87-57.79c-35.56,0-65.5,24.52-74.35,58.07a1.45,1.45,0,0,1-2.22.84l-14-9.43a1.46,1.46,0,0,0-2,.4l-10.12,15a1.45,1.45,0,0,0,.39,2l59.91,40.46a1.46,1.46,0,0,0,1.79-.12l39.55-35.19A1.48,1.48,0,0,1,182.7,201.5ZM127,203.05a1.46,1.46,0,0,1-.65-1.35c2.8-28.88,26.57-51.24,55.46-51.24a55.15,55.15,0,0,1,55,51.31,1.48,1.48,0,0,1-.63,1.31l-10.35,7.11a1.46,1.46,0,0,1-1.8-.11L182.7,173.37a1.48,1.48,0,0,0-1.95,0l-41.32,36.76a1.45,1.45,0,0,1-1.79.12Z"/><path class="cls-1" d="M223.83,258.74l-41-36.47a1.65,1.65,0,0,0-2.22,0L139.55,258.8a1.66,1.66,0,0,1-2,.13L91.44,227.82a1.68,1.68,0,0,0-2.32.45l-9.9,14.65a1.68,1.68,0,0,0,.45,2.32l59.61,40.25a1.67,1.67,0,0,0,2-.13l39.29-35a1.68,1.68,0,0,1,2.22,0l39.34,35a1.66,1.66,0,0,0,2.05.12l59-40.57a1.66,1.66,0,0,0,.44-2.32l-10-14.57a1.67,1.67,0,0,0-2.32-.43l-45.45,31.24A1.67,1.67,0,0,1,223.83,258.74Z"/><path class="cls-1" d="M181.05,1451.79h0A33.23,33.23,0,0,1,214.28,1485v62.12a0,0,0,0,1,0,0H181.05a0,0,0,0,1,0,0v-95.35A0,0,0,0,1,181.05,1451.79Z" transform="translate(1697.12 1301.8) rotate(90)"/><path class="cls-2" d="M200.22,1376.61h0a0,0,0,0,1,0,0v127.24a0,0,0,0,1,0,0h0a37,37,0,0,1-37-37V1413.6A37,37,0,0,1,200.22,1376.61Z" transform="translate(1621.95 1258.51) rotate(90)"/><path class="cls-2" d="M245.34,1570.93h0a37,37,0,0,1-37,37H155.09a37,37,0,0,1-37-37H245.34Z"/><rect class="cls-2" x="118.1" y="1482.85" width="32.61" height="66.45" transform="translate(268.81 3032.14) rotate(-180)"/><path class="cls-2" d="M295.12,2368.55c-5,5.79-22.6,18.11-22.6,31.45,0,10.36,10.12,19.65,22.6,19.65s22.6-8.8,22.6-19.65C317.72,2388.36,299.79,2374.74,295.12,2368.55Zm0,33.88c-2.56,0-4.64-1.91-4.64-4,0-2.74,3.58-5.57,4.61-6.76h0c1,1.27,4.66,4.37,4.66,6.76C299.77,2400.62,297.69,2402.43,295.12,2402.43Z"/><path class="cls-1" d="M47,2443.18a1,1,0,0,1,0,1.38,1,1,0,0,1-.7.27H38.66a1.34,1.34,0,0,1-1-.39,1.31,1.31,0,0,1-.39-1v-12.74a1,1,0,0,1,.28-.7.91.91,0,0,1,.69-.29.94.94,0,0,1,.69.29,1,1,0,0,1,.29.7v12.13h7A1,1,0,0,1,47,2443.18Z"/><path class="cls-1" d="M63.09,2443.28a.89.89,0,0,1,.27.65.86.86,0,0,1-.27.65.9.9,0,0,1-.65.25h-8.6a.94.94,0,0,1-1-1v-13a.94.94,0,0,1,.28-.69.87.87,0,0,1,.68-.29h8.6a.88.88,0,0,1,.65.27.86.86,0,0,1,.27.65.88.88,0,0,1-.27.65.9.9,0,0,1-.65.25H54.83v4.74h6.84a.88.88,0,0,1,.65.27.89.89,0,0,1,.27.65.88.88,0,0,1-.27.65.9.9,0,0,1-.65.25H54.83V2443h7.61A.88.88,0,0,1,63.09,2443.28Z"/><path class="cls-1" d="M82,2443.55l-5.47-12.91a1.3,1.3,0,0,0-1.25-.88h-.21a1.28,1.28,0,0,0-1.24.88l-5.47,12.91a1.42,1.42,0,0,0-.11.55.87.87,0,0,0,.26.57,1.08,1.08,0,0,0,.82.27.86.86,0,0,0,.81-.6l1.39-3.34h7.29l1.4,3.34a.85.85,0,0,0,.81.6,1.11,1.11,0,0,0,.82-.27.85.85,0,0,0,.25-.57A1.42,1.42,0,0,0,82,2443.55Zm-9.72-4.33,2.89-7,2.9,7Z"/><path class="cls-1" d="M99.34,2443.38a1,1,0,0,1,.24.66.83.83,0,0,1-.27.63,1,1,0,0,1-.72.27.88.88,0,0,1-.73-.38l-5.53-7.06L89.89,2440v4a.94.94,0,0,1-.29.69,1,1,0,0,1-.7.27.92.92,0,0,1-1-1v-13.23a1,1,0,0,1,.27-.7.94.94,0,0,1,.69-.29,1,1,0,0,1,1,1v6.82l7.33-7.46a.84.84,0,0,1,.69-.35.92.92,0,0,1,.68.25.85.85,0,0,1,.26.64.82.82,0,0,1-.24.63l-5,4.94Z"/><path class="cls-1" d="M126.69,2434.66a6.79,6.79,0,0,0-1.4-2.39,7.24,7.24,0,0,0-5.71-2.4h-4.31a.87.87,0,0,0-.68.29,1,1,0,0,0-.28.69v13a1,1,0,0,0,.28.69.93.93,0,0,0,.68.27h4.31a7.23,7.23,0,0,0,5.71-2.39,6.83,6.83,0,0,0,1.4-2.4,8.1,8.1,0,0,0,0-5.38Zm-3,6.79a6,6,0,0,1-4.29,1.56h-3.09v-11.32h3.09a5.92,5.92,0,0,1,4.29,1.57,6.1,6.1,0,0,1,0,8.19Z"/><path class="cls-1" d="M143.82,2443.28a.9.9,0,0,1,.28.65.87.87,0,0,1-.28.65.88.88,0,0,1-.65.25h-8.6a.93.93,0,0,1-.68-.27.94.94,0,0,1-.29-.69v-13a.94.94,0,0,1,.29-.69.87.87,0,0,1,.68-.29h8.6a.94.94,0,0,1,.93.92.9.9,0,0,1-.93.9h-7.61v4.74h6.84a.92.92,0,0,1,.92.92.88.88,0,0,1-.27.65.91.91,0,0,1-.65.25h-6.84V2443h7.61A.86.86,0,0,1,143.82,2443.28Z"/><path class="cls-1" d="M161,2430.14a.9.9,0,0,1,.27.65.89.89,0,0,1-.93.9H156V2444a.94.94,0,0,1-.29.69,1,1,0,0,1-.7.27.94.94,0,0,1-1-1v-12.29h-4.37a.88.88,0,0,1-.65-.25.91.91,0,0,1-.26-.65.89.89,0,0,1,.26-.65.86.86,0,0,1,.65-.27H160.3A.9.9,0,0,1,161,2430.14Z"/><path class="cls-1" d="M177,2443.28a.93.93,0,0,1,.27.65.9.9,0,0,1-.27.65.91.91,0,0,1-.65.25h-8.6a1,1,0,0,1-.69-.27,1,1,0,0,1-.28-.69v-13a1,1,0,0,1,.28-.69.89.89,0,0,1,.69-.29h8.6a.92.92,0,0,1,.92.92.89.89,0,0,1-.92.9h-7.62v4.74h6.84a.9.9,0,0,1,.66.27.93.93,0,0,1,.27.65.89.89,0,0,1-.93.9h-6.84V2443h7.62A.89.89,0,0,1,177,2443.28Z"/><path class="cls-1" d="M194.31,2442.18a1,1,0,0,1,.48-.09.69.69,0,0,1,.54.25.8.8,0,0,1,.22.57.83.83,0,0,1-.47.81,13.47,13.47,0,0,1-2.15,1,8.91,8.91,0,0,1-2.75.38,8.28,8.28,0,0,1-3-.53,6.71,6.71,0,0,1-2.38-1.53,8.5,8.5,0,0,1,0-11.28,7.31,7.31,0,0,1,5.36-2.06,8.58,8.58,0,0,1,2.74.39,11.73,11.73,0,0,1,1.75.72,2.39,2.39,0,0,1,.75.53,1,1,0,0,1,.12.52.81.81,0,0,1-.22.56.71.71,0,0,1-.54.24,1,1,0,0,1-.48-.08,10.72,10.72,0,0,0-1.76-.73,7.8,7.8,0,0,0-2.24-.28,6.25,6.25,0,0,0-2.42.45,5,5,0,0,0-1.81,1.24,6.67,6.67,0,0,0,0,8.28,5.57,5.57,0,0,0,4.31,1.7,7.5,7.5,0,0,0,2.16-.28A10.72,10.72,0,0,0,194.31,2442.18Z"/><path class="cls-1" d="M212.2,2430.14a.86.86,0,0,1,.27.65.89.89,0,0,1-.92.9H207.2V2444a.94.94,0,0,1-.29.69,1,1,0,0,1-.7.27.92.92,0,0,1-1-1v-12.29h-4.38a.86.86,0,0,1-.64-.25.9.9,0,0,1-.25-.65.88.88,0,0,1,.25-.65.84.84,0,0,1,.64-.27h10.68A.86.86,0,0,1,212.2,2430.14Z"/><path class="cls-1" d="M219,2429.76a1,1,0,0,1,.69.29,1,1,0,0,1,.29.7V2444a.94.94,0,0,1-.29.69,1,1,0,0,1-.69.27.92.92,0,0,1-1-1v-13.23a1,1,0,0,1,.27-.7A1,1,0,0,1,219,2429.76Z"/><path class="cls-1" d="M239.47,2431.82a7.92,7.92,0,0,0-10.89,0,8.36,8.36,0,0,0,0,11.06,7.92,7.92,0,0,0,10.89,0,8.39,8.39,0,0,0,0-11.06Zm-1.33,9.71a5.83,5.83,0,0,1-8.23,0,6.71,6.71,0,0,1,0-8.36,5.85,5.85,0,0,1,8.23,0,6.71,6.71,0,0,1,0,8.36Z"/><path class="cls-1" d="M260.07,2429.76a1,1,0,0,1,1,1v12.8a1.35,1.35,0,0,1-.42,1,1.37,1.37,0,0,1-1,.4h-.26a1.35,1.35,0,0,1-1.14-.58l-8.3-12V2444a.94.94,0,0,1-.29.69,1,1,0,0,1-1.38,0,.94.94,0,0,1-.28-.69v-12.8a1.39,1.39,0,0,1,.41-1,1.32,1.32,0,0,1,1-.42h.28a1.53,1.53,0,0,1,1.19.64l8.25,11.93v-11.58a1,1,0,0,1,.28-.7A.91.91,0,0,1,260.07,2429.76Z"/><path class="cls-1" d="M278.19,2429.76a1,1,0,0,1,.7.29,1,1,0,0,1,.29.7V2444a.94.94,0,0,1-.29.69,1,1,0,0,1-.7.27.92.92,0,0,1-1-1v-13.23a1,1,0,0,1,.27-.7A.94.94,0,0,1,278.19,2429.76Z"/><path class="cls-1" d="M298.63,2429.76a1,1,0,0,1,.7.29,1,1,0,0,1,.28.7v12.8a1.34,1.34,0,0,1-.41,1,1.4,1.4,0,0,1-1,.4h-.26a1.35,1.35,0,0,1-1.14-.58l-8.29-12V2444a.92.92,0,0,1-.3.69,1,1,0,0,1-.69.27.94.94,0,0,1-1-1v-12.8a1.39,1.39,0,0,1,.41-1,1.32,1.32,0,0,1,1-.42h.28a1.5,1.5,0,0,1,1.17.64l8.26,11.93v-11.58a1,1,0,0,1,.28-.7A.93.93,0,0,1,298.63,2429.76Z"/><path class="cls-1" d="M317.73,2442.18a1.1,1.1,0,0,1,.49-.09.69.69,0,0,1,.53.25.8.8,0,0,1,.22.57.83.83,0,0,1-.47.81,13.47,13.47,0,0,1-2.15,1,8.91,8.91,0,0,1-2.75.38,8.28,8.28,0,0,1-3-.53,6.59,6.59,0,0,1-2.37-1.53,8.47,8.47,0,0,1,0-11.28,7.28,7.28,0,0,1,5.35-2.06,8.58,8.58,0,0,1,2.74.39,12.41,12.41,0,0,1,1.76.72,2.43,2.43,0,0,1,.74.53.93.93,0,0,1,.12.52.81.81,0,0,1-.22.56.71.71,0,0,1-.53.24,1.11,1.11,0,0,1-.49-.08,10.72,10.72,0,0,0-1.76-.73,7.87,7.87,0,0,0-2.23-.28,6.26,6.26,0,0,0-2.43.45,5,5,0,0,0-1.81,1.24,6.67,6.67,0,0,0,0,8.28,5.57,5.57,0,0,0,4.31,1.7,7.55,7.55,0,0,0,2.16-.28A10.72,10.72,0,0,0,317.73,2442.18Z"/><path class="cls-1" d="M326.83,2442.72a1.16,1.16,0,0,1,.36.85v.13a1.21,1.21,0,0,1-1.2,1.2h-.22a1.21,1.21,0,0,1-1.2-1.2v-.13a1.21,1.21,0,0,1,1.2-1.2H326A1.16,1.16,0,0,1,326.83,2442.72Z"/><path class="cls-2" d="M20.39,2419.67a32.41,32.41,0,0,1-5.77-.51,31.44,31.44,0,0,1-5.48-1.5,34,34,0,0,1-4.95-2.31,24.12,24.12,0,0,1-4.17-3l9.91-10.77a16,16,0,0,0,4.55,3.28,12.77,12.77,0,0,0,5.85,1.44,6.28,6.28,0,0,0,2.49-.48,1.78,1.78,0,0,0,1.13-1.78,1.85,1.85,0,0,0-.38-1.17,4.18,4.18,0,0,0-1.33-1,22.23,22.23,0,0,0-2.63-1.13c-1.12-.41-2.53-.89-4.21-1.44a37.12,37.12,0,0,1-4.72-1.95,16.71,16.71,0,0,1-4-2.78,12.2,12.2,0,0,1-2.77-3.93,13.53,13.53,0,0,1-1-5.52,14.85,14.85,0,0,1,1.85-7.67,16.14,16.14,0,0,1,4.75-5.17,19.23,19.23,0,0,1,6.53-2.91,30.16,30.16,0,0,1,7.18-.89,27.81,27.81,0,0,1,9.74,1.84,26.07,26.07,0,0,1,8.71,5.34L31.54,2386a10.62,10.62,0,0,0-4-3.11,10.72,10.72,0,0,0-4.3-1.06,6.83,6.83,0,0,0-2.87.51,1.73,1.73,0,0,0-1.1,1.68,1.76,1.76,0,0,0,1.13,1.64,31.39,31.39,0,0,0,3.65,1.36c1.74.55,3.56,1.19,5.48,1.92a22.79,22.79,0,0,1,5.29,2.84,14.8,14.8,0,0,1,4,4.27,11.63,11.63,0,0,1,1.58,6.29,15.76,15.76,0,0,1-1.75,7.62A16.47,16.47,0,0,1,34,2415.4a19.8,19.8,0,0,1-6.39,3.21A25.49,25.49,0,0,1,20.39,2419.67Z"/><path class="cls-2" d="M71.87,2419.67A28.31,28.31,0,0,1,62,2418.1a19.62,19.62,0,0,1-7-4.31,17,17,0,0,1-4.17-6.46,23,23,0,0,1-1.37-8v-29.4H65.72v27.62a8.11,8.11,0,0,0,1.67,5.43,6.77,6.77,0,0,0,9.51,0,8.06,8.06,0,0,0,1.68-5.43V2369.9h16.2v29.4a21.7,21.7,0,0,1-1.47,8,18.05,18.05,0,0,1-4.34,6.46,20.43,20.43,0,0,1-7.15,4.31A28.94,28.94,0,0,1,71.87,2419.67Z"/><path class="cls-2" d="M142.71,2378.34a14,14,0,0,0-4.51-5,18.79,18.79,0,0,0-6.37-2.67,33.66,33.66,0,0,0-7.24-.78H103.8v48.4H120v-15.59h4.58a30.12,30.12,0,0,0,7.35-.89,18.26,18.26,0,0,0,6.36-2.87,14.74,14.74,0,0,0,4.44-5.13,16,16,0,0,0,1.68-7.65A16.21,16.21,0,0,0,142.71,2378.34Zm-15.9,11.08a6.5,6.5,0,0,1-3.38.92H120v-7.8h3.42a8.86,8.86,0,0,1,1.77.18,5,5,0,0,1,1.61.58,3,3,0,0,1,1.13,1.12,3.82,3.82,0,0,1,.41,1.88A3.37,3.37,0,0,1,126.81,2389.42Z"/><polygon class="cls-2" points="151.25 2369.9 184.54 2369.9 184.54 2383.43 166.56 2383.43 166.56 2387.6 183.45 2387.6 183.45 2400.25 166.56 2400.25 166.56 2404.76 185.71 2404.76 185.71 2418.3 151.25 2418.3 151.25 2369.9"/><path class="cls-2" d="M227.85,2398.68a13.69,13.69,0,0,0,8.45-13.06,15.4,15.4,0,0,0-1.71-7.62,13.62,13.62,0,0,0-4.48-4.86,17.76,17.76,0,0,0-6.28-2.53,35.28,35.28,0,0,0-7.08-.71H195.9v48.4h15.79V2401h.48l9.27,17.3h18.69Zm-8.06-10.29a4,4,0,0,1-1.42,1.23,5.37,5.37,0,0,1-1.83.58,11.78,11.78,0,0,1-1.79.14h-3.2v-7.8h3.87a16.33,16.33,0,0,1,1.63.1,4.91,4.91,0,0,1,1.63.49,3.11,3.11,0,0,1,1.22,1.12,3.91,3.91,0,0,1,.47,2.05A3.43,3.43,0,0,1,219.79,2388.39Z"/><path class="cls-2" d="M357.83,2398.68a13.69,13.69,0,0,0,8.45-13.06,15.4,15.4,0,0,0-1.71-7.62,13.71,13.71,0,0,0-4.48-4.86,17.76,17.76,0,0,0-6.28-2.53,35.28,35.28,0,0,0-7.08-.71H325.88v48.4h15.79V2401h.48l9.27,17.3h18.69Zm-8.06-10.29a4,4,0,0,1-1.42,1.23,5.52,5.52,0,0,1-1.83.58,11.88,11.88,0,0,1-1.79.14h-3.2v-7.8h3.87a16.33,16.33,0,0,1,1.63.1,4.91,4.91,0,0,1,1.63.49,3.11,3.11,0,0,1,1.22,1.12,3.91,3.91,0,0,1,.47,2.05A3.43,3.43,0,0,1,349.77,2388.39Z"/><rect class="cls-2" x="248.13" y="2369.9" width="16.41" height="48.41"/><path class="cls-2" d="M99.82,1956.78c0-21.42,14.28-37.79,36.22-37.79,8.36,0,14.63,2.61,18.63,6.27v-33.09c0-9.75-4.53-12-13.93-12v-1.05l33.78-3.48v103.26c0,8.71,2.79,12,12.19,12v1H155V1982c-5.05,6.27-12.71,11.84-23.68,11.84C112,1993.87,99.82,1976.63,99.82,1956.78Zm54.85,23.68v-47.19c-1.22-6.62-6.62-12.71-14.63-12.71-13.06,0-19.15,18.81-19.15,35.17,0,17.24,5.75,32.74,19.33,32.74C146.66,1988.47,151.36,1984.82,154.67,1980.46Z"/><path class="cls-1" d="M188.54,1957a46.63,46.63,0,0,1,.5-6.83h-9.67v10.07h9.29C188.59,1959.12,188.54,1958,188.54,1957Z"/><path class="cls-1" d="M149.82,1950.12H126c-.17,1.86-.25,3.74-.25,5.61,0,1.49.05,3,.14,4.46h23.94Z"/><path class="cls-1" d="M71.47,1956.79l2.65-1.61-2.63-1.64c-14.64-9.13-25.49-19.54-32.24-31a1.93,1.93,0,0,0-1.65-.94H26.17l1.9,2.95a114.88,114.88,0,0,0,28.58,30.55c-10.73,7.69-20.06,17.71-28.45,30.56l-1.92,3H37.6a1.92,1.92,0,0,0,1.62-.89A98.83,98.83,0,0,1,71.47,1956.79Z"/><path class="cls-1" d="M95,1956.78a51.75,51.75,0,0,1,.43-6.66H90.78a.53.53,0,0,1-.3-.09c-12-8.26-21-17.47-26.9-27.44a1.91,1.91,0,0,0-1.64-.94H51.47a.52.52,0,0,0-.44.81l1.37,2.14a115.22,115.22,0,0,0,28,30.13.5.5,0,0,1,0,.83c-10.48,7.63-19.63,17.53-27.87,30.15l-1.4,2.14a.53.53,0,0,0,.44.82H61.94a1.92,1.92,0,0,0,1.61-.89,96.94,96.94,0,0,1,26.88-27.49.51.51,0,0,1,.3-.1h4.36C95,1959.07,95,1957.93,95,1956.78Z"/><path class="cls-1" d="M335.84,1953.54c-14.64-9.13-25.49-19.54-32.25-31a1.91,1.91,0,0,0-1.64-.94H292a.78.78,0,0,0-.65,1.21l1.12,1.74a114.94,114.94,0,0,0,27.73,29.92.77.77,0,0,1,0,1.25c-10.36,7.6-19.42,17.43-27.59,29.94l-1.14,1.74a.79.79,0,0,0,.66,1.22H302a1.92,1.92,0,0,0,1.61-.89,99,99,0,0,1,32.26-31A1.9,1.9,0,0,0,335.84,1953.54Z"/><path class="cls-1" d="M312.39,1956.79h0a1.91,1.91,0,0,0,0-3.25c-14.63-9.13-25.48-19.54-32.24-31a1.91,1.91,0,0,0-1.64-.94H268.05a.53.53,0,0,0-.44.81l1.38,2.14a117.79,117.79,0,0,0,21.14,24.6.52.52,0,0,1-.34.92H264.55a15.34,15.34,0,0,1-13.35,7.5,15.6,15.6,0,0,1-13.45-7.5H219.31c-.12,1.65-.17,3.3-.17,4.92,0,1.45,0,3.22.19,5.15h70.39a.53.53,0,0,1,.34.93,118.16,118.16,0,0,0-20.94,24.59l-1.39,2.14a.53.53,0,0,0,.44.82h10.35a1.92,1.92,0,0,0,1.61-.89C287.8,1975.67,299,1965,312.39,1956.79Z"/><path class="cls-2" d="M193.39,1957c0-23.68,18.63-38,39.18-38,18.46,0,29.6,11.32,29.6,21.94,0,7-4.7,11.84-11,11.84a11.14,11.14,0,0,1-1.74-22.11c-1.91-5.05-6.44-10.45-14.63-10.45-14.62,0-20.54,17.41-20.54,34.83,0,22.11,8.7,35.17,23.5,35.17,11.32,0,19.86-7.66,24.56-16.37l1,.53c-4.87,8.88-14.8,19.5-33.26,19.5C206.8,1993.87,193.39,1977,193.39,1957Z"/><path d="M11.14,60.45a8,8,0,0,1-3.55-.74,5.87,5.87,0,0,1-2.34-2,5.12,5.12,0,0,1-.83-2.86,5,5,0,0,1,.49-2.34A5,5,0,0,1,6.08,51a7.63,7.63,0,0,1,1.66-1v-.13A6,6,0,0,1,6.34,49a4,4,0,0,1-1.4-3.19,4.81,4.81,0,0,1,.76-2.67,5.12,5.12,0,0,1,2.16-1.85,7.31,7.31,0,0,1,3.28-.68,7.34,7.34,0,0,1,3.28.68,5.24,5.24,0,0,1,2.16,1.85,4.9,4.9,0,0,1,.76,2.67,4.09,4.09,0,0,1-.42,1.94,4.22,4.22,0,0,1-1,1.25,6.2,6.2,0,0,1-1.4.86V50a7.89,7.89,0,0,1,1.66,1,4.79,4.79,0,0,1,1.66,3.83A5.05,5.05,0,0,1,17,57.69a5.87,5.87,0,0,1-2.34,2A8,8,0,0,1,11.14,60.45Zm0-2.06a4.71,4.71,0,0,0,2.36-.55,3.76,3.76,0,0,0,1.93-3.25A3.43,3.43,0,0,0,15,52.86a3.62,3.62,0,0,0-1.43-1.36A4.8,4.8,0,0,0,11.14,51a4.78,4.78,0,0,0-2.39.54,3.55,3.55,0,0,0-1.43,1.36,3.43,3.43,0,0,0-.47,1.73,3.73,3.73,0,0,0,1.92,3.25A4.77,4.77,0,0,0,11.14,58.39Zm0-9.42a4.25,4.25,0,0,0,2.09-.47,3.18,3.18,0,0,0,1.26-1.2,3.07,3.07,0,0,0,.41-1.49,3.18,3.18,0,0,0-.41-1.55,3.22,3.22,0,0,0-1.26-1.19,4.37,4.37,0,0,0-2.09-.45,4.41,4.41,0,0,0-2.08.45,3.19,3.19,0,0,0-1.27,1.19,3.09,3.09,0,0,0-.42,1.55,3,3,0,0,0,.42,1.49,3.14,3.14,0,0,0,1.27,1.2A4.29,4.29,0,0,0,11.14,49Z"/><path d="M23.17,60.45A1.62,1.62,0,0,1,22,59.94a1.73,1.73,0,0,1,0-2.39,1.65,1.65,0,0,1,1.22-.5,1.69,1.69,0,0,1,1.7,1.7A1.65,1.65,0,0,1,24.38,60,1.61,1.61,0,0,1,23.17,60.45Z"/><line class="cls-3" x1="0.75" y1="14.16" x2="362.69" y2="13.64"/><path d="M11.43,474.49a7,7,0,0,1,3.23.7,6.26,6.26,0,0,1,2.26,1.95A8.87,8.87,0,0,1,18.24,480a12.57,12.57,0,0,1,.43,3.36,14.87,14.87,0,0,1-.31,3,13.69,13.69,0,0,1-1,3,9.36,9.36,0,0,1-1.78,2.58,8.32,8.32,0,0,1-2.7,1.81,9.15,9.15,0,0,1-3.7.68,10.25,10.25,0,0,1-1.51-.1c-.48-.07-1-.17-1.55-.29v-2.35c.63.12,1.18.21,1.66.28a10.11,10.11,0,0,0,1.45.11,7,7,0,0,0,2.74-.48,5.8,5.8,0,0,0,1.91-1.29,7,7,0,0,0,1.23-1.72,9.12,9.12,0,0,0,.9-3.39,4.8,4.8,0,0,1-.73.86,5.12,5.12,0,0,1-1.55,1,6.31,6.31,0,0,1-2.53.44,6.36,6.36,0,0,1-3.55-.93,6,6,0,0,1-2.14-2.4,7,7,0,0,1,0-6.21,6.11,6.11,0,0,1,2.21-2.45A6.63,6.63,0,0,1,11.43,474.49Zm.05,2.19a4.49,4.49,0,0,0-2,.47,4,4,0,0,0-1.57,1.42A4.25,4.25,0,0,0,7.29,481a4.33,4.33,0,0,0,.62,2.39,3.82,3.82,0,0,0,1.57,1.42,4.41,4.41,0,0,0,4,0,3.82,3.82,0,0,0,1.57-1.42,4.33,4.33,0,0,0,.61-2.39,4.25,4.25,0,0,0-.61-2.38,4,4,0,0,0-1.57-1.42A4.52,4.52,0,0,0,11.48,476.68Z"/><path d="M24.37,494.36a1.59,1.59,0,0,1-1.21-.51,1.7,1.7,0,0,1,0-2.39,1.61,1.61,0,0,1,1.21-.5,1.67,1.67,0,0,1,1.7,1.7,1.68,1.68,0,0,1-.48,1.21A1.64,1.64,0,0,1,24.37,494.36Z"/><line class="cls-3" x1="0.75" y1="448.07" x2="362.69" y2="447.55"/><path d="M10,908.66V928H7.53V913l-3.64,0v-1.47l.66-.21a9.87,9.87,0,0,0,2.23-1A6,6,0,0,0,8.37,909l.23-.29Z"/><path d="M21.76,928.25a6.27,6.27,0,0,1-3.19-.8,7,7,0,0,1-2.32-2.17,10.47,10.47,0,0,1-1.41-3.18,15.28,15.28,0,0,1,0-7.6,10.52,10.52,0,0,1,1.41-3.17,6.68,6.68,0,0,1,2.32-2.17,6.26,6.26,0,0,1,3.19-.79,6.32,6.32,0,0,1,3.19.79,6.73,6.73,0,0,1,2.31,2.17,10.52,10.52,0,0,1,1.41,3.17,15,15,0,0,1,0,7.6,10.47,10.47,0,0,1-1.41,3.18A7,7,0,0,1,25,927.45,6.32,6.32,0,0,1,21.76,928.25Zm0-2.36A4,4,0,0,0,25.17,924a12.52,12.52,0,0,0,0-11.31,4,4,0,0,0-6.83,0,12.58,12.58,0,0,0,0,11.3A4,4,0,0,0,21.76,925.89Z"/><path d="M34.34,928.27a1.61,1.61,0,0,1-1.22-.51,1.73,1.73,0,0,1,0-2.39,1.71,1.71,0,1,1,1.22,2.9Z"/><line class="cls-3" x1="0.75" y1="881.98" x2="362.69" y2="881.46"/><path d="M10,1342.57v19.35H7.53v-15l-3.64,0v-1.47l.66-.21a9.87,9.87,0,0,0,2.23-1,6,6,0,0,0,1.59-1.43l.23-.29Z"/><path d="M20.11,1342.57v19.35H17.6v-15l-3.64,0v-1.47l.66-.21a9.87,9.87,0,0,0,2.23-1,6,6,0,0,0,1.59-1.43l.23-.29Z"/><path d="M26.73,1362.18a1.61,1.61,0,0,1-1.22-.51,1.73,1.73,0,0,1,0-2.39,1.73,1.73,0,0,1,2.43,0,1.67,1.67,0,0,1,.49,1.2,1.69,1.69,0,0,1-.49,1.21A1.62,1.62,0,0,1,26.73,1362.18Z"/><line class="cls-3" x1="0.75" y1="1315.89" x2="362.69" y2="1315.37"/><path d="M10,1776.48v19.35H7.53v-15l-3.64,0v-1.47l.66-.21a10.38,10.38,0,0,0,2.23-1,6.26,6.26,0,0,0,1.59-1.44l.23-.29Z"/><path d="M15,1795.83V1794l4.23-3.92c1.19-1.1,2.23-2.07,3.13-2.89a12.69,12.69,0,0,0,2.1-2.42,4.67,4.67,0,0,0,.76-2.59,3.43,3.43,0,0,0-.56-2,3.74,3.74,0,0,0-1.44-1.24,4,4,0,0,0-1.82-.43,4.35,4.35,0,0,0-2,.41,3.25,3.25,0,0,0-1.2,1,4.36,4.36,0,0,0-.6,1.23,5.84,5.84,0,0,0-.24,1.45H14.93a10.91,10.91,0,0,1,.22-1.68,7.8,7.8,0,0,1,.57-1.55,5.74,5.74,0,0,1,1.11-1.56,5.49,5.49,0,0,1,1.85-1.2,7.39,7.39,0,0,1,2.79-.47,7.16,7.16,0,0,1,3.12.69,5.8,5.8,0,0,1,2.35,2,5.7,5.7,0,0,1,.88,3.23,6,6,0,0,1-.87,3.18,14.19,14.19,0,0,1-2.32,2.79l-3.13,2.93-2.67,2.45h9.41v2.33Z"/><path d="M33.68,1796.09a1.59,1.59,0,0,1-1.21-.51,1.7,1.7,0,0,1,0-2.39,1.61,1.61,0,0,1,1.21-.5,1.64,1.64,0,0,1,1.22.5,1.75,1.75,0,0,1,0,2.41A1.63,1.63,0,0,1,33.68,1796.09Z"/><line class="cls-3" x1="0.75" y1="1749.8" x2="362.69" y2="1749.28"/><path d="M10,2210.39v19.35H7.53v-15l-3.64,0v-1.47l.66-.21a10.38,10.38,0,0,0,2.23-1,6.26,6.26,0,0,0,1.59-1.44l.23-.29Z"/><path d="M21.42,2230a8,8,0,0,1-3.23-.65,5.74,5.74,0,0,1-2.49-2,5.82,5.82,0,0,1-.95-3.41h2.43a3.66,3.66,0,0,0,.61,2.19,3.74,3.74,0,0,0,1.6,1.29,5.26,5.26,0,0,0,2,.41,4.81,4.81,0,0,0,2.06-.43,3.63,3.63,0,0,0,1.52-1.27,3.48,3.48,0,0,0,.58-2,3.12,3.12,0,0,0-1-2.45,4,4,0,0,0-2.73-.9H19.22v-2h2.61a3.64,3.64,0,0,0,2.42-.84,2.77,2.77,0,0,0,1-2.27,3.06,3.06,0,0,0-.53-1.8,3.69,3.69,0,0,0-1.42-1.16,4.29,4.29,0,0,0-1.89-.42,4.37,4.37,0,0,0-1.87.43,3.63,3.63,0,0,0-1.48,1.3,3.91,3.91,0,0,0-.58,2.2H15.11a5.62,5.62,0,0,1,3.31-5.41,7.48,7.48,0,0,1,6.1,0,5.82,5.82,0,0,1,2.31,1.83,4.62,4.62,0,0,1,.89,2.84,4.34,4.34,0,0,1-2.77,4.21v.13a4.83,4.83,0,0,1,2.27,1.59,4.39,4.39,0,0,1,.89,2.83,5.16,5.16,0,0,1-.94,3.11,6.11,6.11,0,0,1-2.46,2A7.85,7.85,0,0,1,21.42,2230Z"/><path d="M33.92,2230a1.64,1.64,0,0,1-1.22-.5,1.71,1.71,0,0,1-.48-1.2,1.66,1.66,0,0,1,.48-1.2,1.64,1.64,0,0,1,1.22-.5,1.69,1.69,0,0,1,1.7,1.7,1.64,1.64,0,0,1-.49,1.21A1.61,1.61,0,0,1,33.92,2230Z"/><line class="cls-3" x1="0.75" y1="2183.71" x2="362.69" y2="2183.19"/><path d="M10,2644.3v19.35H7.53v-15l-3.64,0v-1.47l.66-.21a9.87,9.87,0,0,0,2.23-1,6,6,0,0,0,1.59-1.43l.23-.29Z"/><path d="M23.82,2663.65v-4.5l-9.46,0v-2.33l8.89-12.5h3.14v12.63h3.37v2.22H26.39v4.5ZM17,2656.93h6.82v-9.62Z"/><path d="M35.23,2663.91a1.61,1.61,0,0,1-1.22-.51,1.73,1.73,0,0,1,0-2.39,1.73,1.73,0,0,1,2.43,0,1.67,1.67,0,0,1,.49,1.2,1.69,1.69,0,0,1-.49,1.21A1.62,1.62,0,0,1,35.23,2663.91Z"/><line class="cls-3" x1="0.75" y1="2617.62" x2="362.69" y2="2617.1"/><path class="cls-4" d="M237.76,1157c5.12,0,13-3.83,12.92-47.62,0,0-17.35,19.91-17.35,36.79C233.33,1147.18,232.63,1157,237.76,1157Z"/><path class="cls-4" d="M138.77,1010c-3.37,0-5.09,11.72-6.06,21-1,9.45-1.16,40.65-1.16,40.65,9.43-10.37,14.55-38,14.55-49.38S140.75,1010,138.77,1010Z"/><path class="cls-4" d="M115,1081.5s-1.87-77.8,18.4-77.8c16.77,0,16.07,17.94,16.07,17.94,0,30.28-17.93,55.81-17.93,55.81s-2.1,11-1.4,14.76c14.9-21.19,20.26-21.42,27.95-21.42s9.78,7.22,9.78,14.9,1.17,16.54,2.1,18.63c3.13.43,10.08.2,27.54-14s16.71-14.4,16.71-14.4a16.46,16.46,0,0,1,15.84-10.48c12.35,0,14.44,10.71,14.44,10.71a1.5,1.5,0,0,1-1,1.91,2.41,2.41,0,0,1-3.16-1c-.8-1.14-4.43-6.29-7-6.29-4.44,0-8.48,7.89-8.48,19.1,0,11,5.2,10.82,5.2,10.82s15.6-1.89,22.61-27.12c1-4.21,6.18-4.3,9.79-4.19,2.56.07,3.49,3.26,3.49,27.95,14-7,45.42-19.33,94.09-19.33,8.9,0,16.48,0,23,.12V941.5H-3v144.58a212,212,0,0,0,49.53,6.13C92.89,1092.21,115,1081.5,115,1081.5Z"/><path class="cls-4" d="M359.84,1080.21c-24.38,0-57.49,2.84-93.67,19.92.16,8.7-2,37.49-4.42,44.25-5.67,16-15.38,17.71-22.83,17.71s-10.25-4.43-10.25-14.44,9.25-33.5,22.36-42.46c0-9.08.66-18.87,1.17-21.13-2.8,4.19-8,22-28.62,22-12.92,0-14.2-21.17-11.4-24-6.53,4.89-26.86,31.16-50.84,31.16-9.55,0-11.16-2.82-11.16-13.37,0-3,2.33-22.13-.93-22.13s-18.13,16.85-19.33,26.09c-.44,3.34-2.15,4.87-3.5,5.25-1.61.45-12.57,2-12.57-3.62s.23-18.64.93-20a245.65,245.65,0,0,1-68.95,10c-16.17,0-33.86-3.17-48.83-7v133H383V1080.29C376.7,1080.24,369.08,1080.21,359.84,1080.21ZM124,1125.71h-3.58v2.11h3.3v2.39h-3.3v4.13H117.5v-11H124Zm15.2,8.63H132v-11h3v8.62h4.24Zm16-1.29a6.2,6.2,0,0,1-8,0,7.16,7.16,0,0,1,0-8.44,5.27,5.27,0,0,1,4-1.45,5.22,5.22,0,0,1,4,1.44,5.93,5.93,0,0,1,1.36,4.23A6,6,0,0,1,155.19,1133.05Zm14.67,1.29-2.34-4h-.76v4h-3v-11h3.61c3,0,4.49,1.09,4.49,3.26a3.25,3.25,0,0,1-1.86,3l3.2,4.8Zm17.31,0-.54-2.06h-3.58l-.56,2.06h-3.27l3.6-11.06h4l3.64,11.06Zm17.85,0h-7.23v-11h3v8.62H205Zm10.79-7.5a13.2,13.2,0,0,0,1.82.93,5.08,5.08,0,0,1,2,1.38,3,3,0,0,1,.56,1.85,3.31,3.31,0,0,1-.52,1.82,3.41,3.41,0,0,1-1.5,1.23,5.46,5.46,0,0,1-2.3.45,9.49,9.49,0,0,1-1.85-.16,6.38,6.38,0,0,1-1.55-.54v-2.65a8.63,8.63,0,0,0,1.77.68,6.74,6.74,0,0,0,1.69.24,1.68,1.68,0,0,0,1-.22.75.75,0,0,0,.31-.6.59.59,0,0,0-.13-.39,1.35,1.35,0,0,0-.39-.34,15.08,15.08,0,0,0-1.47-.71,7.43,7.43,0,0,1-1.62-1,2.86,2.86,0,0,1-.79-1.06,3.38,3.38,0,0,1-.27-1.41,2.82,2.82,0,0,1,1.11-2.37,4.89,4.89,0,0,1,3.05-.85,8.52,8.52,0,0,1,3.49.79l-.91,2.29a6.62,6.62,0,0,0-2.68-.7,1.37,1.37,0,0,0-.84.2.64.64,0,0,0-.26.5A.74.74,0,0,0,215.81,1126.84Z"/><path class="cls-4" d="M151.21,1125.59c-1.49,0-2.25,1.08-2.25,3.23s.75,3.2,2.23,3.2a1.92,1.92,0,0,0,1.68-.78,5.69,5.69,0,0,0,0-4.86A1.88,1.88,0,0,0,151.21,1125.59Z"/><path class="cls-4" d="M167.35,1125.58h-.59v2.52h.56c1.05,0,1.56-.47,1.56-1.38Q168.88,1125.58,167.35,1125.58Z"/><path class="cls-4" d="M185.14,1126.47c-.17-.64-.26-1.1-.32-1.38,0,.26-.13.68-.26,1.27s-.44,1.75-.89,3.48H186l-.47-1.81C185.43,1127.63,185.29,1127.1,185.14,1126.47Z"/><path class="cls-2" d="M114.78,1085.46c-.7,1.39-.93,14.44-.93,20s11,4.07,12.57,3.62c1.35-.38,3.06-1.91,3.5-5.25,1.2-9.24,16.07-26.09,19.33-26.09s.93,19.1.93,22.13c0,10.55,1.61,13.37,11.16,13.37,24,0,44.31-26.27,50.84-31.16-2.8,2.8-1.52,24,11.4,24,20.64,0,25.82-17.83,28.62-22-.51,2.26-1.17,12-1.17,21.13-13.11,9-22.36,32.44-22.36,42.46s2.8,14.44,10.25,14.44,17.16-1.67,22.83-17.71c2.39-6.76,4.58-35.55,4.42-44.25,36.18-17.08,69.29-19.92,93.67-19.92,9.24,0,16.86,0,23.16.08v-2.16c-6.49-.08-14.07-.12-23-.12-48.67,0-80.12,12.34-94.09,19.33,0-24.69-.93-27.88-3.49-27.95-3.61-.11-8.78,0-9.79,4.19-7,25.23-22.61,27.12-22.61,27.12s-5.2.21-5.2-10.82c0-11.21,4-19.1,8.48-19.1,2.56,0,6.19,5.15,7,6.29a2.41,2.41,0,0,0,3.16,1,1.5,1.5,0,0,0,1-1.91s-2.09-10.71-14.44-10.71a16.46,16.46,0,0,0-15.84,10.48s.76.19-16.71,14.4-24.41,14.44-27.54,14c-.93-2.09-2.1-10.94-2.1-18.63s-2.1-14.9-9.78-14.9-13,.23-27.95,21.42c-.7-3.72,1.4-14.76,1.4-14.76s17.93-25.53,17.93-55.81c0,0,.7-17.94-16.07-17.94-20.27,0-18.4,77.8-18.4,77.8s-22.12,10.71-68.48,10.71A212,212,0,0,1-3,1086.08v2.39c15,3.83,32.66,7,48.83,7A245.65,245.65,0,0,0,114.78,1085.46Zm123,71.5c-5.13,0-4.43-9.78-4.43-10.83,0-16.88,17.35-36.79,17.35-36.79C250.8,1153.13,242.88,1157,237.76,1157Zm-105-126c1-9.26,2.69-21,6.06-21,2,0,7.33.84,7.33,12.25s-5.12,39-14.55,49.38C131.55,1071.6,131.73,1040.4,132.71,1031Z"/><polygon class="cls-1" points="117.5 1134.34 120.44 1134.34 120.44 1130.21 123.74 1130.21 123.74 1127.82 120.44 1127.82 120.44 1125.71 124.02 1125.71 124.02 1123.32 117.5 1123.32 117.5 1134.34"/><polygon class="cls-1" points="134.98 1123.32 132 1123.32 132 1134.34 139.22 1134.34 139.22 1131.94 134.98 1131.94 134.98 1123.32"/><path class="cls-1" d="M151.21,1123.15a5.27,5.27,0,0,0-4,1.45,7.16,7.16,0,0,0,0,8.44,6.2,6.2,0,0,0,8,0,6,6,0,0,0,1.36-4.23,5.93,5.93,0,0,0-1.36-4.23A5.22,5.22,0,0,0,151.21,1123.15Zm1.66,8.09a1.92,1.92,0,0,1-1.68.78c-1.48,0-2.23-1.07-2.23-3.2s.76-3.23,2.25-3.23a1.88,1.88,0,0,1,1.65.79,5.69,5.69,0,0,1,0,4.86Z"/><path class="cls-1" d="M171.89,1126.58c0-2.17-1.49-3.26-4.49-3.26h-3.61v11h3v-4h.76l2.34,4h3.37l-3.2-4.8A3.25,3.25,0,0,0,171.89,1126.58Zm-4.57,1.52h-.56v-2.52h.59q1.53,0,1.53,1.14C168.88,1127.63,168.37,1128.1,167.32,1128.1Z"/><path class="cls-1" d="M182.82,1123.28l-3.6,11.06h3.27l.56-2.06h3.58l.54,2.06h3.26l-3.64-11.06Zm.85,6.56c.45-1.73.75-2.89.89-3.48s.22-1,.26-1.27c.06.28.15.74.32,1.38s.29,1.16.4,1.56l.47,1.81Z"/><polygon class="cls-1" points="200.77 1123.32 197.79 1123.32 197.79 1134.34 205.02 1134.34 205.02 1131.94 200.77 1131.94 200.77 1123.32"/><path class="cls-1" d="M216.58,1125.55a6.62,6.62,0,0,1,2.68.7l.91-2.29a8.52,8.52,0,0,0-3.49-.79,4.89,4.89,0,0,0-3.05.85,2.82,2.82,0,0,0-1.11,2.37,3.38,3.38,0,0,0,.27,1.41,2.86,2.86,0,0,0,.79,1.06,7.43,7.43,0,0,0,1.62,1,15.08,15.08,0,0,1,1.47.71,1.35,1.35,0,0,1,.39.34.59.59,0,0,1,.13.39.75.75,0,0,1-.31.6,1.68,1.68,0,0,1-1,.22,6.74,6.74,0,0,1-1.69-.24,8.63,8.63,0,0,1-1.77-.68v2.65a6.38,6.38,0,0,0,1.55.54,9.49,9.49,0,0,0,1.85.16,5.46,5.46,0,0,0,2.3-.45,3.41,3.41,0,0,0,1.5-1.23,3.31,3.31,0,0,0,.52-1.82,3,3,0,0,0-.56-1.85,5.08,5.08,0,0,0-2-1.38,13.2,13.2,0,0,1-1.82-.93.74.74,0,0,1-.33-.59.64.64,0,0,1,.26-.5A1.37,1.37,0,0,1,216.58,1125.55Z"/></svg>