<svg id="Layer_1" data-name="Layer 1" xmlns="http://www.w3.org/2000/svg" viewBox="0 0 1200 1422"><defs><style>.cls-1{fill:#161617;}.cls-2{fill:#828284;}.cls-3{fill:#231f20;}</style></defs><path class="cls-1" d="M88.14,1061,52.3,1096.83l23,23,14.64-14.65L111.05,1084ZM87,1066.87l2.94,3-3,3-2,2-3-3Zm-8.26,8.25,3,3-3,3-2,2-3-3Zm-16.5,22.4-2,2-2.95-3,5-5,2.95,3Zm6.21-6.21-3-3,5-5,3,3-3,3Zm9.11,21.52-2,2-3-2.94,5-5,2.94,3Zm8.25-8.25-2,2.05-2.94-3,5-5,2.94,3Zm8.24-8.25-2,2.05-3-3,5-5,3,3Zm6.21-6.2-3-3,5-5,2.94,3-3,2.95Z"/><polygon class="cls-2" points="69.59 1079.56 111.05 1083.98 88.14 1061.04 69.59 1079.56"/><path class="cls-1" d="M82.53,1020.73l-35.83,35.8,23,23,14.64-14.64,21.15-21.16Zm-1.11,5.84,2.94,3-2.94,3-2,2-2.94-3Zm-8.25,8.25,3,3-3,3-2,2-2.95-3Zm-16.5,22.4-2,2-3-3,5-5,2.95,2.94Zm6.2-6.21-2.94-3,5-5,3,3-3,3ZM72,1072.53l-2,2-3-3,5-5,2.94,2.95Zm8.25-8.25-2,2-3-3,5-5,3,2.95Zm8.25-8.25-2,2-3-2.94,5-5,2.94,2.95Zm6.21-6.21-3-3,5-5,3,2.95-3,3Z"/><path class="cls-1" d="M606.51,36.67c0,5.73-3,8.78-8.78,8.78h-6.45a.88.88,0,0,1-1-1V38.14a.9.9,0,0,1,1-1H596a2.16,2.16,0,0,0,2.44-2.43V31.8A2.21,2.21,0,0,0,596,29.37h-8.41l-4.75,14.49a2.22,2.22,0,0,1-2.25,1.59H566.55c-5.73,0-8.77-3.05-8.77-8.78V29.85c0-5.66,3-8.77,8.77-8.77h6.39a.88.88,0,0,1,1,1v6.33a.85.85,0,0,1-1,1h-4.69a2.18,2.18,0,0,0-2.43,2.43v2.93a2.16,2.16,0,0,0,2.43,2.43h8.1l4.76-14.43a2.16,2.16,0,0,1,2.25-1.65h14.37c5.73,0,8.78,3.11,8.78,8.77Z"/><path class="cls-1" d="M606.51,67.13c0,5.73-3,8.77-8.78,8.77h-6.45a.87.87,0,0,1-1-1V68.59a.9.9,0,0,1,1-1H596a2.17,2.17,0,0,0,2.44-2.44V62.26A2.22,2.22,0,0,0,596,59.82h-8.41l-4.75,14.5a2.21,2.21,0,0,1-2.25,1.58H566.55c-5.73,0-8.77-3-8.77-8.77V60.31c0-5.67,3-8.77,8.77-8.77h6.39a.87.87,0,0,1,1,1v6.34c0,.67-.31,1-1,1h-4.69a2.19,2.19,0,0,0-2.43,2.44v2.92a2.16,2.16,0,0,0,2.43,2.44h8.1l4.76-14.44a2.16,2.16,0,0,1,2.25-1.64h14.37c5.73,0,8.78,3.1,8.78,8.77Z"/><path class="cls-1" d="M606.51,97.59c0,5.72-3,8.77-8.78,8.77h-6.45a.87.87,0,0,1-1-1V99.05a.9.9,0,0,1,1-1H596a2.17,2.17,0,0,0,2.44-2.44V92.72A2.22,2.22,0,0,0,596,90.28h-8.41l-4.75,14.5a2.22,2.22,0,0,1-2.25,1.58H566.55c-5.73,0-8.77-3-8.77-8.77V90.77c0-5.67,3-8.78,8.77-8.78h6.39a.88.88,0,0,1,1,1V89.3a.85.85,0,0,1-1,1h-4.69a2.18,2.18,0,0,0-2.43,2.44v2.92a2.16,2.16,0,0,0,2.43,2.44h8.1l4.76-14.44A2.16,2.16,0,0,1,583.36,82h14.37c5.73,0,8.78,3.11,8.78,8.78Z"/><polygon class="cls-1" points="595.35 313.31 592.22 310.17 586.03 316.36 579.84 310.17 576.7 313.31 586.03 322.63 586.03 322.63 586.03 322.63 595.35 313.31"/><path class="cls-1" d="M612.06,335.52a33.15,33.15,0,1,1,0-40.33l.09.11,12.58-4.77a46.21,46.21,0,1,0,0,49.65l-12.58-4.77Z"/><path class="cls-2" d="M585.76,283.17a32.19,32.19,0,1,0,25.14,52.28l-12.29-4.66a20.1,20.1,0,1,1,0-30.87l12.28-4.66A32,32,0,0,0,585.76,283.17Z"/><path class="cls-1" d="M389.54,328.13v10.3l-24.05-21.9v-10.3Zm0,23.75V340.66l-24.05-21.9v33.12ZM271.47,328.13v10.3l24-21.9v-10.3Zm24,23.75V318.76l-24,21.9v11.22Zm56.83,0c1,0,1.38-.63.94-1.44L342,325.17l10.63-21.82c.44-.88.06-1.5-.87-1.5h-6.57a1.48,1.48,0,0,0-1.44.94l-9.63,19.7V303.1a1.12,1.12,0,0,0-1.25-1.25h-6a1.12,1.12,0,0,0-1.24,1.25v47.53a1.12,1.12,0,0,0,1.24,1.25h6a1.12,1.12,0,0,0,1.25-1.25V336.81l2.31-4.44,7.89,18.57a1.37,1.37,0,0,0,1.43.94Zm-44.55-32c0,5.88,3.13,9,9,9h8.26c5.81,0,9-3.13,9-9V302.47a.89.89,0,0,0-1-1h-10.5c-.69,0-1,.31-1,1v6.26a.89.89,0,0,0,1,1h3.25v8.37a2.22,2.22,0,0,1-2.5,2.51H318.8a2.22,2.22,0,0,1-2.49-2.51V289.59a2.21,2.21,0,0,1,2.49-2.5h4.51a2.24,2.24,0,0,1,2.5,2.5v4.75a.89.89,0,0,0,1,1h6.25a.92.92,0,0,0,1-1v-6.5c0-5.88-3.19-9-9-9H316.8c-5.87,0-9,3.13-9,9Z"/><path class="cls-1" d="M840.66,314.91l-8.49,9s1,1.31,2.45,3.38h11.86c-1.85-2.46-4.27-5.7-7.46-10,8.09-8.74,14.58-13.09,17.62-13.09v-.39H840.16v.39C843.31,304.22,844.26,311,840.66,314.91Z"/><path class="cls-1" d="M906.9,321.65c0,2.11,0,4,0,5.63H918.2a19.16,19.16,0,0,0,.83-5.63c0-9.59-6.79-17.73-17.22-18.22v.45C906.7,304.37,906.9,308.82,906.9,321.65Z"/><path class="cls-1" d="M894.65,327.28c0-1.65,0-3.52,0-5.63,0-12.83.2-17.28,5.14-17.77v-.45c-10.39.49-17.18,8.64-17.18,18.22a18.84,18.84,0,0,0,.84,5.63Z"/><path class="cls-1" d="M876.2,327.28c-2-4.47-5.16-11.72-10.28-23.45h-.25l-5.24,13.28,4.5,10.17Z"/><path class="cls-1" d="M821,307.67v19.61h9.74V307.67c0-3.64.3-3.45,2.49-3.45v-.39H818.94v.39C821.09,304.22,821,304.58,821,307.67Z"/><path class="cls-1" d="M772.84,321.65c0,2.11,0,4,0,5.63h11.33a18.84,18.84,0,0,0,.84-5.63c0-9.58-6.79-17.73-17.23-18.22v.45C772.64,304.37,772.84,308.82,772.84,321.65Z"/><path class="cls-1" d="M760.59,327.28c0-1.65,0-3.52,0-5.63,0-12.83.2-17.28,5.15-17.77v-.45c-10.39.49-17.18,8.64-17.18,18.22a19.16,19.16,0,0,0,.83,5.63Z"/><path class="cls-1" d="M811.2,327.28c-2-4.47-5.16-11.72-10.28-23.45h-.25l-5.24,13.28,4.51,10.17Z"/><path class="cls-2" d="M76.31,316.6c-1.37.31-3,.72-5.08,1.24,0,.58.07,1.16.07,1.74a23.31,23.31,0,0,1-1.06,7A6.8,6.8,0,0,0,74.36,328a4.24,4.24,0,0,0,.88-.14,28.51,28.51,0,0,0,1.22-8.26A29.44,29.44,0,0,0,76.31,316.6Z"/><path class="cls-2" d="M65.11,335.4A23.35,23.35,0,1,1,37.5,298.7a41,41,0,0,1,.77-5.95,28.52,28.52,0,1,0,33,43.26A45.78,45.78,0,0,1,65.11,335.4Z"/><path class="cls-2" d="M62.42,295c-.17,2.15-.21,4.23-.18,6.11a23.72,23.72,0,0,1,4.64,4.8l5.64-.79A28.88,28.88,0,0,0,62.42,295Z"/><path class="cls-1" d="M80.1,336.86s9.36-.59,14.85-10.8c.08,8.19-3.28,24.09-3.77,26-2.57,10.15-16,10.77-18.63,8.61C73.23,357.74,80.1,336.86,80.1,336.86ZM37.7,314.73c-4.64,4.13-2.08,18.14.31,15.35a33.26,33.26,0,0,1,5.89-6,41,41,0,0,1-5.14-9.9A3.8,3.8,0,0,0,37.7,314.73Zm99.82-14.43c-1.42-.62-48.62,5.48-73.34,9a29.11,29.11,0,0,0,1.51,7c7.25-2,17.34-4.53,17.53-3.34,2.92,17.94-8.86,18-8.86,18-12.2,0-14.47-21.22-14.47-21.22s-5.7-38,17.7-38c0,0,6.08,0,10,2.18a4.35,4.35,0,1,0,3.4.81v0S86.16,269,74.11,269c0,0-33.75,0-33.75,32.56,0,0-.41,31.53,32.73,31.53,7,0,23-3.72,23-22.38,0,0,14.3-4.09,41.85-6.34C138,304.37,139,300.94,137.52,300.3Z"/><path class="cls-1" d="M588.86,573.27s1.84-6-4.14-6-20.93,33.8-.92,33.8c0,0,11.49,2.08,11-9.43,0,0,.38-5.32-7.82-9.19C577.81,578.12,585,565.91,588.86,573.27Z"/><path class="cls-1" d="M584.09,565.55a3,3,0,0,1-1.11-2.66c0-2,1.27-1.95,1.27-1.95s1.29.06,1.17,2.2A2.83,2.83,0,0,1,584.09,565.55Z"/><path class="cls-1" d="M567.73,543.79s-3.48.13-6.4-4.26-.07-6.19-.07-6.19,3-1.78,5.85,3.13C569.54,540.6,567.73,543.79,567.73,543.79Z"/><path class="cls-1" d="M535.7,593a5,5,0,0,1-4.11,3.09c-3.37.64-3.8-1.92-3.8-1.92s-.38-2.62,3.3-3.06A4.92,4.92,0,0,1,535.7,593Z"/><path class="cls-1" d="M539,589.44a2.64,2.64,0,0,1-2.14,1.62c-1.76.33-2-1-2-1s-.2-1.37,1.72-1.61A2.58,2.58,0,0,1,539,589.44Z"/><path class="cls-1" d="M541.17,584.3a4.17,4.17,0,0,1-3.82,1.87c-2.84,0-2.79-2.15-2.79-2.15s.1-2.19,3.16-2A4.06,4.06,0,0,1,541.17,584.3Z"/><path class="cls-1" d="M531.59,585.77a3.34,3.34,0,0,1-2.71,2c-2.22.42-2.5-1.26-2.5-1.26s-.25-1.73,2.17-2A3.24,3.24,0,0,1,531.59,585.77Z"/><path class="cls-1" d="M536.65,578.23a4.31,4.31,0,0,1-3.52,2.64c-2.89.55-3.25-1.64-3.25-1.64s-.33-2.24,2.82-2.63A4.22,4.22,0,0,1,536.65,578.23Z"/><path class="cls-1" d="M533.72,571.58a4.88,4.88,0,0,1-4,3c-3.25.61-3.66-1.85-3.66-1.85s-.37-2.53,3.17-3A4.76,4.76,0,0,1,533.72,571.58Z"/><path class="cls-1" d="M532.62,566.12a4.48,4.48,0,0,1-4.54-.56c-2.55-1.67-1.25-3.57-1.25-3.57s1.38-1.91,4,.07A4.38,4.38,0,0,1,532.62,566.12Z"/><path class="cls-1" d="M540.32,562.8s-3.3,1.26-6.84-1.89-1.11-5.76-1.11-5.76,2.54-2.64,6.13,1A6.8,6.8,0,0,1,540.32,562.8Z"/><path class="cls-1" d="M531.84,552.71s-2.75.46-5-2.54,0-4.63,0-4.63,2.38-1.64,4.58,1.75A5.37,5.37,0,0,1,531.84,552.71Z"/><path class="cls-1" d="M541.87,553.76a4.41,4.41,0,0,1-4.35-1c-2.3-1.92-.82-3.62-.82-3.62s1.55-1.71,3.89.52A4.3,4.3,0,0,1,541.87,553.76Z"/><path class="cls-1" d="M546.53,548.65s-3.13.46-5.6-3,.15-5.26.15-5.26,2.74-1.79,5.16,2.09A6.07,6.07,0,0,1,546.53,548.65Z"/><path class="cls-1" d="M556,545.37a5,5,0,0,1-4.4-2.56c-1.88-2.83.29-4.2.29-4.2s2.24-1.36,4.06,1.82A4.87,4.87,0,0,1,556,545.37Z"/><path class="cls-1" d="M572.71,535.61a3.45,3.45,0,0,1-2.48-2.48c-.76-2.21.93-2.75.93-2.75s1.73-.51,2.39,1.93A3.37,3.37,0,0,1,572.71,535.61Z"/><path class="cls-1" d="M579.72,531.38s-3-.86-3.84-5,2.29-4.68,2.29-4.68,3.2-.51,3.8,4A6,6,0,0,1,579.72,531.38Z"/><path class="cls-1" d="M584.34,540.89A5,5,0,0,1,581,537c-.83-3.3,1.67-3.87,1.67-3.87s2.57-.54,3.23,3.07A4.88,4.88,0,0,1,584.34,540.89Z"/><path class="cls-1" d="M585.79,531.28a4,4,0,0,1-1.44-3.75c.25-2.67,2.26-2.44,2.26-2.44s2,.27,1.59,3.13A3.84,3.84,0,0,1,585.79,531.28Z"/><path class="cls-1" d="M592.2,536.36s-2.81-1.91-2.26-6.43,3.95-4,3.95-4,3.47.57,2.56,5.4A6.54,6.54,0,0,1,592.2,536.36Z"/><path class="cls-1" d="M596.07,543.19a5,5,0,0,1-1-5c.86-3.29,3.32-2.6,3.32-2.6s2.51.76,1.36,4.24A4.89,4.89,0,0,1,596.07,543.19Z"/><path class="cls-1" d="M602.05,548a5,5,0,0,1-1-5c.86-3.29,3.32-2.6,3.32-2.6s2.51.76,1.36,4.24A4.87,4.87,0,0,1,602.05,548Z"/><path class="cls-1" d="M607.32,539.08a4.13,4.13,0,0,1-.86-4.11c.71-2.72,2.75-2.15,2.75-2.15s2.07.63,1.12,3.51A4,4,0,0,1,607.32,539.08Z"/><path class="cls-1" d="M610.82,546.16s-1.78-2.27-.18-5.78,4.23-2.26,4.23-2.26,2.67,1.35.69,5A5.55,5.55,0,0,1,610.82,546.16Z"/><path class="cls-1" d="M617.78,536.85a2.54,2.54,0,0,1-.15-2.58c.68-1.58,1.86-1,1.86-1s1.2.57.36,2.23A2.48,2.48,0,0,1,617.78,536.85Z"/><path class="cls-1" d="M619.15,544.05a3.72,3.72,0,0,1-.76-3.69c.63-2.43,2.45-1.92,2.45-1.92s1.86.57,1,3.14A3.62,3.62,0,0,1,619.15,544.05Z"/><path class="cls-1" d="M615.26,550.9a4.4,4.4,0,0,1,.13-4.46c1.39-2.63,3.36-1.54,3.36-1.54s2,1.16.29,3.89A4.29,4.29,0,0,1,615.26,550.9Z"/><path class="cls-1" d="M622.44,550.63s-1.42-2.51.69-5.74,4.51-1.6,4.51-1.6,2.43,1.73-.07,5.07A5.56,5.56,0,0,1,622.44,550.63Z"/><path class="cls-1" d="M623.59,560.36s-.94-3.34,2.46-6.51,5.74-.56,5.74-.56,2.34,2.72-1.55,5.9A6.67,6.67,0,0,1,623.59,560.36Z"/><path class="cls-1" d="M631.3,562a3.56,3.56,0,0,1,1.33-3.35c1.79-1.62,3-.24,3-.24s1.19,1.43-.85,3A3.45,3.45,0,0,1,631.3,562Z"/><path class="cls-1" d="M624.57,569.91a5.13,5.13,0,0,1,3.1-4.21c3.1-1.61,4.27.75,4.27.75s1.14,2.45-2.32,4A5,5,0,0,1,624.57,569.91Z"/><path class="cls-1" d="M633.28,571.55a4,4,0,0,1,1.56-3.82c2.06-1.83,3.41-.24,3.41-.24s1.34,1.65-1,3.47A4,4,0,0,1,633.28,571.55Z"/><path class="cls-1" d="M631.69,575.82a4.19,4.19,0,0,1,3.58-2.3c2.83-.32,3,1.82,3,1.82s.16,2.19-2.91,2.33A4.08,4.08,0,0,1,631.69,575.82Z"/><path class="cls-1" d="M627.55,583.41a4.19,4.19,0,0,1,3.58-2.3c2.83-.31,3,1.82,3,1.82s.16,2.19-2.91,2.33A4.08,4.08,0,0,1,627.55,583.41Z"/><path class="cls-1" d="M626.59,591.15s1.25-2.6,5.11-2.71,3.88,2.81,3.88,2.81,0,3-4.2,2.82A5.55,5.55,0,0,1,626.59,591.15Z"/><path class="cls-1" d="M544,598.76s-1,3.16-5.4,3.9-4.88-2.58-4.88-2.58-.43-3.4,4.35-3.89A6.38,6.38,0,0,1,544,598.76Z"/><path class="cls-1" d="M543.61,592.23a3.1,3.1,0,0,1-2.53,1.9c-2.08.4-2.35-1.18-2.35-1.18s-.23-1.62,2-1.89A3.05,3.05,0,0,1,543.61,592.23Z"/><path class="cls-1" d="M546.84,587.52a3.1,3.1,0,0,1-2.62,1.78c-2.1.29-2.28-1.3-2.28-1.3s-.16-1.63,2.12-1.79A3,3,0,0,1,546.84,587.52Z"/><path class="cls-1" d="M546.42,578.6a5.06,5.06,0,0,1-5,1.33c-3.37-.67-2.81-3.2-2.81-3.2s.62-2.57,4.2-1.61A4.93,4.93,0,0,1,546.42,578.6Z"/><path class="cls-1" d="M542,570.33a5,5,0,0,1-4.91,1.29c-3.32-.68-2.75-3.18-2.75-3.18s.63-2.54,4.15-1.57A4.88,4.88,0,0,1,542,570.33Z"/><path class="cls-1" d="M550.9,573.89a3.13,3.13,0,0,1-3.08.76c-2.06-.44-1.69-2-1.69-2s.41-1.58,2.6-.95A3,3,0,0,1,550.9,573.89Z"/><path class="cls-1" d="M553,567.25s-2.19,2.36-6.35,1.22-3.24-4.27-3.24-4.27,1-3.18,5.42-1.64A6.18,6.18,0,0,1,553,567.25Z"/><path class="cls-1" d="M555.24,562a3.11,3.11,0,0,1-3.11.62c-2-.54-1.6-2.08-1.6-2.08s.48-1.56,2.65-.83A3,3,0,0,1,555.24,562Z"/><path class="cls-1" d="M551.09,557.51a5,5,0,0,1-5,1c-3.32-.89-2.6-3.38-2.6-3.38s.79-2.53,4.3-1.34A4.93,4.93,0,0,1,551.09,557.51Z"/><path class="cls-1" d="M556.15,555.55s-3.22,1-6.4-2.2-.7-5.56-.7-5.56,2.57-2.34,5.76,1.34A6.48,6.48,0,0,1,556.15,555.55Z"/><path class="cls-1" d="M563,556.59a3.38,3.38,0,0,1-3.1-1.52c-1.41-1.82,0-2.86,0-2.86s1.45-1,2.84,1A3.3,3.3,0,0,1,563,556.59Z"/><path class="cls-1" d="M564.32,550.61a4.41,4.41,0,0,1-3.71-2.54c-1.47-2.61.52-3.69.52-3.69s2.07-1,3.47,1.88A4.29,4.29,0,0,1,564.32,550.61Z"/><path class="cls-1" d="M574.5,553.8s-3.48.37-6.07-3.54.41-5.8.41-5.8,3.1-1.87,5.61,2.53A6.74,6.74,0,0,1,574.5,553.8Z"/><path class="cls-1" d="M576.17,545.25a5.08,5.08,0,0,1-4-3.3c-1.41-3.15,1-4.17,1-4.17s2.48-1,3.77,2.51A5,5,0,0,1,576.17,545.25Z"/><path class="cls-1" d="M580.69,546.37a3.26,3.26,0,0,1-1.6-2.91c-.1-2.21,1.57-2.25,1.57-2.25s1.71,0,1.66,2.38A3.17,3.17,0,0,1,580.69,546.37Z"/><path class="cls-1" d="M584.84,551.58a4.76,4.76,0,0,1-1.26-4.68c.63-3.18,3-2.65,3-2.65s2.43.58,1.53,4A4.64,4.64,0,0,1,584.84,551.58Z"/><path class="cls-1" d="M589.21,544.45a4.78,4.78,0,0,1-1.27-4.68c.64-3.18,3-2.65,3-2.65s2.43.58,1.53,4A4.64,4.64,0,0,1,589.21,544.45Z"/><path class="cls-1" d="M592.43,550.2a4.76,4.76,0,0,1-1.26-4.68c.62-3.18,3-2.65,3-2.65s2.43.58,1.53,4A4.66,4.66,0,0,1,592.43,550.2Z"/><path class="cls-1" d="M597.41,554.19a4,4,0,0,1-1-3.9c.53-2.65,2.52-2.21,2.52-2.21s2,.48,1.27,3.3A3.86,3.86,0,0,1,597.41,554.19Z"/><path class="cls-1" d="M601.1,560.6s-2.06-2.28-.63-6.13,4.33-2.72,4.33-2.72,2.92,1.23,1.1,5.29A5.92,5.92,0,0,1,601.1,560.6Z"/><path class="cls-1" d="M607.62,551.32a3.54,3.54,0,0,1-.93-3.46c.46-2.35,2.23-2,2.23-2s1.8.44,1.13,2.93A3.43,3.43,0,0,1,607.62,551.32Z"/><path class="cls-1" d="M609.76,557a4.37,4.37,0,0,1,0-4.47c1.31-2.69,3.32-1.65,3.32-1.65s2,1.1.42,3.9A4.29,4.29,0,0,1,609.76,557Z"/><path class="cls-1" d="M616.59,559a4.76,4.76,0,0,1,.69-4.8c1.82-2.67,3.81-1.25,3.81-1.25s2,1.5-.15,4.24A4.64,4.64,0,0,1,616.59,559Z"/><path class="cls-1" d="M613.6,569.74s-1-3.12,2.09-6.23,5.39-.73,5.39-.73,2.3,2.48-1.25,5.61A6.29,6.29,0,0,1,613.6,569.74Z"/><path class="cls-1" d="M615.86,574.76a4.75,4.75,0,0,1,2.47-4.18c2.71-1.76,4,.31,4,.31s1.28,2.15-1.77,3.86A4.64,4.64,0,0,1,615.86,574.76Z"/><path class="cls-1" d="M622,577.72a4.29,4.29,0,0,1,3.47-2.7c2.89-.6,3.29,1.59,3.29,1.59s.36,2.24-2.79,2.67A4.22,4.22,0,0,1,622,577.72Z"/><path class="cls-1" d="M617.15,586.63s1.4-2.86,5.66-3,4.27,3.11,4.27,3.11-.06,3.29-4.65,3.1A6.15,6.15,0,0,1,617.15,586.63Z"/><path class="cls-1" d="M618.15,595.47a4.76,4.76,0,0,1,3.85-2.94c3.18-.63,3.6,1.78,3.6,1.78s.38,2.47-3.09,2.92A4.66,4.66,0,0,1,618.15,595.47Z"/><path class="cls-1" d="M610.13,566.76a4.79,4.79,0,0,1-1.26-4.68c.63-3.18,3-2.65,3-2.65s2.43.58,1.53,4A4.65,4.65,0,0,1,610.13,566.76Z"/><path class="cls-1" d="M587.48,560.58a3.14,3.14,0,0,1-1.34-2.84c0-2.11,1.52-2.08,1.52-2.08s1.53.07,1.42,2.34S587.48,560.58,587.48,560.58Z"/><path class="cls-1" d="M592.27,561.75S590,559.9,590.83,556s3.61-3.3,3.61-3.3,2.82.69,1.77,4.88S592.27,561.75,592.27,561.75Z"/><path class="cls-1" d="M589.6,552.65a1.7,1.7,0,0,1-.41-1.64c.23-1.11,1-.93,1-.93s.8.19.5,1.38S589.6,552.65,589.6,552.65Z"/><path class="cls-1" d="M602.9,566.14a4.49,4.49,0,0,1,1.09-4.35c1.91-2.34,3.57-.91,3.57-.91s1.63,1.45-.56,3.87S602.9,566.14,602.9,566.14Z"/><path class="cls-1" d="M595.08,566.37a4.49,4.49,0,0,1,1.09-4.35c1.91-2.34,3.57-.91,3.57-.91s1.63,1.45-.56,3.87S595.08,566.37,595.08,566.37Z"/><path class="cls-1" d="M598.84,570.39a3.31,3.31,0,0,1,.81-3.22c1.41-1.73,2.64-.68,2.64-.68s1.21,1.08-.41,2.87S598.84,570.39,598.84,570.39Z"/><path class="cls-1" d="M604,574.32s-1.07-2.62,1.41-5.66,4.65-1.19,4.65-1.19,2.12,1.9-.73,5S604,574.32,604,574.32Z"/><path class="cls-1" d="M609.18,576.23a3.76,3.76,0,0,1,2.27-3c2.24-1.17,3.06.47,3.06.47s.78,1.66-1.7,2.81S609.18,576.23,609.18,576.23Z"/><path class="cls-1" d="M613.69,578.78a3.77,3.77,0,0,1,3.24-1.92c2.52-.23,2.65,1.6,2.65,1.6s.09,1.83-2.64,1.95S613.69,578.78,613.69,578.78Z"/><path class="cls-1" d="M607.12,582.1a3.49,3.49,0,0,1,2.76-2.17c2.3-.53,2.65,1.15,2.65,1.15s.31,1.69-2.21,2.13S607.12,582.1,607.12,582.1Z"/><path class="cls-1" d="M614.55,584.1a3.38,3.38,0,0,1,2.23-2.53c2.08-.9,2.7.62,2.7.62s.59,1.54-1.71,2.4S614.55,584.1,614.55,584.1Z"/><path class="cls-1" d="M609.87,586.18a3.29,3.29,0,0,1,3.06-1.21c2.21.16,2.07,1.75,2.07,1.75s-.18,1.6-2.55,1.32S609.87,586.18,609.87,586.18Z"/><path class="cls-1" d="M605,591.58a4.47,4.47,0,0,1,4.08-1.85c3,0,2.93,2.24,2.93,2.24s-.13,2.18-3.38,2S605,591.58,605,591.58Z"/><path class="cls-1" d="M613.35,591.82a2.61,2.61,0,0,1,2.37-1.1c1.76,0,1.73,1.28,1.73,1.28s-.07,1.28-2,1.17S613.35,591.82,613.35,591.82Z"/><path class="cls-1" d="M608.55,597.38a3.51,3.51,0,0,1,3.17-1.53c2.38,0,2.35,1.7,2.35,1.7s-.06,1.72-2.62,1.61S608.55,597.38,608.55,597.38Z"/><path class="cls-1" d="M554.54,601a4.13,4.13,0,0,1-3.41,2.46c-2.77.47-3.08-1.63-3.08-1.63s-.27-2.15,2.74-2.45A4,4,0,0,1,554.54,601Z"/><path class="cls-1" d="M550.32,596.44a3.44,3.44,0,0,1-3.17,1.44c-2.31-.08-2.22-1.83-2.22-1.83s.13-1.78,2.62-1.54A3.34,3.34,0,0,1,550.32,596.44Z"/><path class="cls-1" d="M549.85,591.92a3,3,0,0,1-3,.73c-2-.45-1.64-2-1.64-2s.41-1.54,2.54-.91A3,3,0,0,1,549.85,591.92Z"/><path class="cls-1" d="M557.84,588.8a4.9,4.9,0,0,1-3.69,3.38c-3.21.94-3.87-1.5-3.87-1.5s-.62-2.51,2.91-3.29A4.8,4.8,0,0,1,557.84,588.8Z"/><path class="cls-1" d="M560.5,584.88a3.77,3.77,0,0,1-3.36,1.87c-2.57.12-2.62-1.82-2.62-1.82s0-2,2.76-1.93A3.68,3.68,0,0,1,560.5,584.88Z"/><path class="cls-1" d="M553.55,583.19a4.13,4.13,0,0,1-3.1,2.84c-2.69.78-3.24-1.27-3.24-1.27s-.52-2.1,2.44-2.75A4,4,0,0,1,553.55,583.19Z"/><path class="cls-1" d="M557.11,581.71s-2.52,1.35-5.67-.82-1.47-4.52-1.47-4.52,1.77-2.36,5,.2A5.5,5.5,0,0,1,557.11,581.71Z"/><path class="cls-1" d="M559.58,572a4.11,4.11,0,0,1-3.91,1.53c-2.8-.24-2.58-2.35-2.58-2.35s.28-2.15,3.27-1.69A4,4,0,0,1,559.58,572Z"/><path class="cls-1" d="M560,567.06a3.63,3.63,0,0,1-3.67.46c-2.34-.81-1.69-2.56-1.69-2.56s.69-1.78,3.15-.74A3.57,3.57,0,0,1,560,567.06Z"/><path class="cls-1" d="M561.16,562.28a4.91,4.91,0,0,1-4.75-1.52c-2.39-2.32-.61-4.09-.61-4.09s1.86-1.77,4.27.89A4.77,4.77,0,0,1,561.16,562.28Z"/><path class="cls-1" d="M567.84,567.32a4.13,4.13,0,0,1-3.23-2.7c-1.12-2.57.84-3.38.84-3.38s2-.79,3,2.06A4,4,0,0,1,567.84,567.32Z"/><path class="cls-1" d="M571.52,561.07s-2.78.57-5.18-2.39-.13-4.73-.13-4.73,2.36-1.75,4.73,1.61A5.47,5.47,0,0,1,571.52,561.07Z"/><path class="cls-1" d="M577.82,561.71a4.14,4.14,0,0,1-2.77-3.16c-.73-2.71,1.33-3.22,1.33-3.22s2.11-.47,2.7,2.5A4,4,0,0,1,577.82,561.71Z"/><path class="cls-1" d="M579.11,553.67a3.07,3.07,0,0,1-2.08-2.33c-.55-2,1-2.4,1-2.4s1.57-.36,2,1.84A3,3,0,0,1,579.11,553.67Z"/><path class="cls-1" d="M583.09,558a3.67,3.67,0,0,1-2.11-3.1c-.34-2.48,1.53-2.7,1.53-2.7s1.93-.19,2.12,2.51A3.61,3.61,0,0,1,583.09,558Z"/><path class="cls-1" d="M578.22,570.89s-2.62.4-5.21-2.69-.56-4.7-.56-4.7,2.1-1.59,4.7,1.89A5.77,5.77,0,0,1,578.22,570.89Z"/><path class="cls-1" d="M590.42,573.66a5.17,5.17,0,0,1,2.07-4.88c2.68-2.29,4.4-.19,4.4-.19s1.7,2.18-1.35,4.45A5.1,5.1,0,0,1,590.42,573.66Z"/><path class="cls-1" d="M589.73,582.56a3.91,3.91,0,0,1,1.55-3.67c2-1.71,3.31-.14,3.31-.14s1.28,1.64-1,3.34A3.8,3.8,0,0,1,589.73,582.56Z"/><path class="cls-1" d="M596.08,577.19a4.1,4.1,0,0,1,1.65-3.87c2.13-1.82,3.49-.15,3.49-.15s1.36,1.73-1.08,3.53A4,4,0,0,1,596.08,577.19Z"/><path class="cls-1" d="M602.68,579.56a3.88,3.88,0,0,1,1.55-3.65c2-1.7,3.28-.14,3.28-.14s1.28,1.63-1,3.33A3.8,3.8,0,0,1,602.68,579.56Z"/><path class="cls-1" d="M598.23,583a3.3,3.3,0,0,1,2.54-2.22c2.16-.57,2.56,1.11,2.56,1.11s.38,1.72-2,2.17A3.23,3.23,0,0,1,598.23,583Z"/><path class="cls-1" d="M593.83,585.1a2.24,2.24,0,0,1,1.34-1.88c1.37-.72,1.9.34,1.9.34s.52,1.09-1,1.76A2.21,2.21,0,0,1,593.83,585.1Z"/><path class="cls-1" d="M595.16,589.07a3.55,3.55,0,0,1,2.25-2.85c2.18-1,2.93.67,2.93.67s.73,1.75-1.69,2.69A3.47,3.47,0,0,1,595.16,589.07Z"/><path class="cls-1" d="M601.86,587.44a3.12,3.12,0,0,1,2.45-2.08c2.08-.51,2.44,1.09,2.44,1.09s.33,1.65-2,2A3.09,3.09,0,0,1,601.86,587.44Z"/><path class="cls-1" d="M596.33,593.5a4.52,4.52,0,0,1,4-2.28c3-.16,3.12,2.19,3.12,2.19s0,2.41-3.27,2.36A4.44,4.44,0,0,1,596.33,593.5Z"/><path class="cls-1" d="M594.44,598.4a2.79,2.79,0,0,1,2.73-.79c1.85.35,1.56,1.77,1.56,1.77s-.33,1.44-2.31.94A2.72,2.72,0,0,1,594.44,598.4Z"/><path class="cls-1" d="M601.74,598.7a3.45,3.45,0,0,1,3.38-1c2.3.43,1.93,2.19,1.93,2.19s-.41,1.79-2.85,1.16A3.37,3.37,0,0,1,601.74,598.7Z"/><path class="cls-1" d="M574.55,576.13s-2.09.74-4.71-1.39-1.22-3.77-1.22-3.77,1.48-1.64,4.17.81A4.83,4.83,0,0,1,574.55,576.13Z"/><path class="cls-1" d="M574.9,580.9s-1.46,1.37-4.38.57-2.37-2.67-2.37-2.67.63-1.89,3.73-.85A4.35,4.35,0,0,1,574.9,580.9Z"/><path class="cls-1" d="M573.47,598.71s-.41,1.43-2.78,2.28-2.8-.47-2.8-.47-.4-1.35,2.2-2.14A3.67,3.67,0,0,1,573.47,598.71Z"/><path class="cls-1" d="M571.4,593.59s-.73,2.34-4.33,3.24-4.12-1.41-4.12-1.41-.48-2.39,3.45-3.14A5.32,5.32,0,0,1,571.4,593.59Z"/><path class="cls-1" d="M565.29,600.25s-.55,1.75-3.26,2.43-3.1-1.06-3.1-1.06-.36-1.8,2.6-2.37A4,4,0,0,1,565.29,600.25Z"/><path class="cls-1" d="M561,594.21a5.2,5.2,0,0,1-3.9,3.58c-3.39,1-4.09-1.59-4.09-1.59s-.65-2.65,3.08-3.47A5.07,5.07,0,0,1,561,594.21Z"/><path class="cls-1" d="M564.49,589.15a3.45,3.45,0,0,1-2.83,1.67c-2.24.31-2.4-1.13-2.4-1.13s-.13-1.47,2.3-1.67A3.24,3.24,0,0,1,564.49,589.15Z"/><path class="cls-1" d="M572.78,589.65a3.6,3.6,0,0,1-3.11,1.37c-2.33,0-2.32-1.46-2.32-1.46s0-1.52,2.56-1.42A3.33,3.33,0,0,1,572.78,589.65Z"/><path class="cls-1" d="M569.78,586.33s-2.12,1.6-5.87.13-2.74-3.85-2.74-3.85,1.08-2.41,5-.59A5.76,5.76,0,0,1,569.78,586.33Z"/><path class="cls-1" d="M566.74,578.6s-2,1.34-5.33-.18-2.31-3.63-2.31-3.63,1.11-2.13,4.6-.29A5.26,5.26,0,0,1,566.74,578.6Z"/><path class="cls-1" d="M566.68,572.21s-1.91.78-4.43-1.07-1.3-3.44-1.3-3.44,1.29-1.6,3.9.55A4.5,4.5,0,0,1,566.68,572.21Z"/><path class="cls-1" d="M582,565.93a2.23,2.23,0,0,1-1.64-1.36c-.68-1.29.16-1.71.16-1.71s.84-.39,1.53,1A2.16,2.16,0,0,1,582,565.93Z"/><path class="cls-1" d="M586.18,565.73a3.12,3.12,0,0,1,.8-2.85c1.26-1.59,2.26-.75,2.26-.75s1.08,1-.46,2.51A3.2,3.2,0,0,1,586.18,565.73Z"/><path class="cls-1" d="M585.33,601.42s1.15,7.12-.61,8.88c-.16.16-.85,1.69,1.38.69s4.37,1.31,4.6.77-4.22-5.65-4.22-10.34Z"/><path class="cls-1" d="M580.25,601.42s-.86,7.3.47,9.17c.11.16.63,1.66-1,.6s-3.29,1.58-3.47,1,3.18-6.09,3.18-10.78Z"/><path class="cls-1" d="M371.35,567.71c-2.79-2.23-8.8-5.81-18.62-5.81,0,0-11.83-.08-11.83,6.49,0,9.41,8.25,6.63,8.25,6.63h0a1.15,1.15,0,0,1,1.35.67s2.42,5.26-6,5.26c-11.68,0-11.17-12.11-11.17-12.11-.77-12.3,18.2-13,18.2-13,10.33,0,16.6,2.24,19.47,3.61-.38-10.38-.92-19.18-.92-19.18s-.3-10.2-34.38-10.2-34.38,10.2-34.38,10.2-.37,6.09-.72,14.12c-6.56,1.66-14.76,5.54-14.19,14.56,0,0-.61,14.68,13.54,14.68h.45c1.53,11.89,8.54,20.31,35.3,20.31,31.68,0,35.68-11.8,35.68-27.19C371.47,573.87,371.42,570.8,371.35,567.71Zm-35.41-32.3c12.21,0,22.11,2.12,22.11,4.72s-9.9,4.72-22.11,4.72-22.11-2.11-22.11-4.72S323.73,535.41,335.94,535.41Zm-40.36,33c0-3.09,2.16-5,4.81-6.11-.16,4.79-.27,9.78-.28,14.28C297.78,575.84,295.58,573.74,295.58,568.39Z"/><polygon class="cls-1" points="1108.48 545.59 1061.42 563.16 1061.42 544.76 1108.48 527.19 1108.48 545.59"/><polygon class="cls-1" points="1108.48 568.93 1061.42 586.5 1061.42 568.1 1108.48 550.53 1108.48 568.93"/><polygon class="cls-1" points="1084.95 601.06 1061.42 609.84 1061.42 591.44 1084.95 582.66 1084.95 601.06"/><path class="cls-1" d="M776.5,577.41h-5.22V565.47h4.64a6.87,6.87,0,0,1,2.1.29,2.89,2.89,0,0,1,2.12,2.87,2.44,2.44,0,0,1-.9,2.08,3.58,3.58,0,0,1-.43.3l-.43.2a3.13,3.13,0,0,1,1.77,1,2.77,2.77,0,0,1,.66,1.89,3.21,3.21,0,0,1-.86,2.2,4.46,4.46,0,0,1-3.45,1.11m-2.56-7.11h1.27a4.19,4.19,0,0,0,1.64-.24,1,1,0,0,0,.54-1,1.06,1.06,0,0,0-.49-1,4,4,0,0,0-1.68-.25h-1.28Zm0,4.86h1.83a4,4,0,0,0,1.72-.29,1.1,1.1,0,0,0,.57-1.11,1.06,1.06,0,0,0-.61-1.09,5.13,5.13,0,0,0-1.94-.26h-1.57Zm20,2.25-1.11-2.58h-5l-1.11,2.58h-2.83l5.16-11.94h2.57l5.16,11.94ZM790.37,569l-1.5,3.47h3Zm15.87,6a3.28,3.28,0,0,1-2.44-1,3.61,3.61,0,0,1-1-2.67,3.44,3.44,0,0,1,1.07-2.65,3.68,3.68,0,0,1,2.57-1,3.9,3.9,0,0,1,3.14,1.57l1.66-1.88a6.3,6.3,0,0,0-4.92-2.23,6.13,6.13,0,0,0-4.45,1.77,6,6,0,0,0-1.82,4.44,5.9,5.9,0,0,0,1.78,4.4,6.45,6.45,0,0,0,9.34-.55l-1.71-1.76a3.94,3.94,0,0,1-3.21,1.55m9.58,2.36h2.67V574l1.19-1.33,3.5,4.71h3.11l-2.48-3.48-2.27-3.18,4.75-5.28H823l-4.51,4.9v-4.9h-2.67ZM845,570.46h-4.74v-5h-2.67v11.94h2.67v-4.7H845v4.7h2.67V565.47H845Zm18.21,5.3a6.5,6.5,0,0,1-8.92,0,6.24,6.24,0,0,1,0-8.79,6.5,6.5,0,0,1,8.92,0,6.24,6.24,0,0,1,0,8.79m-.9-4.39a3.92,3.92,0,0,0-1-2.72,3.37,3.37,0,0,0-5,0,4.14,4.14,0,0,0,0,5.44,3.39,3.39,0,0,0,5,0,3.9,3.9,0,0,0,1-2.72m18.22,6h2.66V565.47H879.6L876.51,572l-3.08-6.56h-3.6v11.94h2.66V569.9l3.21,6.52h1.59l3.23-6.52Zm8.16-11.94v11.94h8.8v-2.36h-6.13v-2.47h5.34v-2.27h-5.34v-2.46h5.94v-2.38Zm-126.62-5.71a9.65,9.65,0,0,0,10.35-5.84h19v-3.46H770.1l-.43,1.1c-2.57,6.55-8.09,4.66-8.7,4.43l-2.37-.94v28.46h3.46ZM909,550.46H875v3.46h30.46v29.59H909Z"/><path class="cls-1" d="M119,528v0l-4.48,13.68H99.44v9.8h11.94l-4.28,9.79H99.44v17.63H81.81V541.67H72v37.22H56.34V541.67H43.2L38.71,528v0ZM56.34,597.91,77.89,606l21.55-8.44v-8.89H56.34Z"/><polygon class="cls-1" points="1042.21 76.79 1035.3 73.79 1029.83 86.4 1042.03 91.7 1045.03 84.8 1039.73 82.5 1042.21 76.79"/><path class="cls-1" d="M1082.73,56.74a5.49,5.49,0,0,1,2.81-.59,10.55,10.55,0,0,1,4.37.85,10.68,10.68,0,0,1,3.59,2.79l4.19-5.4a15.86,15.86,0,0,0-5.51-3.63,19.75,19.75,0,0,0-6.85-1.07,17.4,17.4,0,0,0-6.71,1.17,9.62,9.62,0,0,0-4.28,3.28,8.18,8.18,0,0,0-1.47,4.82,6.86,6.86,0,0,0,1.51,4.63,9.43,9.43,0,0,0,3.8,2.62,33.18,33.18,0,0,0,5.64,1.51,19.51,19.51,0,0,1,3.58.92c.74.31,1.11.72,1.11,1.25,0,1.24-1.27,1.85-3.81,1.85a12.61,12.61,0,0,1-4.89-.86,10,10,0,0,1-3.75-2.83l-4,5.87a16.31,16.31,0,0,0,5.45,3.25,23.7,23.7,0,0,0,7.71,1,17.46,17.46,0,0,0,6.16-1,9.59,9.59,0,0,0,4.32-3,7.22,7.22,0,0,0,1.59-4.74,8,8,0,0,0-1.1-4.35,8.19,8.19,0,0,0-3.52-2.92,26,26,0,0,0-6.44-1.86,21.13,21.13,0,0,1-3.48-.88q-1.05-.42-1-1.17A1.73,1.73,0,0,1,1082.73,56.74Z"/><path class="cls-1" d="M1083.64,102.9a14.92,14.92,0,0,1-5.89,1.64h-.25a6.23,6.23,0,0,1-1.17-.16c-2.23-.55-3.84-2.22-5.38-5.59l-7.23-15.85c-1.69-3.72-4.4-5.66-8.78-6.28l-.63-.1.36-.52c2.43-3.63,2.74-6.94,1-10.75l-7.23-15.85c-1.53-3.37-1.75-5.68-.69-7.73s3.07-3.2,5.91-4.56l.68-.32-2.8-6.14-.7.32c-6.32,2.87-9.5,5.24-11,8.18-1.7,3.34-1.25,7.5,1.48,13.49l7.23,15.85a8.23,8.23,0,0,1,.5,3.87,5.21,5.21,0,0,1-2.47,4.09l-.55.36,2.64,5.79.62-.15a6,6,0,0,1,1.68-.19,5.81,5.81,0,0,1,3.07,1,8.12,8.12,0,0,1,2.55,2.83l7.23,15.85c2.73,6,5.57,9.06,9.22,10a9.77,9.77,0,0,0,1.93.26h.42c2.77,0,6.17-1,11-3.21l.7-.32-2.8-6.14Z"/><path class="cls-1" d="M1122.78,59a8.1,8.1,0,0,1-.47-3.72,5.69,5.69,0,0,1,2.48-4.22l.52-.37-2.63-5.77-.63.17a5.65,5.65,0,0,1-1.79.23,5.38,5.38,0,0,1-3-1.08,8.19,8.19,0,0,1-2.54-2.88l-7.23-15.86c-2.79-6.11-5.52-9.1-9.14-10-3.19-.8-7,.05-13.47,3l-.69.32,2.8,6.15.69-.3c2.82-1.23,4.6-1.7,6.15-1.64a6.24,6.24,0,0,1,1.16.16c2.23.54,3.84,2.22,5.38,5.59l7.23,15.85c1.73,3.81,4.44,5.75,8.78,6.29l.63.08-.35.53c-2.4,3.72-2.71,7-1,10.75l7.22,15.85c1.54,3.37,1.74,5.68.7,7.73s-3.08,3.2-5.92,4.56l-.67.32,2.8,6.13.69-.31c6.29-2.87,9.61-5.33,11.08-8.22,1.69-3.32,1.23-7.34-1.56-13.45Z"/><polygon class="cls-1" points="1128.66 35.57 1125.83 42.55 1131.18 44.72 1128.84 50.49 1135.82 53.31 1140.99 40.58 1128.66 35.57"/><path class="cls-1" d="M1105.06,100.78a4.8,4.8,0,0,1-3.26,1q-5.27,0-5.27-7.83a10.13,10.13,0,0,1,1.39-5.87,5.22,5.22,0,0,1,7.07-1,6.26,6.26,0,0,1,1.53,3.55l7.53-3a9.2,9.2,0,0,0-4.3-6.11,17.27,17.27,0,0,0-15.6-.29,11.86,11.86,0,0,0-4.85,5,18.71,18.71,0,0,0,0,15.54,11.6,11.6,0,0,0,4.87,5,15.71,15.71,0,0,0,7.51,1.7,14.75,14.75,0,0,0,8.18-2.13,10.57,10.57,0,0,0,4.44-6.63l-7.74-2.08A5.32,5.32,0,0,1,1105.06,100.78Z"/><polygon class="cls-1" points="1062.82 49.82 1063.89 49.82 1071.68 49.82 1072.45 49.82 1072.45 30.26 1080.92 30.26 1080.92 21.21 1055.53 21.21 1055.53 30.26 1062.82 30.26 1062.82 49.82"/><path class="cls-1" d="M331.06,61l17.8,15.83a.66.66,0,0,0,.81,0l26.67-18.33a.66.66,0,0,0,.17-.92l-4.61-6.7a.66.66,0,0,0-.91-.17l-6.12,4.21a.66.66,0,0,1-1-.38,34.26,34.26,0,0,0-33.2-26,34.71,34.71,0,0,0-33.42,26.11.66.66,0,0,1-1,.38L290,50.82a.66.66,0,0,0-.91.18l-4.55,6.74a.66.66,0,0,0,.18.91l26.93,18.19a.66.66,0,0,0,.8-.06L330.19,61A.63.63,0,0,1,331.06,61Zm-25,.69a.66.66,0,0,1-.29-.61,25.23,25.23,0,0,1,24.93-23,24.8,24.8,0,0,1,24.7,23.07.65.65,0,0,1-.29.58l-4.65,3.2a.66.66,0,0,1-.81-.05l-18.55-16.5a.66.66,0,0,0-.87,0L311.62,64.84a.66.66,0,0,1-.81.06Z"/><path class="cls-1" d="M349.56,86.7,331.13,70.3a.74.74,0,0,0-1,0L311.67,86.72a.75.75,0,0,1-.92.06L290,72.8a.74.74,0,0,0-1,.2l-4.45,6.58a.76.76,0,0,0,.2,1l26.8,18.09a.75.75,0,0,0,.92-.06L330.13,83a.74.74,0,0,1,1,0l17.68,15.73a.74.74,0,0,0,.92,0L376.26,80.5a.77.77,0,0,0,.2-1L372,72.9a.76.76,0,0,0-1-.19l-20.43,14A.74.74,0,0,1,349.56,86.7Z"/><path class="cls-1" d="M291.52,799.31c-2-1.18-5.15-1.78-9.35-1.78,0,0-13.13-.12-14.36.18l-.26,1a1.59,1.59,0,0,1,1.8,1.69,19.54,19.54,0,0,1-.33,2.19l-6.3,23.73c-1.23,4-3.53,4.11-3.53,4.11l-.18,1c1.91-.1,3.53-.14,7.68-.14,3.34,0,4.95,0,7.14.14l.19-1c-2.79-.63-1.64-4.11-1.64-4.11l2.27-8.52A31.6,31.6,0,0,0,285,815.9a17,17,0,0,0,7-4.62,9.8,9.8,0,0,0,2.5-6.53A5.88,5.88,0,0,0,291.52,799.31Zm-8,10.09a12.21,12.21,0,0,1-3.12,5.05,8.42,8.42,0,0,1-5.48,2.33l3.78-14.23c.15-.59.32-1.27.51-2a6.38,6.38,0,0,1,.55-1.61,1.12,1.12,0,0,1,1-.45,3.17,3.17,0,0,1,2.8,1.28,6.53,6.53,0,0,1,.89,3.74A19.23,19.23,0,0,1,283.51,809.4Z"/><path class="cls-1" d="M296.26,806.65c-.59-.46,0-1.32,2.8-1.1a4.67,4.67,0,0,1,4.39,4.85c0,.19,0,.48-.05.89a13.88,13.88,0,0,1,2-3.23,6.21,6.21,0,0,1,2.19-1.7,6.84,6.84,0,0,1,2.72-.51,4.88,4.88,0,0,1,2.49.6,4.19,4.19,0,0,1,1.59,1.67,5.17,5.17,0,0,1,.55,2.37,6.56,6.56,0,0,1-.7,3,5.62,5.62,0,0,1-1.93,2.19,4.85,4.85,0,0,1-2.77.82,3.63,3.63,0,0,1-2.67-.91,3.59,3.59,0,0,1-.92-2.68,5.23,5.23,0,0,1,.71-2.64,6.62,6.62,0,0,1,1.91-2.14,6.38,6.38,0,0,1,2.61-1.13,2.67,2.67,0,0,0-.68-.17,6.1,6.1,0,0,0-2.77.62,8.41,8.41,0,0,0-2.74,3.05,34.87,34.87,0,0,0-3.15,7.39l-4.28,13.36h-9.24C293.59,816.71,298.24,808.18,296.26,806.65Z"/><path class="cls-1" d="M335.34,808c-1.45-1.4-3.57-2.1-6.34-2.1a14.82,14.82,0,0,0-9.15,2.81,17.66,17.66,0,0,0-5.63,7,20.2,20.2,0,0,0-1.86,8.25,8,8,0,0,0,2.18,6c1.45,1.4,3.57,2.1,6.34,2.1a14.81,14.81,0,0,0,9.14-2.81,17.68,17.68,0,0,0,5.64-7,20.16,20.16,0,0,0,1.87-8.22A8,8,0,0,0,335.34,808Zm-7.27,11.17a38.53,38.53,0,0,1-3.55,8.49c-1.35,2.3-2.46,3.46-3.32,3.46-.31,0-.54-.21-.68-.61a6.67,6.67,0,0,1-.23-2.08,32.82,32.82,0,0,1,1.52-9.29,41.78,41.78,0,0,1,3.56-8.69q2.06-3.6,3.4-3.6c.25,0,.45.19.6.56a7.49,7.49,0,0,1,.22,2.22A33.08,33.08,0,0,1,328.07,819.12Z"/><path class="cls-1" d="M361.43,830.08s-1.11,1.94-4.77,1.94a4.69,4.69,0,0,1-3.54-1.24,4.84,4.84,0,0,1-1.2-3.52,13.37,13.37,0,0,1,.56-3.54l4.65-16.32h-5.49l-8.57,32.2a62.85,62.85,0,0,0-8.66.64l8.82-32.84h-3.8l.3-.82h3.76a21.34,21.34,0,0,1,2.85-6.22,13.12,13.12,0,0,1,4.34-3.92,17.87,17.87,0,0,1,5.41-2,36.63,36.63,0,0,1,6.83-.55,9.14,9.14,0,0,1,4,.7,2.68,2.68,0,0,1,1.82,2.57,4.46,4.46,0,0,1-.78,2.6,5.11,5.11,0,0,1-2.13,1.75,7.06,7.06,0,0,1-3,.62,5.21,5.21,0,0,1-3.14-.8,2.76,2.76,0,0,1-1.06-2.35,4.23,4.23,0,0,1,2.38-4.16,9.18,9.18,0,0,0-4.06,1.33,7.42,7.42,0,0,0-2.39,2.57,18.63,18.63,0,0,0-1.72,4.33l-.93,3.48h5.51a49.24,49.24,0,0,0,8.66-.73l-6.16,21.44S359.36,830.08,361.43,830.08Z"/><path class="cls-1" d="M372.22,796.3l.32-1a23,23,0,0,0,5-.51,39.78,39.78,0,0,0,6-1.45l-10.09,33.95s-.32,3.13,1.75,3.13A6.89,6.89,0,0,1,370.6,832a5.22,5.22,0,0,1-3.71-1.24,4.68,4.68,0,0,1-1.33-3.62,12,12,0,0,1,.56-3.38l7.31-24.33a5.83,5.83,0,0,0,.23-1.33C373.66,796.11,372.22,796.3,372.22,796.3Z"/><path class="cls-1" d="M395.38,819a18.22,18.22,0,0,0,5.6-3.9,7.14,7.14,0,0,0,2.17-5,3.55,3.55,0,0,0-1.62-3.15,7.75,7.75,0,0,0-4.31-1.07,16,16,0,0,0-9.23,2.86,20.44,20.44,0,0,0-6.61,7.36,19.32,19.32,0,0,0-2.42,9.2,6,6,0,0,0,1.11,3.67,6.91,6.91,0,0,0,3,2.3,10.76,10.76,0,0,0,4.17.78,13.76,13.76,0,0,0,7.17-1.84,15,15,0,0,0,4.92-4.58l-.74-.37a12.16,12.16,0,0,1-3.63,2.52,8.31,8.31,0,0,1-3.08.82,4,4,0,0,1-3-1c-.67-.67-1-1.87-1-3.62a19.22,19.22,0,0,1,.16-2.45A35.79,35.79,0,0,0,395.38,819Zm-5.23-4.87a23.06,23.06,0,0,1,3-5.3c1.11-1.37,2.1-2.06,3-2.06.52,0,.77.4.77,1.21q0,5.12-4.34,9.41a20.58,20.58,0,0,1-4.39,3.25A29,29,0,0,1,390.15,814.12Z"/><path class="cls-2" d="M257.86,837.57a2.34,2.34,0,0,1,2.43-2.4,2.15,2.15,0,0,1,2,1.13l-.85.42a1.27,1.27,0,0,0-1.12-.67,1.52,1.52,0,0,0,0,3,1.25,1.25,0,0,0,1.12-.67l.85.4a2.14,2.14,0,0,1-2,1.14A2.34,2.34,0,0,1,257.86,837.57Z"/><path class="cls-2" d="M266.08,835.17a2.4,2.4,0,1,0,2.42,2.4A2.32,2.32,0,0,0,266.08,835.17Zm0,3.92a1.52,1.52,0,1,1,1.41-1.52A1.4,1.4,0,0,1,266.08,839.09Z"/><polygon class="cls-2" points="271.09 836.77 271.09 839.88 270.1 839.88 270.1 835.25 271.11 835.25 273.26 838.25 273.26 835.25 274.25 835.25 274.25 839.88 273.29 839.88 271.09 836.77"/><path class="cls-2" d="M275.84,837.57a2.35,2.35,0,0,1,2.43-2.4,2.14,2.14,0,0,1,2,1.13l-.85.42a1.27,1.27,0,0,0-1.12-.67,1.52,1.52,0,0,0,0,3,1.25,1.25,0,0,0,1.12-.67l.85.4a2.13,2.13,0,0,1-2,1.14A2.34,2.34,0,0,1,275.84,837.57Z"/><rect class="cls-2" x="281.87" y="835.25" width="0.99" height="4.63"/><polygon class="cls-2" points="284.81 835.25 288.09 835.25 288.09 836.1 285.8 836.1 285.8 837.1 288.04 837.1 288.04 837.95 285.8 837.95 285.8 839.02 288.09 839.02 288.09 839.88 284.81 839.88 284.81 835.25"/><path class="cls-2" d="M292.61,838.12a1.33,1.33,0,0,0,1-1.38,1.44,1.44,0,0,0-1.55-1.49H289.9v4.63h1v-1.66h.72l.91,1.66h1.13Zm-.69-.75h-1V836.1h1a.64.64,0,1,1,0,1.27Z"/><path class="cls-2" d="M297.65,835.17a2.15,2.15,0,0,1,1.91,1l-.82.44a1.29,1.29,0,0,0-1.09-.58,1.52,1.52,0,0,0,0,3,1.57,1.57,0,0,0,1-.36v-.56h-1.24v-.85h2.21v1.77a2.56,2.56,0,0,1-2,.88,2.4,2.4,0,1,1,0-4.8Z"/><polygon class="cls-2" points="301.44 835.25 304.72 835.25 304.72 836.1 302.43 836.1 302.43 837.1 304.67 837.1 304.67 837.95 302.43 837.95 302.43 839.02 304.72 839.02 304.72 839.88 301.44 839.88 301.44 835.25"/><polygon class="cls-2" points="312.52 837.93 310.33 837.93 310.33 839.88 309.35 839.88 309.35 835.25 310.33 835.25 310.33 837.07 312.52 837.07 312.52 835.25 313.51 835.25 313.51 839.88 312.52 839.88 312.52 837.93"/><path class="cls-2" d="M318,835.25h-1.24L315,839.88h1.08l.3-.8h2.06l.29.8h1.08Zm-1.39,3,.77-2.13.76,2.13Z"/><rect class="cls-2" x="321.25" y="835.25" width="0.98" height="4.63"/><path class="cls-2" d="M326.9,838.12a1.33,1.33,0,0,0,1-1.38,1.44,1.44,0,0,0-1.55-1.49h-2.17v4.63h1v-1.66h.72l.91,1.66h1.13Zm-.69-.75h-1V836.1h1a.64.64,0,1,1,0,1.27Z"/><path class="cls-2" d="M351.9,838.48a2,2,0,0,0,1.47.62c.54,0,.8-.26.8-.52s-.4-.46-.93-.59c-.76-.17-1.73-.38-1.73-1.41,0-.77.67-1.4,1.76-1.4a2.55,2.55,0,0,1,1.8.65l-.55.72a2,2,0,0,0-1.32-.51c-.45,0-.68.19-.68.47s.38.41.92.54c.76.17,1.73.4,1.73,1.43,0,.84-.6,1.48-1.85,1.48a2.67,2.67,0,0,1-2-.73Z"/><polygon class="cls-2" points="356.88 835.25 360.16 835.25 360.16 836.1 357.87 836.1 357.87 837.1 360.11 837.1 360.11 837.95 357.87 837.95 357.87 839.02 360.16 839.02 360.16 839.88 356.88 839.88 356.88 835.25"/><path class="cls-2" d="M364.67,838.12a1.34,1.34,0,0,0,1-1.38,1.44,1.44,0,0,0-1.56-1.49H362v4.63h1v-1.66h.72l.91,1.66h1.14Zm-.68-.75h-1V836.1h1a.64.64,0,1,1,0,1.27Z"/><polygon class="cls-2" points="366.77 835.25 367.89 835.25 369.18 838.81 370.45 835.25 371.58 835.25 369.8 839.88 368.56 839.88 366.77 835.25"/><rect class="cls-2" x="372.91" y="835.25" width="0.99" height="4.63"/><path class="cls-2" d="M375.63,837.57a2.35,2.35,0,0,1,2.43-2.4,2.13,2.13,0,0,1,2,1.13l-.84.42a1.28,1.28,0,0,0-1.13-.67,1.52,1.52,0,0,0,0,3,1.26,1.26,0,0,0,1.13-.67l.84.4a2.13,2.13,0,0,1-2,1.14A2.34,2.34,0,0,1,375.63,837.57Z"/><polygon class="cls-2" points="381.52 835.25 384.8 835.25 384.8 836.1 382.51 836.1 382.51 837.1 384.75 837.1 384.75 837.95 382.51 837.95 382.51 839.02 384.8 839.02 384.8 839.88 381.52 839.88 381.52 835.25"/><path class="cls-2" d="M386.7,838.48a2,2,0,0,0,1.47.62c.54,0,.8-.26.8-.52s-.4-.46-.93-.59c-.76-.17-1.73-.38-1.73-1.41,0-.77.66-1.4,1.75-1.4a2.56,2.56,0,0,1,1.81.65l-.55.72A2,2,0,0,0,388,836c-.44,0-.68.19-.68.47s.39.41.93.54c.76.17,1.73.4,1.73,1.43,0,.84-.6,1.48-1.85,1.48a2.67,2.67,0,0,1-2-.73Z"/><rect class="cls-2" x="258.42" y="843.25" width="131.55" height="0.67"/><rect class="cls-3" x="70.38" y="810.16" width="40.76" height="7.35"/><path class="cls-3" d="M123.41,770.83H49.33s-3.48,0-3.48,3.31v9.31l-1.24.12c-2.2.25-6.79.78-7.7,4.44-.42,1.68-3.22,21.61-2.61,35.53l-.09.07c-3.28,3-3.55,7.54-3.55,12.72,0,7.84.82,14.28,2.44,19.15,1.46,4.38,3.57,7.44,6.11,8.85,3.43,1.89,8.88,2.07,9.94,2.09h0c1.06,0,6.51-.2,9.93-2.09A11.09,11.09,0,0,0,63,860.42H98.27a3.66,3.66,0,0,0,2.88-1.39l24.28-30.51a9.7,9.7,0,0,0,1.65-5.41V774.57S127.07,770.83,123.41,770.83ZM44.15,791.44a34.4,34.4,0,0,1,5-.42,34.65,34.65,0,0,1,5,.42c.76,5.13,2.61,20.57,2.13,31.64a46.72,46.72,0,0,1-7.14.41,46.62,46.62,0,0,1-7.14-.41C41.54,812,43.38,796.56,44.15,791.44Zm13.73,61.61c-1,3.11-2.19,4.33-2.51,4.51a17.63,17.63,0,0,1-12.42,0c-.32-.18-1.48-1.4-2.51-4.51-.94-2.81-2-8-2-16.72a23.46,23.46,0,0,1,.5-6,40.05,40.05,0,0,0,9.77.91h1a40.23,40.23,0,0,0,9.77-.91,24,24,0,0,1,.49,6C59.92,845.06,58.81,850.24,57.88,853.05ZM102,846.23V828.84h13.84Zm17.78-24.74H98.27a3.68,3.68,0,0,0-3.67,3.67v.93h0v.08H73v7.35H94.6v19.55H65.91a69.1,69.1,0,0,0,1.74-16.74c0-5.18-.27-9.72-3.54-12.72l-.1-.07c.63-14-2.18-33.86-2.61-35.53-.91-3.66-5.49-4.19-7.72-4.44-.51-.06-1-.1-1.5-.14v-5.36l67.55,0Z"/><rect class="cls-3" x="68.13" y="793.81" width="43.01" height="7.35"/><rect class="cls-1" x="543.16" y="844.66" width="77.96" height="12.96"/><polygon class="cls-1" points="621.12 805.56 543.16 805.56 543.16 792.6 582.11 779.62 621.12 792.6 621.12 805.56"/><rect class="cls-1" x="543.16" y="818.71" width="33.38" height="12.96"/><rect class="cls-1" x="587.75" y="818.71" width="33.38" height="12.96"/><path class="cls-2" d="M833.48,790.29h0a14.94,14.94,0,0,1,14.94,14.94v27.92a0,0,0,0,1,0,0H833.48a0,0,0,0,1,0,0V790.29A0,0,0,0,1,833.48,790.29Z" transform="translate(1652.66 -29.23) rotate(90)"/><path class="cls-1" d="M842.09,756.49h0a0,0,0,0,1,0,0v57.2a0,0,0,0,1,0,0h0a16.63,16.63,0,0,1-16.63-16.63V773.12A16.63,16.63,0,0,1,842.09,756.49Z" transform="translate(1618.87 -48.68) rotate(90)"/><path class="cls-1" d="M862.37,843.84h0a16.62,16.62,0,0,1-16.63,16.63H821.81a16.62,16.62,0,0,1-16.63-16.63h57.19Z"/><rect class="cls-1" x="805.18" y="804.25" width="14.66" height="29.87" transform="translate(1625.02 1638.37) rotate(-180)"/><path class="cls-1" d="M1125.93,800.34c1-6.83-1.31-7.46-3.45-7.93-4.85-1.06-17,2.7-25.51,40-3.18,16-5.69,28.1,6.83,28.1,21.46,0,22.13-17.08,22.38-17.08s2.5-.31,2.5,2c0,15.35-22,19.51-22,19.51-28,5.58-37.59-19.79-37.59-30.35,0-14.82,9.6-47.67,47.94-47.65,1.16,0,15.94,1.25,13.57,12.87C1129.15,806.66,1125.93,800.34,1125.93,800.34Zm-78.85,57.27c2.73,3.63,8.64,3.8,13.19.38s6-9.13,3.31-12.77-8.63-3.8-13.18-.38S1044.36,854,1047.08,857.61Zm-6.89-29.94c1.06,4.42,6.41,6.92,12,5.59s9.17-6,8.11-10.4-6.41-6.92-12-5.6S1039.13,823.25,1040.19,827.67Zm6-34.26c-2.23,4,0,9.43,4.95,12.23s10.79,1.85,13-2.11,0-9.44-5-12.23S1048.37,789.45,1046.14,793.41Zm21.9-20.6c-3.69,2.65-4,8.55-.67,13.17s9,6.23,12.7,3.58,4-8.55.66-13.17S1071.73,770.16,1068,772.81Z"/><path class="cls-1" d="M1190.22,318.86s-4.5-.63-26.38-.63-36,5.55-42.3,8.69c0-11.1-.42-12.53-1.57-12.56-1.62-.05-4,0-4.4,1.88-3.15,11.34-10.17,12.19-10.17,12.19s-2.33.1-2.33-4.86,1.82-8.59,3.81-8.59c1.15,0,2.78,2.32,3.14,2.83a1.08,1.08,0,0,0,1.42.44.68.68,0,0,0,.47-.86,6.31,6.31,0,0,0-6.49-4.81,7.4,7.4,0,0,0-7.12,4.71s.34.08-7.51,6.47-11,6.49-12.39,6.3a32.44,32.44,0,0,1-.94-8.37c0-3.46-.94-6.7-4.4-6.7s-5.86.1-12.56,9.63c-.31-1.68.63-6.64.63-6.64s8.06-11.48,8.06-25.09c0,0,.32-8.06-7.23-8.06-9.11,0-8.27,35-8.27,35s-9.94,4.82-30.78,4.82a97.44,97.44,0,0,1-37.37-7.75s-.82-.67-.82.22c0,1.15,20.81,9,37.88,9a110.53,110.53,0,0,0,31-4.5c-.31.63-.42,6.49-.42,9s4.93,1.83,5.66,1.63a2.59,2.59,0,0,0,1.57-2.36c.54-4.15,7.22-11.72,8.68-11.72s.43,8.58.43,9.94c0,4.75.72,6,5,6,10.78,0,19.92-11.81,22.85-14-1.26,1.25-.68,10.77,5.13,10.77,9.28,0,11.6-8,12.86-9.9a71.73,71.73,0,0,0-.52,9.5c-5.89,4-10,14.58-10,19.09s1.25,6.49,4.6,6.49,7.72-.75,10.26-8c1.08-3,2.06-16,2-19.89a96.32,96.32,0,0,1,42.11-9c21.77,0,23.6.35,24.54.35s2.2.32,2.2-.3C1190.49,318.82,1190.22,318.86,1190.22,318.86Zm-128.57-21.78c.44-4.17,1.21-9.43,2.72-9.43.89,0,3.3.37,3.3,5.5s-2.3,17.54-6.54,22.2C1061.13,315.35,1061.21,301.33,1061.65,297.08Zm47.22,56.64c-2.3,0-2-4.39-2-4.87,0-7.59,7.8-16.54,7.8-16.54C1114.73,352,1111.17,353.72,1108.87,353.72Z"/><path class="cls-2" d="M1056.13,343.56h-1.32v-5h2.93v1.08h-1.61v.94h1.49v1.08h-1.49Z"/><path class="cls-2" d="M1061.33,343.56v-5h1.34v3.88h1.91v1.08Z"/><path class="cls-2" d="M1072.37,341.07a2.65,2.65,0,0,1-.62,1.9,2.3,2.3,0,0,1-1.79.65,2.33,2.33,0,0,1-1.79-.65,2.65,2.65,0,0,1-.62-1.91,2.59,2.59,0,0,1,.62-1.88,2.33,2.33,0,0,1,1.79-.66,2.37,2.37,0,0,1,1.8.65A2.71,2.71,0,0,1,1072.37,341.07Zm-3.41,0c0,1,.33,1.44,1,1.44a.85.85,0,0,0,.75-.35,2.5,2.5,0,0,0,0-2.18.86.86,0,0,0-.75-.36C1069.29,339.62,1069,340.11,1069,341.07Z"/><path class="cls-2" d="M1077,341.75v1.81h-1.34v-5h1.62c1.35,0,2,.49,2,1.47a1.48,1.48,0,0,1-.83,1.33l1.44,2.16h-1.52l-1-1.81Zm0-1h.25c.47,0,.7-.21.7-.62s-.23-.52-.69-.52H1077Z"/><path class="cls-2" d="M1086.13,343.56l-.24-.93h-1.61l-.25.93h-1.47l1.61-5H1086l1.64,5Zm-.52-2-.21-.81c-.05-.18-.11-.42-.18-.71s-.12-.49-.15-.61a5.71,5.71,0,0,1-.11.57c-.06.26-.2.78-.4,1.56Z"/><path class="cls-2" d="M1090.91,343.56v-5h1.34v3.88h1.91v1.08Z"/><path class="cls-2" d="M1101,342.05a1.44,1.44,0,0,1-.24.82,1.53,1.53,0,0,1-.67.55,2.41,2.41,0,0,1-1,.2,3.89,3.89,0,0,1-.83-.07,2.65,2.65,0,0,1-.7-.24v-1.19a4.57,4.57,0,0,0,.8.31,3.17,3.17,0,0,0,.76.11.75.75,0,0,0,.44-.11.33.33,0,0,0,.14-.26.28.28,0,0,0-.06-.18,1,1,0,0,0-.18-.16c-.08-.05-.3-.15-.66-.31a3.51,3.51,0,0,1-.73-.43,1.24,1.24,0,0,1-.35-.48,1.48,1.48,0,0,1-.12-.63,1.26,1.26,0,0,1,.5-1.07,2.23,2.23,0,0,1,1.37-.38,3.84,3.84,0,0,1,1.57.36l-.42,1a3,3,0,0,0-1.2-.32.59.59,0,0,0-.37.09.28.28,0,0,0-.12.23.33.33,0,0,0,.15.26,4.9,4.9,0,0,0,.82.42,2.33,2.33,0,0,1,.89.62A1.39,1.39,0,0,1,1101,342.05Z"/><path class="cls-1" d="M637,1051.21c-2.51,2.88-11.27,9-11.27,15.66,0,5.17,5,9.79,11.27,9.79s11.26-4.38,11.26-9.79C648.24,1061.08,639.3,1054.29,637,1051.21Zm0,16.88a2.22,2.22,0,0,1-2.32-2c0-1.36,1.78-2.77,2.3-3.36h0c.48.63,2.32,2.17,2.32,3.36A2.19,2.19,0,0,1,637,1068.09Z"/><path class="cls-2" d="M513.34,1088.39a.48.48,0,0,1,.14.34.5.5,0,0,1-.14.35.49.49,0,0,1-.35.13H509.2a.65.65,0,0,1-.48-.19.66.66,0,0,1-.19-.48v-6.34a.49.49,0,0,1,.13-.35.46.46,0,0,1,.35-.14.44.44,0,0,1,.34.14.47.47,0,0,1,.15.35v6H513A.47.47,0,0,1,513.34,1088.39Z"/><path class="cls-2" d="M521.37,1088.44a.45.45,0,0,1,.14.33.43.43,0,0,1-.14.32.47.47,0,0,1-.32.12h-4.29a.47.47,0,0,1-.34-.13.5.5,0,0,1-.14-.35v-6.48a.5.5,0,0,1,.14-.35.48.48,0,0,1,.34-.14h4.29a.44.44,0,0,1,.32.13.45.45,0,0,1,.14.33.43.43,0,0,1-.14.32.48.48,0,0,1-.32.13h-3.8V1085h3.41a.44.44,0,0,1,.46.46.44.44,0,0,1-.13.32.49.49,0,0,1-.33.13h-3.41v2.37h3.8A.44.44,0,0,1,521.37,1088.44Z"/><path class="cls-2" d="M530.79,1088.57l-2.73-6.43a.63.63,0,0,0-.62-.43h-.1a.64.64,0,0,0-.62.43l-2.73,6.43a.87.87,0,0,0,0,.28.4.4,0,0,0,.13.28.53.53,0,0,0,.41.14.42.42,0,0,0,.4-.3l.7-1.67h3.63l.69,1.67a.43.43,0,0,0,.41.3.56.56,0,0,0,.41-.14.43.43,0,0,0,.12-.28A.87.87,0,0,0,530.79,1088.57Zm-4.84-2.15,1.44-3.48,1.44,3.48Z"/><path class="cls-2" d="M539.43,1088.49a.52.52,0,0,1,.12.33.4.4,0,0,1-.13.31.49.49,0,0,1-.36.14.47.47,0,0,1-.37-.19l-2.75-3.52-1.22,1.23v2a.45.45,0,0,1-.15.34.48.48,0,0,1-.34.14.46.46,0,0,1-.34-.14.44.44,0,0,1-.14-.34v-6.59a.46.46,0,0,1,.14-.35.42.42,0,0,1,.34-.14.44.44,0,0,1,.34.14.47.47,0,0,1,.15.35v3.39l3.66-3.71a.4.4,0,0,1,.34-.17.43.43,0,0,1,.47.44.41.41,0,0,1-.12.31l-2.47,2.46Z"/><path class="cls-2" d="M553.06,1084.15a3.45,3.45,0,0,0-.7-1.2,3.63,3.63,0,0,0-2.84-1.19h-2.15a.46.46,0,0,0-.34.14.5.5,0,0,0-.14.35v6.48a.5.5,0,0,0,.14.35.45.45,0,0,0,.34.13h2.15a3.59,3.59,0,0,0,2.84-1.19,3.5,3.5,0,0,0,.7-1.19,4.19,4.19,0,0,0,.23-1.34A4.15,4.15,0,0,0,553.06,1084.15Zm-1.52,3.38a3,3,0,0,1-2.14.78h-1.54v-5.64h1.54a3,3,0,0,1,2.14.78,3,3,0,0,1,0,4.08Z"/><path class="cls-2" d="M561.59,1088.44a.45.45,0,0,1,.14.33.43.43,0,0,1-.14.32.44.44,0,0,1-.32.12H557a.47.47,0,0,1-.34-.13.5.5,0,0,1-.14-.35v-6.48a.5.5,0,0,1,.14-.35.48.48,0,0,1,.34-.14h4.29a.41.41,0,0,1,.32.13.45.45,0,0,1,.14.33.43.43,0,0,1-.14.32.44.44,0,0,1-.32.13h-3.79V1085h3.4a.44.44,0,0,1,.46.46.44.44,0,0,1-.13.32.49.49,0,0,1-.33.13h-3.4v2.37h3.79A.41.41,0,0,1,561.59,1088.44Z"/><path class="cls-2" d="M570.13,1081.89a.44.44,0,0,1,.13.33.42.42,0,0,1-.13.32.49.49,0,0,1-.33.13h-2.16v6.12a.45.45,0,0,1-.15.34.5.5,0,0,1-.35.14.48.48,0,0,1-.48-.48v-6.12h-2.18a.48.48,0,0,1-.32-.13.46.46,0,0,1-.13-.32.49.49,0,0,1,.13-.33.44.44,0,0,1,.32-.13h5.32A.44.44,0,0,1,570.13,1081.89Z"/><path class="cls-2" d="M578.14,1088.44a.45.45,0,0,1,.14.33.43.43,0,0,1-.14.32.47.47,0,0,1-.32.12h-4.29a.47.47,0,0,1-.34-.13.5.5,0,0,1-.14-.35v-6.48a.5.5,0,0,1,.14-.35.48.48,0,0,1,.34-.14h4.29a.44.44,0,0,1,.32.13.45.45,0,0,1,.14.33.43.43,0,0,1-.14.32.48.48,0,0,1-.32.13H574V1085h3.41a.44.44,0,0,1,.46.46.44.44,0,0,1-.13.32.49.49,0,0,1-.33.13H574v2.37h3.8A.44.44,0,0,1,578.14,1088.44Z"/><path class="cls-2" d="M586.75,1087.89a.49.49,0,0,1,.24,0,.37.37,0,0,1,.27.12.43.43,0,0,1,.11.28.42.42,0,0,1-.24.41,6.92,6.92,0,0,1-1.07.47,4.28,4.28,0,0,1-1.37.19,4.22,4.22,0,0,1-1.48-.26,3.47,3.47,0,0,1-1.18-.76,4.22,4.22,0,0,1,0-5.62,3.59,3.59,0,0,1,2.67-1,4.55,4.55,0,0,1,1.36.19,5.77,5.77,0,0,1,.87.36,1,1,0,0,1,.37.27.44.44,0,0,1,0,.53.39.39,0,0,1-.27.13.48.48,0,0,1-.24-.05,5.09,5.09,0,0,0-.88-.36,3.92,3.92,0,0,0-1.12-.14,3.09,3.09,0,0,0-1.2.22,2.54,2.54,0,0,0-.9.62,3.32,3.32,0,0,0,0,4.13,2.77,2.77,0,0,0,2.14.84,3.45,3.45,0,0,0,1.08-.14A5.09,5.09,0,0,0,586.75,1087.89Z"/><path class="cls-2" d="M595.66,1081.89a.44.44,0,0,1,.13.33.42.42,0,0,1-.13.32.46.46,0,0,1-.32.13h-2.17v6.12a.45.45,0,0,1-.15.34.48.48,0,0,1-.34.14.5.5,0,0,1-.35-.14.47.47,0,0,1-.13-.34v-6.12H590a.44.44,0,0,1-.32-.13.42.42,0,0,1-.13-.32.44.44,0,0,1,.13-.33.41.41,0,0,1,.32-.13h5.32A.42.42,0,0,1,595.66,1081.89Z"/><path class="cls-2" d="M599.07,1081.71a.44.44,0,0,1,.34.14.47.47,0,0,1,.15.35v6.59a.45.45,0,0,1-.15.34.48.48,0,0,1-.34.14.5.5,0,0,1-.35-.14.48.48,0,0,1-.14-.34v-6.59a.5.5,0,0,1,.14-.35A.46.46,0,0,1,599.07,1081.71Z"/><path class="cls-2" d="M609.25,1082.73a3.58,3.58,0,0,0-2.72-1.08,3.53,3.53,0,0,0-2.71,1.08,4.17,4.17,0,0,0,0,5.51,3.53,3.53,0,0,0,2.71,1.08,3.58,3.58,0,0,0,2.72-1.08,4.2,4.2,0,0,0,0-5.51Zm-.67,4.84a2.92,2.92,0,0,1-4.1,0,3.34,3.34,0,0,1,0-4.17,2.92,2.92,0,0,1,4.1,0,3.34,3.34,0,0,1,0,4.17Z"/><path class="cls-2" d="M619.51,1081.71a.46.46,0,0,1,.35.14.47.47,0,0,1,.15.35v6.37a.71.71,0,0,1-.21.5.72.72,0,0,1-.5.2h-.13a.7.7,0,0,1-.57-.29l-4.13-6v5.78a.45.45,0,0,1-.15.34.48.48,0,0,1-.34.14.46.46,0,0,1-.34-.14.44.44,0,0,1-.14-.34v-6.38a.72.72,0,0,1,.2-.5.66.66,0,0,1,.49-.2h.14a.74.74,0,0,1,.59.31L619,1088v-5.76a.5.5,0,0,1,.14-.35A.44.44,0,0,1,619.51,1081.71Z"/><path class="cls-2" d="M628.54,1081.71a.47.47,0,0,1,.35.14.5.5,0,0,1,.14.35v6.59a.48.48,0,0,1-.14.34.52.52,0,0,1-.35.14.46.46,0,0,1-.34-.14.44.44,0,0,1-.14-.34v-6.59a.46.46,0,0,1,.14-.35A.42.42,0,0,1,628.54,1081.71Z"/><path class="cls-2" d="M638.72,1081.71a.47.47,0,0,1,.35.14.5.5,0,0,1,.14.35v6.37a.67.67,0,0,1-.21.5.68.68,0,0,1-.49.2h-.13a.68.68,0,0,1-.57-.29l-4.13-6v5.78a.45.45,0,0,1-.15.34.48.48,0,0,1-.34.14.5.5,0,0,1-.35-.14.47.47,0,0,1-.13-.34v-6.38a.68.68,0,0,1,.2-.5.64.64,0,0,1,.49-.2h.14a.71.71,0,0,1,.58.31l4.12,5.94v-5.76a.46.46,0,0,1,.14-.35A.42.42,0,0,1,638.72,1081.71Z"/><path class="cls-2" d="M648.24,1087.89a.55.55,0,0,1,.24,0,.37.37,0,0,1,.27.12.43.43,0,0,1,.11.28.42.42,0,0,1-.24.41,6.92,6.92,0,0,1-1.07.47,4.28,4.28,0,0,1-1.37.19,4.22,4.22,0,0,1-1.48-.26,3.47,3.47,0,0,1-1.18-.76,4.22,4.22,0,0,1,0-5.62,3.61,3.61,0,0,1,2.67-1,4.51,4.51,0,0,1,1.36.19,6.47,6.47,0,0,1,.88.36,1,1,0,0,1,.36.27.44.44,0,0,1,0,.53.39.39,0,0,1-.27.13.54.54,0,0,1-.24-.05,5.09,5.09,0,0,0-.88-.36,3.9,3.9,0,0,0-1.11-.14,3.11,3.11,0,0,0-1.21.22,2.54,2.54,0,0,0-.9.62,3.32,3.32,0,0,0,0,4.13,2.77,2.77,0,0,0,2.14.84,3.45,3.45,0,0,0,1.08-.14A5.09,5.09,0,0,0,648.24,1087.89Z"/><path class="cls-2" d="M652.77,1088.16a.58.58,0,0,1,.18.42v.07a.58.58,0,0,1-.18.42.56.56,0,0,1-.42.18h-.11a.58.58,0,0,1-.42-.18.57.57,0,0,1-.17-.42v-.07a.57.57,0,0,1,.17-.42.61.61,0,0,1,.42-.17h.11A.59.59,0,0,1,652.77,1088.16Z"/><path class="cls-1" d="M500.1,1076.68a16.15,16.15,0,0,1-2.88-.26,16.65,16.65,0,0,1-2.73-.74,17.49,17.49,0,0,1-2.47-1.16,12.88,12.88,0,0,1-2.08-1.47l4.94-5.37a8,8,0,0,0,2.27,1.64,6.31,6.31,0,0,0,2.91.71,3.35,3.35,0,0,0,1.25-.23.89.89,0,0,0,.56-.89.94.94,0,0,0-.19-.58,2.25,2.25,0,0,0-.66-.5,10.63,10.63,0,0,0-1.31-.56l-2.1-.72a16.8,16.8,0,0,1-2.35-1,8.31,8.31,0,0,1-2-1.38,6.1,6.1,0,0,1-1.38-2,6.59,6.59,0,0,1-.51-2.75,7.35,7.35,0,0,1,.92-3.82,8,8,0,0,1,2.36-2.58,9.82,9.82,0,0,1,3.26-1.45,14.66,14.66,0,0,1,3.57-.44,13.74,13.74,0,0,1,4.86.92,13.1,13.1,0,0,1,4.34,2.65l-5,5.15a5.34,5.34,0,0,0-2-1.55,5.28,5.28,0,0,0-2.15-.53,3.43,3.43,0,0,0-1.43.25.89.89,0,0,0,0,1.65,14.83,14.83,0,0,0,1.82.69c.87.27,1.77.59,2.73,1a11.93,11.93,0,0,1,2.64,1.41,7.48,7.48,0,0,1,2,2.13,5.87,5.87,0,0,1,.78,3.14,7.92,7.92,0,0,1-.87,3.8,8.37,8.37,0,0,1-2.28,2.69,9.92,9.92,0,0,1-3.18,1.6A12.67,12.67,0,0,1,500.1,1076.68Z"/><path class="cls-1" d="M525.75,1076.68a14.12,14.12,0,0,1-4.93-.79,9.85,9.85,0,0,1-3.49-2.14,8.64,8.64,0,0,1-2.08-3.22,11.63,11.63,0,0,1-.68-4v-14.65h8.11v13.76a4.06,4.06,0,0,0,.83,2.71,3.38,3.38,0,0,0,4.74,0,4,4,0,0,0,.84-2.71v-13.76h8.07v14.65a11,11,0,0,1-.73,4,9,9,0,0,1-2.17,3.22,10.07,10.07,0,0,1-3.56,2.14A14.36,14.36,0,0,1,525.75,1076.68Z"/><path class="cls-1" d="M561,1056.08a7,7,0,0,0-2.25-2.48,9.07,9.07,0,0,0-3.17-1.33,16.77,16.77,0,0,0-3.61-.39H541.65V1076h8.08v-7.76H552a15.41,15.41,0,0,0,3.66-.44,9.27,9.27,0,0,0,3.17-1.44,7.19,7.19,0,0,0,2.21-2.55,8,8,0,0,0,.84-3.82A8.15,8.15,0,0,0,561,1056.08Zm-7.92,5.52a3.2,3.2,0,0,1-1.69.46h-1.7v-3.88h1.7a5.35,5.35,0,0,1,.89.08,2.93,2.93,0,0,1,.8.29,1.67,1.67,0,0,1,.56.56,1.87,1.87,0,0,1,.2.94A1.65,1.65,0,0,1,553.12,1061.6Z"/><polygon class="cls-1" points="565.29 1051.88 581.88 1051.88 581.88 1058.62 572.92 1058.62 572.92 1060.7 581.34 1060.7 581.34 1067 572.92 1067 572.92 1069.25 582.46 1069.25 582.46 1075.99 565.29 1075.99 565.29 1051.88"/><path class="cls-1" d="M603.46,1066.22a6.85,6.85,0,0,0,4.21-6.51,7.66,7.66,0,0,0-.85-3.8,6.93,6.93,0,0,0-2.23-2.42,9,9,0,0,0-3.14-1.26,18.19,18.19,0,0,0-3.52-.35H587.54V1076h7.87v-8.61h.24l4.61,8.61h9.32Zm-4-5.13a1.9,1.9,0,0,1-.71.61,2.56,2.56,0,0,1-.91.29,5.78,5.78,0,0,1-.89.07h-1.59v-3.88h1.92c.25,0,.52,0,.82,0a2.24,2.24,0,0,1,.81.24,1.55,1.55,0,0,1,.61.56,2,2,0,0,1,.23,1A1.67,1.67,0,0,1,599.44,1061.09Z"/><path class="cls-1" d="M668.22,1066.22a6.85,6.85,0,0,0,4.21-6.51,7.77,7.77,0,0,0-.85-3.8,6.86,6.86,0,0,0-2.24-2.42,8.88,8.88,0,0,0-3.13-1.26,18.19,18.19,0,0,0-3.52-.35H652.3V1076h7.86v-8.61h.25L665,1076h9.32Zm-4-5.13a1.9,1.9,0,0,1-.71.61,2.56,2.56,0,0,1-.91.29,5.78,5.78,0,0,1-.89.07H660.1v-3.88H662c.25,0,.52,0,.82,0a2.24,2.24,0,0,1,.81.24,1.55,1.55,0,0,1,.61.56,2,2,0,0,1,.23,1A1.67,1.67,0,0,1,664.2,1061.09Z"/><rect class="cls-1" x="613.56" y="1051.88" width="8.17" height="24.12"/><path class="cls-1" d="M789.76,1104.79h14.4v-12a43.94,43.94,0,0,0,59.23,0v12h14.4v-69.06h-88Zm14.4-44.55v-10.11h11.39a20.47,20.47,0,0,0-2.45,9.73,20.68,20.68,0,1,0,38.9-9.73h11.39v10.11a29.62,29.62,0,1,1-59.23,0Zm29.62-6.65a6.28,6.28,0,1,1-6.28,6.27A6.28,6.28,0,0,1,833.78,1053.59Z"/><path class="cls-1" d="M88.93,59.65a2,2,0,0,0-2-2H84.32a1.93,1.93,0,0,0-1.4.58,2,2,0,0,0-.58,1.39v7.11l-6.41-8.31a2,2,0,0,0-1.56-.77h-3a1.93,1.93,0,0,0-1.4.58,2,2,0,0,0-.58,1.4l0,16.1a2,2,0,0,0,2,2h2.65a2,2,0,0,0,2-2V68.71L82.41,77a2,2,0,0,0,1.57.77h3a1.93,1.93,0,0,0,1.4-.58,2,2,0,0,0,.58-1.4Z"/><rect class="cls-1" x="75.37" y="100.88" width="7.45" height="11.4" rx="1"/><rect class="cls-1" x="75.52" y="15.17" width="7.45" height="11.4" rx="1"/><rect class="cls-1" x="44.54" y="88.93" width="11.4" height="7.45" rx="1" transform="translate(-50.83 62.75) rotate(-45.05)"/><rect class="cls-1" x="105.25" y="28.43" width="11.4" height="7.45" rx="1" transform="translate(9.81 87.95) rotate(-45.05)"/><rect class="cls-1" x="105.08" y="86.91" width="7.45" height="11.4" rx="1" transform="translate(-33.6 104.18) rotate(-45.05)"/><rect class="cls-1" x="44.27" y="26.51" width="7.45" height="11.4" rx="1" transform="translate(-8.71 43.42) rotate(-45.05)"/><rect class="cls-1" x="30.32" y="59.04" width="11.4" height="7.45" rx="1"/><rect class="cls-1" x="116.03" y="59.19" width="11.4" height="7.45" rx="1"/><path class="cls-1" d="M112.17,56.68a34,34,0,0,0-4.93-11.44C103.11,39.12,95,31.84,79.8,31.84h0c-15.16,0-23.59,7.26-28,13.34a35.9,35.9,0,0,0-5.48,11.41,2.27,2.27,0,0,0,1.29,2.69L51,60.75a2.24,2.24,0,0,0,.91.18A27.87,27.87,0,0,0,79.17,94.65h0a27.88,27.88,0,0,0,27.19-34,2.18,2.18,0,0,0,.79-.13l3.54-1.25A2.27,2.27,0,0,0,112.17,56.68ZM79.76,39.29h0c10.17,0,16.3,4,20,8.39a48.58,48.58,0,0,0-20-3.86h0a51.12,51.12,0,0,0-20.6,4C63.09,43.33,69.48,39.3,79.76,39.29ZM93.63,81.2a20.31,20.31,0,0,1-14.44,6h0A20.43,20.43,0,0,1,63,54.25a44.73,44.73,0,0,1,16.74-3h0a43.29,43.29,0,0,1,15.07,2.44A20.41,20.41,0,0,1,93.63,81.2Z"/><path class="cls-1" d="M657.15,1065.66a1.93,1.93,0,0,1-.71.62,3,3,0,0,1-.91.29,7.38,7.38,0,0,1-.89.07h-1.59v-3.89H655c.25,0,.52,0,.82,0a2.72,2.72,0,0,1,.81.24,1.63,1.63,0,0,1,.61.56,2,2,0,0,1,.23,1A1.64,1.64,0,0,1,657.15,1065.66Z"/><path class="cls-1" d="M806.42,52.23a55.88,55.88,0,0,1,21.05-13,45.84,45.84,0,0,1,11.89-2.13,55.8,55.8,0,0,1,5.93.08,37.74,37.74,0,0,1,5.88.78,51.83,51.83,0,0,1,20.89,10.52A40.76,40.76,0,0,0,793.23,63a41.27,41.27,0,0,0,.25,4.47A102.12,102.12,0,0,1,806.42,52.23Z"/><path class="cls-1" d="M867.79,54.27a27.57,27.57,0,0,0-7.66-7.06,24.93,24.93,0,0,0-9.76-3.48A30.18,30.18,0,0,0,840,44a31,31,0,0,0-9.58,3.5A34.59,34.59,0,0,0,817,61.94a54.23,54.23,0,0,0-5.5,19.34,69.44,69.44,0,0,0,.5,17.45,40.74,40.74,0,0,0,62.34-28.37A35.83,35.83,0,0,0,867.79,54.27Z"/><path class="cls-1" d="M293.81,1080.16c0-9.63,6.42-17,16.28-17a12.22,12.22,0,0,1,8.38,2.82v-14.87c0-4.38-2-5.4-6.27-5.4v-.47l15.19-1.57v46.42c0,3.92,1.25,5.4,5.48,5.4v.47H318.62v-4.46a13.35,13.35,0,0,1-10.64,5.32C299.29,1096.83,293.81,1089.08,293.81,1080.16Zm24.66,10.65v-21.22a6.76,6.76,0,0,0-6.58-5.71c-5.87,0-8.61,8.45-8.61,15.81,0,7.75,2.58,14.72,8.69,14.72A8.15,8.15,0,0,0,318.47,1090.81Z"/><path class="cls-1" d="M333.69,1080.24a22.07,22.07,0,0,1,.22-3.07h-4.34v4.52h4.17C333.71,1081.21,333.69,1080.73,333.69,1080.24Z"/><path class="cls-1" d="M316.29,1077.17H305.57c-.07.83-.11,1.68-.11,2.52,0,.67,0,1.34.07,2h10.76Z"/><path class="cls-1" d="M281.07,1080.17l1.19-.73-1.19-.74c-6.57-4.1-11.45-8.78-14.49-13.91a.85.85,0,0,0-.74-.42H260.7l.86,1.32a51.56,51.56,0,0,0,12.85,13.74,50.07,50.07,0,0,0-12.79,13.74l-.87,1.32h5.09a.86.86,0,0,0,.73-.4A44.41,44.41,0,0,1,281.07,1080.17Z"/><path class="cls-1" d="M291.63,1080.16a22.52,22.52,0,0,1,.2-3h-2.08a.33.33,0,0,1-.14,0,40.53,40.53,0,0,1-12.09-12.34.86.86,0,0,0-.74-.42h-4.7a.24.24,0,0,0-.2.37l.62,1a51.58,51.58,0,0,0,12.59,13.55.22.22,0,0,1,0,.37,50.27,50.27,0,0,0-12.53,13.56l-.63,1a.23.23,0,0,0,.2.36h4.65a.86.86,0,0,0,.73-.4,43.6,43.6,0,0,1,12.08-12.35.24.24,0,0,1,.13,0h2C291.65,1081.19,291.63,1080.68,291.63,1080.16Z"/><path class="cls-1" d="M399.9,1078.7c-6.58-4.1-11.45-8.78-14.49-13.91a.86.86,0,0,0-.74-.42h-4.49a.35.35,0,0,0-.3.54l.51.78a51.51,51.51,0,0,0,12.46,13.45.36.36,0,0,1,0,.57,50.36,50.36,0,0,0-12.4,13.46l-.52.78a.35.35,0,0,0,.3.54h4.44a.86.86,0,0,0,.73-.4,44.31,44.31,0,0,1,14.5-13.92A.87.87,0,0,0,399.9,1078.7Z"/><path class="cls-1" d="M389.36,1080.17h0a.87.87,0,0,0,0-1.47c-6.58-4.1-11.46-8.78-14.49-13.91a.87.87,0,0,0-.74-.42h-4.71a.24.24,0,0,0-.19.37l.61,1a52.71,52.71,0,0,0,9.51,11.06.24.24,0,0,1-.16.42H367.86a6.9,6.9,0,0,1-6,3.37,7,7,0,0,1-6.05-3.37h-8.29c0,.74-.08,1.48-.08,2.21s0,1.44.09,2.31h31.64a.24.24,0,0,1,.16.41,53.39,53.39,0,0,0-9.42,11.06l-.62,1a.23.23,0,0,0,.2.36h4.65a.84.84,0,0,0,.72-.4A44.51,44.51,0,0,1,389.36,1080.17Z"/><path class="cls-1" d="M335.87,1080.24c0-10.65,8.38-17.07,17.61-17.07,8.3,0,13.31,5.09,13.31,9.87,0,3.13-2.11,5.32-4.93,5.32a5,5,0,0,1-.78-9.94,6.86,6.86,0,0,0-6.58-4.7c-6.57,0-9.24,7.83-9.24,15.66,0,9.94,3.92,15.81,10.57,15.81,5.09,0,8.93-3.44,11-7.36l.47.24a16.3,16.3,0,0,1-14.95,8.76C341.9,1096.83,335.87,1089.24,335.87,1080.24Z"/><path class="cls-1" d="M1044.74,1117.36v-1.49l6.42-3v-49.2l-6.14-4v-1.5l20.5-6H1067l.74,5.68h.38q6.51-5.68,13.41-5.68,5.68,0,10.49,5.59t4.8,15.19q0,11-6.67,17.47a21.35,21.35,0,0,1-15.32,6.48,27,27,0,0,1-6.9-.75v16.77l7.64,3v1.49Zm27.48-56.75a6.62,6.62,0,0,0-2.19.32,17.46,17.46,0,0,0-2.09,1v27.4c.68,1.62,2.08,2.42,4.19,2.42q2.61,0,5.27-3t2.65-13.28q0-7.55-2.56-11.18C1075.78,1061.82,1074,1060.61,1072.22,1060.61Z"/><polygon class="cls-1" points="1126.08 1060.01 1110.03 1060.01 1110.03 1037.25 1086.35 1037.25 1086.35 1023.16 1126.08 1023.16 1126.08 1060.01"/><path class="cls-1" d="M87.14,1274.91v6.14a48.43,48.43,0,1,1-16.54,0v-6.14a54.5,54.5,0,1,0,16.54,0Z"/><polygon class="cls-1" points="74.72 1291.34 78.87 1288.46 83.03 1291.34 83.03 1270.26 90.58 1270.26 90.58 1263.22 83.03 1263.22 83.03 1255.66 74.72 1255.66 74.72 1263.22 67.17 1263.22 67.17 1270.26 74.72 1270.26 74.72 1291.34"/><path class="cls-1" d="M75.06,1371.79c1.23.08,2.26.12,3.24.12,1.41,0,2.89-.07,4.39-.21l.34,0v-17H86.6a.26.26,0,0,0,.26-.25v-6.53a.26.26,0,0,0-.26-.25H83v-31.8a1.06,1.06,0,0,0-.44-.85L79,1312.51a.26.26,0,0,0-.29,0L75.16,1315a1,1,0,0,0-.44.85v31.8H71.14a.26.26,0,0,0-.26.25v6.53a.26.26,0,0,0,.26.25h3.58v17.11Z"/><path class="cls-1" d="M92.22,1369.81a46.64,46.64,0,0,0,6.34-2.5l.21-.1v-55.88a2,2,0,0,0-.89-1.69L79,1296.58a.26.26,0,0,0-.29,0l-18.87,13.06a2,2,0,0,0-.88,1.69v56.4l.21.1a49.13,49.13,0,0,0,6.35,2.31l.47.13v-56.33L78.87,1305l12.86,8.91v56Z"/><path class="cls-1" d="M106.88,1362.4a16.91,16.91,0,0,0,6.37-13.35v-12.6a13.43,13.43,0,0,0-6.47-11.45l-.56-.33v23h-2.63a.25.25,0,0,0-.25.25v6.53a.25.25,0,0,0,.25.25h2.63v8.25Z"/><path class="cls-1" d="M50.86,1362.4a16.91,16.91,0,0,1-6.37-13.35v-12.6A13.42,13.42,0,0,1,51,1325l.55-.33v23h2.63a.26.26,0,0,1,.26.25v6.53a.26.26,0,0,1-.26.25H51.52v8.25Z"/><path class="cls-1" d="M382,1338.4a12.09,12.09,0,0,1-1.48,6,17.62,17.62,0,0,1-3.1,4.11,31.14,31.14,0,0,1-6.83,5,68.2,68.2,0,0,1-13.9,5.62,98.12,98.12,0,0,1-28.31,3.64,114.85,114.85,0,0,1-28.29-3.74,65.32,65.32,0,0,1-13.95-5.46,29.83,29.83,0,0,1-6.85-5,17.71,17.71,0,0,1-3.08-4.14,12.21,12.21,0,0,1-1.45-6,11.84,11.84,0,0,1,1.78-5.86,16.63,16.63,0,0,1,3.27-3.77,28.43,28.43,0,0,1,7-4.21,51,51,0,0,1,6.28-2.26l3.49,8.39a44.84,44.84,0,0,0-5.45,2.56,17.52,17.52,0,0,0-4.2,3.17,4.91,4.91,0,0,0-1,1.43c-.14.38-.07.51,0,.55s.12.09.35.36a8.37,8.37,0,0,0,1.14,1.06,20.31,20.31,0,0,0,4.35,2.38,57.07,57.07,0,0,0,11.46,3.19,132.47,132.47,0,0,0,25.12,1.87c4.24-.07,8.46-.23,12.66-.55,2.1-.16,4.19-.32,6.26-.58s4.14-.49,6.17-.84a54.76,54.76,0,0,0,11.52-3,19,19,0,0,0,4.37-2.39,8.42,8.42,0,0,0,1.12-1.09,2.41,2.41,0,0,1,.31-.38c.05,0,.11-.16,0-.53a5.22,5.22,0,0,0-1-1.4,18.39,18.39,0,0,0-4.18-3.16,46.84,46.84,0,0,0-7.18-3.31l3.07-8.27a53.5,53.5,0,0,1,8.49,2.77,27.75,27.75,0,0,1,7,4.22,16.55,16.55,0,0,1,3.26,3.8A11.93,11.93,0,0,1,382,1338.4Zm-22.29-50.65c-4.53,0-9.26,1.34-9.26,4.94v.1c0,3.3,3.4,3.92,1.44,9.89l-4.53,14-7.21-23.17c-1.34-4.53-2.16-5.76-6.8-5.76s-5.35,1.65-6.38,4.63l-8.65,25.33L313,1302c-1.55-4.64,1.64-6.28,1.64-9.78V1292c0-3.81-7-4.22-14.52-4.22-9.26,0-13.79,1.34-13.79,5.25v.21c0,4.53,4.53,6.38,6.48,11.22l11.74,28.21c1.86,4.43,3.71,5.87,9.17,5.87,5.76,0,6.38-2.47,8.23-7.41l6.08-15.65,5.77,17.19c1.54,4.53,3.29,5.87,8.75,5.87,5.66,0,6.49-2.47,8.34-7.41l10.4-28c1.85-4.84,7.1-7.1,7.1-10.6v-.11C368.34,1289.09,363.92,1287.75,359.69,1287.75Z"/></svg>