<svg id="Layer_1" data-name="Layer 1" xmlns="http://www.w3.org/2000/svg" viewBox="0 0 1366 1391"><defs><style>.cls-1{fill:#938f8f;}.cls-2{fill:#2b2525;}.cls-3{fill:#fff;}.cls-4{fill:none;stroke:#000;stroke-miterlimit:10;}</style></defs><polygon class="cls-1" points="851.64 1396 1367 1396 1367 726.98 851.64 1396"/><polygon class="cls-2" points="515.56 -0.32 0.2 -0.32 0.2 668.7 515.56 -0.32"/><path class="cls-2" d="M840.94,219.9V218l8.29-3.85V150.69l-7.93-5.16V143.6l26.44-7.8h1.92l1,7.32h.48q8.42-7.32,17.31-7.32,7.32,0,13.51,7.21t6.19,19.58q0,14.17-8.59,22.53t-19.77,8.35a35.16,35.16,0,0,1-8.89-1v21.62l9.85,3.85v1.92Zm35.45-73.17a8.32,8.32,0,0,0-2.83.42,22.39,22.39,0,0,0-2.7,1.26v35.32c.88,2.09,2.69,3.13,5.41,3.13,2.24,0,4.51-1.3,6.79-3.9s3.42-8.32,3.42-17.13q0-9.74-3.3-14.42T876.39,146.73Z"/><path class="cls-2" d="M907.76,192.27v-1.93l8.29-3.84V150.69l-7.93-5.16V143.6l26.43-7.8h1.92L937.55,147h.61q4.68-7.09,7.56-9.13a11.18,11.18,0,0,1,6.61-2,14.58,14.58,0,0,1,4.57.84q3.6,1.2,3.6,3.48a6.16,6.16,0,0,1-.36,1.92l-3.24,9.13h-.84l-2.17-.71a22.33,22.33,0,0,0-7.33-1.33c-3.36,0-6.32,1.49-8.88,4.44V186.5l10.45,3.84v1.93Z"/><path class="cls-2" d="M987.66,193.47q-13.45,0-21.81-8.65a28.66,28.66,0,0,1,0-40.44q8.35-8.58,21.81-8.58t21.81,8.58a28.66,28.66,0,0,1,0,40.44Q1001.12,193.48,987.66,193.47Zm1.08-6.37c2.56,0,4.45-2,5.65-5.95a49,49,0,0,0,1.8-14.12A61.93,61.93,0,0,0,994,149.55q-2.24-7.52-7.15-7.51c-2.73,0-4.69,2-5.89,5.83a48.78,48.78,0,0,0-1.8,14.24,60.35,60.35,0,0,0,2.28,17.48Q983.69,187.11,988.74,187.1Z"/><path class="cls-2" d="M1016.62,192.27v-1.93l8.28-3.84V142.28H1016V137h8.89v-3.37q0-5.16,5.71-12.62a52.46,52.46,0,0,1,15.5-13.15,42.71,42.71,0,0,1,21.93-5.71,62.49,62.49,0,0,1,7.45.42,27.76,27.76,0,0,1,6.13,1.38c1.76.72,2.64,1.61,2.64,2.65a5.66,5.66,0,0,1-.72,2.4l-4.81,8.53h-1.2L1075,116c-2.49-1.52-4.75-2.79-6.79-3.79a14.67,14.67,0,0,0-6.55-1.5q-15.14,0-15.14,19.94V137h46.14v49.5l6.85,3.84v1.93h-36.77v-1.93l8.29-3.84V142.28h-24.51V186.5l9.86,3.84v1.93Z"/><path class="cls-2" d="M1099.52,192.27v-1.93l8.29-3.84V115.85l-7.93-5.17v-1.92l27.63-6.61h1.93V186.5l6.84,3.84v1.93Z"/><path class="cls-2" d="M1166,193.47q-12.86,0-20.31-7.21t-7.45-19.1q0-13.83,9.32-22.59t23-8.77q10,0,15.25,6.42t5.53,18l-.36.61h-32.08v1.8a15.11,15.11,0,0,0,4.21,11.11q4.18,4.28,13.09,4.27a45.33,45.33,0,0,0,7.27-.61,25.69,25.69,0,0,0,7.63-2.52h.36v2.52a26.5,26.5,0,0,1-9.67,11.54A27.24,27.24,0,0,1,1166,193.47Zm1.2-52.27q-6.5,0-7.93,14.3h16q-.6-8.3-2.64-11.29A6.29,6.29,0,0,0,1167.16,141.2Z"/><path class="cls-1" d="M913.16,215.66h10.55a10,10,0,0,1,6.73,2.05,6.11,6.11,0,0,1,2.26,4.88,6,6,0,0,1-1.23,3.79,6.6,6.6,0,0,1-3.44,2.21,6.74,6.74,0,0,1,3.66,2,5.59,5.59,0,0,1,1.45,4c0,3.21-1.6,5.42-4.79,6.6a13.92,13.92,0,0,1-4.6.64H913.16Zm4.75,11h5.6a4.86,4.86,0,0,0,3.23-.93,3.14,3.14,0,0,0,1.08-2.52,3.18,3.18,0,0,0-1.07-2.53,4.69,4.69,0,0,0-3.2-.95h-5.64Zm5.72,11a4.84,4.84,0,0,0,3.32-.93,3.44,3.44,0,0,0,0-4.94,4.88,4.88,0,0,0-3.29-.95h-5.72v6.82Z"/><path class="cls-1" d="M945.26,215.66h16.85v4.11H950v6.89h11.32v4.11H950v6.89h12.09v4.14H945.26Z"/><path class="cls-1" d="M981,215.66h6l8.58,26.14h-5l-1.82-5.64H979l-1.86,5.64h-5Zm-.81,16.92h7.33l-3.62-11.24Z"/><path class="cls-1" d="M1010.56,215.66v16.27q0,3.23,1.64,4.64a7,7,0,0,0,8.42,0q1.62-1.41,1.62-4.64V215.66H1027v16.27q0,5-2.78,7.72t-7.82,2.72c-3.35,0-6-.91-7.81-2.72s-2.78-4.38-2.78-7.72V215.66Z"/><path class="cls-1" d="M1036.55,215.66h21v4.11h-8.1v22h-4.76v-22h-8.09Z"/><path class="cls-1" d="M1070.06,215.66l5.76,10.43,6-10.43h5.61L1078.16,231V241.8h-4.75V231l-9-15.35Z"/><path class="cls-1" d="M1119.25,215.66l11.51,18.53V215.66h4.76V241.8h-4.84l-11.88-19.17V241.8H1114V215.66Z"/><path class="cls-1" d="M1159.08,215.14a13,13,0,0,1,4.8.86,10.12,10.12,0,0,1,3.74,2.56q3.32,3.56,3.31,10.15T1167.62,239a11.14,11.14,0,0,1-8.58,3.38,11,11,0,0,1-8.54-3.47q-3.3-3.59-3.3-10.19t3.3-10.23Q1153.61,215.14,1159.08,215.14Zm6.93,13.63q0-4.49-1.87-6.93a6.49,6.49,0,0,0-10.13,0,11.12,11.12,0,0,0-1.9,6.93c0,3,.64,5.29,1.9,6.89a6.54,6.54,0,0,0,10.13,0C1165.39,234.06,1166,231.77,1166,228.77Z"/><path class="cls-1" d="M1192.65,215.14a13,13,0,0,1,4.79.86,10.12,10.12,0,0,1,3.74,2.56q3.32,3.56,3.31,10.15T1201.18,239a11.14,11.14,0,0,1-8.58,3.38,11,11,0,0,1-8.54-3.47q-3.3-3.59-3.3-10.19t3.3-10.23C1186.14,216.25,1189,215.14,1192.65,215.14Zm6.92,13.63q0-4.49-1.87-6.93a6.49,6.49,0,0,0-10.13,0,11.12,11.12,0,0,0-1.9,6.93c0,3,.64,5.29,1.9,6.89a6.54,6.54,0,0,0,10.13,0C1199,234.06,1199.57,231.77,1199.57,228.77Z"/><path class="cls-1" d="M1221,215.66v10.76l10.32-10.76h6.52l-11.52,11.76,12.29,14.38h-6.17l-9.3-11.07L1221,232.9v8.9h-4.79V215.66Z"/><polygon class="cls-2" points="1239.57 161.23 1214.09 161.23 1214.09 114.55 1165.71 114.55 1165.71 92.73 1239.57 92.73 1239.57 161.23"/><path class="cls-2" d="M1188.21,350.13h1.32l3.47,9.09h45.22V348.47l-14.55-7.27v-1.32h19.1v54.39h-19.1V393l14.55-7.28V374.92H1193l-3.47,9.1h-1.32Z"/><path class="cls-2" d="M1188.21,397.08h1.32l2.65,5.7h25.46l3.55-5.45h1.33l4.54,19v1.32h-34.88l-2.65,4.71h-1.32Zm45.8,13a6.5,6.5,0,1,1,1.9,4.8A6.48,6.48,0,0,1,1234,410.05Z"/><path class="cls-2" d="M1188.21,424.36h1.32l2.65,5.7h25.46l2.73-5.46h1.32l5.37,18.19v1.32l-6.12.75v.41a32.7,32.7,0,0,1,4.43,5.37,12.22,12.22,0,0,1,1.69,6.7,13.67,13.67,0,0,1-1.69,7,8.69,8.69,0,0,1-5.09,4v.33a43,43,0,0,1,4.88,5.71,12,12,0,0,1,1.9,7,12.58,12.58,0,0,1-2.64,8.31c-1.77,2.12-4.38,3.18-7.86,3.18h-24.38l-2.65,5.71h-1.32V474.86h1.32l2.65,3.14h21.32a5.22,5.22,0,0,0,3.68-1.19,4.25,4.25,0,0,0,1.29-3.27,7.18,7.18,0,0,0-1.91-4.71h-24.38l-2.65,3.14h-1.32V450.89h1.32l2.65,3.06h21.32a5.18,5.18,0,0,0,3.68-1.2,4.24,4.24,0,0,0,1.29-3.26,6.14,6.14,0,0,0-.5-2.36,12.6,12.6,0,0,0-1.16-2.19h-24.63l-2.65,3.06h-1.32Z"/><path class="cls-2" d="M1187.38,519.67q0-8.85,5-14t13.15-5.13a21.15,21.15,0,0,1,11.2,2.94,20.87,20.87,0,0,1,7.6,8,23.1,23.1,0,0,1,2.77,11.33q0,6.86-4.42,10.5t-12.36,3.8l-.41-.25V514.79h-1.24a10.43,10.43,0,0,0-7.65,2.89c-2,1.93-2.93,4.93-2.93,9a31.29,31.29,0,0,0,.41,5,17.9,17.9,0,0,0,1.74,5.25v.25h-1.74a18.22,18.22,0,0,1-7.93-6.65A18.75,18.75,0,0,1,1187.38,519.67Zm36,.82q0-2.24-2.56-3.63a18.69,18.69,0,0,0-7.28-1.82v11q5.71-.4,7.78-1.82A4.3,4.3,0,0,0,1223.34,520.49Z"/><path class="cls-2" d="M1188.21,540h1.32l2.65,5.7h48.6l3.56-5.45h1.32l4.55,19v1.32h-58l-2.65,4.71h-1.32Z"/><path class="cls-2" d="M1187.38,587.2q0-8.85,5-14t13.15-5.12a21.15,21.15,0,0,1,11.2,2.93,20.9,20.9,0,0,1,7.6,8,23.06,23.06,0,0,1,2.77,11.32c0,4.58-1.47,8.07-4.42,10.5s-7.07,3.69-12.36,3.8l-.41-.25V582.32h-1.24a10.44,10.44,0,0,0-7.65,2.9c-2,1.93-2.93,4.93-2.93,9a31.47,31.47,0,0,0,.41,5,18.09,18.09,0,0,0,1.74,5.25v.24h-1.74a18.23,18.23,0,0,1-7.94-6.65A18.8,18.8,0,0,1,1187.38,587.2Zm36,.83q0-2.24-2.56-3.64a18.87,18.87,0,0,0-7.28-1.82v11q5.71-.42,7.78-1.82A4.32,4.32,0,0,0,1223.34,588Z"/><path class="cls-2" d="M1187.38,623a27.65,27.65,0,0,1,.87-7.35,35.89,35.89,0,0,1,2.27-6h9.76v1.32l-4.22,3.06a10,10,0,0,0-4.54,8.6q0,6,3.88,6a3.52,3.52,0,0,0,2.23-.7,8.25,8.25,0,0,0,1.95-2.73,64.17,64.17,0,0,0,2.52-6c1.26-3.31,2.81-5.68,4.63-7.11a9.86,9.86,0,0,1,6.28-2.15,13.5,13.5,0,0,1,7.15,1.94,13.78,13.78,0,0,1,5,5.5,17.76,17.76,0,0,1,1.86,8.35,30.85,30.85,0,0,1-.49,5.42,19.22,19.22,0,0,1-1.82,5.33h-10.34v-1.33l3.56-2.48a18.39,18.39,0,0,0,3.8-3.39,6.57,6.57,0,0,0,1.24-4.21,5.67,5.67,0,0,0-1.11-3.68,4.36,4.36,0,0,0-5.34-.78,6.47,6.47,0,0,0-1.9,2.43,49.53,49.53,0,0,0-2.4,5.67,34.72,34.72,0,0,1-2,4.58,10.5,10.5,0,0,1-3.43,3.81,10.7,10.7,0,0,1-6.12,1.53,11.67,11.67,0,0,1-7-2.15,14.34,14.34,0,0,1-4.63-5.71A18.09,18.09,0,0,1,1187.38,623Z"/><path class="cls-2" d="M1187.38,657.3a27.78,27.78,0,0,1,.87-7.36,36.11,36.11,0,0,1,2.27-6h9.76v1.32l-4.22,3.06a10,10,0,0,0-4.54,8.6q0,6,3.88,6a3.52,3.52,0,0,0,2.23-.7,8.25,8.25,0,0,0,1.95-2.73,64.17,64.17,0,0,0,2.52-6c1.26-3.31,2.81-5.68,4.63-7.11a9.86,9.86,0,0,1,6.28-2.15,13.5,13.5,0,0,1,7.15,1.94,13.78,13.78,0,0,1,5,5.5,17.76,17.76,0,0,1,1.86,8.35,30.74,30.74,0,0,1-.49,5.41,19.11,19.11,0,0,1-1.82,5.33h-10.34v-1.32L1218,667a18.39,18.39,0,0,0,3.8-3.39,6.59,6.59,0,0,0,1.24-4.21,5.65,5.65,0,0,0-1.11-3.68,3.9,3.9,0,0,0-3.19-1.37,4,4,0,0,0-2.15.58,6.61,6.61,0,0,0-1.9,2.44,50,50,0,0,0-2.4,5.66,34.84,34.84,0,0,1-2,4.59,10.47,10.47,0,0,1-3.43,3.8,10.7,10.7,0,0,1-6.12,1.53,11.61,11.61,0,0,1-7-2.15,14.24,14.24,0,0,1-4.63-5.7A18.09,18.09,0,0,1,1187.38,657.3Z"/><path class="cls-2" d="M1188.21,701.36h52.57l3.56-5.46h1.32l4.55,19v1.33h-27.94v.49a20.28,20.28,0,0,1,3.68,5.67,15.69,15.69,0,0,1,1.11,5.91,10.94,10.94,0,0,1-2.23,6.49,16.37,16.37,0,0,1-6.37,5.08,22.53,22.53,0,0,1-9.83,2,22.29,22.29,0,0,1-11.29-2.73,19.46,19.46,0,0,1-7.35-7.19,18.65,18.65,0,0,1-2.61-9.58,25.36,25.36,0,0,1,.75-6.37,13.08,13.08,0,0,1,2.89-5.37l-2.81-7.94ZM1219.54,720a5.71,5.71,0,0,0-.29-1.94,13.31,13.31,0,0,0-.87-1.86h-24.3a3.45,3.45,0,0,0-1.53,1.44,4.38,4.38,0,0,0-.62,2.28,5.54,5.54,0,0,0,1.12,3.18,8.53,8.53,0,0,0,4.21,2.73,28.63,28.63,0,0,0,9.14,1.11q6.69,0,9.91-2.27C1218.46,723.19,1219.54,721.64,1219.54,720Z"/><path class="cls-2" d="M1187.38,765.83q0-8.83,5-14t13.15-5.12a21.24,21.24,0,0,1,11.2,2.93,21,21,0,0,1,7.6,8,23.09,23.09,0,0,1,2.77,11.32q0,6.87-4.42,10.5c-3,2.43-7.07,3.69-12.36,3.81l-.41-.25V761h-1.24a10.43,10.43,0,0,0-7.65,2.89c-2,1.93-2.93,4.93-2.93,9a31.38,31.38,0,0,0,.41,5,17.9,17.9,0,0,0,1.74,5.25v.25h-1.74a18.32,18.32,0,0,1-7.94-6.66A18.8,18.8,0,0,1,1187.38,765.83Zm36,.83q0-2.24-2.56-3.64a19.05,19.05,0,0,0-7.28-1.82v11c3.81-.28,6.4-.88,7.78-1.82A4.32,4.32,0,0,0,1223.34,766.66Z"/><path class="cls-2" d="M1187.47,796.75a11.44,11.44,0,0,1,1.15-5.09,9.07,9.07,0,0,1,3.43-3.76,9.88,9.88,0,0,1,5.5-1.32,12.31,12.31,0,0,1,5.25,1.12,8.34,8.34,0,0,1,3.47,3.92,48.17,48.17,0,0,1,2.94,8.43l2.06,7.78h4.47a7.48,7.48,0,0,0,5.2-1.66,6,6,0,0,0,1.82-4.71q0-4.55-3.55-4.55h-4.8l-.33-.24v-6.29c0-1.48.91-2.23,2.73-2.23a4.9,4.9,0,0,1,3.47,1.65,22.82,22.82,0,0,1,3.23,4.22,25.44,25.44,0,0,1,2.81,6,21.64,21.64,0,0,1,.74,5.79,27,27,0,0,1-1.28,8.6,13.57,13.57,0,0,1-3.84,6,9.46,9.46,0,0,1-6.45,2.23h-20.83a4.89,4.89,0,0,0-.91,1.53,5.72,5.72,0,0,0-.33,2v1.82l-.33.33h-1.74a9.83,9.83,0,0,1-2.65-3.23,12.49,12.49,0,0,1-1.32-6.2,13.31,13.31,0,0,1,1.53-6.81,9.9,9.9,0,0,1,4.59-4v-.33a20.21,20.21,0,0,1-4.3-4.76A11.45,11.45,0,0,1,1187.47,796.75Zm12.89,3.64a5.15,5.15,0,0,0-3.88,1.36,5,5,0,0,0-1.33,3.68,7.5,7.5,0,0,0,.42,2.4h11.9a12.88,12.88,0,0,0-2.48-5.71A6,6,0,0,0,1200.36,800.39Z"/><path class="cls-2" d="M1187.38,844.69a12.39,12.39,0,0,1,2.65-8.22q2.64-3.18,7.85-3.18h24.39l2.64-5.71h1.32v20.59h-25.29a5.07,5.07,0,0,0-3.68,1.24,4.18,4.18,0,0,0-1.28,3.14,6,6,0,0,0,.5,2.27,12.58,12.58,0,0,0,1.15,2.19h24.64l2.64-4.46h1.32v19.34h-34l-2.65,4.71h-1.32V857h5.29v-.33a32.6,32.6,0,0,1-4.42-5.37A12.06,12.06,0,0,1,1187.38,844.69Z"/><path class="cls-2" d="M1187.38,895.12a18.74,18.74,0,0,1,2.15-9.59,6.69,6.69,0,0,1,6-3.64h27v-5.37h1.57l2.06,8,9.1,9.83v2.4h-9.1v11.74h-3.63V896.77h-24.47a3.33,3.33,0,0,0-3.14,1.78,8.41,8.41,0,0,0-1,4.17,18.25,18.25,0,0,0,.16,2.61c.11.74.25,1.53.42,2.35l-.17.25h-1.82a13.47,13.47,0,0,1-3.64-5.33A19,19,0,0,1,1187.38,895.12Z"/><path class="cls-2" d="M1168.29,915.29c0-1.27.18-2.06.54-2.36a2.91,2.91,0,0,1,1.86-.45h6.69l.5.49v3.64a19.66,19.66,0,0,0,.29,3.64,5.47,5.47,0,0,0,1.4,2.77,10,10,0,0,0,3.68,2.19l4.21,1.65,35.39-17.28,2.06-4.87h1.32v24.88h-1.32l-2.31-4.14h-.17l-15.87,7.94v.74l15.71,5.54h.16l2.48-4h1.32v15.46h-1.32l-2.73-5.62-40.5-16.61c-1.27-.55-2.33-1-3.18-1.33a20,20,0,0,1-2.48-1.15,32.64,32.64,0,0,1-2.94-1.9,10.85,10.85,0,0,1-3.59-4.39A11.89,11.89,0,0,1,1168.29,915.29Z"/><path class="cls-2" d="M1187.8,953.64a6.9,6.9,0,1,1,2,4.84A6.59,6.59,0,0,1,1187.8,953.64Z"/><path class="cls-2" d="M1106.52,339.88h1.32l3.47,7.35,45,1.74,3.39-7.36h1.33v23.81l-35,15.13,35,14.71v23.23h-1.33l-2.31-7.36-46.13,1.41-3.47,6.61h-1.32V390.22h1.32l3.39,6.94,38.11-.74-43.24-18.27v-5.29l43.49-18.68-38.36-1.08-3.39,7.52h-1.32Z"/><path class="cls-2" d="M1105.69,441.88q0-8.85,5-14t13.15-5.12a20.66,20.66,0,0,1,18.8,10.91,23.06,23.06,0,0,1,2.77,11.32c0,4.58-1.47,8.07-4.42,10.5s-7.07,3.69-12.36,3.8l-.41-.25V437h-1.24a10.44,10.44,0,0,0-7.65,2.9c-2,1.93-2.93,4.93-2.93,9a31.47,31.47,0,0,0,.41,5,17.8,17.8,0,0,0,1.74,5.25v.24h-1.74a18.23,18.23,0,0,1-7.94-6.65A18.8,18.8,0,0,1,1105.69,441.88Zm36,.83q0-2.23-2.56-3.64a18.92,18.92,0,0,0-7.28-1.82v11c3.81-.28,6.39-.89,7.77-1.82A4.31,4.31,0,0,0,1141.65,442.71Z"/><path class="cls-2" d="M1105.77,472.8a11.42,11.42,0,0,1,1.16-5.09,9.07,9.07,0,0,1,3.43-3.76,9.71,9.71,0,0,1,5.5-1.32,12.18,12.18,0,0,1,5.25,1.11,8.37,8.37,0,0,1,3.47,3.93,47.47,47.47,0,0,1,2.93,8.43l2.07,7.77H1134a7.49,7.49,0,0,0,5.21-1.65,6,6,0,0,0,1.82-4.71q0-4.54-3.55-4.55h-4.8l-.33-.25v-6.28c0-1.49.91-2.23,2.73-2.23a4.9,4.9,0,0,1,3.47,1.65,22.92,22.92,0,0,1,3.23,4.22,25.44,25.44,0,0,1,2.81,6,21.54,21.54,0,0,1,.74,5.79,27,27,0,0,1-1.28,8.6,13.66,13.66,0,0,1-3.84,6,9.46,9.46,0,0,1-6.45,2.23H1113a4.89,4.89,0,0,0-.91,1.53,5.68,5.68,0,0,0-.33,2v1.81l-.34.34h-1.73a9.81,9.81,0,0,1-2.65-3.23,12.49,12.49,0,0,1-1.32-6.2,13.38,13.38,0,0,1,1.53-6.82,10,10,0,0,1,4.59-4v-.33a20,20,0,0,1-4.3-4.75A11.37,11.37,0,0,1,1105.77,472.8Zm12.9,3.63a5.15,5.15,0,0,0-3.88,1.37,5,5,0,0,0-1.33,3.67,7.4,7.4,0,0,0,.42,2.4h11.9a12.89,12.89,0,0,0-2.48-5.7A5.92,5.92,0,0,0,1118.67,476.43Z"/><path class="cls-2" d="M1106.52,504.79h1.32l2.65,5.7H1136l2.73-5.45H1140l5.37,18.18v1.32l-6.12.75v.41a34.12,34.12,0,0,1,4.43,5.5,12.47,12.47,0,0,1,1.69,6.73,12.9,12.9,0,0,1-2.64,8.39q-2.65,3.27-7.86,3.27h-24.38l-2.65,5.7h-1.32V531.65h1.32l2.65,3.06h21.32a5,5,0,0,0,3.68-1.28,4.51,4.51,0,0,0,1.28-3.35,6.79,6.79,0,0,0-.49-2.44,11.77,11.77,0,0,0-1.16-2.27h-24.63l-2.65,3.06h-1.32Z"/><path class="cls-2" d="M1106.52,556.45h1.32l2.65,5.71H1136l3.55-5.46h1.32l4.55,19V577h-34.88l-2.65,4.72h-1.32Zm45.79,13a6.51,6.51,0,1,1,1.91,4.79A6.47,6.47,0,0,1,1152.31,569.43Z"/><path class="cls-2" d="M1106.52,583.73h1.32l2.65,5.7H1136l2.73-5.45H1140l5.37,18.18v1.33l-6.12.74v.41a34.56,34.56,0,0,1,4.43,5.5,12.5,12.5,0,0,1,1.69,6.74,12.94,12.94,0,0,1-2.64,8.39q-2.65,3.26-7.86,3.26h-24.38l-2.65,5.71h-1.32V610.59h1.32l2.65,3.06h21.32a5,5,0,0,0,3.68-1.28,4.5,4.5,0,0,0,1.28-3.35,6.7,6.7,0,0,0-.49-2.43,11.58,11.58,0,0,0-1.16-2.28h-24.63l-2.65,3.06h-1.32Z"/><path class="cls-2" d="M1119.66,654.9a21.14,21.14,0,0,1,1.24-7.27,3.43,3.43,0,0,0-2.64-1.16,3.17,3.17,0,0,0-3,1.57,10.48,10.48,0,0,0-.91,5v8.6q0,6.78-3,10t-8.76,3.23a12.28,12.28,0,0,1-7.6-2.81,20.6,20.6,0,0,1-6-8,29.73,29.73,0,0,1-2.36-12.32q0-8.1,2.31-11.61c1.55-2.35,3.5-3.52,5.87-3.52a9.45,9.45,0,0,1,5.05,1.49l3,4.8h.5q2.64-6.21,9.09-6.2a12.56,12.56,0,0,1,3.68.49,7.45,7.45,0,0,1,3,1.9l3,4.88h.5a13,13,0,0,1,4.26-4.13,10.84,10.84,0,0,1,12,.7,15,15,0,0,1,4.59,6,20.19,20.19,0,0,1,1.7,8.39,23.9,23.9,0,0,1-.54,5.17,17.4,17.4,0,0,1-1.28,3.93l1,13h-5.37l.74-8.68-.25-.33a11.34,11.34,0,0,1-3.18,2.48,8.25,8.25,0,0,1-3.93,1,10.56,10.56,0,0,1-6.53-2.19,15,15,0,0,1-4.58-6A20.19,20.19,0,0,1,1119.66,654.9Zm-22.73-10.58a6.84,6.84,0,0,0-4.92,1.86q-1.93,1.86-1.94,6.32c0,3.36.67,6,2,7.9a5.88,5.88,0,0,0,4.84,2.85c1.87,0,3.18-.48,3.93-1.45s1.11-2.66,1.11-5.08v-6a23.49,23.49,0,0,1,.25-3.56,6.69,6.69,0,0,0-2.19-2.15A6.13,6.13,0,0,0,1096.93,644.32Zm26.29,11a3.42,3.42,0,0,0,2.31,3.27,17,17,0,0,0,6.7,1c3.25,0,5.64-.42,7.19-1.28a3.85,3.85,0,0,0,2.31-3.43,3.6,3.6,0,0,0-2.4-3.47,16.43,16.43,0,0,0-6.61-1.07c-3.25,0-5.65.42-7.19,1.28A4,4,0,0,0,1123.22,655.31Z"/><path class="cls-2" d="M1106.52,679h1.32l2.65,5.7h30.42v-6.12h3.63v6.12h2.07a12.31,12.31,0,0,1,5.75,1.61,28.55,28.55,0,0,1,5.86,4.26,39.34,39.34,0,0,1,5.17,5.83,34,34,0,0,1,3.72,6.41,14.89,14.89,0,0,1,1.4,6,9.27,9.27,0,0,1-.24,2.1,6,6,0,0,1-.66,1.7,4.34,4.34,0,0,1-1,1.36,1.66,1.66,0,0,1-1,.29,3.87,3.87,0,0,1-1.65-.49l-4.8-2.57v-.82l.58-1.08a26.34,26.34,0,0,0,1.28-2.56,6,6,0,0,0,.46-2.4,3.82,3.82,0,0,0-1.16-3.06,7.48,7.48,0,0,0-3.92-1.32,69.52,69.52,0,0,0-7.73-.33h-4.14v9.09h-3.63v-9.09h-30.42l-2.65,6.78h-1.32Z"/><path class="cls-2" d="M1105.69,725.33a12.44,12.44,0,0,1,2.65-8.23q2.64-3.18,7.85-3.18h24.38l2.65-5.7h1.32V728.8h-25.29a5.1,5.1,0,0,0-3.68,1.24,4.21,4.21,0,0,0-1.28,3.14,5.81,5.81,0,0,0,.5,2.28,13,13,0,0,0,1.15,2.19h24.63l2.65-4.47h1.32v19.35h-34l-2.65,4.71h-1.32V737.65h5.29v-.33a31.75,31.75,0,0,1-4.42-5.38A12,12,0,0,1,1105.69,725.33Z"/><path class="cls-2" d="M1106.52,758.39h1.32l2.65,5.71h48.6l3.56-5.46H1164l4.54,19V779h-58l-2.65,4.71h-1.32Z"/><path class="cls-2" d="M1105.69,824.11a19.51,19.51,0,0,1,2.23-9.46,16.36,16.36,0,0,1,6.33-6.45,18.8,18.8,0,0,1,9.54-2.36,22.93,22.93,0,0,1,11.21,2.65,19.12,19.12,0,0,1,7.6,7.56,23.44,23.44,0,0,1,2.77,11.7,22.62,22.62,0,0,1-1.07,7.27,10.88,10.88,0,0,1-3,4.8,4.35,4.35,0,0,1-2.48,1.24,2.62,2.62,0,0,1-1-.17,2.9,2.9,0,0,1-1-.83l-3.72-4.38v-.58l4.13-2.89a33.84,33.84,0,0,0,3.3-2.68,4.09,4.09,0,0,0,1.16-3.1q0-3.39-3.92-4.88a28.79,28.79,0,0,0-10-1.49,12.59,12.59,0,0,0-8.22,2.6q-3.18,2.61-3.18,8.06a32.27,32.27,0,0,0,.41,5,16.94,16.94,0,0,0,1.73,5.2v.25h-1.73a18.57,18.57,0,0,1-7.94-6.53A17.92,17.92,0,0,1,1105.69,824.11Z"/><path class="cls-2" d="M1105.69,864.37a20.93,20.93,0,0,1,2.77-10.83,20,20,0,0,1,7.28-7.32,19.25,19.25,0,0,1,9.79-2.6,19.54,19.54,0,0,1,17.11,9.92,22.85,22.85,0,0,1,0,21.66,19.6,19.6,0,0,1-17.11,9.92,19.16,19.16,0,0,1-9.79-2.61,19.86,19.86,0,0,1-7.28-7.31A20.93,20.93,0,0,1,1105.69,864.37Zm4.38.74a3.37,3.37,0,0,0,1.9,2.9,14.47,14.47,0,0,0,5,1.69,40.26,40.26,0,0,0,6.9.54,51,51,0,0,0,8.51-.66,18.33,18.33,0,0,0,6.28-2.11,4.25,4.25,0,0,0,2.4-3.68,3.48,3.48,0,0,0-1.86-3.06,13.77,13.77,0,0,0-5-1.69,40.9,40.9,0,0,0-7-.54,48.1,48.1,0,0,0-8.48.7,18.82,18.82,0,0,0-6.32,2.15A4.29,4.29,0,0,0,1110.07,865.11Z"/><path class="cls-2" d="M1106.52,887.51h1.32l2.65,5.71H1136l2.72-5.46H1140l5.37,18.19v1.32l-6.12.74v.42a31.89,31.89,0,0,1,4.43,5.37,12.26,12.26,0,0,1,1.69,6.7,13.77,13.77,0,0,1-1.69,7,8.73,8.73,0,0,1-5.09,4v.33a43.05,43.05,0,0,1,4.88,5.7,12,12,0,0,1,1.9,7,12.58,12.58,0,0,1-2.64,8.31q-2.65,3.18-7.86,3.18h-24.38l-2.65,5.7h-1.32V938h1.32l2.65,3.14h21.32a5.18,5.18,0,0,0,3.68-1.2,4.27,4.27,0,0,0,1.28-3.26,7.17,7.17,0,0,0-1.9-4.72h-24.38l-2.65,3.15h-1.32V914.05h1.32l2.65,3.05h21.32a5.17,5.17,0,0,0,3.68-1.19,4.28,4.28,0,0,0,1.28-3.27,6.08,6.08,0,0,0-.49-2.35,12.6,12.6,0,0,0-1.16-2.19h-24.63l-2.65,3h-1.32Z"/><path class="cls-2" d="M1106.52,962.9h1.32l2.65,5.7H1136l2.72-5.45H1140l5.37,18.18v1.33l-6.12.74v.41a32.33,32.33,0,0,1,4.43,5.38,12.25,12.25,0,0,1,1.69,6.69,13.78,13.78,0,0,1-1.69,7,8.73,8.73,0,0,1-5.09,4v.33a43.05,43.05,0,0,1,4.88,5.7,12,12,0,0,1,1.9,7,12.62,12.62,0,0,1-2.64,8.31q-2.65,3.18-7.86,3.18h-24.38l-2.65,5.7h-1.32v-23.72h1.32l2.65,3.14h21.32a5.18,5.18,0,0,0,3.68-1.2,4.28,4.28,0,0,0,1.28-3.27,7.16,7.16,0,0,0-1.9-4.71h-24.38l-2.65,3.14h-1.32V989.43h1.32l2.65,3.06h21.32a5.18,5.18,0,0,0,3.68-1.2,4.25,4.25,0,0,0,1.28-3.26,6.16,6.16,0,0,0-.49-2.36,12.6,12.6,0,0,0-1.16-2.19h-24.63l-2.65,3.06h-1.32Z"/><path class="cls-2" d="M1105.69,1054.24a12.39,12.39,0,0,1,2.65-8.22q2.64-3.19,7.85-3.19h24.38l2.65-5.7h1.32v20.58h-25.29a5.1,5.1,0,0,0-3.68,1.24,4.21,4.21,0,0,0-1.28,3.14,5.81,5.81,0,0,0,.5,2.28,12.58,12.58,0,0,0,1.15,2.19h24.63l2.65-4.47h1.32v19.35h-34l-2.65,4.71h-1.32v-19.59h5.29v-.33a31.75,31.75,0,0,1-4.42-5.38A12,12,0,0,1,1105.69,1054.24Z"/><path class="cls-2" d="M1106.52,1087.31h1.32l2.65,5.7H1136l2.72-5.46H1140l5.37,18.19v1.32l-6.12.75v.41a34.12,34.12,0,0,1,4.43,5.5,12.47,12.47,0,0,1,1.69,6.73,12.9,12.9,0,0,1-2.64,8.39q-2.65,3.27-7.86,3.27h-24.38l-2.65,5.7h-1.32v-23.64h1.32l2.65,3.06h21.32a5,5,0,0,0,3.68-1.28,4.55,4.55,0,0,0,1.28-3.35,6.79,6.79,0,0,0-.49-2.44,11.77,11.77,0,0,0-1.16-2.27h-24.63l-2.65,3.06h-1.32Z"/><path class="cls-2" d="M1106.52,1139h1.32l2.65,5.7H1136l3.55-5.45h1.32l4.55,19v1.32h-34.88l-2.65,4.71h-1.32Zm45.79,13a6.5,6.5,0,1,1,1.9,4.79A6.54,6.54,0,0,1,1152.31,1152Z"/><path class="cls-2" d="M1105.69,1183.61a18.74,18.74,0,0,1,2.15-9.59,6.67,6.67,0,0,1,6-3.64h27V1165h1.57l2.06,8,9.1,9.83v2.4h-9.1V1197h-3.63v-11.74h-24.47a3.32,3.32,0,0,0-3.14,1.78,8.41,8.41,0,0,0-1,4.17,18.25,18.25,0,0,0,.16,2.61c.11.74.25,1.53.41,2.35l-.16.25h-1.82a13.47,13.47,0,0,1-3.64-5.33A19,19,0,0,1,1105.69,1183.61Z"/><path class="cls-2" d="M1086.6,1203.78c0-1.27.18-2.06.53-2.36a3,3,0,0,1,1.86-.45h6.7l.5.49v3.64a20.64,20.64,0,0,0,.28,3.64,5.57,5.57,0,0,0,1.41,2.77,9.86,9.86,0,0,0,3.68,2.19l4.21,1.65,35.38-17.28,2.07-4.87h1.32v24.88h-1.32l-2.31-4.13h-.17l-15.87,7.93v.74l15.7,5.54h.17l2.48-4h1.32v15.45h-1.32l-2.73-5.62-40.5-16.61c-1.27-.55-2.33-1-3.18-1.33a19.3,19.3,0,0,1-2.48-1.15,32.64,32.64,0,0,1-2.94-1.9,10.81,10.81,0,0,1-3.59-4.38A12,12,0,0,1,1086.6,1203.78Z"/><path class="cls-2" d="M1106.1,1242.13a6.91,6.91,0,1,1,2,4.84A6.6,6.6,0,0,1,1106.1,1242.13Z"/><polygon class="cls-2" points="1137.04 1287.96 1137.04 1267.46 1166.1 1267.46 1166.1 1237.23 1184.08 1237.23 1184.08 1287.96 1137.04 1287.96"/><circle class="cls-2" cx="896" cy="424.22" r="76.08"/><path class="cls-3" d="M862.71,460v-1.27l5.47-2.54V414.3l-5.24-3.41v-1.27l17.46-5.15h1.27l.63,4.84h.32q5.55-4.85,11.43-4.84,4.83,0,8.93,4.76t4.08,12.93q0,9.36-5.67,14.88a18.18,18.18,0,0,1-13,5.51,23.4,23.4,0,0,1-5.88-.63V456.2l6.51,2.54V460Zm23.4-48.32a5.54,5.54,0,0,0-1.86.27,15,15,0,0,0-1.79.84v23.32a3.48,3.48,0,0,0,3.57,2.07q2.22,0,4.49-2.58t2.26-11.31c0-4.28-.73-7.46-2.18-9.52S887.65,411.69,886.11,411.69Z"/><polygon class="cls-3" points="931.97 411.18 918.3 411.18 918.3 391.8 898.14 391.8 898.14 379.8 931.97 379.8 931.97 411.18"/><circle class="cls-1" cx="896" cy="680.22" r="76.08"/><path class="cls-3" d="M862.71,716v-1.27l5.47-2.54V670.3l-5.24-3.41v-1.27l17.46-5.15h1.27l.63,4.84h.32q5.55-4.84,11.43-4.84,4.83,0,8.93,4.76t4.08,12.93q0,9.36-5.67,14.88a18.18,18.18,0,0,1-13,5.51,23.4,23.4,0,0,1-5.88-.63V712.2l6.51,2.54V716Zm23.4-48.32a5.54,5.54,0,0,0-1.86.27,15,15,0,0,0-1.79.84v23.32a3.48,3.48,0,0,0,3.57,2.07q2.22,0,4.49-2.58t2.26-11.31c0-4.28-.73-7.46-2.18-9.52S887.65,667.69,886.11,667.69Z"/><polygon class="cls-3" points="931.97 667.18 918.3 667.18 918.3 647.8 898.14 647.8 898.14 635.8 931.97 635.8 931.97 667.18"/><circle class="cls-1" cx="896" cy="936.22" r="76.08"/><path class="cls-2" d="M861.71,972v-1.27l5.47-2.54V926.3l-5.24-3.41v-1.27l17.46-5.15h1.27l.63,4.84h.32q5.55-4.84,11.43-4.84,4.83,0,8.93,4.76t4.08,12.93q0,9.36-5.67,14.88a18.18,18.18,0,0,1-13,5.51,23.4,23.4,0,0,1-5.88-.63V968.2l6.51,2.54V972Zm23.4-48.32a5.54,5.54,0,0,0-1.86.27,15,15,0,0,0-1.79.84v23.32a3.48,3.48,0,0,0,3.57,2.07q2.22,0,4.49-2.58t2.26-11.31c0-4.28-.73-7.46-2.18-9.52S886.65,923.69,885.11,923.69Z"/><polygon class="cls-2" points="930.97 923.18 917.3 923.18 917.3 903.8 897.14 903.8 897.14 891.8 930.97 891.8 930.97 923.18"/><circle class="cls-4" cx="896" cy="1192.22" r="76.08"/><path class="cls-2" d="M860.71,1228v-1.27l5.47-2.54v-41.9l-5.24-3.41v-1.27l17.46-5.15h1.27l.63,4.84h.32q5.55-4.85,11.43-4.84,4.83,0,8.93,4.76t4.08,12.93q0,9.36-5.67,14.88a18.18,18.18,0,0,1-13,5.51,23.4,23.4,0,0,1-5.88-.63v14.28l6.51,2.54V1228Zm23.4-48.32a5.54,5.54,0,0,0-1.86.27,15,15,0,0,0-1.79.84v23.32a3.48,3.48,0,0,0,3.57,2.07q2.22,0,4.49-2.58t2.26-11.31c0-4.28-.73-7.46-2.18-9.52S885.65,1179.69,884.11,1179.69Z"/><polygon class="cls-2" points="929.97 1179.18 916.3 1179.18 916.3 1159.8 896.14 1159.8 896.14 1147.8 929.97 1147.8 929.97 1179.18"/></svg>