<svg id="Layer_1" data-name="Layer 1" xmlns="http://www.w3.org/2000/svg" xmlns:xlink="http://www.w3.org/1999/xlink" viewBox="0 0 1200 750"><defs><style>.cls-1{fill:none;}.cls-2{clip-path:url(#clip-path);}.cls-3{fill:#232c38;}.cls-4{fill:#fff;stroke:#d1d2d2;stroke-miterlimit:10;stroke-width:1.99px;}</style><clipPath id="clip-path"><rect class="cls-1" y="-0.5" width="1200" height="750"/></clipPath></defs><rect y="-0.5" width="1200" height="750"/><g class="cls-2"><path class="cls-3" d="M454.37,321.73a18.26,18.26,0,0,0-18.24-18.22h0l-24.23,0a18.25,18.25,0,0,0-18.23,18.26l.06,65.57-59.08-76.65a18.35,18.35,0,0,0-14.44-7.1h0l-27.52,0a18.25,18.25,0,0,0-18.23,18.26l.13,148.54a18.26,18.26,0,0,0,18.24,18.22h0l24.48,0a18.27,18.27,0,0,0,18.23-18.26l-.06-65.08,58.83,76.17a18.37,18.37,0,0,0,14.44,7.09h0l27.53,0a18.25,18.25,0,0,0,18.23-18.26Z"/><rect class="cls-3" x="329.37" y="701.97" width="68.74" height="105.14" rx="9.25"/><rect class="cls-3" x="330.72" y="-88.54" width="68.74" height="105.13" rx="9.25"/><rect class="cls-3" x="45.02" y="591.78" width="105.13" height="68.74" rx="9.25" transform="translate(-414.51 252.85) rotate(-45.05)"/><rect class="cls-3" x="604.95" y="33.76" width="105.13" height="68.74" rx="9.25" transform="translate(144.75 485.3) rotate(-45.05)"/><rect class="cls-3" x="603.4" y="573.13" width="68.74" height="105.13" rx="9.25" transform="translate(-255.63 634.97) rotate(-45.05)"/><rect class="cls-3" x="42.52" y="16.06" width="68.74" height="105.13" rx="9.25" transform="translate(-26 74.56) rotate(-45.05)"/><rect class="cls-3" x="-86.18" y="316.15" width="105.13" height="68.74" rx="9.25"/><rect class="cls-3" x="704.33" y="317.5" width="105.13" height="68.74" rx="9.25"/><path class="cls-3" d="M668.74,294.31c-5.17-23-17.55-64.3-45.42-105.51-38.12-56.39-113-123.57-253.13-123.57h-.37c-139.76.12-217.59,67-258.26,123a332.53,332.53,0,0,0-50.5,105.31A20.88,20.88,0,0,0,72.92,318.3l31.71,13.6a20.79,20.79,0,0,0,8.31,1.65,258.26,258.26,0,0,0-5.67,54.06c.12,141.74,115.46,257,257.17,256.95h.22A257.24,257.24,0,0,0,615.44,331.32a20.69,20.69,0,0,0,7.3-1.15l32.65-11.6A20.87,20.87,0,0,0,668.74,294.31ZM369.87,134h.32c93.81,0,150.35,36.58,184.23,77.37-45-20-105.28-35.61-184-35.61h-.51c-80.31.07-142.91,16.27-190,36.79C216.13,171.18,275.07,134.05,369.87,134ZM497.79,520.52A187.21,187.21,0,0,1,364.6,575.83h-.16c-103.82,0-188.35-84.43-188.43-188.28a187,187,0,0,1,39.56-115.64c38.34-15.37,89.11-27.38,154.39-27.44h.46c58.36,0,104,9.59,139,22.52a188.4,188.4,0,0,1-11.58,253.53Z"/></g><path class="cls-4" d="M525.87,233.48a10.08,10.08,0,0,0-4.23-3.31,9.71,9.71,0,0,0-5.24-.57,11.42,11.42,0,0,0-5.14,2.27,11.54,11.54,0,0,0-3.57,4.32,9.66,9.66,0,0,0-.88,5.19,10.65,10.65,0,0,0,6.33,8.34,9.7,9.7,0,0,0,3.68.73,10.5,10.5,0,0,0,1.57-.13,12,12,0,0,0,8.72-6.6,9.77,9.77,0,0,0,.83-5.23A10.15,10.15,0,0,0,525.87,233.48Zm-4.93,8.29a2.82,2.82,0,0,1-1,1.4,3,3,0,0,1-1.67.61,3.84,3.84,0,0,1-1.91-.39A4.78,4.78,0,0,1,513.8,240a3.79,3.79,0,0,1,.16-1.93h0a3,3,0,0,1,1-1.43,2.94,2.94,0,0,1,1.62-.61h.2a3.55,3.55,0,0,1,1.63.41,5.24,5.24,0,0,1,2.57,3.41A3.54,3.54,0,0,1,520.94,241.77Z"/><path class="cls-4" d="M542.05,216.19a1.62,1.62,0,0,0-1.51-.09l-3.44,1.57a1.62,1.62,0,0,0-.94,1.68l1,8.22a.64.64,0,0,1-1.12.51l-5.55-6.16a1.62,1.62,0,0,0-1.89-.39l-3.7,1.69a1.6,1.6,0,0,0-.93,1.19,1.63,1.63,0,0,0,.46,1.44l12.35,12.24a1.67,1.67,0,0,0,1.15.47,1.56,1.56,0,0,0,.67-.15l4.35-2a1.64,1.64,0,0,0,.95-1.58l-1.09-17.37A1.6,1.6,0,0,0,542.05,216.19Z"/><path class="cls-4" d="M566.9,224.52a1.56,1.56,0,0,0-.76-1,1.61,1.61,0,0,0-1.23-.16l-7.24,2a.67.67,0,0,1-.81-.48.67.67,0,0,1,.46-.8l6.17-1.69a1.62,1.62,0,0,0,1.13-2l-.62-2.29a1.64,1.64,0,0,0-2-1.14l-6.17,1.69a.64.64,0,0,1-.49-.06.67.67,0,0,1-.31-.39.69.69,0,0,1,.06-.49.65.65,0,0,1,.39-.3l7-1.93a1.61,1.61,0,0,0,1-.76,1.63,1.63,0,0,0,.15-1.24L563,211.2a1.64,1.64,0,0,0-2-1.14l-12.93,3.54h0a1.64,1.64,0,0,0-1.14,2l4.3,15.68a1.64,1.64,0,0,0,1.57,1.2,1.59,1.59,0,0,0,.43-.06l13.15-3.61a1.62,1.62,0,0,0,1.14-2Z"/><path class="cls-4" d="M587.75,207.53a1.66,1.66,0,0,0-.62-1.08,1.61,1.61,0,0,0-1.2-.32l-3.25.42a1.63,1.63,0,0,0-1.41,1.82l.65,5a.64.64,0,0,1-.36.66.63.63,0,0,1-.74-.12l-5.73-5.74a1.6,1.6,0,0,0-1.36-.46l-3.4.44a1.62,1.62,0,0,0-1.4,1.82L571,226.09a1.63,1.63,0,0,0,1.61,1.42h.21l3.28-.43a1.63,1.63,0,0,0,1.41-1.82l-.64-4.95a.61.61,0,0,1,.35-.66.63.63,0,0,1,.74.12l5.7,5.69a1.63,1.63,0,0,0,1.36.47l3.4-.44a1.65,1.65,0,0,0,1.41-1.83Z"/><path class="cls-4" d="M616.64,206.15,604,205.51a1.65,1.65,0,0,0-1.71,1.54l-.83,16.24a1.63,1.63,0,0,0,.42,1.17A1.61,1.61,0,0,0,603,225l3.86.2H607a1.57,1.57,0,0,0,1.09-.42,1.61,1.61,0,0,0,.53-1.12l.2-3.75a.62.62,0,0,1,.21-.45.59.59,0,0,1,.46-.16l5.94.3a1.67,1.67,0,0,0,1.18-.42,1.61,1.61,0,0,0,.53-1.12l.12-2.38a1.59,1.59,0,0,0-.42-1.17,1.66,1.66,0,0,0-1.12-.54l-5.94-.3a.64.64,0,0,1-.61-.68l.05-.92a.62.62,0,0,1,.21-.45.65.65,0,0,1,.46-.16l6.5.33a1.64,1.64,0,0,0,1.71-1.54l.12-2.38a1.63,1.63,0,0,0-.42-1.17A1.58,1.58,0,0,0,616.64,206.15Z"/><path class="cls-4" d="M628.63,207.87l-3.81-.6a1.59,1.59,0,0,0-1.21.29,1.61,1.61,0,0,0-.65,1.06l-2.55,16a1.62,1.62,0,0,0,1.35,1.86l3.81.61.26,0a1.62,1.62,0,0,0,1.6-1.37L630,209.73A1.63,1.63,0,0,0,628.63,207.87Z"/><path class="cls-4" d="M650.73,215.16a9.37,9.37,0,0,0-5.42-3.46l-7.53-2.14a1.68,1.68,0,0,0-1.24.15,1.61,1.61,0,0,0-.77,1l-4.44,15.63a1.62,1.62,0,0,0,1.12,2l3.71,1.06a1.63,1.63,0,0,0,2-1.12l.7-2.44a.59.59,0,0,1,.3-.39.61.61,0,0,1,.49-.06l.42.12a.65.65,0,0,1,.46.52l.6,3.8a1.63,1.63,0,0,0,1.16,1.31l4,1.14a1.51,1.51,0,0,0,.46.07,1.63,1.63,0,0,0,1.14-.48,1.6,1.6,0,0,0,.42-1.58l-1.06-3.85a.67.67,0,0,1,.39-.77,6.17,6.17,0,0,0,2-1.45,8,8,0,0,0,1.79-3.36A6.56,6.56,0,0,0,650.73,215.16Zm-5.88,4a1.91,1.91,0,0,1-.76,1.16,1.49,1.49,0,0,1-1.26.09L641.2,220a.64.64,0,0,1-.44-.8l.58-2.06a.65.65,0,0,1,.8-.44l1.63.46a1.56,1.56,0,0,1,1,.73A1.77,1.77,0,0,1,644.85,219.17Z"/><path class="cls-4" d="M670.05,229.6a1.62,1.62,0,0,0-.83-.93l-5.77-2.76a.64.64,0,0,1-.3-.86.62.62,0,0,1,.36-.33.67.67,0,0,1,.5,0l6.55,3.14a1.64,1.64,0,0,0,1.25.07,1.57,1.57,0,0,0,.92-.83l1-2.15a1.62,1.62,0,0,0,.07-1.24,1.65,1.65,0,0,0-.83-.93L660.91,217a1.62,1.62,0,0,0-2.17.76l-7,14.66a1.62,1.62,0,0,0,.76,2.17l12.31,5.89a1.56,1.56,0,0,0,.7.16,1.64,1.64,0,0,0,1.47-.92l1-2.15a1.57,1.57,0,0,0,.07-1.24,1.62,1.62,0,0,0-.83-.93l-6.77-3.24a.65.65,0,0,1-.29-.89.64.64,0,0,1,.86-.3l5.77,2.76A1.63,1.63,0,0,0,669,233l1-2.15A1.57,1.57,0,0,0,670.05,229.6Z"/><path class="cls-4" d="M691.41,236.87a12.29,12.29,0,0,0-3.66-4.32l-5.66-4.35a1.57,1.57,0,0,0-1.2-.33,1.66,1.66,0,0,0-1.08.62l-9.92,12.88a1.64,1.64,0,0,0,.3,2.28l5.46,4.21a12.76,12.76,0,0,0,5.21,2.5,10.09,10.09,0,0,0,1.95.2A8.73,8.73,0,0,0,686,250a9.73,9.73,0,0,0,4.2-3.26,9.87,9.87,0,0,0,2.09-4.86A8.84,8.84,0,0,0,691.41,236.87Zm-5.94,2.52a4.45,4.45,0,0,1-1.07,2.94,4.55,4.55,0,0,1-2.5,1.8,2.76,2.76,0,0,1-2.43-.57l-.92-.71a.64.64,0,0,1-.25-.43.69.69,0,0,1,.13-.48l4.11-5.34a.67.67,0,0,1,.43-.24h.09a.62.62,0,0,1,.39.14l.69.53A3.11,3.11,0,0,1,685.47,239.39Z"/><path class="cls-4" d="M317.26,349.51h-7.45a2.51,2.51,0,0,0-2.5,2.51v12a.55.55,0,0,1-1,.34l-10.66-13.84a2.54,2.54,0,0,0-2-1h-7.42a2.46,2.46,0,0,0-1.77.74,2.49,2.49,0,0,0-.73,1.77l0,32a2.49,2.49,0,0,0,.73,1.77,2.46,2.46,0,0,0,1.77.74h7.5a2.51,2.51,0,0,0,2.5-2.51V372.13a.53.53,0,0,1,.37-.52.54.54,0,0,1,.61.19l10.61,13.74a2.5,2.5,0,0,0,2,1h7.42a2.51,2.51,0,0,0,2.5-2.51l0-32A2.51,2.51,0,0,0,317.26,349.51Z"/><path class="cls-4" d="M340.62,350.23a2.53,2.53,0,0,0-1.78-.73H330.3a2.5,2.5,0,0,0-1.77.74,2.46,2.46,0,0,0-.74,1.77l0,32a2.51,2.51,0,0,0,2.51,2.51h8.54a2.51,2.51,0,0,0,2.51-2.51l0-32A2.49,2.49,0,0,0,340.62,350.23Z"/><path class="cls-4" d="M383.21,366.78a2.4,2.4,0,0,0-1.77-.73h-6.9a2.49,2.49,0,0,0-1.77.73,2.53,2.53,0,0,0-.73,1.78v5.84a.55.55,0,0,1-.36.52,9.47,9.47,0,0,1-3.25.73h0a6.37,6.37,0,0,1-3.52-1,6.78,6.78,0,0,1-2.48-2.71,8.72,8.72,0,0,1-.92-4,8.57,8.57,0,0,1,.89-3.95,6.75,6.75,0,0,1,2.44-2.69,6.35,6.35,0,0,1,3.48-1h0a10.45,10.45,0,0,1,4.13.94,12.39,12.39,0,0,1,2.76,1.63,2.51,2.51,0,0,0,3.51-.36l4.56-5.54a2.49,2.49,0,0,0,.55-1.91,2.45,2.45,0,0,0-1-1.7,23.12,23.12,0,0,0-5.93-3.12,25.27,25.27,0,0,0-8.56-1.55,22.65,22.65,0,0,0-10.59,2.47A18.48,18.48,0,0,0,347.65,368a19.27,19.27,0,0,0,2.59,9.92,18.46,18.46,0,0,0,7.15,6.9,21,21,0,0,0,10.22,2.49h0a29.6,29.6,0,0,0,8.35-1.35,28.88,28.88,0,0,0,6.8-3,2.47,2.47,0,0,0,1.16-2.12V368.56A2.53,2.53,0,0,0,383.21,366.78Z"/><path class="cls-4" d="M426.52,350.15a2.49,2.49,0,0,0-1.77-.73H416.2a2.46,2.46,0,0,0-1.77.74,2.49,2.49,0,0,0-.73,1.77v10.54a.57.57,0,0,1-.16.39.55.55,0,0,1-.38.16h-7.8a.54.54,0,0,1-.54-.54V352a2.51,2.51,0,0,0-2.51-2.51h-8.55a2.49,2.49,0,0,0-2.5,2.51l0,32a2.5,2.5,0,0,0,2.5,2.5h8.55a2.5,2.5,0,0,0,1.77-.74,2.45,2.45,0,0,0,.73-1.77v-9.59a.55.55,0,0,1,.54-.55h7.79a.55.55,0,0,1,.55.55v9.59a2.49,2.49,0,0,0,2.5,2.5h8.55a2.46,2.46,0,0,0,1.77-.74,2.49,2.49,0,0,0,.73-1.77l0-32A2.5,2.5,0,0,0,426.52,350.15Z"/><path class="cls-4" d="M466.54,351.89a2.52,2.52,0,0,0-2.51-2.5h0l-28.49,0a2.51,2.51,0,0,0-2.5,2.51V358a2.52,2.52,0,0,0,.74,1.77,2.49,2.49,0,0,0,1.77.73h6.9a.55.55,0,0,1,.54.55l0,22.83a2.51,2.51,0,0,0,2.51,2.51h8.54a2.49,2.49,0,0,0,2.51-2.51l0-22.83a.55.55,0,0,1,.54-.55h7a2.51,2.51,0,0,0,2.5-2.51Z"/><path class="cls-4" d="M768,349.78a2.17,2.17,0,0,0-1.54-.64h0l-29.14,0a2.21,2.21,0,0,0-1.54.64,2.19,2.19,0,0,0-.64,1.54v6.76a2.18,2.18,0,0,0,2.18,2.17h7.55a.18.18,0,0,1,.15.06.21.21,0,0,1,.07.15l0,23.5a2.11,2.11,0,0,0,.64,1.53,2.15,2.15,0,0,0,1.53.64h9.21a2.17,2.17,0,0,0,2.17-2.18l0-23.49a.24.24,0,0,1,.22-.22h7.6a2.19,2.19,0,0,0,2.18-2.18v-6.76A2.15,2.15,0,0,0,768,349.78Z"/><path class="cls-4" d="M803.16,374.18a.22.22,0,0,1,.05-.27,12,12,0,0,0,3.53-4.22,15.62,15.62,0,0,0,1.52-7.06c0-4.28-1.44-7.65-4.26-10s-6.68-3.49-11.65-3.49H776.58a2.19,2.19,0,0,0-2.18,2.18l0,32.64a2.19,2.19,0,0,0,2.18,2.18h9.2a2.19,2.19,0,0,0,2.18-2.18v-6.71a.22.22,0,0,1,.22-.21h2.38a.23.23,0,0,1,.2.12l3.56,7.71h0a2.2,2.2,0,0,0,2,1.26h10.21a2.18,2.18,0,0,0,1.86-3.3ZM795.3,363a3.55,3.55,0,0,1-.76,2.46,2.82,2.82,0,0,1-2.2.81h-4.15a.21.21,0,0,1-.22-.21v-6a.21.21,0,0,1,.21-.21h4.16a2.93,2.93,0,0,1,2.21.76A3.3,3.3,0,0,1,795.3,363Z"/><path class="cls-4" d="M840.51,350.43a2.15,2.15,0,0,0-2-1.35H828.2a2.17,2.17,0,0,0-2,1.33l-13.75,32.65a2.2,2.2,0,0,0,.19,2.05,2.17,2.17,0,0,0,1.81,1h9.26a2.22,2.22,0,0,0,2-1.44l1.22-3.37a.21.21,0,0,1,.2-.15h11.46a.21.21,0,0,1,.2.15l1.19,3.35a2.18,2.18,0,0,0,2.05,1.45h9.73a2.18,2.18,0,0,0,2-3Zm-5.4,20.35a.21.21,0,0,1-.18.09H831a.2.2,0,0,1-.17-.09.2.2,0,0,1,0-.19l2-5.49a.19.19,0,0,1,.2-.14h0a.19.19,0,0,1,.2.14l1.93,5.49A.18.18,0,0,1,835.11,370.78Z"/><path class="cls-4" d="M870.48,349.69a2.17,2.17,0,0,0-1.54-.64h-9.21a2.15,2.15,0,0,0-1.53.64,2.17,2.17,0,0,0-.64,1.54l0,32.64a2.17,2.17,0,0,0,.64,1.54,2.14,2.14,0,0,0,1.53.63H869a2.17,2.17,0,0,0,1.54-.64,2.12,2.12,0,0,0,.63-1.54l0-32.64A2.17,2.17,0,0,0,870.48,349.69Z"/><path class="cls-4" d="M915.14,351.19a2.16,2.16,0,0,0-.63-1.54A2.19,2.19,0,0,0,913,349h-8.11a2.17,2.17,0,0,0-2.17,2.18v13.28a.2.2,0,0,1-.15.21.2.2,0,0,1-.23-.08L891,349.88a2.19,2.19,0,0,0-1.72-.85h-7.92a2.18,2.18,0,0,0-2.17,2.18l0,32.64a2.18,2.18,0,0,0,2.17,2.18h8.16a2.18,2.18,0,0,0,2.17-2.18V370.66a.19.19,0,0,1,.15-.2.2.2,0,0,1,.24.07l11.3,14.64a2.19,2.19,0,0,0,1.72.85H913a2.18,2.18,0,0,0,2.17-2.18Z"/><path class="cls-4" d="M623.39,357.21a4.53,4.53,0,0,0-4.53-4.53h-6a4.54,4.54,0,0,0-4.53,4.54l0,16.29-14.69-19a4.54,4.54,0,0,0-3.58-1.77H583.2a4.52,4.52,0,0,0-4.53,4.53l0,36.92a4.54,4.54,0,0,0,4.53,4.53h6.09a4.53,4.53,0,0,0,4.53-4.54V378l14.62,18.93a4.56,4.56,0,0,0,3.59,1.76h6.84a4.52,4.52,0,0,0,4.53-4.54Z"/><rect class="cls-4" x="592.33" y="451.7" width="17.08" height="26.13" rx="2.3"/><rect class="cls-4" x="592.66" y="255.25" width="17.08" height="26.13" rx="2.3"/><rect class="cls-4" x="521.66" y="424.32" width="26.13" height="17.08" rx="2.3" transform="translate(-149.4 505.5) rotate(-45.05)"/><rect class="cls-4" x="660.81" y="285.64" width="26.13" height="17.08" rx="2.3" transform="translate(-10.42 563.22) rotate(-45.05)"/><rect class="cls-4" x="660.43" y="419.68" width="17.08" height="26.13" rx="2.3" transform="translate(-109.92 600.42) rotate(-45.05)"/><rect class="cls-4" x="521.04" y="281.24" width="17.08" height="26.13" rx="2.3" transform="translate(-52.85 461.18) rotate(-45.05)"/><rect class="cls-4" x="489.06" y="355.82" width="26.13" height="17.08" rx="2.3"/><rect class="cls-4" x="685.51" y="356.15" width="26.13" height="17.08" rx="2.3"/><path class="cls-4" d="M676.67,350.39a78.79,78.79,0,0,0-11.29-26.22c-9.48-14-28.08-30.71-62.91-30.71h-.09c-34.73,0-54.07,16.64-64.18,30.57a82.69,82.69,0,0,0-12.55,26.17,5.17,5.17,0,0,0,3,6.15l7.88,3.38a5.09,5.09,0,0,0,2.06.41A63.94,63.94,0,0,0,601,437.43h.06a63.94,63.94,0,0,0,62.32-77.84,5.21,5.21,0,0,0,1.82-.29l8.11-2.88A5.2,5.2,0,0,0,676.67,350.39Zm-74.28-39.85h.08c23.32,0,37.37,9.09,45.79,19.23-11.19-5-26.17-8.85-45.73-8.85h-.13c-20,0-35.52,4-47.22,9.14C564.19,319.79,578.83,310.56,602.39,310.54Zm31.79,96.07a46.51,46.51,0,0,1-33.1,13.74h0a46.82,46.82,0,0,1-37-75.53c9.52-3.82,22.14-6.8,38.36-6.82h.12c14.5,0,25.83,2.39,34.53,5.6a46.82,46.82,0,0,1-2.88,63Z"/><path class="cls-4" d="M546.69,507.11c2.86-3.59,4-7.33,3.27-11.12h0c-.68-3.74-3.06-7.26-7.08-10.47l-13.11-10.46a1.93,1.93,0,0,0-2.7.31l-22.37,28a1.92,1.92,0,0,0,.3,2.7l8.3,6.62a1.92,1.92,0,0,0,2.7-.31l4.88-6.18,3.35,2.67c3.67,2.92,7.34,4.4,10.93,4.4.35,0,.71,0,1.06,0C540.16,513,543.69,510.88,546.69,507.11Zm-10.07-10.86a3.58,3.58,0,0,1-1,2.54,3.88,3.88,0,0,1-2.35,1.59,3.08,3.08,0,0,1-2.45-.82L528,497.35l4.38-5.55,2.84,2.26A3.2,3.2,0,0,1,536.62,496.25Z"/><path class="cls-4" d="M568.84,501l-9.84-4a1.88,1.88,0,0,0-1.47,0,1.9,1.9,0,0,0-1,1.05l-13.43,33.26a1.92,1.92,0,0,0,0,1.47,1.9,1.9,0,0,0,1,1l9.84,4a1.78,1.78,0,0,0,.72.14,2,2,0,0,0,.75-.15,1.93,1.93,0,0,0,1-1.05l13.43-33.26A1.92,1.92,0,0,0,568.84,501Z"/><path class="cls-4" d="M609.86,533.27a1.93,1.93,0,0,0-1.36-.55h0l-15,.16,15.9-18.64a1.88,1.88,0,0,0,.46-1.26l0-6.52a1.93,1.93,0,0,0-1.92-1.91h0l-31.72.22a1.93,1.93,0,0,0-1.91,1.94l.06,7.7a2,2,0,0,0,1.93,1.91l13.93-.16-15.9,18.64a2,2,0,0,0-.46,1.26l0,6.52a1.93,1.93,0,0,0,1.93,1.91h0l32.74-.23a1.91,1.91,0,0,0,1.91-1.93l-.05-7.7A1.91,1.91,0,0,0,609.86,533.27Z"/><path class="cls-4" d="M656.13,523.32a1.89,1.89,0,0,0-1-1.12,1.93,1.93,0,0,0-1.47-.13l-14.22,4.62,9.63-22.54a1.93,1.93,0,0,0,.06-1.34l-2-6.2a2,2,0,0,0-1-1.13,1.93,1.93,0,0,0-1.47-.12L614.57,505a1.94,1.94,0,0,0-1.25,2.42l2.34,7.34a1.92,1.92,0,0,0,2.42,1.24l13.25-4.3-9.63,22.53a2,2,0,0,0-.06,1.35l2,6.2a1.9,1.9,0,0,0,1,1.13,2,2,0,0,0,.88.21A2,2,0,0,0,626,543l31.19-10a1.92,1.92,0,0,0,1.24-2.41Z"/><path class="cls-4" d="M699.51,500l-33.6-19.24a1.92,1.92,0,0,0-2.14.15l-9.1,7.13a1.93,1.93,0,0,0-.67,2l10.2,37.57a1.9,1.9,0,0,0,1.25,1.33,2,2,0,0,0,.6.09,1.93,1.93,0,0,0,1.19-.41l8.45-6.62a1.93,1.93,0,0,0,.64-2.11L675,515.78,685,507.86l3.64,2.32h0a1.91,1.91,0,0,0,2.21-.11l8.85-6.93a1.91,1.91,0,0,0,.73-1.65A1.94,1.94,0,0,0,699.51,500Zm-24.1,1.62-4,3.17-2.47-7.27Z"/><path class="cls-4" d="M504.76,478.88a2.81,2.81,0,0,0-1-2c-19.94-16.94-28.66-35.15-36.27-59l-1.14-3.58a2.8,2.8,0,0,0-2.68-2l-178.88.14a2.8,2.8,0,0,0-2.81,2.81v10.27a2.83,2.83,0,0,0,2.82,2.81l168.29-.12a1.62,1.62,0,0,1,1.52,1.07c9.79,27,20.43,42.92,39.27,58.87a2.86,2.86,0,0,0,3.9-.28l6.27-6.95A2.8,2.8,0,0,0,504.76,478.88Z"/><path class="cls-4" d="M745.41,429A1.6,1.6,0,0,1,746.9,428l168.34-.13a2.78,2.78,0,0,0,2.78-2.79V414.75a2.8,2.8,0,0,0-2.79-2.79h0l-178.92.14a2.78,2.78,0,0,0-2.66,1.95l-1.14,3.59c-8.85,28-19.52,44.8-38.07,60.09a2.77,2.77,0,0,0-1,2.14,2.82,2.82,0,0,0,1,2.16l7.75,6.34a2.89,2.89,0,0,0,3.63-.08C724.07,471.94,736.64,453.11,745.41,429Z"/><path class="cls-4" d="M918,312.8a3.55,3.55,0,0,0-3.55-3.55l-167.05.13a2.35,2.35,0,0,1-2.2-1.55c-9.67-26.47-20.11-42.16-38.53-57.9a3.54,3.54,0,0,0-5,.31l-5.29,5.88a3.54,3.54,0,0,0,.32,5.05C716.35,278,725,296.05,732.51,319.75l1,3.07a3.53,3.53,0,0,0,3.37,2.47l177.62-.14a3.53,3.53,0,0,0,3.54-3.54Z"/><path class="cls-4" d="M454.6,308.54a1.65,1.65,0,0,1-1.54,1.09l-168.23.13a2.85,2.85,0,0,0-2,.84,2.77,2.77,0,0,0-.83,2v10.2a2.87,2.87,0,0,0,2.86,2.85l178.81-.14a2.84,2.84,0,0,0,2.72-2L467.5,320c8.84-27.93,19.5-44.76,38-60a2.85,2.85,0,0,0,0-4.4l-7.64-6.26a2.89,2.89,0,0,0-3.72.08C475.93,265.69,463.37,284.49,454.6,308.54Z"/></svg>