<svg id="Layer_1" data-name="Layer 1" xmlns="http://www.w3.org/2000/svg" xmlns:xlink="http://www.w3.org/1999/xlink" viewBox="0 0 1366 1391"><defs><style>.cls-1{fill:none;}.cls-2{fill:#e5d9cf;}.cls-3{fill:#b7aca4;}.cls-4{fill:#888079;}.cls-5{fill:#5a534e;}.cls-6{fill:#1a1614;}.cls-7{clip-path:url(#clip-path);}.cls-8{fill:#fff;}</style><clipPath id="clip-path"><rect class="cls-1" x="728" width="638" height="1391"/></clipPath></defs><rect class="cls-2" width="728" height="1391" transform="translate(728 1391) rotate(-180)"/><polygon class="cls-3" points="515.56 -0.32 0.2 -0.32 0.2 668.7 515.56 -0.32"/><rect class="cls-2" x="728.1" y="-0.01" width="637.9" height="278.35"/><rect class="cls-3" x="728.07" y="278.34" width="637.9" height="278.35"/><rect class="cls-4" x="728.02" y="555.93" width="637.9" height="278.35"/><rect class="cls-5" x="728" y="834.28" width="637.9" height="278.35"/><rect class="cls-6" x="728" y="1112.63" width="637.9" height="278.35"/><path class="cls-6" d="M527.62,224.79c5.5,3.54-3.27,21.74-25.14,21.08-17.8-.39-33.26-11-33.26-32.73,0-18.21,13.36-32.48,31.56-32.74,17.94-.26,28.55,11.39,29.59,23,.79,9.29-2,11.52-8,11.52H494.76c2.49,13.09,16.89,14.27,25.66,11C523.57,224.66,525.66,223.48,527.62,224.79Zm-34-19.25H505.5c2.48,0,3.92-.91,4.19-3.27.52-4.32.52-12.31-6.94-12.31C497,190,493.58,195.59,493.58,205.54ZM267,186.29v.13c0,4.46-6.67,7.34-9,13.49l-13.23,35.62c-2.35,6.28-3.4,9.43-10.6,9.43-6.94,0-9.17-1.71-11.13-7.47l-7.34-21.87-7.72,19.91c-2.36,6.28-3.14,9.43-10.48,9.43-6.94,0-9.29-1.84-11.65-7.47l-14.93-35.88c-2.49-6.15-8.25-8.51-8.25-14.27v-.26c0-5,5.76-6.68,17.55-6.68,9.56,0,18.46.52,18.46,5.37V186c0,4.45-4.06,6.55-2.09,12.44l6.8,20,11-32.22c1.31-3.79,2.36-5.89,8.12-5.89s6.94,1.57,8.64,7.33l9.17,29.47L246,199.39c2.49-7.6-1.83-8.38-1.83-12.57v-.13c0-4.59,6-6.29,11.78-6.29C261.34,180.4,267,182.1,267,186.29Zm78.77,52.25v.26c0,4.85-8.25,6.16-17.81,6.16s-17.67-1.31-17.67-6.16v-.26c0-4.45,4.45-6,4.45-12.44V203.71c0-8.91-2.49-12.18-7.2-12.18-3.93,0-7.08,3.4-7.21,11.39V226.1c0,6.42,4.46,8,4.46,12.44v.26c0,4.85-8.25,6.16-17.68,6.16s-17.81-1.31-17.81-6.16v-.26c0-4.45,4.45-6,4.45-12.44V172.15c0-6.28-4.45-7.86-4.45-12.31v-.26c0-4.84,5.11-8.25,15.19-12.05,8.64-3.14,15.84-3.4,15.84,4.19v34.57a21.42,21.42,0,0,1,14.28-5.89c17.8-.65,26.71,10.87,26.71,25.4v20.3C341.29,232.52,345.74,234.09,345.74,238.54Zm77.52-25.4c0,19.9-16.5,32.73-36.53,32.73S350.2,233,350.2,213.14s16.63-32.74,36.53-32.74S423.26,193.36,423.26,213.14Zm-28-.66c-1.18-13-5-21.87-10.34-21.34s-7.73,9.82-6.55,22.78,5,21.87,10.34,21.35S396.29,225.45,395.24,212.48Zm68.09,26.06v.26c0,4.85-8.12,6.16-17.68,6.16S428,243.65,428,238.8v-.26c0-4.45,4.33-6,4.33-12.44V172.15c0-6.28-4.33-7.86-4.33-12.31v-.26c0-4.84,5.11-8.25,15.19-12.05,8.52-3.14,15.85-3.4,15.85,4.19V226.1C459,232.52,463.33,234.09,463.33,238.54Zm77.2-9.81a1.66,1.66,0,0,0,1.3,1.67c13.2,3.76,24,9.23,24,16.11,0,0,4.64,29.42-215,29.42s-214.93-29-214.93-29c0-7.26,13.35-12.89,30.16-17.11a1.83,1.83,0,0,0,1.25-2.48l-4.07-9.79a1.85,1.85,0,0,0-2.18-1.07c-24.56,6.62-46.12,16.32-46.12,30,0,0-11.94,56.44,235.89,56.44s236.7-56.44,236.7-56.44c0-14.91-24.6-27.62-44.43-30.7a1.6,1.6,0,0,0-1.82,1.46Z"/><path class="cls-6" d="M540.53,315.73a1.66,1.66,0,0,0,1.3,1.67c13.2,3.76,24,9.23,24,16.11,0,0,4.64,29.42-215,29.42s-214.93-29-214.93-29c0-7.26,13.35-12.89,30.16-17.11a1.83,1.83,0,0,0,1.25-2.48l-4.07-9.79a1.85,1.85,0,0,0-2.18-1.07C136.54,310.07,115,319.77,115,333.4c0,0-11.94,56.44,235.89,56.44s236.7-56.44,236.7-56.44c0-14.91-24.6-27.62-44.43-30.7a1.6,1.6,0,0,0-1.82,1.46Z"/><path class="cls-6" d="M540.53,402.73a1.66,1.66,0,0,0,1.3,1.67c13.2,3.76,24,9.23,24,16.11,0,0,4.64,29.42-215,29.42s-214.93-29-214.93-29c0-7.26,13.35-12.89,30.16-17.11a1.83,1.83,0,0,0,1.25-2.48l-4.07-9.79a1.85,1.85,0,0,0-2.18-1.07C136.54,397.07,115,406.77,115,420.4c0,0-11.94,56.44,235.89,56.44s236.7-56.44,236.7-56.44c0-14.91-24.6-27.62-44.43-30.7a1.6,1.6,0,0,0-1.82,1.46Z"/><path class="cls-6" d="M540.53,489.73a1.66,1.66,0,0,0,1.3,1.67c13.2,3.76,24,9.23,24,16.11,0,0,4.64,29.42-215,29.42s-214.93-29-214.93-29c0-7.26,13.35-12.89,30.16-17.11a1.83,1.83,0,0,0,1.25-2.48l-4.07-9.79a1.85,1.85,0,0,0-2.18-1.07C136.54,484.07,115,493.77,115,507.4c0,0-11.94,56.44,235.89,56.44s236.7-56.44,236.7-56.44c0-14.91-24.6-27.62-44.43-30.7a1.6,1.6,0,0,0-1.82,1.46Z"/><path class="cls-6" d="M540.53,576.73a1.66,1.66,0,0,0,1.3,1.67c13.2,3.76,24,9.23,24,16.11,0,0,4.64,29.42-215,29.42s-214.93-29-214.93-29c0-7.26,13.35-12.89,30.16-17.11a1.83,1.83,0,0,0,1.25-2.48l-4.07-9.79a1.85,1.85,0,0,0-2.18-1.07C136.54,571.07,115,580.77,115,594.4c0,0-11.94,56.44,235.89,56.44s236.7-56.44,236.7-56.44c0-14.91-24.6-27.62-44.43-30.7a1.6,1.6,0,0,0-1.82,1.46Z"/><path class="cls-6" d="M540.53,663.73a1.66,1.66,0,0,0,1.3,1.67c13.2,3.76,24,9.23,24,16.11,0,0,4.64,29.42-215,29.42s-214.93-29-214.93-29c0-7.26,13.35-12.89,30.16-17.11a1.83,1.83,0,0,0,1.25-2.48l-4.07-9.79a1.85,1.85,0,0,0-2.18-1.07C136.54,658.07,115,667.77,115,681.4c0,0-11.94,56.44,235.89,56.44s236.7-56.44,236.7-56.44c0-14.91-24.6-27.62-44.43-30.7a1.6,1.6,0,0,0-1.82,1.46Z"/><path class="cls-6" d="M540.53,750.73a1.66,1.66,0,0,0,1.3,1.67c13.2,3.76,24,9.23,24,16.11,0,0,4.64,29.42-215,29.42s-214.93-29-214.93-29c0-7.26,13.35-12.89,30.16-17.11a1.83,1.83,0,0,0,1.25-2.48l-4.07-9.79a1.85,1.85,0,0,0-2.18-1.07C136.54,745.07,115,754.77,115,768.4c0,0-11.94,56.44,235.89,56.44s236.7-56.44,236.7-56.44c0-14.91-24.6-27.62-44.43-30.7a1.6,1.6,0,0,0-1.82,1.46Z"/><path class="cls-6" d="M540.53,837.73a1.66,1.66,0,0,0,1.3,1.67c13.2,3.76,24,9.23,24,16.11,0,0,4.64,29.42-215,29.42s-214.93-29-214.93-29c0-7.26,13.35-12.89,30.16-17.11a1.83,1.83,0,0,0,1.25-2.48l-4.07-9.79a1.85,1.85,0,0,0-2.18-1.07C136.54,832.07,115,841.77,115,855.4c0,0-11.94,56.44,235.89,56.44s236.7-56.44,236.7-56.44c0-14.91-24.6-27.62-44.43-30.7a1.6,1.6,0,0,0-1.82,1.46Z"/><path class="cls-6" d="M540.53,924.73a1.66,1.66,0,0,0,1.3,1.67c13.2,3.76,24,9.23,24,16.11,0,0,4.64,29.42-215,29.42s-214.93-29-214.93-29c0-7.26,13.35-12.89,30.16-17.11a1.83,1.83,0,0,0,1.25-2.48l-4.07-9.79a1.85,1.85,0,0,0-2.18-1.07C136.54,919.07,115,928.77,115,942.4c0,0-11.94,56.44,235.89,56.44s236.7-56.44,236.7-56.44c0-14.91-24.6-27.62-44.43-30.7a1.6,1.6,0,0,0-1.82,1.46Z"/><path class="cls-6" d="M540.53,1011.73a1.66,1.66,0,0,0,1.3,1.67c13.2,3.76,24,9.23,24,16.11,0,0,4.64,29.42-215,29.42s-214.93-29-214.93-29c0-7.26,13.35-12.89,30.16-17.11a1.83,1.83,0,0,0,1.25-2.48l-4.07-9.79a1.85,1.85,0,0,0-2.18-1.07c-24.56,6.62-46.12,16.32-46.12,30,0,0-11.94,56.44,235.89,56.44s236.7-56.44,236.7-56.44c0-14.91-24.6-27.62-44.43-30.7a1.6,1.6,0,0,0-1.82,1.46Z"/><path class="cls-6" d="M540.53,1098.73a1.66,1.66,0,0,0,1.3,1.67c13.2,3.76,24,9.23,24,16.11,0,0,4.64,29.42-215,29.42s-214.93-29-214.93-29c0-7.26,13.35-12.89,30.16-17.11a1.83,1.83,0,0,0,1.25-2.48l-4.07-9.79a1.85,1.85,0,0,0-2.18-1.07c-24.56,6.62-46.12,16.32-46.12,30,0,0-11.94,56.44,235.89,56.44s236.7-56.44,236.7-56.44c0-14.91-24.6-27.62-44.43-30.7a1.6,1.6,0,0,0-1.82,1.46Z"/><path class="cls-6" d="M540.53,1185.73a1.66,1.66,0,0,0,1.3,1.67c13.2,3.76,24,9.23,24,16.11,0,0,4.64,29.42-215,29.42s-214.93-29-214.93-29c0-7.26,13.35-12.89,30.16-17.11a1.83,1.83,0,0,0,1.25-2.48l-4.07-9.79a1.85,1.85,0,0,0-2.18-1.07c-24.56,6.62-46.12,16.32-46.12,30,0,0-11.94,56.44,235.89,56.44s236.7-56.44,236.7-56.44c0-14.91-24.6-27.62-44.43-30.7a1.6,1.6,0,0,0-1.82,1.46Z"/><path class="cls-6" d="M540.53,1272.73a1.66,1.66,0,0,0,1.3,1.67c13.2,3.76,24,9.23,24,16.11,0,0,4.64,29.42-215,29.42s-214.93-29-214.93-29c0-7.26,13.35-12.89,30.16-17.11a1.83,1.83,0,0,0,1.25-2.48l-4.07-9.79a1.85,1.85,0,0,0-2.18-1.07c-24.56,6.62-46.12,16.32-46.12,30,0,0-11.94,56.44,235.89,56.44s236.7-56.44,236.7-56.44c0-14.91-24.6-27.62-44.43-30.7a1.6,1.6,0,0,0-1.82,1.46Z"/><path class="cls-6" d="M540.53,1359.73a1.66,1.66,0,0,0,1.3,1.67c13.2,3.76,24,9.23,24,16.11,0,0,4.64,29.42-215,29.42s-214.93-29-214.93-29c0-7.26,13.35-12.89,30.16-17.11a1.83,1.83,0,0,0,1.25-2.48l-4.07-9.79a1.85,1.85,0,0,0-2.18-1.07c-24.56,6.62-46.12,16.32-46.12,30,0,0-11.94,56.44,235.89,56.44s236.7-56.44,236.7-56.44c0-14.91-24.6-27.62-44.43-30.7a1.6,1.6,0,0,0-1.82,1.46Z"/><g class="cls-7"><path class="cls-8" d="M2154.33,908.33c1,33.32-8.84,65.77-22.34,90.75-13.56,25.33-30,44.94-46.72,61.82-33.54,32.76-68.18,55.89-102.77,75.13-69.21,38.41-139,63.75-209.27,84.67-140.61,40.31-283.82,56.38-426.27,54.77-142.44-2.29-285-18.31-425.92-56.33C850.54,1199.52,780.6,1174.72,711,1137c-34.73-19.09-69.51-42.27-103-75.3-16.61-17.06-33-36.86-46.46-62.34-13.39-25.12-23-57.68-21.88-91,.8-33.34,12.23-64.69,26.88-88.19,14.72-23.86,32-41.69,49.27-56.75,34.8-29.16,70.35-47.87,105.3-63.4a776.86,776.86,0,0,1,94.59-34l52.54,126.29a660.4,660.4,0,0,0-82.08,38.54c-25.54,14.26-48,31.36-63.2,47.75-7.19,8.14-12.29,16-14.33,21.52-2.13,5.7-1.09,7.69-.2,8.25,1,.58,1.81,1.36,5.2,5.43A124.87,124.87,0,0,0,730.7,929.7c16.45,12.52,39.72,25.14,65.49,35.85,51.67,21.88,111.8,36.68,172.57,48.05,122.49,22.17,250.74,29.82,378.2,28.2,63.8-1,127.46-3.57,190.62-8.34,31.56-2.39,63.13-4.72,94.3-8.65,31.22-3.56,62.36-7.4,92.91-12.77,61-10.07,121.29-24.33,173.4-45.56,25.92-10.54,49.32-23.22,65.74-36A117.12,117.12,0,0,0,1980.82,914c3.27-4.23,3.87-5.11,4.74-5.69.71-.56,1.59-2.44-.66-8-2.16-5.36-7.34-13.06-14.59-21-15.19-16.13-37.55-33.16-63-47.59-32.88-19.12-69.64-35.53-108.1-49.81l46.28-124.62c42.47,10.34,85,23.51,127.8,41.75,35.09,15.36,70.78,34.13,105.55,63.56,17.21,15.25,34.41,33.26,49,57.26C2142.43,843.53,2153.7,875,2154.33,908.33ZM1818.76,145.74c-68.22,0-139.53,20.16-139.53,74.41v1.56c0,49.61,51.16,58.91,21.7,148.83l-68.21,210.85L1524.19,232.56c-20.15-68.21-32.56-86.82-102.32-86.82-68.22,0-80.62,24.8-96.13,69.77L1195.52,596.89l-80.61-237.2c-23.27-69.76,24.8-94.57,24.8-147.28V209.3c0-57.36-105.43-63.56-218.61-63.56-139.53,0-207.74,20.16-207.74,79.07v3.1c0,68.21,68.21,96.12,97.67,169L987.77,821.7c27.91,66.66,55.81,88.37,138,88.37,86.82,0,96.12-37.21,124-111.63l91.47-235.65,86.82,258.91c23.25,68.21,49.61,88.37,131.79,88.37,85.26,0,97.67-37.21,125.58-111.63L1842,376.75c27.91-72.88,107-107,107-159.69v-1.55C1949,165.9,1882.33,145.74,1818.76,145.74Z"/></g></svg>