<svg id="Layer_1" data-name="Layer 1" xmlns="http://www.w3.org/2000/svg" viewBox="0 0 386 2966"><defs><style>.cls-1{fill:#161617;}.cls-2{fill:#fff;}.cls-3{fill:#231f20;}.cls-4{fill:none;stroke:#000;stroke-miterlimit:10;stroke-width:1.05px;}</style></defs><path class="cls-1" d="M205,1914.23l-79.72,79.64,51.06,51.06,32.58-32.58L256,1965.28Zm-2.47,13,6.55,6.56-6.55,6.57-4.55,4.54-6.56-6.57Zm-18.36,18.35,6.56,6.56-6.56,6.57-4.54,4.55-6.56-6.57Zm-36.7,49.84-4.54,4.54-6.57-6.56,11.11-11.11,6.56,6.56Zm13.8-13.82-6.56-6.56,11.11-11.11,6.56,6.57-6.57,6.56Zm20.27,47.89L177,2034l-6.56-6.55,11.11-11.11,6.55,6.56Zm18.35-18.36-4.54,4.55-6.56-6.57L199.87,1998l6.54,6.57Zm18.35-18.36-4.54,4.55-6.56-6.56,11.11-11.11,6.56,6.57ZM232,1979l-6.57-6.56,11.11-11.11,6.56,6.56-6.56,6.57Z"/><polygon class="cls-2" points="163.72 1955.44 255.94 1965.29 204.97 1914.23 163.72 1955.44"/><path class="cls-1" d="M192.5,1824.57l-79.72,79.64,51.06,51.06,32.58-32.58,47.06-47.06Zm-2.46,13,6.54,6.56-6.55,6.56-4.55,4.54-6.55-6.56Zm-18.36,18.35,6.56,6.56-6.57,6.56-4.54,4.55-6.56-6.57ZM135,1905.74l-4.54,4.54-6.57-6.56L135,1892.61l6.55,6.56Zm13.81-13.81-6.56-6.57,11.11-11.1,6.56,6.56-6.57,6.57ZM169,1939.81l-4.54,4.54-6.56-6.56,11.11-11.11,6.55,6.56Zm18.35-18.36-4.54,4.55-6.56-6.57,11.11-11.1,6.55,6.56Zm18.35-18.35-4.54,4.54-6.56-6.55L205.75,1890l6.56,6.57Zm13.81-13.81-6.56-6.56,11.11-11.11,6.55,6.56-6.56,6.57Z"/><path class="cls-2" d="M178.66,650.77c-3,.69-6.77,1.6-11.29,2.77.09,1.28.16,2.56.16,3.87a51.4,51.4,0,0,1-2.38,15.52,15.18,15.18,0,0,0,9.19,3.16,10.07,10.07,0,0,0,1.95-.32,63.28,63.28,0,0,0,2.37-25Z"/><path class="cls-2" d="M153.76,692.6a51.95,51.95,0,1,1-61.43-81.66A91.23,91.23,0,0,1,94,597.72,63.44,63.44,0,1,0,167.38,694,103,103,0,0,1,153.76,692.6Z"/><path class="cls-2" d="M147.77,602.77c-.38,4.78-.47,9.4-.41,13.58A52.56,52.56,0,0,1,157.69,627l12.55-1.75A64,64,0,0,0,147.77,602.77Z"/><path class="cls-1" d="M187.1,695.84s20.83-1.3,33-24c.18,18.23-7.3,53.6-8.38,57.88-5.71,22.6-35.61,24-41.44,19.17C171.81,742.3,187.1,695.84,187.1,695.84ZM92.77,646.6c-10.33,9.2-4.63,40.36.7,34.15,2.87-3.35,7.24-9.24,13.1-13.4a91.1,91.1,0,0,1-11.43-22A8.45,8.45,0,0,0,92.77,646.6Zm222.06-32.1c-3.16-1.37-108.16,12.21-163.15,20,.44,6.61,2,10.84,3.37,15.54,16.11-4.44,38.57-10.08,39-7.44,6.49,39.92-19.71,40-19.71,40-27.14,0-32.19-47.21-32.19-47.21s-12.7-84.5,39.37-84.5c0,0,13.52.09,22.32,4.85a9.68,9.68,0,1,0,7.56,1.8v-.13s-10.82-12.57-37.63-12.57c0,0-75.07,0-75.07,72.42,0,0-.91,70.15,72.8,70.15,15.48,0,51.27-8.28,51.27-49.78,0,0,31.81-9.11,93.08-14.11C315.85,623.57,318.14,615.94,314.83,614.5Z"/><polygon class="cls-1" points="273.7 999.07 273.7 999.13 263.73 1029.58 230.12 1029.58 230.12 1051.37 256.69 1051.37 247.17 1073.16 230.12 1073.16 230.12 1112.38 190.9 1112.38 190.9 1029.58 169.11 1029.58 169.11 1112.38 134.25 1112.38 134.25 1029.58 105.01 1029.58 95.03 999.13 95.03 999.07 273.7 999.07"/><polygon class="cls-2" points="134.25 1154.67 182.19 1172.72 230.12 1153.96 230.12 1134.17 134.25 1134.17 134.25 1154.67"/><rect class="cls-2" x="165.49" y="1484" width="90.67" height="16.34"/><path class="cls-3" d="M283.44,1396.5H118.64s-7.73,0-7.73,7.36v20.72c-.9.08-1.83.16-2.76.26-4.9.57-15.1,1.74-17.14,9.87-.93,3.76-7.16,48.09-5.79,79l-.21.18c-7.3,6.67-7.89,16.76-7.89,28.29,0,17.43,1.83,31.77,5.43,42.6,3.24,9.75,7.94,16.55,13.59,19.68,7.63,4.2,19.76,4.62,22.11,4.66h0c2.35-.05,14.47-.46,22.1-4.66a24.58,24.58,0,0,0,8.55-8.7h78.58a8.17,8.17,0,0,0,6.41-3.08l54-67.89a21.56,21.56,0,0,0,3.66-12v-108S291.59,1396.5,283.44,1396.5Zm-176.32,45.86a76.16,76.16,0,0,1,11.14-.93,76.55,76.55,0,0,1,11.15.93c1.7,11.4,5.8,45.75,4.74,70.38a105.06,105.06,0,0,1-15.88.9,105.29,105.29,0,0,1-15.9-.9C101.32,1488,105.42,1453.74,107.12,1442.36Zm30.54,137c-2.3,6.93-4.87,9.64-5.58,10-2.58,1.43-9.19,2.42-13.79,2.53-4.66-.11-11.27-1.1-13.84-2.52-.71-.41-3.28-3.11-5.58-10-2.08-6.23-4.56-17.74-4.56-37.18,0-5.28.16-10.4,1.11-13.41,4.75,1.32,11.88,2,21.74,2h2.22c9.83,0,17-.71,21.73-2,.95,3,1.1,8.13,1.1,13.41C142.21,1561.63,139.74,1573.16,137.66,1579.4Zm98.05-15.17v-38.69h30.78Zm39.56-55H227.52a8.19,8.19,0,0,0-8.17,8.17v2.06h0v.19h-48V1536h48v43.49H155.52c2.57-10,3.89-22.51,3.89-37.23,0-11.54-.6-21.62-7.89-28.29l-.21-.17c1.39-31.12-4.86-75.32-5.8-79-2-8.14-12.22-9.31-17.19-9.88-1.13-.13-2.24-.22-3.32-.3V1412.6l150.27,0Z"/><rect class="cls-2" x="160.46" y="1447.63" width="95.69" height="16.35"/><path class="cls-1" d="M206.73,198.57a4.4,4.4,0,0,0-4.4-4.39h-5.85a4.39,4.39,0,0,0-4.39,4.41V214.4l-14.25-18.48a4.42,4.42,0,0,0-3.48-1.72h-6.65a4.4,4.4,0,0,0-4.4,4.4l0,35.83a4.42,4.42,0,0,0,4.4,4.4h5.92a4.4,4.4,0,0,0,4.39-4.4v-15.7l14.19,18.37a4.44,4.44,0,0,0,3.48,1.71h6.65a4.4,4.4,0,0,0,4.39-4.41Z"/><rect class="cls-2" x="176.58" y="290.29" width="16.58" height="25.36" rx="2.23"/><rect class="cls-2" x="176.91" y="99.61" width="16.58" height="25.36" rx="2.23"/><rect class="cls-2" x="107.99" y="263.71" width="25.36" height="16.58" rx="2.23" transform="translate(-157.09 165.25) rotate(-45.05)"/><rect class="cls-2" x="243.05" y="129.11" width="25.36" height="16.58" rx="2.23" transform="translate(-22.19 221.3) rotate(-45.05)"/><rect class="cls-2" x="242.68" y="259.21" width="16.58" height="25.36" rx="2.23" transform="translate(-118.76 257.4) rotate(-45.05)"/><rect class="cls-2" x="107.39" y="124.84" width="16.58" height="25.36" rx="2.23" transform="translate(-63.37 122.23) rotate(-45.05)"/><rect class="cls-2" x="76.35" y="197.23" width="25.36" height="16.58" rx="2.23"/><rect class="cls-2" x="267.02" y="197.55" width="25.36" height="16.58" rx="2.23"/><path class="cls-1" d="M258.44,192a76.4,76.4,0,0,0-11-25.45c-9.19-13.6-27.25-29.8-61-29.8h-.09c-33.71,0-52.49,16.15-62.3,29.67a80.13,80.13,0,0,0-12.18,25.4,5,5,0,0,0,2.86,6l7.65,3.29a5.22,5.22,0,0,0,2,.4,61.31,61.31,0,0,0-1.37,13,62.1,62.1,0,0,0,62,62h.05a62,62,0,0,0,60.49-75.55,5.07,5.07,0,0,0,1.76-.28l7.88-2.8A5,5,0,0,0,258.44,192Zm-72.09-38.67h.08c22.62,0,36.26,8.82,44.43,18.66-10.85-4.84-25.39-8.59-44.38-8.59h-.12c-19.37,0-34.47,3.92-45.83,8.87C149.27,162.26,163.48,153.3,186.35,153.29Zm30.86,93.23a45.17,45.17,0,0,1-32.13,13.34h0a45.44,45.44,0,0,1-35.91-73.3c9.25-3.71,21.49-6.61,37.24-6.62h.11c14.08,0,25.08,2.31,33.52,5.43a45.45,45.45,0,0,1-2.79,61.15Z"/><path class="cls-1" d="M93.88,2917.44v-3.31l14.3-6.64V2798l-13.68-8.92v-3.32l45.61-13.47h3.31l1.66,12.65h.83q14.51-12.64,29.86-12.65,12.63,0,23.32,12.44t10.67,33.79q0,24.46-14.82,38.87t-34.1,14.41a60.71,60.71,0,0,1-15.34-1.66v37.31l17,6.64v3.31ZM155,2791.2a14.29,14.29,0,0,0-4.87.72,37.84,37.84,0,0,0-4.66,2.18V2855c1.52,3.6,4.62,5.39,9.33,5.39q5.79,0,11.71-6.73t5.91-29.55q0-16.79-5.71-24.87T155,2791.2Z"/><polygon class="cls-2" points="274.85 2789.87 239.14 2789.87 239.14 2739.23 186.46 2739.23 186.46 2707.89 274.85 2707.89 274.85 2789.87"/><path class="cls-2" d="M202.77,2306v13.65c50.65,8.77,89.33,52.92,89.33,106a107.74,107.74,0,0,1-215.47,0c0-53.12,38.68-97.27,89.33-106V2306c-58.12,8.92-102.83,59.11-102.83,119.69a121.24,121.24,0,1,0,242.47,0C305.6,2365.11,260.89,2314.92,202.77,2306Z"/><polygon class="cls-1" points="175.12 2342.55 184.37 2336.14 193.61 2342.55 193.61 2295.65 210.41 2295.65 210.41 2280 193.61 2280 193.61 2263.18 175.12 2263.18 175.12 2280 158.32 2280 158.32 2295.65 175.12 2295.65 175.12 2342.55"/><path class="cls-1" d="M175.88,2521.52c2.75.19,5,.27,7.22.27,3.13,0,6.42-.16,9.77-.47l.74-.07v-37.83h7.95a.57.57,0,0,0,.57-.57v-14.51a.56.56,0,0,0-.57-.57h-7.95V2397a2.27,2.27,0,0,0-1-1.87l-7.94-5.5a.56.56,0,0,0-.65,0l-7.94,5.5a2.27,2.27,0,0,0-1,1.87v70.75h-8a.56.56,0,0,0-.57.57v14.51a.57.57,0,0,0,.57.57h8v38Z"/><path class="cls-1" d="M214.05,2517.11a104.41,104.41,0,0,0,14.11-5.56l.46-.23V2387a4.58,4.58,0,0,0-2-3.76l-42-29.05a.56.56,0,0,0-.65,0l-42,29.05a4.58,4.58,0,0,0-2,3.76v125.47l.48.22a105.38,105.38,0,0,0,14.12,5.14l1,.29V2392.81l28.6-19.8,28.61,19.8v124.63Z"/><path class="cls-1" d="M246.67,2500.63a37.64,37.64,0,0,0,14.18-29.69v-28.05a29.82,29.82,0,0,0-14.41-25.45l-1.24-.75v51.08h-5.84a.56.56,0,0,0-.57.57v14.51a.57.57,0,0,0,.57.57h5.84v18.35Z"/><path class="cls-1" d="M122.06,2500.63a37.64,37.64,0,0,1-14.18-29.69v-28.05a29.82,29.82,0,0,1,14.41-25.45l1.24-.75v51.08h5.84a.56.56,0,0,1,.57.57v14.51a.57.57,0,0,1-.57.57h-5.84v18.35Z"/><path d="M25.29,40.84V60.19H22.78v-15l-3.63,0V43.74l.65-.21a10,10,0,0,0,2.24-1,6.35,6.35,0,0,0,1.58-1.43l.24-.29Z"/><path d="M31.91,60.45a1.62,1.62,0,0,1-1.22-.51,1.73,1.73,0,0,1,0-2.39,1.7,1.7,0,0,1,2.92,1.2A1.68,1.68,0,0,1,33.13,60,1.64,1.64,0,0,1,31.91,60.45Z"/><line class="cls-4" x1="16" y1="14.16" x2="377.94" y2="13.64"/><path d="M20.22,494.1v-1.8l4.24-3.93,3.12-2.89a12.53,12.53,0,0,0,2.11-2.42,4.69,4.69,0,0,0,.76-2.58,3.36,3.36,0,0,0-.57-2,3.64,3.64,0,0,0-1.43-1.24,4.1,4.1,0,0,0-1.82-.44,4.29,4.29,0,0,0-2,.42,3.33,3.33,0,0,0-1.2,1,4.24,4.24,0,0,0-.6,1.23,6.84,6.84,0,0,0-.24,1.45H20.12a8.9,8.9,0,0,1,.22-1.68,7.51,7.51,0,0,1,.56-1.55A5.74,5.74,0,0,1,22,476.16a5.43,5.43,0,0,1,1.86-1.2,7.18,7.18,0,0,1,2.78-.47,7.2,7.2,0,0,1,3.13.69A5.51,5.51,0,0,1,33,480.42a5.9,5.9,0,0,1-.88,3.18,13.78,13.78,0,0,1-2.31,2.79l-3.14,2.93L24,491.77h9.42v2.33Z"/><path d="M38.87,494.36a1.61,1.61,0,0,1-1.22-.51,1.73,1.73,0,0,1,0-2.39,1.71,1.71,0,1,1,1.22,2.9Z"/><line class="cls-4" x1="16" y1="448.07" x2="377.94" y2="447.55"/><path d="M26.6,928.27a8.25,8.25,0,0,1-3.23-.65,5.53,5.53,0,0,1-3.44-5.41h2.43A3.68,3.68,0,0,0,23,924.4a3.62,3.62,0,0,0,1.59,1.28,5.13,5.13,0,0,0,2,.42,4.89,4.89,0,0,0,2.07-.43,3.66,3.66,0,0,0,1.51-1.27,3.43,3.43,0,0,0,.58-2,3.11,3.11,0,0,0-1-2.45A4,4,0,0,0,27,919H24.4v-2H27a3.66,3.66,0,0,0,2.42-.84,2.81,2.81,0,0,0,1-2.27,3,3,0,0,0-.54-1.8A3.74,3.74,0,0,0,28.5,911a4.36,4.36,0,0,0-1.9-.42,4.26,4.26,0,0,0-1.87.43,3.69,3.69,0,0,0-1.48,1.3,3.9,3.9,0,0,0-.57,2.19H20.3a5.62,5.62,0,0,1,3.31-5.4,7.23,7.23,0,0,1,3-.66,7.32,7.32,0,0,1,3.05.64A5.83,5.83,0,0,1,32,910.87a4.62,4.62,0,0,1,.88,2.84,4.34,4.34,0,0,1-2.77,4.21v.13a4.79,4.79,0,0,1,2.28,1.59,4.43,4.43,0,0,1,.89,2.83,5.23,5.23,0,0,1-.94,3.11,6.11,6.11,0,0,1-2.46,2A7.87,7.87,0,0,1,26.6,928.27Z"/><path d="M39.1,928.27a1.59,1.59,0,0,1-1.21-.51,1.7,1.7,0,0,1,0-2.39,1.61,1.61,0,0,1,1.21-.5,1.64,1.64,0,0,1,1.22.5,1.66,1.66,0,0,1,.48,1.2,1.68,1.68,0,0,1-.48,1.21A1.63,1.63,0,0,1,39.1,928.27Z"/><line class="cls-4" x1="16" y1="881.98" x2="377.94" y2="881.46"/><path d="M29,1361.92v-4.5l-9.47,0v-2.33l8.89-12.5h3.14v12.63h3.37v2.22H31.57v4.5Zm-6.83-6.72H29v-9.62Z"/><path d="M40.41,1362.18a1.62,1.62,0,0,1-1.22-.51,1.73,1.73,0,0,1,0-2.39,1.7,1.7,0,0,1,2.92,1.2,1.68,1.68,0,0,1-.48,1.21A1.64,1.64,0,0,1,40.41,1362.18Z"/><line class="cls-4" x1="16" y1="1315.89" x2="377.94" y2="1315.37"/><path d="M26.6,1796.09a8.06,8.06,0,0,1-2.81-.43,5.69,5.69,0,0,1-1.91-1.11,5.79,5.79,0,0,1-1.18-1.44,6.73,6.73,0,0,1-.62-1.44,8.76,8.76,0,0,1-.3-1.54h2.4a5.53,5.53,0,0,0,.33,1.32,4.3,4.3,0,0,0,.69,1.13,3.73,3.73,0,0,0,1.3.94,5.06,5.06,0,0,0,2.1.38,4.44,4.44,0,0,0,2.51-.66,4.12,4.12,0,0,0,1.49-1.67,4.87,4.87,0,0,0,.5-2.14,5.14,5.14,0,0,0-.5-2.21,4.07,4.07,0,0,0-3.89-2.4,4.27,4.27,0,0,0-1.89.37,3.81,3.81,0,0,0-1.19.84,5.55,5.55,0,0,0-.8,1.2H20.32l1.52-10.75H32.25v2.27h-8.5L23,1784.3H23a6.56,6.56,0,0,1,.8-.72,4.56,4.56,0,0,1,1.27-.65,5.81,5.81,0,0,1,2-.28,6.27,6.27,0,0,1,3.59,1,6.51,6.51,0,0,1,2.18,2.51,7.25,7.25,0,0,1,.74,3.23,7.16,7.16,0,0,1-.43,2.46,6.44,6.44,0,0,1-1.29,2.16,6.26,6.26,0,0,1-2.17,1.53A7.68,7.68,0,0,1,26.6,1796.09Z"/><path d="M39.1,1796.09a1.59,1.59,0,0,1-1.21-.51,1.7,1.7,0,0,1,0-2.39,1.61,1.61,0,0,1,1.21-.5,1.64,1.64,0,0,1,1.22.5,1.75,1.75,0,0,1,0,2.41A1.63,1.63,0,0,1,39.1,1796.09Z"/><line class="cls-4" x1="16" y1="1749.8" x2="377.94" y2="1749.28"/><path d="M27.31,2230a7,7,0,0,1-3.23-.7,6.18,6.18,0,0,1-2.26-2,8.64,8.64,0,0,1-1.33-2.84,13.07,13.07,0,0,1-.43-3.34,15,15,0,0,1,.32-3,13.18,13.18,0,0,1,1-3,8.77,8.77,0,0,1,1.78-2.57,8.14,8.14,0,0,1,2.69-1.82,9.19,9.19,0,0,1,3.7-.68,11.89,11.89,0,0,1,1.53.09,13.64,13.64,0,0,1,1.53.3v2.35c-.63-.14-1.18-.24-1.66-.3a11.64,11.64,0,0,0-1.45-.09,6.8,6.8,0,0,0-2.73.49,5.67,5.67,0,0,0-1.91,1.28,6.48,6.48,0,0,0-1.23,1.72,8.31,8.31,0,0,0-.67,1.83,7.94,7.94,0,0,0-.23,1.56,4.4,4.4,0,0,1,.73-.86,5.06,5.06,0,0,1,1.54-1,6.36,6.36,0,0,1,2.54-.44,6.31,6.31,0,0,1,3.55.93,5.92,5.92,0,0,1,2.14,2.39,7.06,7.06,0,0,1,0,6.21,6.16,6.16,0,0,1-2.19,2.46A6.61,6.61,0,0,1,27.31,2230Zm-.06-2.19a4.56,4.56,0,0,0,2-.47,4,4,0,0,0,1.57-1.43,4.34,4.34,0,0,0,.61-2.37,4.44,4.44,0,0,0-.61-2.39,4,4,0,0,0-1.57-1.42,4.51,4.51,0,0,0-4,0,3.86,3.86,0,0,0-1.56,1.42,4.36,4.36,0,0,0-.62,2.39,4.26,4.26,0,0,0,.62,2.37,3.89,3.89,0,0,0,1.56,1.43A4.55,4.55,0,0,0,27.25,2227.81Z"/><path d="M39.63,2230a1.64,1.64,0,0,1-1.22-.5,1.71,1.71,0,0,1-.48-1.2,1.66,1.66,0,0,1,.48-1.2,1.73,1.73,0,0,1,2.43,0,1.73,1.73,0,0,1,0,2.41A1.62,1.62,0,0,1,39.63,2230Z"/><line class="cls-4" x1="16" y1="2183.71" x2="377.94" y2="2183.19"/><path d="M22.83,2663.65a22.86,22.86,0,0,1,.66-4.77,25.81,25.81,0,0,1,1.44-4.22,31.69,31.69,0,0,1,1.8-3.55c.63-1.05,1.23-2,1.79-2.73s1-1.37,1.4-1.81H19.54v-2.27H32.85v1.91c-.7.78-1.32,1.54-1.87,2.27a31.93,31.93,0,0,0-3.53,6.16,27,27,0,0,0-1.42,4.21,23,23,0,0,0-.68,4.8Z"/><path d="M37.38,2663.91a1.61,1.61,0,0,1-1.22-.51,1.73,1.73,0,0,1,0-2.39,1.71,1.71,0,1,1,1.22,2.9Z"/><line class="cls-4" x1="16" y1="2617.62" x2="377.94" y2="2617.1"/><rect class="cls-2" x="171" y="1519.5" width="48" height="17"/></svg>