<svg id="Layer_1" data-name="Layer 1" xmlns="http://www.w3.org/2000/svg" viewBox="0 0 386 2966"><defs><style>.cls-1{fill:#161617;}.cls-2{fill:#fff;}.cls-3{fill:none;stroke:#000;stroke-miterlimit:10;stroke-width:1.05px;}</style></defs><polygon class="cls-1" points="207.39 658.45 200.42 651.47 186.64 665.25 172.87 651.47 165.9 658.45 186.64 679.2 186.64 679.2 186.64 679.2 207.39 658.45"/><path class="cls-1" d="M244.57,707.87a73.75,73.75,0,1,1,0-89.74l.2.26,28-10.61a102.8,102.8,0,1,0,0,110.44l-28-10.61Z"/><path class="cls-2" d="M186.06,591.41A71.59,71.59,0,1,0,242,707.7l-27.34-10.37a44.7,44.7,0,1,1,0-68.66L242,618.3A71.09,71.09,0,0,0,186.06,591.41Z"/><path class="cls-1" d="M192.7,1099.86s4.09-13.3-9.21-13.3-46.56,75.21-2.05,75.21c0,0,25.58,4.61,24.57-21,0,0,.84-11.85-17.4-20.47C168.11,1110.65,184,1083.49,192.7,1099.86Z"/><path class="cls-2" d="M182.1,1082.69s-2.48-1.52-2.48-5.92,2.82-4.33,2.82-4.33,2.89.14,2.62,4.88A6.32,6.32,0,0,1,182.1,1082.69Z"/><path class="cls-2" d="M145.7,1034.27s-7.73.31-14.24-9.45-.15-13.79-.15-13.79,6.59-3.95,13,7C149.73,1027.19,145.7,1034.27,145.7,1034.27Z"/><path class="cls-2" d="M74.45,1143.64s-1.64,5.46-9.14,6.88-8.46-4.27-8.46-4.27-.85-5.83,7.34-6.82A11,11,0,0,1,74.45,1143.64Z"/><path class="cls-2" d="M81.71,1135.85s-.86,2.85-4.78,3.59-4.41-2.23-4.41-2.23-.45-3,3.83-3.57A5.74,5.74,0,0,1,81.71,1135.85Z"/><path class="cls-2" d="M86.61,1124.41s-2.18,4.18-8.49,4.17-6.21-4.79-6.21-4.79.21-4.87,7-4.4A9,9,0,0,1,86.61,1124.41Z"/><path class="cls-2" d="M65.3,1127.67s-1.08,3.59-6,4.52-5.57-2.81-5.57-2.81-.56-3.84,4.83-4.49A7.22,7.22,0,0,1,65.3,1127.67Z"/><path class="cls-2" d="M76.55,1110.89s-1.4,4.67-7.82,5.89-7.23-3.65-7.23-3.65-.74-5,6.27-5.84A9.36,9.36,0,0,1,76.55,1110.89Z"/><path class="cls-2" d="M70,1096.1s-1.58,5.26-8.81,6.63-8.14-4.11-8.14-4.11-.82-5.62,7-6.57A10.57,10.57,0,0,1,70,1096.1Z"/><path class="cls-2" d="M67.59,1084s-4.42,2.48-10.1-1.25-2.77-8-2.77-8,3.06-4.25,8.91.16A9.78,9.78,0,0,1,67.59,1084Z"/><path class="cls-2" d="M84.72,1076.57s-7.34,2.81-15.22-4.19S67,1059.55,67,1059.55s5.66-5.86,13.64,2.25A15.15,15.15,0,0,1,84.72,1076.57Z"/><path class="cls-2" d="M65.86,1054.13s-6.13,1-11.11-5.64.13-10.32.13-10.32,5.29-3.64,10.19,3.9A11.94,11.94,0,0,1,65.86,1054.13Z"/><path class="cls-2" d="M88.16,1056.46s-4.57,1.92-9.67-2.34-1.82-8-1.82-8,3.45-3.8,8.65,1.15A9.56,9.56,0,0,1,88.16,1056.46Z"/><path class="cls-2" d="M98.54,1045.1s-7,1-12.47-6.63.35-11.69.35-11.69,6.08-4,11.47,4.63A13.55,13.55,0,0,1,98.54,1045.1Z"/><path class="cls-2" d="M119.7,1037.79s-5.61.61-9.79-5.68.63-9.36.63-9.36,5-3,9,4.06A10.85,10.85,0,0,1,119.7,1037.79Z"/><path class="cls-2" d="M156.79,1016.08s-3.84-.57-5.53-5.5,2.06-6.13,2.06-6.13,3.86-1.14,5.32,4.29A7.48,7.48,0,0,1,156.79,1016.08Z"/><path class="cls-2" d="M172.37,1006.68s-6.7-1.92-8.55-11.09,5.1-10.41,5.1-10.41,7.13-1.13,8.46,8.87A13.43,13.43,0,0,1,172.37,1006.68Z"/><path class="cls-2" d="M182.66,1027.84s-5.49-1.29-7.34-8.62,3.71-8.61,3.71-8.61,5.71-1.2,7.18,6.83A10.87,10.87,0,0,1,182.66,1027.84Z"/><path class="cls-2" d="M185.88,1006.45s-3.75-2.41-3.2-8.34,5-5.43,5-5.43,4.55.61,3.54,7A8.57,8.57,0,0,1,185.88,1006.45Z"/><path class="cls-2" d="M200.14,1017.76s-6.24-4.26-5-14.31,8.79-9,8.79-9,7.71,1.26,5.69,12A14.55,14.55,0,0,1,200.14,1017.76Z"/><path class="cls-2" d="M208.74,1033s-4.19-3.77-2.3-11.09,7.39-5.77,7.39-5.77,5.58,1.69,3,9.44A10.87,10.87,0,0,1,208.74,1033Z"/><path class="cls-2" d="M222.05,1043.69s-4.2-3.77-2.31-11.08,7.39-5.78,7.39-5.78,5.58,1.7,3,9.45A10.86,10.86,0,0,1,222.05,1043.69Z"/><path class="cls-2" d="M233.77,1023.81s-3.47-3.11-1.9-9.15,6.1-4.77,6.1-4.77,4.62,1.4,2.5,7.8A9,9,0,0,1,233.77,1023.81Z"/><path class="cls-2" d="M241.55,1039.57s-4-5-.39-12.88,9.42-5,9.42-5,5.92,3,1.52,11.17A12.38,12.38,0,0,1,241.55,1039.57Z"/><path class="cls-2" d="M257,1018.84s-1.82-2.2-.32-5.73,4.13-2.34,4.13-2.34,2.67,1.27.81,5A5.52,5.52,0,0,1,257,1018.84Z"/><path class="cls-2" d="M260.1,1034.86s-3.11-2.79-1.71-8.21,5.47-4.26,5.47-4.26,4.13,1.25,2.23,7A8,8,0,0,1,260.1,1034.86Z"/><path class="cls-2" d="M251.44,1050.09s-2.81-4.06.28-9.91,7.47-3.42,7.47-3.42,4.42,2.57.66,8.65A9.51,9.51,0,0,1,251.44,1050.09Z"/><path class="cls-2" d="M267.41,1049.51s-3.16-5.59,1.52-12.78,10.06-3.55,10.06-3.55,5.4,3.85-.17,11.27A12.34,12.34,0,0,1,267.41,1049.51Z"/><path class="cls-2" d="M270,1071.15s-2.09-7.44,5.48-14.5,12.77-1.24,12.77-1.24,5.21,6.06-3.44,13.13A14.87,14.87,0,0,1,270,1071.15Z"/><path class="cls-2" d="M287.12,1074.78s-1-3.87,3-7.46,6.62-.53,6.62-.53,2.64,3.18-1.9,6.76A7.69,7.69,0,0,1,287.12,1074.78Z"/><path class="cls-2" d="M272.15,1092.4s0-5.81,6.9-9.38,9.49,1.68,9.49,1.68,2.54,5.44-5.15,8.8A11.16,11.16,0,0,1,272.15,1092.4Z"/><path class="cls-2" d="M291.52,1096.05s-1.12-4.44,3.47-8.51,7.59-.53,7.59-.53,3,3.67-2.25,7.72A8.8,8.8,0,0,1,291.52,1096.05Z"/><path class="cls-2" d="M288,1105.54s1.69-4.4,8-5.11,6.71,4,6.71,4,.35,4.87-6.47,5.18A9.06,9.06,0,0,1,288,1105.54Z"/><path class="cls-2" d="M278.78,1122.43s1.69-4.41,8-5.12,6.71,4,6.71,4,.35,4.86-6.47,5.18A9.08,9.08,0,0,1,278.78,1122.43Z"/><path class="cls-2" d="M276.64,1139.64s2.78-5.77,11.37-6,8.64,6.24,8.64,6.24-.08,6.63-9.35,6.28A12.33,12.33,0,0,1,276.64,1139.64Z"/><path class="cls-2" d="M93,1156.57s-2.25,7-12,8.68-10.85-5.73-10.85-5.73-1-7.58,9.66-8.67A14.23,14.23,0,0,1,93,1156.57Z"/><path class="cls-2" d="M92.05,1142s-1,3.36-5.64,4.24-5.21-2.63-5.21-2.63-.53-3.6,4.51-4.21A6.77,6.77,0,0,1,92.05,1142Z"/><path class="cls-2" d="M99.24,1131.56s-1.18,3.31-5.84,4-5.08-2.88-5.08-2.88-.35-3.62,4.72-4A6.78,6.78,0,0,1,99.24,1131.56Z"/><path class="cls-2" d="M98.29,1111.72s-3.55,4.45-11.05,3-6.25-7.12-6.25-7.12,1.38-5.73,9.35-3.59A11,11,0,0,1,98.29,1111.72Z"/><path class="cls-2" d="M88.44,1093.32s-3.54,4.38-10.92,2.87-6.13-7.07-6.13-7.07,1.4-5.64,9.25-3.48A10.81,10.81,0,0,1,88.44,1093.32Z"/><path class="cls-2" d="M108.26,1101.24s-2.24,2.71-6.84,1.7-3.78-4.45-3.78-4.45.92-3.52,5.8-2.12A6.77,6.77,0,0,1,108.26,1101.24Z"/><path class="cls-2" d="M112.81,1086.46s-4.87,5.27-14.12,2.72-7.2-9.49-7.2-9.49,2.26-7.07,12.06-3.65A13.76,13.76,0,0,1,112.81,1086.46Z"/><path class="cls-2" d="M117.91,1074.88s-2.37,2.6-6.92,1.39-3.56-4.63-3.56-4.63,1.08-3.48,5.9-1.84A6.75,6.75,0,0,1,117.91,1074.88Z"/><path class="cls-2" d="M108.69,1064.81s-3.84,4.22-11.22,2.26-5.78-7.51-5.78-7.51,1.75-5.63,9.56-3A11,11,0,0,1,108.69,1064.81Z"/><path class="cls-2" d="M119.93,1060.45s-7.16,2.23-14.22-4.9-1.57-12.36-1.57-12.36,5.73-5.22,12.83,3A14.41,14.41,0,0,1,119.93,1060.45Z"/><path class="cls-2" d="M135.23,1062.76s-3.77.69-6.9-3.38,0-6.35,0-6.35,3.23-2.29,6.31,2.31A7.35,7.35,0,0,1,135.23,1062.76Z"/><path class="cls-2" d="M138.12,1049.46s-5,.17-8.26-5.65,1.16-8.2,1.16-8.2,4.6-2.35,7.72,4.16A9.62,9.62,0,0,1,138.12,1049.46Z"/><path class="cls-2" d="M160.77,1056.56s-7.75.83-13.5-7.87.9-12.92.9-12.92,6.89-4.16,12.47,5.63A15,15,0,0,1,160.77,1056.56Z"/><path class="cls-2" d="M164.48,1037.53s-5.73-.33-8.86-7.34,2.21-9.27,2.21-9.27,5.5-2.19,8.38,5.59A11,11,0,0,1,164.48,1037.53Z"/><path class="cls-2" d="M174.53,1040s-3.34-1.54-3.56-6.46,3.5-5,3.5-5,3.8,0,3.69,5.31A7.09,7.09,0,0,1,174.53,1040Z"/><path class="cls-2" d="M183.76,1051.62s-4.21-3.36-2.81-10.42,6.71-5.9,6.71-5.9,5.41,1.31,3.4,8.82A10.37,10.37,0,0,1,183.76,1051.62Z"/><path class="cls-2" d="M193.48,1035.76s-4.2-3.36-2.81-10.42,6.71-5.9,6.71-5.9,5.41,1.3,3.4,8.81A10.35,10.35,0,0,1,193.48,1035.76Z"/><path class="cls-2" d="M200.65,1048.55s-4.21-3.35-2.81-10.42,6.71-5.9,6.71-5.9,5.4,1.3,3.39,8.81A10.37,10.37,0,0,1,200.65,1048.55Z"/><path class="cls-2" d="M211.73,1057.43s-3.5-2.8-2.33-8.69,5.59-4.92,5.59-4.92,4.51,1.09,2.83,7.36A8.63,8.63,0,0,1,211.73,1057.43Z"/><path class="cls-2" d="M219.94,1071.68s-4.59-5.06-1.4-13.64,9.62-6,9.62-6,6.51,2.74,2.46,11.75A13.16,13.16,0,0,1,219.94,1071.68Z"/><path class="cls-2" d="M234.44,1051s-3.1-2.48-2.07-7.71,5-4.37,5-4.37,4,1,2.51,6.52A7.66,7.66,0,0,1,234.44,1051Z"/><path class="cls-2" d="M239.19,1063.68s-2.95-4,0-10,7.39-3.67,7.39-3.67,4.52,2.45.93,8.67A9.55,9.55,0,0,1,239.19,1063.68Z"/><path class="cls-2" d="M254.41,1068s-2.55-4.73,1.52-10.68,8.49-2.78,8.49-2.78,4.45,3.32-.35,9.44A10.34,10.34,0,0,1,254.41,1068Z"/><path class="cls-2" d="M247.75,1092s-2.23-6.93,4.64-13.85,12-1.62,12-1.62,5.12,5.52-2.78,12.48A14,14,0,0,1,247.75,1092Z"/><path class="cls-2" d="M252.76,1103.18s-.54-5.36,5.5-9.29,8.91.68,8.91.68,2.84,4.78-3.94,8.59A10.36,10.36,0,0,1,252.76,1103.18Z"/><path class="cls-2" d="M266.49,1109.76s1.33-4.7,7.74-6,7.3,3.55,7.3,3.55.81,5-6.19,5.93A9.38,9.38,0,0,1,266.49,1109.76Z"/><path class="cls-2" d="M255.65,1129.58s3.1-6.36,12.58-6.59,9.5,6.94,9.5,6.94-.13,7.31-10.35,6.88A13.6,13.6,0,0,1,255.65,1129.58Z"/><path class="cls-2" d="M257.87,1149.26s1.5-5.16,8.57-6.55,8,4,8,4,.85,5.49-6.86,6.48A10.32,10.32,0,0,1,257.87,1149.26Z"/><path class="cls-2" d="M240,1085.39s-4.19-3.36-2.8-10.42,6.71-5.9,6.71-5.9,5.41,1.3,3.4,8.81A10.36,10.36,0,0,1,240,1085.39Z"/><path class="cls-2" d="M189.63,1071.63s-3-1.61-3-6.31,3.4-4.62,3.4-4.62,3.4.14,3.15,5.21S189.63,1071.63,189.63,1071.63Z"/><path class="cls-2" d="M200.3,1074.24s-5-4.11-3.22-12.86,8-7.35,8-7.35,6.27,1.54,3.93,10.88S200.3,1074.24,200.3,1074.24Z"/><path class="cls-2" d="M194.36,1054a3.75,3.75,0,0,1-.91-3.64c.5-2.47,2.28-2.08,2.28-2.08s1.78.44,1.12,3.08S194.36,1054,194.36,1054Z"/><path class="cls-2" d="M223.94,1084s-1.83-4.49,2.42-9.68,7.95-2,7.95-2,3.62,3.24-1.25,8.6S223.94,1084,223.94,1084Z"/><path class="cls-2" d="M206.55,1084.51s-1.83-4.49,2.41-9.68,7.95-2,7.95-2,3.62,3.25-1.24,8.62S206.55,1084.51,206.55,1084.51Z"/><path class="cls-2" d="M214.92,1093.46s-1.36-3.33,1.79-7.17,5.87-1.5,5.87-1.5,2.68,2.4-.91,6.38S214.92,1093.46,214.92,1093.46Z"/><path class="cls-2" d="M226.47,1102.21s-2.38-5.84,3.15-12.6S240,1087,240,1087s4.71,4.22-1.62,11.21S226.47,1102.21,226.47,1102.21Z"/><path class="cls-2" d="M237.91,1106.45s.05-4.07,5-6.69,6.81,1,6.81,1,1.74,3.7-3.78,6.25S237.91,1106.45,237.91,1106.45Z"/><path class="cls-2" d="M247.94,1112.13s1.6-3.75,7.21-4.27,5.89,3.54,5.89,3.54.2,4.08-5.86,4.34S247.94,1112.13,247.94,1112.13Z"/><path class="cls-2" d="M233.32,1119.52s1-3.67,6.14-4.84,5.9,2.56,5.9,2.56.68,3.75-4.9,4.74S233.32,1119.52,233.32,1119.52Z"/><path class="cls-2" d="M249.86,1124s.32-3.63,4.95-5.63,6,1.39,6,1.39,1.31,3.41-3.8,5.32S249.86,1124,249.86,1124Z"/><path class="cls-2" d="M239.44,1128.58s1.91-3,6.82-2.67,4.59,3.89,4.59,3.89-.4,3.54-5.68,2.92S239.44,1128.58,239.44,1128.58Z"/><path class="cls-2" d="M228.58,1140.59s2.38-4.22,9.09-4.1,6.52,5,6.52,5-.29,4.85-7.52,4.37S228.58,1140.59,228.58,1140.59Z"/><path class="cls-2" d="M247.19,1141.14s1.35-2.48,5.27-2.46,3.84,2.86,3.84,2.86-.14,2.83-4.36,2.6S247.19,1141.14,247.19,1141.14Z"/><path class="cls-2" d="M236.5,1153.5s1.8-3.37,7.07-3.4,5.22,3.78,5.22,3.78-.14,3.82-5.83,3.58S236.5,1153.5,236.5,1153.5Z"/><path class="cls-2" d="M116.35,1161.64s-1.42,4.44-7.58,5.48-6.85-3.62-6.85-3.62-.6-4.78,6.1-5.46A9,9,0,0,1,116.35,1161.64Z"/><path class="cls-2" d="M107,1151.4s-1.89,3.37-7,3.2-5-4-5-4,.29-4,5.84-3.43A7.43,7.43,0,0,1,107,1151.4Z"/><path class="cls-2" d="M105.92,1141.37s-2.21,2.61-6.68,1.61-3.64-4.37-3.64-4.37.92-3.41,5.66-2A6.61,6.61,0,0,1,105.92,1141.37Z"/><path class="cls-2" d="M123.71,1134.41s-1.08,5.45-8.22,7.53-8.61-3.35-8.61-3.35-1.37-5.58,6.48-7.31A10.69,10.69,0,0,1,123.71,1134.41Z"/><path class="cls-2" d="M129.62,1125.7s-1.78,3.88-7.49,4.15-5.83-4-5.83-4,0-4.41,6.15-4.29A8.19,8.19,0,0,1,129.62,1125.7Z"/><path class="cls-2" d="M114.16,1121.93s-.9,4.57-6.9,6.32-7.21-2.81-7.21-2.81-1.16-4.68,5.42-6.13A9,9,0,0,1,114.16,1121.93Z"/><path class="cls-2" d="M122.07,1118.65s-5.61,3-12.62-1.84-3.26-10-3.26-10,3.94-5.26,11.15.44A12.23,12.23,0,0,1,122.07,1118.65Z"/><path class="cls-2" d="M127.57,1097s-2.48,3.94-8.7,3.41-5.73-5.22-5.73-5.22.61-4.78,7.28-3.77A9,9,0,0,1,127.57,1097Z"/><path class="cls-2" d="M128.46,1086.05s-3,2.83-8.17,1-3.76-5.7-3.76-5.7,1.55-4,7-1.64A7.89,7.89,0,0,1,128.46,1086.05Z"/><path class="cls-2" d="M131.09,1075.42s-5.24,1.76-10.57-3.38-1.36-9.09-1.36-9.09,4.14-4,9.51,2A10.66,10.66,0,0,1,131.09,1075.42Z"/><path class="cls-2" d="M145.93,1086.64s-4.65-.3-7.16-6,1.85-7.52,1.85-7.52,4.49-1.76,6.78,4.58A9,9,0,0,1,145.93,1086.64Z"/><path class="cls-2" d="M154.14,1072.72s-6.2,1.27-11.53-5.31-.29-10.51-.29-10.51,5.26-3.91,10.53,3.57A12.18,12.18,0,0,1,154.14,1072.72Z"/><path class="cls-2" d="M168.15,1074.15s-4.55-1-6.17-7,3-7.16,3-7.16,4.7-1,6,5.56A9,9,0,0,1,168.15,1074.15Z"/><path class="cls-2" d="M171,1056.26s-3.38-.72-4.61-5.19,2.16-5.32,2.16-5.32,3.48-.81,4.49,4.09A6.64,6.64,0,0,1,171,1056.26Z"/><path class="cls-2" d="M179.86,1065.9s-3.92-1.39-4.68-6.9,3.41-6,3.41-6,4.28-.42,4.71,5.58A8,8,0,0,1,179.86,1065.9Z"/><path class="cls-2" d="M169.05,1094.58s-5.85.87-11.6-6-1.26-10.45-1.26-10.45,4.68-3.54,10.46,4.21C171.51,1088.86,169.05,1094.58,169.05,1094.58Z"/><path class="cls-2" d="M196.18,1100.73s-1.37-5.78,4.6-10.86,9.78-.42,9.78-.42,3.8,4.86-3,9.9A11.3,11.3,0,0,1,196.18,1100.73Z"/><path class="cls-2" d="M194.64,1120.53s-1-4.33,3.46-8.15,7.35-.31,7.35-.31,2.85,3.64-2.26,7.43A8.5,8.5,0,0,1,194.64,1120.53Z"/><path class="cls-2" d="M208.78,1108.6s-1.09-4.59,3.65-8.62,7.77-.33,7.77-.33,3,3.84-2.39,7.85A9,9,0,0,1,208.78,1108.6Z"/><path class="cls-2" d="M223.46,1113.87s-1-4.32,3.43-8.12,7.32-.31,7.32-.31,2.83,3.62-2.25,7.39A8.45,8.45,0,0,1,223.46,1113.87Z"/><path class="cls-2" d="M213.55,1121.5s.82-3.69,5.64-5,5.71,2.47,5.71,2.47.84,3.83-4.46,4.83A7.16,7.16,0,0,1,213.55,1121.5Z"/><path class="cls-2" d="M203.76,1126.18a5,5,0,0,1,3-4.19c3-1.6,4.22.76,4.22.76s1.15,2.43-2.23,3.93A4.93,4.93,0,0,1,203.76,1126.18Z"/><path class="cls-2" d="M206.73,1135s.13-4.06,5-6.34,6.53,1.49,6.53,1.49,1.63,3.88-3.76,6A7.73,7.73,0,0,1,206.73,1135Z"/><path class="cls-2" d="M221.62,1131.4s.83-3.52,5.46-4.65,5.43,2.45,5.43,2.45.73,3.67-4.33,4.55A6.88,6.88,0,0,1,221.62,1131.4Z"/><path class="cls-2" d="M209.33,1144.86s2.1-4.71,8.91-5.06,7,4.88,7,4.88.05,5.34-7.29,5.23A9.82,9.82,0,0,1,209.33,1144.86Z"/><path class="cls-2" d="M205.12,1155.78s1.93-2.52,6.06-1.76,3.48,3.93,3.48,3.93-.74,3.21-5.13,2.09A6.05,6.05,0,0,1,205.12,1155.78Z"/><path class="cls-2" d="M221.36,1156.44s2.4-3.12,7.51-2.18,4.31,4.87,4.31,4.87-.91,4-6.35,2.58A7.48,7.48,0,0,1,221.36,1156.44Z"/><path class="cls-2" d="M160.87,1106.22s-4.65,1.65-10.47-3.08-2.71-8.38-2.71-8.38,3.28-3.66,9.27,1.78C162,1101.13,160.87,1106.22,160.87,1106.22Z"/><path class="cls-2" d="M161.66,1116.85s-3.25,3.05-9.76,1.25-5.26-5.94-5.26-5.94,1.39-4.2,8.29-1.87C160.74,1112.25,161.66,1116.85,161.66,1116.85Z"/><path class="cls-2" d="M158.46,1156.46s-.9,3.19-6.18,5.07-6.23-1-6.23-1-.89-3,4.89-4.78C155.81,1154.24,158.46,1156.46,158.46,1156.46Z"/><path class="cls-2" d="M153.86,1145.08s-1.62,5.2-9.63,7.2-9.16-3.14-9.16-3.14-1.06-5.31,7.68-7C150.11,1140.74,153.86,1145.08,153.86,1145.08Z"/><path class="cls-2" d="M140.27,1159.88s-1.22,3.91-7.24,5.42-6.91-2.38-6.91-2.38-.79-4,5.79-5.25C137.45,1156.61,140.27,1159.88,140.27,1159.88Z"/><path class="cls-2" d="M130.78,1146.45s-1.14,5.76-8.69,8-9.08-3.54-9.08-3.54-1.45-5.89,6.83-7.71A11.29,11.29,0,0,1,130.78,1146.45Z"/><path class="cls-2" d="M138.49,1135.2s-1.33,3-6.3,3.71-5.33-2.51-5.33-2.51-.29-3.28,5.11-3.71A7.2,7.2,0,0,1,138.49,1135.2Z"/><path class="cls-2" d="M156.93,1136.31s-1.72,2.94-6.91,3-5.16-3.22-5.16-3.22.1-3.4,5.69-3.18C155.26,1133.12,156.93,1136.31,156.93,1136.31Z"/><path class="cls-2" d="M150.26,1128.93s-4.71,3.56-13,.27-6.11-8.56-6.11-8.56,2.41-5.35,11.2-1.31C149.69,1122.72,150.26,1128.93,150.26,1128.93Z"/><path class="cls-2" d="M143.49,1111.72s-4.45,3-11.86-.4-5.12-8.08-5.12-8.08,2.46-4.74,10.24-.63C143.28,1106.06,143.49,1111.72,143.49,1111.72Z"/><path class="cls-2" d="M143.36,1097.51s-4.25,1.73-9.86-2.39-2.88-7.65-2.88-7.65,2.87-3.54,8.67,1.24C144.16,1092.73,143.36,1097.51,143.36,1097.51Z"/><path class="cls-2" d="M177.46,1083.54s-2.14-.14-3.65-3,.35-3.81.35-3.81,1.86-.86,3.39,2.3A4.85,4.85,0,0,1,177.46,1083.54Z"/><path class="cls-2" d="M186.74,1083.09s-1-2.79,1.78-6.33,5-1.68,5-1.68,2.41,2.12-1,5.59A7.16,7.16,0,0,1,186.74,1083.09Z"/><path class="cls-1" d="M184.85,1162.48s2.56,15.84-1.36,19.77c-.34.34-1.88,3.74,3.07,1.53s9.72,2.91,10.23,1.71-9.38-12.57-9.38-23Z"/><path class="cls-1" d="M173.56,1162.48s-1.92,16.25,1,20.41c.26.36,1.42,3.69-2.31,1.34s-7.32,3.5-7.71,2.24,7.07-13.55,7.07-24Z"/><polygon class="cls-2" points="81.9 248.72 66.53 242.03 54.36 270.08 81.49 281.88 88.17 266.53 76.38 261.41 81.9 248.72"/><path class="cls-1" d="M172,204.1a12.34,12.34,0,0,1,6.25-1.32A21.62,21.62,0,0,1,196,210.9l9.33-12a35.75,35.75,0,0,0-12.27-8.07,43.89,43.89,0,0,0-15.24-2.39A38.7,38.7,0,0,0,162.9,191a21.11,21.11,0,0,0-9.52,7.28A18.24,18.24,0,0,0,150.11,209q0,6.42,3.36,10.3a21.08,21.08,0,0,0,8.44,5.84,74.79,74.79,0,0,0,12.55,3.35,42.72,42.72,0,0,1,8,2.05c1.65.69,2.47,1.61,2.47,2.79,0,2.74-2.83,4.1-8.48,4.11a28.35,28.35,0,0,1-10.87-1.91,22.19,22.19,0,0,1-8.35-6.3l-8.85,13.06a36.19,36.19,0,0,0,12.12,7.23q6.53,2.3,17.15,2.29a39.25,39.25,0,0,0,13.72-2.25,21.56,21.56,0,0,0,9.6-6.62,16.19,16.19,0,0,0,3.54-10.55,17.82,17.82,0,0,0-2.46-9.69,18.24,18.24,0,0,0-7.83-6.48,57.27,57.27,0,0,0-14.33-4.15,46.42,46.42,0,0,1-7.74-2c-1.55-.61-2.33-1.48-2.33-2.61A3.88,3.88,0,0,1,172,204.1Z"/><path class="cls-2" d="M174.06,306.8c-5.93,2.6-9.73,3.65-13.11,3.65h-.55a13.58,13.58,0,0,1-2.6-.36c-5-1.22-8.54-4.93-12-12.43l-16.08-35.27c-3.77-8.27-9.79-12.58-19.53-14l-1.4-.22.79-1.15c5.41-8.07,6.11-15.45,2.25-23.92L95.79,187.86c-3.43-7.5-3.9-12.64-1.56-17.19,2.19-4.25,6.85-7.12,13.16-10.14l1.51-.73-6.23-13.65-1.55.7C87.07,153.26,80,158.53,76.64,165.06c-3.78,7.44-2.76,16.69,3.31,30L96,230.33a18.29,18.29,0,0,1,1.13,8.61,11.66,11.66,0,0,1-5.49,9.11l-1.24.8,5.87,12.87,1.38-.34a13.33,13.33,0,0,1,3.74-.41,13,13,0,0,1,6.84,2.32,18.29,18.29,0,0,1,5.68,6.31L130,304.86c6.06,13.32,12.38,20.15,20.5,22.17a21.55,21.55,0,0,0,4.29.59l.94,0c6.16,0,13.73-2.21,24.56-7.14l1.55-.71-6.23-13.67Z"/><path class="cls-2" d="M261.14,209a18.08,18.08,0,0,1-1.05-8.29,12.69,12.69,0,0,1,5.51-9.39l1.17-.81-5.86-12.85-1.41.39a12.58,12.58,0,0,1-4,.51,11.87,11.87,0,0,1-6.63-2.4,18.19,18.19,0,0,1-5.67-6.42L227.16,134.5c-6.2-13.59-12.28-20.25-20.32-22.25-7.11-1.77-15.7.11-30,6.61l-1.54.71,6.22,13.67,1.54-.67c6.27-2.72,10.23-3.77,13.68-3.63a12.16,12.16,0,0,1,2.59.36c5,1.2,8.55,4.92,12,12.43L227.4,177c3.86,8.47,9.88,12.79,19.54,14l1.4.19-.77,1.18c-5.34,8.26-6,15.63-2.26,23.92l16.08,35.26c3.42,7.48,3.87,12.62,1.54,17.19-2.19,4.24-6.84,7.11-13.15,10.13l-1.51.72,6.23,13.65,1.55-.71c14-6.37,21.36-11.84,24.65-18.28,3.75-7.38,2.72-16.33-3.48-29.93Z"/><polygon class="cls-2" points="274.21 157.02 267.92 172.54 279.83 177.37 274.61 190.19 290.14 196.48 301.64 168.16 274.21 157.02"/><path class="cls-1" d="M221.7,302.09c-1.66,1.48-4.08,2.22-7.23,2.23q-11.73,0-11.74-17.42c0-5.8,1-10.14,3.09-13a10.18,10.18,0,0,1,8.84-4.35c3,0,5.33.72,6.9,2.13s2.71,4.06,3.4,7.89l16.75-6.7a20.46,20.46,0,0,0-9.55-13.58q-7.47-4.49-18.06-4.49a34.26,34.26,0,0,0-16.66,3.83,26.17,26.17,0,0,0-10.78,11.07,41.51,41.51,0,0,0,0,34.57A25.78,25.78,0,0,0,197.5,315.3a35.15,35.15,0,0,0,16.69,3.78q10.88,0,18.2-4.75t9.89-14.75L225.06,295C224.5,298.23,223.38,300.62,221.7,302.09Z"/><polygon class="cls-1" points="127.75 188.71 130.13 188.71 147.45 188.71 149.18 188.71 149.18 145.2 168.01 145.2 168.01 125.07 111.52 125.07 111.52 145.2 127.75 145.2 127.75 188.71"/><rect class="cls-1" x="91.28" y="1575.76" width="173.44" height="28.83"/><polygon class="cls-1" points="264.72 1488.77 91.28 1488.76 91.28 1459.92 177.94 1431.06 264.72 1459.93 264.72 1488.77"/><rect class="cls-1" x="91.28" y="1518.01" width="74.25" height="28.84"/><rect class="cls-1" x="190.47" y="1518.01" width="74.25" height="28.83"/><path class="cls-1" d="M268.14,2355.38c2.26-15.2-2.9-16.61-7.66-17.65-10.8-2.35-37.91,6-56.77,89-7.06,35.69-12.66,62.52,15.21,62.52,47.73,0,49.22-38,49.77-38s5.58-.68,5.58,4.39c0,34.13-49,43.39-49,43.39-62.3,12.41-83.62-44-83.62-67.51,0-33,21.36-106,106.66-106,2.57,0,35.45,2.78,30.17,28.62C275.31,2369.43,268.14,2355.38,268.14,2355.38Z"/><path class="cls-2" d="M92.74,2482.77c6.07,8.09,19.2,8.47,29.33.86s13.44-20.32,7.37-28.4-19.2-8.47-29.33-.86S86.68,2474.69,92.74,2482.77Z"/><path class="cls-2" d="M77.4,2416.17c2.36,9.84,14.26,15.4,26.58,12.45s20.4-13.31,18-23.14-14.25-15.4-26.57-12.45S75.05,2406.35,77.4,2416.17Z"/><path class="cls-2" d="M90.64,2340c-5,8.81,0,21,11,27.2s24,4.12,29-4.69,0-21-11-27.2S95.6,2331.16,90.64,2340Z"/><path class="cls-2" d="M139.35,2294.13c-8.21,5.89-8.87,19-1.48,29.31s20,13.85,28.25,8,8.86-19,1.48-29.31S147.56,2288.24,139.35,2294.13Z"/><path class="cls-1" d="M117.15,2787.1c13.47-12.83,29.4-23.43,46.82-29a102.55,102.55,0,0,1,26.46-4.75,123.18,123.18,0,0,1,13.18.19,84.71,84.71,0,0,1,13.08,1.72c17.19,3.82,32.7,12.45,46.48,23.4a90.67,90.67,0,0,0-175.36,32.41,93.46,93.46,0,0,0,.55,9.95A224.9,224.9,0,0,1,117.15,2787.1Z"/><path class="cls-1" d="M253.67,2791.65a61.34,61.34,0,0,0-17-15.72,56,56,0,0,0-21.72-7.75,68,68,0,0,0-23.11.59,68.88,68.88,0,0,0-21.31,7.8c-13.07,7.41-23.07,19-29.86,32.14s-10.68,28-12.24,43a153.71,153.71,0,0,0,1.11,38.84,90.65,90.65,0,0,0,138.68-63.11A79.64,79.64,0,0,0,253.67,2791.65Z"/><path class="cls-2" d="M182.25,1972.91a4.48,4.48,0,0,1-1.58,1.36,6.12,6.12,0,0,1-2,.65,14.62,14.62,0,0,1-2,.15h-3.54v-8.64h4.29a17,17,0,0,1,1.8.11,5.44,5.44,0,0,1,1.81.54,3.37,3.37,0,0,1,1.35,1.25,4.21,4.21,0,0,1,.53,2.27A3.79,3.79,0,0,1,182.25,1972.91Z"/><path class="cls-2" d="M297.29,2000a27.1,27.1,0,0,1-3.3,13.41,39.08,39.08,0,0,1-6.9,9.13,69.42,69.42,0,0,1-15.18,11.1A151.33,151.33,0,0,1,241,2046.11a218.91,218.91,0,0,1-63,8.1c-21-.34-42.1-2.71-62.93-8.33a146,146,0,0,1-31-12.14,67.2,67.2,0,0,1-15.22-11.13,39.27,39.27,0,0,1-6.87-9.21A27.35,27.35,0,0,1,58.71,2000a26.42,26.42,0,0,1,4-13,36.47,36.47,0,0,1,7.28-8.39,63.33,63.33,0,0,1,15.56-9.36,113.44,113.44,0,0,1,14-5l7.76,18.66a96.73,96.73,0,0,0-12.13,5.69,39.11,39.11,0,0,0-9.34,7.06,11.46,11.46,0,0,0-2.11,3.18c-.32.84-.17,1.14,0,1.22s.26.2.76.8a19.58,19.58,0,0,0,2.54,2.36,45.21,45.21,0,0,0,9.67,5.29c7.64,3.24,16.52,5.42,25.5,7.1a294.28,294.28,0,0,0,55.88,4.17c9.43-.15,18.83-.53,28.17-1.23,4.66-.36,9.32-.7,13.93-1.28s9.21-1.09,13.73-1.89a121.56,121.56,0,0,0,25.62-6.73,42.22,42.22,0,0,0,9.71-5.32,18.34,18.34,0,0,0,2.5-2.43c.48-.63.57-.76.7-.84s.23-.36-.1-1.18a11.87,11.87,0,0,0-2.15-3.11,40.91,40.91,0,0,0-9.31-7,104.47,104.47,0,0,0-16-7.36l6.84-18.41a119.76,119.76,0,0,1,18.88,6.17,61.36,61.36,0,0,1,15.6,9.39,36.57,36.57,0,0,1,7.24,8.46A26.39,26.39,0,0,1,297.29,2000Z"/><path class="cls-1" d="M247.71,1887.28c-10.08,0-20.61,3-20.61,11v.23c0,7.33,7.56,8.7,3.2,22l-10.08,31.15-16-51.54c-3-10.08-4.81-12.83-15.12-12.83-10.08,0-11.91,3.67-14.2,10.31l-19.24,56.35-11.91-35c-3.44-10.3,3.66-14,3.66-21.76v-.46c0-8.47-15.58-9.39-32.3-9.39-20.62,0-30.69,3-30.69,11.69v.45c0,10.08,10.07,14.21,14.43,25l26.11,62.77c4.12,9.85,8.25,13,20.39,13,12.83,0,14.2-5.49,18.32-16.49l13.52-34.82L190,1987.16c3.43,10.08,7.33,13,19.47,13,12.6,0,14.43-5.49,18.55-16.49l23.14-62.31c4.12-10.76,15.8-15.8,15.8-23.59v-.23C267,1890.26,257.1,1887.28,247.71,1887.28Z"/><path d="M10.79,40.84V60.19H8.27v-15l-3.63,0V43.74l.65-.21a10,10,0,0,0,2.24-1,6.18,6.18,0,0,0,1.58-1.43l.24-.29Z"/><path d="M22.16,60.45A8.06,8.06,0,0,1,19.35,60a5.87,5.87,0,0,1-1.91-1.11,5.79,5.79,0,0,1-1.18-1.44A6.73,6.73,0,0,1,15.64,56a9.78,9.78,0,0,1-.3-1.54h2.4a5.53,5.53,0,0,0,.33,1.32,4.3,4.3,0,0,0,.69,1.13,3.86,3.86,0,0,0,1.3.94,5.09,5.09,0,0,0,2.1.38,4.44,4.44,0,0,0,2.51-.66,4.12,4.12,0,0,0,1.49-1.67,4.88,4.88,0,0,0,.5-2.15,5.2,5.2,0,0,0-.5-2.21,4.08,4.08,0,0,0-3.89-2.39,4.27,4.27,0,0,0-1.89.37,4,4,0,0,0-1.19.83,5.51,5.51,0,0,0-.79,1.21H15.88L17.4,40.84H27.81v2.27h-8.5l-.78,5.55h.08a5.75,5.75,0,0,1,.79-.72,4.85,4.85,0,0,1,1.27-.66,6.1,6.1,0,0,1,2-.27,6.27,6.27,0,0,1,3.59,1A6.44,6.44,0,0,1,28.4,50.5a7.26,7.26,0,0,1,.75,3.23,7.17,7.17,0,0,1-.44,2.46,6.44,6.44,0,0,1-1.29,2.16,6.53,6.53,0,0,1-2.17,1.53A7.68,7.68,0,0,1,22.16,60.45Z"/><path d="M34.66,60.45a1.59,1.59,0,0,1-1.21-.51,1.7,1.7,0,0,1,0-2.39,1.61,1.61,0,0,1,1.21-.5,1.64,1.64,0,0,1,1.22.5,1.66,1.66,0,0,1,.48,1.2A1.68,1.68,0,0,1,35.88,60,1.63,1.63,0,0,1,34.66,60.45Z"/><line class="cls-3" x1="1.49" y1="14.16" x2="363.43" y2="13.64"/><path d="M10.79,474.75V494.1H8.27v-15l-3.63,0v-1.47l.65-.21a10,10,0,0,0,2.24-1A6,6,0,0,0,9.11,475l.24-.29Z"/><path d="M22.87,494.36a7,7,0,0,1-3.23-.7,6.18,6.18,0,0,1-2.26-2,8.73,8.73,0,0,1-1.33-2.84,13.09,13.09,0,0,1-.43-3.35,14.9,14.9,0,0,1,.32-3,13.18,13.18,0,0,1,1-3A9.15,9.15,0,0,1,18.7,477a8.27,8.27,0,0,1,2.69-1.81,9.22,9.22,0,0,1,3.7-.68,11.89,11.89,0,0,1,1.53.09,13.64,13.64,0,0,1,1.53.3v2.35c-.63-.14-1.18-.24-1.66-.3a11.64,11.64,0,0,0-1.45-.09,7,7,0,0,0-2.73.48,5.69,5.69,0,0,0-1.91,1.29,6.48,6.48,0,0,0-1.23,1.72,8.31,8.31,0,0,0-.67,1.83,7.84,7.84,0,0,0-.23,1.56,4.4,4.4,0,0,1,.73-.86,5.06,5.06,0,0,1,1.54-1,6.36,6.36,0,0,1,2.54-.44,6.31,6.31,0,0,1,3.55.93,5.86,5.86,0,0,1,2.14,2.39,6.86,6.86,0,0,1,.72,3.08,7,7,0,0,1-.74,3.13,6.16,6.16,0,0,1-2.19,2.46A6.7,6.7,0,0,1,22.87,494.36Zm-.05-2.19a4.55,4.55,0,0,0,2-.47,4,4,0,0,0,1.57-1.43,4.95,4.95,0,0,0,0-4.76,4,4,0,0,0-1.57-1.43,4.55,4.55,0,0,0-2-.47,4.49,4.49,0,0,0-2,.47,3.91,3.91,0,0,0-1.57,1.43,4.88,4.88,0,0,0,0,4.76,3.91,3.91,0,0,0,1.57,1.43A4.49,4.49,0,0,0,22.82,492.17Z"/><path d="M35.19,494.36a1.61,1.61,0,0,1-1.22-.51,1.73,1.73,0,0,1,0-2.39,1.73,1.73,0,0,1,2.43,0,1.67,1.67,0,0,1,.49,1.2,1.69,1.69,0,0,1-.49,1.21A1.62,1.62,0,0,1,35.19,494.36Z"/><line class="cls-3" x1="1.49" y1="448.07" x2="363.43" y2="447.55"/><path d="M10.79,908.66V928H8.27V913l-3.63,0v-1.47l.65-.21a10,10,0,0,0,2.24-1A6,6,0,0,0,9.11,909l.24-.29Z"/><path d="M18.4,928a22.22,22.22,0,0,1,.65-4.77A26.26,26.26,0,0,1,20.49,919a34.27,34.27,0,0,1,1.8-3.54c.63-1.05,1.23-2,1.79-2.73s1-1.37,1.4-1.81H15.1v-2.27H28.41v1.91c-.7.78-1.32,1.54-1.87,2.27A31.93,31.93,0,0,0,23,919a28.09,28.09,0,0,0-1.42,4.21,23,23,0,0,0-.68,4.8Z"/><path d="M32.94,928.27a1.61,1.61,0,0,1-1.22-.51,1.73,1.73,0,0,1,0-2.39,1.71,1.71,0,1,1,1.22,2.9Z"/><line class="cls-3" x1="1.49" y1="881.98" x2="363.43" y2="881.46"/><path d="M10.79,1342.57v19.35H8.27v-15l-3.63,0v-1.47l.65-.21a10,10,0,0,0,2.24-1,6,6,0,0,0,1.58-1.43l.24-.29Z"/><path d="M22,1362.18a8,8,0,0,1-3.54-.74,5.87,5.87,0,0,1-2.34-2,5.05,5.05,0,0,1-.84-2.86,4.79,4.79,0,0,1,1.66-3.83,7.48,7.48,0,0,1,1.66-1v-.13a6.59,6.59,0,0,1-1.4-.87,4.22,4.22,0,0,1-1-1.25,4.09,4.09,0,0,1-.42-1.94,4.9,4.9,0,0,1,.76-2.67,5.24,5.24,0,0,1,2.16-1.85,7.34,7.34,0,0,1,3.28-.68,7.38,7.38,0,0,1,3.29.68,5.15,5.15,0,0,1,2.15,1.85,4.81,4.81,0,0,1,.76,2.67,4,4,0,0,1-1.4,3.19,6.35,6.35,0,0,1-1.4.87v.13a7,7,0,0,1,1.66,1,4.84,4.84,0,0,1,1.17,1.49,5,5,0,0,1,.49,2.34,5,5,0,0,1-.83,2.86,5.87,5.87,0,0,1-2.34,2A8,8,0,0,1,22,1362.18Zm0-2.06a4.77,4.77,0,0,0,2.37-.55,3.67,3.67,0,0,0,1.44-1.43,3.72,3.72,0,0,0,.48-1.81,3.44,3.44,0,0,0-.47-1.74,3.59,3.59,0,0,0-1.42-1.36,4.84,4.84,0,0,0-2.4-.54,4.8,4.8,0,0,0-2.39.54,3.62,3.62,0,0,0-1.43,1.36,3.44,3.44,0,0,0-.47,1.74,3.62,3.62,0,0,0,.49,1.81,3.67,3.67,0,0,0,1.44,1.43A4.71,4.71,0,0,0,22,1360.12Zm0-9.42a4.22,4.22,0,0,0,2.09-.47,3.18,3.18,0,0,0,1.26-1.2,3,3,0,0,0,.42-1.49,3.09,3.09,0,0,0-.42-1.55A3.22,3.22,0,0,0,24,1344.8a4.34,4.34,0,0,0-2.09-.45,4.41,4.41,0,0,0-2.08.45,3.16,3.16,0,0,0-1.26,1.19,3.09,3.09,0,0,0-.42,1.55,3,3,0,0,0,.42,1.49,3.11,3.11,0,0,0,1.26,1.2A4.29,4.29,0,0,0,22,1350.7Z"/><path d="M34,1362.18a1.6,1.6,0,0,1-1.21-.51,1.7,1.7,0,0,1,2.43-2.39,1.66,1.66,0,0,1,.48,1.2,1.68,1.68,0,0,1-.48,1.21A1.63,1.63,0,0,1,34,1362.18Z"/><line class="cls-3" x1="1.49" y1="1315.89" x2="363.43" y2="1315.37"/><path d="M10.79,1776.48v19.35H8.27v-15l-3.63,0v-1.47l.65-.21a10.48,10.48,0,0,0,2.24-1,6.23,6.23,0,0,0,1.58-1.44l.24-.29Z"/><path d="M22.24,1776.22a7,7,0,0,1,3.23.7,6.18,6.18,0,0,1,2.26,1.95,8.46,8.46,0,0,1,1.32,2.83,12.57,12.57,0,0,1,.44,3.36,14.9,14.9,0,0,1-.32,3,13.69,13.69,0,0,1-1,3,9.15,9.15,0,0,1-1.78,2.58,8.22,8.22,0,0,1-2.69,1.81,9.22,9.22,0,0,1-3.7.68,10.39,10.39,0,0,1-1.52-.1c-.47-.07-1-.17-1.54-.29v-2.35c.62.12,1.18.22,1.66.29a10,10,0,0,0,1.45.1,7,7,0,0,0,2.73-.48,5.82,5.82,0,0,0,1.91-1.28,6.69,6.69,0,0,0,1.23-1.73,8.31,8.31,0,0,0,.67-1.83,7.84,7.84,0,0,0,.23-1.56,4.7,4.7,0,0,1-.73.87,5.25,5.25,0,0,1-1.54,1,6.19,6.19,0,0,1-2.54.44,6.43,6.43,0,0,1-3.54-.92,6,6,0,0,1-2.15-2.41,7,7,0,0,1,0-6.21,6,6,0,0,1,2.21-2.45A6.67,6.67,0,0,1,22.24,1776.22Zm.05,2.2a4.42,4.42,0,0,0-2,.47,3.93,3.93,0,0,0-1.57,1.41,4.27,4.27,0,0,0-.61,2.38,4.33,4.33,0,0,0,.61,2.39,4,4,0,0,0,1.57,1.43,4.55,4.55,0,0,0,2,.47,4.49,4.49,0,0,0,2-.47,3.91,3.91,0,0,0,1.57-1.43,4.33,4.33,0,0,0,.62-2.39,4.27,4.27,0,0,0-.62-2.38,3.86,3.86,0,0,0-1.57-1.41A4.36,4.36,0,0,0,22.29,1778.42Z"/><path d="M35.19,1796.09a1.61,1.61,0,0,1-1.22-.51,1.73,1.73,0,0,1,0-2.39,1.73,1.73,0,0,1,2.43,0,1.73,1.73,0,0,1,0,2.41A1.62,1.62,0,0,1,35.19,1796.09Z"/><line class="cls-3" x1="1.49" y1="1749.8" x2="363.43" y2="1749.28"/><path d="M5.71,2229.74v-1.8L10,2224c1.18-1.1,2.22-2.07,3.12-2.89a13.15,13.15,0,0,0,2.11-2.42,4.75,4.75,0,0,0,.76-2.59,3.43,3.43,0,0,0-.56-2,3.74,3.74,0,0,0-1.44-1.24,4.05,4.05,0,0,0-1.82-.43,4.35,4.35,0,0,0-2,.41,3.29,3.29,0,0,0-1.21,1,4.36,4.36,0,0,0-.6,1.23,6.38,6.38,0,0,0-.23,1.45H5.61a8.9,8.9,0,0,1,.22-1.68,7.72,7.72,0,0,1,.56-1.55,5.74,5.74,0,0,1,1.11-1.56,5.43,5.43,0,0,1,1.86-1.2,7.38,7.38,0,0,1,2.78-.47,7.2,7.2,0,0,1,3.13.69,5.78,5.78,0,0,1,2.34,2,5.7,5.7,0,0,1,.89,3.23,5.9,5.9,0,0,1-.88,3.18,13.78,13.78,0,0,1-2.31,2.79L12.17,2225l-2.67,2.46h9.42v2.32Z"/><path d="M29.46,2230a6.27,6.27,0,0,1-3.19-.8A6.87,6.87,0,0,1,24,2227a10.36,10.36,0,0,1-1.41-3.18,15.28,15.28,0,0,1,0-7.6,10.52,10.52,0,0,1,1.41-3.17,6.68,6.68,0,0,1,2.32-2.17,6.84,6.84,0,0,1,6.38,0,6.73,6.73,0,0,1,2.31,2.17,10.79,10.79,0,0,1,1.42,3.17,15.28,15.28,0,0,1,0,7.6A10.62,10.62,0,0,1,35,2227a6.93,6.93,0,0,1-2.31,2.17A6.32,6.32,0,0,1,29.46,2230Zm0-2.35a4,4,0,0,0,3.41-1.93,12.52,12.52,0,0,0,0-11.31,4,4,0,0,0-6.83,0,12.58,12.58,0,0,0,0,11.3A4,4,0,0,0,29.46,2227.63Z"/><path d="M42,2230a1.64,1.64,0,0,1-1.22-.5,1.71,1.71,0,0,1-.48-1.2,1.66,1.66,0,0,1,.48-1.2,1.64,1.64,0,0,1,1.22-.5,1.69,1.69,0,0,1,1.7,1.7,1.64,1.64,0,0,1-.49,1.21A1.61,1.61,0,0,1,42,2230Z"/><line class="cls-3" x1="1.49" y1="2183.71" x2="363.43" y2="2183.19"/><path d="M5.71,2663.65v-1.8l4.24-3.93c1.18-1.09,2.22-2.06,3.12-2.88a13.15,13.15,0,0,0,2.11-2.42,4.75,4.75,0,0,0,.76-2.59,3.43,3.43,0,0,0-.56-2,3.74,3.74,0,0,0-1.44-1.24,4.05,4.05,0,0,0-1.82-.43,4.23,4.23,0,0,0-2,.41,3.29,3.29,0,0,0-1.21,1,4.36,4.36,0,0,0-.6,1.23,6.38,6.38,0,0,0-.23,1.45H5.61a8.9,8.9,0,0,1,.22-1.68,7.51,7.51,0,0,1,.56-1.55,5.74,5.74,0,0,1,1.11-1.56,5.43,5.43,0,0,1,1.86-1.2,7.18,7.18,0,0,1,2.78-.47,7.2,7.2,0,0,1,3.13.69A5.51,5.51,0,0,1,18.5,2650a5.9,5.9,0,0,1-.88,3.18,13.78,13.78,0,0,1-2.31,2.79l-3.14,2.93-2.67,2.45h9.42v2.33Z"/><path d="M27.81,2644.3v19.35H25.3v-15l-3.64,0v-1.47l.66-.21a9.87,9.87,0,0,0,2.23-1,6,6,0,0,0,1.59-1.43l.23-.29Z"/><path d="M34.43,2663.91a1.61,1.61,0,0,1-1.22-.51,1.73,1.73,0,0,1,0-2.39,1.64,1.64,0,0,1,1.22-.5,1.69,1.69,0,0,1,1.7,1.7,1.65,1.65,0,0,1-.49,1.21A1.61,1.61,0,0,1,34.43,2663.91Z"/><line class="cls-3" x1="1.49" y1="2617.62" x2="363.43" y2="2617.1"/></svg>