<?xml version="1.0" encoding="UTF-8"?><svg id="Layer_1" xmlns="http://www.w3.org/2000/svg" xmlns:xlink="http://www.w3.org/1999/xlink" viewBox="0 0 1200 750"><defs><style>.cls-1{fill:none;}.cls-2{clip-path:url(#clippath);}.cls-3{fill:#fff;}.cls-4{fill:#232c38;}</style><clipPath id="clippath"><rect class="cls-1" y="-.5" width="1200" height="750"/></clipPath></defs><rect y="-.5" width="1200" height="750"/><g class="cls-2"><g><path class="cls-4" d="M410.92,13.46V58.62c167.66,29.03,295.68,175.18,295.68,351,0,196.63-159.97,356.61-356.6,356.61S-6.6,606.26-6.6,409.62C-6.6,233.79,121.43,87.65,289.09,58.62V13.46C96.69,42.96-51.29,209.11-51.29,409.62c0,221.28,180.01,401.3,401.29,401.3s401.29-180.02,401.29-401.3c0-200.51-147.98-366.66-340.37-396.16Z"/><polygon class="cls-4" points="319.4 134.41 350 113.22 380.61 134.41 380.61 -20.82 436.2 -20.82 436.2 -72.62 380.61 -72.62 380.61 -128.28 319.4 -128.28 319.4 -72.62 263.8 -72.62 263.8 -20.82 319.4 -20.82 319.4 134.41"/><path class="cls-4" d="M321.92,726.82c9.08,.62,16.68,.92,23.89,.92,10.36,0,21.24-.52,32.33-1.56l2.46-.23v-125.24h26.32c1.04,0,1.89-.85,1.89-1.89v-48.03c0-1.04-.85-1.89-1.89-1.89h-26.32v-234.16c0-2.48-1.22-4.8-3.25-6.21l-26.28-18.19c-.65-.45-1.5-.45-2.15,0l-26.28,18.19c-2.04,1.41-3.25,3.73-3.25,6.21v234.16h-26.33c-1.04,0-1.89,.85-1.89,1.89v48.03c0,1.04,.85,1.89,1.89,1.89h26.33v125.94l2.52,.18Z"/><path class="cls-4" d="M448.27,712.22c16-4.98,31.6-11.13,46.69-18.41l1.54-.74V281.58c0-4.96-2.43-9.6-6.51-12.42l-138.92-96.18c-.65-.45-1.5-.45-2.15,0l-138.91,96.18c-4.08,2.82-6.51,7.46-6.51,12.42v415.33l1.6,.72c15.08,6.77,30.81,12.49,46.75,17.01l3.45,.98V300.8l94.69-65.55,94.69,65.55v412.53l3.58-1.11Z"/><g><path class="cls-4" d="M556.25,657.68c29.39-22.76,46.93-59.5,46.93-98.28v-92.84c0-34.31-18.27-66.59-47.7-84.25l-4.11-2.47v169.06h-19.33c-1.04,0-1.89,.85-1.89,1.89v48.03c0,1.04,.85,1.89,1.89,1.89h19.33v60.76l4.87-3.79Z"/><path class="cls-4" d="M143.76,657.68c-29.39-22.76-46.93-59.5-46.93-98.28v-92.84c0-34.31,18.27-66.59,47.7-84.25l4.11-2.47v169.06h19.33c1.04,0,1.89,.85,1.89,1.89v48.03c0,1.04-.85,1.89-1.89,1.89h-19.33v60.76l-4.87-3.79Z"/></g></g></g><g><g><path class="cls-3" d="M472.79,353.05c3.37,1.83,5.99,4.41,7.85,7.75,1.86,3.34,2.79,7.19,2.79,11.55s-.95,8.08-2.85,11.39c-1.9,3.3-4.59,5.85-8.07,7.65-3.48,1.79-7.5,2.69-12.07,2.69h-16.87c-.35,0-.53,.18-.53,.53v28.36c0,.35-.12,.65-.37,.9s-.55,.37-.9,.37h-9.7c-.35,0-.65-.12-.9-.37-.25-.25-.37-.54-.37-.9v-71.38c0-.35,.12-.65,.37-.9,.25-.25,.54-.37,.9-.37h29c4.43,0,8.33,.92,11.71,2.74Zm-4.85,27.94c2.18-2.11,3.27-4.88,3.27-8.33s-1.09-6.36-3.27-8.54c-2.18-2.18-5.06-3.27-8.65-3.27h-15.71c-.35,0-.53,.18-.53,.53v22.25c0,.35,.17,.53,.53,.53h15.71c3.58,0,6.47-1.05,8.65-3.16Z"/><path class="cls-3" d="M533.16,386.38c7.17,3.37,10.75,9.17,10.75,17.4,0,6.68-2.23,11.76-6.69,15.24-4.46,3.48-10.28,5.22-17.45,5.22h-26.57c-.35,0-.65-.12-.9-.37-.25-.25-.37-.54-.37-.9v-71.28c0-.35,.12-.65,.37-.9s.54-.37,.9-.37h25.73c7.66,0,13.57,1.65,17.71,4.96,4.15,3.3,6.22,8.29,6.22,14.97,0,7.38-3.23,12.51-9.7,15.39-.42,.21-.42,.42,0,.63Zm-29-24.88v19.51c0,.35,.17,.53,.53,.53h14.23c3.73,0,6.66-.9,8.81-2.69,2.14-1.79,3.22-4.27,3.22-7.43s-1.07-5.78-3.22-7.65c-2.15-1.86-5.08-2.79-8.81-2.79h-14.23c-.35,0-.53,.17-.53,.53Zm24.31,49.14c2.14-1.97,3.22-4.64,3.22-8.01s-1.09-6.13-3.27-8.07c-2.18-1.93-5.13-2.9-8.86-2.9h-14.87c-.35,0-.53,.18-.53,.53v20.88c0,.35,.17,.53,.53,.53h15.08c3.65,0,6.55-.98,8.7-2.95Z"/><path class="cls-3" d="M598.53,350.79c.25-.25,.54-.37,.9-.37h9.7c.35,0,.65,.12,.9,.37,.25,.25,.37,.54,.37,.9v71.28c0,.35-.12,.65-.37,.9s-.55,.37-.9,.37h-9.38c-.7,0-1.2-.28-1.48-.84l-30.37-49.77c-.14-.21-.28-.3-.42-.27-.14,.04-.21,.19-.21,.48l.21,49.14c0,.35-.12,.65-.37,.9s-.55,.37-.9,.37h-9.7c-.35,0-.65-.12-.9-.37-.25-.25-.37-.54-.37-.9v-71.28c0-.35,.12-.65,.37-.9s.54-.37,.9-.37h9.38c.7,0,1.2,.28,1.48,.84l30.26,49.77c.14,.21,.28,.3,.42,.26,.14-.03,.21-.19,.21-.47l-.11-49.14c0-.35,.12-.65,.37-.9Z"/><path class="cls-3" d="M662.16,421.96c-4.01-2.07-7.1-4.97-9.28-8.7-2.18-3.72-3.27-8.05-3.27-12.97v-26.04c0-4.92,1.09-9.24,3.27-12.97,2.18-3.73,5.27-6.61,9.28-8.65,4.01-2.04,8.65-3.06,13.92-3.06s9.81,.99,13.81,2.95c4,1.97,7.1,4.75,9.28,8.33,2.18,3.58,3.27,7.73,3.27,12.44,0,.35-.12,.65-.37,.9s-.55,.37-.9,.37l-9.7,.53c-.84,0-1.26-.39-1.26-1.16,0-4.15-1.28-7.49-3.85-10.02-2.57-2.53-5.99-3.79-10.28-3.79s-7.74,1.26-10.33,3.79c-2.6,2.53-3.9,5.87-3.9,10.02v26.89c0,4.08,1.3,7.38,3.9,9.91,2.6,2.53,6.04,3.8,10.33,3.8s7.71-1.25,10.28-3.74c2.57-2.5,3.85-5.81,3.85-9.96,0-.77,.42-1.16,1.26-1.16l9.7,.42c.35,0,.65,.1,.9,.32,.25,.21,.37,.46,.37,.74,0,4.78-1.09,8.98-3.27,12.6-2.18,3.62-5.27,6.42-9.28,8.38-4.01,1.97-8.61,2.95-13.81,2.95s-9.91-1.04-13.92-3.11Z"/><path class="cls-3" d="M753.85,374.57c3.41,3.37,5.11,7.98,5.11,13.81v34.58c0,.35-.12,.65-.37,.9s-.55,.37-.9,.37h-9.7c-.35,0-.65-.12-.9-.37-.25-.25-.37-.54-.37-.9v-32.05c0-3.23-.92-5.85-2.74-7.85-1.83-2-4.25-3.01-7.28-3.01s-5.47,.99-7.33,2.95c-1.86,1.97-2.79,4.57-2.79,7.8v32.16c0,.35-.12,.65-.37,.9s-.55,.37-.9,.37h-9.7c-.35,0-.65-.12-.9-.37-.25-.25-.37-.54-.37-.9v-71.28c0-.35,.12-.65,.37-.9s.54-.37,.9-.37h9.7c.35,0,.65,.12,.9,.37,.25,.25,.37,.54,.37,.9v23.3c0,.21,.07,.35,.21,.42,.14,.07,.25,0,.32-.21,2.88-3.79,7.24-5.69,13.08-5.69s10.24,1.69,13.65,5.06Z"/><path class="cls-3" d="M801.67,370.72c.25-.25,.54-.37,.9-.37h9.59c.35,0,.65,.12,.9,.37,.25,.25,.37,.54,.37,.9v51.35c0,.35-.12,.65-.37,.9s-.55,.37-.9,.37h-9.59c-.35,0-.65-.12-.9-.37-.25-.25-.37-.54-.37-.9v-3.37c0-.21-.07-.35-.21-.42-.14-.07-.28,0-.42,.21-2.88,3.73-7.21,5.59-12.97,5.59-5.34,0-9.83-1.54-13.44-4.64-3.62-3.09-5.43-7.49-5.43-13.18v-35.54c0-.35,.12-.65,.37-.9s.54-.37,.9-.37h9.7c.35,0,.65,.12,.9,.37,.25,.25,.37,.54,.37,.9v32.06c0,3.3,.86,5.94,2.58,7.91,1.72,1.97,4.13,2.95,7.22,2.95s5.69-.98,7.59-2.95c1.9-1.97,2.85-4.6,2.85-7.91v-32.06c0-.35,.12-.65,.37-.9Z"/><path class="cls-3" d="M857.5,371.09c.56,.28,.77,.81,.63,1.58l-1.79,9.49c-.07,.84-.56,1.09-1.48,.74-1.05-.35-2.29-.53-3.69-.53-.92,0-1.62,.04-2.11,.1-2.95,.14-5.41,1.18-7.38,3.11-1.97,1.93-2.95,4.45-2.95,7.54v29.84c0,.35-.12,.65-.37,.9s-.55,.37-.9,.37h-9.7c-.35,0-.65-.12-.9-.37-.25-.25-.37-.54-.37-.9v-51.35c0-.35,.12-.65,.37-.9s.54-.37,.9-.37h9.7c.35,0,.65,.12,.9,.37,.25,.25,.37,.54,.37,.9v4.75c0,.28,.05,.44,.16,.48,.1,.04,.23-.05,.37-.26,2.95-4.57,7.06-6.86,12.34-6.86,2.25,0,4.22,.46,5.9,1.37Z"/><path class="cls-3" d="M871.26,420.91c-3.94-2.78-6.68-6.52-8.23-11.23-1.12-3.16-1.69-7.38-1.69-12.65s.56-9.21,1.69-12.44c1.48-4.64,4.2-8.31,8.17-11.02,3.97-2.71,8.66-4.06,14.08-4.06s10.26,1.37,14.34,4.11c4.08,2.74,6.78,6.19,8.12,10.33,.35,1.12,.6,2.25,.74,3.37v.21c0,.71-.39,1.12-1.16,1.27l-9.49,1.37h-.21c-.63,0-1.05-.35-1.27-1.05,0-.35-.04-.63-.1-.84-.14-.56-.28-1.05-.42-1.48-.63-1.97-1.9-3.58-3.8-4.85-1.9-1.27-4.15-1.9-6.75-1.9s-4.94,.69-6.8,2.06c-1.86,1.37-3.11,3.25-3.74,5.64-.7,2.25-1.05,5.38-1.05,9.38s.32,7,.95,9.38c.7,2.46,1.97,4.41,3.8,5.85,1.83,1.44,4.11,2.16,6.85,2.16s4.97-.69,6.91-2.06c1.93-1.37,3.18-3.22,3.74-5.53,.07-.14,.1-.32,.1-.53,.07-.07,.11-.17,.11-.32,.21-.84,.7-1.19,1.48-1.05l9.49,1.48c.35,.07,.65,.23,.9,.48,.25,.25,.33,.58,.27,1-.21,1.12-.39,1.93-.53,2.42-1.34,4.5-4.04,8.07-8.12,10.7-4.08,2.63-8.86,3.95-14.34,3.95s-10.09-1.39-14.02-4.17Z"/><path class="cls-3" d="M956.04,374.57c3.41,3.37,5.11,7.98,5.11,13.81v34.58c0,.35-.12,.65-.37,.9s-.55,.37-.9,.37h-9.7c-.35,0-.65-.12-.9-.37-.25-.25-.37-.54-.37-.9v-32.05c0-3.23-.92-5.85-2.74-7.85-1.83-2-4.25-3.01-7.28-3.01s-5.47,.99-7.33,2.95c-1.86,1.97-2.79,4.57-2.79,7.8v32.16c0,.35-.12,.65-.37,.9s-.55,.37-.9,.37h-9.7c-.35,0-.65-.12-.9-.37-.25-.25-.37-.54-.37-.9v-71.28c0-.35,.12-.65,.37-.9s.54-.37,.9-.37h9.7c.35,0,.65,.12,.9,.37,.25,.25,.37,.54,.37,.9v23.3c0,.21,.07,.35,.21,.42,.14,.07,.25,0,.32-.21,2.88-3.79,7.24-5.69,13.08-5.69s10.24,1.69,13.65,5.06Z"/></g><g><path class="cls-3" d="M316.23,320.11v7.56c28.07,4.86,49.5,29.33,49.5,58.77,0,32.92-26.78,59.7-59.7,59.7s-59.7-26.78-59.7-59.7c0-29.44,21.44-53.91,49.51-58.77v-7.56c-32.21,4.94-56.99,32.76-56.99,66.33,0,37.05,30.14,67.19,67.19,67.19s67.19-30.14,67.19-67.19c0-33.57-24.78-61.39-56.99-66.33Z"/><polygon class="cls-3" points="300.9 340.36 306.03 336.81 311.15 340.36 311.15 314.37 320.46 314.37 320.46 305.7 311.15 305.7 311.15 296.38 300.9 296.38 300.9 305.7 291.59 305.7 291.59 314.37 300.9 314.37 300.9 340.36"/><path class="cls-3" d="M301.33,439.54c1.52,.1,2.79,.15,4,.15,1.74,0,3.56-.09,5.41-.26l.41-.04v-20.97h4.41c.17,0,.32-.14,.32-.32v-8.04c0-.17-.14-.32-.32-.32h-4.41v-39.2c0-.42-.2-.8-.54-1.04l-4.4-3.05c-.11-.07-.25-.07-.36,0l-4.4,3.05c-.34,.24-.54,.62-.54,1.04v39.2h-4.41c-.17,0-.32,.14-.32,.32v8.04c0,.17,.14,.32,.32,.32h4.41v21.08l.42,.03Z"/><path class="cls-3" d="M322.48,437.1c2.68-.83,5.29-1.86,7.82-3.08l.26-.12v-68.89c0-.83-.41-1.61-1.09-2.08l-23.26-16.1c-.11-.07-.25-.07-.36,0l-23.26,16.1c-.68,.47-1.09,1.25-1.09,2.08v69.54l.27,.12c2.53,1.13,5.16,2.09,7.83,2.85l.58,.16v-69.45l15.85-10.98,15.85,10.98v69.07l.6-.19Z"/><g><path class="cls-3" d="M340.56,427.97c4.92-3.81,7.86-9.96,7.86-16.45v-15.54c0-5.74-3.06-11.15-7.99-14.1l-.69-.41v28.3h-3.24c-.17,0-.32,.14-.32,.32v8.04c0,.17,.14,.32,.32,.32h3.24v10.17l.82-.63Z"/><path class="cls-3" d="M271.5,427.97c-4.92-3.81-7.86-9.96-7.86-16.45v-15.54c0-5.74,3.06-11.15,7.99-14.1l.69-.41v28.3h3.24c.17,0,.32,.14,.32,.32v8.04c0,.17-.14,.32-.32,.32h-3.24v10.17l-.82-.63Z"/></g></g></g></svg>