<svg id="Layer_1" data-name="Layer 1" xmlns="http://www.w3.org/2000/svg" viewBox="0 0 1200 750"><defs><style>.cls-1{fill:#fff;}.cls-2{fill:#e8ebec;}.cls-3{fill:#8c2922;}.cls-4{fill:#df2e26;}</style></defs><rect class="cls-1" y="-0.5" width="1200" height="750"/><path class="cls-2" d="M421,335.23a11.7,11.7,0,0,0-11.68-11.67H393.82a11.68,11.68,0,0,0-11.67,11.7l0,42-37.84-49.1a11.77,11.77,0,0,0-9.25-4.55h0l-17.64,0a11.69,11.69,0,0,0-11.67,11.69l.08,95.14a11.71,11.71,0,0,0,11.69,11.68h0l15.68,0a11.69,11.69,0,0,0,11.67-11.69l0-41.69,37.68,48.79a11.77,11.77,0,0,0,9.25,4.54h17.64a11.69,11.69,0,0,0,11.68-11.7Z"/><rect class="cls-2" x="340.97" y="578.78" width="44.03" height="67.34" rx="5.92"/><rect class="cls-2" x="341.83" y="72.45" width="44.03" height="67.34" rx="5.92"/><rect class="cls-2" x="158.84" y="508.2" width="67.34" height="44.03" rx="5.92" transform="translate(-318.75 291.88) rotate(-45.05)"/><rect class="cls-2" x="517.48" y="150.78" width="67.34" height="44.03" rx="5.92" transform="translate(39.46 440.75) rotate(-45.05)"/><rect class="cls-2" x="516.49" y="496.25" width="44.03" height="67.34" rx="5.92" transform="translate(-216.98 536.62) rotate(-45.05)"/><rect class="cls-2" x="157.24" y="139.44" width="44.03" height="67.34" rx="5.92" transform="translate(-69.9 177.67) rotate(-45.05)"/><rect class="cls-2" x="74.81" y="331.66" width="67.34" height="44.03" rx="5.92"/><rect class="cls-2" x="581.14" y="332.52" width="67.34" height="44.03" rx="5.92"/><path class="cls-2" d="M558.34,317.67a202.34,202.34,0,0,0-29.09-67.58c-24.42-36.12-72.36-79.15-162.13-79.15h-.24c-89.52.08-139.37,42.89-165.42,78.8a212.69,212.69,0,0,0-32.34,67.45A13.35,13.35,0,0,0,176.71,333L197,341.74a13.23,13.23,0,0,0,5.32,1.06,166,166,0,0,0-3.63,34.63c.08,90.78,74,164.59,164.72,164.58h.14A164.72,164.72,0,0,0,528.16,377.15a165.38,165.38,0,0,0-4-35.77,13.48,13.48,0,0,0,4.68-.74l20.91-7.43A13.37,13.37,0,0,0,558.34,317.67ZM366.92,215h.19c60.09,0,96.31,23.43,118,49.56-28.82-12.84-67.44-22.81-117.86-22.81h-.33c-51.44,0-91.53,10.42-121.7,23.56C268.44,238.8,306.19,215,366.92,215Zm81.93,247.59A119.91,119.91,0,0,1,363.54,498h-.11a120.68,120.68,0,0,1-95.35-194.66c24.56-9.85,57.08-17.54,98.89-17.57h.29c37.38,0,66.59,6.14,89,14.42a120.68,120.68,0,0,1-7.42,162.39Z"/><path class="cls-3" d="M538.26,257.14a8.28,8.28,0,0,0-3.52-2.75,8.07,8.07,0,0,0-4.36-.48,10.18,10.18,0,0,0-7.26,5.49,7.92,7.92,0,0,0-.72,4.32,8.82,8.82,0,0,0,5.26,6.94,7.88,7.88,0,0,0,3.06.61,8.38,8.38,0,0,0,1.32-.1,9.59,9.59,0,0,0,4.29-1.88,9.46,9.46,0,0,0,3-3.62,8,8,0,0,0,.7-4.36A8.39,8.39,0,0,0,538.26,257.14Zm-4.1,6.9a2.3,2.3,0,0,1-.84,1.17,2.43,2.43,0,0,1-1.39.51,3.29,3.29,0,0,1-1.6-.33,4,4,0,0,1-2.12-2.79,3.22,3.22,0,0,1,.13-1.61h0a2.49,2.49,0,0,1,.87-1.19,2.42,2.42,0,0,1,1.35-.51h.17a2.83,2.83,0,0,1,1.35.35,3.92,3.92,0,0,1,1.37,1.18,4,4,0,0,1,.78,1.65A3,3,0,0,1,534.16,264Z"/><path class="cls-3" d="M551.74,242.74a1.34,1.34,0,0,0-1.26-.07l-2.86,1.3a1.34,1.34,0,0,0-.78,1.4l.85,6.85a.52.52,0,0,1-.31.56.53.53,0,0,1-.62-.13l-4.62-5.14a1.35,1.35,0,0,0-1.57-.32l-3.09,1.4a1.36,1.36,0,0,0-.77,1,1.33,1.33,0,0,0,.38,1.2L547.38,261a1.36,1.36,0,0,0,1,.39,1.38,1.38,0,0,0,.56-.12l3.62-1.65a1.35,1.35,0,0,0,.79-1.32l-.9-14.46A1.37,1.37,0,0,0,551.74,242.74Z"/><path class="cls-3" d="M572.44,249.68a1.35,1.35,0,0,0-.64-.82,1.37,1.37,0,0,0-1-.13l-6,1.65a.55.55,0,0,1-.61-.8.47.47,0,0,1,.32-.25l5.14-1.41a1.35,1.35,0,0,0,.82-.64,1.37,1.37,0,0,0,.13-1l-.52-1.91a1.39,1.39,0,0,0-.64-.82,1.37,1.37,0,0,0-1-.13l-5.14,1.41a.54.54,0,0,1-.41-.05.57.57,0,0,1-.25-.32.53.53,0,0,1,.05-.41.54.54,0,0,1,.33-.26l5.84-1.6a1.31,1.31,0,0,0,.81-.63,1.33,1.33,0,0,0,.13-1l-.52-1.91a1.35,1.35,0,0,0-1.66-1l-10.77,3h0a1.36,1.36,0,0,0-1,1.66l3.58,13.06a1.37,1.37,0,0,0,1.31,1,1.49,1.49,0,0,0,.36-.05l11-3a1.36,1.36,0,0,0,1-1.67Z"/><path class="cls-3" d="M589.8,235.53a1.36,1.36,0,0,0-1.52-1.17l-2.71.35a1.35,1.35,0,0,0-.9.52,1.38,1.38,0,0,0-.27,1l.54,4.16a.54.54,0,0,1-.91.45l-4.77-4.78a1.34,1.34,0,0,0-1.14-.38l-2.83.36a1.35,1.35,0,0,0-.9.52,1.33,1.33,0,0,0-.27,1L575.86,251a1.36,1.36,0,0,0,1.34,1.18h.18l2.73-.36a1.35,1.35,0,0,0,1.17-1.51l-.54-4.12a.54.54,0,0,1,.3-.56.52.52,0,0,1,.62.11l4.74,4.74a1.34,1.34,0,0,0,1.13.38l2.84-.36a1.37,1.37,0,0,0,1.17-1.52Z"/><path class="cls-3" d="M613.86,234.38l-10.51-.53a1.38,1.38,0,0,0-1.42,1.28l-.69,13.52a1.36,1.36,0,0,0,.35,1,1.31,1.31,0,0,0,.94.44l3.21.17h.07a1.32,1.32,0,0,0,.9-.35,1.34,1.34,0,0,0,.45-.94l.16-3.12a.53.53,0,0,1,.17-.37.5.5,0,0,1,.39-.14l5,.25a1.37,1.37,0,0,0,1-.34,1.41,1.41,0,0,0,.44-.94l.1-2a1.32,1.32,0,0,0-.35-1,1.37,1.37,0,0,0-.93-.44l-5-.25a.55.55,0,0,1-.51-.57l0-.77a.55.55,0,0,1,.18-.37.57.57,0,0,1,.38-.14l5.41.28a1.35,1.35,0,0,0,1.42-1.29l.11-2a1.39,1.39,0,0,0-.35-1A1.36,1.36,0,0,0,613.86,234.38Z"/><path class="cls-3" d="M623.85,235.82l-3.18-.51a1.35,1.35,0,0,0-1.55,1.13L617,249.81a1.29,1.29,0,0,0,.24,1,1.32,1.32,0,0,0,.88.55l3.18.5.21,0a1.37,1.37,0,0,0,1.34-1.14L625,237.37A1.35,1.35,0,0,0,623.85,235.82Z"/><path class="cls-3" d="M642.24,241.89a7.69,7.69,0,0,0-4.51-2.88l-6.27-1.78a1.33,1.33,0,0,0-1.67.93l-3.7,13a1.36,1.36,0,0,0,.93,1.67l3.1.88a1.36,1.36,0,0,0,1.67-.93l.58-2a.56.56,0,0,1,.25-.33.53.53,0,0,1,.41,0l.35.1a.51.51,0,0,1,.38.43l.5,3.16a1.37,1.37,0,0,0,1,1.1l3.35.95a1.58,1.58,0,0,0,.38.05,1.36,1.36,0,0,0,1.3-1.72l-.88-3.2a.54.54,0,0,1,.32-.64,5.06,5.06,0,0,0,1.64-1.21,6.77,6.77,0,0,0,1.49-2.8A5.39,5.39,0,0,0,642.24,241.89Zm-4.89,3.34a1.57,1.57,0,0,1-.63,1,1.28,1.28,0,0,1-1.05.08l-1.36-.39a.54.54,0,0,1-.37-.66l.49-1.72a.54.54,0,0,1,.66-.37l1.36.39a1.3,1.3,0,0,1,.86.6A1.48,1.48,0,0,1,637.35,245.23Z"/><path class="cls-3" d="M658.34,253.91a1.34,1.34,0,0,0-.69-.77l-4.81-2.3a.54.54,0,0,1-.25-.72.55.55,0,0,1,.3-.28.56.56,0,0,1,.42,0l5.46,2.61a1.34,1.34,0,0,0,1.8-.64l.86-1.78a1.39,1.39,0,0,0,.05-1,1.34,1.34,0,0,0-.69-.77l-10.06-4.82a1.34,1.34,0,0,0-1-.06,1.33,1.33,0,0,0-.77.7l-5.85,12.21a1.36,1.36,0,0,0-.05,1,1.31,1.31,0,0,0,.69.77L654,263a1.37,1.37,0,0,0,.59.13,1.35,1.35,0,0,0,1.22-.77l.86-1.78a1.39,1.39,0,0,0,0-1,1.31,1.31,0,0,0-.69-.77l-5.64-2.7a.54.54,0,0,1-.24-.74.53.53,0,0,1,.71-.25l4.81,2.3a1.32,1.32,0,0,0,1,.05,1.33,1.33,0,0,0,.78-.69l.85-1.79A1.32,1.32,0,0,0,658.34,253.91Z"/><path class="cls-3" d="M676.12,260a10.18,10.18,0,0,0-3-3.59l-4.71-3.63a1.33,1.33,0,0,0-1-.27,1.35,1.35,0,0,0-.9.52l-8.26,10.72a1.35,1.35,0,0,0,.24,1.9l4.55,3.51a10.7,10.7,0,0,0,4.34,2.08,8.24,8.24,0,0,0,1.62.16,7.34,7.34,0,0,0,2.63-.48,8.11,8.11,0,0,0,3.5-2.72,8.2,8.2,0,0,0,1.74-4.05A7.27,7.27,0,0,0,676.12,260Zm-4.94,2.1a3.76,3.76,0,0,1-.89,2.46,3.84,3.84,0,0,1-2.08,1.49,2.31,2.31,0,0,1-2-.48l-.76-.59a.5.5,0,0,1-.21-.35.51.51,0,0,1,.11-.4l3.42-4.45a.57.57,0,0,1,.36-.2h.07a.57.57,0,0,1,.33.11l.57.45A2.6,2.6,0,0,1,671.18,262.06Z"/><path class="cls-3" d="M364.53,353.78h-6.2a2.08,2.08,0,0,0-2.09,2.09v10a.44.44,0,0,1-.3.43.44.44,0,0,1-.51-.15l-8.88-11.53a2.12,2.12,0,0,0-1.65-.81h-6.18a2.08,2.08,0,0,0-2.09,2.09l0,26.63a2.1,2.1,0,0,0,2.09,2.09H345a2.09,2.09,0,0,0,2.08-2.09v-9.9a.44.44,0,0,1,.31-.43.43.43,0,0,1,.5.15l8.84,11.45a2.09,2.09,0,0,0,1.65.81h6.19A2,2,0,0,0,366,384a2.08,2.08,0,0,0,.61-1.47l0-26.64A2.09,2.09,0,0,0,364.53,353.78Z"/><path class="cls-3" d="M384,354.37a2.06,2.06,0,0,0-1.47-.61h-7.12a2,2,0,0,0-1.47.61,2,2,0,0,0-.61,1.48l0,26.63a2.1,2.1,0,0,0,2.09,2.09h7.11a2.08,2.08,0,0,0,2.09-2.09l0-26.63A2.06,2.06,0,0,0,384,354.37Z"/><path class="cls-3" d="M419.45,368.16a1.92,1.92,0,0,0-1.47-.61h-5.74a2.1,2.1,0,0,0-2.09,2.09v4.87a.46.46,0,0,1-.3.43,7.81,7.81,0,0,1-2.71.61h0a5.4,5.4,0,0,1-2.93-.81,5.66,5.66,0,0,1-2.07-2.26,7.28,7.28,0,0,1-.76-3.35,7.15,7.15,0,0,1,.74-3.29,5.57,5.57,0,0,1,2-2.24,5.32,5.32,0,0,1,2.9-.82h0a8.76,8.76,0,0,1,3.44.79,10.53,10.53,0,0,1,2.31,1.35,2.08,2.08,0,0,0,2.92-.29l3.8-4.62a2.09,2.09,0,0,0-.37-3,19.24,19.24,0,0,0-4.94-2.59,20.79,20.79,0,0,0-7.13-1.29,18.83,18.83,0,0,0-8.82,2.05,15.44,15.44,0,0,0-8.42,14A16.08,16.08,0,0,0,392,377.4a15.31,15.31,0,0,0,6,5.74,17.4,17.4,0,0,0,8.51,2.07h0a24.33,24.33,0,0,0,6.95-1.12,24,24,0,0,0,5.67-2.46,2.09,2.09,0,0,0,1-1.77V369.63A2.05,2.05,0,0,0,419.45,368.16Z"/><path class="cls-3" d="M455.53,354.31a2.11,2.11,0,0,0-1.48-.61h-7.12a2.09,2.09,0,0,0-1.47.62,2,2,0,0,0-.61,1.47v8.79a.46.46,0,0,1-.46.45h-6.49a.45.45,0,0,1-.45-.45V355.8a2.1,2.1,0,0,0-2.09-2.09h-7.11a2.08,2.08,0,0,0-2.09,2.09l0,26.64a2.09,2.09,0,0,0,2.09,2.08h7.12a2.08,2.08,0,0,0,2.08-2.08v-8a.46.46,0,0,1,.45-.46h6.49a.45.45,0,0,1,.45.45v8a2.08,2.08,0,0,0,2.09,2.08h7.12a2.08,2.08,0,0,0,1.47-.61,2.11,2.11,0,0,0,.61-1.48l0-26.64A2.08,2.08,0,0,0,455.53,354.31Z"/><path class="cls-3" d="M488.85,355.76a2.1,2.1,0,0,0-2.09-2.09h0l-23.72,0a2.1,2.1,0,0,0-2.09,2.09v5.08a2.08,2.08,0,0,0,2.08,2.08h5.75a.45.45,0,0,1,.45.45l0,19a2.08,2.08,0,0,0,2.09,2.08h7.11a2.08,2.08,0,0,0,2.09-2.09l0-19a.45.45,0,0,1,.45-.45h5.79a2.08,2.08,0,0,0,2.08-2.09Z"/><path class="cls-3" d="M739.9,354a1.83,1.83,0,0,0-1.29-.53h0l-24.27,0a1.83,1.83,0,0,0-1.81,1.82v5.62a1.81,1.81,0,0,0,1.81,1.81h6.29a.17.17,0,0,1,.18.18l0,19.56a1.83,1.83,0,0,0,.53,1.29,1.81,1.81,0,0,0,1.28.53h7.67a1.82,1.82,0,0,0,1.81-1.81l0-19.57a.2.2,0,0,1,0-.13.22.22,0,0,1,.13,0h6.33a1.81,1.81,0,0,0,1.81-1.81v-5.63A1.83,1.83,0,0,0,739.9,354Z"/><path class="cls-3" d="M769.2,374.32a.16.16,0,0,1,0-.22,10,10,0,0,0,2.93-3.52,13.05,13.05,0,0,0,1.27-5.88,10.34,10.34,0,0,0-3.55-8.35c-2.3-1.93-5.56-2.91-9.7-2.91h0l-13.12,0a1.82,1.82,0,0,0-1.81,1.81l0,27.19a1.82,1.82,0,0,0,1.81,1.81h7.67a1.82,1.82,0,0,0,1.81-1.81v-5.59a.18.18,0,0,1,.18-.18h2a.18.18,0,0,1,.16.1l3,6.42h0a1.82,1.82,0,0,0,1.64,1.05H772a1.77,1.77,0,0,0,1.57-.92,1.79,1.79,0,0,0,0-1.83ZM762.65,365a3,3,0,0,1-.64,2.05,2.34,2.34,0,0,1-1.83.67h-3.46a.18.18,0,0,1-.18-.18v-5a.18.18,0,0,1,.05-.13.22.22,0,0,1,.13,0h3.46A2.42,2.42,0,0,1,762,363,2.75,2.75,0,0,1,762.65,365Z"/><path class="cls-3" d="M800.3,354.54a1.8,1.8,0,0,0-1.68-1.13H790a1.8,1.8,0,0,0-1.66,1.11l-11.46,27.19a1.81,1.81,0,0,0,1.67,2.52h7.71A1.82,1.82,0,0,0,788,383l1-2.81a.18.18,0,0,1,.17-.12h9.54a.17.17,0,0,1,.17.12l1,2.79a1.82,1.82,0,0,0,1.71,1.21h8.1a1.82,1.82,0,0,0,1.5-.8,1.79,1.79,0,0,0,.17-1.69Zm-4.5,16.95a.19.19,0,0,1-.15.07H792.4a.19.19,0,0,1-.15-.07.19.19,0,0,1,0-.17l1.65-4.57a.16.16,0,0,1,.16-.12h0a.16.16,0,0,1,.17.12l1.61,4.57A.19.19,0,0,1,795.8,371.49Z"/><path class="cls-3" d="M825.26,353.92a1.83,1.83,0,0,0-1.29-.53h-7.66a1.79,1.79,0,0,0-1.28.53,1.77,1.77,0,0,0-.53,1.28l0,27.18a1.83,1.83,0,0,0,.53,1.29,1.81,1.81,0,0,0,1.28.53H824a1.81,1.81,0,0,0,1.81-1.81l0-27.19A1.81,1.81,0,0,0,825.26,353.92Z"/><path class="cls-3" d="M862.45,355.17a1.81,1.81,0,0,0-1.81-1.81h-6.75a1.75,1.75,0,0,0-1.28.53,1.79,1.79,0,0,0-.53,1.28v11.06a.16.16,0,0,1-.12.17.17.17,0,0,1-.2-.06l-9.46-12.27a1.82,1.82,0,0,0-1.43-.7h-6.59a1.82,1.82,0,0,0-1.81,1.82l0,27.18a1.81,1.81,0,0,0,1.81,1.81h6.79a1.81,1.81,0,0,0,1.81-1.81v-11a.16.16,0,0,1,.12-.17.15.15,0,0,1,.19.06l9.42,12.19a1.82,1.82,0,0,0,1.43.7h6.6a1.82,1.82,0,0,0,1.81-1.82Z"/><path class="cls-4" d="M619.48,360.18a3.77,3.77,0,0,0-3.77-3.77h-5a3.76,3.76,0,0,0-2.67,1.11,3.71,3.71,0,0,0-1.1,2.67v13.57L594.7,357.9a3.81,3.81,0,0,0-3-1.47H586a3.77,3.77,0,0,0-3.77,3.78l0,30.74a3.79,3.79,0,0,0,3.78,3.78h5.07a3.78,3.78,0,0,0,3.77-3.78V377.47l12.18,15.77a3.79,3.79,0,0,0,3,1.47h5.71a3.79,3.79,0,0,0,3.77-3.78Z"/><rect class="cls-4" x="593.61" y="438.88" width="14.23" height="21.76" rx="1.91"/><rect class="cls-4" x="593.89" y="275.27" width="14.23" height="21.76" rx="1.91"/><rect class="cls-4" x="534.76" y="416.07" width="21.76" height="14.23" rx="1.91" transform="translate(-139.35 510.38) rotate(-45.05)"/><rect class="cls-4" x="650.64" y="300.58" width="21.76" height="14.23" rx="1.91" transform="translate(-23.61 558.45) rotate(-45.05)"/><rect class="cls-4" x="650.32" y="412.21" width="14.23" height="21.76" rx="1.91" transform="translate(-106.47 589.43) rotate(-45.05)"/><rect class="cls-4" x="534.24" y="296.92" width="14.23" height="21.76" rx="1.91" transform="translate(-58.94 473.47) rotate(-45.05)"/><rect class="cls-4" x="507.61" y="359.02" width="21.76" height="14.23" rx="1.91"/><rect class="cls-4" x="671.21" y="359.3" width="21.76" height="14.23" rx="1.91"/><path class="cls-4" d="M663.85,354.5a65.4,65.4,0,0,0-9.4-21.83c-7.89-11.67-23.38-25.58-52.39-25.58H602c-28.92,0-45,13.86-53.45,25.46a68.75,68.75,0,0,0-10.45,21.8,4.32,4.32,0,0,0,2.45,5.12l6.57,2.81a4.3,4.3,0,0,0,1.72.35,53.22,53.22,0,0,0,52,64.36h0a53.21,53.21,0,0,0,53.18-53.27,53.6,53.6,0,0,0-1.27-11.56,4.4,4.4,0,0,0,1.51-.23l6.76-2.41A4.31,4.31,0,0,0,663.85,354.5ZM602,321.32h.07c19.41,0,31.12,7.57,38.13,16-9.31-4.14-21.79-7.37-38.09-7.37H602c-16.62,0-29.58,3.37-39.33,7.62C570.17,329,582.37,321.34,602,321.32Zm26.48,80a38.76,38.76,0,0,1-27.57,11.45h0a39,39,0,0,1-30.81-62.9c7.93-3.18,18.44-5.67,32-5.68h.1c12.07,0,21.51,2,28.76,4.66a39,39,0,0,1-2.4,52.47Z"/><path class="cls-3" d="M555.61,485c2.38-3,3.29-6.1,2.72-9.26h0c-.57-3.11-2.55-6.05-5.9-8.72l-10.92-8.71a1.59,1.59,0,0,0-2.25.26l-18.62,23.35a1.6,1.6,0,0,0,.25,2.25l6.91,5.51a1.6,1.6,0,0,0,2.25-.25l4.06-5.15,2.79,2.22c3.06,2.44,6.11,3.67,9.1,3.67a8.51,8.51,0,0,0,.88,0C550.17,489.88,553.1,488.16,555.61,485Zm-8.39-9a3,3,0,0,1-.8,2.11,3.19,3.19,0,0,1-2,1.32,2.54,2.54,0,0,1-2-.68l-2.36-1.84,3.64-4.62,2.37,1.89A2.68,2.68,0,0,1,547.22,476Z"/><path class="cls-3" d="M574.05,480l-8.2-3.3a1.57,1.57,0,0,0-1.22,0,1.63,1.63,0,0,0-.86.87l-11.18,27.7a1.57,1.57,0,0,0,0,1.22,1.53,1.53,0,0,0,.87.86l8.19,3.31a1.61,1.61,0,0,0,.6.12,1.51,1.51,0,0,0,.63-.13,1.63,1.63,0,0,0,.86-.87l11.18-27.7A1.61,1.61,0,0,0,574.05,480Z"/><path class="cls-3" d="M608.21,506.81a1.58,1.58,0,0,0-1.13-.46h0l-12.45.14L607.87,491a1.67,1.67,0,0,0,.38-1l0-5.43a1.6,1.6,0,0,0-1.6-1.59h0l-26.42.19a1.59,1.59,0,0,0-1.13.47,1.62,1.62,0,0,0-.46,1.14l0,6.41a1.62,1.62,0,0,0,1.61,1.59l11.6-.13L578.6,508.09a1.59,1.59,0,0,0-.38,1.05l0,5.42a1.6,1.6,0,0,0,1.6,1.59h0l27.27-.19a1.6,1.6,0,0,0,1.59-1.61l0-6.41A1.64,1.64,0,0,0,608.21,506.81Z"/><path class="cls-3" d="M646.75,498.52a1.6,1.6,0,0,0-.8-.93,1.57,1.57,0,0,0-1.22-.11l-11.85,3.85,8-18.77a1.6,1.6,0,0,0,.05-1.12l-1.65-5.17a1.58,1.58,0,0,0-.79-.93,1.55,1.55,0,0,0-1.23-.1l-25.16,8a1.6,1.6,0,0,0-1,2L613,491.4a1.61,1.61,0,0,0,2,1l11-3.58-8,18.76a1.6,1.6,0,0,0-.05,1.12l1.65,5.16a1.6,1.6,0,0,0,1.52,1.12,1.36,1.36,0,0,0,.49-.08l26-8.3a1.55,1.55,0,0,0,.93-.79,1.57,1.57,0,0,0,.11-1.22Z"/><path class="cls-3" d="M682.87,479.07l-28-16a1.61,1.61,0,0,0-1.78.13l-7.58,5.94a1.6,1.6,0,0,0-.56,1.68l8.49,31.29a1.6,1.6,0,0,0,1,1.1,1.51,1.51,0,0,0,.51.08,1.54,1.54,0,0,0,1-.34l7-5.51a1.61,1.61,0,0,0,.54-1.76l-1.14-3.41,8.38-6.59,3,1.93h0a1.59,1.59,0,0,0,1.84-.09l7.37-5.77a1.6,1.6,0,0,0-.19-2.65Zm-20.07,1.35-3.37,2.63-2-6Z"/><path class="cls-3" d="M520.68,461.52a2.31,2.31,0,0,0-.83-1.65c-16.6-14.11-23.87-29.27-30.2-49.17l-.95-3a2.33,2.33,0,0,0-2.23-1.63l-149,.11a2.36,2.36,0,0,0-1.66.69,2.33,2.33,0,0,0-.68,1.66v8.55a2.36,2.36,0,0,0,2.35,2.34l140.16-.11a1.35,1.35,0,0,1,1.26.9c8.15,22.46,17,35.74,32.7,49a2.38,2.38,0,0,0,3.25-.22l5.22-5.8A2.25,2.25,0,0,0,520.68,461.52Z"/><path class="cls-3" d="M721.1,420a1.33,1.33,0,0,1,1.24-.87L862.53,419a2.32,2.32,0,0,0,2.32-2.32v-8.6a2.34,2.34,0,0,0-2.33-2.32h0l-149,.11a2.32,2.32,0,0,0-2.21,1.63l-.95,3c-7.37,23.28-16.26,37.31-31.71,50a2.32,2.32,0,0,0-.84,1.79,2.37,2.37,0,0,0,.86,1.8l6.45,5.27a2.41,2.41,0,0,0,3-.06C703.32,455.73,713.8,440.05,721.1,420Z"/><path class="cls-3" d="M864.85,323.2a3,3,0,0,0-3-2.95l-139.12.1a2,2,0,0,1-1.83-1.29c-8.05-22-16.74-35.11-32.09-48.22a2.94,2.94,0,0,0-4.12.26l-4.4,4.89a2.94,2.94,0,0,0,.26,4.21c16.31,14,23.48,29.05,29.76,48.79l.82,2.55A2.94,2.94,0,0,0,714,333.6l147.92-.11a3,3,0,0,0,3-3Z"/><path class="cls-3" d="M478.91,319.65a1.37,1.37,0,0,1-1.29.91l-140.1.11a2.37,2.37,0,0,0-2.37,2.38v8.48a2.39,2.39,0,0,0,2.38,2.38l148.92-.12a2.35,2.35,0,0,0,2.26-1.66l.94-3c7.37-23.26,16.24-37.27,31.66-50a2.37,2.37,0,0,0,0-3.67l-6.36-5.21a2.44,2.44,0,0,0-1.51-.53,2.39,2.39,0,0,0-1.59.6C496.67,284,486.21,299.63,478.91,319.65Z"/></svg>