<svg id="Layer_1" data-name="Layer 1" xmlns="http://www.w3.org/2000/svg" xmlns:xlink="http://www.w3.org/1999/xlink" viewBox="0 0 1200 750"><defs><style>.cls-1{fill:none;}.cls-2{fill:#fff;}.cls-3{clip-path:url(#clip-path);}.cls-4{fill:#e8ebeb;}.cls-5{clip-path:url(#clip-path-2);}.cls-6{fill:#e9e9e9;}.cls-7{clip-path:url(#clip-path-3);}.cls-8{clip-path:url(#clip-path-4);}.cls-9{clip-path:url(#clip-path-5);}.cls-10{fill:#262626;}.cls-11{clip-path:url(#clip-path-6);}</style><clipPath id="clip-path"><rect class="cls-1" x="196.83" y="74.11" width="578.94" height="386.1"/></clipPath><clipPath id="clip-path-2"><rect class="cls-1" x="669.22" y="219.72" width="750" height="311.57" transform="translate(1419.72 -668.72) rotate(90)"/></clipPath><clipPath id="clip-path-3"><rect class="cls-1" x="925.02" y="219.68" width="188.13" height="315.46" transform="translate(2038.17 754.82) rotate(180)"/></clipPath><clipPath id="clip-path-4"><circle class="cls-1" cx="925.28" cy="369.62" r="141.88"/></clipPath><clipPath id="clip-path-5"><rect class="cls-1" x="673.11" y="224.01" width="475.53" height="317.14"/></clipPath><clipPath id="clip-path-6"><rect class="cls-1" x="94.22" y="432.87" width="981.85" height="246.76"/></clipPath><image id="image" width="2000" height="1333" xlink:href="G:%5CMy%20Drive%5C001%20Design%5C002%20Finished%20Work%5C003%20Gateway%5C002%20Sermon%20Series%5CQuantum%5Cramon-salinero-vEE00Hx5d0Q-unsplash_v2.jpg"/></defs><rect class="cls-2" x="175" y="52.5" width="625" height="424"/><g class="cls-3"><use transform="translate(73.42 -50.51) scale(0.45 0.45)" xlink:href="#image"/></g><path class="cls-4" d="M252,347.2a2.28,2.28,0,0,0-.14.79c0,.44-.07,1.08-.08,1.9s0,1.87,0,3.13l0,14.58a12.74,12.74,0,0,1-.77,4.68,6.31,6.31,0,0,1-2.18,2.92,5.68,5.68,0,0,1-3.38,1,5.86,5.86,0,0,1-3.14-.83,2.34,2.34,0,0,1-1.34-2,1.44,1.44,0,0,1,.41-1.07,1.57,1.57,0,0,1,1.12-.39,2.27,2.27,0,0,1,1,.26,3.84,3.84,0,0,1,1,.76l2,2-1.37-.47a2.43,2.43,0,0,0,1.82-.28,2.85,2.85,0,0,0,1-1.71,12.62,12.62,0,0,0,.34-3.28V353c0-1.16,0-2.13,0-2.93s0-1.45,0-1.95a3.48,3.48,0,0,0-.1-.94l-2.67-.55.08-1.49h8.64l.08,1.49Z"/><path class="cls-4" d="M265.68,368.54a8.36,8.36,0,0,1-4.12-1,7.33,7.33,0,0,1-2.91-2.93,9.08,9.08,0,0,1-1.06-4.5,9.75,9.75,0,0,1,1.14-4.83,8.37,8.37,0,0,1,3-3.17,7.37,7.37,0,0,1,4-1.08,6.13,6.13,0,0,1,4.8,2,8.39,8.39,0,0,1,1.73,5.68v.7H260.14v-1.73h9.47l-.43.51v-.82a5.4,5.4,0,0,0-1-3.48,3.44,3.44,0,0,0-2.81-1.24,3.9,3.9,0,0,0-2.12.65,4.46,4.46,0,0,0-1.65,2,7.65,7.65,0,0,0-.63,3.32v.47a7.35,7.35,0,0,0,1.59,5,5.21,5.21,0,0,0,4.11,1.81,5.63,5.63,0,0,0,2.49-.53,6.52,6.52,0,0,0,2.1-1.79l1,.9a7.69,7.69,0,0,1-2.79,3.05A7.27,7.27,0,0,1,265.68,368.54Z"/><path class="cls-4" d="M281.33,368.54a13.12,13.12,0,0,1-2.91-.33,9.68,9.68,0,0,1-2.48-.89l-.19-4.2h1.92l.79,2.83a5.17,5.17,0,0,0,3.14.94,3.41,3.41,0,0,0,2.14-.65,2.07,2.07,0,0,0,.85-1.75,2.44,2.44,0,0,0-.75-1.8,9.66,9.66,0,0,0-2.91-1.66,13.16,13.16,0,0,1-3.93-2.35,4.15,4.15,0,0,1-.29-5.37,5.54,5.54,0,0,1,2.34-1.69,9,9,0,0,1,3.46-.61,14.38,14.38,0,0,1,2.24.18,6.82,6.82,0,0,1,1.88.53l.44,4.09h-1.85l-1-2.68a3.54,3.54,0,0,0-.94-.37,5,5,0,0,0-1.18-.14,3.47,3.47,0,0,0-2.2.65,2,2,0,0,0-.82,1.67,2.34,2.34,0,0,0,.9,1.91,17.12,17.12,0,0,0,3.18,1.79,11,11,0,0,1,3.62,2.32,4,4,0,0,1,1,2.75,4.14,4.14,0,0,1-1.85,3.48A7.71,7.71,0,0,1,281.33,368.54Z"/><path class="cls-4" d="M307.31,365.48l2.47.63v1.29l-5.11,1.26-.59-.51,0-2.48-.11,0a7.15,7.15,0,0,1-2.34,2.26,5.26,5.26,0,0,1-2.58.65,6.24,6.24,0,0,1-4.4-1.63,6.34,6.34,0,0,1-1.77-4.89v-3.38q0-1.06-.06-2.13c0-.7-.08-1.41-.13-2.12l-2.68-.55v-1.3l5.35-1.45.71.63c-.06.81-.1,1.68-.12,2.59s0,1.88,0,2.87l0,4.33a4.51,4.51,0,0,0,1.14,3.47,4.13,4.13,0,0,0,2.91,1,4.87,4.87,0,0,0,2.16-.55,5,5,0,0,0,1.93-1.89V359c0-.58,0-1.15,0-1.71s0-1.1-.06-1.61-.07-.95-.12-1.32l-2.87-.55v-1.3l5.54-1.45.59.55c0,.73,0,1.38-.06,1.95s0,1.12,0,1.69V360c0,1.44,0,2.6.1,3.48S307.25,365,307.31,365.48Z"/><path class="cls-4" d="M318.47,368.54a13.12,13.12,0,0,1-2.91-.33,9.6,9.6,0,0,1-2.47-.89l-.2-4.2h1.93l.78,2.83a5.2,5.2,0,0,0,3.15.94,3.45,3.45,0,0,0,2.14-.65,2.09,2.09,0,0,0,.84-1.75,2.47,2.47,0,0,0-.74-1.8,9.8,9.8,0,0,0-2.91-1.66,13.16,13.16,0,0,1-3.93-2.35,3.9,3.9,0,0,1-1.14-2.87,4,4,0,0,1,.84-2.5,5.6,5.6,0,0,1,2.34-1.69,9.06,9.06,0,0,1,3.46-.61,14.38,14.38,0,0,1,2.24.18,6.9,6.9,0,0,1,1.89.53l.43,4.09h-1.85l-.94-2.68a3.62,3.62,0,0,0-.95-.37,4.87,4.87,0,0,0-1.17-.14,3.52,3.52,0,0,0-2.21.65,2,2,0,0,0-.82,1.67,2.34,2.34,0,0,0,.9,1.91,17.64,17.64,0,0,0,3.19,1.79A11,11,0,0,1,324,361a4,4,0,0,1,1,2.75,4.17,4.17,0,0,1-1.85,3.48A7.72,7.72,0,0,1,318.47,368.54Z"/><path class="cls-4" d="M341.82,368.54a6,6,0,0,1-2.79-.63,5.08,5.08,0,0,1-1.91-1.61,3.5,3.5,0,0,1-.69-2,2.92,2.92,0,0,1,.85-2.16,7.15,7.15,0,0,1,2.85-1.54l6-2v-2a2.89,2.89,0,0,0-.59-1.78,4,4,0,0,0-1.57-1.28,4.93,4.93,0,0,0-2.2-.47,1.7,1.7,0,0,0-1.34.41,3,3,0,0,0-.43,1.63l-.08,1.65a3.91,3.91,0,0,1-2.4-.1,1.39,1.39,0,0,1-1-1.35,2.06,2.06,0,0,1,.59-1.34,7.45,7.45,0,0,1,1.53-1.28,12.51,12.51,0,0,1,2-1,9.64,9.64,0,0,1,2.14-.59,6.94,6.94,0,0,1,4.64,1.51,5.18,5.18,0,0,1,1.81,4l-.08,6.61c0,.47,0,.95.06,1.43a5.53,5.53,0,0,0,.17,1.08l2.52.47v1.22l-1.93.71a5.37,5.37,0,0,1-1,.35,3.23,3.23,0,0,1-.78.12,1.56,1.56,0,0,1-1.58-1.37l-.43-1.54h.59a11.1,11.1,0,0,1-2.5,2.18A4.59,4.59,0,0,1,341.82,368.54Zm1.06-2.32a3.78,3.78,0,0,0,1.71-.41,4.67,4.67,0,0,0,1.51-1.28v-4.12l-4.4,1.17a2.5,2.5,0,0,0-1.36.75,2,2,0,0,0-.41,1.3,2.41,2.41,0,0,0,.89,1.79A3,3,0,0,0,342.88,366.22Z"/><path class="cls-4" d="M354,368.23l-.08-1.42,2.44-.59a5.94,5.94,0,0,0,.06-.74c0-.32,0-.75.06-1.3s0-1.27,0-2.16l0-3c0-.86,0-1.73-.1-2.59s-.14-1.54-.22-2l-2.51-.55v-1.3l5.27-1.45.66.63-.19,2.08.11,0a10,10,0,0,1,2.72-2.16,6.35,6.35,0,0,1,2.91-.67,5.31,5.31,0,0,1,4.81,3,8,8,0,0,1,.81,3.79v4.36c0,.95,0,1.8.06,2.56a7.12,7.12,0,0,0,.17,1.53l2.44.59-.12,1.42h-7.9l-.08-1.42,2.28-.59c0-.21.05-.47.08-.78s0-.72.06-1.22,0-1.1,0-1.81v-4.24a5.57,5.57,0,0,0-.61-2.82,3.72,3.72,0,0,0-1.51-1.49,4.13,4.13,0,0,0-1.85-.45,4.75,4.75,0,0,0-2.4.63,6,6,0,0,0-1.92,1.81v5.89c0,1.23,0,2.22.05,2.95a15,15,0,0,0,.14,1.53l2.44.59-.12,1.42Z"/><path class="cls-4" d="M389.42,368.66l-.59-.51,0-2.56-.12,0a7,7,0,0,1-2.4,2.32,5.5,5.5,0,0,1-2.63.67,7.53,7.53,0,0,1-6.78-4,8.63,8.63,0,0,1-1-4.22,10.07,10.07,0,0,1,.7-3.82,8.93,8.93,0,0,1,4.76-4.87,8.17,8.17,0,0,1,3.26-.67,9.25,9.25,0,0,1,2.22.28,5.28,5.28,0,0,1,1.95.86c0-.47,0-1.09,0-1.85s0-1.55,0-2.37,0-1.56,0-2.21,0-1.08-.06-1.31l-3.07-.55-.07-1.3L391.3,341l.71.55c-.05,1.63-.09,3.2-.12,4.72s0,3.1,0,4.75l0,9c0,1.34,0,2.49.1,3.44s.11,1.63.14,2l2.52.63v1.29Zm-4.72-2.75a4.66,4.66,0,0,0,2.1-.49,6.32,6.32,0,0,0,2-1.75v-8.45a4.41,4.41,0,0,0-1.89-1.89,5.16,5.16,0,0,0-2.28-.55,4.59,4.59,0,0,0-3.87,1.83,7.6,7.6,0,0,0-1.4,4.73A7,7,0,0,0,381,364.2,4.87,4.87,0,0,0,384.7,365.91Z"/><path class="cls-4" d="M416.66,365.79a5.24,5.24,0,0,1-2.05,2,5.41,5.41,0,0,1-2.71.73,5.48,5.48,0,0,1-3.91-1.45,5.7,5.7,0,0,1-1.55-4.37l.11-9.39H403.8v-.83l5.07-4.59h.75l-.08,4.52,0,9.67a4.39,4.39,0,0,0,.89,3,3.17,3.17,0,0,0,2.49,1,3.73,3.73,0,0,0,1.67-.38,6.64,6.64,0,0,0,1.4-.92Zm-8.53-12.46v-2h7.35v2Z"/><path class="cls-4" d="M417.64,368.23l-.08-1.42,2.44-.59a9.24,9.24,0,0,0,.09-1.31c0-.59,0-1.39.06-2.38s0-2.22,0-3.66V354c0-.89,0-1.85,0-2.87s0-2,0-3,0-1.79-.05-2.51,0-1.19,0-1.4l-2.91-.39-.08-1.26,5.54-1.61.75.55c0,.81,0,1.63-.08,2.44s-.05,1.69-.06,2.63,0,2,0,3.16,0,2.53,0,4.07l.12,0a9.39,9.39,0,0,1,2.67-2.16,6.35,6.35,0,0,1,2.91-.67,5.3,5.3,0,0,1,2.73.75,5.6,5.6,0,0,1,2.09,2.26,8.29,8.29,0,0,1,.8,3.87v4.24c0,.95,0,1.79.08,2.54a13.48,13.48,0,0,0,.16,1.55l2.43.59-.07,1.42h-7.9l-.12-1.42,2.28-.59c0-.21.05-.47.08-.78s0-.72.05-1.22,0-1.1,0-1.81v-4.24a5.72,5.72,0,0,0-.57-2.74,3.75,3.75,0,0,0-1.47-1.53,3.93,3.93,0,0,0-1.93-.49,4.72,4.72,0,0,0-2.39.63,5.91,5.91,0,0,0-1.93,1.81v5.89c0,1.21,0,2.2.06,3a9.24,9.24,0,0,0,.14,1.49l2.39.59-.07,1.42Z"/><path class="cls-4" d="M447.79,368.54a8.4,8.4,0,0,1-4.13-1,7.39,7.39,0,0,1-2.91-2.93,9.08,9.08,0,0,1-1.06-4.5,9.75,9.75,0,0,1,1.14-4.83,8.31,8.31,0,0,1,3-3.17,7.35,7.35,0,0,1,4-1.08,6.12,6.12,0,0,1,4.79,2,8.39,8.39,0,0,1,1.73,5.68v.7H442.24v-1.73h9.48l-.44.51v-.82a5.4,5.4,0,0,0-1-3.48,3.42,3.42,0,0,0-2.81-1.24,3.93,3.93,0,0,0-2.12.65,4.59,4.59,0,0,0-1.65,2,7.65,7.65,0,0,0-.63,3.32v.47a7.35,7.35,0,0,0,1.59,5,5.21,5.21,0,0,0,4.11,1.81,5.63,5.63,0,0,0,2.49-.53,6.55,6.55,0,0,0,2.11-1.79l1,.9a7.55,7.55,0,0,1-2.79,3.05A7.26,7.26,0,0,1,447.79,368.54Z"/><path class="cls-4" d="M257.74,410.58a12.11,12.11,0,0,1-6.07-1.49,10.75,10.75,0,0,1-4.15-4.15,12.29,12.29,0,0,1-1.49-6.11,12.56,12.56,0,0,1,1.51-6.17,11.14,11.14,0,0,1,4.21-4.27,12,12,0,0,1,6.07-1.55,11.16,11.16,0,0,1,5.82,1.5,10.58,10.58,0,0,1,3.95,4.12,12.52,12.52,0,0,1,1.43,6.1,12.67,12.67,0,0,1-.88,4.81,12.12,12.12,0,0,1-2.4,3.79,10.61,10.61,0,0,1-3.46,2.48,10,10,0,0,1-4.14.86Zm.36-2.08a6.18,6.18,0,0,0,3.69-1.1,7.26,7.26,0,0,0,2.4-3.13,12,12,0,0,0,.86-4.77,14.56,14.56,0,0,0-1-5.58,9,9,0,0,0-2.69-3.76,6.79,6.79,0,0,0-9.32,1.14,10.82,10.82,0,0,0-1.94,6.78,13.42,13.42,0,0,0,1,5.41,8.78,8.78,0,0,0,2.83,3.67A6.78,6.78,0,0,0,258.1,408.5Zm9.51,7.08a12,12,0,0,1-2.3-.22,10.47,10.47,0,0,1-2.1-.67,19.84,19.84,0,0,1-2.2-1.16l-1.42-.9L258,411.57c-.56-.37-1.11-.69-1.63-1a7.23,7.23,0,0,0-1.42-.57h4.33a14.14,14.14,0,0,1,3,.51,13.26,13.26,0,0,1,2.62,1.14,12.36,12.36,0,0,0,2.51,1.07,8.94,8.94,0,0,0,2.44.35,7.43,7.43,0,0,0,1.22-.1c.42-.07.82-.15,1.22-.25l.39,1.49a8.53,8.53,0,0,1-2.34,1A10.33,10.33,0,0,1,267.61,415.58Z"/><path class="cls-4" d="M288.87,407.52l2.48.63v1.29l-5.11,1.26-.59-.51,0-2.48-.12,0a7.15,7.15,0,0,1-2.34,2.26,5.22,5.22,0,0,1-2.57.65,6.22,6.22,0,0,1-4.4-1.63,6.32,6.32,0,0,1-1.77-4.89v-3.38c0-.71,0-1.42-.06-2.12s-.09-1.42-.14-2.13l-2.67-.55v-1.29l5.34-1.46.71.63c-.05.81-.09,1.68-.12,2.59s0,1.88,0,2.87l0,4.33a4.55,4.55,0,0,0,1.14,3.48,4.14,4.14,0,0,0,2.9,1,4.72,4.72,0,0,0,4.09-2.44v-4.56c0-.57,0-1.15,0-1.71s0-1.1-.06-1.61-.06-.95-.11-1.32l-2.87-.55v-1.29l5.54-1.46.59.55c0,.74-.05,1.38-.06,1.95s0,1.12,0,1.69v4.73c0,1.45,0,2.6.1,3.48S288.82,407.07,288.87,407.52Z"/><path class="cls-4" d="M300,410.58a6,6,0,0,1-2.79-.63,5,5,0,0,1-1.91-1.61,3.48,3.48,0,0,1-.69-2,2.92,2.92,0,0,1,.85-2.16,7.15,7.15,0,0,1,2.85-1.54l6-2v-2a2.89,2.89,0,0,0-.59-1.78,4.06,4.06,0,0,0-1.57-1.28,5,5,0,0,0-2.2-.47,1.7,1.7,0,0,0-1.34.41,3,3,0,0,0-.43,1.63l-.08,1.65a3.91,3.91,0,0,1-2.4-.1,1.39,1.39,0,0,1-1-1.35,2.06,2.06,0,0,1,.59-1.34,7.5,7.5,0,0,1,1.53-1.28,12.51,12.51,0,0,1,2-1,9.64,9.64,0,0,1,2.14-.59,6.9,6.9,0,0,1,4.64,1.52,5.16,5.16,0,0,1,1.81,4l-.08,6.61c0,.47,0,.95.06,1.43a4.85,4.85,0,0,0,.17,1.08l2.52.48v1.21l-1.93.71a5.9,5.9,0,0,1-1,.35,3.3,3.3,0,0,1-.79.12,1.55,1.55,0,0,1-1.57-1.37l-.43-1.54H305a11.44,11.44,0,0,1-2.5,2.19A4.69,4.69,0,0,1,300,410.58Zm1.06-2.32a3.65,3.65,0,0,0,1.71-.41,4.78,4.78,0,0,0,1.51-1.28v-4.12l-4.4,1.18a2.43,2.43,0,0,0-1.36.74,2,2,0,0,0-.41,1.3,2.41,2.41,0,0,0,.88,1.79A3,3,0,0,0,301.1,408.26Z"/><path class="cls-4" d="M312.18,410.27l-.08-1.42,2.44-.59a5.94,5.94,0,0,0,.06-.74c0-.32,0-.75.06-1.3s0-1.27,0-2.16l0-3c0-.86,0-1.73-.1-2.59s-.14-1.54-.22-2l-2.51-.55v-1.29l5.26-1.46.67.63-.19,2.08.11,0a9.82,9.82,0,0,1,2.72-2.16,6.47,6.47,0,0,1,2.9-.67,5.31,5.31,0,0,1,4.82,3,8,8,0,0,1,.8,3.79v4.37q0,1.41.06,2.55a7.62,7.62,0,0,0,.18,1.53l2.44.59-.12,1.42h-7.9l-.08-1.42,2.28-.59c0-.21.05-.47.08-.78s0-.72.06-1.22,0-1.1,0-1.81v-4.24a5.61,5.61,0,0,0-.61-2.81,3.68,3.68,0,0,0-1.51-1.5,4.13,4.13,0,0,0-1.85-.45,4.73,4.73,0,0,0-2.4.63,6,6,0,0,0-1.93,1.81v5.89c0,1.23,0,2.22.06,3a14.71,14.71,0,0,0,.14,1.53l2.44.59-.12,1.42Z"/><path class="cls-4" d="M346.14,407.83a5.37,5.37,0,0,1-2,2,5.53,5.53,0,0,1-2.71.72,5.47,5.47,0,0,1-3.91-1.45,5.68,5.68,0,0,1-1.56-4.36l.12-9.4h-2.75v-.82l5.07-4.6h.75l-.08,4.52,0,9.67a4.39,4.39,0,0,0,.88,3,3.17,3.17,0,0,0,2.5,1,3.76,3.76,0,0,0,1.67-.38,6,6,0,0,0,1.39-.92Zm-8.53-12.46v-2H345v2Z"/><path class="cls-4" d="M363.79,407.52l2.48.63v1.29l-5.11,1.26-.59-.51,0-2.48-.12,0a7.15,7.15,0,0,1-2.34,2.26,5.25,5.25,0,0,1-2.57.65,6.25,6.25,0,0,1-4.41-1.63,6.32,6.32,0,0,1-1.77-4.89v-3.38c0-.71,0-1.42,0-2.12s-.09-1.42-.14-2.13l-2.67-.55v-1.29l5.34-1.46.71.63c0,.81-.09,1.68-.12,2.59s0,1.88,0,2.87l0,4.33a4.55,4.55,0,0,0,1.14,3.48,4.17,4.17,0,0,0,2.91,1,4.87,4.87,0,0,0,2.16-.55,5,5,0,0,0,1.93-1.89v-4.56c0-.57,0-1.15,0-1.71s0-1.1-.06-1.61-.07-.95-.12-1.32l-2.87-.55v-1.29l5.54-1.46.59.55c0,.74,0,1.38,0,1.95s0,1.12,0,1.69v4.73c0,1.45,0,2.6.1,3.48S363.74,407.07,363.79,407.52Z"/><path class="cls-4" d="M368.51,410.27l-.08-1.42,2.44-.59c0-.18,0-.42.05-.7s0-.71.06-1.26,0-1.3,0-2.24l0-3.07c0-.55,0-1.11,0-1.69s-.06-1.12-.12-1.63-.1-.92-.15-1.24l-2.52-.55v-1.29l5.27-1.46.67.63-.2,2.12.12,0a8.09,8.09,0,0,1,2.51-2.2,5.94,5.94,0,0,1,2.72-.67,5.3,5.3,0,0,1,2.67.75,5.77,5.77,0,0,1,2.14,2.28A8.12,8.12,0,0,1,385,400l0,4.17c0,.94,0,1.78.06,2.53a8.23,8.23,0,0,0,.18,1.55l2.36.59-.12,1.42h-7.66l-.12-1.42,2.16-.59c0-.21.05-.47.08-.78s.05-.72.06-1.22,0-1.1,0-1.81l0-4.32a5.93,5.93,0,0,0-.53-2.71,3.47,3.47,0,0,0-1.4-1.5,3.82,3.82,0,0,0-1.85-.47A4.67,4.67,0,0,0,376,396a5.33,5.33,0,0,0-1.91,1.85v5.89c0,1.21,0,2.18.06,2.93a12.34,12.34,0,0,0,.14,1.55l2.31.59-.11,1.42Zm22.16,0-.11-1.42,2.24-.59q0-.31.06-.78c0-.32,0-.72.06-1.22s0-1.1,0-1.81v-4.28a5.5,5.5,0,0,0-.59-2.75,3.74,3.74,0,0,0-3.27-2,4.72,4.72,0,0,0-2.49.67,6.47,6.47,0,0,0-2,2l-.74-1.45a9.56,9.56,0,0,1,2.92-2.77,6.56,6.56,0,0,1,3.29-.89,5.7,5.7,0,0,1,3,.79,5.6,5.6,0,0,1,2.13,2.28,7.7,7.7,0,0,1,.78,3.61v4.45c0,.94,0,1.78.06,2.53a14.68,14.68,0,0,0,.14,1.55l2.44.59-.08,1.42Z"/><path class="cls-4" d="M426.29,393l-7,17.42H417.6l-8.22-21.15-2-.55.08-1.49h7.66l.12,1.49-2,.51,6.44,17.18h-.82l6.25-16.55Zm5.5,17.42-8.14-21.15-2-.55.08-1.49h8l.11,1.49-2.39.51,6.36,17.18h-.78l6.21-17.14-2.79-.55.11-1.49h7.24l.11,1.49-2,.55-8.45,21.15Z"/><path class="cls-4" d="M452.5,410.58a8.7,8.7,0,0,1-4.46-1.1,7.66,7.66,0,0,1-3-3.08,9.59,9.59,0,0,1-1.06-4.54,9,9,0,0,1,1.16-4.64,8.29,8.29,0,0,1,3.15-3.07,8.83,8.83,0,0,1,4.34-1.1,8.16,8.16,0,0,1,4.25,1.08,7.6,7.6,0,0,1,2.83,3,9.65,9.65,0,0,1,1,4.54,9.31,9.31,0,0,1-1.1,4.5,8.56,8.56,0,0,1-3,3.2A7.66,7.66,0,0,1,452.5,410.58Zm.4-1.84a3.5,3.5,0,0,0,2.31-.81,5.24,5.24,0,0,0,1.54-2.24,9.28,9.28,0,0,0,.55-3.28,9.78,9.78,0,0,0-1.4-5.49,4.23,4.23,0,0,0-3.67-2.1,4,4,0,0,0-3.4,1.75,7.82,7.82,0,0,0-1.28,4.7,10.23,10.23,0,0,0,.69,3.89,6.18,6.18,0,0,0,1.9,2.63A4.4,4.4,0,0,0,452.9,408.74Z"/><path class="cls-4" d="M463.67,410.27l-.12-1.42,2.43-.59a4.66,4.66,0,0,0,.08-.68q0-.49.06-1.38c0-.59,0-1.3,0-2.14l0-3.07c0-.86,0-1.72-.1-2.57s-.13-1.52-.21-2l-2.52-.55v-1.29l5.27-1.46.55.55L469,397l.12,0a8.17,8.17,0,0,1,2.38-3.08,4.12,4.12,0,0,1,2.3-.81,2.43,2.43,0,0,1,1.51.47,1.59,1.59,0,0,1,.61,1.34,1.7,1.7,0,0,1-.65,1.41,2.51,2.51,0,0,1-1.63.52,3.12,3.12,0,0,1-1.36-.32,5.43,5.43,0,0,1-1.24-.86l.71.23a5.93,5.93,0,0,0-1.37,1.34,11.22,11.22,0,0,0-1.26,2.08l0,3.66c0,.65.05,1.33.08,2s.05,1.34.08,1.93.05,1,.07,1.31l3.42.52-.07,1.49Z"/><path class="cls-4" d="M477.5,410.27l-.08-1.46,2.56-.55a10.43,10.43,0,0,0,.1-1.31c0-.59,0-1.38.05-2.38s0-2.21,0-3.66V396c0-1,0-2,0-3s0-2,0-3,0-1.75-.06-2.42,0-1.11,0-1.32l-2.91-.39L477,384.6l5.62-1.61.75.55c0,1.13-.06,2.23-.08,3.32s-.05,2.3-.06,3.64,0,2.95,0,4.83l0,6.33c0,1.55,0,2.94.06,4.19s.08,2,.14,2.41l2.55.55-.08,1.46Z"/><path class="cls-4" d="M502,410.7l-.59-.51,0-2.56-.12,0a7.15,7.15,0,0,1-2.4,2.32,5.58,5.58,0,0,1-2.63.66,7.53,7.53,0,0,1-6.78-3.95,8.6,8.6,0,0,1-1-4.22,10.07,10.07,0,0,1,.7-3.82,8.93,8.93,0,0,1,4.76-4.87,8.34,8.34,0,0,1,3.26-.67,9.25,9.25,0,0,1,2.22.28,5.28,5.28,0,0,1,1.95.86c0-.47,0-1.08,0-1.85s0-1.55,0-2.37,0-1.56,0-2.2,0-1.09-.06-1.32l-3.07-.55-.07-1.3,5.77-1.61.71.55c-.05,1.63-.09,3.2-.12,4.72s0,3.1,0,4.75l0,9c0,1.34,0,2.49.1,3.44s.11,1.63.14,2l2.52.63v1.29ZM497.31,408a4.66,4.66,0,0,0,2.1-.49,6.32,6.32,0,0,0,2-1.75v-8.45a4.41,4.41,0,0,0-1.89-1.89,5.16,5.16,0,0,0-2.28-.55,4.59,4.59,0,0,0-3.87,1.83,7.61,7.61,0,0,0-1.4,4.74,7,7,0,0,0,1.56,4.85A4.87,4.87,0,0,0,497.31,408Z"/><g class="cls-5"><use transform="matrix(0, 1.27, -1.27, 0, 2565.35, -684.43)" xlink:href="#image"/></g><rect class="cls-2" x="685" y="147.5" width="445" height="445"/><rect class="cls-2" x="925.02" y="161.48" width="192.29" height="415.76"/><rect class="cls-6" x="701.55" y="161.48" width="223.47" height="415.76"/><g class="cls-7"><g class="cls-8"><g class="cls-9"><use transform="translate(685.1 197.2) scale(0.26 0.26)" xlink:href="#image"/></g></g></g><path class="cls-10" d="M801.2,330.69c1.29,0,2.34.06,3.16.06s1.89,0,3.18-.06,2.29-.05,3-.05a8.88,8.88,0,0,0,1.94-.31l.53,4a.92.92,0,0,1-.67.2c-.17,0-.26-.05-.28-.14a3.91,3.91,0,0,0-1-2,3.65,3.65,0,0,0-2.18-.46q-3,0-3.09.42a11.81,11.81,0,0,0-.25,2.81v10.14a11.32,11.32,0,0,0,.25,2.61c0,.13.3.26.79.38a5.08,5.08,0,0,0,1,.18c.08,0,.11.14.11.42a1.25,1.25,0,0,1-.05.4c-1.87-.1-3-.14-3.26-.14-.09,0-1.22,0-3.37.14a.59.59,0,0,1-.11-.42c0-.27,0-.4.11-.4a4.77,4.77,0,0,0,1.08-.17c.48-.11.75-.24.8-.39a11.17,11.17,0,0,0,.2-2.5V335.21a9.17,9.17,0,0,0-.25-2.89c-.15-.28-1.17-.42-3-.42a3.63,3.63,0,0,0-2.17.46,3.84,3.84,0,0,0-1,2c0,.09-.12.14-.28.14a1,1,0,0,1-.68-.2l.54-4a8.9,8.9,0,0,0,1.93.31C798.92,330.64,799.92,330.66,801.2,330.69Zm21.31,6.18a2.89,2.89,0,0,1,2.69,1.35,8.17,8.17,0,0,1,.82,4.16v3a10.45,10.45,0,0,0,.22,2.47c0,.13.28.26.73.38a4.35,4.35,0,0,0,1,.18c.05,0,.09.11.11.34a1.12,1.12,0,0,1,0,.48c-1.87-.1-2.87-.14-3-.14l-3,.14a.67.67,0,0,1-.11-.47c0-.23,0-.35.11-.35a3.56,3.56,0,0,0,.94-.18c.4-.12.62-.25.66-.38a8.54,8.54,0,0,0,.2-2v-3a5.85,5.85,0,0,0-.72-3.47,2.82,2.82,0,0,0-3.88-.23c-.55.44-.83.83-.83,1.17v5a10.52,10.52,0,0,0,.23,2.5c0,.13.28.26.73.38a4.39,4.39,0,0,0,1,.18c.06,0,.1.11.12.34a1.12,1.12,0,0,1,0,.48c-1.87-.1-2.88-.14-3-.14s-1.13,0-3.06.14a.73.73,0,0,1-.11-.47c0-.23,0-.35.11-.35a4.15,4.15,0,0,0,1-.18c.44-.12.68-.25.72-.38a8.43,8.43,0,0,0,.19-1.94V333.75a8.57,8.57,0,0,0-.17-1.79c-.09-.3-.57-.45-1.43-.45h-.25c-.11,0-.17-.11-.17-.31s.06-.45.17-.45c.56-.06,1.08-.13,1.56-.23a7.53,7.53,0,0,0,1.12-.28c.27-.09.5-.18.69-.26a2.89,2.89,0,0,0,.39-.21l.14-.09h.06a.29.29,0,0,1,.22.16.7.7,0,0,1,.14.29,7.91,7.91,0,0,0-.31,2.44v6.15q0,.12.06.12s0,0,.09-.06a6.56,6.56,0,0,1,1.75-1.29A4.59,4.59,0,0,1,822.51,336.87Zm12.72.06a5,5,0,0,1,2.27.49,3.88,3.88,0,0,1,1.51,1.26,5.69,5.69,0,0,1,.75,1.58,5.46,5.46,0,0,1,.24,1.58c0,.38,0,.61-.16.69a1.22,1.22,0,0,1-.65.13h-7.08c-.15,0-.22,0-.22.14a5.5,5.5,0,0,0,1.06,3.26,3.59,3.59,0,0,0,3.09,1.48,5.16,5.16,0,0,0,1.13-.11,4.49,4.49,0,0,0,.91-.27,5.8,5.8,0,0,0,.65-.3l.46-.3.2-.14c.11,0,.16.12.16.37a1,1,0,0,1-.16.5,5.15,5.15,0,0,1-1.66,1.42,4.72,4.72,0,0,1-2.39.63,5.32,5.32,0,0,1-4-1.75,6,6,0,0,1-1.67-4.29,6.59,6.59,0,0,1,1.59-4.66A5.18,5.18,0,0,1,835.23,336.93Zm-.28,1a2.44,2.44,0,0,0-2.23,1.25,4.19,4.19,0,0,0-.78,2.06c0,.13.06.2.17.2h5.48c.09,0,.14-.1.14-.28a3.92,3.92,0,0,0-.76-2.07A2.32,2.32,0,0,0,835,338Zm18.76-1a2.9,2.9,0,0,1,2.22.74,3.53,3.53,0,0,1,.67,2.4v6.49a1.51,1.51,0,0,0,.31,1,1,1,0,0,0,.84.4,1.88,1.88,0,0,0,1-.4c.07,0,.11.08.11.23a1.14,1.14,0,0,1-.14.59,3.34,3.34,0,0,1-2,1,1.83,1.83,0,0,1-1.23-.53,2.91,2.91,0,0,1-.82-1.13s-.09.06-.21.19a4.87,4.87,0,0,1-.49.42,8.11,8.11,0,0,1-.72.49,4,4,0,0,1-.95.42,3.89,3.89,0,0,1-1.11.17,3.29,3.29,0,0,1-2.14-.69,2.52,2.52,0,0,1-.84-2.06,2.33,2.33,0,0,1,.31-1.17,3.47,3.47,0,0,1,.73-.9,6.26,6.26,0,0,1,1.15-.71,10.51,10.51,0,0,1,1.25-.55c.35-.12.8-.28,1.37-.46s1-.33,1.17-.43a.38.38,0,0,0,.26-.42v-2.1a1.75,1.75,0,0,0-.56-1.39,2,2,0,0,0-1.35-.5,1.92,1.92,0,0,0-1.41.58,2.08,2.08,0,0,0-.56,1.5c0,.66-.38,1-1.15,1a1.14,1.14,0,0,1-1.09-.54c0-.8.58-1.6,1.76-2.4A6.42,6.42,0,0,1,853.71,336.93Zm-2.64,10.43a1.84,1.84,0,0,0,1.23.41,2.64,2.64,0,0,0,1.47-.47c.46-.3.7-.62.7-.94v-2.89a8.46,8.46,0,0,1-1.1.39c-.58.19-1,.36-1.36.5a2.74,2.74,0,0,0-1,.7,1.62,1.62,0,0,0-.47,1.14A1.44,1.44,0,0,0,851.07,347.36Zm10.19-8.69h-1.63c-.09,0-.14-.2-.14-.59a.38.38,0,0,1,0-.2,5.25,5.25,0,0,0,1.77-1.49,7.94,7.94,0,0,0,.61-.82l.49-.8a2.35,2.35,0,0,0,.19-.37c.57,0,.85.05.85.14v2.78h2.22l1.57,0c.15,0,.22.08.22.25a2.37,2.37,0,0,1-.28,1.07h-3.73v6.88a2.7,2.7,0,0,0,.57,1.8,1.89,1.89,0,0,0,1.5.67,3.47,3.47,0,0,0,1.75-.53s.14,0,.25.24.16.3.14.32a4.56,4.56,0,0,1-1.29.88,4,4,0,0,1-1.8.44,3.21,3.21,0,0,1-2.35-.93,3.58,3.58,0,0,1-.94-2.64ZM875,336.9a5.86,5.86,0,0,1,4.32,1.82,6,6,0,0,1,1.8,4.39,6.18,6.18,0,0,1-1.75,4.42,5.72,5.72,0,0,1-4.31,1.84,5.86,5.86,0,0,1-4.36-1.84,6.38,6.38,0,0,1,0-8.83A5.8,5.8,0,0,1,875,336.9Zm-.31,1.09a2.85,2.85,0,0,0-2.43,1.37,5.67,5.67,0,0,0-.94,3.32,6.56,6.56,0,0,0,1.19,3.95,3.42,3.42,0,0,0,2.8,1.64,2.85,2.85,0,0,0,2.44-1.4,5.84,5.84,0,0,0,1-3.37,6.35,6.35,0,0,0-1.21-3.89A3.48,3.48,0,0,0,874.66,338Zm16.49-1.12a2.82,2.82,0,0,1,1.86.61,3.11,3.11,0,0,1,1,1.39,6.32,6.32,0,0,1,4.35-2q3.54,0,3.54,5.39v3.12a10.52,10.52,0,0,0,.23,2.5c0,.13.28.26.73.38a4.29,4.29,0,0,0,1,.18c.06,0,.09.11.11.34a1.36,1.36,0,0,1,0,.48c-1.88-.1-2.88-.14-3-.14s-1.13,0-3.06.14a.67.67,0,0,1-.11-.47c0-.23,0-.35.11-.35a4.23,4.23,0,0,0,1-.18c.44-.12.67-.25.71-.38a7.69,7.69,0,0,0,.2-1.8v-3.17c0-2.88-.95-4.33-2.84-4.33a2.84,2.84,0,0,0-1.8.61c-.5.4-.75.73-.75,1l0,.11v.14a12.83,12.83,0,0,1,.12,2v3.17a9.27,9.27,0,0,0,.22,2.25c0,.13.28.26.73.38a4.35,4.35,0,0,0,1,.18c.05,0,.09.11.11.34a1.12,1.12,0,0,1,0,.48c-1.87-.1-2.87-.14-3-.14s-1.14,0-3.07.14a.73.73,0,0,1-.11-.47c0-.23,0-.35.11-.35a4.15,4.15,0,0,0,1-.18c.44-.12.68-.25.72-.38a8.59,8.59,0,0,0,.19-2v-2.86c0-3-.89-4.47-2.69-4.47a2.89,2.89,0,0,0-1.7.64c-.57.42-.86.82-.86,1.22v4.94a10.52,10.52,0,0,0,.23,2.5c0,.13.28.26.73.38a4.29,4.29,0,0,0,1,.18c.06,0,.1.11.11.34a1.36,1.36,0,0,1,0,.48c-1.88-.1-2.88-.14-3-.14s-1.13,0-3.06.14a.67.67,0,0,1-.11-.47c0-.23,0-.35.11-.35a4.23,4.23,0,0,0,1-.18c.44-.12.68-.25.71-.38a8.54,8.54,0,0,0,.2-2v-5.3a2.26,2.26,0,0,0-.39-1.52,1.46,1.46,0,0,0-.69-.46,2.22,2.22,0,0,0-.68-.13c-.17,0-.26,0-.26-.06,0-.45.05-.68.17-.7A32.63,32.63,0,0,0,887,337l.14,0c.08,0,.12.08.14.24a1,1,0,0,1,0,.35,10.16,10.16,0,0,0-.11,1.13c0,.07,0,.11.06.11a.21.21,0,0,0,.08-.06,7.08,7.08,0,0,1,1.76-1.27A4.35,4.35,0,0,1,891.15,336.87Zm18.56,8.51a10,10,0,0,0,.23,2.5c0,.13.28.26.73.38a4.19,4.19,0,0,0,1,.18c.06,0,.09.11.11.34a1.12,1.12,0,0,1,0,.48c-1.87-.1-2.87-.14-3-.14s-1.15,0-3.06.14a.67.67,0,0,1-.11-.47c0-.23,0-.35.11-.35a4.32,4.32,0,0,0,1-.18c.43-.12.67-.25.71-.38a8.54,8.54,0,0,0,.2-2v-5.3a2.2,2.2,0,0,0-.4-1.52,1.38,1.38,0,0,0-.68-.46,2.27,2.27,0,0,0-.68-.13c-.18,0-.26,0-.26-.06,0-.45.05-.68.16-.7a32.5,32.5,0,0,0,3.88-.73l.06,0h.08c.07,0,.12.08.14.24a1,1,0,0,1,0,.35,17.33,17.33,0,0,0-.14,2Zm-2.29-11.86a1.39,1.39,0,0,1-.41-1,1.36,1.36,0,0,1,.41-1,1.37,1.37,0,0,1,1-.41,1.39,1.39,0,0,1,1,.41,1.35,1.35,0,0,1,.4,1,1.37,1.37,0,0,1-1.4,1.4A1.36,1.36,0,0,1,907.42,333.52Zm11.25,3.41c2.06,0,3.48.48,4.27,1.43,0,1.25-.35,1.88-1,1.88a1.11,1.11,0,0,1-.73-.21,4.14,4.14,0,0,1-.65-.77,2.49,2.49,0,0,0-2.08-1.29,2.74,2.74,0,0,0-2.09,1.09,4.88,4.88,0,0,0-.94,3.26,6.1,6.1,0,0,0,1.11,3.74,3.63,3.63,0,0,0,3.08,1.48,5.13,5.13,0,0,0,1.12-.11,4.3,4.3,0,0,0,.91-.27,5.07,5.07,0,0,0,.65-.3l.46-.3.2-.14c.11,0,.17.12.17.37a1,1,0,0,1-.17.5,5.15,5.15,0,0,1-1.66,1.42,4.69,4.69,0,0,1-2.39.63,5.34,5.34,0,0,1-4-1.75,6,6,0,0,1-1.67-4.29,7.32,7.32,0,0,1,1.41-4.48A4.72,4.72,0,0,1,918.67,336.93Zm28.81,1.85c0-.65-.61-1-1.85-1h-.11c-.08,0-.11-.12-.11-.35a.67.67,0,0,1,.11-.47l.94.06.95.06,1,0,.82,0,.8-.06.87-.06a1.35,1.35,0,0,1,.06.43c0,.26,0,.39-.14.39a2.91,2.91,0,0,0-1,.24,1.31,1.31,0,0,0-.82.77l-3.68,10.05a.8.8,0,0,1-.78.62c-.19,0-.3,0-.34-.11l-3.45-8.26-2.84,7.75a1.08,1.08,0,0,1-.11.21,1.15,1.15,0,0,1-.27.27.64.64,0,0,1-.38.14c-.19,0-.3,0-.34-.11-.45-1-1-2.22-1.53-3.64s-1.11-2.68-1.61-3.82-1.1-2.3-1.77-3.49a1.61,1.61,0,0,0-1.52-.62c-.07,0-.11-.12-.11-.37a.7.7,0,0,1,.11-.45l.93.06.93.06.92,0,2.81-.14a1.11,1.11,0,0,1,0,.47c0,.23,0,.35-.09.35-.94,0-1.41.21-1.41.64a5.67,5.67,0,0,0,.35.85c.24.5.64,1.38,1.22,2.62s1.17,2.54,1.77,3.89l1.07-3c.39-1.11.67-1.89.83-2.36a5.12,5.12,0,0,0,.24-.81,1.21,1.21,0,0,0-.13-.45,2.72,2.72,0,0,0-.27-.54l-.14-.25a1.21,1.21,0,0,0-.53-.42,2.21,2.21,0,0,0-.9-.14c-.07,0-.11-.12-.11-.35A.73.73,0,0,1,938,337l.91.06.9.06.92,0,.88,0,.94-.06.93-.06a1.6,1.6,0,0,1,0,.48c0,.21,0,.32-.08.34-.9,0-1.35.36-1.35,1.09q0,.6,3.09,6.91c.28-.86.64-1.9,1.07-3.12s.74-2.12.94-2.71A4.42,4.42,0,0,0,947.48,338.78Zm10.26-1.88a5.87,5.87,0,0,1,4.32,1.82,6,6,0,0,1,1.8,4.39,6.19,6.19,0,0,1-1.76,4.42,5.7,5.7,0,0,1-4.31,1.84,5.85,5.85,0,0,1-4.35-1.84,6.39,6.39,0,0,1-.06-8.83A5.81,5.81,0,0,1,957.74,336.9Zm-.31,1.09a2.83,2.83,0,0,0-2.43,1.37,5.67,5.67,0,0,0-.94,3.32,6.49,6.49,0,0,0,1.19,3.95,3.42,3.42,0,0,0,2.79,1.64,2.85,2.85,0,0,0,2.45-1.4,5.91,5.91,0,0,0,1-3.37,6.34,6.34,0,0,0-1.2-3.89A3.49,3.49,0,0,0,957.43,338Zm15.72-1.09a2.45,2.45,0,0,1,2.19.81,2.66,2.66,0,0,1-.3,1.44.91.91,0,0,1-.76.45,1.22,1.22,0,0,1-.93-.48,1.44,1.44,0,0,0-1.15-.48,1.89,1.89,0,0,0-1.52.82,2.7,2.7,0,0,0-.64,1.71v4.21a10.62,10.62,0,0,0,.22,2.5c0,.13.29.26.75.38a4.45,4.45,0,0,0,1,.18c.06,0,.1.11.12.34a1.12,1.12,0,0,1,0,.48c-1.87-.1-2.88-.14-3-.14s-1.14,0-3.07.14a.73.73,0,0,1-.11-.47c0-.23,0-.35.11-.35a4.15,4.15,0,0,0,1-.18c.44-.12.68-.25.72-.38a8.59,8.59,0,0,0,.19-2v-5.3a2.26,2.26,0,0,0-.39-1.52,1.46,1.46,0,0,0-.69-.46,2.16,2.16,0,0,0-.67-.13q-.27,0-.27-.06c0-.45.06-.68.17-.7a33,33,0,0,0,3.88-.73l.14,0c.07,0,.12.08.14.24a1,1,0,0,1,0,.35L970,339a5.81,5.81,0,0,1,1.39-1.42A2.92,2.92,0,0,1,973.15,336.9Zm4.89,9V333.75a9.3,9.3,0,0,0-.17-1.79c-.09-.3-.57-.45-1.43-.45h-.25c-.12,0-.17-.11-.17-.31s.05-.45.17-.45c.56-.06,1.08-.13,1.56-.23a7.53,7.53,0,0,0,1.12-.28c.27-.09.5-.18.69-.26l.42-.21.11-.09h.06a.29.29,0,0,1,.22.16.7.7,0,0,1,.14.29,7.91,7.91,0,0,0-.31,2.44v12.81a10.52,10.52,0,0,0,.23,2.5c0,.13.28.26.73.38a4.39,4.39,0,0,0,1,.18c.06,0,.1.11.12.34a1.58,1.58,0,0,1,0,.48c-1.88-.1-2.88-.14-3-.14s-1.13,0-3.06.14a.73.73,0,0,1-.11-.47c0-.23,0-.35.11-.35a4.15,4.15,0,0,0,1-.18c.44-.12.68-.25.71-.38A8,8,0,0,0,978,345.91Zm11.94-9.1a4.4,4.4,0,0,1,2.1.48c.13,0,.2-.17.2-.5v-3a9.3,9.3,0,0,0-.17-1.79c-.09-.3-.57-.45-1.43-.45h-.25c-.12,0-.17-.11-.17-.31s0-.45.17-.45c.56-.06,1.08-.13,1.56-.23a7.53,7.53,0,0,0,1.12-.28c.27-.09.5-.18.69-.26l.42-.21.11-.09h.06a.29.29,0,0,1,.22.16.7.7,0,0,1,.14.29,7.91,7.91,0,0,0-.31,2.44v12.64a10.91,10.91,0,0,0,.17,2.14.52.52,0,0,0,.31.31,1.91,1.91,0,0,0,.52.14,4.61,4.61,0,0,0,.52,0l.25,0c.06,0,.09.13.09.34s-.06.42-.17.42c-.28,0-.6.06-.94.11s-.68.12-1,.19l-.85.19-.65.18-.25.06c-.11,0-.17-.16-.17-.48v-.33c0-.12,0-.15-.11-.12a6.18,6.18,0,0,1-3,.87,5.16,5.16,0,0,1-3.9-1.65,5.57,5.57,0,0,1-1.58-4,6.83,6.83,0,0,1,1.93-4.79A5.8,5.8,0,0,1,990,336.81Zm-.37,1.18a2.87,2.87,0,0,0-2.55,1.47,6.16,6.16,0,0,0-.93,3.39,5.9,5.9,0,0,0,1.09,3.56,3.56,3.56,0,0,0,3,1.5,2.32,2.32,0,0,0,1.49-.44,1.44,1.44,0,0,0,.53-1.16v-6.69a1.47,1.47,0,0,0-.63-1.11A3.24,3.24,0,0,0,989.61,338ZM800,374.12a10.62,10.62,0,0,0,.22,2.5c0,.13.28.26.73.38a4.35,4.35,0,0,0,1,.18c.06,0,.09.11.11.34a1.12,1.12,0,0,1,0,.48l-3-.15L796,378a.66.66,0,0,1-.12-.47c0-.23,0-.35.12-.35a4.17,4.17,0,0,0,1-.18c.44-.12.68-.25.72-.38a8.54,8.54,0,0,0,.2-2v-5.31a2.17,2.17,0,0,0-.4-1.51,1.32,1.32,0,0,0-.68-.46,2.27,2.27,0,0,0-.68-.13q-.27,0-.27-.06c0-.45.06-.68.17-.7a32.5,32.5,0,0,0,3.88-.73l.05,0H800c.07,0,.12.08.14.24a1,1,0,0,1,0,.35,17.31,17.31,0,0,0-.14,2Zm-2.29-11.87a1.41,1.41,0,0,1,2-2,1.41,1.41,0,0,1-2,2Zm10.12,3.39a10.1,10.1,0,0,1,1.56.15l1.31.21a16.25,16.25,0,0,1,.34,2.87c0,.09-.13.14-.37.14s-.4-.07-.42-.2a2.93,2.93,0,0,0-.8-1.49,2,2,0,0,0-1.5-.7c-1.35,0-2,.55-2,1.66a2.1,2.1,0,0,0,.11.74,1.52,1.52,0,0,0,.43.62c.22.2.38.34.49.42a6.64,6.64,0,0,0,.75.45l.71.41c.08,0,.3.16.66.38l.78.46a7,7,0,0,1,.66.48,3.07,3.07,0,0,1,.63.6,3.51,3.51,0,0,1,.38.68,2,2,0,0,1,.18.82,3.5,3.5,0,0,1-1.29,2.77,4.5,4.5,0,0,1-3,1.11,7.31,7.31,0,0,1-1.09-.07c-.32,0-.71-.13-1.16-.24a10.56,10.56,0,0,0-1-.22,8,8,0,0,1-.32-1.41,9.22,9.22,0,0,1-.16-1.51.62.62,0,0,1,.34-.17c.28,0,.43,0,.45.17a3.1,3.1,0,0,0,1,1.64,2.83,2.83,0,0,0,1.93.8,2.18,2.18,0,0,0,1.47-.49,1.78,1.78,0,0,0,.58-1.42,2.22,2.22,0,0,0-.19-.89,2,2,0,0,0-.59-.73,8.23,8.23,0,0,0-.75-.53l-1-.55c-.43-.22-.75-.4-1-.53-1.46-.84-2.19-1.84-2.19-3a3,3,0,0,1,1.22-2.47A4.55,4.55,0,0,1,807.87,365.64Zm17.73,0a2.82,2.82,0,0,1,2.21.74,3.53,3.53,0,0,1,.68,2.4v6.49a1.51,1.51,0,0,0,.31,1,1,1,0,0,0,.84.4,1.94,1.94,0,0,0,1-.4c.08,0,.12.08.12.23a1.14,1.14,0,0,1-.14.59,3.36,3.36,0,0,1-2,1,1.87,1.87,0,0,1-1.24-.53,3,3,0,0,1-.81-1.13s-.09.06-.21.18a4.65,4.65,0,0,1-.49.43c-.21.16-.45.32-.72.49a4,4,0,0,1-.95.42,3.89,3.89,0,0,1-1.11.17,3.27,3.27,0,0,1-2.14-.69,2.52,2.52,0,0,1-.84-2.07,2.27,2.27,0,0,1,.31-1.16,3.13,3.13,0,0,1,.73-.9,6.44,6.44,0,0,1,1.15-.72,11.22,11.22,0,0,1,1.25-.54l1.36-.47c.56-.18,1-.32,1.18-.42s.25-.19.25-.42v-2.11a1.75,1.75,0,0,0-.56-1.39,2,2,0,0,0-1.35-.49,1.89,1.89,0,0,0-1.4.58,2.06,2.06,0,0,0-.56,1.5c0,.66-.39,1-1.15,1a1.15,1.15,0,0,1-1.1-.53q0-1.2,1.77-2.4A6.34,6.34,0,0,1,825.6,365.67ZM823,376.1a1.83,1.83,0,0,0,1.23.41,2.61,2.61,0,0,0,1.46-.47c.47-.31.7-.62.7-.94v-2.89a9.94,9.94,0,0,1-1.09.39c-.58.19-1,.35-1.36.49a2.91,2.91,0,0,0-1,.71,1.57,1.57,0,0,0-.46,1.13A1.45,1.45,0,0,0,823,376.1Zm10.39-1.45V362.49a9.48,9.48,0,0,0-.17-1.8c-.09-.29-.57-.44-1.43-.44h-.26c-.11,0-.16-.11-.16-.31s0-.45.16-.45a15.28,15.28,0,0,0,1.56-.23,7.71,7.71,0,0,0,1.13-.28,5.34,5.34,0,0,0,.68-.27,3.48,3.48,0,0,0,.43-.21l.11-.08h.05c.08,0,.15.05.23.15a1,1,0,0,1,.14.3,7.62,7.62,0,0,0-.31,2.44v12.81a10.62,10.62,0,0,0,.22,2.5c0,.13.29.26.74.38a4.19,4.19,0,0,0,.95.18c.06,0,.09.11.11.34a1.12,1.12,0,0,1,0,.48l-3-.15-3.06.15a.67.67,0,0,1-.11-.47c0-.23,0-.35.11-.35a4.17,4.17,0,0,0,1-.18c.44-.12.68-.25.72-.38A8.54,8.54,0,0,0,833.35,374.65Zm10-9a10.32,10.32,0,0,1,1.56.15l1.3.21a16.25,16.25,0,0,1,.34,2.87c0,.09-.12.14-.37.14s-.4-.07-.42-.2a2.93,2.93,0,0,0-.8-1.49,2,2,0,0,0-1.5-.7c-1.35,0-2,.55-2,1.66a2.35,2.35,0,0,0,.11.74,1.55,1.55,0,0,0,.44.62,5.17,5.17,0,0,0,.49.42,6.2,6.2,0,0,0,.74.45l.72.41.66.38.77.46a7,7,0,0,1,.66.48,3.07,3.07,0,0,1,.63.6,3.51,3.51,0,0,1,.38.68,2,2,0,0,1,.18.82,3.5,3.5,0,0,1-1.29,2.77,4.5,4.5,0,0,1-3,1.11,7.17,7.17,0,0,1-1.08-.07q-.49-.07-1.17-.24a10,10,0,0,0-1-.22,8,8,0,0,1-.32-1.41,10.23,10.23,0,0,1-.15-1.51.6.6,0,0,1,.33-.17c.28,0,.43,0,.45.17a3.1,3.1,0,0,0,1.05,1.64,2.85,2.85,0,0,0,1.93.8,2.16,2.16,0,0,0,1.47-.49,1.75,1.75,0,0,0,.58-1.42,2.21,2.21,0,0,0-.18-.89,2.12,2.12,0,0,0-.59-.73c-.28-.21-.53-.39-.76-.53l-1-.55c-.43-.22-.75-.4-.95-.53-1.46-.84-2.19-1.84-2.19-3a3,3,0,0,1,1.22-2.47A4.51,4.51,0,0,1,843.32,365.64Zm11.85,0a5.86,5.86,0,0,1,4.32,1.82,6,6,0,0,1,1.8,4.38,6.18,6.18,0,0,1-1.75,4.43,5.75,5.75,0,0,1-4.31,1.84,5.89,5.89,0,0,1-4.36-1.84,6.38,6.38,0,0,1,0-8.83A5.8,5.8,0,0,1,855.17,365.64Zm-.31,1.09a2.85,2.85,0,0,0-2.43,1.37,5.65,5.65,0,0,0-.94,3.32,6.58,6.58,0,0,0,1.19,3.95,3.45,3.45,0,0,0,2.8,1.64,2.86,2.86,0,0,0,2.44-1.4,5.84,5.84,0,0,0,1-3.37,6.32,6.32,0,0,0-1.21-3.89A3.48,3.48,0,0,0,854.86,366.73Zm24.8.85a20,20,0,0,0-1.83,1.33A24.8,24.8,0,0,0,875.5,371c.55.58,1.21,1.32,2,2.21s1.43,1.61,1.93,2.16.86.91,1,1.08a3.36,3.36,0,0,0,1.21.61,4.39,4.39,0,0,0,1,.21c.07,0,.11.15.11.45a1,1,0,0,1,0,.31l-3.06-.15-2.92.15a.67.67,0,0,1-.11-.44c0-.22,0-.32.11-.32a2.15,2.15,0,0,0,.65-.12c.24-.07.36-.15.36-.25a.15.15,0,0,0,0-.08l-4.1-4.44-.34.08v1.69a14.2,14.2,0,0,0,.22,2.5c0,.13.28.26.73.38a4.35,4.35,0,0,0,1,.18c.05,0,.09.11.11.34a1.12,1.12,0,0,1,0,.48l-3-.15-3.06.15a.66.66,0,0,1-.12-.47c0-.23,0-.35.12-.35a4.17,4.17,0,0,0,1-.18c.44-.12.68-.25.72-.38a8.54,8.54,0,0,0,.2-2V362.49a9.48,9.48,0,0,0-.17-1.8c-.1-.29-.57-.44-1.43-.44h-.26c-.11,0-.17-.11-.17-.31s.06-.45.17-.45c.56-.06,1.08-.13,1.56-.23A7.21,7.21,0,0,0,872,359a5.55,5.55,0,0,0,.69-.27,2,2,0,0,0,.4-.21l.14-.08h0c.08,0,.15.05.23.15a1,1,0,0,1,.14.3,7.62,7.62,0,0,0-.31,2.44v9.83a1.89,1.89,0,0,0,.7-.25c.41-.36.84-.72,1.29-1.1l1-.84.65-.56a3,3,0,0,0,.42-.45.55.55,0,0,0,.11-.34c0-.22-.2-.35-.61-.39s-.63-.07-.65-.11c-.13-.38-.12-.59,0-.65h2.22l.88,0,1.1-.05,1.11-.06a.29.29,0,0,1,.12.25.88.88,0,0,1,0,.37c0,.11-.08.17-.11.17a4.21,4.21,0,0,0-1,.17A3.27,3.27,0,0,0,879.66,367.58Zm12.1-2a2.91,2.91,0,0,1,2.76,1.4,9.9,9.9,0,0,1,.78,4.55v2.56a10.52,10.52,0,0,0,.23,2.5c0,.13.28.26.73.38a4.29,4.29,0,0,0,1,.18c.06,0,.1.11.11.34a1.36,1.36,0,0,1,0,.48l-3-.15-2.95.15a.73.73,0,0,1-.11-.47c0-.23,0-.35.11-.35a3.49,3.49,0,0,0,.94-.18c.41-.12.63-.25.66-.38a8.54,8.54,0,0,0,.2-2v-2.81a6.59,6.59,0,0,0-.67-3.56,2.49,2.49,0,0,0-2.19-1,2.74,2.74,0,0,0-1.73.66c-.55.44-.83.84-.83,1.2v4.94a10.62,10.62,0,0,0,.22,2.5c0,.13.28.26.73.38a4.35,4.35,0,0,0,1,.18c.06,0,.09.11.11.34a1.12,1.12,0,0,1,0,.48l-3-.15-3.06.15a.66.66,0,0,1-.12-.47c0-.23,0-.35.12-.35a4.17,4.17,0,0,0,1-.18c.44-.12.68-.25.72-.38a8.54,8.54,0,0,0,.2-2v-5.31a2.17,2.17,0,0,0-.4-1.51,1.32,1.32,0,0,0-.68-.46,2.27,2.27,0,0,0-.68-.13q-.27,0-.27-.06c0-.45.06-.68.17-.7a32.5,32.5,0,0,0,3.88-.73l.14,0c.07,0,.12.08.14.24a1,1,0,0,1,0,.35,8.16,8.16,0,0,0-.11,1.13c0,.07,0,.11,0,.11s.05,0,.09-.06a7.27,7.27,0,0,1,1.75-1.28A4.48,4.48,0,0,1,891.76,365.61Zm13.34,0a5.88,5.88,0,0,1,4.33,1.82,6,6,0,0,1,1.8,4.38,6.19,6.19,0,0,1-1.76,4.43,5.75,5.75,0,0,1-4.31,1.84,5.89,5.89,0,0,1-4.35-1.84,6.39,6.39,0,0,1-.06-8.83A5.8,5.8,0,0,1,905.1,365.64Zm-.31,1.09a2.83,2.83,0,0,0-2.42,1.37,5.65,5.65,0,0,0-.94,3.32,6.51,6.51,0,0,0,1.19,3.95,3.43,3.43,0,0,0,2.79,1.64,2.89,2.89,0,0,0,2.45-1.4,5.91,5.91,0,0,0,.95-3.37,6.26,6.26,0,0,0-1.21-3.89A3.46,3.46,0,0,0,904.79,366.73Zm25,.79c0-.66-.62-1-1.85-1h-.12c-.07,0-.11-.12-.11-.35a.73.73,0,0,1,.11-.47l.95.06,1,.05c.29,0,.6,0,.94,0s.6,0,.83,0l.8-.05.87-.06a1.25,1.25,0,0,1,.06.42c0,.27-.05.4-.14.4a2.9,2.9,0,0,0-1,.24,1.27,1.27,0,0,0-.81.77L927.6,377.6a.81.81,0,0,1-.79.62c-.18,0-.3,0-.33-.11L923,369.85l-2.83,7.75a.78.78,0,0,1-.12.21.93.93,0,0,1-.26.27.66.66,0,0,1-.38.14c-.19,0-.3,0-.34-.11-.45-1-1-2.23-1.53-3.64s-1.11-2.69-1.62-3.82-1.09-2.3-1.76-3.5a1.63,1.63,0,0,0-1.52-.61c-.08,0-.11-.12-.11-.37a.64.64,0,0,1,.11-.45l.93.06.92.05q.42,0,.93,0l2.81-.14a1.31,1.31,0,0,1,0,.47c0,.23,0,.35-.1.35-.93,0-1.4.21-1.4.64a4.4,4.4,0,0,0,.35.84c.23.51.64,1.39,1.22,2.63s1.17,2.54,1.77,3.89c.32-.92.67-1.93,1.07-3s.67-1.89.82-2.36a4.79,4.79,0,0,0,.24-.82,1.49,1.49,0,0,0-.12-.45,5.18,5.18,0,0,0-.27-.53l-.14-.25a1.21,1.21,0,0,0-.53-.42,2.05,2.05,0,0,0-.9-.14c-.08,0-.11-.12-.11-.35a.67.67,0,0,1,.11-.47l.91.06.9.05c.27,0,.57,0,.91,0s.62,0,.89,0l.94-.05.92-.06a1.48,1.48,0,0,1,.06.48c0,.21,0,.32-.08.34-.9,0-1.35.36-1.35,1.09,0,.39,1,2.7,3.09,6.91.28-.86.63-1.9,1.06-3.12s.75-2.12,1-2.71A5,5,0,0,0,929.79,367.52ZM942,365.61a2.89,2.89,0,0,1,2.75,1.4,9.75,9.75,0,0,1,.79,4.55v2.56a10.62,10.62,0,0,0,.22,2.5c0,.13.29.26.73.38a4.35,4.35,0,0,0,1,.18c.06,0,.09.11.11.34a1.12,1.12,0,0,1,0,.48l-3-.15-3,.15a.73.73,0,0,1-.11-.47c0-.23,0-.35.11-.35a3.56,3.56,0,0,0,.94-.18c.4-.12.62-.25.66-.38a8.54,8.54,0,0,0,.2-2v-2.81a6.57,6.57,0,0,0-.68-3.56,2.49,2.49,0,0,0-2.19-1,2.71,2.71,0,0,0-1.72.66c-.56.44-.83.84-.83,1.2v4.94a10.62,10.62,0,0,0,.22,2.5c0,.13.28.26.73.38a4.35,4.35,0,0,0,1,.18s.09.11.11.34a1.12,1.12,0,0,1,0,.48l-3-.15-3.07.15a.73.73,0,0,1-.11-.47c0-.23,0-.35.11-.35a4.15,4.15,0,0,0,1-.18c.44-.12.68-.25.72-.38a8.59,8.59,0,0,0,.19-2v-5.31a2.23,2.23,0,0,0-.39-1.51,1.39,1.39,0,0,0-.69-.46,2.16,2.16,0,0,0-.67-.13q-.27,0-.27-.06c0-.45.06-.68.17-.7a32.5,32.5,0,0,0,3.88-.73l.14,0c.07,0,.12.08.14.24a1,1,0,0,1,0,.35,8.63,8.63,0,0,0-.12,1.13c0,.07,0,.11.06.11s0,0,.09-.06a7.27,7.27,0,0,1,1.75-1.28A4.48,4.48,0,0,1,942,365.61Zm19.83,0a5.19,5.19,0,0,1,4.23,1.84,6,6,0,0,1,1.53,3.92,6.5,6.5,0,0,1-2,4.69,6,6,0,0,1-4.37,2,10.57,10.57,0,0,1-2-.18c-.63-.12-1-.19-1.08-.19a1.81,1.81,0,0,0-.63.16,2.59,2.59,0,0,1-.44.15,1.08,1.08,0,0,1-.35-.08c-.16-.06-.24-.12-.24-.2s0-.17.09-.46.11-.72.16-1.28a17.82,17.82,0,0,0,.09-1.88V362.49a9.48,9.48,0,0,0-.17-1.8c-.09-.29-.57-.44-1.43-.44H955c-.11,0-.16-.11-.16-.31s.05-.45.16-.45a15.28,15.28,0,0,0,1.56-.23,7.71,7.71,0,0,0,1.13-.28,5.34,5.34,0,0,0,.68-.27,3.48,3.48,0,0,0,.43-.21l.11-.08h0c.08,0,.15.05.23.15a1,1,0,0,1,.14.3,7.62,7.62,0,0,0-.31,2.44v4.92c0,.2,0,.31.08.31l.09,0a5,5,0,0,1,1.21-.59A4,4,0,0,1,961.78,365.61Zm-.9,1.38a2.16,2.16,0,0,0-1.35.43,1.5,1.5,0,0,0-.56,1.25v6.54a1.34,1.34,0,0,0,.83,1.28,4.31,4.31,0,0,0,1.92.41,2.78,2.78,0,0,0,2.5-1.52,6.57,6.57,0,0,0,.9-3.42,5.42,5.42,0,0,0-1.16-3.6A3.84,3.84,0,0,0,960.88,367Zm10.92-1.13c.32,0,.62,0,.89,0l.93-.05.91-.06a1.25,1.25,0,0,1,.06.42c0,.27,0,.4-.12.4a2.38,2.38,0,0,0-.74.19c-.35.13-.54.27-.58.4v.05a64.89,64.89,0,0,0,3,7.33l2.13-6.15a3.15,3.15,0,0,0,.2-.87.8.8,0,0,0-.44-.69,2.26,2.26,0,0,0-1.16-.26c-.08,0-.11-.12-.11-.37a.64.64,0,0,1,.11-.45l1.09.09c.49,0,1,.05,1.41.05s.86,0,1.35-.05l1.09-.09a1.25,1.25,0,0,1,.06.42c0,.27,0,.4-.12.4a2.83,2.83,0,0,0-1,.25,1.36,1.36,0,0,0-.83.81l-5,13.57a5.86,5.86,0,0,1-1.46,2.43,2.4,2.4,0,0,1-1.49.69,1,1,0,0,1-.87-.37,1.24,1.24,0,0,1-.28-.73,1,1,0,0,1,.39-.9,3,3,0,0,0,3.09-2.41c.1-.28.21-.62.34-1s.24-.72.31-1l-4-9.83a3.56,3.56,0,0,0-.56-.95,2,2,0,0,0-.77-.43,2.88,2.88,0,0,0-.83-.16c-.07,0-.11-.12-.11-.37a.7.7,0,0,1,.11-.45C970.7,365.82,971.71,365.86,971.8,365.86ZM803.3,387.13c1.34,0,2.23.36,2.66,1.1,0,1.17-.33,1.76-1,1.76a.93.93,0,0,1-.7-.43,10,10,0,0,0-.77-.89,1.4,1.4,0,0,0-1.05-.44,2.1,2.1,0,0,0-1.91,1.51,8.71,8.71,0,0,0-.68,3.57v1.43a.13.13,0,0,0,.14.14h3.12c.09,0,.14.07.14.2a2.57,2.57,0,0,1-.34,1.12H800a.15.15,0,0,0-.17.17v6.49a10.2,10.2,0,0,0,.26,2.5c0,.13.26.25.68.38a3.85,3.85,0,0,0,.89.18c.05,0,.09.11.11.34a1.05,1.05,0,0,1,0,.47l-3-.14-3,.14a.44.44,0,0,1-.09-.26,2.4,2.4,0,0,1,0-.38c0-.12,0-.17.09-.17a3.69,3.69,0,0,0,1-.18c.41-.13.64-.25.68-.38a10.5,10.5,0,0,0,.28-2.5V396.4c0-.13-.05-.2-.14-.2h-1.49c-.06,0-.09-.06-.09-.17s.15-.4.45-.7a1.35,1.35,0,0,1,1-.45h.17c.09,0,.14-.06.14-.17v-.36a7.77,7.77,0,0,1,1.75-5.09A5,5,0,0,1,803.3,387.13ZM810,394.4a2.86,2.86,0,0,1,2.22.75,3.49,3.49,0,0,1,.67,2.4V404a1.57,1.57,0,0,0,.31,1,1,1,0,0,0,.85.39,1.91,1.91,0,0,0,1-.39c.07,0,.11.07.11.22a1.12,1.12,0,0,1-.14.59,3.3,3.3,0,0,1-2,1,1.8,1.8,0,0,1-1.23-.54,3,3,0,0,1-.82-1.12,1.06,1.06,0,0,0-.21.18,3.85,3.85,0,0,1-.49.42,7.81,7.81,0,0,1-.71.5,5,5,0,0,1-1,.42,3.78,3.78,0,0,1-1.11.17,3.24,3.24,0,0,1-2.13-.69,2.53,2.53,0,0,1-.85-2.07,2.37,2.37,0,0,1,.31-1.16,3.16,3.16,0,0,1,.73-.9,6,6,0,0,1,1.16-.72,12.77,12.77,0,0,1,1.25-.55l1.36-.46,1.18-.42a.39.39,0,0,0,.25-.42v-2.11a1.76,1.76,0,0,0-.56-1.39,2,2,0,0,0-1.35-.49,1.85,1.85,0,0,0-1.4.58,2,2,0,0,0-.57,1.5c0,.65-.38,1-1.15,1a1.16,1.16,0,0,1-1.09-.53q0-1.22,1.77-2.4A6.33,6.33,0,0,1,810,394.4Zm-2.64,10.44a1.85,1.85,0,0,0,1.24.4,2.62,2.62,0,0,0,1.46-.46c.46-.31.7-.62.7-.94V401c-.15.07-.52.2-1.1.39s-1,.35-1.36.49a3,3,0,0,0-.95.7,1.62,1.62,0,0,0-.47,1.14A1.45,1.45,0,0,0,807.34,404.84Zm13-2a10.58,10.58,0,0,0,.23,2.5c0,.13.28.25.73.38a4.39,4.39,0,0,0,.95.18c.06,0,.1.11.11.34a1.29,1.29,0,0,1,0,.47l-3-.14-3.06.14a.7.7,0,0,1-.11-.46c0-.23,0-.35.11-.35a4.15,4.15,0,0,0,1-.18c.44-.13.68-.25.71-.38a8.6,8.6,0,0,0,.2-2v-5.31a2.23,2.23,0,0,0-.39-1.51,1.48,1.48,0,0,0-.69-.47,2.5,2.5,0,0,0-.67-.12q-.27,0-.27-.06c0-.45,0-.68.17-.7a32.63,32.63,0,0,0,3.87-.73l.06,0h.08c.08,0,.12.08.14.24a1,1,0,0,1,0,.35,17.17,17.17,0,0,0-.14,2ZM818.08,391a1.44,1.44,0,0,1,0-2,1.42,1.42,0,0,1,2,0,1.44,1.44,0,0,1,0,2,1.42,1.42,0,0,1-2,0Zm7,5.15h-1.63c-.09,0-.14-.19-.14-.58,0-.12,0-.18,0-.2a5.45,5.45,0,0,0,1.77-1.49,6.11,6.11,0,0,0,.6-.83c.2-.31.36-.57.49-.8a1.81,1.81,0,0,0,.2-.36c.56,0,.84,0,.84.14v2.78h3.8c.14,0,.22.09.22.26a2.33,2.33,0,0,1-.28,1.06h-3.74V403a2.69,2.69,0,0,0,.58,1.79,1.87,1.87,0,0,0,1.5.68,3.38,3.38,0,0,0,1.74-.54c.06,0,.14.05.26.24a.94.94,0,0,1,.14.32,4.63,4.63,0,0,1-1.3.89,4,4,0,0,1-1.79.44,3.21,3.21,0,0,1-2.35-.93,3.54,3.54,0,0,1-.94-2.64Zm15.34-1.79a2.89,2.89,0,0,1,2.69,1.35,8.24,8.24,0,0,1,.82,4.15v3a10.5,10.5,0,0,0,.22,2.47c0,.13.28.25.73.38a4.35,4.35,0,0,0,1,.18s.09.11.11.34a1.05,1.05,0,0,1,0,.47l-3-.14-2.94.14a.63.63,0,0,1-.12-.46c0-.23,0-.35.12-.35a3.63,3.63,0,0,0,.94-.18c.4-.13.62-.25.66-.38a8.65,8.65,0,0,0,.19-2v-3a5.91,5.91,0,0,0-.71-3.46,2.82,2.82,0,0,0-3.88-.23c-.55.44-.83.83-.83,1.17v5a10.58,10.58,0,0,0,.23,2.5c0,.13.28.25.73.38a4.39,4.39,0,0,0,1,.18c.06,0,.1.11.12.34a1.48,1.48,0,0,1,0,.47l-3-.14-3.06.14a.7.7,0,0,1-.11-.46c0-.23,0-.35.11-.35a4.15,4.15,0,0,0,1-.18c.44-.13.68-.25.71-.38a8.45,8.45,0,0,0,.2-1.94V391.23a9.32,9.32,0,0,0-.17-1.8c-.09-.3-.57-.45-1.43-.45h-.25c-.12,0-.17-.1-.17-.31s.05-.44.17-.44c.56-.06,1.08-.14,1.56-.23a9,9,0,0,0,1.12-.28,6.25,6.25,0,0,0,.69-.27,1.84,1.84,0,0,0,.39-.21l.14-.08h.06a.3.3,0,0,1,.22.15.73.73,0,0,1,.14.3,7.91,7.91,0,0,0-.31,2.44v6.15c0,.08,0,.11.06.11a.15.15,0,0,0,.08-.05,6.8,6.8,0,0,1,1.76-1.29A4.48,4.48,0,0,1,840.43,394.35ZM849.86,407a3.41,3.41,0,0,0-.42-1.37,3.61,3.61,0,0,1-.42-1.16,1.27,1.27,0,0,1,.62-1.05A2.37,2.37,0,0,1,851,403a1.9,1.9,0,0,1,.68.11,3.33,3.33,0,0,1,.36,1.8,3,3,0,0,1-.06.73,9.41,9.41,0,0,1-1.09,3,11.66,11.66,0,0,1-2.47,2.6h0c-.08,0-.2-.08-.38-.23s-.27-.28-.27-.39.11-.16.33-.35l.71-.69a3.68,3.68,0,0,0,.72-1.1A3.42,3.42,0,0,0,849.86,407Zm18.88-12.69a2.9,2.9,0,0,1,2.75,1.4,9.87,9.87,0,0,1,.78,4.55v2.56a10.58,10.58,0,0,0,.23,2.5c0,.13.28.25.73.38a4.39,4.39,0,0,0,.95.18c.06,0,.1.11.12.34a1.23,1.23,0,0,1,0,.47l-3-.14-3,.14a.7.7,0,0,1-.11-.46c0-.23,0-.35.11-.35a3.49,3.49,0,0,0,.94-.18c.41-.13.63-.25.66-.38a8.07,8.07,0,0,0,.2-2v-2.81a6.59,6.59,0,0,0-.67-3.56,2.49,2.49,0,0,0-2.19-1,2.74,2.74,0,0,0-1.73.66c-.55.44-.83.84-.83,1.19v4.95a10.58,10.58,0,0,0,.23,2.5c0,.13.28.25.73.38a4.29,4.29,0,0,0,1,.18c.06,0,.09.11.11.34a1.05,1.05,0,0,1,0,.47l-3-.14-3.06.14a.64.64,0,0,1-.11-.46c0-.23,0-.35.11-.35a4.23,4.23,0,0,0,1-.18c.44-.13.67-.25.71-.38a8.6,8.6,0,0,0,.2-2v-5.31a2.17,2.17,0,0,0-.4-1.51,1.4,1.4,0,0,0-.68-.47,2.5,2.5,0,0,0-.68-.12c-.18,0-.26,0-.26-.06,0-.45,0-.68.16-.7a32.5,32.5,0,0,0,3.88-.73l.14,0c.08,0,.12.08.14.24a1,1,0,0,1,0,.35,10,10,0,0,0-.11,1.12q0,.12.06.12l.08-.06a7,7,0,0,1,1.75-1.28A4.48,4.48,0,0,1,868.74,394.35Zm13.34,0a5.83,5.83,0,0,1,4.32,1.82,6,6,0,0,1,1.8,4.38,6.19,6.19,0,0,1-1.76,4.43,5.75,5.75,0,0,1-4.31,1.84,5.89,5.89,0,0,1-4.35-1.84,6.4,6.4,0,0,1-.06-8.84A5.84,5.84,0,0,1,882.08,394.38Zm-.31,1.09a2.84,2.84,0,0,0-2.43,1.36,5.7,5.7,0,0,0-.94,3.33,6.51,6.51,0,0,0,1.19,3.95,3.44,3.44,0,0,0,2.79,1.64,2.87,2.87,0,0,0,2.45-1.4,5.91,5.91,0,0,0,.95-3.37,6.26,6.26,0,0,0-1.21-3.89A3.46,3.46,0,0,0,881.77,395.47Zm9.74.67h-1.63c-.09,0-.14-.19-.14-.58,0-.12,0-.18,0-.2a5.45,5.45,0,0,0,1.77-1.49,6.11,6.11,0,0,0,.6-.83c.2-.31.36-.57.5-.8a2.07,2.07,0,0,0,.19-.36c.56,0,.84,0,.84.14v2.78h3.8c.15,0,.22.09.22.26a2.33,2.33,0,0,1-.28,1.06h-3.74V403a2.69,2.69,0,0,0,.58,1.79,1.87,1.87,0,0,0,1.5.68,3.38,3.38,0,0,0,1.74-.54c.06,0,.14.05.26.24s.16.31.14.32a4.48,4.48,0,0,1-1.3.89,3.94,3.94,0,0,1-1.79.44,3.21,3.21,0,0,1-2.35-.93,3.54,3.54,0,0,1-.94-2.64Zm20.19-1.79a5.19,5.19,0,0,1,4.23,1.84,6,6,0,0,1,1.53,3.91,6.52,6.52,0,0,1-2,4.7,6,6,0,0,1-4.37,2,9.78,9.78,0,0,1-2-.19,10.54,10.54,0,0,0-1.08-.18,1.65,1.65,0,0,0-.63.16,2.66,2.66,0,0,1-.43.15,1.27,1.27,0,0,1-.35-.08c-.16-.06-.24-.12-.24-.2a4.54,4.54,0,0,1,.08-.46c.06-.29.11-.72.17-1.28a18,18,0,0,0,.08-1.88V391.23a9.35,9.35,0,0,0-.16-1.8q-.15-.45-1.44-.45h-.25c-.11,0-.17-.1-.17-.31s.06-.44.17-.44c.56-.06,1.08-.14,1.56-.23a8.58,8.58,0,0,0,1.12-.28,6.25,6.25,0,0,0,.69-.27,2.68,2.68,0,0,0,.42-.21l.11-.08h.06a.3.3,0,0,1,.22.15.62.62,0,0,1,.14.3,8,8,0,0,0-.3,2.44V395c0,.2,0,.3.08.3l.08,0a5.44,5.44,0,0,1,1.21-.59A4.06,4.06,0,0,1,911.7,394.35Zm-.89,1.37a2.12,2.12,0,0,0-1.35.44,1.48,1.48,0,0,0-.56,1.25V404a1.34,1.34,0,0,0,.82,1.28,4.38,4.38,0,0,0,1.93.41,2.78,2.78,0,0,0,2.5-1.52,6.58,6.58,0,0,0,.9-3.43,5.37,5.37,0,0,0-1.17-3.59A3.83,3.83,0,0,0,910.81,395.72Zm10.92-1.12c.32,0,.61,0,.89,0l.92-.05.91-.06a1.25,1.25,0,0,1,.06.42c0,.26,0,.39-.11.39a2.6,2.6,0,0,0-.75.2q-.51.19-.57.39v.06a65.81,65.81,0,0,0,3,7.33l2.14-6.15a3,3,0,0,0,.19-.87.79.79,0,0,0-.43-.69,2.2,2.2,0,0,0-1.17-.27c-.07,0-.11-.12-.11-.36a.66.66,0,0,1,.11-.45l1.1.08c.49,0,1,.06,1.4.06s.86,0,1.35-.06l1.1-.08a1.61,1.61,0,0,1,0,.42c0,.26,0,.39-.11.39a3,3,0,0,0-1,.26,1.34,1.34,0,0,0-.82.81l-5,13.57a5.86,5.86,0,0,1-1.46,2.43,2.46,2.46,0,0,1-1.49.68,1,1,0,0,1-.87-.36,1.18,1.18,0,0,1-.28-.73,1,1,0,0,1,.39-.9,3,3,0,0,0,3.09-2.42c.09-.28.21-.61.34-1l.31-1-4-9.83a4.17,4.17,0,0,0-.56-1,2.2,2.2,0,0,0-.77-.42,3,3,0,0,0-.83-.17c-.08,0-.11-.12-.11-.36s0-.38.11-.45Zm21.34-.22a10.1,10.1,0,0,1,1.56.15l1.31.21a16.25,16.25,0,0,1,.34,2.87c0,.09-.13.14-.37.14s-.4-.07-.42-.2a2.93,2.93,0,0,0-.8-1.49,2,2,0,0,0-1.5-.7c-1.35,0-2,.55-2,1.66a2.13,2.13,0,0,0,.11.74,1.52,1.52,0,0,0,.43.62l.49.42c.12.08.36.23.75.45l.71.41c.08,0,.3.16.66.37l.78.47a7,7,0,0,1,.66.48,3.07,3.07,0,0,1,.63.6,3.72,3.72,0,0,1,.38.67,2.07,2.07,0,0,1,.18.83,3.5,3.5,0,0,1-1.29,2.77,4.5,4.5,0,0,1-3,1.11,8.94,8.94,0,0,1-1.09-.07c-.32-.05-.71-.13-1.16-.24s-.8-.19-1-.23A7.82,7.82,0,0,1,939,405a9.32,9.32,0,0,1-.16-1.52.7.7,0,0,1,.34-.17c.28,0,.43.06.45.17a3.12,3.12,0,0,0,1.05,1.65,2.83,2.83,0,0,0,1.93.8,2.18,2.18,0,0,0,1.47-.5,1.76,1.76,0,0,0,.58-1.41,2.18,2.18,0,0,0-.19-.89,2,2,0,0,0-.59-.73,8.23,8.23,0,0,0-.75-.53l-1-.55c-.43-.22-.75-.4-1-.53-1.46-.85-2.19-1.85-2.19-3a3,3,0,0,1,1.22-2.47A4.49,4.49,0,0,1,943.07,394.38Zm9.81,8.48a10.67,10.67,0,0,0,.22,2.5c0,.13.28.25.73.38a4.35,4.35,0,0,0,1,.18c.05,0,.09.11.11.34a1.05,1.05,0,0,1,0,.47l-3-.14-3.07.14a.7.7,0,0,1-.11-.46c0-.23,0-.35.11-.35a4.15,4.15,0,0,0,1-.18c.44-.13.68-.25.72-.38a8.65,8.65,0,0,0,.19-2v-5.31a2.23,2.23,0,0,0-.39-1.51,1.48,1.48,0,0,0-.69-.47A2.44,2.44,0,0,0,949,396q-.27,0-.27-.06c0-.45.06-.68.17-.7a33,33,0,0,0,3.88-.73l0,0h.09c.07,0,.12.08.14.24a1,1,0,0,1,0,.35,15.25,15.25,0,0,0-.14,2ZM950.59,391a1.41,1.41,0,1,1,1,.41A1.36,1.36,0,0,1,950.59,391Zm10.85,3.53a9.44,9.44,0,0,1,2.39.36,9.08,9.08,0,0,0,2.22.37h1.63c.11,0,.17.27.17.7,0,.26-.06.39-.17.39h-2c-.07,0-.11,0-.11.09l.28.67a3.16,3.16,0,0,1,.31,1.35,3.58,3.58,0,0,1-1.35,2.72,4.76,4.76,0,0,1-3.31,1.21,10.15,10.15,0,0,1-1.57-.11,2.56,2.56,0,0,0-.78.7,1.52,1.52,0,0,0-.4.9.88.88,0,0,0,.22.63,1.3,1.3,0,0,0,.65.34c.28.06.55.11.81.14a8.38,8.38,0,0,0,.93,0h.19a13.19,13.19,0,0,1,4.89.72,2.12,2.12,0,0,1,1.41,2,4.74,4.74,0,0,1-1.83,3.72,7.09,7.09,0,0,1-4.69,1.58,7.74,7.74,0,0,1-3.58-.75,2.53,2.53,0,0,1-1.59-2.36c0-1.16.92-2.16,2.75-3a2.7,2.7,0,0,1-1.4-.7,1.88,1.88,0,0,1-.65-1.43,2.41,2.41,0,0,1,.64-1.52,5.7,5.7,0,0,1,1.41-1.29,3.37,3.37,0,0,1-1.55-1.34,3.76,3.76,0,0,1-.72-2.2,3.48,3.48,0,0,1,1.39-2.8A5.19,5.19,0,0,1,961.44,394.52ZM966,409a1.56,1.56,0,0,0-1.15-1.59,16.48,16.48,0,0,0-4.58-.41.49.49,0,0,0-.17.06.89.89,0,0,1-.25.12l-.28.13-.25.16-.27.16-.24.17a.76.76,0,0,0-.22.23l-.17.24a.72.72,0,0,0-.16.28c0,.09,0,.2-.08.32a1.58,1.58,0,0,0,0,.38,2.21,2.21,0,0,0,1.25,1.95,5.24,5.24,0,0,0,2.76.74,4.17,4.17,0,0,0,2.77-.89A2.64,2.64,0,0,0,966,409Zm-7.19-10.7a3.2,3.2,0,0,0,.8,2.19,2.44,2.44,0,0,0,1.87.89,2.28,2.28,0,0,0,1.81-.84,3,3,0,0,0,.72-2,3.2,3.2,0,0,0-.8-2.19,2.45,2.45,0,0,0-1.87-.9,2.28,2.28,0,0,0-1.81.84A3,3,0,0,0,958.8,398.34Zm18.62-4a2.9,2.9,0,0,1,2.7,1.35,8.25,8.25,0,0,1,.81,4.15v3a10.41,10.41,0,0,0,.23,2.47c0,.13.28.25.73.38a4.39,4.39,0,0,0,1,.18c.06,0,.1.11.12.34a1.48,1.48,0,0,1,0,.47l-3-.14-2.95.14a.7.7,0,0,1-.11-.46c0-.23,0-.35.11-.35a3.49,3.49,0,0,0,.94-.18c.41-.13.63-.25.66-.38a8.6,8.6,0,0,0,.2-2v-3a5.82,5.82,0,0,0-.72-3.46,2.81,2.81,0,0,0-3.87-.23c-.55.44-.83.83-.83,1.17v5a10.67,10.67,0,0,0,.22,2.5c0,.13.29.25.74.38a4.19,4.19,0,0,0,1,.18c.06,0,.09.11.11.34a1.05,1.05,0,0,1,0,.47l-3-.14-3.06.14a.64.64,0,0,1-.11-.46c0-.23,0-.35.11-.35a4.23,4.23,0,0,0,1-.18c.43-.13.67-.25.71-.38a8.45,8.45,0,0,0,.2-1.94V391.23a9.32,9.32,0,0,0-.17-1.8c-.09-.3-.57-.45-1.43-.45h-.26c-.11,0-.16-.1-.16-.31s.05-.44.16-.44c.57-.06,1.09-.14,1.56-.23a9.25,9.25,0,0,0,1.13-.28,5.34,5.34,0,0,0,.68-.27,2,2,0,0,0,.4-.21l.14-.08h0c.08,0,.15,0,.23.15a.89.89,0,0,1,.14.3,7.62,7.62,0,0,0-.31,2.44v6.15c0,.08,0,.11.06.11l.08-.05a6.63,6.63,0,0,1,1.76-1.29A4.44,4.44,0,0,1,977.42,394.35Zm8.37,1.79h-1.63c-.09,0-.14-.19-.14-.58,0-.12,0-.18,0-.2a5.45,5.45,0,0,0,1.77-1.49,6.11,6.11,0,0,0,.6-.83c.2-.31.36-.57.5-.8a2.07,2.07,0,0,0,.19-.36c.56,0,.84,0,.84.14v2.78h3.8c.15,0,.22.09.22.26a2.33,2.33,0,0,1-.28,1.06H988V403a2.69,2.69,0,0,0,.58,1.79,1.89,1.89,0,0,0,1.5.68,3.38,3.38,0,0,0,1.74-.54c.06,0,.14.05.26.24s.16.31.14.32a4.56,4.56,0,0,1-1.29.89,4,4,0,0,1-1.8.44,3.21,3.21,0,0,1-2.35-.93,3.58,3.58,0,0,1-.94-2.64Zm8.72,10.41a1.59,1.59,0,0,1-.49-1.17,1.49,1.49,0,0,1,.49-1.13,1.66,1.66,0,0,1,1.17-.47,1.55,1.55,0,0,1,1.14.47,1.58,1.58,0,0,1,.46,1.13,1.69,1.69,0,0,1-.46,1.17,1.5,1.5,0,0,1-1.14.49A1.59,1.59,0,0,1,994.51,406.55Z"/><path class="cls-2" d="M932.29,365.78l-.8.05c-.23,0-.51,0-.83,0s-.65,0-.94,0l-1-.05-.95-.06a.73.73,0,0,0-.11.47c0,.23,0,.35.11.35h.12c1.23,0,1.85.32,1.85,1a5,5,0,0,1-.29,1.19c-.2.59-.51,1.5-1,2.71s-.78,2.26-1.06,3.12q-1.71-3.5-2.47-5.23v5.31l1.46,3.49c0,.07.15.11.33.11a.81.81,0,0,0,.79-.62l3.68-10.05a1.27,1.27,0,0,1,.81-.77,2.9,2.9,0,0,1,1-.24c.09,0,.14-.13.14-.4a1.25,1.25,0,0,0-.06-.42Z"/><path class="cls-2" d="M930.66,394.54c-.49,0-.93.06-1.35.06s-.91,0-1.4-.06l-1.1-.08a.66.66,0,0,0-.11.45c0,.24,0,.36.11.36a2.2,2.2,0,0,1,1.17.27.79.79,0,0,1,.43.69,3,3,0,0,1-.19.87l-2.14,6.15L925,400.81v8.63l4.86-13.1a1.34,1.34,0,0,1,.82-.81,3,3,0,0,1,1-.26c.08,0,.11-.13.11-.39a1.61,1.61,0,0,0,0-.42Z"/><path class="cls-2" d="M936.78,349.37c0,.07.15.11.34.11a.64.64,0,0,0,.38-.14,1.15,1.15,0,0,0,.27-.27,1.08,1.08,0,0,0,.11-.21l2.84-7.75,3.45,8.26c0,.07.15.11.34.11a.8.8,0,0,0,.78-.62L949,338.81a1.31,1.31,0,0,1,.82-.77,2.91,2.91,0,0,1,1-.24c.09,0,.14-.13.14-.39a1.35,1.35,0,0,0-.06-.43L950,337l-.8.06-.82,0-1,0-.95-.06-.94-.06a.67.67,0,0,0-.11.47c0,.23,0,.35.11.35h.11c1.24,0,1.85.33,1.85,1a4.42,4.42,0,0,1-.29,1.19c-.2.59-.51,1.5-.94,2.71s-.79,2.26-1.07,3.12q-3.09-6.32-3.09-6.91c0-.73.45-1.09,1.35-1.09.06,0,.08-.13.08-.34a1.6,1.6,0,0,0,0-.48l-.93.06-.94.06-.88,0-.92,0-.9-.06L938,337a.73.73,0,0,0-.11.47c0,.23,0,.35.11.35a2.21,2.21,0,0,1,.9.14,1.21,1.21,0,0,1,.53.42l.14.25a2.72,2.72,0,0,1,.27.54,1.21,1.21,0,0,1,.13.45,5.12,5.12,0,0,1-.24.81c-.16.47-.44,1.25-.83,2.36l-1.07,3c-.6-1.35-1.19-2.64-1.77-3.89s-1-2.12-1.22-2.62a5.67,5.67,0,0,1-.35-.85c0-.43.47-.64,1.41-.64.05,0,.08-.12.09-.35a1.11,1.11,0,0,0,0-.47l-2.81.14-.92,0-.93-.06-.93-.06a.7.7,0,0,0-.11.45c0,.25,0,.37.11.37a1.61,1.61,0,0,1,1.52.62c.67,1.19,1.26,2.36,1.77,3.49s1,2.41,1.61,3.82S936.33,348.36,936.78,349.37Z"/><path class="cls-2" d="M950.18,390a1.4,1.4,0,1,0,.41-1A1.36,1.36,0,0,0,950.18,390Z"/><path class="cls-2" d="M946.39,401.58a3.07,3.07,0,0,0-.63-.6,7,7,0,0,0-.66-.48l-.78-.47c-.36-.21-.58-.34-.66-.37l-.71-.41c-.39-.22-.63-.37-.75-.45l-.49-.42a1.52,1.52,0,0,1-.43-.62,2.13,2.13,0,0,1-.11-.74c0-1.11.67-1.66,2-1.66a2,2,0,0,1,1.5.7,2.93,2.93,0,0,1,.8,1.49c0,.13.16.2.42.2s.37-.05.37-.14a16.25,16.25,0,0,0-.34-2.87l-1.31-.21a10.1,10.1,0,0,0-1.56-.15,4.49,4.49,0,0,0-2.85.95A3,3,0,0,0,939,397.8c0,1.16.73,2.16,2.19,3,.21.13.53.31,1,.53l1,.55a8.23,8.23,0,0,1,.75.53,2,2,0,0,1,.59.73,2.18,2.18,0,0,1,.19.89,1.76,1.76,0,0,1-.58,1.41,2.18,2.18,0,0,1-1.47.5,2.83,2.83,0,0,1-1.93-.8,3.12,3.12,0,0,1-1.05-1.65c0-.11-.17-.17-.45-.17a.7.7,0,0,0-.34.17A9.32,9.32,0,0,0,939,405a7.82,7.82,0,0,0,.32,1.4c.24,0,.59.12,1,.23s.84.19,1.16.24a8.94,8.94,0,0,0,1.09.07,4.5,4.5,0,0,0,3-1.11,3.5,3.5,0,0,0,1.29-2.77,2.07,2.07,0,0,0-.18-.83A3.72,3.72,0,0,0,946.39,401.58Z"/><path class="cls-2" d="M967.68,347.88c0,.13-.28.26-.72.38a4.15,4.15,0,0,1-1,.18c-.07,0-.11.12-.11.35a.73.73,0,0,0,.11.47c1.93-.1,2.95-.14,3.07-.14s1.16,0,3,.14a1.12,1.12,0,0,0,0-.48c0-.23-.06-.34-.12-.34a4.45,4.45,0,0,1-1-.18c-.46-.12-.71-.25-.75-.38a10.62,10.62,0,0,1-.22-2.5v-4.21a2.7,2.7,0,0,1,.64-1.71,1.89,1.89,0,0,1,1.52-.82,1.44,1.44,0,0,1,1.15.48,1.22,1.22,0,0,0,.93.48.91.91,0,0,0,.76-.45,2.66,2.66,0,0,0,.3-1.44,2.45,2.45,0,0,0-2.19-.81,2.92,2.92,0,0,0-1.75.66A5.81,5.81,0,0,0,970,339l.17-1.41a1,1,0,0,0,0-.35c0-.16-.07-.24-.14-.24l-.14,0a33,33,0,0,1-3.88.73c-.11,0-.17.25-.17.7q0,.06.27.06a2.16,2.16,0,0,1,.67.13,1.46,1.46,0,0,1,.69.46,2.26,2.26,0,0,1,.39,1.52v5.3A8.59,8.59,0,0,1,967.68,347.88Z"/><path class="cls-2" d="M957.79,349.37a5.7,5.7,0,0,0,4.31-1.84,6.19,6.19,0,0,0,1.76-4.42,6,6,0,0,0-1.8-4.39,5.87,5.87,0,0,0-4.32-1.82,5.81,5.81,0,0,0-4.36,1.8,6.39,6.39,0,0,0,.06,8.83A5.85,5.85,0,0,0,957.79,349.37Zm-2.79-10a2.83,2.83,0,0,1,2.43-1.37,3.49,3.49,0,0,1,2.81,1.62,6.34,6.34,0,0,1,1.2,3.89,5.91,5.91,0,0,1-1,3.37,2.85,2.85,0,0,1-2.45,1.4,3.42,3.42,0,0,1-2.79-1.64,6.49,6.49,0,0,1-1.19-3.95A5.67,5.67,0,0,1,955,339.36Z"/><path class="cls-2" d="M977.84,347.88c0,.13-.27.26-.71.38a4.15,4.15,0,0,1-1,.18c-.07,0-.11.12-.11.35a.73.73,0,0,0,.11.47c1.93-.1,3-.14,3.06-.14s1.13,0,3,.14a1.58,1.58,0,0,0,0-.48c0-.23-.06-.34-.12-.34a4.39,4.39,0,0,1-1-.18c-.45-.12-.69-.25-.73-.38a10.52,10.52,0,0,1-.23-2.5V332.57a7.91,7.91,0,0,1,.31-2.44.7.7,0,0,0-.14-.29.29.29,0,0,0-.22-.16h-.06l-.11.09-.42.21c-.19.08-.42.17-.69.26a7.53,7.53,0,0,1-1.12.28c-.48.1-1,.17-1.56.23-.12,0-.17.15-.17.45s.05.31.17.31h.25c.86,0,1.34.15,1.43.45a9.3,9.3,0,0,1,.17,1.79v12.16A8,8,0,0,1,977.84,347.88Z"/><path class="cls-2" d="M925,366.66a2,2,0,0,1,.73-.12s.08-.13.08-.34a1.48,1.48,0,0,0-.06-.48l-.75,0Z"/><path class="cls-2" d="M991.77,405a3.38,3.38,0,0,1-1.74.54,1.89,1.89,0,0,1-1.5-.68A2.69,2.69,0,0,1,988,403v-6.89h3.74a2.33,2.33,0,0,0,.28-1.06c0-.17-.07-.26-.22-.26H988V392c0-.1-.28-.14-.84-.14a2.07,2.07,0,0,1-.19.36c-.14.23-.3.49-.5.8a6.11,6.11,0,0,1-.6.83,5.45,5.45,0,0,1-1.77,1.49s0,.08,0,.2c0,.39.05.58.14.58h1.63v7.14a3.58,3.58,0,0,0,.94,2.64,3.21,3.21,0,0,0,2.35.93,4,4,0,0,0,1.8-.44,4.56,4.56,0,0,0,1.29-.89s0-.12-.14-.32S991.83,404.93,991.77,405Z"/><path class="cls-2" d="M995.19,348.72c.34-.05.66-.09.94-.11.11,0,.17-.14.17-.42s0-.32-.09-.34l-.25,0a4.61,4.61,0,0,1-.52,0,1.91,1.91,0,0,1-.52-.14.52.52,0,0,1-.31-.31,10.91,10.91,0,0,1-.17-2.14V332.57a7.91,7.91,0,0,1,.31-2.44.7.7,0,0,0-.14-.29.29.29,0,0,0-.22-.16h-.06l-.11.09-.42.21c-.19.08-.42.17-.69.26a7.53,7.53,0,0,1-1.12.28c-.48.1-1,.17-1.56.23-.12,0-.17.15-.17.45s0,.31.17.31h.25c.86,0,1.34.15,1.43.45a9.3,9.3,0,0,1,.17,1.79v3c0,.33-.07.5-.2.5a4.4,4.4,0,0,0-2.1-.48,5.8,5.8,0,0,0-4.34,2.07,6.83,6.83,0,0,0-1.93,4.79,5.57,5.57,0,0,0,1.58,4,5.16,5.16,0,0,0,3.9,1.65,6.18,6.18,0,0,0,3-.87c.07,0,.11,0,.11.12v.33c0,.32.06.48.17.48l.25-.06.65-.18.85-.19C994.51,348.84,994.84,348.78,995.19,348.72Zm-2.91-2.41a1.44,1.44,0,0,1-.53,1.16,2.32,2.32,0,0,1-1.49.44,3.56,3.56,0,0,1-3-1.5,5.9,5.9,0,0,1-1.09-3.56,6.16,6.16,0,0,1,.93-3.39,2.87,2.87,0,0,1,2.55-1.47,3.24,3.24,0,0,1,2,.52,1.47,1.47,0,0,1,.63,1.11Z"/><path class="cls-2" d="M982.84,405.92a4.39,4.39,0,0,1-1-.18c-.45-.13-.69-.25-.73-.38a10.41,10.41,0,0,1-.23-2.47v-3a8.25,8.25,0,0,0-.81-4.15,2.9,2.9,0,0,0-2.7-1.35,4.44,4.44,0,0,0-2.17.62,6.63,6.63,0,0,0-1.76,1.29l-.08.05s-.06,0-.06-.11v-6.15a7.62,7.62,0,0,1,.31-2.44.89.89,0,0,0-.14-.3c-.08-.1-.15-.15-.23-.15h0l-.14.08a2,2,0,0,1-.4.21,5.34,5.34,0,0,1-.68.27,9.25,9.25,0,0,1-1.13.28c-.47.09-1,.17-1.56.23-.11,0-.16.14-.16.44s.05.31.16.31h.26c.86,0,1.34.15,1.43.45a9.32,9.32,0,0,1,.17,1.8v12.19a8.45,8.45,0,0,1-.2,1.94c0,.13-.28.25-.71.38a4.23,4.23,0,0,1-1,.18c-.08,0-.11.12-.11.35a.64.64,0,0,0,.11.46l3.06-.14,3,.14a1.05,1.05,0,0,0,0-.47c0-.23,0-.34-.11-.34a4.19,4.19,0,0,1-1-.18c-.45-.13-.7-.25-.74-.38a10.67,10.67,0,0,1-.22-2.5v-5c0-.34.28-.73.83-1.17a2.81,2.81,0,0,1,3.87.23,5.82,5.82,0,0,1,.72,3.46v3a8.6,8.6,0,0,1-.2,2c0,.13-.25.25-.66.38a3.49,3.49,0,0,1-.94.18c-.07,0-.11.12-.11.35a.7.7,0,0,0,.11.46l2.95-.14,3,.14a1.48,1.48,0,0,0,0-.47C982.94,406,982.9,405.92,982.84,405.92Z"/><path class="cls-2" d="M996.82,404.25a1.55,1.55,0,0,0-1.14-.47,1.66,1.66,0,0,0-1.17.47,1.49,1.49,0,0,0-.49,1.13,1.67,1.67,0,0,0,1.66,1.66,1.5,1.5,0,0,0,1.14-.49,1.69,1.69,0,0,0,.46-1.17A1.58,1.58,0,0,0,996.82,404.25Z"/><path class="cls-2" d="M956.64,360.69a9.48,9.48,0,0,1,.17,1.8v11.63a17.82,17.82,0,0,1-.09,1.88c-.05.56-.11,1-.16,1.28s-.09.44-.09.46.08.14.24.2a1.08,1.08,0,0,0,.35.08,2.59,2.59,0,0,0,.44-.15,1.81,1.81,0,0,1,.63-.16c.09,0,.45.07,1.08.19a10.57,10.57,0,0,0,2,.18,6,6,0,0,0,4.37-2,6.5,6.5,0,0,0,2-4.69,6,6,0,0,0-1.53-3.92,5.19,5.19,0,0,0-4.23-1.84,4,4,0,0,0-1.43.31,5,5,0,0,0-1.21.59l-.09,0s-.08-.11-.08-.31v-4.92a7.62,7.62,0,0,1,.31-2.44,1,1,0,0,0-.14-.3c-.08-.1-.15-.15-.23-.15h0l-.11.08a3.48,3.48,0,0,1-.43.21,5.34,5.34,0,0,1-.68.27,7.71,7.71,0,0,1-1.13.28,15.28,15.28,0,0,1-1.56.23c-.11,0-.16.15-.16.45s.05.31.16.31h.26C956.07,360.25,956.55,360.4,956.64,360.69Zm2.33,8a1.5,1.5,0,0,1,.56-1.25,2.16,2.16,0,0,1,1.35-.43,3.84,3.84,0,0,1,3.08,1.37,5.42,5.42,0,0,1,1.16,3.6,6.57,6.57,0,0,1-.9,3.42,2.78,2.78,0,0,1-2.5,1.52,4.31,4.31,0,0,1-1.92-.41,1.34,1.34,0,0,1-.83-1.28Z"/><path class="cls-2" d="M970.37,367.13a3.56,3.56,0,0,1,.56.95l4,9.83c-.07.24-.18.56-.31,1s-.24.73-.34,1a3,3,0,0,1-3.09,2.41,1,1,0,0,0-.39.9,1.24,1.24,0,0,0,.28.73,1,1,0,0,0,.87.37,2.4,2.4,0,0,0,1.49-.69,5.86,5.86,0,0,0,1.46-2.43l5-13.57a1.36,1.36,0,0,1,.83-.81,2.83,2.83,0,0,1,1-.25c.08,0,.12-.13.12-.4a1.25,1.25,0,0,0-.06-.42l-1.09.09c-.49,0-.94.05-1.35.05s-.92,0-1.41-.05l-1.09-.09a.64.64,0,0,0-.11.45c0,.25,0,.37.11.37a2.26,2.26,0,0,1,1.16.26.8.8,0,0,1,.44.69,3.15,3.15,0,0,1-.2.87l-2.13,6.15a64.89,64.89,0,0,1-3-7.33v-.05c0-.13.23-.27.58-.4a2.38,2.38,0,0,1,.74-.19c.08,0,.12-.13.12-.4a1.25,1.25,0,0,0-.06-.42l-.91.06-.93.05c-.27,0-.57,0-.89,0-.09,0-1.1,0-3-.14a.7.7,0,0,0-.11.45c0,.25,0,.37.11.37a2.88,2.88,0,0,1,.83.16A2,2,0,0,1,970.37,367.13Z"/><path class="cls-2" d="M947.4,377.18a4.35,4.35,0,0,1-1-.18c-.44-.12-.69-.25-.73-.38a10.62,10.62,0,0,1-.22-2.5v-2.56a9.75,9.75,0,0,0-.79-4.55,2.89,2.89,0,0,0-2.75-1.4,4.48,4.48,0,0,0-2.12.6,7.27,7.27,0,0,0-1.75,1.28s-.07.06-.09.06-.06,0-.06-.11a8.63,8.63,0,0,1,.12-1.13,1,1,0,0,0,0-.35c0-.16-.07-.24-.14-.24l-.14,0a32.5,32.5,0,0,1-3.88.73c-.11,0-.17.25-.17.7q0,.06.27.06a2.16,2.16,0,0,1,.67.13,1.39,1.39,0,0,1,.69.46,2.23,2.23,0,0,1,.39,1.51v5.31a8.59,8.59,0,0,1-.19,2c0,.13-.28.26-.72.38a4.15,4.15,0,0,1-1,.18c-.07,0-.11.12-.11.35a.73.73,0,0,0,.11.47l3.07-.15,3,.15a1.12,1.12,0,0,0,0-.48c0-.23-.06-.34-.11-.34a4.35,4.35,0,0,1-1-.18c-.45-.12-.69-.25-.73-.38a10.62,10.62,0,0,1-.22-2.5v-4.94c0-.36.27-.76.83-1.2a2.71,2.71,0,0,1,1.72-.66,2.49,2.49,0,0,1,2.19,1,6.57,6.57,0,0,1,.68,3.56v2.81a8.54,8.54,0,0,1-.2,2c0,.13-.26.26-.66.38a3.56,3.56,0,0,1-.94.18c-.07,0-.11.12-.11.35a.73.73,0,0,0,.11.47l3-.15,3,.15a1.12,1.12,0,0,0,0-.48C947.49,377.29,947.46,377.18,947.4,377.18Z"/><path class="cls-2" d="M954.79,405.92a4.35,4.35,0,0,1-1-.18c-.45-.13-.69-.25-.73-.38a10.67,10.67,0,0,1-.22-2.5v-5.79a15.25,15.25,0,0,1,.14-2,1,1,0,0,0,0-.35c0-.16-.07-.24-.14-.24h-.09l0,0a33,33,0,0,1-3.88.73c-.11,0-.17.25-.17.7q0,.06.27.06a2.44,2.44,0,0,1,.67.12,1.48,1.48,0,0,1,.69.47,2.23,2.23,0,0,1,.39,1.51v5.31a8.65,8.65,0,0,1-.19,2c0,.13-.28.25-.72.38a4.15,4.15,0,0,1-1,.18c-.07,0-.11.12-.11.35a.7.7,0,0,0,.11.46l3.07-.14,3,.14a1.05,1.05,0,0,0,0-.47C954.88,406,954.84,405.92,954.79,405.92Z"/><path class="cls-2" d="M965.68,396.34h2c.11,0,.17-.13.17-.39,0-.43-.06-.67-.17-.7h-1.63a9.08,9.08,0,0,1-2.22-.37,9.44,9.44,0,0,0-2.39-.36,5.19,5.19,0,0,0-3.41,1.13,3.48,3.48,0,0,0-1.39,2.8,3.76,3.76,0,0,0,.72,2.2,3.37,3.37,0,0,0,1.55,1.34,5.7,5.7,0,0,0-1.41,1.29,2.41,2.41,0,0,0-.64,1.52,1.88,1.88,0,0,0,.65,1.43,2.7,2.7,0,0,0,1.4.7c-1.83.82-2.75,1.82-2.75,3a2.53,2.53,0,0,0,1.59,2.36,7.74,7.74,0,0,0,3.58.75,7.09,7.09,0,0,0,4.69-1.58,4.74,4.74,0,0,0,1.83-3.72,2.12,2.12,0,0,0-1.41-2,13.19,13.19,0,0,0-4.89-.72h-.19a8.38,8.38,0,0,1-.93,0c-.26,0-.53-.08-.81-.14a1.3,1.3,0,0,1-.65-.34.88.88,0,0,1-.22-.63,1.52,1.52,0,0,1,.4-.9,2.56,2.56,0,0,1,.78-.7,10.15,10.15,0,0,0,1.57.11,4.76,4.76,0,0,0,3.31-1.21,3.58,3.58,0,0,0,1.35-2.72,3.16,3.16,0,0,0-.31-1.35l-.28-.67C965.57,396.37,965.61,396.34,965.68,396.34ZM959,407.67l.27-.16.25-.16.28-.13a.89.89,0,0,0,.25-.12.49.49,0,0,1,.17-.06,16.48,16.48,0,0,1,4.58.41A1.56,1.56,0,0,1,966,409a2.64,2.64,0,0,1-1.08,2,4.17,4.17,0,0,1-2.77.89,5.24,5.24,0,0,1-2.76-.74,2.21,2.21,0,0,1-1.25-1.95,1.58,1.58,0,0,1,0-.38c0-.12.06-.23.08-.32a.72.72,0,0,1,.16-.28l.17-.24a.76.76,0,0,1,.22-.23Zm4.24-7.09a2.28,2.28,0,0,1-1.81.84,2.44,2.44,0,0,1-1.87-.89,3.2,3.2,0,0,1-.8-2.19,3,3,0,0,1,.72-2,2.28,2.28,0,0,1,1.81-.84,2.45,2.45,0,0,1,1.87.9,3.2,3.2,0,0,1,.8,2.19A3,3,0,0,1,963.28,400.58Z"/><rect class="cls-2" x="77.93" y="415.01" width="1014.43" height="282.49"/><g class="cls-11"><use transform="translate(70.8 284.23) scale(0.51 0.51)" xlink:href="#image"/></g><path class="cls-4" d="M359.18,547.43a2.43,2.43,0,0,0-.14.76c0,.43-.06,1-.07,1.84s0,1.81,0,3l0,14.1a12.38,12.38,0,0,1-.74,4.53,6.21,6.21,0,0,1-2.11,2.83,5.54,5.54,0,0,1-3.27,1,5.67,5.67,0,0,1-3-.8,2.27,2.27,0,0,1-1.29-1.9,1.34,1.34,0,0,1,.4-1,1.5,1.5,0,0,1,1.08-.38,2.14,2.14,0,0,1,1,.25,3.75,3.75,0,0,1,1,.74l2,2-1.33-.46a2.3,2.3,0,0,0,1.77-.27,2.81,2.81,0,0,0,1-1.65,12.89,12.89,0,0,0,.32-3.17V553.05c0-1.11,0-2,0-2.83s0-1.4,0-1.88a3.47,3.47,0,0,0-.09-.91L353,546.9l.08-1.45h8.36l.08,1.45Z"/><path class="cls-4" d="M372.4,568.07a8.09,8.09,0,0,1-4-1,7.15,7.15,0,0,1-2.81-2.83,8.87,8.87,0,0,1-1-4.36,9.41,9.41,0,0,1,1.11-4.67,8,8,0,0,1,2.89-3.06,7,7,0,0,1,3.83-1,5.92,5.92,0,0,1,4.64,2,8.13,8.13,0,0,1,1.67,5.49v.69H367v-1.67h9.16l-.41.49v-.8a5.25,5.25,0,0,0-1-3.36,3.31,3.31,0,0,0-2.72-1.2,3.76,3.76,0,0,0-2.05.63,4.47,4.47,0,0,0-1.6,1.9,7.53,7.53,0,0,0-.61,3.21v.46a7.14,7.14,0,0,0,1.54,4.86,5,5,0,0,0,4,1.75,5.45,5.45,0,0,0,2.42-.51,6.45,6.45,0,0,0,2-1.73l.95.87a7.4,7.4,0,0,1-2.7,3A7.06,7.06,0,0,1,372.4,568.07Z"/><path class="cls-4" d="M387.53,568.07a12.19,12.19,0,0,1-2.81-.33,9.59,9.59,0,0,1-2.4-.85l-.19-4.07H384l.76,2.74a5,5,0,0,0,3,.91,3.32,3.32,0,0,0,2.08-.63,2,2,0,0,0,.81-1.69,2.39,2.39,0,0,0-.72-1.75,9.33,9.33,0,0,0-2.81-1.59,12.88,12.88,0,0,1-3.8-2.28,3.75,3.75,0,0,1-1.1-2.78,3.83,3.83,0,0,1,.81-2.41,5.35,5.35,0,0,1,2.26-1.63,8.71,8.71,0,0,1,3.35-.59,13.28,13.28,0,0,1,2.16.17,6.48,6.48,0,0,1,1.83.51l.42,4h-1.79l-.91-2.58a3.46,3.46,0,0,0-.91-.36,4.68,4.68,0,0,0-1.14-.14,3.33,3.33,0,0,0-2.13.63,2,2,0,0,0-.8,1.62,2.25,2.25,0,0,0,.87,1.84,16.84,16.84,0,0,0,3.08,1.73,10.8,10.8,0,0,1,3.5,2.24,3.85,3.85,0,0,1,1,2.66,4,4,0,0,1-1.79,3.36A7.41,7.41,0,0,1,387.53,568.07Z"/><path class="cls-4" d="M412.65,565.1l2.39.61V567l-4.94,1.22-.57-.49,0-2.4-.11,0a7.1,7.1,0,0,1-2.26,2.19,5.17,5.17,0,0,1-2.49.63,6.05,6.05,0,0,1-4.26-1.58,6.13,6.13,0,0,1-1.71-4.73v-3.27c0-.69,0-1.37-.06-2s-.08-1.37-.13-2.06l-2.58-.53V552.6l5.16-1.41.69.61c-.05.79-.09,1.62-.12,2.51s0,1.81,0,2.77l0,4.18a4.42,4.42,0,0,0,1.1,3.37,4,4,0,0,0,2.81,1,4.56,4.56,0,0,0,2.09-.53,4.76,4.76,0,0,0,1.87-1.82v-4.41c0-.56,0-1.11,0-1.65s0-1.07-.06-1.56a12.76,12.76,0,0,0-.12-1.28l-2.77-.53V552.6l5.36-1.41.57.53c0,.71,0,1.34-.06,1.89s0,1.08,0,1.63v4.58c0,1.39,0,2.51.1,3.36S412.6,564.67,412.65,565.1Z"/><path class="cls-4" d="M423.44,568.07a12.25,12.25,0,0,1-2.81-.33,9.36,9.36,0,0,1-2.39-.85l-.2-4.07h1.87l.76,2.74a5,5,0,0,0,3,.91,3.31,3.31,0,0,0,2.07-.63,2,2,0,0,0,.82-1.69,2.36,2.36,0,0,0-.73-1.75,9.2,9.2,0,0,0-2.81-1.59,13,13,0,0,1-3.8-2.28,4,4,0,0,1-.28-5.19,5.23,5.23,0,0,1,2.26-1.63,8.62,8.62,0,0,1,3.34-.59,13.48,13.48,0,0,1,2.17.17,6.5,6.5,0,0,1,1.82.51l.42,4H427.2l-.91-2.58a3.46,3.46,0,0,0-.91-.36,4.62,4.62,0,0,0-1.14-.14,3.33,3.33,0,0,0-2.13.63,2,2,0,0,0-.8,1.62,2.23,2.23,0,0,0,.88,1.84,16.49,16.49,0,0,0,3.08,1.73,10.85,10.85,0,0,1,3.49,2.24,3.85,3.85,0,0,1,1,2.66,4,4,0,0,1-1.79,3.36A7.39,7.39,0,0,1,423.44,568.07Z"/><path class="cls-4" d="M446,568.07a5.84,5.84,0,0,1-2.7-.61,5.11,5.11,0,0,1-1.85-1.56,3.41,3.41,0,0,1-.66-2,2.87,2.87,0,0,1,.82-2.09,7,7,0,0,1,2.75-1.48l5.78-1.94v-1.94a2.82,2.82,0,0,0-.57-1.72,4,4,0,0,0-1.52-1.24,4.93,4.93,0,0,0-2.13-.46,1.68,1.68,0,0,0-1.29.4,2.86,2.86,0,0,0-.42,1.58l-.08,1.6a3.77,3.77,0,0,1-2.31-.1,1.34,1.34,0,0,1-.95-1.31,2,2,0,0,1,.57-1.29,7.28,7.28,0,0,1,1.48-1.24,11,11,0,0,1,2-1,8.88,8.88,0,0,1,2.07-.57,6.62,6.62,0,0,1,4.48,1.46,5,5,0,0,1,1.75,3.89l-.08,6.39c0,.46,0,.92.06,1.39a4.62,4.62,0,0,0,.17,1l2.43.46v1.18l-1.86.68a5.83,5.83,0,0,1-1,.34,3,3,0,0,1-.76.12,1.52,1.52,0,0,1-1.52-1.33l-.42-1.49h.57a10.87,10.87,0,0,1-2.41,2.11A4.5,4.5,0,0,1,446,568.07Zm1-2.25a3.54,3.54,0,0,0,1.66-.4,4.68,4.68,0,0,0,1.46-1.23v-4l-4.26,1.14a2.35,2.35,0,0,0-1.31.72,2,2,0,0,0-.4,1.26,2.29,2.29,0,0,0,.86,1.72A2.86,2.86,0,0,0,447,565.82Z"/><path class="cls-4" d="M457.76,567.76l-.08-1.37,2.36-.57q0-.26.06-.72c0-.3,0-.72,0-1.25s0-1.23,0-2.09l0-2.93c0-.84,0-1.67-.1-2.51s-.13-1.48-.2-1.94l-2.44-.53V552.6l5.1-1.41.64.61-.19,2,.12,0a9.34,9.34,0,0,1,2.62-2.09,6.2,6.2,0,0,1,2.81-.64,5.14,5.14,0,0,1,4.66,2.87,7.81,7.81,0,0,1,.77,3.66v4.22c0,.91,0,1.74.06,2.47a8.14,8.14,0,0,0,.17,1.48l2.36.57-.11,1.37h-7.64l-.08-1.37,2.2-.57c0-.2.06-.45.08-.76s0-.69.06-1.17,0-1.07,0-1.75V558a5.37,5.37,0,0,0-.59-2.71,3.53,3.53,0,0,0-1.47-1.45,3.93,3.93,0,0,0-1.78-.44A4.65,4.65,0,0,0,465,554a5.81,5.81,0,0,0-1.86,1.75v5.7c0,1.19,0,2.14.05,2.85a13.93,13.93,0,0,0,.14,1.48l2.35.57-.11,1.37Z"/><path class="cls-4" d="M492,568.18l-.57-.49,0-2.47-.12,0a6.86,6.86,0,0,1-2.32,2.24,5.33,5.33,0,0,1-2.54.65,7.43,7.43,0,0,1-3.88-1,7.33,7.33,0,0,1-2.68-2.79,8.44,8.44,0,0,1-1-4.09,9.62,9.62,0,0,1,.69-3.69,8.62,8.62,0,0,1,4.6-4.71,8,8,0,0,1,3.15-.64,9.77,9.77,0,0,1,2.15.26,5.15,5.15,0,0,1,1.88.84c0-.46,0-1.05,0-1.79s0-1.5,0-2.3,0-1.5,0-2.13,0-1-.05-1.27l-3-.53-.07-1.25,5.58-1.56.69.53q-.07,2.36-.12,4.56c0,1.47,0,3,0,4.6l0,8.74c0,1.29,0,2.4.09,3.32s.11,1.58.13,2l2.44.61V567Zm-4.56-2.66a4.49,4.49,0,0,0,2-.48,6,6,0,0,0,2-1.69v-8.17a4.17,4.17,0,0,0-1.83-1.82,4.94,4.94,0,0,0-2.2-.53,4.45,4.45,0,0,0-3.74,1.76,7.35,7.35,0,0,0-1.35,4.58,6.77,6.77,0,0,0,1.5,4.7A4.73,4.73,0,0,0,487.48,565.52Z"/><path class="cls-4" d="M518.38,565.41a5.22,5.22,0,0,1-2,2,5.53,5.53,0,0,1-6.4-.7,5.51,5.51,0,0,1-1.5-4.22l.11-9.08H506v-.8l4.9-4.45h.72l-.07,4.37,0,9.35a4.27,4.27,0,0,0,.85,2.93,3.1,3.1,0,0,0,2.42,1,3.62,3.62,0,0,0,1.61-.36,6,6,0,0,0,1.35-.89Zm-8.25-12v-1.9h7.11v1.9Z"/><path class="cls-4" d="M519.33,567.76l-.08-1.37,2.36-.57a8.7,8.7,0,0,0,.09-1.27c0-.57,0-1.34.06-2.3s0-2.14,0-3.53V554c0-.86,0-1.79,0-2.78s0-1.94,0-2.87,0-1.73-.06-2.43,0-1.15,0-1.35l-2.81-.38-.07-1.21,5.36-1.56.72.53c0,.78-.05,1.57-.08,2.36s0,1.63-.06,2.54,0,1.93,0,3.06,0,2.44,0,3.93l.11,0a8.85,8.85,0,0,1,2.59-2.09,6.17,6.17,0,0,1,2.81-.64,5.16,5.16,0,0,1,2.64.72,5.4,5.4,0,0,1,2,2.18,8,8,0,0,1,.78,3.75v4.1c0,.91,0,1.73.08,2.45s.1,1.22.15,1.5l2.36.57-.08,1.37h-7.64l-.11-1.37,2.2-.57c0-.2.05-.45.08-.76s0-.69,0-1.17,0-1.07,0-1.75V558a5.45,5.45,0,0,0-.55-2.64,3.57,3.57,0,0,0-1.42-1.48,3.85,3.85,0,0,0-1.86-.48,4.65,4.65,0,0,0-2.32.61,5.81,5.81,0,0,0-1.86,1.75v5.7c0,1.17,0,2.13,0,2.89a8.65,8.65,0,0,0,.14,1.44l2.31.57-.07,1.37Z"/><path class="cls-4" d="M548.48,568.07a8.09,8.09,0,0,1-4-1,7.11,7.11,0,0,1-2.82-2.83,8.86,8.86,0,0,1-1-4.36,9.4,9.4,0,0,1,1.1-4.67,8,8,0,0,1,2.89-3.06,7,7,0,0,1,3.84-1,5.9,5.9,0,0,1,4.63,2,8.08,8.08,0,0,1,1.67,5.49v.69H543.12v-1.67h9.16l-.42.49v-.8a5.19,5.19,0,0,0-1-3.36,3.3,3.3,0,0,0-2.72-1.2,3.76,3.76,0,0,0-2,.63,4.47,4.47,0,0,0-1.6,1.9,7.54,7.54,0,0,0-.6,3.21v.46a7.13,7.13,0,0,0,1.53,4.86,5,5,0,0,0,4,1.75,5.44,5.44,0,0,0,2.41-.51,6.34,6.34,0,0,0,2-1.73l1,.87a7.4,7.4,0,0,1-2.7,3A7.05,7.05,0,0,1,548.48,568.07Z"/><path class="cls-4" d="M576.71,568.07a11.8,11.8,0,0,1-5.87-1.45,10.31,10.31,0,0,1-4-4,11.87,11.87,0,0,1-1.44-5.91,12,12,0,0,1,1.46-6,10.7,10.7,0,0,1,4.07-4.13,11.52,11.52,0,0,1,5.87-1.5,10.72,10.72,0,0,1,5.62,1.45,10.19,10.19,0,0,1,3.82,4,12,12,0,0,1,1.39,5.89,12.26,12.26,0,0,1-.86,4.65,11.8,11.8,0,0,1-2.31,3.67,10.16,10.16,0,0,1-3.35,2.39,9.71,9.71,0,0,1-4,.84Zm.34-2a6,6,0,0,0,3.58-1.06,7,7,0,0,0,2.32-3,11.87,11.87,0,0,0,.83-4.62,14.27,14.27,0,0,0-.95-5.4,8.8,8.8,0,0,0-2.6-3.63,6.1,6.1,0,0,0-3.9-1.31,6.17,6.17,0,0,0-5.11,2.41,10.44,10.44,0,0,0-1.88,6.56,12.94,12.94,0,0,0,1,5.23,8.64,8.64,0,0,0,2.73,3.55A6.57,6.57,0,0,0,577.05,566.05Zm9.2,6.84a11.23,11.23,0,0,1-2.22-.21,9.58,9.58,0,0,1-2-.64,20.27,20.27,0,0,1-2.13-1.12L578.5,570l-1.58-1a18.17,18.17,0,0,0-1.58-.94,6.45,6.45,0,0,0-1.36-.55h4.18a13.41,13.41,0,0,1,2.94.5,11.84,11.84,0,0,1,2.53,1.1,12.34,12.34,0,0,0,2.43,1,8.74,8.74,0,0,0,2.36.34,7,7,0,0,0,1.18-.1,11,11,0,0,0,1.17-.24l.38,1.44a8.59,8.59,0,0,1-2.26.95A10.06,10.06,0,0,1,586.25,572.89Z"/><path class="cls-4" d="M606.81,565.1l2.4.61V567l-5,1.22-.56-.49,0-2.4-.11,0a7.1,7.1,0,0,1-2.26,2.19,5.17,5.17,0,0,1-2.49.63,6.05,6.05,0,0,1-4.26-1.58,6.13,6.13,0,0,1-1.71-4.73v-3.27c0-.69,0-1.37-.06-2s-.08-1.37-.13-2.06l-2.58-.53V552.6l5.17-1.41.68.61c-.05.79-.09,1.62-.11,2.51s0,1.81,0,2.77l0,4.18a4.42,4.42,0,0,0,1.1,3.37,4,4,0,0,0,2.81,1,4.56,4.56,0,0,0,2.09-.53,4.7,4.7,0,0,0,1.87-1.82v-4.41c0-.56,0-1.11,0-1.65s0-1.07-.06-1.56-.06-.92-.11-1.28l-2.78-.53V552.6l5.36-1.41.57.53q0,1.06-.06,1.89c0,.54,0,1.08,0,1.63v4.58c0,1.39,0,2.51.1,3.36S606.76,564.67,606.81,565.1Z"/><path class="cls-4" d="M617.6,568.07a5.83,5.83,0,0,1-2.69-.61,5.11,5.11,0,0,1-1.85-1.56,3.41,3.41,0,0,1-.66-2,2.9,2.9,0,0,1,.81-2.09,7.12,7.12,0,0,1,2.76-1.48l5.78-1.94v-1.94a2.82,2.82,0,0,0-.57-1.72,4,4,0,0,0-1.52-1.24,5,5,0,0,0-2.13-.46,1.65,1.65,0,0,0-1.29.4,2.86,2.86,0,0,0-.42,1.58l-.08,1.6a3.8,3.8,0,0,1-2.32-.1,1.35,1.35,0,0,1-.95-1.31,2,2,0,0,1,.57-1.29,7.36,7.36,0,0,1,1.49-1.24,10.85,10.85,0,0,1,2-1,9.16,9.16,0,0,1,2.07-.57,6.65,6.65,0,0,1,4.49,1.46,5,5,0,0,1,1.75,3.89l-.08,6.39c0,.46,0,.92.06,1.39a4.62,4.62,0,0,0,.17,1l2.43.46v1.18l-1.86.68a6.14,6.14,0,0,1-1,.34,3.09,3.09,0,0,1-.76.12,1.51,1.51,0,0,1-1.52-1.33l-.42-1.49h.57a10.87,10.87,0,0,1-2.41,2.11A4.51,4.51,0,0,1,617.6,568.07Zm1-2.25a3.53,3.53,0,0,0,1.65-.4,4.6,4.6,0,0,0,1.47-1.23v-4l-4.26,1.14a2.35,2.35,0,0,0-1.31.72,1.92,1.92,0,0,0-.4,1.26,2.27,2.27,0,0,0,.85,1.72A2.9,2.9,0,0,0,618.63,565.82Z"/><path class="cls-4" d="M629.35,567.76l-.08-1.37,2.36-.57c0-.17,0-.41,0-.72s0-.72.06-1.25,0-1.23,0-2.09l0-2.93c0-.84,0-1.67-.1-2.51s-.13-1.48-.21-1.94l-2.43-.53V552.6l5.09-1.41.65.61-.19,2,.11,0a9.37,9.37,0,0,1,2.63-2.09,6.17,6.17,0,0,1,2.81-.64,5.11,5.11,0,0,1,4.65,2.87,7.69,7.69,0,0,1,.78,3.66v4.22c0,.91,0,1.74.06,2.47a7.3,7.3,0,0,0,.17,1.48l2.36.57-.12,1.37h-7.64l-.07-1.37,2.2-.57c0-.2,0-.45.08-.76s0-.69.06-1.17,0-1.07,0-1.75V558a5.37,5.37,0,0,0-.58-2.71,3.58,3.58,0,0,0-1.47-1.45,4,4,0,0,0-1.78-.44,4.65,4.65,0,0,0-2.32.61,5.81,5.81,0,0,0-1.86,1.75v5.7c0,1.19,0,2.14,0,2.85a11.64,11.64,0,0,0,.14,1.48l2.35.57-.11,1.37Z"/><path class="cls-4" d="M662.18,565.41a5.2,5.2,0,0,1-2,2,5.54,5.54,0,0,1-6.41-.7,5.51,5.51,0,0,1-1.5-4.22l.12-9.08h-2.67v-.8l4.91-4.45h.72l-.08,4.37,0,9.35a4.27,4.27,0,0,0,.85,2.93,3.1,3.1,0,0,0,2.41,1,3.63,3.63,0,0,0,1.62-.36,6.44,6.44,0,0,0,1.35-.89Zm-8.24-12v-1.9H661v1.9Z"/><path class="cls-4" d="M679.25,565.1l2.39.61V567l-4.94,1.22-.57-.49,0-2.4-.12,0a6.91,6.91,0,0,1-2.26,2.19,5.12,5.12,0,0,1-2.49.63,6,6,0,0,1-4.25-1.58,6.13,6.13,0,0,1-1.71-4.73v-3.27c0-.69,0-1.37-.06-2s-.08-1.37-.13-2.06l-2.59-.53V552.6l5.17-1.41.69.61c-.06.79-.09,1.62-.12,2.51s0,1.81,0,2.77l0,4.18a4.38,4.38,0,0,0,1.1,3.37,4,4,0,0,0,2.81,1,4.59,4.59,0,0,0,2.09-.53,4.68,4.68,0,0,0,1.86-1.82v-4.41c0-.56,0-1.11,0-1.65s0-1.07-.05-1.56-.07-.92-.12-1.28l-2.77-.53V552.6l5.36-1.41.57.53q0,1.06-.06,1.89c0,.54,0,1.08,0,1.63v4.58c0,1.39,0,2.51.1,3.36S679.2,564.67,679.25,565.1Z"/><path class="cls-4" d="M683.81,567.76l-.08-1.37,2.36-.57c0-.17,0-.4,0-.68s0-.68.06-1.22,0-1.25,0-2.16l0-3c0-.53,0-1.07,0-1.63s-.06-1.08-.11-1.58-.11-.89-.16-1.2l-2.43-.53V552.6l5.09-1.41.65.61-.19,2.05.11,0a7.73,7.73,0,0,1,2.44-2.13,5.63,5.63,0,0,1,2.62-.64,5.11,5.11,0,0,1,2.58.72,5.45,5.45,0,0,1,2.07,2.2,7.78,7.78,0,0,1,.82,3.8l0,4c0,.91,0,1.73.06,2.45a7.32,7.32,0,0,0,.17,1.5l2.28.57-.12,1.37h-7.41l-.11-1.37,2.09-.57c0-.2,0-.45.07-.76s.05-.69.06-1.17,0-1.07,0-1.75l0-4.18a5.78,5.78,0,0,0-.51-2.63,3.32,3.32,0,0,0-1.35-1.44,3.73,3.73,0,0,0-1.79-.46A4.49,4.49,0,0,0,691,554a5.21,5.21,0,0,0-1.84,1.79v5.7c0,1.17,0,2.11.05,2.83a11.87,11.87,0,0,0,.14,1.5l2.24.57-.12,1.37Zm21.43,0-.11-1.37,2.16-.57a6.7,6.7,0,0,0,.06-.76q0-.45.06-1.17c0-.49,0-1.07,0-1.75V558a5.44,5.44,0,0,0-.57-2.66,3.66,3.66,0,0,0-1.43-1.44,3.7,3.7,0,0,0-1.73-.46,4.61,4.61,0,0,0-2.41.65,6.17,6.17,0,0,0-2,2l-.72-1.41a9.19,9.19,0,0,1,2.83-2.68,6.31,6.31,0,0,1,3.17-.85,5.55,5.55,0,0,1,2.89.76,5.33,5.33,0,0,1,2.05,2.2,7.39,7.39,0,0,1,.76,3.5v4.29c0,.91,0,1.73.06,2.45a15,15,0,0,0,.13,1.5l2.36.57-.08,1.37Z"/><path class="cls-4" d="M739.67,551l-6.76,16.84h-1.64l-7.94-20.45-1.9-.53.08-1.45h7.41l.11,1.45-1.94.49L733.33,564h-.8l6-16ZM745,567.88l-7.86-20.45-1.9-.53.07-1.45H743l.11,1.45-2.32.49L747,564h-.76l6-16.57-2.69-.53.11-1.45h7l.12,1.45-1.94.53-8.17,20.45Z"/><path class="cls-4" d="M765,568.07a8.45,8.45,0,0,1-4.31-1.07,7.36,7.36,0,0,1-2.87-3,9.09,9.09,0,0,1-1-4.39,8.77,8.77,0,0,1,1.12-4.49,8,8,0,0,1,3-3,8.51,8.51,0,0,1,4.2-1.06,7.85,7.85,0,0,1,4.11,1,7.29,7.29,0,0,1,2.73,2.93,9.26,9.26,0,0,1,1,4.39,9,9,0,0,1-1.06,4.35,8.32,8.32,0,0,1-2.87,3.1A7.43,7.43,0,0,1,765,568.07Zm.38-1.79a3.41,3.41,0,0,0,2.24-.78,5.06,5.06,0,0,0,1.49-2.17,8.89,8.89,0,0,0,.53-3.17,9.4,9.4,0,0,0-1.35-5.3,4.1,4.1,0,0,0-3.56-2,3.86,3.86,0,0,0-3.28,1.69,7.48,7.48,0,0,0-1.24,4.54,9.78,9.78,0,0,0,.67,3.76,6,6,0,0,0,1.84,2.55A4.22,4.22,0,0,0,765.4,566.28Z"/><path class="cls-4" d="M775.81,567.76l-.11-1.37,2.36-.57a6.61,6.61,0,0,0,.07-.66c0-.32,0-.76.06-1.33s0-1.26,0-2.07l0-3c0-.83,0-1.66-.1-2.49s-.13-1.46-.21-1.92l-2.43-.53V552.6l5.09-1.41.53.53-.15,3.2.12,0a8,8,0,0,1,2.3-3,4,4,0,0,1,2.22-.78,2.28,2.28,0,0,1,1.46.46,1.53,1.53,0,0,1,.59,1.29,1.65,1.65,0,0,1-.63,1.37,2.43,2.43,0,0,1-1.57.49,3,3,0,0,1-1.31-.3,4.67,4.67,0,0,1-1.2-.84l.68.23a5.93,5.93,0,0,0-1.33,1.29,11.47,11.47,0,0,0-1.21,2l0,3.53c0,.63,0,1.29.08,2s0,1.29.08,1.86.05,1,.07,1.27l3.31.5-.08,1.44Z"/><path class="cls-4" d="M789.19,567.76l-.07-1.4,2.46-.54a7.25,7.25,0,0,0,.1-1.27c0-.57,0-1.34.06-2.3s0-2.14,0-3.53V554c0-.94,0-1.92,0-2.93s0-2,0-2.89,0-1.69-.06-2.34,0-1.07,0-1.27l-2.81-.38-.07-1.21,5.43-1.56.72.53c0,1.09,0,2.16-.07,3.21s-.05,2.22-.06,3.52,0,2.85,0,4.67l0,6.12q0,2.23.06,4c0,1.2.08,2,.13,2.33l2.47.54-.07,1.4Z"/><path class="cls-4" d="M812.91,568.18l-.58-.49,0-2.47-.11,0a7,7,0,0,1-2.32,2.24,5.37,5.37,0,0,1-2.55.65,7.41,7.41,0,0,1-3.87-1,7.33,7.33,0,0,1-2.68-2.79,8.33,8.33,0,0,1-1-4.09,9.81,9.81,0,0,1,.68-3.69,8.73,8.73,0,0,1,1.88-2.86,8.59,8.59,0,0,1,2.72-1.85,8,8,0,0,1,3.16-.64,9.61,9.61,0,0,1,2.14.26,5,5,0,0,1,1.88.84c0-.46,0-1.05,0-1.79s0-1.5,0-2.3,0-1.5,0-2.13,0-1-.06-1.27l-3-.53-.08-1.25,5.59-1.56.68.53c0,1.57-.09,3.09-.11,4.56s0,3,0,4.6l0,8.74c0,1.29,0,2.4.1,3.32s.11,1.58.13,2l2.43.61V567Zm-4.57-2.66a4.56,4.56,0,0,0,2-.48,6,6,0,0,0,2-1.69v-8.17a4.15,4.15,0,0,0-1.82-1.82,4.94,4.94,0,0,0-2.2-.53,4.47,4.47,0,0,0-3.75,1.76,7.35,7.35,0,0,0-1.35,4.58,6.77,6.77,0,0,0,1.5,4.7A4.76,4.76,0,0,0,808.34,565.52Z"/></svg>