<?xml version="1.0" encoding="UTF-8"?><svg id="Layer_1" xmlns="http://www.w3.org/2000/svg" xmlns:xlink="http://www.w3.org/1999/xlink" viewBox="0 0 1200 750"><defs><style>.cls-1{fill:none;}.cls-2{clip-path:url(#clippath);}.cls-3{fill:#fff;}.cls-4{fill:#232c38;}</style><clipPath id="clippath"><rect class="cls-1" y="-.5" width="1200" height="750"/></clipPath></defs><rect y="-.5" width="1200" height="750"/><g class="cls-2"><g><path class="cls-4" d="M454.37,321.73c-.01-10.05-8.19-18.22-18.24-18.22h-.02l-24.23,.02c-4.87,0-9.45,1.9-12.89,5.35-3.44,3.45-5.34,8.03-5.33,12.9l.06,65.57-59.08-76.65c-3.43-4.45-8.83-7.1-14.44-7.1h-.02l-27.53,.02c-4.87,0-9.45,1.91-12.89,5.35-3.44,3.45-5.34,8.03-5.33,12.9l.12,148.54c.01,10.05,8.19,18.22,18.24,18.22h.02l24.49-.02c10.06,0,18.24-8.2,18.23-18.26l-.06-65.09,58.83,76.17c3.43,4.44,8.83,7.09,14.44,7.09h.01l27.53-.02c4.87,0,9.45-1.9,12.89-5.35,3.44-3.45,5.34-8.03,5.33-12.9l-.12-148.54Z"/><g><rect class="cls-4" x="329.37" y="701.97" width="68.74" height="105.14" rx="9.25" ry="9.25"/><rect class="cls-4" x="330.72" y="-88.54" width="68.74" height="105.13" rx="9.25" ry="9.25"/></g><g><path class="cls-4" d="M54.27,591.78h86.63c5.1,0,9.25,4.14,9.25,9.25v50.24c0,5.1-4.14,9.25-9.25,9.25H54.27c-5.1,0-9.25-4.14-9.25-9.25v-50.24c0-5.1,4.14-9.25,9.25-9.25Z" transform="translate(-414.51 252.85) rotate(-45.05)"/><path class="cls-4" d="M614.19,33.76h86.64c5.1,0,9.25,4.14,9.25,9.25v50.24c0,5.1-4.14,9.25-9.25,9.25h-86.64c-5.1,0-9.25-4.14-9.25-9.25V43.01c0-5.1,4.14-9.25,9.25-9.25Z" transform="translate(144.75 485.3) rotate(-45.05)"/></g><g><path class="cls-4" d="M612.65,573.13h50.24c5.1,0,9.25,4.14,9.25,9.25v86.63c0,5.1-4.14,9.25-9.25,9.25h-50.24c-5.1,0-9.25-4.14-9.25-9.25v-86.63c0-5.1,4.14-9.25,9.25-9.25Z" transform="translate(-255.63 634.97) rotate(-45.05)"/><path class="cls-4" d="M51.77,16.06h50.24c5.1,0,9.25,4.14,9.25,9.25V111.94c0,5.1-4.14,9.25-9.25,9.25H51.77c-5.1,0-9.25-4.14-9.25-9.25V25.31c0-5.1,4.14-9.25,9.25-9.25Z" transform="translate(-26 74.56) rotate(-45.05)"/></g><g><rect class="cls-4" x="-86.18" y="316.15" width="105.13" height="68.74" rx="9.25" ry="9.25"/><rect class="cls-4" x="704.33" y="317.5" width="105.13" height="68.74" rx="9.25" ry="9.25"/></g><path class="cls-4" d="M668.74,294.31c-5.16-22.98-17.55-64.3-45.41-105.51-38.13-56.39-112.97-123.56-253.13-123.57h-.38c-139.76,.12-217.59,66.97-258.26,123.02-29.9,41.21-44.27,82.53-50.5,105.31-2.75,10.07,2.27,20.62,11.86,24.73l31.71,13.6c2.68,1.15,5.5,1.66,8.3,1.66-3.74,17.58-5.68,35.66-5.67,54.06,.12,141.73,115.46,256.96,257.17,256.95h.22c68.69-.06,133.25-26.86,181.79-75.48,48.53-48.61,75.23-113.22,75.17-181.91-.02-19.03-2.15-37.72-6.17-55.85,2.44,.04,4.91-.3,7.3-1.15l32.65-11.6c9.96-3.54,15.66-13.94,13.34-24.25ZM369.87,133.97h.31c93.82,0,150.36,36.58,184.23,77.37-45-20.04-105.28-35.61-184.01-35.61h-.51c-80.31,.07-142.91,16.27-190,36.79,36.24-41.34,95.17-78.47,189.98-78.55Zm127.92,386.55c-35.56,35.62-82.86,55.26-133.2,55.31h-.16c-103.82,0-188.34-84.43-188.43-188.27-.04-42.43,13.9-82.69,39.57-115.64,38.34-15.38,89.1-27.38,154.38-27.44h.46c58.36,0,103.96,9.59,138.96,22.51,28.12,33.72,43.46,75.8,43.5,120.25,.04,50.33-19.52,97.67-55.08,133.29Z"/></g></g><g><g><path class="cls-3" d="M525.87,233.48c-1.16-1.52-2.58-2.64-4.23-3.31-1.65-.67-3.42-.86-5.23-.57-1.81,.29-3.54,1.05-5.14,2.27-1.6,1.21-2.81,2.67-3.58,4.33-.78,1.67-1.07,3.41-.87,5.18,.2,1.77,.89,3.45,2.06,4.99,1.17,1.54,2.6,2.66,4.27,3.35,1.18,.48,2.41,.73,3.68,.73,.52,0,1.05-.04,1.58-.12,1.82-.28,3.55-1.04,5.15-2.26,1.6-1.21,2.8-2.68,3.56-4.35,.76-1.68,1.05-3.44,.84-5.23-.21-1.79-.91-3.47-2.07-5.01Zm-4.93,8.29c-.19,.58-.52,1.04-1.01,1.4-.49,.37-1.03,.57-1.67,.61-.64,.04-1.29-.09-1.92-.39-.63-.3-1.19-.77-1.67-1.39-.47-.62-.77-1.28-.88-1.97-.11-.68-.06-1.33,.15-1.93h0c.21-.6,.55-1.07,1.04-1.44,.49-.37,1.02-.57,1.62-.6,.07,0,.13,0,.2,0,.54,0,1.08,.14,1.62,.42,.62,.32,1.17,.8,1.65,1.42,.47,.63,.79,1.29,.93,1.98,.14,.67,.11,1.31-.08,1.89Z"/><path class="cls-3" d="M542.05,216.19c-.46-.28-1.03-.31-1.51-.09l-3.44,1.57c-.65,.3-1.03,.97-.94,1.68l1.03,8.22c.04,.35-.16,.57-.37,.67s-.52,.1-.75-.16l-5.55-6.17c-.48-.53-1.23-.69-1.88-.39l-3.71,1.69c-.49,.22-.83,.67-.93,1.2s.08,1.07,.46,1.44l12.35,12.23c.31,.31,.73,.47,1.15,.47,.23,0,.46-.05,.67-.15l4.35-1.98c.61-.28,.99-.91,.95-1.58l-1.09-17.37c-.03-.53-.33-1.02-.79-1.29Z"/><path class="cls-3" d="M566.9,224.52c-.11-.42-.39-.77-.76-.98-.38-.21-.82-.27-1.23-.16l-7.24,1.98c-.34,.1-.7-.11-.8-.48-.05-.17-.02-.34,.06-.49,.09-.15,.22-.26,.39-.3l6.17-1.69c.42-.11,.77-.39,.98-.76,.22-.38,.27-.82,.16-1.24l-.63-2.29c-.11-.42-.39-.77-.76-.98-.38-.21-.82-.27-1.24-.16l-6.17,1.69c-.17,.04-.34,.02-.49-.06-.15-.09-.26-.22-.3-.39-.05-.17-.02-.34,.06-.49s.22-.26,.39-.3l7.01-1.92c.42-.11,.77-.39,.98-.76,.22-.38,.27-.82,.16-1.24l-.63-2.29c-.24-.87-1.14-1.37-2-1.14l-12.92,3.54h0c-.86,.24-1.38,1.13-1.14,2l4.3,15.68c.2,.72,.86,1.2,1.57,1.2,.14,0,.29-.02,.43-.06l13.15-3.61c.86-.24,1.38-1.13,1.14-2l-.63-2.29Z"/><path class="cls-3" d="M587.75,207.53c-.06-.43-.28-.81-.62-1.08-.34-.26-.77-.38-1.2-.33l-3.25,.42c-.43,.06-.81,.28-1.08,.62-.27,.34-.38,.77-.33,1.2l.65,5c.06,.43-.26,.61-.35,.66-.1,.05-.44,.18-.74-.12l-5.73-5.74c-.36-.36-.86-.53-1.36-.46l-3.4,.44c-.43,.06-.82,.28-1.08,.62-.27,.34-.38,.77-.32,1.2l2.09,16.12c.11,.82,.81,1.42,1.61,1.42,.07,0,.14,0,.21-.01l3.28-.42c.89-.12,1.52-.93,1.4-1.82l-.64-4.95c-.06-.43,.26-.62,.36-.66,.1-.05,.44-.18,.74,.12l5.7,5.69c.35,.35,.86,.53,1.36,.46l3.4-.44c.89-.11,1.52-.93,1.4-1.82l-2.09-16.12Z"/><path class="cls-3" d="M616.64,206.15l-12.62-.64c-.87-.04-1.66,.65-1.71,1.54l-.83,16.23c-.02,.43,.13,.85,.42,1.17s.69,.51,1.12,.53l3.85,.2s.06,0,.09,0c.4,0,.79-.15,1.09-.42,.32-.29,.51-.69,.53-1.13l.19-3.75c0-.17,.08-.33,.21-.45,.13-.12,.28-.19,.47-.17l5.94,.3c.43,.02,.85-.13,1.17-.42,.32-.29,.51-.69,.53-1.12l.12-2.38c.02-.43-.13-.85-.42-1.17-.29-.32-.69-.51-1.12-.53l-5.94-.3c-.36-.02-.63-.32-.61-.68l.05-.92c0-.17,.08-.33,.21-.45,.13-.12,.29-.18,.47-.17l6.49,.33c.89,.05,1.66-.65,1.71-1.54l.12-2.38c.02-.43-.13-.85-.42-1.17-.29-.32-.69-.51-1.12-.53Z"/><path class="cls-3" d="M628.63,207.87l-3.81-.61c-.43-.07-.86,.03-1.21,.29-.35,.25-.58,.63-.65,1.06l-2.55,16.05c-.07,.43,.04,.86,.29,1.21,.26,.35,.63,.58,1.06,.65l3.81,.61c.09,.01,.17,.02,.26,.02,.34,0,.67-.11,.95-.31,.35-.25,.58-.63,.65-1.06l2.55-16.05c.14-.89-.47-1.72-1.35-1.86Z"/><path class="cls-3" d="M650.73,215.16c-1.07-1.58-2.89-2.74-5.42-3.46l-7.53-2.14c-.42-.12-.86-.07-1.24,.14-.38,.21-.65,.56-.77,.98l-4.44,15.64c-.24,.86,.26,1.76,1.12,2.01l3.71,1.05c.86,.24,1.76-.26,2.01-1.12l.69-2.44c.05-.17,.16-.3,.31-.39,.15-.08,.33-.1,.49-.06l.42,.12c.24,.07,.42,.27,.46,.52l.6,3.8c.1,.62,.55,1.14,1.16,1.31l4.02,1.14c.15,.04,.3,.06,.45,.06,.42,0,.82-.16,1.14-.47,.42-.42,.58-1.01,.42-1.59l-1.05-3.85c-.09-.31,.07-.62,.38-.77,.74-.34,1.41-.83,1.98-1.45,.8-.87,1.41-2,1.79-3.36,.62-2.17,.38-4.08-.71-5.69Zm-5.88,4.01c-.16,.56-.41,.94-.76,1.16-.34,.21-.75,.24-1.26,.09l-1.63-.46c-.34-.1-.54-.46-.45-.8l.59-2.06c.1-.34,.46-.54,.8-.44l1.63,.46c.51,.15,.85,.38,1.03,.72,.18,.35,.2,.78,.05,1.32Z"/><path class="cls-3" d="M670.05,229.6c-.14-.41-.44-.74-.83-.93l-5.77-2.76c-.32-.15-.46-.54-.3-.86,.07-.16,.21-.27,.37-.33,.16-.06,.34-.05,.49,.03l6.56,3.14c.39,.19,.83,.21,1.24,.07,.41-.14,.74-.44,.93-.83l1.03-2.15c.19-.39,.21-.83,.07-1.24-.14-.41-.44-.74-.83-.93l-12.09-5.79c-.39-.19-.84-.21-1.24-.07-.41,.14-.74,.44-.93,.83l-7.02,14.66c-.19,.39-.21,.83-.07,1.24,.14,.41,.44,.74,.83,.93l12.3,5.89c.23,.11,.46,.16,.7,.16,.61,0,1.19-.34,1.47-.92l1.03-2.15c.19-.39,.21-.83,.07-1.24s-.44-.74-.83-.93l-6.77-3.24c-.32-.15-.46-.54-.29-.89,.15-.32,.54-.46,.86-.3l5.77,2.76c.39,.19,.83,.21,1.24,.07,.41-.14,.74-.44,.93-.83l1.03-2.15c.19-.39,.21-.83,.07-1.24Z"/><path class="cls-3" d="M691.41,236.87c-.77-1.59-2-3.04-3.66-4.32l-5.65-4.35c-.34-.26-.77-.38-1.2-.32-.43,.06-.81,.28-1.08,.62l-9.92,12.88c-.55,.71-.41,1.73,.3,2.28l5.47,4.21c1.69,1.3,3.44,2.14,5.21,2.5,.66,.13,1.31,.2,1.94,.2,1.09,0,2.15-.2,3.16-.59,1.6-.62,3.01-1.71,4.2-3.26,1.18-1.53,1.88-3.16,2.09-4.86,.21-1.7-.08-3.38-.85-4.98Zm-5.94,2.52c.05,.96-.31,1.96-1.07,2.94-.76,.98-1.59,1.58-2.49,1.79-.87,.2-1.67,.02-2.43-.57l-.92-.71c-.14-.11-.22-.26-.25-.43s.02-.34,.13-.48l4.11-5.34c.1-.14,.26-.22,.43-.25,.03,0,.06,0,.09,0,.14,0,.28,.05,.39,.13l.69,.53c.84,.65,1.27,1.42,1.32,2.37Z"/></g><g><path class="cls-3" d="M317.26,349.51h-7.45c-.67,0-1.3,.27-1.77,.74-.47,.47-.73,1.1-.73,1.77v11.99c0,.35-.25,.48-.36,.51-.11,.04-.39,.09-.61-.18l-10.66-13.84c-.47-.61-1.21-.97-1.98-.97h-7.42c-.67,0-1.3,.27-1.77,.74-.47,.47-.73,1.1-.73,1.77l.03,31.98c0,.67,.26,1.3,.73,1.77,.47,.47,1.1,.73,1.77,.73h7.5c1.38,0,2.5-1.13,2.5-2.51v-11.89c-.01-.35,.25-.48,.36-.51s.39-.09,.61,.18l10.62,13.74c.48,.62,1.2,.97,1.98,.97h7.42c.67,0,1.3-.27,1.77-.74,.47-.47,.73-1.1,.73-1.77l-.03-31.98c0-1.38-1.12-2.5-2.51-2.5Z"/><path class="cls-3" d="M340.62,350.23c-.47-.47-1.1-.73-1.77-.73h-8.55c-.67,0-1.3,.27-1.77,.74-.47,.47-.73,1.1-.73,1.77l.03,31.98c0,1.38,1.13,2.5,2.51,2.5h8.55c.67,0,1.3-.27,1.77-.74,.47-.47,.73-1.1,.73-1.77l-.03-31.98c0-.67-.26-1.3-.73-1.77Z"/><path class="cls-3" d="M383.21,366.78c-.47-.47-1.06-.74-1.77-.73h-6.9c-.67,0-1.3,.27-1.77,.74-.47,.47-.73,1.1-.73,1.77v5.85c0,.23-.14,.43-.36,.52-1.26,.48-2.35,.73-3.25,.73h-.01c-1.32,0-2.47-.32-3.52-.97-1.06-.66-1.87-1.55-2.48-2.72-.61-1.17-.92-2.52-.92-4.02,0-1.47,.3-2.8,.89-3.95,.58-1.13,1.4-2.04,2.44-2.69,1.05-.66,2.19-.98,3.48-.98h0c1.29,0,2.68,.32,4.13,.94,1.01,.44,1.94,.98,2.77,1.63,1.1,.86,2.64,.7,3.51-.36l4.56-5.55c.43-.53,.64-1.22,.55-1.9-.08-.69-.44-1.29-.99-1.71-1.69-1.25-3.69-2.3-5.93-3.12-2.84-1.03-5.71-1.54-8.56-1.55-3.91,0-7.47,.83-10.6,2.47-3.14,1.65-5.64,3.96-7.42,6.89-1.78,2.93-2.69,6.25-2.69,9.88,0,3.66,.88,7,2.59,9.92,1.72,2.92,4.12,5.24,7.15,6.9,3.01,1.65,6.45,2.49,10.22,2.49h.02c2.58,0,5.39-.46,8.35-1.35,2.62-.79,4.91-1.78,6.8-2.96,.72-.45,1.16-1.26,1.16-2.12v-12.28c-.01-.67-.27-1.3-.75-1.77Z"/><path class="cls-3" d="M426.52,350.15c-.47-.47-1.1-.73-1.77-.73h-8.55c-.67,0-1.3,.27-1.77,.74-.47,.47-.73,1.1-.73,1.77v10.54c0,.15-.05,.28-.15,.38-.1,.1-.24,.16-.38,.16h-7.8c-.3,0-.54-.24-.54-.54v-10.54c-.01-1.38-1.13-2.5-2.52-2.5h-8.55c-.67,0-1.3,.27-1.77,.74-.47,.47-.73,1.1-.73,1.77l.03,31.98c0,1.38,1.13,2.5,2.51,2.5h8.55c.67,0,1.3-.27,1.77-.74,.47-.47,.73-1.1,.73-1.77v-9.59c0-.3,.23-.54,.53-.54h7.8c.3,0,.54,.24,.54,.54v9.59c0,.67,.27,1.3,.74,1.77,.47,.47,1.1,.73,1.77,.73h8.55c.67,0,1.3-.27,1.77-.74,.47-.47,.73-1.1,.73-1.77l-.03-31.98c0-.67-.26-1.3-.73-1.77Z"/><path class="cls-3" d="M466.54,351.89c0-1.38-1.13-2.5-2.51-2.5h0l-28.49,.02c-1.38,0-2.5,1.13-2.5,2.51v6.1c0,.67,.27,1.3,.74,1.77,.47,.47,1.1,.73,1.77,.73h6.9c.3,0,.54,.24,.54,.54l.02,22.84c0,.67,.26,1.3,.73,1.77,.47,.47,1.1,.73,1.77,.73h8.55c.67,0,1.3-.27,1.77-.74,.47-.47,.73-1.1,.73-1.77l-.02-22.84c0-.3,.24-.54,.54-.54h6.95c1.38,0,2.5-1.13,2.5-2.51v-6.1Z"/></g><g><path class="cls-3" d="M767.98,349.78c-.41-.41-.96-.64-1.54-.64h0l-29.14,.02c-.58,0-1.13,.23-1.54,.64-.41,.41-.64,.96-.64,1.54v6.76c0,1.2,.98,2.17,2.18,2.17h7.56c.07,0,.12,.03,.15,.06,.03,.03,.06,.08,.06,.15l.02,23.5c0,.58,.23,1.13,.64,1.54,.41,.41,.96,.64,1.54,.64h9.21c1.2,0,2.17-.99,2.17-2.19l-.02-23.5c0-.07,.03-.12,.06-.15,.03-.03,.08-.06,.15-.06h7.6c1.2,0,2.18-.99,2.17-2.18v-6.75c0-.58-.23-1.13-.64-1.54Z"/><path class="cls-3" d="M803.16,374.18c-.06-.09-.03-.21,.05-.27,1.49-1.11,2.67-2.53,3.52-4.22,1.01-2.01,1.53-4.39,1.52-7.07,0-4.28-1.44-7.65-4.26-10.02-2.77-2.32-6.69-3.49-11.65-3.49h-15.77c-1.2,.01-2.17,.99-2.17,2.19l.03,32.64c0,1.2,.98,2.17,2.18,2.17h9.21c1.2,0,2.18-.99,2.17-2.19v-6.7c0-.12,.09-.21,.21-.21h2.39c.08,0,.16,.05,.19,.12l3.56,7.7h0c.36,.77,1.13,1.26,1.97,1.26h10.21c.8,0,1.5-.42,1.89-1.12,.39-.69,.38-1.51-.04-2.19l-5.22-8.61Zm-7.86-11.2c0,1.07-.26,1.9-.77,2.46-.49,.54-1.21,.81-2.2,.81h-4.15c-.12,0-.21-.09-.21-.21v-5.96c0-.07,.03-.12,.06-.15,.03-.03,.08-.06,.15-.06h4.15c.99,0,1.72,.25,2.21,.76,.51,.53,.75,1.3,.75,2.35Z"/><path class="cls-3" d="M840.51,350.43c-.34-.82-1.13-1.35-2.01-1.35h-10.3c-.88,.01-1.66,.53-2,1.34l-13.76,32.65c-.28,.67-.21,1.44,.19,2.05,.4,.61,1.08,.97,1.81,.97h9.26c.91,0,1.73-.58,2.04-1.44l1.22-3.38c.03-.08,.11-.14,.2-.14h11.46c.09,0,.17,.05,.2,.13l1.19,3.35c.31,.87,1.13,1.45,2.05,1.45h9.72c.73,0,1.4-.37,1.8-.97,.4-.6,.48-1.36,.21-2.03l-13.3-32.63Zm-5.4,20.35s-.08,.09-.17,.09h-3.91c-.09,0-.15-.05-.17-.09-.03-.04-.06-.11-.03-.2l1.98-5.49s.05-.14,.2-.14h0c.15,0,.19,.11,.2,.14l1.93,5.49c.03,.09,0,.15-.03,.19Z"/><path class="cls-3" d="M870.48,349.69c-.41-.41-.96-.64-1.54-.64h-9.21c-.58,0-1.13,.23-1.54,.65-.41,.41-.64,.96-.64,1.54l.03,32.64c0,.58,.23,1.13,.64,1.54,.41,.41,.96,.64,1.54,.64h9.21c.58,0,1.13-.24,1.54-.65,.41-.41,.64-.96,.64-1.54l-.03-32.64c0-.58-.23-1.13-.64-1.54Z"/><path class="cls-3" d="M915.14,351.19c0-.58-.23-1.13-.64-1.54-.41-.41-.96-.64-1.53-.64h-8.11c-.58,0-1.13,.23-1.54,.65-.41,.41-.64,.96-.64,1.54v13.28s.01,.15-.13,.2c-.14,.05-.22-.04-.24-.07l-11.36-14.73c-.41-.53-1.05-.85-1.72-.85h-7.92c-1.2,0-2.17,.98-2.17,2.18l.03,32.64c0,1.2,.98,2.17,2.18,2.17h8.16c1.2,0,2.17-.98,2.17-2.18v-13.19s-.01-.15,.13-.2c.14-.05,.21,.04,.24,.07l11.3,14.64c.41,.53,1.05,.84,1.72,.84h7.92c1.2,0,2.17-.98,2.17-2.18l-.03-32.64Z"/></g><g><path class="cls-3" d="M623.39,357.21c0-2.5-2.04-4.53-4.53-4.53h-6.03c-1.21,0-2.35,.48-3.2,1.34-.86,.86-1.33,2-1.32,3.21v16.3l-14.67-19.05c-.85-1.11-2.19-1.77-3.59-1.77h-6.85c-1.21,0-2.35,.48-3.2,1.34-.86,.86-1.33,2-1.32,3.21l.03,36.91c0,2.5,2.04,4.53,4.53,4.53h6.09c2.5,0,4.53-2.04,4.53-4.54v-16.17l14.61,18.93c.85,1.1,2.19,1.76,3.59,1.76h6.85c1.21,0,2.35-.48,3.2-1.34,.86-.86,1.33-2,1.32-3.21l-.03-36.91Z"/><g><rect class="cls-3" x="592.33" y="451.7" width="17.08" height="26.13" rx="2.3" ry="2.3"/><rect class="cls-3" x="592.66" y="255.25" width="17.08" height="26.13" rx="2.3" ry="2.3"/></g><g><rect class="cls-3" x="521.66" y="424.32" width="26.13" height="17.08" rx="2.3" ry="2.3" transform="translate(-149.4 505.5) rotate(-45.05)"/><rect class="cls-3" x="660.81" y="285.64" width="26.13" height="17.08" rx="2.3" ry="2.3" transform="translate(-10.42 563.22) rotate(-45.05)"/></g><g><rect class="cls-3" x="660.43" y="419.68" width="17.08" height="26.13" rx="2.3" ry="2.3" transform="translate(-109.92 600.42) rotate(-45.05)"/><rect class="cls-3" x="521.04" y="281.24" width="17.08" height="26.13" rx="2.3" ry="2.3" transform="translate(-52.85 461.18) rotate(-45.05)"/></g><g><rect class="cls-3" x="489.06" y="355.82" width="26.13" height="17.08" rx="2.3" ry="2.3"/><rect class="cls-3" x="685.51" y="356.15" width="26.13" height="17.08" rx="2.3" ry="2.3"/></g><path class="cls-3" d="M676.67,350.39c-1.28-5.71-4.36-15.98-11.29-26.22-9.47-14.01-28.08-30.71-62.91-30.71h-.09c-34.73,.03-54.07,16.64-64.18,30.57-7.43,10.24-11,20.51-12.55,26.17-.68,2.5,.56,5.12,2.95,6.15l7.88,3.38c.67,.29,1.37,.41,2.06,.41-.93,4.37-1.41,8.86-1.41,13.43,.03,35.22,28.69,63.86,63.91,63.86h.05c17.07-.01,33.12-6.68,45.18-18.76,12.06-12.08,18.7-28.14,18.68-45.21,0-4.73-.53-9.37-1.53-13.88,.61,0,1.22-.08,1.81-.29l8.11-2.88c2.47-.88,3.89-3.47,3.32-6.03Zm-74.27-39.85h.08c23.31,0,37.37,9.09,45.79,19.23-11.18-4.98-26.16-8.85-45.73-8.85h-.13c-19.96,.02-35.52,4.04-47.22,9.14,9.01-10.27,23.65-19.5,47.21-19.52Zm31.79,96.06c-8.84,8.85-20.59,13.73-33.1,13.74h-.04c-25.8,0-46.81-20.98-46.83-46.79,0-10.54,3.46-20.55,9.83-28.74,9.53-3.82,22.14-6.81,38.37-6.82h.11c14.5,0,25.83,2.38,34.53,5.6,6.99,8.38,10.8,18.84,10.81,29.88,.01,12.51-4.85,24.27-13.69,33.12Z"/></g><g><path class="cls-3" d="M546.69,507.11c2.86-3.58,3.96-7.32,3.27-11.12h0c-.68-3.74-3.06-7.26-7.08-10.47l-13.11-10.46c-.4-.32-.9-.47-1.42-.41-.51,.06-.97,.31-1.29,.71l-22.36,28.04c-.32,.4-.47,.9-.41,1.41s.31,.97,.71,1.29l8.3,6.62c.83,.66,2.04,.52,2.7-.31l4.88-6.18,3.35,2.67c3.67,2.93,7.34,4.4,10.93,4.4,.35,0,.7-.01,1.05-.04,3.95-.32,7.47-2.4,10.48-6.16Zm-10.07-10.85c.07,.81-.24,1.64-.96,2.54-.74,.93-1.51,1.45-2.35,1.59-.8,.13-1.6-.14-2.45-.82l-2.84-2.21,4.38-5.55,2.84,2.27c.86,.68,1.31,1.4,1.38,2.19Z"/><path class="cls-3" d="M568.84,501.04l-9.84-3.97c-.48-.19-1-.19-1.47,.01-.47,.2-.84,.57-1.03,1.05l-13.43,33.26c-.19,.48-.19,1,.01,1.47,.2,.47,.57,.84,1.05,1.03l9.84,3.97c.23,.09,.48,.14,.72,.14s.51-.05,.75-.15c.47-.2,.84-.57,1.03-1.05l13.43-33.26c.4-.98-.08-2.11-1.06-2.5Z"/><path class="cls-3" d="M609.86,533.27c-.36-.36-.84-.55-1.35-.55h-.01l-14.95,.17,15.9-18.65c.3-.35,.46-.8,.46-1.26l-.05-6.52c0-1.05-.87-1.91-1.92-1.91h-.01l-31.72,.22c-.51,0-.99,.21-1.36,.57-.36,.37-.56,.85-.55,1.37l.05,7.7c0,1.06,.89,1.87,1.94,1.91l13.93-.16-15.9,18.65c-.3,.35-.46,.8-.46,1.26l.04,6.52c0,1.05,.87,1.91,1.93,1.91h.01l32.74-.23c1.06,0,1.92-.88,1.91-1.94l-.05-7.7c0-.51-.21-1-.57-1.36Z"/><path class="cls-3" d="M656.13,523.32c-.16-.49-.49-.89-.95-1.12-.46-.24-.98-.28-1.47-.12l-14.23,4.61,9.63-22.53c.18-.42,.21-.9,.06-1.34l-1.98-6.2c-.16-.49-.49-.89-.95-1.12-.46-.24-.98-.28-1.47-.12l-30.21,9.65c-1.01,.32-1.57,1.41-1.25,2.42l2.34,7.34c.32,1.01,1.41,1.57,2.42,1.24l13.25-4.3-9.63,22.53c-.18,.42-.21,.9-.06,1.34l1.98,6.2c.16,.49,.49,.89,.95,1.12,.28,.14,.58,.22,.88,.22,.2,0,.39-.03,.59-.09l31.19-9.97c.49-.16,.89-.49,1.12-.95,.24-.46,.28-.98,.12-1.47l-2.34-7.33Z"/><path class="cls-3" d="M699.51,499.96l-33.6-19.24c-.68-.39-1.52-.33-2.14,.15l-9.1,7.13c-.61,.48-.87,1.27-.67,2.02l10.2,37.57c.17,.62,.64,1.12,1.25,1.32,.2,.07,.4,.1,.61,.1,.42,0,.84-.14,1.18-.41l8.45-6.62c.63-.5,.89-1.35,.64-2.11l-1.37-4.1,10.06-7.91,3.65,2.32h0c.69,.43,1.58,.39,2.22-.11l8.85-6.93c.5-.39,.78-1.01,.73-1.65-.05-.64-.41-1.21-.96-1.53Zm-24.1,1.62l-4.04,3.17-2.46-7.26,6.51,4.1Z"/></g><g><path class="cls-3" d="M504.76,478.88c-.05-.77-.41-1.47-1-1.98-19.94-16.94-28.66-35.15-36.27-59.04l-1.14-3.58c-.37-1.17-1.45-1.96-2.68-1.96l-178.89,.13c-.75,0-1.46,.29-1.99,.83s-.82,1.24-.82,1.99v10.27c0,1.55,1.27,2.81,2.82,2.81l168.3-.13c.68,0,1.28,.43,1.51,1.07,9.79,26.97,20.43,42.93,39.27,58.87,1.13,.95,2.92,.82,3.91-.27l6.26-6.96c.51-.57,.77-1.3,.71-2.06Z"/><path class="cls-3" d="M745.41,429.04c.23-.63,.83-1.05,1.49-1.05l168.34-.13c1.54,0,2.79-1.26,2.79-2.79v-10.32c0-1.54-1.26-2.79-2.8-2.79h0l-178.92,.14c-1.22,0-2.29,.79-2.66,1.95l-1.14,3.6c-8.85,27.95-19.53,44.8-38.07,60.08-.64,.53-1.01,1.31-1,2.14,0,.84,.38,1.63,1.03,2.16l7.74,6.34c1.02,.83,2.65,.8,3.63-.08,18.24-16.35,30.81-35.18,39.58-59.25Z"/><path class="cls-3" d="M918.02,312.8c0-1.95-1.59-3.54-3.54-3.54l-167.05,.13c-.98,0-1.87-.62-2.2-1.55-9.66-26.47-20.1-42.16-38.52-57.9-1.48-1.27-3.66-1.13-4.95,.31l-5.29,5.88c-.64,.71-.96,1.63-.9,2.59,.06,.96,.5,1.83,1.22,2.45,19.58,16.82,28.19,34.89,35.74,58.58l.98,3.07c.47,1.48,1.83,2.47,3.38,2.47l177.62-.13c.94,0,1.83-.37,2.5-1.04,.67-.67,1.04-1.56,1.04-2.51v-8.81Z"/><path class="cls-3" d="M454.6,308.54c-.24,.65-.86,1.09-1.55,1.09l-168.23,.13c-.76,0-1.48,.3-2.02,.84s-.84,1.26-.83,2.02v10.19c0,1.57,1.29,2.85,2.86,2.85l178.82-.14c1.25,0,2.34-.8,2.72-1.99l1.12-3.55c8.84-27.93,19.5-44.76,38.01-60.04,.66-.54,1.03-1.34,1.03-2.19,0-.86-.38-1.66-1.05-2.21l-7.65-6.26c-.52-.43-1.17-.64-1.81-.64-.68,0-1.37,.24-1.9,.72-18.21,16.33-30.77,35.13-39.53,59.18Z"/></g></g></svg>