<svg id="Layer_1" data-name="Layer 1" xmlns="http://www.w3.org/2000/svg" viewBox="0 0 386 2966"><defs><style>.cls-1{fill:#fff;}.cls-2{fill:#161617;}.cls-3,.cls-4{fill:none;}.cls-3{stroke:#000;stroke-miterlimit:10;stroke-width:1.05px;}</style></defs><polygon class="cls-1" points="324.79 671.41 324.79 694.33 271.29 645.61 271.29 622.7 324.79 671.41"/><polygon class="cls-2" points="324.79 724.25 324.79 699.29 271.29 650.58 271.29 724.25 324.79 724.25"/><polygon class="cls-1" points="62.12 671.41 62.12 694.33 115.62 645.61 115.62 622.7 62.12 671.41"/><polygon class="cls-2" points="115.62 724.25 115.62 650.58 62.12 699.29 62.12 724.25 115.62 724.25"/><path class="cls-2" d="M242.05,724.25c2.22,0,3.06-1.39,2.08-3.2L219,664.85,242.6,616.3c1-1.95.14-3.34-1.94-3.34H226.05a3.3,3.3,0,0,0-3.2,2.08l-21.42,43.83V615.74a2.49,2.49,0,0,0-2.78-2.78H185.29a2.49,2.49,0,0,0-2.78,2.78V721.47a2.5,2.5,0,0,0,2.78,2.78h13.36a2.5,2.5,0,0,0,2.78-2.78V690.72l5.14-9.87,17.54,41.31a3.05,3.05,0,0,0,3.19,2.09Z"/><path class="cls-2" d="M143,653c0,13.08,6.94,20,20,20h18.37c12.93,0,20-7,20-20V614.34a2,2,0,0,0-2.22-2.23H175.77a1.94,1.94,0,0,0-2.23,2.23v13.91a2,2,0,0,0,2.23,2.23H183v18.64c0,3.75-1.95,5.56-5.57,5.56h-10c-3.61,0-5.56-1.81-5.56-5.56V585.69c0-3.63,1.81-5.57,5.56-5.57h10c3.62,0,5.57,1.94,5.57,5.57v10.57a2,2,0,0,0,2.22,2.22h13.92a2,2,0,0,0,2.22-2.22V581.79c0-13.08-7.1-20-20-20H163c-13.08,0-20,7-20,20Z"/><path class="cls-2" d="M74.16,2820.28a7,7,0,0,0-3.93-2.22l1-.44a7.89,7.89,0,0,0,.95-.67,5.42,5.42,0,0,0,2-4.63,6.9,6.9,0,0,0-1.79-4.64,6.66,6.66,0,0,0-2.94-1.74,14.66,14.66,0,0,0-4.65-.65H54.42v26.56H66.05q5.46,0,7.67-2.47a7.12,7.12,0,0,0,1.9-4.9A6.19,6.19,0,0,0,74.16,2820.28Zm-13.81-10H63.2a8.51,8.51,0,0,1,3.72.58,2.34,2.34,0,0,1,1.1,2.33,2.26,2.26,0,0,1-1.19,2.3,9.64,9.64,0,0,1-3.67.53H60.35Zm7.88,15.91a9,9,0,0,1-3.82.62H60.35v-6.11h3.49a11.68,11.68,0,0,1,4.32.58,2.4,2.4,0,0,1,1.34,2.44A2.49,2.49,0,0,1,68.23,2826.21Z"/><path class="cls-2" d="M99.75,2805.29H94l-11.47,26.56h6.3l2.48-5.74h11.13l2.47,5.74h6.3Zm-6.2,15.61,3.35-7.71,3.31,7.71Z"/><path class="cls-2" d="M132.2,2826.6a7.4,7.4,0,0,1-5.44-2.24,8,8,0,0,1-2.24-6,7.61,7.61,0,0,1,2.38-5.88,8.13,8.13,0,0,1,5.72-2.19,8.66,8.66,0,0,1,7,3.5l3.68-4.18a14,14,0,0,0-10.94-5,13.66,13.66,0,0,0-9.9,4,14,14,0,0,0-.07,19.65,14.34,14.34,0,0,0,20.76-1.22l-3.8-3.91a8.75,8.75,0,0,1-7.14,3.45"/><path class="cls-2" d="M153.51,2831.85h5.93v-7.53l2.66-3,7.79,10.49h6.92q-1.83-2.55-5.52-7.74t-5-7.08l10.57-11.75h-7.34l-10,10.91v-10.91h-5.93Z"/><polygon class="cls-2" points="218.41 2816.38 207.85 2816.38 207.85 2805.29 201.92 2805.29 201.92 2831.85 207.85 2831.85 207.85 2821.4 218.41 2821.4 218.41 2831.85 224.34 2831.85 224.34 2805.29 218.41 2805.29 218.41 2816.38"/><path class="cls-2" d="M258.91,2808.61a14.47,14.47,0,0,0-19.83,0,13.89,13.89,0,0,0,0,19.57,14.45,14.45,0,0,0,19.83,0,13.89,13.89,0,0,0,0-19.57Zm-4.29,15.85a7.55,7.55,0,0,1-11.21,0,9.17,9.17,0,0,1,0-12.1,7.51,7.51,0,0,1,11.21,0,9.17,9.17,0,0,1,0,12.1Z"/><polygon class="cls-2" points="297.44 2831.85 303.37 2831.85 303.37 2805.29 295.39 2805.29 288.51 2819.88 281.67 2805.29 273.66 2805.29 273.66 2831.85 279.58 2831.85 279.58 2815.13 286.73 2829.64 290.26 2829.64 297.44 2815.13 297.44 2831.85"/><polygon class="cls-2" points="315.6 2805.29 315.6 2831.85 335.17 2831.85 335.17 2826.6 321.53 2826.6 321.53 2821.1 333.42 2821.1 333.42 2816.04 321.53 2816.04 321.53 2810.57 334.75 2810.57 334.75 2805.29 315.6 2805.29"/><path class="cls-1" d="M33.92,2792.58a22.45,22.45,0,0,0,11.73-1.53c4.83-2.1,8.62-5.94,11.28-11.46H99.27v-7.69H51.8l-1,2.43c-5.72,14.58-18,10.37-19.35,9.85l-5.26-2.08v63.32h7.69Z"/><polygon class="cls-1" points="360.68 2771.91 285.24 2771.91 285.24 2779.59 352.99 2779.59 352.99 2845.43 360.68 2845.43 360.68 2771.91"/><path class="cls-2" d="M194.7,201.5l39.59,35.23a1.45,1.45,0,0,0,1.8.11l59.33-40.78a1.46,1.46,0,0,0,.37-2l-10.25-14.91a1.45,1.45,0,0,0-2-.38l-13.61,9.35a1.46,1.46,0,0,1-2.24-.85,76.23,76.23,0,0,0-73.87-57.79c-35.56,0-65.5,24.52-74.35,58.07a1.45,1.45,0,0,1-2.22.84l-14-9.43a1.46,1.46,0,0,0-2,.4l-10.12,15a1.45,1.45,0,0,0,.39,2l59.91,40.46a1.46,1.46,0,0,0,1.79-.12l39.55-35.19A1.48,1.48,0,0,1,194.7,201.5ZM139,203.05a1.46,1.46,0,0,1-.65-1.35c2.8-28.88,26.57-51.24,55.46-51.24a55.15,55.15,0,0,1,55,51.31,1.48,1.48,0,0,1-.63,1.31l-10.35,7.11a1.46,1.46,0,0,1-1.8-.11L194.7,173.37a1.48,1.48,0,0,0-1.95,0l-41.32,36.76a1.45,1.45,0,0,1-1.79.12Z"/><path class="cls-1" d="M235.83,258.74l-41-36.47a1.65,1.65,0,0,0-2.22,0L151.55,258.8a1.66,1.66,0,0,1-2,.13l-46.07-31.11a1.68,1.68,0,0,0-2.32.45l-9.9,14.65a1.68,1.68,0,0,0,.45,2.32l59.61,40.25a1.67,1.67,0,0,0,2-.13l39.29-35a1.68,1.68,0,0,1,2.22,0l39.34,35a1.66,1.66,0,0,0,2.05.12l59-40.57a1.66,1.66,0,0,0,.44-2.32l-10-14.57a1.67,1.67,0,0,0-2.32-.43l-45.45,31.24A1.67,1.67,0,0,1,235.83,258.74Z"/><path class="cls-1" d="M193.05,1439.79h0A33.23,33.23,0,0,1,226.28,1473v62.12a0,0,0,0,1,0,0H193.05a0,0,0,0,1,0,0v-95.35A0,0,0,0,1,193.05,1439.79Z" transform="translate(1697.12 1277.8) rotate(90)"/><path class="cls-2" d="M212.22,1364.61h0a0,0,0,0,1,0,0v127.24a0,0,0,0,1,0,0h0a37,37,0,0,1-37-37V1401.6A37,37,0,0,1,212.22,1364.61Z" transform="translate(1621.95 1234.51) rotate(90)"/><path class="cls-2" d="M257.34,1558.93h0a37,37,0,0,1-37,37H167.09a37,37,0,0,1-37-37H257.34Z"/><rect class="cls-2" x="130.1" y="1470.85" width="32.61" height="66.45" transform="translate(292.81 3008.14) rotate(-180)"/><path class="cls-2" d="M308.5,2365.08c-5.25,6.06-23.62,18.93-23.62,32.87,0,10.84,10.57,20.54,23.62,20.54s23.63-9.19,23.63-20.54C332.13,2385.79,313.38,2371.55,308.5,2365.08Zm0,35.41c-2.68,0-4.85-2-4.85-4.22,0-2.86,3.74-5.82,4.82-7.06h0c1,1.33,4.87,4.56,4.87,7.06C313.36,2398.6,311.18,2400.49,308.5,2400.49Z"/><path class="cls-1" d="M49.1,2443.09a1,1,0,0,1,.3.73.94.94,0,0,1-.3.71,1,1,0,0,1-.73.29h-8a1.37,1.37,0,0,1-1-.41,1.38,1.38,0,0,1-.41-1V2430.1a1.05,1.05,0,0,1,.29-.73,1,1,0,0,1,.72-.3,1,1,0,0,1,.72.3,1,1,0,0,1,.31.73v12.69h7.33A1,1,0,0,1,49.1,2443.09Z"/><path class="cls-1" d="M66,2443.2a.92.92,0,0,1,.29.68.89.89,0,0,1-.29.68.92.92,0,0,1-.68.26h-9a1,1,0,0,1-1-1v-13.61a1,1,0,0,1,.29-.73.94.94,0,0,1,.71-.3h9a.9.9,0,0,1,.68.28.92.92,0,0,1,.29.68.91.91,0,0,1-.29.68.93.93,0,0,1-.68.27h-8V2436h7.16a.93.93,0,0,1,.68.28,1,1,0,0,1,.28.68.94.94,0,0,1-.28.68,1,1,0,0,1-.68.27H57.31v5h8A.9.9,0,0,1,66,2443.2Z"/><path class="cls-1" d="M85.71,2443.48,80,2430a1.35,1.35,0,0,0-1.3-.92h-.23a1.34,1.34,0,0,0-1.3.92l-5.71,13.49a1.38,1.38,0,0,0-.11.57.86.86,0,0,0,.27.6,1.1,1.1,0,0,0,.85.29.9.9,0,0,0,.85-.63l1.45-3.5H82.4l1.45,3.5a.9.9,0,0,0,.86.63,1.15,1.15,0,0,0,.85-.29.94.94,0,0,0,.26-.6A1.56,1.56,0,0,0,85.71,2443.48ZM75.56,2439l3-7.29,3,7.29Z"/><path class="cls-1" d="M103.84,2443.3a1.09,1.09,0,0,1,.25.7.9.9,0,0,1-.28.66,1,1,0,0,1-.75.28.9.9,0,0,1-.76-.41l-5.78-7.37L94,2439.74v4.19a1,1,0,0,1-.3.72,1,1,0,0,1-.73.29,1,1,0,0,1-1-1V2430.1a1.05,1.05,0,0,1,.29-.73,1,1,0,0,1,.72-.3,1,1,0,0,1,.73.3,1,1,0,0,1,.3.73v7.13l7.67-7.8a.88.88,0,0,1,.72-.36.94.94,0,0,1,.71.26.87.87,0,0,1,.27.67.86.86,0,0,1-.25.66l-5.18,5.16Z"/><path class="cls-1" d="M132.43,2434.19a7,7,0,0,0-1.47-2.5,7.55,7.55,0,0,0-6-2.51h-4.5a1,1,0,0,0-.72.3,1.05,1.05,0,0,0-.29.73v13.61a1,1,0,0,0,.29.71.94.94,0,0,0,.72.29H125a7.54,7.54,0,0,0,6-2.5,7.12,7.12,0,0,0,1.47-2.5,8.33,8.33,0,0,0,0-5.63Zm-3.19,7.09a6.17,6.17,0,0,1-4.48,1.64h-3.23v-11.83h3.23a6.2,6.2,0,0,1,4.48,1.63,6.35,6.35,0,0,1,0,8.56Z"/><path class="cls-1" d="M150.34,2443.2a.92.92,0,0,1,.29.68.89.89,0,0,1-.29.68.92.92,0,0,1-.68.26h-9a1,1,0,0,1-1-1v-13.61a1,1,0,0,1,.3-.73.94.94,0,0,1,.71-.3h9a.9.9,0,0,1,.68.28.92.92,0,0,1,.29.68.91.91,0,0,1-.29.68.93.93,0,0,1-.68.27h-8V2436h7.15a.94.94,0,0,1,.69.28,1,1,0,0,1,.27.68.93.93,0,0,1-.27.68,1,1,0,0,1-.69.27H141.7v5h8A.9.9,0,0,1,150.34,2443.2Z"/><path class="cls-1" d="M168.25,2429.46a.91.91,0,0,1,.28.68.9.9,0,0,1-.28.68.93.93,0,0,1-.68.27H163v12.84a1,1,0,0,1-.3.72,1.06,1.06,0,0,1-.74.29,1,1,0,0,1-.71-.29,1,1,0,0,1-.29-.72v-12.84h-4.57a.93.93,0,0,1-.68-.27,1,1,0,0,1-.26-.68,1,1,0,0,1,.26-.68.9.9,0,0,1,.68-.28h11.16A.9.9,0,0,1,168.25,2429.46Z"/><path class="cls-1" d="M185.07,2443.2a.94.94,0,0,1,.27.68.91.91,0,0,1-.27.68,1,1,0,0,1-.69.26h-9a1,1,0,0,1-1-1v-13.61a1,1,0,0,1,.28-.73,1,1,0,0,1,.72-.3h9a1,1,0,0,1,.69,1.64,1,1,0,0,1-.69.27h-7.95V2436h7.14a.94.94,0,0,1,.69.28,1,1,0,0,1,.28.68.94.94,0,0,1-.28.68,1,1,0,0,1-.69.27h-7.14v5h7.95A.94.94,0,0,1,185.07,2443.2Z"/><path class="cls-1" d="M203.12,2442.05a1.12,1.12,0,0,1,.5-.09.73.73,0,0,1,.57.26.88.88,0,0,1,.23.59.87.87,0,0,1-.49.85,13.92,13.92,0,0,1-2.26,1,9,9,0,0,1-2.87.4,8.49,8.49,0,0,1-3.1-.55,7.15,7.15,0,0,1-2.49-1.6,8.88,8.88,0,0,1,0-11.79,7.61,7.61,0,0,1,5.61-2.15,9,9,0,0,1,2.85.4,12.61,12.61,0,0,1,1.84.75,2.44,2.44,0,0,1,.78.56,1.08,1.08,0,0,1,.13.54.85.85,0,0,1-.23.58.76.76,0,0,1-.57.26,1.12,1.12,0,0,1-.5-.09,10.82,10.82,0,0,0-1.84-.76,8.1,8.1,0,0,0-2.34-.29,6.46,6.46,0,0,0-2.54.47,5.19,5.19,0,0,0-1.89,1.3,7,7,0,0,0,0,8.65,5.83,5.83,0,0,0,4.51,1.77,7.81,7.81,0,0,0,2.26-.29A11.7,11.7,0,0,0,203.12,2442.05Z"/><path class="cls-1" d="M221.82,2429.46a.91.91,0,0,1,.28.68.9.9,0,0,1-.28.68.93.93,0,0,1-.68.27h-4.55v12.84a1,1,0,0,1-.3.72,1,1,0,0,1-.73.29,1,1,0,0,1-1-1v-12.84H210a.9.9,0,0,1-.67-.27.93.93,0,0,1-.27-.68.94.94,0,0,1,.27-.68.88.88,0,0,1,.67-.28h11.16A.9.9,0,0,1,221.82,2429.46Z"/><path class="cls-1" d="M229,2429.07a1,1,0,0,1,.73.3,1,1,0,0,1,.3.73v13.83a1,1,0,0,1-.3.72,1,1,0,0,1-1.74-.72V2430.1a1.05,1.05,0,0,1,.29-.73A1,1,0,0,1,229,2429.07Z"/><path class="cls-1" d="M250.32,2431.22a8.29,8.29,0,0,0-11.38,0,8.77,8.77,0,0,0,0,11.57,8.29,8.29,0,0,0,11.38,0,8.77,8.77,0,0,0,0-11.57Zm-1.38,10.15a6.1,6.1,0,0,1-8.61,0,7,7,0,0,1,0-8.74,6.12,6.12,0,0,1,8.61,0,7,7,0,0,1,0,8.74Z"/><path class="cls-1" d="M271.86,2429.07a1,1,0,0,1,1,1v13.38a1.39,1.39,0,0,1-.44,1,1.44,1.44,0,0,1-1,.43h-.27a1.39,1.39,0,0,1-1.19-.61l-8.68-12.53v12.13a1,1,0,0,1-.3.72,1.05,1.05,0,0,1-1.45,0,1,1,0,0,1-.28-.72v-13.38a1.47,1.47,0,0,1,.42-1.05,1.38,1.38,0,0,1,1-.43H261a1.58,1.58,0,0,1,1.24.67l8.62,12.46v-12.1a1,1,0,0,1,.3-.73A.94.94,0,0,1,271.86,2429.07Z"/><path class="cls-1" d="M290.8,2429.07a1,1,0,0,1,.73.3,1,1,0,0,1,.3.73v13.83a1,1,0,0,1-.3.72,1,1,0,0,1-1.74-.72V2430.1a1.05,1.05,0,0,1,.29-.73A1,1,0,0,1,290.8,2429.07Z"/><path class="cls-1" d="M312.16,2429.07a1,1,0,0,1,.73.3,1,1,0,0,1,.3.73v13.38a1.38,1.38,0,0,1-.43,1,1.42,1.42,0,0,1-1,.43h-.27a1.38,1.38,0,0,1-1.19-.61l-8.68-12.53v12.13a1,1,0,0,1-.3.72,1,1,0,0,1-.72.29,1,1,0,0,1-1-1v-13.38a1.48,1.48,0,0,1,.43-1.05,1.4,1.4,0,0,1,1-.43h.29a1.53,1.53,0,0,1,1.23.67l8.64,12.46v-12.1a1,1,0,0,1,.29-.73A.94.94,0,0,1,312.16,2429.07Z"/><path class="cls-1" d="M332.14,2442.05a1.12,1.12,0,0,1,.5-.09.72.72,0,0,1,.56.26.88.88,0,0,1,.23.59.87.87,0,0,1-.49.85,13.44,13.44,0,0,1-2.25,1,9,9,0,0,1-2.87.4,8.59,8.59,0,0,1-3.11-.55,7.11,7.11,0,0,1-2.48-1.6,8.88,8.88,0,0,1,0-11.79,7.59,7.59,0,0,1,5.6-2.15,9,9,0,0,1,2.86.4,12.61,12.61,0,0,1,1.84.75,2.36,2.36,0,0,1,.77.56,1,1,0,0,1,.13.54.85.85,0,0,1-.23.58.76.76,0,0,1-.56.26,1.12,1.12,0,0,1-.5-.09,11.16,11.16,0,0,0-1.84-.76,8.2,8.2,0,0,0-2.34-.29,6.43,6.43,0,0,0-2.54.47,5.19,5.19,0,0,0-1.89,1.3,7,7,0,0,0,0,8.65,5.82,5.82,0,0,0,4.5,1.77,7.93,7.93,0,0,0,2.27-.29A12.11,12.11,0,0,0,332.14,2442.05Z"/><path class="cls-1" d="M341.65,2442.62a1.18,1.18,0,0,1,.37.88v.14a1.18,1.18,0,0,1-.37.88,1.2,1.2,0,0,1-.89.37h-.22a1.22,1.22,0,0,1-.89-.37,1.18,1.18,0,0,1-.37-.88v-.14a1.18,1.18,0,0,1,.37-.88,1.22,1.22,0,0,1,.89-.37h.22A1.2,1.2,0,0,1,341.65,2442.62Z"/><path class="cls-2" d="M21.32,2418.52a34.52,34.52,0,0,1-6-.53,32.83,32.83,0,0,1-5.72-1.57A34.6,34.6,0,0,1,4.38,2414,25.37,25.37,0,0,1,0,2410.91l10.36-11.26a16.61,16.61,0,0,0,4.75,3.43,13.42,13.42,0,0,0,6.12,1.5,6.45,6.45,0,0,0,2.6-.5,1.84,1.84,0,0,0,1.18-1.86,1.94,1.94,0,0,0-.39-1.22,4.67,4.67,0,0,0-1.4-1,23.53,23.53,0,0,0-2.74-1.18c-1.18-.43-2.64-.93-4.4-1.5a37.13,37.13,0,0,1-4.94-2,17.54,17.54,0,0,1-4.17-2.9,12.79,12.79,0,0,1-2.9-4.12A14,14,0,0,1,3,2382.46a15.59,15.59,0,0,1,1.93-8,16.87,16.87,0,0,1,5-5.41,20.26,20.26,0,0,1,6.82-3,31.45,31.45,0,0,1,7.51-.93A29,29,0,0,1,34.43,2367a27.2,27.2,0,0,1,9.11,5.57L33,2383.35a11.21,11.21,0,0,0-4.22-3.25,11.26,11.26,0,0,0-4.5-1.1,7.07,7.07,0,0,0-3,.53,1.81,1.81,0,0,0-1.15,1.75,1.85,1.85,0,0,0,1.18,1.72,33.14,33.14,0,0,0,3.82,1.43c1.82.57,3.72,1.24,5.72,2a24.32,24.32,0,0,1,5.54,3,15.62,15.62,0,0,1,4.18,4.47,12.21,12.21,0,0,1,1.65,6.58,16.5,16.5,0,0,1-1.83,8,17.14,17.14,0,0,1-4.78,5.65,20.89,20.89,0,0,1-6.68,3.36A26.44,26.44,0,0,1,21.32,2418.52Z"/><path class="cls-2" d="M75.13,2418.52a29.66,29.66,0,0,1-10.33-1.64,20.67,20.67,0,0,1-7.32-4.51,17.75,17.75,0,0,1-4.36-6.75,24.29,24.29,0,0,1-1.43-8.4v-30.73h17v28.87a8.41,8.41,0,0,0,1.75,5.68,7.06,7.06,0,0,0,9.93,0,8.36,8.36,0,0,0,1.76-5.68v-28.87H99.08v30.73a22.8,22.8,0,0,1-1.54,8.4,18.67,18.67,0,0,1-4.54,6.75,21.35,21.35,0,0,1-7.47,4.51A30.19,30.19,0,0,1,75.13,2418.52Z"/><path class="cls-2" d="M149.18,2375.32a14.78,14.78,0,0,0-4.72-5.22,19.38,19.38,0,0,0-6.65-2.79,34.92,34.92,0,0,0-7.58-.82H108.51v50.6h16.94V2400.8h4.78a31.88,31.88,0,0,0,7.69-.94,19,19,0,0,0,6.65-3,15.47,15.47,0,0,0,4.64-5.36,19.42,19.42,0,0,0,0-16.18Zm-16.62,11.57a6.71,6.71,0,0,1-3.54,1h-3.57v-8.15H129a9.77,9.77,0,0,1,1.86.18,5.43,5.43,0,0,1,1.68.61,3.15,3.15,0,0,1,1.18,1.17,4,4,0,0,1,.43,2A3.48,3.48,0,0,1,132.56,2386.89Z"/><polygon class="cls-2" points="158.11 2366.49 192.91 2366.49 192.91 2380.64 174.12 2380.64 174.12 2385 191.77 2385 191.77 2398.22 174.12 2398.22 174.12 2402.94 194.13 2402.94 194.13 2417.09 158.11 2417.09 158.11 2366.49"/><path class="cls-2" d="M238.18,2396.58a14.36,14.36,0,0,0,8.84-13.66,16.08,16.08,0,0,0-1.79-8,14.34,14.34,0,0,0-4.69-5.08,18.59,18.59,0,0,0-6.57-2.64,36.94,36.94,0,0,0-7.4-.75H204.78v50.6h16.5V2399h.51l9.69,18.08H251Zm-8.42-10.76a4.16,4.16,0,0,1-1.49,1.28,5.48,5.48,0,0,1-1.91.61,13.25,13.25,0,0,1-1.88.15h-3.34v-8.15h4a15.11,15.11,0,0,1,1.71.11,5.08,5.08,0,0,1,1.7.5,3.21,3.21,0,0,1,1.28,1.18,4,4,0,0,1,.49,2.14A3.61,3.61,0,0,1,229.76,2385.82Z"/><path class="cls-2" d="M374.05,2396.58a14.32,14.32,0,0,0,8.84-13.66,16.08,16.08,0,0,0-1.79-8,14.4,14.4,0,0,0-4.68-5.08,18.75,18.75,0,0,0-6.57-2.64,37,37,0,0,0-7.41-.75H340.65v50.6h16.51V2399h.5l9.69,18.08h19.54Zm-8.42-10.76a4.16,4.16,0,0,1-1.49,1.28,5.48,5.48,0,0,1-1.91.61,13.14,13.14,0,0,1-1.88.15H357v-8.15h4a15.09,15.09,0,0,1,1.7.11,5.08,5.08,0,0,1,1.7.5,3.15,3.15,0,0,1,1.28,1.18,4,4,0,0,1,.49,2.14A3.54,3.54,0,0,1,365.63,2385.82Z"/><rect class="cls-2" x="259.38" y="2366.49" width="17.15" height="50.6"/><path class="cls-2" d="M111.82,1956.78c0-21.42,14.28-37.79,36.22-37.79,8.36,0,14.63,2.61,18.63,6.27v-33.09c0-9.75-4.53-12-13.93-12v-1.05l33.78-3.48v103.26c0,8.71,2.79,12,12.19,12v1H167V1982c-5.05,6.27-12.71,11.84-23.68,11.84C124,1993.87,111.82,1976.63,111.82,1956.78Zm54.85,23.68v-47.19c-1.22-6.62-6.62-12.71-14.63-12.71-13.06,0-19.15,18.81-19.15,35.17,0,17.24,5.75,32.74,19.33,32.74C158.66,1988.47,163.36,1984.82,166.67,1980.46Z"/><path class="cls-1" d="M200.54,1957a46.63,46.63,0,0,1,.5-6.83h-9.67v10.07h9.29C200.59,1959.12,200.54,1958,200.54,1957Z"/><path class="cls-1" d="M161.82,1950.12H138c-.17,1.86-.25,3.74-.25,5.61,0,1.49,0,3,.14,4.46h23.94Z"/><path class="cls-1" d="M83.47,1956.79l2.65-1.61-2.63-1.64c-14.64-9.13-25.49-19.54-32.24-31a1.93,1.93,0,0,0-1.65-.94H38.17l1.9,2.95a114.88,114.88,0,0,0,28.58,30.55c-10.73,7.69-20.06,17.71-28.45,30.56l-1.92,3H49.6a1.92,1.92,0,0,0,1.62-.89A98.83,98.83,0,0,1,83.47,1956.79Z"/><path class="cls-1" d="M107,1956.78a51.75,51.75,0,0,1,.43-6.66h-4.62a.53.53,0,0,1-.3-.09c-12-8.26-21-17.47-26.9-27.44a1.91,1.91,0,0,0-1.64-.94H63.47a.52.52,0,0,0-.44.81l1.37,2.14a115.22,115.22,0,0,0,28,30.13.5.5,0,0,1,0,.83c-10.48,7.63-19.63,17.53-27.87,30.15l-1.4,2.14a.53.53,0,0,0,.44.82H73.94a1.92,1.92,0,0,0,1.61-.89,96.94,96.94,0,0,1,26.88-27.49.51.51,0,0,1,.3-.1h4.36C107,1959.07,107,1957.93,107,1956.78Z"/><path class="cls-1" d="M347.84,1953.54c-14.64-9.13-25.49-19.54-32.25-31a1.91,1.91,0,0,0-1.64-.94H304a.78.78,0,0,0-.65,1.21l1.12,1.74a114.94,114.94,0,0,0,27.73,29.92.77.77,0,0,1,0,1.25c-10.36,7.6-19.42,17.43-27.59,29.94l-1.14,1.74a.79.79,0,0,0,.66,1.22H314a1.92,1.92,0,0,0,1.61-.89,99,99,0,0,1,32.26-31A1.9,1.9,0,0,0,347.84,1953.54Z"/><path class="cls-1" d="M324.39,1956.79h0a1.91,1.91,0,0,0,0-3.25c-14.63-9.13-25.48-19.54-32.24-31a1.91,1.91,0,0,0-1.64-.94H280.05a.53.53,0,0,0-.44.81l1.38,2.14a117.79,117.79,0,0,0,21.14,24.6.52.52,0,0,1-.34.92H276.55a15.34,15.34,0,0,1-13.35,7.5,15.6,15.6,0,0,1-13.45-7.5H231.31c-.12,1.65-.17,3.3-.17,4.92,0,1.45,0,3.22.19,5.15h70.39a.53.53,0,0,1,.34.93,118.16,118.16,0,0,0-20.94,24.59l-1.39,2.14a.53.53,0,0,0,.44.82h10.35a1.92,1.92,0,0,0,1.61-.89C299.8,1975.67,311,1965,324.39,1956.79Z"/><path class="cls-2" d="M205.39,1957c0-23.68,18.63-38,39.18-38,18.46,0,29.6,11.32,29.6,21.94,0,7-4.7,11.84-11,11.84a11.14,11.14,0,0,1-1.74-22.11c-1.91-5.05-6.44-10.45-14.63-10.45-14.62,0-20.54,17.41-20.54,34.83,0,22.11,8.7,35.17,23.5,35.17,11.32,0,19.86-7.66,24.56-16.37l1,.53c-4.87,8.88-14.8,19.5-33.26,19.5C218.8,1993.87,205.39,1977,205.39,1957Z"/><path d="M23.14,60.45a8,8,0,0,1-3.55-.74,5.87,5.87,0,0,1-2.34-2,5.12,5.12,0,0,1-.83-2.86,5,5,0,0,1,.49-2.34A5,5,0,0,1,18.08,51a7.63,7.63,0,0,1,1.66-1v-.13a6,6,0,0,1-1.4-.86,4,4,0,0,1-1.4-3.19,4.81,4.81,0,0,1,.76-2.67,5.12,5.12,0,0,1,2.16-1.85,7.31,7.31,0,0,1,3.28-.68,7.34,7.34,0,0,1,3.28.68,5.24,5.24,0,0,1,2.16,1.85,4.9,4.9,0,0,1,.76,2.67,4.09,4.09,0,0,1-.42,1.94,4.22,4.22,0,0,1-1,1.25,6.2,6.2,0,0,1-1.4.86V50a7.89,7.89,0,0,1,1.66,1,4.79,4.79,0,0,1,1.66,3.83A5.05,5.05,0,0,1,29,57.69a5.87,5.87,0,0,1-2.34,2A8,8,0,0,1,23.14,60.45Zm0-2.06a4.71,4.71,0,0,0,2.36-.55,3.76,3.76,0,0,0,1.93-3.25A3.43,3.43,0,0,0,27,52.86a3.62,3.62,0,0,0-1.43-1.36A4.8,4.8,0,0,0,23.14,51a4.78,4.78,0,0,0-2.39.54,3.55,3.55,0,0,0-1.43,1.36,3.43,3.43,0,0,0-.47,1.73,3.73,3.73,0,0,0,1.92,3.25A4.77,4.77,0,0,0,23.14,58.39Zm0-9.42a4.25,4.25,0,0,0,2.09-.47,3.18,3.18,0,0,0,1.26-1.2,3.07,3.07,0,0,0,.41-1.49,3.18,3.18,0,0,0-.41-1.55,3.22,3.22,0,0,0-1.26-1.19,4.37,4.37,0,0,0-2.09-.45,4.41,4.41,0,0,0-2.08.45,3.19,3.19,0,0,0-1.27,1.19,3.09,3.09,0,0,0-.42,1.55,3,3,0,0,0,.42,1.49,3.14,3.14,0,0,0,1.27,1.2A4.29,4.29,0,0,0,23.14,49Z"/><path d="M35.17,60.45A1.62,1.62,0,0,1,34,59.94a1.73,1.73,0,0,1,0-2.39,1.65,1.65,0,0,1,1.22-.5,1.69,1.69,0,0,1,1.7,1.7A1.65,1.65,0,0,1,36.38,60,1.61,1.61,0,0,1,35.17,60.45Z"/><line class="cls-3" x1="12.75" y1="14.16" x2="374.69" y2="13.64"/><path d="M23.43,474.49a7,7,0,0,1,3.23.7,6.26,6.26,0,0,1,2.26,1.95A8.87,8.87,0,0,1,30.24,480a12.57,12.57,0,0,1,.43,3.36,14.87,14.87,0,0,1-.31,3,13.69,13.69,0,0,1-1,3,9.36,9.36,0,0,1-1.78,2.58,8.32,8.32,0,0,1-2.7,1.81,9.15,9.15,0,0,1-3.7.68,10.25,10.25,0,0,1-1.51-.1c-.48-.07-1-.17-1.55-.29v-2.35c.63.12,1.18.21,1.66.28a10.11,10.11,0,0,0,1.45.11,7,7,0,0,0,2.74-.48,5.8,5.8,0,0,0,1.91-1.29,7,7,0,0,0,1.23-1.72,9.12,9.12,0,0,0,.9-3.39,4.8,4.8,0,0,1-.73.86,5.12,5.12,0,0,1-1.55,1,6.31,6.31,0,0,1-2.53.44,6.36,6.36,0,0,1-3.55-.93,6,6,0,0,1-2.14-2.4,7,7,0,0,1,0-6.21,6.11,6.11,0,0,1,2.21-2.45A6.63,6.63,0,0,1,23.43,474.49Zm.05,2.19a4.49,4.49,0,0,0-2,.47,4,4,0,0,0-1.57,1.42,4.25,4.25,0,0,0-.62,2.38,4.33,4.33,0,0,0,.62,2.39,3.82,3.82,0,0,0,1.57,1.42,4.41,4.41,0,0,0,4,0,3.82,3.82,0,0,0,1.57-1.42,4.33,4.33,0,0,0,.61-2.39,4.25,4.25,0,0,0-.61-2.38,4,4,0,0,0-1.57-1.42A4.52,4.52,0,0,0,23.48,476.68Z"/><path d="M36.37,494.36a1.59,1.59,0,0,1-1.21-.51,1.7,1.7,0,0,1,0-2.39,1.61,1.61,0,0,1,1.21-.5,1.67,1.67,0,0,1,1.7,1.7,1.68,1.68,0,0,1-.48,1.21A1.64,1.64,0,0,1,36.37,494.36Z"/><line class="cls-3" x1="12.75" y1="448.07" x2="374.69" y2="447.55"/><path d="M22,908.66V928H19.53V913l-3.64,0v-1.47l.66-.21a9.87,9.87,0,0,0,2.23-1A6,6,0,0,0,20.37,909l.23-.29Z"/><path d="M33.76,928.25a6.27,6.27,0,0,1-3.19-.8,7,7,0,0,1-2.32-2.17,10.47,10.47,0,0,1-1.41-3.18,15.28,15.28,0,0,1,0-7.6,10.52,10.52,0,0,1,1.41-3.17,6.68,6.68,0,0,1,2.32-2.17,6.84,6.84,0,0,1,6.38,0,6.73,6.73,0,0,1,2.31,2.17,10.52,10.52,0,0,1,1.41,3.17,15,15,0,0,1,0,7.6,10.47,10.47,0,0,1-1.41,3.18A7,7,0,0,1,37,927.45,6.32,6.32,0,0,1,33.76,928.25Zm0-2.36A4,4,0,0,0,37.17,924a12.52,12.52,0,0,0,0-11.31,4,4,0,0,0-6.83,0,12.58,12.58,0,0,0,0,11.3A4,4,0,0,0,33.76,925.89Z"/><path d="M46.34,928.27a1.61,1.61,0,0,1-1.22-.51,1.73,1.73,0,0,1,0-2.39,1.71,1.71,0,1,1,1.22,2.9Z"/><line class="cls-3" x1="12.75" y1="881.98" x2="374.69" y2="881.46"/><path d="M22,1342.57v19.35H19.53v-15l-3.64,0v-1.47l.66-.21a9.87,9.87,0,0,0,2.23-1,6,6,0,0,0,1.59-1.43l.23-.29Z"/><path d="M32.11,1342.57v19.35H29.6v-15l-3.64,0v-1.47l.66-.21a9.87,9.87,0,0,0,2.23-1,6,6,0,0,0,1.59-1.43l.23-.29Z"/><path d="M38.73,1362.18a1.61,1.61,0,0,1-1.22-.51,1.73,1.73,0,0,1,0-2.39,1.73,1.73,0,0,1,2.43,0,1.67,1.67,0,0,1,.49,1.2,1.69,1.69,0,0,1-.49,1.21A1.62,1.62,0,0,1,38.73,1362.18Z"/><line class="cls-3" x1="12.75" y1="1315.89" x2="374.69" y2="1315.37"/><path d="M22,1776.48v19.35H19.53v-15l-3.64,0v-1.47l.66-.21a10.38,10.38,0,0,0,2.23-1,6.26,6.26,0,0,0,1.59-1.44l.23-.29Z"/><path d="M27,1795.83V1794l4.23-3.92c1.19-1.1,2.23-2.07,3.13-2.89a12.69,12.69,0,0,0,2.1-2.42,4.67,4.67,0,0,0,.76-2.59,3.43,3.43,0,0,0-.56-2,3.74,3.74,0,0,0-1.44-1.24,4,4,0,0,0-1.82-.43,4.35,4.35,0,0,0-2,.41,3.25,3.25,0,0,0-1.2,1,4.36,4.36,0,0,0-.6,1.23,5.84,5.84,0,0,0-.24,1.45H26.93a10.91,10.91,0,0,1,.22-1.68,7.8,7.8,0,0,1,.57-1.55,5.74,5.74,0,0,1,1.11-1.56,5.49,5.49,0,0,1,1.85-1.2,7.39,7.39,0,0,1,2.79-.47,7.16,7.16,0,0,1,3.12.69,5.8,5.8,0,0,1,2.35,2,5.7,5.7,0,0,1,.88,3.23,6,6,0,0,1-.87,3.18,14.19,14.19,0,0,1-2.32,2.79l-3.13,2.93-2.67,2.45h9.41v2.33Z"/><path d="M45.68,1796.09a1.59,1.59,0,0,1-1.21-.51,1.7,1.7,0,0,1,0-2.39,1.61,1.61,0,0,1,1.21-.5,1.64,1.64,0,0,1,1.22.5,1.75,1.75,0,0,1,0,2.41A1.63,1.63,0,0,1,45.68,1796.09Z"/><line class="cls-3" x1="12.75" y1="1749.8" x2="374.69" y2="1749.28"/><path d="M22,2210.39v19.35H19.53v-15l-3.64,0v-1.47l.66-.21a10.38,10.38,0,0,0,2.23-1,6.26,6.26,0,0,0,1.59-1.44l.23-.29Z"/><path d="M33.42,2230a8,8,0,0,1-3.23-.65,5.74,5.74,0,0,1-2.49-2,5.82,5.82,0,0,1-.95-3.41h2.43a3.66,3.66,0,0,0,.61,2.19,3.74,3.74,0,0,0,1.6,1.29,5.26,5.26,0,0,0,2,.41,4.81,4.81,0,0,0,2.06-.43,3.63,3.63,0,0,0,1.52-1.27,3.48,3.48,0,0,0,.58-2,3.12,3.12,0,0,0-1-2.45,4,4,0,0,0-2.73-.9H31.22v-2h2.61a3.64,3.64,0,0,0,2.42-.84,2.77,2.77,0,0,0,1-2.27,3.06,3.06,0,0,0-.53-1.8,3.69,3.69,0,0,0-1.42-1.16,4.29,4.29,0,0,0-1.89-.42,4.37,4.37,0,0,0-1.87.43,3.63,3.63,0,0,0-1.48,1.3,3.91,3.91,0,0,0-.58,2.2H27.11a5.62,5.62,0,0,1,3.31-5.41,7.48,7.48,0,0,1,6.1,0,5.82,5.82,0,0,1,2.31,1.83,4.62,4.62,0,0,1,.89,2.84,4.34,4.34,0,0,1-2.77,4.21v.13a4.83,4.83,0,0,1,2.27,1.59,4.39,4.39,0,0,1,.89,2.83,5.16,5.16,0,0,1-.94,3.11,6.11,6.11,0,0,1-2.46,2A7.85,7.85,0,0,1,33.42,2230Z"/><path d="M45.92,2230a1.64,1.64,0,0,1-1.22-.5,1.71,1.71,0,0,1-.48-1.2,1.66,1.66,0,0,1,.48-1.2,1.64,1.64,0,0,1,1.22-.5,1.69,1.69,0,0,1,1.7,1.7,1.64,1.64,0,0,1-.49,1.21A1.61,1.61,0,0,1,45.92,2230Z"/><line class="cls-3" x1="12.75" y1="2183.71" x2="374.69" y2="2183.19"/><path d="M22,2644.3v19.35H19.53v-15l-3.64,0v-1.47l.66-.21a9.87,9.87,0,0,0,2.23-1,6,6,0,0,0,1.59-1.43l.23-.29Z"/><path d="M35.82,2663.65v-4.5l-9.46,0v-2.33l8.89-12.5h3.14v12.63h3.37v2.22H38.39v4.5ZM29,2656.93h6.82v-9.62Z"/><path d="M47.23,2663.91a1.61,1.61,0,0,1-1.22-.51,1.73,1.73,0,0,1,0-2.39,1.73,1.73,0,0,1,2.43,0,1.67,1.67,0,0,1,.49,1.2,1.69,1.69,0,0,1-.49,1.21A1.62,1.62,0,0,1,47.23,2663.91Z"/><line class="cls-3" x1="12.75" y1="2617.62" x2="374.69" y2="2617.1"/><path class="cls-4" d="M240.76,1157c5.12,0,13-3.83,12.92-47.62,0,0-17.35,19.91-17.35,36.79C236.33,1147.18,235.63,1157,240.76,1157Z"/><path class="cls-4" d="M141.77,1010c-3.37,0-5.09,11.72-6.06,21-1,9.45-1.16,40.65-1.16,40.65,9.43-10.37,14.55-38,14.55-49.38S143.75,1010,141.77,1010Z"/><path class="cls-4" d="M118,1081.5s-1.87-77.8,18.4-77.8c16.77,0,16.07,17.94,16.07,17.94,0,30.28-17.93,55.81-17.93,55.81s-2.1,11-1.4,14.76c14.9-21.19,20.26-21.42,27.95-21.42s9.78,7.22,9.78,14.9,1.17,16.54,2.1,18.63c3.13.43,10.08.2,27.54-14s16.71-14.4,16.71-14.4a16.46,16.46,0,0,1,15.84-10.48c12.35,0,14.44,10.71,14.44,10.71a1.5,1.5,0,0,1-1,1.91,2.41,2.41,0,0,1-3.16-1c-.8-1.14-4.43-6.29-7-6.29-4.44,0-8.48,7.89-8.48,19.1,0,11,5.2,10.82,5.2,10.82s15.6-1.89,22.61-27.12c1-4.21,6.18-4.3,9.79-4.19,2.56.07,3.49,3.26,3.49,27.95,14-7,45.42-19.33,94.09-19.33,8.9,0,16.48,0,23,.12V941.5H0v144.58a212,212,0,0,0,49.53,6.13C95.89,1092.21,118,1081.5,118,1081.5Z"/><path class="cls-4" d="M362.84,1080.21c-24.38,0-57.49,2.84-93.67,19.92.16,8.7-2,37.49-4.42,44.25-5.67,16-15.38,17.71-22.83,17.71s-10.25-4.43-10.25-14.44,9.25-33.5,22.36-42.46c0-9.08.66-18.87,1.17-21.13-2.8,4.19-8,22-28.62,22-12.92,0-14.2-21.17-11.4-24-6.53,4.89-26.86,31.16-50.84,31.16-9.55,0-11.16-2.82-11.16-13.37,0-3,2.33-22.13-.93-22.13s-18.13,16.85-19.33,26.09c-.44,3.34-2.15,4.87-3.5,5.25-1.61.45-12.57,2-12.57-3.62s.23-18.64.93-20a245.65,245.65,0,0,1-68.95,10c-16.17,0-33.86-3.17-48.83-7v133H386V1080.29C379.7,1080.24,372.08,1080.21,362.84,1080.21ZM127,1125.71h-3.58v2.11h3.3v2.39h-3.3v4.13H120.5v-11H127Zm15.2,8.63H135v-11h3v8.62h4.24Zm16-1.29a6.2,6.2,0,0,1-8,0,7.16,7.16,0,0,1,0-8.44,5.27,5.27,0,0,1,4-1.45,5.22,5.22,0,0,1,4,1.44,5.93,5.93,0,0,1,1.36,4.23A6,6,0,0,1,158.19,1133.05Zm14.67,1.29-2.34-4h-.76v4h-3v-11h3.61c3,0,4.49,1.09,4.49,3.26a3.25,3.25,0,0,1-1.86,3l3.2,4.8Zm17.31,0-.54-2.06h-3.58l-.56,2.06h-3.27l3.6-11.06h4l3.64,11.06Zm17.85,0h-7.23v-11h3v8.62H208Zm10.79-7.5a13.2,13.2,0,0,0,1.82.93,5.08,5.08,0,0,1,2,1.38,3,3,0,0,1,.56,1.85,3.31,3.31,0,0,1-.52,1.82,3.41,3.41,0,0,1-1.5,1.23,5.46,5.46,0,0,1-2.3.45,9.49,9.49,0,0,1-1.85-.16,6.38,6.38,0,0,1-1.55-.54v-2.65a8.63,8.63,0,0,0,1.77.68,6.74,6.74,0,0,0,1.69.24,1.68,1.68,0,0,0,1-.22.75.75,0,0,0,.31-.6.59.59,0,0,0-.13-.39,1.35,1.35,0,0,0-.39-.34,15.08,15.08,0,0,0-1.47-.71,7.43,7.43,0,0,1-1.62-1,2.86,2.86,0,0,1-.79-1.06,3.38,3.38,0,0,1-.27-1.41,2.82,2.82,0,0,1,1.11-2.37,4.89,4.89,0,0,1,3.05-.85,8.52,8.52,0,0,1,3.49.79l-.91,2.29a6.62,6.62,0,0,0-2.68-.7,1.37,1.37,0,0,0-.84.2.64.64,0,0,0-.26.5A.74.74,0,0,0,218.81,1126.84Z"/><path class="cls-4" d="M154.21,1125.59c-1.49,0-2.25,1.08-2.25,3.23s.75,3.2,2.23,3.2a1.92,1.92,0,0,0,1.68-.78,5.69,5.69,0,0,0,0-4.86A1.88,1.88,0,0,0,154.21,1125.59Z"/><path class="cls-4" d="M170.35,1125.58h-.59v2.52h.56c1.05,0,1.56-.47,1.56-1.38Q171.88,1125.58,170.35,1125.58Z"/><path class="cls-4" d="M188.14,1126.47c-.17-.64-.26-1.1-.32-1.38,0,.26-.13.68-.26,1.27s-.44,1.75-.89,3.48H189l-.47-1.81C188.43,1127.63,188.29,1127.1,188.14,1126.47Z"/><path class="cls-2" d="M117.78,1085.46c-.7,1.39-.93,14.44-.93,20s11,4.07,12.57,3.62c1.35-.38,3.06-1.91,3.5-5.25,1.2-9.24,16.07-26.09,19.33-26.09s.93,19.1.93,22.13c0,10.55,1.61,13.37,11.16,13.37,24,0,44.31-26.27,50.84-31.16-2.8,2.8-1.52,24,11.4,24,20.64,0,25.82-17.83,28.62-22-.51,2.26-1.17,12-1.17,21.13-13.11,9-22.36,32.44-22.36,42.46s2.8,14.44,10.25,14.44,17.16-1.67,22.83-17.71c2.39-6.76,4.58-35.55,4.42-44.25,36.18-17.08,69.29-19.92,93.67-19.92,9.24,0,16.86,0,23.16.08v-2.16c-6.49-.08-14.07-.12-23-.12-48.67,0-80.12,12.34-94.09,19.33,0-24.69-.93-27.88-3.49-27.95-3.61-.11-8.78,0-9.79,4.19-7,25.23-22.61,27.12-22.61,27.12s-5.2.21-5.2-10.82c0-11.21,4-19.1,8.48-19.1,2.56,0,6.19,5.15,7,6.29a2.41,2.41,0,0,0,3.16,1,1.5,1.5,0,0,0,1-1.91s-2.09-10.71-14.44-10.71a16.46,16.46,0,0,0-15.84,10.48s.76.19-16.71,14.4-24.41,14.44-27.54,14c-.93-2.09-2.1-10.94-2.1-18.63s-2.1-14.9-9.78-14.9-13,.23-27.95,21.42c-.7-3.72,1.4-14.76,1.4-14.76s17.93-25.53,17.93-55.81c0,0,.7-17.94-16.07-17.94-20.27,0-18.4,77.8-18.4,77.8s-22.12,10.71-68.48,10.71A212,212,0,0,1,0,1086.08v2.39c15,3.83,32.66,7,48.83,7A245.65,245.65,0,0,0,117.78,1085.46Zm123,71.5c-5.13,0-4.43-9.78-4.43-10.83,0-16.88,17.35-36.79,17.35-36.79C253.8,1153.13,245.88,1157,240.76,1157Zm-105-126c1-9.26,2.69-21,6.06-21,2,0,7.33.84,7.33,12.25s-5.12,39-14.55,49.38C134.55,1071.6,134.73,1040.4,135.71,1031Z"/><polygon class="cls-1" points="120.5 1134.34 123.44 1134.34 123.44 1130.21 126.74 1130.21 126.74 1127.82 123.44 1127.82 123.44 1125.71 127.02 1125.71 127.02 1123.32 120.5 1123.32 120.5 1134.34"/><polygon class="cls-1" points="137.98 1123.32 135 1123.32 135 1134.34 142.22 1134.34 142.22 1131.94 137.98 1131.94 137.98 1123.32"/><path class="cls-1" d="M154.21,1123.15a5.27,5.27,0,0,0-4,1.45,7.16,7.16,0,0,0,0,8.44,6.2,6.2,0,0,0,8,0,6,6,0,0,0,1.36-4.23,5.93,5.93,0,0,0-1.36-4.23A5.22,5.22,0,0,0,154.21,1123.15Zm1.66,8.09a1.92,1.92,0,0,1-1.68.78c-1.48,0-2.23-1.07-2.23-3.2s.76-3.23,2.25-3.23a1.88,1.88,0,0,1,1.65.79,5.69,5.69,0,0,1,0,4.86Z"/><path class="cls-1" d="M174.89,1126.58c0-2.17-1.49-3.26-4.49-3.26h-3.61v11h3v-4h.76l2.34,4h3.37l-3.2-4.8A3.25,3.25,0,0,0,174.89,1126.58Zm-4.57,1.52h-.56v-2.52h.59q1.53,0,1.53,1.14C171.88,1127.63,171.37,1128.1,170.32,1128.1Z"/><path class="cls-1" d="M185.82,1123.28l-3.6,11.06h3.27l.56-2.06h3.58l.54,2.06h3.26l-3.64-11.06Zm.85,6.56c.45-1.73.75-2.89.89-3.48s.22-1,.26-1.27c.06.28.15.74.32,1.38s.29,1.16.4,1.56l.47,1.81Z"/><polygon class="cls-1" points="203.77 1123.32 200.79 1123.32 200.79 1134.34 208.02 1134.34 208.02 1131.94 203.77 1131.94 203.77 1123.32"/><path class="cls-1" d="M219.58,1125.55a6.62,6.62,0,0,1,2.68.7l.91-2.29a8.52,8.52,0,0,0-3.49-.79,4.89,4.89,0,0,0-3.05.85,2.82,2.82,0,0,0-1.11,2.37,3.38,3.38,0,0,0,.27,1.41,2.86,2.86,0,0,0,.79,1.06,7.43,7.43,0,0,0,1.62,1,15.08,15.08,0,0,1,1.47.71,1.35,1.35,0,0,1,.39.34.59.59,0,0,1,.13.39.75.75,0,0,1-.31.6,1.68,1.68,0,0,1-1,.22,6.74,6.74,0,0,1-1.69-.24,8.63,8.63,0,0,1-1.77-.68v2.65a6.38,6.38,0,0,0,1.55.54,9.49,9.49,0,0,0,1.85.16,5.46,5.46,0,0,0,2.3-.45,3.41,3.41,0,0,0,1.5-1.23,3.31,3.31,0,0,0,.52-1.82,3,3,0,0,0-.56-1.85,5.08,5.08,0,0,0-2-1.38,13.2,13.2,0,0,1-1.82-.93.74.74,0,0,1-.33-.59.64.64,0,0,1,.26-.5A1.37,1.37,0,0,1,219.58,1125.55Z"/></svg>