<?xml version="1.0" encoding="UTF-8"?><svg id="a" xmlns="http://www.w3.org/2000/svg" xmlns:xlink="http://www.w3.org/1999/xlink" viewBox="0 0 1200 750"><defs><style>.c{fill:none;}.d{fill:#f1f1f2;}.e{fill:#ee8768;}.f{fill:#8c2922;}.g{fill:#df2e26;}.h{fill:#210000;}.i{clip-path:url(#b);}</style><clipPath id="b"><rect class="c" width="1200" height="750"/></clipPath></defs><g class="i"><g><g><path class="d" d="M64.9-28.26h46.56l-31.04,155.43H37.41L-7.82,47.79l-15.96,79.38h-46.78L-39.53-28.26H3.49L48.94,51.56l15.97-79.82Z"/><path class="d" d="M185.07-28.26l-31.04,155.43h-51.44L133.63-28.26h51.44Z"/><path class="d" d="M296.81,45.35h44.12l-12.86,64.96c-9.46,6.06-20.29,10.98-32.48,14.74-12.2,3.77-23.69,5.65-34.48,5.65-14.93,0-28.2-3.18-39.8-9.53-11.6-6.35-20.62-15.11-27.05-26.27-6.43-11.16-9.65-23.84-9.65-38.03,0-16.7,4.25-31.78,12.75-45.23,8.5-13.45,20.07-24.02,34.7-31.71,14.63-7.68,30.89-11.53,48.78-11.53,12.12,0,24.02,2.22,35.7,6.65,11.67,4.43,21.36,10.35,29.05,17.74l-32.6,35.25c-4.73-5.17-10.46-9.27-17.18-12.31-6.73-3.03-13.27-4.55-19.62-4.55-6.95,0-13.38,1.85-19.29,5.54-5.92,3.7-10.61,8.76-14.08,15.19-3.47,6.43-5.21,13.49-5.21,21.17,0,10.2,2.92,18.55,8.76,25.05,5.84,6.51,13.34,9.76,22.5,9.76,5.47,0,12.27-1.63,20.4-4.88l7.54-37.69Z"/><path class="d" d="M481.06-28.27h51.44l-31.04,155.43h-51.44l11.31-56.1h-48.11l-11.31,56.1h-51.44l31.04-155.43h51.44l-11.97,60.31h48.11l11.97-60.31Z"/><path class="d" d="M694.14-28.27l-8.21,40.57h-44.34l-23.06,114.85h-51.44l23.06-114.85h-44.12l8.2-40.57h139.91Z"/><path class="d" d="M827.61-28.27l-8.21,40.57h-44.34l-23.06,114.85h-51.44l23.06-114.85h-44.12l8.2-40.57h139.91Z"/><path class="d" d="M962.3,52.88c-6.13,10.5-14.96,18.62-26.49,24.39l20.4,49.89h-58.09l-10.64-40.35h-19.29l-7.98,40.35h-51.44l31.04-155.43h75.16c18.18,0,32.15,3.88,41.91,11.64,9.76,7.76,14.63,18.81,14.63,33.15,0,13.75-3.07,25.87-9.2,36.36Zm-86.14-5.1h23.73c6.65,0,11.93-2.11,15.85-6.32,3.91-4.21,5.87-9.79,5.87-16.74,0-4.44-1.26-7.87-3.77-10.31-2.51-2.44-6.06-3.66-10.64-3.66h-23.73l-7.32,37.03Z"/><path class="d" d="M1082.59,127.16l-3.99-21.95h-58.31l-11.75,21.95h-52.32l91.35-155.43h52.77l37.47,155.43h-55.21Zm-42.79-58.76h32.37l-8.2-45.23-24.17,45.23Z"/><path class="d" d="M1229.14-28.27l-31.04,155.43h-51.44l31.04-155.43h51.44Z"/></g><g><path class="e" d="M64.9,135.29h46.56l-31.04,155.43H37.41L-7.82,211.34l-15.96,79.38h-46.78l31.04-155.43H3.49l45.45,79.82,15.97-79.82Z"/><path class="e" d="M185.07,135.29l-31.04,155.43h-51.44l31.04-155.43h51.44Z"/><path class="e" d="M296.81,208.9h44.12l-12.86,64.96c-9.46,6.06-20.29,10.98-32.48,14.74-12.2,3.77-23.69,5.65-34.48,5.65-14.93,0-28.2-3.18-39.8-9.53-11.6-6.35-20.62-15.11-27.05-26.27-6.43-11.16-9.65-23.84-9.65-38.03,0-16.7,4.25-31.78,12.75-45.23,8.5-13.45,20.07-24.02,34.7-31.71,14.63-7.68,30.89-11.53,48.78-11.53,12.12,0,24.02,2.22,35.7,6.65,11.67,4.43,21.36,10.35,29.05,17.74l-32.6,35.25c-4.73-5.17-10.46-9.27-17.18-12.31-6.73-3.03-13.27-4.55-19.62-4.55-6.95,0-13.38,1.85-19.29,5.54-5.92,3.7-10.61,8.76-14.08,15.19-3.47,6.43-5.21,13.49-5.21,21.17,0,10.2,2.92,18.55,8.76,25.05,5.84,6.51,13.34,9.76,22.5,9.76,5.47,0,12.27-1.63,20.4-4.88l7.54-37.69Z"/><path class="e" d="M481.06,135.29h51.44l-31.04,155.43h-51.44l11.31-56.1h-48.11l-11.31,56.1h-51.44l31.04-155.43h51.44l-11.97,60.31h48.11l11.97-60.31Z"/><path class="e" d="M694.14,135.29l-8.21,40.57h-44.34l-23.06,114.85h-51.44l23.06-114.85h-44.12l8.2-40.57h139.91Z"/><path class="e" d="M827.61,135.29l-8.21,40.57h-44.34l-23.06,114.85h-51.44l23.06-114.85h-44.12l8.2-40.57h139.91Z"/><path class="e" d="M962.3,216.44c-6.13,10.5-14.96,18.62-26.49,24.39l20.4,49.89h-58.09l-10.64-40.35h-19.29l-7.98,40.35h-51.44l31.04-155.43h75.16c18.18,0,32.15,3.88,41.91,11.64,9.76,7.76,14.63,18.81,14.63,33.15,0,13.75-3.07,25.87-9.2,36.36Zm-86.14-5.1h23.73c6.65,0,11.93-2.11,15.85-6.32,3.91-4.21,5.87-9.79,5.87-16.74,0-4.44-1.26-7.87-3.77-10.31-2.51-2.44-6.06-3.66-10.64-3.66h-23.73l-7.32,37.03Z"/><path class="e" d="M1082.59,290.72l-3.99-21.95h-58.31l-11.75,21.95h-52.32l91.35-155.43h52.77l37.47,155.43h-55.21Zm-42.79-58.76h32.37l-8.2-45.23-24.17,45.23Z"/><path class="e" d="M1229.15,135.29l-31.04,155.43h-51.44l31.04-155.43h51.44Z"/></g><g><path class="g" d="M64.9,298.85h46.56l-31.04,155.43H37.41L-7.82,374.9l-15.96,79.38h-46.78l31.04-155.43H3.49l45.45,79.82,15.97-79.82Z"/><path class="g" d="M185.07,298.85l-31.04,155.43h-51.44l31.04-155.43h51.44Z"/><path class="g" d="M296.81,372.46h44.12l-12.86,64.96c-9.46,6.06-20.29,10.98-32.48,14.74-12.2,3.77-23.69,5.65-34.48,5.65-14.93,0-28.2-3.18-39.8-9.53-11.6-6.35-20.62-15.11-27.05-26.27-6.43-11.16-9.65-23.84-9.65-38.03,0-16.7,4.25-31.78,12.75-45.23,8.5-13.45,20.07-24.02,34.7-31.71,14.63-7.68,30.89-11.53,48.78-11.53,12.12,0,24.02,2.22,35.7,6.65,11.67,4.43,21.36,10.35,29.05,17.74l-32.6,35.25c-4.73-5.17-10.46-9.27-17.18-12.31-6.73-3.03-13.27-4.55-19.62-4.55-6.95,0-13.38,1.85-19.29,5.54-5.92,3.7-10.61,8.76-14.08,15.19-3.47,6.43-5.21,13.49-5.21,21.17,0,10.2,2.92,18.55,8.76,25.05,5.84,6.51,13.34,9.76,22.5,9.76,5.47,0,12.27-1.63,20.4-4.88l7.54-37.69Z"/><path class="g" d="M481.06,298.85h51.44l-31.04,155.43h-51.44l11.31-56.1h-48.11l-11.31,56.1h-51.44l31.04-155.43h51.44l-11.97,60.31h48.11l11.97-60.31Z"/><path class="g" d="M694.14,298.85l-8.21,40.57h-44.34l-23.06,114.85h-51.44l23.06-114.85h-44.12l8.2-40.57h139.91Z"/><path class="g" d="M827.61,298.85l-8.21,40.57h-44.34l-23.06,114.85h-51.44l23.06-114.85h-44.12l8.2-40.57h139.91Z"/><path class="g" d="M962.3,380c-6.13,10.5-14.96,18.62-26.49,24.39l20.4,49.89h-58.09l-10.64-40.35h-19.29l-7.98,40.35h-51.44l31.04-155.43h75.16c18.18,0,32.15,3.88,41.91,11.64,9.76,7.76,14.63,18.81,14.63,33.15,0,13.75-3.07,25.87-9.2,36.36Zm-86.14-5.1h23.73c6.65,0,11.93-2.11,15.85-6.32,3.91-4.21,5.87-9.79,5.87-16.74,0-4.44-1.26-7.87-3.77-10.31-2.51-2.44-6.06-3.66-10.64-3.66h-23.73l-7.32,37.03Z"/><path class="g" d="M1082.59,454.28l-3.99-21.95h-58.31l-11.75,21.95h-52.32l91.35-155.43h52.77l37.47,155.43h-55.21Zm-42.79-58.76h32.37l-8.2-45.23-24.17,45.23Z"/><path class="g" d="M1229.15,298.85l-31.04,155.43h-51.44l31.04-155.43h51.44Z"/></g><g><path class="f" d="M64.9,462.41h46.56l-31.04,155.43H37.41L-7.82,538.46l-15.96,79.38h-46.78l31.04-155.43H3.49l45.45,79.82,15.97-79.82Z"/><path class="f" d="M185.07,462.41l-31.04,155.43h-51.44l31.04-155.43h51.44Z"/><path class="f" d="M296.81,536.02h44.12l-12.86,64.96c-9.46,6.06-20.29,10.98-32.48,14.74-12.2,3.77-23.69,5.65-34.48,5.65-14.93,0-28.2-3.18-39.8-9.53-11.6-6.35-20.62-15.11-27.05-26.27-6.43-11.16-9.65-23.84-9.65-38.03,0-16.7,4.25-31.78,12.75-45.23,8.5-13.45,20.07-24.02,34.7-31.71,14.63-7.68,30.89-11.53,48.78-11.53,12.12,0,24.02,2.22,35.7,6.65,11.67,4.43,21.36,10.35,29.05,17.74l-32.6,35.25c-4.73-5.17-10.46-9.27-17.18-12.31-6.73-3.03-13.27-4.55-19.62-4.55-6.95,0-13.38,1.85-19.29,5.54-5.92,3.7-10.61,8.76-14.08,15.19-3.47,6.43-5.21,13.49-5.21,21.17,0,10.2,2.92,18.55,8.76,25.05,5.84,6.51,13.34,9.76,22.5,9.76,5.47,0,12.27-1.63,20.4-4.88l7.54-37.69Z"/><path class="f" d="M481.07,462.41h51.44l-31.04,155.43h-51.44l11.31-56.1h-48.11l-11.31,56.1h-51.44l31.04-155.43h51.44l-11.97,60.31h48.11l11.97-60.31Z"/><path class="f" d="M694.14,462.41l-8.21,40.57h-44.34l-23.06,114.85h-51.44l23.06-114.85h-44.12l8.2-40.57h139.91Z"/><path class="f" d="M827.61,462.41l-8.21,40.57h-44.34l-23.06,114.85h-51.44l23.06-114.85h-44.12l8.2-40.57h139.91Z"/><path class="f" d="M962.3,543.56c-6.13,10.5-14.96,18.62-26.49,24.39l20.4,49.89h-58.09l-10.64-40.35h-19.29l-7.98,40.35h-51.44l31.04-155.43h75.16c18.18,0,32.15,3.88,41.91,11.64,9.76,7.76,14.63,18.81,14.63,33.15,0,13.75-3.07,25.87-9.2,36.36Zm-86.14-5.1h23.73c6.65,0,11.93-2.11,15.85-6.32,3.91-4.21,5.87-9.79,5.87-16.74,0-4.44-1.26-7.87-3.77-10.31-2.51-2.44-6.06-3.66-10.64-3.66h-23.73l-7.32,37.03Z"/><path class="f" d="M1082.59,617.83l-3.99-21.95h-58.31l-11.75,21.95h-52.32l91.35-155.43h52.77l37.47,155.43h-55.21Zm-42.79-58.76h32.37l-8.2-45.23-24.17,45.23Z"/><path class="f" d="M1229.15,462.41l-31.04,155.43h-51.44l31.04-155.43h51.44Z"/></g><g><path class="h" d="M64.9,625.97h46.56l-31.04,155.43H37.41L-7.82,702.02l-15.96,79.38h-46.78l31.04-155.43H3.49l45.45,79.82,15.97-79.82Z"/><path class="h" d="M185.07,625.97l-31.04,155.43h-51.44l31.04-155.43h51.44Z"/><path class="h" d="M296.82,699.58h44.12l-12.86,64.96c-9.46,6.06-20.29,10.98-32.48,14.74-12.2,3.77-23.69,5.65-34.48,5.65-14.93,0-28.2-3.18-39.8-9.53-11.6-6.35-20.62-15.11-27.05-26.27-6.43-11.16-9.65-23.84-9.65-38.03,0-16.7,4.25-31.78,12.75-45.23,8.5-13.45,20.07-24.02,34.7-31.71,14.63-7.68,30.89-11.53,48.78-11.53,12.12,0,24.02,2.22,35.7,6.65,11.67,4.43,21.36,10.35,29.05,17.74l-32.6,35.25c-4.73-5.17-10.46-9.27-17.18-12.31-6.73-3.03-13.27-4.55-19.62-4.55-6.95,0-13.38,1.85-19.29,5.54-5.92,3.7-10.61,8.76-14.08,15.19-3.47,6.43-5.21,13.49-5.21,21.17,0,10.2,2.92,18.55,8.76,25.05,5.84,6.51,13.34,9.76,22.5,9.76,5.47,0,12.27-1.63,20.4-4.88l7.54-37.69Z"/><path class="h" d="M481.07,625.96h51.44l-31.04,155.43h-51.44l11.31-56.1h-48.11l-11.31,56.1h-51.44l31.04-155.43h51.44l-11.97,60.31h48.11l11.97-60.31Z"/><path class="h" d="M694.14,625.96l-8.21,40.57h-44.34l-23.06,114.85h-51.44l23.06-114.85h-44.12l8.2-40.57h139.91Z"/><path class="h" d="M827.61,625.96l-8.21,40.57h-44.34l-23.06,114.85h-51.44l23.06-114.85h-44.12l8.2-40.57h139.91Z"/><path class="h" d="M962.3,707.11c-6.13,10.5-14.96,18.62-26.49,24.39l20.4,49.89h-58.09l-10.64-40.35h-19.29l-7.98,40.35h-51.44l31.04-155.43h75.16c18.18,0,32.15,3.88,41.91,11.64,9.76,7.76,14.63,18.81,14.63,33.15,0,13.75-3.07,25.87-9.2,36.36Zm-86.14-5.1h23.73c6.65,0,11.93-2.11,15.85-6.32,3.91-4.21,5.87-9.79,5.87-16.74,0-4.44-1.26-7.87-3.77-10.31-2.51-2.44-6.06-3.66-10.64-3.66h-23.73l-7.32,37.03Z"/><path class="h" d="M1082.59,781.39l-3.99-21.95h-58.31l-11.75,21.95h-52.32l91.35-155.43h52.77l37.47,155.43h-55.21Zm-42.79-58.76h32.37l-8.2-45.23-24.17,45.23Z"/><path class="h" d="M1229.15,625.96l-31.04,155.43h-51.44l31.04-155.43h51.44Z"/></g></g></g></svg>