<svg id="Layer_1" data-name="Layer 1" xmlns="http://www.w3.org/2000/svg" xmlns:xlink="http://www.w3.org/1999/xlink" viewBox="0 0 1200 750"><defs><style>.cls-1{fill:none;}.cls-2{clip-path:url(#clip-path);}.cls-3{fill:#232c38;}.cls-4{fill:#fff;stroke:#d1d2d2;stroke-miterlimit:10;stroke-width:1.99px;}</style><clipPath id="clip-path"><rect class="cls-1" y="-0.5" width="1200" height="750"/></clipPath></defs><rect y="-0.5" width="1200" height="750"/><g class="cls-2"><path class="cls-3" d="M410.92,13.46V58.62c167.65,29,295.68,175.18,295.68,351,0,196.64-160,356.61-356.6,356.61S-6.6,606.26-6.6,409.62c0-175.83,128-322,295.69-351V13.46C96.69,43-51.29,209.11-51.29,409.62c0,221.29,180,401.31,401.29,401.31s401.29-180,401.29-401.31C751.29,209.11,603.31,43,410.92,13.46Z"/><polygon class="cls-3" points="319.4 134.41 350 113.22 380.61 134.41 380.61 -20.82 436.2 -20.82 436.2 -72.62 380.61 -72.62 380.61 -128.28 319.4 -128.28 319.4 -72.62 263.8 -72.62 263.8 -20.82 319.4 -20.82 319.4 134.41"/><path class="cls-3" d="M321.92,726.82c9.08.62,16.68.91,23.9.91,10.36,0,21.24-.52,32.33-1.55l2.46-.23V600.71h26.32a1.89,1.89,0,0,0,1.89-1.89v-48a1.89,1.89,0,0,0-1.89-1.89H380.61V314.73a7.55,7.55,0,0,0-3.26-6.21l-26.27-18.19a1.88,1.88,0,0,0-2.15,0l-26.28,18.19a7.54,7.54,0,0,0-3.25,6.21V548.9H293.07a1.89,1.89,0,0,0-1.89,1.89v48a1.89,1.89,0,0,0,1.89,1.89H319.4V726.64Z"/><path class="cls-3" d="M448.27,712.22A339.92,339.92,0,0,0,495,693.81l1.54-.74V281.58A15.09,15.09,0,0,0,490,269.16L351.07,173a1.88,1.88,0,0,0-2.15,0L210,269.16a15.12,15.12,0,0,0-6.51,12.42V696.91l1.6.72a342.63,342.63,0,0,0,46.76,17l3.45,1V300.8L350,235.25l94.69,65.55V713.33Z"/><path class="cls-3" d="M556.25,657.68c29.38-22.76,46.93-59.5,46.93-98.28V466.55a98.74,98.74,0,0,0-47.7-84.24l-4.11-2.47V548.9H532a1.88,1.88,0,0,0-1.89,1.89v48a1.89,1.89,0,0,0,1.89,1.89h19.33v60.76Z"/><path class="cls-3" d="M143.76,657.68c-29.39-22.76-46.93-59.5-46.93-98.28V466.55a98.73,98.73,0,0,1,47.69-84.24l4.11-2.47V548.9H168a1.88,1.88,0,0,1,1.89,1.89v48a1.89,1.89,0,0,1-1.89,1.89H148.63v60.76Z"/></g><path class="cls-4" d="M472.79,353.05a19.42,19.42,0,0,1,7.85,7.76,23.31,23.31,0,0,1,2.8,11.54,22.42,22.42,0,0,1-2.85,11.39,19.35,19.35,0,0,1-8.07,7.65,26,26,0,0,1-12.07,2.68H443.58a.47.47,0,0,0-.53.53V423a1.19,1.19,0,0,1-.37.9,1.21,1.21,0,0,1-.9.37h-9.7a1.26,1.26,0,0,1-1.26-1.27V351.58a1.26,1.26,0,0,1,1.26-1.27h29A24.31,24.31,0,0,1,472.79,353.05ZM467.94,381a11.1,11.1,0,0,0,3.26-8.33,11.57,11.57,0,0,0-3.26-8.54,11.7,11.7,0,0,0-8.65-3.27H443.58a.47.47,0,0,0-.53.52v22.25a.47.47,0,0,0,.53.53h15.71A11.92,11.92,0,0,0,467.94,381Z"/><path class="cls-4" d="M533.16,386.38q10.76,5.06,10.75,17.39,0,10-6.69,15.24t-17.46,5.22H493.19a1.26,1.26,0,0,1-1.26-1.27V351.68a1.2,1.2,0,0,1,.37-.89,1.19,1.19,0,0,1,.89-.37h25.73q11.49,0,17.71,5t6.23,15q0,11.07-9.7,15.39C532.73,386,532.73,386.17,533.16,386.38Zm-29-24.89V381a.47.47,0,0,0,.53.53h14.23c3.73,0,6.66-.9,8.81-2.69a9.19,9.19,0,0,0,3.21-7.44,9.6,9.6,0,0,0-3.21-7.64c-2.15-1.86-5.08-2.8-8.81-2.8H504.69A.47.47,0,0,0,504.16,361.49Zm24.3,49.14a10.33,10.33,0,0,0,3.22-8,10.22,10.22,0,0,0-3.27-8.07q-3.27-2.9-8.86-2.9H504.69a.46.46,0,0,0-.53.52v20.88a.46.46,0,0,0,.53.53h15.07Q525.25,413.58,528.46,410.63Z"/><path class="cls-4" d="M598.53,350.79a1.22,1.22,0,0,1,.9-.37h9.7a1.22,1.22,0,0,1,.9.37,1.2,1.2,0,0,1,.37.89V423a1.19,1.19,0,0,1-.37.9,1.22,1.22,0,0,1-.9.37h-9.38a1.52,1.52,0,0,1-1.48-.84L567.9,373.62q-.21-.31-.42-.27t-.21.48l.21,49.13a1.26,1.26,0,0,1-1.26,1.27h-9.71a1.26,1.26,0,0,1-1.26-1.27V351.68a1.26,1.26,0,0,1,1.26-1.26h9.39a1.52,1.52,0,0,1,1.48.84L597.64,401q.21.32.42.27t.21-.48l-.1-49.14A1.23,1.23,0,0,1,598.53,350.79Z"/><path class="cls-4" d="M662.16,422a22.33,22.33,0,0,1-9.27-8.7,25.07,25.07,0,0,1-3.27-13v-26a25.12,25.12,0,0,1,3.27-13,22,22,0,0,1,9.27-8.65,30.42,30.42,0,0,1,13.92-3.05,31,31,0,0,1,13.82,2.95,21.86,21.86,0,0,1,9.28,8.33,23.53,23.53,0,0,1,3.26,12.44,1.25,1.25,0,0,1-1.26,1.27l-9.7.52c-.85,0-1.27-.38-1.27-1.16a13.42,13.42,0,0,0-3.85-10q-3.84-3.81-10.28-3.8t-10.33,3.8a13.34,13.34,0,0,0-3.9,10v26.89a13.2,13.2,0,0,0,3.9,9.91,14.18,14.18,0,0,0,10.33,3.8q6.43,0,10.28-3.74a13.27,13.27,0,0,0,3.85-10c0-.77.42-1.16,1.27-1.16l9.7.42a1.36,1.36,0,0,1,.9.32,1,1,0,0,1,.36.74,24,24,0,0,1-3.26,12.6,21.71,21.71,0,0,1-9.28,8.38,31,31,0,0,1-13.82,3A29.81,29.81,0,0,1,662.16,422Z"/><path class="cls-4" d="M753.85,374.57q5.1,5.06,5.11,13.81V423a1.19,1.19,0,0,1-.37.9,1.21,1.21,0,0,1-.9.37H748a1.26,1.26,0,0,1-1.26-1.27v-32a11.22,11.22,0,0,0-2.74-7.85,9.37,9.37,0,0,0-7.28-3,9.67,9.67,0,0,0-7.33,2.95,10.9,10.9,0,0,0-2.79,7.8V423a1.26,1.26,0,0,1-1.27,1.27h-9.7a1.26,1.26,0,0,1-1.26-1.27V351.68a1.2,1.2,0,0,1,.37-.89,1.19,1.19,0,0,1,.89-.37h9.7a1.22,1.22,0,0,1,.9.37,1.24,1.24,0,0,1,.37.89V375a.42.42,0,0,0,.21.42c.14.07.25,0,.32-.21q4.32-5.7,13.07-5.7Q748.74,369.5,753.85,374.57Z"/><path class="cls-4" d="M801.67,370.72a1.19,1.19,0,0,1,.9-.37h9.59a1.22,1.22,0,0,1,.9.37,1.24,1.24,0,0,1,.37.89V423a1.26,1.26,0,0,1-1.27,1.27h-9.59A1.26,1.26,0,0,1,801.3,423v-3.37a.42.42,0,0,0-.21-.42q-.21-.1-.42.21-4.33,5.6-13,5.59a20,20,0,0,1-13.45-4.64q-5.43-4.63-5.43-13.18V371.61a1.2,1.2,0,0,1,.37-.89,1.22,1.22,0,0,1,.9-.37h9.7a1.19,1.19,0,0,1,.89.37,1.2,1.2,0,0,1,.37.89v32.06a11.56,11.56,0,0,0,2.59,7.91,9.08,9.08,0,0,0,7.22,2.95,10.06,10.06,0,0,0,7.59-2.95,10.92,10.92,0,0,0,2.85-7.91V371.61A1.2,1.2,0,0,1,801.67,370.72Z"/><path class="cls-4" d="M857.5,371.09a1.31,1.31,0,0,1,.63,1.58l-1.79,9.49c-.07.84-.56,1.09-1.48.74a11.4,11.4,0,0,0-3.69-.53,18,18,0,0,0-2.1.1,10.92,10.92,0,0,0-7.39,3.12,10.07,10.07,0,0,0-2.95,7.53V423a1.26,1.26,0,0,1-1.26,1.27h-9.71A1.26,1.26,0,0,1,826.5,423V371.61a1.2,1.2,0,0,1,.37-.89,1.19,1.19,0,0,1,.89-.37h9.71a1.26,1.26,0,0,1,1.26,1.26v4.75c0,.28,0,.44.16.47s.23-.05.37-.26a13.92,13.92,0,0,1,12.34-6.86A12.16,12.16,0,0,1,857.5,371.09Z"/><path class="cls-4" d="M871.26,420.91A21.67,21.67,0,0,1,863,409.68a47.44,47.44,0,0,1,0-25.1,20.46,20.46,0,0,1,8.17-11,24.43,24.43,0,0,1,14.08-4.06,25.12,25.12,0,0,1,14.34,4.12A19.57,19.57,0,0,1,907.75,384a20.46,20.46,0,0,1,.74,3.38v.21a1.21,1.21,0,0,1-1.16,1.26l-9.49,1.37h-.21a1.26,1.26,0,0,1-1.27-1.05,2.83,2.83,0,0,0-.11-.85q-.21-.84-.42-1.47A9.09,9.09,0,0,0,892,382a11.86,11.86,0,0,0-6.75-1.9,11.15,11.15,0,0,0-6.8,2.05,10,10,0,0,0-3.75,5.65,32.9,32.9,0,0,0-1,9.38,37.47,37.47,0,0,0,.95,9.39,11.05,11.05,0,0,0,3.79,5.85,10.76,10.76,0,0,0,6.86,2.16,11.54,11.54,0,0,0,6.9-2.06,9.2,9.2,0,0,0,3.75-5.53,1.19,1.19,0,0,0,.1-.53.43.43,0,0,0,.11-.32c.21-.84.7-1.19,1.48-1l9.49,1.48a1.79,1.79,0,0,1,.89.47,1.1,1.1,0,0,1,.27,1c-.22,1.13-.39,1.94-.53,2.43a18.8,18.8,0,0,1-8.12,10.7,25.81,25.81,0,0,1-14.34,4A23.69,23.69,0,0,1,871.26,420.91Z"/><path class="cls-4" d="M956,374.57q5.12,5.06,5.12,13.81V423a1.19,1.19,0,0,1-.37.9,1.22,1.22,0,0,1-.9.37h-9.7a1.26,1.26,0,0,1-1.26-1.27v-32a11.18,11.18,0,0,0-2.75-7.85,9.34,9.34,0,0,0-7.27-3,9.66,9.66,0,0,0-7.33,2.95,10.9,10.9,0,0,0-2.79,7.8V423a1.26,1.26,0,0,1-1.27,1.27h-9.7a1.25,1.25,0,0,1-1.26-1.27V351.68a1.25,1.25,0,0,1,1.26-1.26h9.7a1.22,1.22,0,0,1,.9.37,1.24,1.24,0,0,1,.37.89V375a.41.41,0,0,0,.21.42c.14.07.24,0,.31-.21q4.34-5.7,13.08-5.7Q950.93,369.5,956,374.57Z"/><path class="cls-4" d="M316.23,320.11v7.56a59.71,59.71,0,1,1-20.4,0v-7.56a67.18,67.18,0,1,0,20.4,0Z"/><polygon class="cls-4" points="300.9 340.36 306.03 336.81 311.15 340.36 311.15 314.37 320.46 314.37 320.46 305.7 311.15 305.7 311.15 296.38 300.9 296.38 300.9 305.7 291.59 305.7 291.59 314.37 300.9 314.37 300.9 340.36"/><path class="cls-4" d="M301.33,439.54c1.52.11,2.79.15,4,.15,1.73,0,3.55-.08,5.41-.26l.41,0v-21h4.41a.31.31,0,0,0,.31-.32v-8a.31.31,0,0,0-.31-.32h-4.41v-39.2a1.25,1.25,0,0,0-.54-1l-4.4-3.05a.33.33,0,0,0-.36,0l-4.4,3.05a1.26,1.26,0,0,0-.55,1v39.2h-4.41a.31.31,0,0,0-.31.32v8a.31.31,0,0,0,.31.32h4.41v21.08Z"/><path class="cls-4" d="M322.48,437.1A57.76,57.76,0,0,0,330.3,434l.25-.12V365a2.51,2.51,0,0,0-1.09-2.08l-23.25-16.1a.3.3,0,0,0-.36,0l-23.26,16.1A2.53,2.53,0,0,0,281.5,365v69.53l.27.12a55.81,55.81,0,0,0,7.82,2.85l.58.17V368.22l15.86-11,15.85,11v69.06Z"/><path class="cls-4" d="M340.56,428a20.86,20.86,0,0,0,7.85-16.46V396a16.55,16.55,0,0,0-8-14.11l-.69-.41v28.3H336.5a.31.31,0,0,0-.31.32v8a.31.31,0,0,0,.31.32h3.24V428.6Z"/><path class="cls-4" d="M271.5,428a20.87,20.87,0,0,1-7.86-16.46V396a16.55,16.55,0,0,1,8-14.11l.69-.41v28.3h3.24a.32.32,0,0,1,.32.32v8a.32.32,0,0,1-.32.32h-3.24V428.6Z"/></svg>