<svg id="Layer_1" data-name="Layer 1" xmlns="http://www.w3.org/2000/svg" viewBox="0 0 386 2966"><defs><style>.cls-1{fill:#161617;}.cls-2{fill:#fff;}.cls-3{fill:none;stroke:#000;stroke-miterlimit:10;stroke-width:1.05px;}</style></defs><polygon class="cls-1" points="252.14 643.45 245.16 636.47 231.39 650.25 217.61 636.47 210.64 643.45 231.39 664.2 231.39 664.2 231.39 664.2 252.14 643.45"/><path class="cls-1" d="M289.31,692.87a73.75,73.75,0,1,1,0-89.74l.2.26,28-10.61a102.8,102.8,0,1,0,0,110.44l-28-10.61Z"/><path class="cls-2" d="M230.8,576.41A71.59,71.59,0,1,0,286.71,692.7l-27.33-10.37a44.7,44.7,0,1,1,0-68.66l27.34-10.37A71.12,71.12,0,0,0,230.8,576.41Z"/><path class="cls-1" d="M237.45,1099.86s4.08-13.3-9.22-13.3-46.55,75.21-2,75.21c0,0,25.58,4.61,24.56-21,0,0,.84-11.85-17.4-20.47C212.86,1110.65,228.75,1083.49,237.45,1099.86Z"/><path class="cls-2" d="M226.84,1082.69s-2.47-1.52-2.47-5.92,2.82-4.33,2.82-4.33,2.88.14,2.61,4.88A6.3,6.3,0,0,1,226.84,1082.69Z"/><path class="cls-2" d="M190.44,1034.27s-7.73.31-14.24-9.45-.15-13.79-.15-13.79,6.6-3.95,13,7C194.47,1027.19,190.44,1034.27,190.44,1034.27Z"/><path class="cls-2" d="M119.2,1143.64s-1.64,5.46-9.14,6.88-8.46-4.27-8.46-4.27-.85-5.83,7.33-6.82A11,11,0,0,1,119.2,1143.64Z"/><path class="cls-2" d="M126.45,1135.85s-.85,2.85-4.77,3.59-4.42-2.23-4.42-2.23-.45-3,3.83-3.57A5.74,5.74,0,0,1,126.45,1135.85Z"/><path class="cls-2" d="M131.36,1124.41s-2.18,4.18-8.5,4.17-6.21-4.79-6.21-4.79.21-4.87,7-4.4A9.06,9.06,0,0,1,131.36,1124.41Z"/><path class="cls-2" d="M110,1127.67s-1.08,3.59-6,4.52-5.56-2.81-5.56-2.81-.57-3.84,4.82-4.49A7.22,7.22,0,0,1,110,1127.67Z"/><path class="cls-2" d="M121.3,1110.89s-1.4,4.67-7.83,5.89-7.23-3.65-7.23-3.65-.73-5,6.27-5.84A9.37,9.37,0,0,1,121.3,1110.89Z"/><path class="cls-2" d="M114.78,1096.1s-1.58,5.26-8.8,6.63-8.15-4.11-8.15-4.11-.82-5.62,7.06-6.57A10.56,10.56,0,0,1,114.78,1096.1Z"/><path class="cls-2" d="M112.33,1084s-4.42,2.48-10.09-1.25-2.77-8-2.77-8,3-4.25,8.9.16A9.78,9.78,0,0,1,112.33,1084Z"/><path class="cls-2" d="M129.47,1076.57s-7.35,2.81-15.22-4.19-2.47-12.83-2.47-12.83,5.65-5.86,13.63,2.25A15.14,15.14,0,0,1,129.47,1076.57Z"/><path class="cls-2" d="M110.61,1054.13s-6.13,1-11.11-5.64.12-10.32.12-10.32,5.3-3.64,10.19,3.9A11.93,11.93,0,0,1,110.61,1054.13Z"/><path class="cls-2" d="M132.91,1056.46s-4.58,1.92-9.68-2.34-1.81-8-1.81-8,3.45-3.8,8.64,1.15A9.55,9.55,0,0,1,132.91,1056.46Z"/><path class="cls-2" d="M143.28,1045.1s-7,1-12.47-6.63.36-11.69.36-11.69,6.07-4,11.47,4.63A13.53,13.53,0,0,1,143.28,1045.1Z"/><path class="cls-2" d="M164.44,1037.79s-5.61.61-9.79-5.68.64-9.36.64-9.36,5-3,9,4.06A10.85,10.85,0,0,1,164.44,1037.79Z"/><path class="cls-2" d="M201.53,1016.08s-3.84-.57-5.53-5.5,2.07-6.13,2.07-6.13,3.85-1.14,5.31,4.29A7.48,7.48,0,0,1,201.53,1016.08Z"/><path class="cls-2" d="M217.12,1006.68s-6.71-1.92-8.55-11.09,5.1-10.41,5.1-10.41,7.12-1.13,8.46,8.87A13.43,13.43,0,0,1,217.12,1006.68Z"/><path class="cls-2" d="M227.4,1027.84s-5.49-1.29-7.34-8.62,3.72-8.61,3.72-8.61,5.7-1.2,7.17,6.83A10.85,10.85,0,0,1,227.4,1027.84Z"/><path class="cls-2" d="M230.62,1006.45s-3.75-2.41-3.19-8.34,5-5.43,5-5.43,4.56.61,3.54,7A8.55,8.55,0,0,1,230.62,1006.45Z"/><path class="cls-2" d="M244.88,1017.76s-6.24-4.26-5-14.31,8.78-9,8.78-9,7.72,1.26,5.69,12A14.55,14.55,0,0,1,244.88,1017.76Z"/><path class="cls-2" d="M253.49,1033s-4.2-3.77-2.31-11.09,7.39-5.77,7.39-5.77,5.58,1.69,3,9.44A10.86,10.86,0,0,1,253.49,1033Z"/><path class="cls-2" d="M266.79,1043.69s-4.2-3.77-2.3-11.08,7.39-5.78,7.39-5.78,5.57,1.7,3,9.45A10.85,10.85,0,0,1,266.79,1043.69Z"/><path class="cls-2" d="M278.51,1023.81s-3.47-3.11-1.9-9.15,6.1-4.77,6.1-4.77,4.62,1.4,2.5,7.8A9,9,0,0,1,278.51,1023.81Z"/><path class="cls-2" d="M286.3,1039.57s-4-5-.39-12.88,9.41-5,9.41-5,5.93,3,1.53,11.17A12.38,12.38,0,0,1,286.3,1039.57Z"/><path class="cls-2" d="M301.79,1018.84s-1.83-2.2-.33-5.73,4.14-2.34,4.14-2.34,2.67,1.27.8,5A5.51,5.51,0,0,1,301.79,1018.84Z"/><path class="cls-2" d="M304.84,1034.86s-3.11-2.79-1.71-8.21,5.47-4.26,5.47-4.26,4.13,1.25,2.23,7A8,8,0,0,1,304.84,1034.86Z"/><path class="cls-2" d="M296.19,1050.09s-2.82-4.06.28-9.91,7.46-3.42,7.46-3.42,4.42,2.57.66,8.65A9.5,9.5,0,0,1,296.19,1050.09Z"/><path class="cls-2" d="M312.15,1049.51s-3.16-5.59,1.53-12.78,10.05-3.55,10.05-3.55,5.4,3.85-.16,11.27A12.36,12.36,0,0,1,312.15,1049.51Z"/><path class="cls-2" d="M314.7,1071.15s-2.08-7.44,5.48-14.5,12.77-1.24,12.77-1.24,5.21,6.06-3.44,13.13A14.87,14.87,0,0,1,314.7,1071.15Z"/><path class="cls-2" d="M331.87,1074.78s-1-3.87,3-7.46,6.62-.53,6.62-.53,2.65,3.18-1.89,6.76A7.69,7.69,0,0,1,331.87,1074.78Z"/><path class="cls-2" d="M316.89,1092.4s0-5.81,6.9-9.38,9.49,1.68,9.49,1.68,2.54,5.44-5.14,8.8A11.18,11.18,0,0,1,316.89,1092.4Z"/><path class="cls-2" d="M336.26,1096.05s-1.12-4.44,3.47-8.51,7.59-.53,7.59-.53,3,3.67-2.24,7.72A8.82,8.82,0,0,1,336.26,1096.05Z"/><path class="cls-2" d="M332.74,1105.54s1.68-4.4,8-5.11,6.72,4,6.72,4,.34,4.87-6.47,5.18A9,9,0,0,1,332.74,1105.54Z"/><path class="cls-2" d="M323.52,1122.43s1.69-4.41,8-5.12,6.71,4,6.71,4,.35,4.86-6.46,5.18A9.09,9.09,0,0,1,323.52,1122.43Z"/><path class="cls-2" d="M321.38,1139.64s2.78-5.77,11.37-6,8.64,6.24,8.64,6.24-.07,6.63-9.35,6.28A12.35,12.35,0,0,1,321.38,1139.64Z"/><path class="cls-2" d="M137.7,1156.57s-2.26,7-12,8.68-10.85-5.73-10.85-5.73-1-7.58,9.67-8.67A14.24,14.24,0,0,1,137.7,1156.57Z"/><path class="cls-2" d="M136.79,1142s-1,3.36-5.64,4.24-5.21-2.63-5.21-2.63-.53-3.6,4.52-4.21A6.76,6.76,0,0,1,136.79,1142Z"/><path class="cls-2" d="M144,1131.56s-1.17,3.31-5.84,4-5.08-2.88-5.08-2.88-.35-3.62,4.72-4A6.78,6.78,0,0,1,144,1131.56Z"/><path class="cls-2" d="M143,1111.72s-3.56,4.45-11,3-6.26-7.12-6.26-7.12,1.39-5.73,9.35-3.59A11,11,0,0,1,143,1111.72Z"/><path class="cls-2" d="M133.19,1093.32s-3.55,4.38-10.92,2.87-6.13-7.07-6.13-7.07,1.4-5.64,9.24-3.48A10.82,10.82,0,0,1,133.19,1093.32Z"/><path class="cls-2" d="M153,1101.24s-2.25,2.71-6.85,1.7-3.78-4.45-3.78-4.45.92-3.52,5.81-2.12A6.79,6.79,0,0,1,153,1101.24Z"/><path class="cls-2" d="M157.56,1086.46s-4.87,5.27-14.13,2.72-7.19-9.49-7.19-9.49,2.26-7.07,12-3.65A13.78,13.78,0,0,1,157.56,1086.46Z"/><path class="cls-2" d="M162.65,1074.88s-2.36,2.6-6.91,1.39-3.57-4.63-3.57-4.63,1.08-3.48,5.9-1.84A6.75,6.75,0,0,1,162.65,1074.88Z"/><path class="cls-2" d="M153.43,1064.81s-3.84,4.22-11.22,2.26-5.78-7.51-5.78-7.51,1.76-5.63,9.57-3A11,11,0,0,1,153.43,1064.81Z"/><path class="cls-2" d="M164.68,1060.45s-7.16,2.23-14.23-4.9-1.57-12.36-1.57-12.36,5.73-5.22,12.83,3A14.42,14.42,0,0,1,164.68,1060.45Z"/><path class="cls-2" d="M180,1062.76s-3.77.69-6.9-3.38,0-6.35,0-6.35,3.23-2.29,6.32,2.31A7.36,7.36,0,0,1,180,1062.76Z"/><path class="cls-2" d="M182.86,1049.46s-5,.17-8.26-5.65,1.17-8.2,1.17-8.2,4.59-2.35,7.71,4.16A9.59,9.59,0,0,1,182.86,1049.46Z"/><path class="cls-2" d="M205.51,1056.56s-7.75.83-13.5-7.87.9-12.92.9-12.92,6.9-4.16,12.48,5.63A15,15,0,0,1,205.51,1056.56Z"/><path class="cls-2" d="M209.22,1037.53s-5.72-.33-8.85-7.34,2.2-9.27,2.2-9.27,5.51-2.19,8.39,5.59A11,11,0,0,1,209.22,1037.53Z"/><path class="cls-2" d="M219.27,1040s-3.33-1.54-3.56-6.46,3.5-5,3.5-5,3.8,0,3.69,5.31A7.09,7.09,0,0,1,219.27,1040Z"/><path class="cls-2" d="M228.5,1051.62s-4.2-3.36-2.8-10.42,6.7-5.9,6.7-5.9,5.41,1.31,3.4,8.82A10.36,10.36,0,0,1,228.5,1051.62Z"/><path class="cls-2" d="M238.22,1035.76s-4.2-3.36-2.81-10.42,6.72-5.9,6.72-5.9,5.4,1.3,3.39,8.81A10.34,10.34,0,0,1,238.22,1035.76Z"/><path class="cls-2" d="M245.39,1048.55s-4.21-3.35-2.81-10.42,6.71-5.9,6.71-5.9,5.4,1.3,3.39,8.81A10.35,10.35,0,0,1,245.39,1048.55Z"/><path class="cls-2" d="M256.48,1057.43s-3.51-2.8-2.34-8.69,5.59-4.92,5.59-4.92,4.51,1.09,2.83,7.36A8.63,8.63,0,0,1,256.48,1057.43Z"/><path class="cls-2" d="M264.69,1071.68s-4.6-5.06-1.4-13.64,9.61-6,9.61-6,6.52,2.74,2.47,11.75A13.17,13.17,0,0,1,264.69,1071.68Z"/><path class="cls-2" d="M279.19,1051s-3.11-2.48-2.08-7.71,5-4.37,5-4.37,4,1,2.51,6.52A7.68,7.68,0,0,1,279.19,1051Z"/><path class="cls-2" d="M283.94,1063.68s-3-4,0-10,7.38-3.67,7.38-3.67,4.52,2.45.94,8.67A9.56,9.56,0,0,1,283.94,1063.68Z"/><path class="cls-2" d="M299.15,1068s-2.55-4.73,1.52-10.68,8.49-2.78,8.49-2.78,4.45,3.32-.35,9.44A10.34,10.34,0,0,1,299.15,1068Z"/><path class="cls-2" d="M292.49,1092s-2.23-6.93,4.64-13.85,12-1.62,12-1.62,5.12,5.52-2.78,12.48A14,14,0,0,1,292.49,1092Z"/><path class="cls-2" d="M297.5,1103.18s-.53-5.36,5.5-9.29,8.91.68,8.91.68,2.84,4.78-3.94,8.59A10.36,10.36,0,0,1,297.5,1103.18Z"/><path class="cls-2" d="M311.23,1109.76s1.33-4.7,7.74-6,7.3,3.55,7.3,3.55.81,5-6.19,5.93A9.38,9.38,0,0,1,311.23,1109.76Z"/><path class="cls-2" d="M300.4,1129.58s3.1-6.36,12.57-6.59,9.51,6.94,9.51,6.94-.13,7.31-10.36,6.88A13.59,13.59,0,0,1,300.4,1129.58Z"/><path class="cls-2" d="M302.61,1149.26s1.5-5.16,8.57-6.55,8,4,8,4,.84,5.49-6.87,6.48A10.32,10.32,0,0,1,302.61,1149.26Z"/><path class="cls-2" d="M284.78,1085.39s-4.2-3.36-2.8-10.42,6.71-5.9,6.71-5.9,5.4,1.3,3.39,8.81A10.34,10.34,0,0,1,284.78,1085.39Z"/><path class="cls-2" d="M234.38,1071.63s-3-1.61-3-6.31,3.4-4.62,3.4-4.62,3.4.14,3.15,5.21S234.38,1071.63,234.38,1071.63Z"/><path class="cls-2" d="M245.05,1074.24s-5-4.11-3.22-12.86,8-7.35,8-7.35,6.27,1.54,3.93,10.88S245.05,1074.24,245.05,1074.24Z"/><path class="cls-2" d="M239.11,1054a3.74,3.74,0,0,1-.92-3.64c.5-2.47,2.28-2.08,2.28-2.08s1.78.44,1.12,3.08S239.11,1054,239.11,1054Z"/><path class="cls-2" d="M268.68,1084s-1.83-4.49,2.42-9.68,7.95-2,7.95-2,3.62,3.24-1.24,8.6S268.68,1084,268.68,1084Z"/><path class="cls-2" d="M251.29,1084.51s-1.83-4.49,2.42-9.68,7.94-2,7.94-2,3.63,3.25-1.24,8.62S251.29,1084.51,251.29,1084.51Z"/><path class="cls-2" d="M259.66,1093.46s-1.36-3.33,1.79-7.17,5.88-1.5,5.88-1.5,2.68,2.4-.92,6.38S259.66,1093.46,259.66,1093.46Z"/><path class="cls-2" d="M271.21,1102.21s-2.38-5.84,3.15-12.6S284.7,1087,284.7,1087s4.72,4.22-1.62,11.21S271.21,1102.21,271.21,1102.21Z"/><path class="cls-2" d="M282.65,1106.45s.05-4.07,5.05-6.69,6.8,1,6.8,1,1.74,3.7-3.78,6.25S282.65,1106.45,282.65,1106.45Z"/><path class="cls-2" d="M292.69,1112.13s1.59-3.75,7.2-4.27,5.9,3.54,5.9,3.54.2,4.08-5.87,4.34S292.69,1112.13,292.69,1112.13Z"/><path class="cls-2" d="M278.06,1119.52s1-3.67,6.15-4.84,5.89,2.56,5.89,2.56.69,3.75-4.9,4.74S278.06,1119.52,278.06,1119.52Z"/><path class="cls-2" d="M294.6,1124s.33-3.63,5-5.63,6,1.39,6,1.39,1.3,3.41-3.8,5.32S294.6,1124,294.6,1124Z"/><path class="cls-2" d="M284.19,1128.58s1.9-3,6.81-2.67,4.59,3.89,4.59,3.89-.4,3.54-5.67,2.92S284.19,1128.58,284.19,1128.58Z"/><path class="cls-2" d="M273.33,1140.59s2.37-4.22,9.09-4.1,6.52,5,6.52,5-.3,4.85-7.53,4.37S273.33,1140.59,273.33,1140.59Z"/><path class="cls-2" d="M291.93,1141.14s1.36-2.48,5.28-2.46,3.83,2.86,3.83,2.86-.14,2.83-4.36,2.6S291.93,1141.14,291.93,1141.14Z"/><path class="cls-2" d="M281.24,1153.5s1.8-3.37,7.07-3.4,5.23,3.78,5.23,3.78-.14,3.82-5.83,3.58S281.24,1153.5,281.24,1153.5Z"/><path class="cls-2" d="M161.09,1161.64s-1.42,4.44-7.58,5.48-6.84-3.62-6.84-3.62-.61-4.78,6.09-5.46A9,9,0,0,1,161.09,1161.64Z"/><path class="cls-2" d="M151.71,1151.4s-1.88,3.37-7,3.2-4.95-4-4.95-4,.28-4,5.83-3.43A7.43,7.43,0,0,1,151.71,1151.4Z"/><path class="cls-2" d="M150.66,1141.37s-2.2,2.61-6.67,1.61-3.65-4.37-3.65-4.37.92-3.41,5.67-2A6.58,6.58,0,0,1,150.66,1141.37Z"/><path class="cls-2" d="M168.45,1134.41s-1.07,5.45-8.22,7.53-8.6-3.35-8.6-3.35-1.38-5.58,6.47-7.31A10.69,10.69,0,0,1,168.45,1134.41Z"/><path class="cls-2" d="M174.37,1125.7s-1.78,3.88-7.5,4.15-5.82-4-5.82-4,0-4.41,6.14-4.29A8.21,8.21,0,0,1,174.37,1125.7Z"/><path class="cls-2" d="M158.9,1121.93s-.9,4.57-6.89,6.32-7.22-2.81-7.22-2.81-1.16-4.68,5.43-6.13A9,9,0,0,1,158.9,1121.93Z"/><path class="cls-2" d="M166.82,1118.65s-5.61,3-12.62-1.84-3.27-10-3.27-10,3.95-5.26,11.15.44A12.25,12.25,0,0,1,166.82,1118.65Z"/><path class="cls-2" d="M172.32,1097s-2.48,3.94-8.71,3.41-5.72-5.22-5.72-5.22.6-4.78,7.27-3.77A9,9,0,0,1,172.32,1097Z"/><path class="cls-2" d="M173.2,1086.05s-3,2.83-8.17,1-3.76-5.7-3.76-5.7,1.55-4,7-1.64A7.89,7.89,0,0,1,173.2,1086.05Z"/><path class="cls-2" d="M175.83,1075.42s-5.24,1.76-10.57-3.38-1.36-9.09-1.36-9.09,4.14-4,9.51,2A10.66,10.66,0,0,1,175.83,1075.42Z"/><path class="cls-2" d="M190.68,1086.64s-4.66-.3-7.17-6,1.85-7.52,1.85-7.52,4.49-1.76,6.78,4.58A9,9,0,0,1,190.68,1086.64Z"/><path class="cls-2" d="M198.88,1072.72s-6.19,1.27-11.53-5.31-.28-10.51-.28-10.51,5.25-3.91,10.52,3.57A12.18,12.18,0,0,1,198.88,1072.72Z"/><path class="cls-2" d="M212.9,1074.15s-4.56-1-6.18-7,3-7.16,3-7.16,4.7-1,6,5.56A9,9,0,0,1,212.9,1074.15Z"/><path class="cls-2" d="M215.75,1056.26s-3.38-.72-4.61-5.19,2.16-5.32,2.16-5.32,3.49-.81,4.49,4.09A6.64,6.64,0,0,1,215.75,1056.26Z"/><path class="cls-2" d="M224.61,1065.9s-3.93-1.39-4.69-6.9,3.41-6,3.41-6,4.28-.42,4.71,5.58A8,8,0,0,1,224.61,1065.9Z"/><path class="cls-2" d="M213.79,1094.58s-5.84.87-11.6-6-1.26-10.45-1.26-10.45,4.68-3.54,10.46,4.21C216.25,1088.86,213.79,1094.58,213.79,1094.58Z"/><path class="cls-2" d="M240.92,1100.73s-1.37-5.78,4.6-10.86,9.79-.42,9.79-.42,3.8,4.86-3,9.9A11.3,11.3,0,0,1,240.92,1100.73Z"/><path class="cls-2" d="M239.39,1120.53s-1-4.33,3.45-8.15,7.35-.31,7.35-.31,2.85,3.64-2.26,7.43A8.48,8.48,0,0,1,239.39,1120.53Z"/><path class="cls-2" d="M253.52,1108.6s-1.09-4.59,3.65-8.62,7.78-.33,7.78-.33,3,3.84-2.4,7.85A9,9,0,0,1,253.52,1108.6Z"/><path class="cls-2" d="M268.2,1113.87s-1-4.32,3.43-8.12,7.32-.31,7.32-.31,2.84,3.62-2.25,7.39A8.45,8.45,0,0,1,268.2,1113.87Z"/><path class="cls-2" d="M258.29,1121.5s.82-3.69,5.65-5,5.71,2.47,5.71,2.47.83,3.83-4.46,4.83A7.17,7.17,0,0,1,258.29,1121.5Z"/><path class="cls-2" d="M248.5,1126.18a5,5,0,0,1,3-4.19c3-1.6,4.21.76,4.21.76s1.16,2.43-2.23,3.93A4.94,4.94,0,0,1,248.5,1126.18Z"/><path class="cls-2" d="M251.47,1135s.14-4.06,5-6.34,6.53,1.49,6.53,1.49,1.63,3.88-3.76,6A7.74,7.74,0,0,1,251.47,1135Z"/><path class="cls-2" d="M266.37,1131.4s.83-3.52,5.46-4.65,5.42,2.45,5.42,2.45.74,3.67-4.33,4.55A6.87,6.87,0,0,1,266.37,1131.4Z"/><path class="cls-2" d="M254.07,1144.86s2.1-4.71,8.91-5.06,7,4.88,7,4.88.06,5.34-7.29,5.23A9.82,9.82,0,0,1,254.07,1144.86Z"/><path class="cls-2" d="M249.86,1155.78s1.94-2.52,6.07-1.76,3.47,3.93,3.47,3.93-.73,3.21-5.12,2.09A6.05,6.05,0,0,1,249.86,1155.78Z"/><path class="cls-2" d="M266.11,1156.44s2.4-3.12,7.51-2.18,4.3,4.87,4.3,4.87-.91,4-6.35,2.58A7.48,7.48,0,0,1,266.11,1156.44Z"/><path class="cls-2" d="M205.62,1106.22s-4.66,1.65-10.48-3.08-2.71-8.38-2.71-8.38,3.29-3.66,9.27,1.78C206.74,1101.13,205.62,1106.22,205.62,1106.22Z"/><path class="cls-2" d="M206.4,1116.85s-3.24,3.05-9.76,1.25-5.26-5.94-5.26-5.94,1.39-4.2,8.29-1.87C205.48,1112.25,206.4,1116.85,206.4,1116.85Z"/><path class="cls-2" d="M203.21,1156.46s-.91,3.19-6.19,5.07-6.23-1-6.23-1-.89-3,4.9-4.78C200.56,1154.24,203.21,1156.46,203.21,1156.46Z"/><path class="cls-2" d="M198.6,1145.08s-1.62,5.2-9.63,7.2-9.16-3.14-9.16-3.14-1.06-5.31,7.68-7C194.85,1140.74,198.6,1145.08,198.6,1145.08Z"/><path class="cls-2" d="M185,1159.88s-1.22,3.91-7.24,5.42-6.9-2.38-6.9-2.38-.8-4,5.78-5.25C182.19,1156.61,185,1159.88,185,1159.88Z"/><path class="cls-2" d="M175.52,1146.45s-1.14,5.76-8.69,8-9.08-3.54-9.08-3.54-1.45-5.89,6.83-7.71A11.29,11.29,0,0,1,175.52,1146.45Z"/><path class="cls-2" d="M183.23,1135.2s-1.33,3-6.3,3.71-5.33-2.51-5.33-2.51-.29-3.28,5.11-3.71A7.2,7.2,0,0,1,183.23,1135.2Z"/><path class="cls-2" d="M201.67,1136.31s-1.72,2.94-6.91,3-5.16-3.22-5.16-3.22.11-3.4,5.69-3.18C200,1133.12,201.67,1136.31,201.67,1136.31Z"/><path class="cls-2" d="M195,1128.93s-4.71,3.56-13.05.27-6.1-8.56-6.1-8.56,2.41-5.35,11.19-1.31C194.43,1122.72,195,1128.93,195,1128.93Z"/><path class="cls-2" d="M188.24,1111.72s-4.46,3-11.86-.4-5.12-8.08-5.12-8.08,2.45-4.74,10.23-.63C188,1106.06,188.24,1111.72,188.24,1111.72Z"/><path class="cls-2" d="M188.1,1097.51s-4.25,1.73-9.86-2.39-2.88-7.65-2.88-7.65,2.88-3.54,8.67,1.24C188.91,1092.73,188.1,1097.51,188.1,1097.51Z"/><path class="cls-2" d="M222.2,1083.54s-2.14-.14-3.65-3,.35-3.81.35-3.81,1.86-.86,3.39,2.3A4.85,4.85,0,0,1,222.2,1083.54Z"/><path class="cls-2" d="M231.48,1083.09s-1-2.79,1.78-6.33,5-1.68,5-1.68,2.4,2.12-1,5.59A7.18,7.18,0,0,1,231.48,1083.09Z"/><path class="cls-1" d="M229.6,1162.48s2.56,15.84-1.37,19.77c-.34.34-1.87,3.74,3.08,1.53s9.71,2.91,10.22,1.71-9.37-12.57-9.37-23Z"/><path class="cls-1" d="M218.31,1162.48s-1.93,16.25,1,20.41c.25.36,1.41,3.69-2.32,1.34s-7.32,3.5-7.7,2.24,7.06-13.55,7.06-24Z"/><polygon class="cls-2" points="126.64 236.72 111.28 230.03 99.11 258.08 126.23 269.88 132.91 254.53 121.12 249.41 126.64 236.72"/><path class="cls-1" d="M216.77,192.1a12.39,12.39,0,0,1,6.25-1.32,21.62,21.62,0,0,1,17.72,8.12l9.33-12a35.63,35.63,0,0,0-12.26-8.07,44,44,0,0,0-15.25-2.39A38.7,38.7,0,0,0,207.64,179a21.07,21.07,0,0,0-9.51,7.28A18.17,18.17,0,0,0,194.86,197q0,6.42,3.35,10.3a21,21,0,0,0,8.45,5.84,74.64,74.64,0,0,0,12.54,3.35,42.5,42.5,0,0,1,8,2.05c1.65.69,2.47,1.61,2.47,2.79,0,2.74-2.83,4.1-8.48,4.11a28.38,28.38,0,0,1-10.87-1.91,22.09,22.09,0,0,1-8.34-6.3l-8.86,13.06a36.23,36.23,0,0,0,12.13,7.23q6.51,2.3,17.15,2.29a39.19,39.19,0,0,0,13.71-2.25,21.56,21.56,0,0,0,9.6-6.62,16.19,16.19,0,0,0,3.54-10.55,17.82,17.82,0,0,0-2.46-9.69,18.24,18.24,0,0,0-7.83-6.48,57.15,57.15,0,0,0-14.33-4.15,46.42,46.42,0,0,1-7.74-2c-1.55-.61-2.32-1.48-2.32-2.61A3.88,3.88,0,0,1,216.77,192.1Z"/><path class="cls-2" d="M218.8,294.8c-5.93,2.6-9.73,3.65-13.11,3.65h-.55a13.48,13.48,0,0,1-2.59-.36c-5-1.22-8.54-4.93-12-12.43l-16.08-35.27c-3.77-8.27-9.79-12.58-19.53-14l-1.39-.22.78-1.15c5.42-8.07,6.11-15.45,2.25-23.92l-16.07-35.26c-3.42-7.5-3.89-12.64-1.55-17.19,2.19-4.25,6.84-7.12,13.15-10.14l1.51-.73-6.22-13.65-1.56.7c-14.05,6.41-21.14,11.68-24.47,18.21-3.79,7.44-2.77,16.69,3.3,30l16.07,35.25a18.33,18.33,0,0,1,1.12,8.61,11.63,11.63,0,0,1-5.49,9.11l-1.23.8L141,249.72l1.38-.34a13.44,13.44,0,0,1,3.75-.41,13,13,0,0,1,6.83,2.32,18.29,18.29,0,0,1,5.68,6.31l16.08,35.26c6.07,13.32,12.38,20.15,20.5,22.17a21.55,21.55,0,0,0,4.3.59l.94,0c6.16,0,13.72-2.21,24.55-7.14l1.55-.71-6.22-13.67Z"/><path class="cls-2" d="M305.89,197a18,18,0,0,1-1.06-8.29,12.67,12.67,0,0,1,5.52-9.39l1.16-.81-5.86-12.85-1.4.39a12.64,12.64,0,0,1-4,.51,11.93,11.93,0,0,1-6.63-2.4,18.29,18.29,0,0,1-5.67-6.42L271.91,122.5c-6.21-13.59-12.28-20.25-20.33-22.25-7.11-1.77-15.7.11-30,6.61l-1.55.71,6.22,13.67,1.54-.67c6.28-2.72,10.24-3.77,13.68-3.63a12.07,12.07,0,0,1,2.59.36c5,1.2,8.55,4.92,12,12.43L272.15,165c3.86,8.47,9.87,12.79,19.53,14l1.4.19-.76,1.18c-5.35,8.26-6.05,15.63-2.27,23.92l16.08,35.26c3.42,7.48,3.87,12.62,1.54,17.19-2.19,4.24-6.83,7.11-13.15,10.13l-1.51.72,6.23,13.65,1.55-.71c14-6.37,21.36-11.84,24.65-18.28,3.76-7.38,2.72-16.33-3.48-29.93Z"/><polygon class="cls-2" points="318.96 145.02 312.66 160.54 324.57 165.37 319.36 178.19 334.88 184.48 346.38 156.16 318.96 145.02"/><path class="cls-1" d="M266.45,290.09q-2.51,2.22-7.24,2.23-11.71,0-11.73-17.42c0-5.8,1-10.14,3.08-13a10.19,10.19,0,0,1,8.84-4.35c3,0,5.33.72,6.91,2.13s2.71,4.06,3.4,7.89l16.74-6.7a20.43,20.43,0,0,0-9.55-13.58q-7.47-4.49-18.06-4.49a34.19,34.19,0,0,0-16.65,3.83,26.12,26.12,0,0,0-10.78,11.07,41.41,41.41,0,0,0,0,34.57,25.7,25.7,0,0,0,10.83,11.08,35.17,35.17,0,0,0,16.69,3.78q10.89,0,18.21-4.75T287,287.58L269.8,283C269.24,286.23,268.12,288.62,266.45,290.09Z"/><polygon class="cls-1" points="172.49 176.71 174.87 176.71 192.19 176.71 193.92 176.71 193.92 133.2 212.75 133.2 212.75 113.07 156.26 113.07 156.26 133.2 172.49 133.2 172.49 176.71"/><rect class="cls-1" x="136.02" y="1560.76" width="173.44" height="28.83"/><polygon class="cls-1" points="309.46 1473.77 136.03 1473.76 136.03 1444.92 222.68 1416.06 309.46 1444.93 309.46 1473.77"/><rect class="cls-1" x="136.03" y="1503.01" width="74.25" height="28.84"/><rect class="cls-1" x="235.21" y="1503.01" width="74.25" height="28.83"/><path class="cls-1" d="M312.88,2364.38c2.26-15.2-2.9-16.61-7.66-17.65-10.79-2.35-37.9,6-56.76,89-7.07,35.69-12.67,62.52,15.2,62.52,47.74,0,49.23-38,49.78-38s5.57-.68,5.57,4.39c0,34.13-49.05,43.39-49.05,43.39-62.29,12.41-83.62-44-83.62-67.51,0-33,21.36-106,106.66-106,2.58,0,35.46,2.78,30.17,28.62C320.06,2378.43,312.88,2364.38,312.88,2364.38Z"/><path class="cls-2" d="M137.48,2491.77c6.07,8.09,19.21,8.47,29.33.86s13.44-20.32,7.37-28.4-19.19-8.47-29.33-.86S131.42,2483.69,137.48,2491.77Z"/><path class="cls-2" d="M122.15,2425.17c2.35,9.84,14.25,15.4,26.57,12.45s20.4-13.31,18-23.14-14.25-15.4-26.57-12.45S119.79,2415.35,122.15,2425.17Z"/><path class="cls-2" d="M135.38,2349c-5,8.81,0,21,11,27.2s24,4.12,29-4.69,0-21-11-27.2S140.34,2340.16,135.38,2349Z"/><path class="cls-2" d="M184.09,2303.13c-8.21,5.89-8.86,19-1.48,29.31s20,13.85,28.25,8,8.87-19,1.48-29.31S192.31,2297.24,184.09,2303.13Z"/><path class="cls-2" d="M227,1936.91a4.4,4.4,0,0,1-1.58,1.36,6.12,6.12,0,0,1-2,.65,14.62,14.62,0,0,1-2,.15h-3.53v-8.64h4.28a17,17,0,0,1,1.81.11,5.38,5.38,0,0,1,1.8.54,3.46,3.46,0,0,1,1.36,1.25,4.31,4.31,0,0,1,.52,2.27A3.79,3.79,0,0,1,227,1936.91Z"/><path class="cls-1" d="M161.9,2787.1c13.46-12.83,29.39-23.43,46.82-29a102.47,102.47,0,0,1,26.45-4.75,123.14,123.14,0,0,1,13.18.19,84.83,84.83,0,0,1,13.09,1.72c17.18,3.82,32.7,12.45,46.47,23.4A90.65,90.65,0,0,0,133.11,2821,224.32,224.32,0,0,1,161.9,2787.1Z"/><path class="cls-1" d="M298.41,2791.65a61.34,61.34,0,0,0-17-15.72,56,56,0,0,0-21.72-7.75,67.92,67.92,0,0,0-23.1.59,68.7,68.7,0,0,0-21.31,7.8c-13.08,7.41-23.08,19-29.86,32.14s-10.69,28-12.25,43a154.64,154.64,0,0,0,1.11,38.84,90.65,90.65,0,0,0,138.68-63.11A79.53,79.53,0,0,0,298.41,2791.65Z"/><path class="cls-2" d="M342,1964a27.32,27.32,0,0,1-3.3,13.41,39.1,39.1,0,0,1-6.91,9.13,69.18,69.18,0,0,1-15.18,11.1,151.33,151.33,0,0,1-30.92,12.51,218.89,218.89,0,0,1-63,8.1c-21.05-.34-42.11-2.71-62.94-8.33a146.23,146.23,0,0,1-31-12.14,67.2,67.2,0,0,1-15.22-11.13,39.25,39.25,0,0,1-6.86-9.21,27.36,27.36,0,0,1-3.24-13.44,26.32,26.32,0,0,1,4-13,36,36,0,0,1,7.28-8.39,63.28,63.28,0,0,1,15.55-9.36,114.63,114.63,0,0,1,14-5l7.76,18.66a98.08,98.08,0,0,0-12.13,5.69,39,39,0,0,0-9.33,7.06,11.31,11.31,0,0,0-2.12,3.18c-.32.84-.16,1.14,0,1.22s.27.2.77.8a18.72,18.72,0,0,0,2.53,2.36,45.06,45.06,0,0,0,9.68,5.29c7.63,3.24,16.52,5.42,25.5,7.1a294.16,294.16,0,0,0,55.88,4.17c9.42-.15,18.83-.53,28.16-1.23,4.66-.36,9.33-.7,13.93-1.28s9.22-1.09,13.73-1.89a121.56,121.56,0,0,0,25.62-6.73,42.52,42.52,0,0,0,9.72-5.32,17.58,17.58,0,0,0,2.49-2.43c.48-.63.57-.76.7-.84s.24-.36-.1-1.18a11.63,11.63,0,0,0-2.15-3.11,41.06,41.06,0,0,0-9.3-7,104.14,104.14,0,0,0-16-7.36l6.84-18.41a119.43,119.43,0,0,1,18.88,6.17,61.36,61.36,0,0,1,15.6,9.39,36.33,36.33,0,0,1,7.24,8.46A26.5,26.5,0,0,1,342,1964Z"/><path class="cls-1" d="M292.46,1851.28c-10.08,0-20.62,3-20.62,11v.23c0,7.33,7.56,8.7,3.21,22L265,1915.65l-16-51.54c-3-10.08-4.81-12.83-15.12-12.83-10.08,0-11.91,3.67-14.2,10.31l-19.24,56.35-11.91-35c-3.44-10.3,3.66-14,3.66-21.76v-.46c0-8.47-15.57-9.39-32.3-9.39-20.61,0-30.69,3-30.69,11.69v.45c0,10.08,10.08,14.21,14.43,25l26.11,62.77c4.13,9.85,8.25,13,20.39,13,12.83,0,14.2-5.49,18.33-16.49l13.51-34.82,12.83,38.26c3.44,10.08,7.33,13,19.47,13,12.6,0,14.43-5.49,18.56-16.49l23.13-62.31c4.13-10.76,15.81-15.8,15.81-23.59v-.23C311.7,1854.26,301.85,1851.28,292.46,1851.28Z"/><path d="M25.79,40.84V60.19H23.27v-15l-3.63,0V43.74l.65-.21a10,10,0,0,0,2.24-1,6.18,6.18,0,0,0,1.58-1.43l.24-.29Z"/><path d="M37.16,60.45A8.06,8.06,0,0,1,34.35,60a5.87,5.87,0,0,1-1.91-1.11,5.79,5.79,0,0,1-1.18-1.44A6.73,6.73,0,0,1,30.64,56a9.78,9.78,0,0,1-.3-1.54h2.4a5.53,5.53,0,0,0,.33,1.32,4.3,4.3,0,0,0,.69,1.13,3.86,3.86,0,0,0,1.3.94,5.09,5.09,0,0,0,2.1.38,4.44,4.44,0,0,0,2.51-.66,4.12,4.12,0,0,0,1.49-1.67,4.88,4.88,0,0,0,.5-2.15,5.2,5.2,0,0,0-.5-2.21,4.08,4.08,0,0,0-3.89-2.39,4.27,4.27,0,0,0-1.89.37,4,4,0,0,0-1.19.83,5.51,5.51,0,0,0-.79,1.21H30.88L32.4,40.84H42.81v2.27h-8.5l-.78,5.55h.08a5.75,5.75,0,0,1,.79-.72,4.85,4.85,0,0,1,1.27-.66,6.1,6.1,0,0,1,2-.27,6.27,6.27,0,0,1,3.59,1A6.44,6.44,0,0,1,43.4,50.5a7.26,7.26,0,0,1,.75,3.23,7.17,7.17,0,0,1-.44,2.46,6.44,6.44,0,0,1-1.29,2.16,6.53,6.53,0,0,1-2.17,1.53A7.68,7.68,0,0,1,37.16,60.45Z"/><path d="M49.66,60.45a1.59,1.59,0,0,1-1.21-.51,1.7,1.7,0,0,1,0-2.39,1.61,1.61,0,0,1,1.21-.5,1.64,1.64,0,0,1,1.22.5,1.66,1.66,0,0,1,.48,1.2A1.68,1.68,0,0,1,50.88,60,1.63,1.63,0,0,1,49.66,60.45Z"/><line class="cls-3" x1="16.49" y1="14.16" x2="378.43" y2="13.64"/><path d="M25.79,474.75V494.1H23.27v-15l-3.63,0v-1.47l.65-.21a10,10,0,0,0,2.24-1A6,6,0,0,0,24.11,475l.24-.29Z"/><path d="M37.87,494.36a7,7,0,0,1-3.23-.7,6.18,6.18,0,0,1-2.26-2,8.73,8.73,0,0,1-1.33-2.84,13.09,13.09,0,0,1-.43-3.35,14.9,14.9,0,0,1,.32-3,13.18,13.18,0,0,1,1-3A9.15,9.15,0,0,1,33.7,477a8.27,8.27,0,0,1,2.69-1.81,9.22,9.22,0,0,1,3.7-.68,11.89,11.89,0,0,1,1.53.09,13.64,13.64,0,0,1,1.53.3v2.35c-.63-.14-1.18-.24-1.66-.3a11.64,11.64,0,0,0-1.45-.09,7,7,0,0,0-2.73.48,5.69,5.69,0,0,0-1.91,1.29,6.48,6.48,0,0,0-1.23,1.72,8.31,8.31,0,0,0-.67,1.83,7.84,7.84,0,0,0-.23,1.56,4.4,4.4,0,0,1,.73-.86,5.06,5.06,0,0,1,1.54-1,6.36,6.36,0,0,1,2.54-.44,6.31,6.31,0,0,1,3.55.93,5.86,5.86,0,0,1,2.14,2.39,6.86,6.86,0,0,1,.72,3.08,7,7,0,0,1-.74,3.13,6.16,6.16,0,0,1-2.19,2.46A6.7,6.7,0,0,1,37.87,494.36Zm0-2.19a4.55,4.55,0,0,0,2-.47,4,4,0,0,0,1.57-1.43,4.95,4.95,0,0,0,0-4.76,4,4,0,0,0-1.57-1.43,4.55,4.55,0,0,0-2-.47,4.49,4.49,0,0,0-2,.47,3.91,3.91,0,0,0-1.57,1.43,4.88,4.88,0,0,0,0,4.76,3.91,3.91,0,0,0,1.57,1.43A4.49,4.49,0,0,0,37.82,492.17Z"/><path d="M50.19,494.36a1.61,1.61,0,0,1-1.22-.51,1.73,1.73,0,0,1,0-2.39,1.73,1.73,0,0,1,2.43,0,1.67,1.67,0,0,1,.49,1.2,1.69,1.69,0,0,1-.49,1.21A1.62,1.62,0,0,1,50.19,494.36Z"/><line class="cls-3" x1="16.49" y1="448.07" x2="378.43" y2="447.55"/><path d="M25.79,908.66V928H23.27V913l-3.63,0v-1.47l.65-.21a10,10,0,0,0,2.24-1A6,6,0,0,0,24.11,909l.24-.29Z"/><path d="M33.4,928a22.22,22.22,0,0,1,.65-4.77A26.26,26.26,0,0,1,35.49,919a34.27,34.27,0,0,1,1.8-3.54c.63-1.05,1.23-2,1.79-2.73s1-1.37,1.4-1.81H30.1v-2.27H43.41v1.91c-.7.78-1.32,1.54-1.87,2.27A31.93,31.93,0,0,0,38,919a28.09,28.09,0,0,0-1.42,4.21,23,23,0,0,0-.68,4.8Z"/><path d="M47.94,928.27a1.61,1.61,0,0,1-1.22-.51,1.73,1.73,0,0,1,0-2.39,1.71,1.71,0,1,1,1.22,2.9Z"/><line class="cls-3" x1="16.49" y1="881.98" x2="378.43" y2="881.46"/><path d="M25.79,1342.57v19.35H23.27v-15l-3.63,0v-1.47l.65-.21a10,10,0,0,0,2.24-1,6,6,0,0,0,1.58-1.43l.24-.29Z"/><path d="M37,1362.18a8,8,0,0,1-3.54-.74,5.87,5.87,0,0,1-2.34-2,5.05,5.05,0,0,1-.84-2.86,4.79,4.79,0,0,1,1.66-3.83,7.48,7.48,0,0,1,1.66-1v-.13a6.59,6.59,0,0,1-1.4-.87,4.22,4.22,0,0,1-1-1.25,4.09,4.09,0,0,1-.42-1.94,4.9,4.9,0,0,1,.76-2.67,5.24,5.24,0,0,1,2.16-1.85,7.34,7.34,0,0,1,3.28-.68,7.38,7.38,0,0,1,3.29.68,5.15,5.15,0,0,1,2.15,1.85,4.81,4.81,0,0,1,.76,2.67,4,4,0,0,1-1.4,3.19,6.35,6.35,0,0,1-1.4.87v.13a7,7,0,0,1,1.66,1,4.84,4.84,0,0,1,1.17,1.49,5,5,0,0,1,.49,2.34,5,5,0,0,1-.83,2.86,5.87,5.87,0,0,1-2.34,2A8,8,0,0,1,37,1362.18Zm0-2.06a4.77,4.77,0,0,0,2.37-.55,3.67,3.67,0,0,0,1.44-1.43,3.72,3.72,0,0,0,.48-1.81,3.44,3.44,0,0,0-.47-1.74,3.59,3.59,0,0,0-1.42-1.36,5.58,5.58,0,0,0-4.79,0,3.62,3.62,0,0,0-1.43,1.36,3.44,3.44,0,0,0-.47,1.74,3.62,3.62,0,0,0,.49,1.81,3.67,3.67,0,0,0,1.44,1.43A4.71,4.71,0,0,0,37,1360.12Zm0-9.42a4.22,4.22,0,0,0,2.09-.47,3.18,3.18,0,0,0,1.26-1.2,3,3,0,0,0,.42-1.49,3.09,3.09,0,0,0-.42-1.55A3.22,3.22,0,0,0,39,1344.8a4.34,4.34,0,0,0-2.09-.45,4.41,4.41,0,0,0-2.08.45,3.16,3.16,0,0,0-1.26,1.19,3.09,3.09,0,0,0-.42,1.55,3,3,0,0,0,.42,1.49,3.11,3.11,0,0,0,1.26,1.2A4.29,4.29,0,0,0,37,1350.7Z"/><path d="M49,1362.18a1.6,1.6,0,0,1-1.21-.51,1.7,1.7,0,0,1,2.43-2.39,1.66,1.66,0,0,1,.48,1.2,1.68,1.68,0,0,1-.48,1.21A1.63,1.63,0,0,1,49,1362.18Z"/><line class="cls-3" x1="16.49" y1="1315.89" x2="378.43" y2="1315.37"/><path d="M25.79,1776.48v19.35H23.27v-15l-3.63,0v-1.47l.65-.21a10.48,10.48,0,0,0,2.24-1,6.23,6.23,0,0,0,1.58-1.44l.24-.29Z"/><path d="M37.24,1776.22a7,7,0,0,1,3.23.7,6.18,6.18,0,0,1,2.26,1.95,8.46,8.46,0,0,1,1.32,2.83,12.57,12.57,0,0,1,.44,3.36,14.9,14.9,0,0,1-.32,3,13.69,13.69,0,0,1-1,3,9.15,9.15,0,0,1-1.78,2.58,8.22,8.22,0,0,1-2.69,1.81,9.22,9.22,0,0,1-3.7.68,10.39,10.39,0,0,1-1.52-.1c-.47-.07-1-.17-1.54-.29v-2.35c.62.12,1.18.22,1.66.29a10,10,0,0,0,1.45.1,7,7,0,0,0,2.73-.48,5.82,5.82,0,0,0,1.91-1.28,6.69,6.69,0,0,0,1.23-1.73,8.31,8.31,0,0,0,.67-1.83,7.84,7.84,0,0,0,.23-1.56,4.7,4.7,0,0,1-.73.87,5.25,5.25,0,0,1-1.54,1,6.19,6.19,0,0,1-2.54.44,6.43,6.43,0,0,1-3.54-.92,6,6,0,0,1-2.15-2.41,7,7,0,0,1,0-6.21,6,6,0,0,1,2.21-2.45A6.67,6.67,0,0,1,37.24,1776.22Zm0,2.2a4.42,4.42,0,0,0-2,.47,3.93,3.93,0,0,0-1.57,1.41,4.27,4.27,0,0,0-.61,2.38,4.33,4.33,0,0,0,.61,2.39,4,4,0,0,0,1.57,1.43,4.55,4.55,0,0,0,2,.47,4.49,4.49,0,0,0,2-.47,3.91,3.91,0,0,0,1.57-1.43,4.33,4.33,0,0,0,.62-2.39,4.27,4.27,0,0,0-.62-2.38,3.86,3.86,0,0,0-1.57-1.41A4.36,4.36,0,0,0,37.29,1778.42Z"/><path d="M50.19,1796.09a1.61,1.61,0,0,1-1.22-.51,1.73,1.73,0,0,1,0-2.39,1.73,1.73,0,0,1,2.43,0,1.73,1.73,0,0,1,0,2.41A1.62,1.62,0,0,1,50.19,1796.09Z"/><line class="cls-3" x1="16.49" y1="1749.8" x2="378.43" y2="1749.28"/><path d="M20.71,2229.74v-1.8L25,2224c1.18-1.1,2.22-2.07,3.12-2.89a13.15,13.15,0,0,0,2.11-2.42,4.75,4.75,0,0,0,.76-2.59,3.43,3.43,0,0,0-.56-2,3.74,3.74,0,0,0-1.44-1.24,4.05,4.05,0,0,0-1.82-.43,4.35,4.35,0,0,0-2,.41,3.29,3.29,0,0,0-1.21,1,4.36,4.36,0,0,0-.6,1.23,6.38,6.38,0,0,0-.23,1.45H20.61a8.9,8.9,0,0,1,.22-1.68,7.72,7.72,0,0,1,.56-1.55,5.74,5.74,0,0,1,1.11-1.56,5.43,5.43,0,0,1,1.86-1.2,7.38,7.38,0,0,1,2.78-.47,7.2,7.2,0,0,1,3.13.69,5.78,5.78,0,0,1,2.34,2,5.7,5.7,0,0,1,.89,3.23,5.9,5.9,0,0,1-.88,3.18,13.78,13.78,0,0,1-2.31,2.79L27.17,2225l-2.67,2.46h9.42v2.32Z"/><path d="M44.46,2230a6.27,6.27,0,0,1-3.19-.8A6.87,6.87,0,0,1,39,2227a10.36,10.36,0,0,1-1.41-3.18,15.28,15.28,0,0,1,0-7.6,10.52,10.52,0,0,1,1.41-3.17,6.68,6.68,0,0,1,2.32-2.17,6.84,6.84,0,0,1,6.38,0,6.73,6.73,0,0,1,2.31,2.17,10.79,10.79,0,0,1,1.42,3.17,15.28,15.28,0,0,1,0,7.6A10.62,10.62,0,0,1,50,2227a6.93,6.93,0,0,1-2.31,2.17A6.32,6.32,0,0,1,44.46,2230Zm0-2.35a4,4,0,0,0,3.41-1.93,12.52,12.52,0,0,0,0-11.31,4,4,0,0,0-6.83,0,12.58,12.58,0,0,0,0,11.3A4,4,0,0,0,44.46,2227.63Z"/><path d="M57,2230a1.64,1.64,0,0,1-1.22-.5,1.71,1.71,0,0,1-.48-1.2,1.66,1.66,0,0,1,.48-1.2,1.64,1.64,0,0,1,1.22-.5,1.69,1.69,0,0,1,1.7,1.7,1.64,1.64,0,0,1-.49,1.21A1.61,1.61,0,0,1,57,2230Z"/><line class="cls-3" x1="16.49" y1="2183.71" x2="378.43" y2="2183.19"/><path d="M20.71,2663.65v-1.8l4.24-3.93c1.18-1.09,2.22-2.06,3.12-2.88a13.15,13.15,0,0,0,2.11-2.42,4.75,4.75,0,0,0,.76-2.59,3.43,3.43,0,0,0-.56-2,3.74,3.74,0,0,0-1.44-1.24,4.05,4.05,0,0,0-1.82-.43,4.23,4.23,0,0,0-2,.41,3.29,3.29,0,0,0-1.21,1,4.36,4.36,0,0,0-.6,1.23,6.38,6.38,0,0,0-.23,1.45H20.61a8.9,8.9,0,0,1,.22-1.68,7.51,7.51,0,0,1,.56-1.55,5.74,5.74,0,0,1,1.11-1.56,5.43,5.43,0,0,1,1.86-1.2,7.88,7.88,0,0,1,5.91.22A5.51,5.51,0,0,1,33.5,2650a5.9,5.9,0,0,1-.88,3.18,13.78,13.78,0,0,1-2.31,2.79l-3.14,2.93-2.67,2.45h9.42v2.33Z"/><path d="M42.81,2644.3v19.35H40.3v-15l-3.64,0v-1.47l.66-.21a9.87,9.87,0,0,0,2.23-1,6,6,0,0,0,1.59-1.43l.23-.29Z"/><path d="M49.43,2663.91a1.61,1.61,0,0,1-1.22-.51,1.73,1.73,0,0,1,0-2.39,1.64,1.64,0,0,1,1.22-.5,1.69,1.69,0,0,1,1.7,1.7,1.65,1.65,0,0,1-.49,1.21A1.61,1.61,0,0,1,49.43,2663.91Z"/><line class="cls-3" x1="16.49" y1="2617.62" x2="378.43" y2="2617.1"/></svg>