<?xml version="1.0" encoding="UTF-8"?><svg id="Layer_1" xmlns="http://www.w3.org/2000/svg" viewBox="0 0 386 2966"><defs><style>.cls-1{fill:#fff;}</style></defs><g><path class="cls-1" d="M190.97,1932.23l-79.72,79.64,51.06,51.06,32.58-32.58,47.06-47.07-50.97-51.05Zm-2.47,12.98l6.55,6.56-6.56,6.56-4.55,4.54-6.56-6.57,11.11-11.1Zm-18.36,18.35l6.56,6.56-6.56,6.57-4.54,4.55-6.56-6.56,11.1-11.11Zm-36.71,49.84l-4.54,4.54-6.56-6.57,11.11-11.1,6.56,6.55-6.56,6.57Zm13.81-13.82l-6.56-6.56,11.11-11.11,6.56,6.57-6.57,6.56-4.54,4.54Zm20.26,47.88l-4.55,4.54-6.56-6.56,11.11-11.11,6.55,6.56-6.56,6.56Zm18.35-18.36l-4.54,4.54-6.56-6.57,11.11-11.1,6.55,6.56-6.55,6.56Zm18.35-18.36l-4.54,4.55-6.56-6.56,11.11-11.11,6.56,6.56-6.57,6.56Zm13.81-13.8l-6.56-6.56,11.11-11.1,6.56,6.56-6.56,6.57-4.54,4.55Z"/><path class="cls-1" d="M178.5,1842.57l-79.72,79.64,51.06,51.06,32.58-32.57,47.06-47.07-50.98-51.05Zm-2.47,12.98l6.55,6.56-6.56,6.56-4.54,4.54-6.56-6.57,11.11-11.1Zm-18.36,18.35l6.56,6.56-6.56,6.56-4.54,4.55-6.56-6.56,11.11-11.11Zm-36.72,49.83l-4.54,4.54-6.57-6.57,11.12-11.11,6.55,6.56-6.56,6.57Zm13.81-13.81l-6.56-6.56,11.11-11.11,6.56,6.56-6.57,6.56-4.54,4.54Zm20.26,47.88l-4.54,4.54-6.56-6.56,11.11-11.11,6.55,6.56-6.56,6.56Zm18.35-18.36l-4.55,4.55-6.55-6.57,11.1-11.1,6.55,6.56-6.56,6.56Zm18.35-18.36l-4.54,4.55-6.56-6.56,11.11-11.11,6.55,6.56-6.56,6.56Zm13.81-13.8l-6.56-6.56,11.11-11.11,6.55,6.56-6.56,6.56-4.54,4.55Z"/></g><g><g><path class="cls-1" d="M164.66,650.77c-3.05,.69-6.77,1.59-11.29,2.76,.1,1.28,.16,2.56,.16,3.87,0,5.4-.83,10.62-2.37,15.52,2.65,1.96,5.69,3.16,9.18,3.16,.04,0,.8-.04,1.95-.32,1.77-5.81,2.72-11.98,2.72-18.36,0-2.24-.12-4.46-.35-6.64Z"/><path class="cls-1" d="M139.76,692.6c-9.5,10.31-23.11,16.78-38.2,16.78-28.65,0-51.97-23.31-51.97-51.97,0-20.31,11.71-37.92,28.74-46.46,.28-4.7,.86-9.11,1.71-13.22-24.43,8.83-41.93,32.25-41.93,59.68,0,34.99,28.46,63.45,63.45,63.45,21.39,0,40.32-10.65,51.82-26.91-4.74-.17-9.28-.62-13.62-1.35Z"/><path class="cls-1" d="M133.77,602.77c-.38,4.78-.46,9.4-.4,13.58,3.93,3.05,7.41,6.65,10.32,10.67,4.2-.59,8.39-1.17,12.56-1.75-5.47-9.27-13.22-17.03-22.48-22.5Z"/></g><path class="cls-1" d="M173.1,695.84s20.83-1.3,33.03-24.03c.18,18.23-7.3,53.59-8.38,57.88-5.71,22.59-35.61,23.98-41.44,19.17,1.5-6.56,16.79-53.02,16.79-53.02Zm-94.33-49.24c-10.33,9.19-4.64,40.35,.69,34.15,2.88-3.35,7.24-9.24,13.1-13.4-5.44-7.78-9.42-16-11.43-22.03-1.1,.43-1.9,.86-2.37,1.28Zm222.06-32.1c-3.16-1.37-108.16,12.21-163.15,20,.44,6.61,2,10.84,3.37,15.54,16.11-4.44,38.57-10.08,39-7.44,6.49,39.91-19.71,40.05-19.71,40.05-27.14,0-32.19-47.21-32.19-47.21,0,0-12.7-84.5,39.37-84.5,0,0,13.52,.09,22.32,4.85-4.5,.83-7.92,4.76-7.92,9.5,0,5.34,4.33,9.67,9.67,9.67s9.66-4.33,9.66-9.67c0-3.15-1.51-5.94-3.85-7.7v-.13s-10.81-12.58-37.63-12.58c0,0-75.08-.04-75.08,72.42,0,0-.91,70.16,72.8,70.16,15.48,0,51.26-8.29,51.26-49.78,0,0,31.81-9.11,93.08-14.11,0,0,2.29-7.63-1.02-9.07Z"/></g><polygon class="cls-1" points="259.71 1011.07 259.71 1011.13 249.73 1041.58 216.12 1041.58 216.12 1063.37 242.69 1063.37 233.17 1085.16 216.12 1085.16 216.12 1124.38 176.9 1124.38 176.9 1041.58 155.11 1041.58 155.11 1124.38 120.25 1124.38 120.25 1041.58 91.01 1041.58 81.02 1011.13 81.02 1011.07 259.71 1011.07"/><polygon class="cls-1" points="120.25 1166.68 168.19 1184.72 216.12 1165.96 216.12 1146.17 120.25 1146.17 120.25 1166.68"/><g><path class="cls-1" d="M192.73,213.57c0-2.42-1.97-4.4-4.4-4.4h-5.85c-1.17,0-2.28,.46-3.11,1.3-.83,.83-1.29,1.94-1.29,3.11v15.82l-14.24-18.49c-.83-1.07-2.13-1.71-3.48-1.71h-6.65c-1.18,0-2.28,.47-3.11,1.3-.83,.83-1.29,1.94-1.29,3.11l.03,35.83c0,2.42,1.98,4.4,4.4,4.4h5.91c2.43,0,4.4-1.98,4.4-4.41v-15.7l14.18,18.37c.83,1.07,2.13,1.71,3.48,1.71h6.65c1.17,0,2.28-.46,3.11-1.3,.83-.83,1.29-1.94,1.29-3.11l-.03-35.83Z"/><g><rect class="cls-1" x="162.58" y="305.29" width="16.58" height="25.36" rx="2.23" ry="2.23"/><path class="cls-1" d="M165.14,114.61h12.12c1.23,0,2.23,1,2.23,2.23v20.9c0,1.23-1,2.23-2.23,2.23h-12.12c-1.23,0-2.23-1-2.23-2.23v-20.9c0-1.23,1-2.23,2.23-2.23Z"/></g><g><rect class="cls-1" x="93.99" y="278.71" width="25.36" height="16.58" rx="2.23" ry="2.23" transform="translate(-171.81 159.74) rotate(-45.05)"/><rect class="cls-1" x="229.05" y="144.11" width="25.36" height="16.58" rx="2.23" ry="2.23" transform="translate(-36.91 215.79) rotate(-45.05)"/></g><g><rect class="cls-1" x="228.68" y="274.21" width="16.58" height="25.36" rx="2.23" ry="2.23" transform="translate(-133.49 251.9) rotate(-45.05)"/><rect class="cls-1" x="93.39" y="139.84" width="16.58" height="25.36" rx="2.23" ry="2.23" transform="translate(-78.1 116.73) rotate(-45.05)"/></g><g><rect class="cls-1" x="62.35" y="212.23" width="25.36" height="16.58" rx="2.23" ry="2.23"/><rect class="cls-1" x="253.02" y="212.55" width="25.36" height="16.58" rx="2.23" ry="2.23"/></g><path class="cls-1" d="M244.44,206.96c-1.24-5.54-4.23-15.51-10.95-25.45-9.2-13.6-27.25-29.8-61.06-29.8h-.09c-33.71,.03-52.48,16.15-62.29,29.67-7.21,9.94-10.68,19.91-12.18,25.4-.66,2.43,.55,4.97,2.86,5.97l7.65,3.28c.65,.28,1.33,.4,2,.4-.9,4.24-1.37,8.6-1.37,13.04,.03,34.19,27.85,61.98,62.03,61.98h.05c16.57-.01,32.14-6.48,43.85-18.21,11.71-11.73,18.15-27.31,18.13-43.88,0-4.59-.52-9.1-1.49-13.47,.59,0,1.18-.07,1.76-.28l7.88-2.8c2.4-.85,3.78-3.36,3.22-5.85Zm-72.09-38.67h.07c22.63,0,36.27,8.82,44.44,18.66-10.85-4.83-25.39-8.59-44.38-8.59h-.12c-19.37,.02-34.47,3.92-45.83,8.87,8.74-9.97,22.96-18.93,45.82-18.95Zm30.85,93.24c-8.58,8.59-19.99,13.33-32.13,13.34h-.04c-25.04,0-45.43-20.36-45.45-45.41,0-10.23,3.35-19.95,9.54-27.89,9.25-3.71,21.49-6.61,37.24-6.62h.11c14.08,0,25.07,2.31,33.52,5.43,6.78,8.13,10.48,18.28,10.49,29,.01,12.14-4.71,23.56-13.29,32.15Z"/></g><g><path class="cls-1" d="M79.88,2914.44v-3.32l14.3-6.63v-109.46l-13.68-8.91v-3.32l45.6-13.47h3.32l1.66,12.65h.83c9.67-8.43,19.62-12.65,29.85-12.65,8.42,0,16.2,4.14,23.32,12.44,7.12,8.29,10.67,19.56,10.67,33.79,0,16.31-4.94,29.27-14.82,38.87-9.88,9.61-21.25,14.41-34.1,14.41-6.08,0-11.2-.55-15.34-1.66v37.31l17,6.63v3.32H79.88Zm61.15-126.25c-1.94,0-3.56,.24-4.87,.72-1.31,.49-2.87,1.21-4.66,2.18v60.95c1.52,3.6,4.63,5.39,9.33,5.39,3.87,0,7.77-2.24,11.71-6.74,3.94-4.49,5.91-14.33,5.91-29.54,0-11.19-1.91-19.49-5.71-24.88-3.8-5.39-7.7-8.08-11.71-8.08Z"/><polygon class="cls-1" points="260.85 2786.87 225.14 2786.87 225.14 2736.23 172.45 2736.23 172.45 2704.89 260.85 2704.89 260.85 2786.87"/></g><g><path class="cls-1" d="M188.77,2306v13.64c50.65,8.77,89.33,52.92,89.33,106.04,0,59.4-48.33,107.74-107.73,107.74s-107.73-48.33-107.73-107.74c0-53.12,38.68-97.27,89.33-106.04v-13.64c-58.13,8.91-102.83,59.11-102.83,119.69,0,66.85,54.38,121.24,121.23,121.24s121.23-54.39,121.23-121.24c0-60.58-44.71-110.77-102.83-119.68Z"/><polygon class="cls-1" points="161.12 2342.54 170.36 2336.14 179.61 2342.54 179.61 2295.65 196.41 2295.65 196.41 2280 179.61 2280 179.61 2263.18 161.12 2263.18 161.12 2280 144.32 2280 144.32 2295.65 161.12 2295.65 161.12 2342.54"/><path class="cls-1" d="M161.88,2521.52c2.74,.19,5.04,.28,7.22,.28,3.13,0,6.42-.16,9.77-.47l.74-.07v-37.84h7.95c.32,0,.57-.26,.57-.57v-14.51c0-.32-.26-.57-.57-.57h-7.95v-70.74c0-.75-.37-1.45-.98-1.88l-7.94-5.5c-.2-.14-.45-.14-.65,0l-7.94,5.5c-.62,.43-.98,1.13-.98,1.88v70.74h-7.95c-.32,0-.57,.26-.57,.57v14.51c0,.32,.26,.57,.57,.57h7.95v38.05l.76,.05Z"/><path class="cls-1" d="M200.05,2517.11c4.83-1.5,9.55-3.36,14.11-5.56l.46-.22v-124.31c0-1.5-.73-2.9-1.97-3.75l-41.97-29.06c-.2-.14-.45-.14-.65,0l-41.97,29.06c-1.23,.85-1.97,2.26-1.97,3.75v125.48l.48,.22c4.56,2.04,9.31,3.77,14.13,5.14l1.04,.3v-125.32l28.61-19.8,28.61,19.8v124.63l1.08-.34Z"/><g><path class="cls-1" d="M232.67,2500.63c8.88-6.88,14.18-17.98,14.18-29.69v-28.05c0-10.37-5.52-20.12-14.41-25.45l-1.24-.74v51.07h-5.84c-.32,0-.57,.26-.57,.57v14.51c0,.32,.26,.57,.57,.57h5.84v18.36l1.47-1.14Z"/><path class="cls-1" d="M108.06,2500.63c-8.88-6.88-14.18-17.98-14.18-29.69v-28.05c0-10.37,5.52-20.12,14.41-25.45l1.24-.74v51.07h5.84c.32,0,.57,.26,.57,.57v14.51c0,.32-.26,.57-.57,.57h-5.84v18.36l-1.47-1.14Z"/></g></g><g><path class="cls-1" d="M10.12,43.84h-.1l-4.21,3.3h-.26v-2.25l4.55-3.53h2.25v18.31h-2.22v-15.82Z"/><path class="cls-1" d="M16.92,56.79h2.82v2.88h-2.82v-2.88Z"/></g><rect class="cls-1" x="2" y="13.38" width="361.94" height="1.05" transform="translate(-.03 .34) rotate(-.11)"/><g><path class="cls-1" d="M5.85,491.85l6.25-7.3c1.88-2.2,2.62-3.03,2.62-4.58,0-1.78-1.07-3.03-3.27-3.03s-3.43,1.23-3.43,3.45h-2.22c0-3.19,2.07-5.44,5.65-5.44s5.54,2.14,5.54,4.94c0,2.04-1.1,3.4-3.37,6.04l-4.73,5.49v.1h8.4v2.04H5.85v-1.73Z"/><path class="cls-1" d="M20.68,490.7h2.82v2.88h-2.82v-2.88Z"/></g><rect class="cls-1" x="2" y="447.29" width="361.94" height="1.05" transform="translate(-.83 .34) rotate(-.11)"/><g><path class="cls-1" d="M5.93,922.41h2.2c.03,1.88,1.33,3.35,3.82,3.35s3.79-1.36,3.79-3.4c0-2.2-1.49-3.43-4.05-3.43h-1.6v-1.96h1.54c2.09,0,3.53-1.26,3.53-3.14,0-1.65-.99-3.01-3.27-3.01s-3.43,1.31-3.5,3.19h-2.22c.16-3.22,2.25-5.15,5.81-5.15,3.14,0,5.49,1.86,5.49,4.81,0,2.04-.92,3.29-2.75,4v.1c2.14,.68,3.32,2.35,3.32,4.55,0,3.03-2.17,5.39-6.07,5.39-3.66,0-6.04-2.12-6.04-5.31Z"/><path class="cls-1" d="M21.57,924.61h2.82v2.88h-2.82v-2.88Z"/></g><rect class="cls-1" x="2" y="881.2" width="361.94" height="1.05" transform="translate(-1.64 .34) rotate(-.11)"/><g><path class="cls-1" d="M13.62,1357.53H5.28v-2.3l7.4-12.14h3.17v12.45h2.46v1.99h-2.46v3.87h-2.22v-3.87Zm0-1.99v-10.23h-.1l-6.09,10.12v.1h6.2Z"/><path class="cls-1" d="M21.18,1358.52h2.82v2.88h-2.82v-2.88Z"/></g><rect class="cls-1" x="2" y="1315.11" width="361.94" height="1.05" transform="translate(-2.45 .34) rotate(-.11)"/><g><path class="cls-1" d="M5.8,1790.13h2.22c0,1.88,1.39,3.43,3.82,3.43,2.77,0,3.84-1.78,3.84-4.16s-1.18-4.08-3.82-4.08c-1.75,0-2.75,.84-3.45,1.8h-2.3l.71-10.12h10.25v2.01H8.76l-.42,5.83h.1c.68-.73,1.83-1.49,3.77-1.49,3.69,0,5.73,2.56,5.73,5.96,0,3.69-1.99,6.22-6.09,6.22-3.74,0-6.04-2.35-6.04-5.41Z"/><path class="cls-1" d="M21.34,1792.43h2.82v2.88h-2.82v-2.88Z"/></g><rect class="cls-1" x="2" y="1749.02" width="361.94" height="1.05" transform="translate(-3.25 .34) rotate(-.11)"/><g><path class="cls-1" d="M5.93,2220.35c0-5.13,1.78-9.75,6.72-9.75,3.17,0,5.34,1.91,5.68,4.73h-2.28c-.18-1.67-1.52-2.72-3.4-2.72-3.32,0-4.5,3.35-4.5,7.17h.1c.79-1.49,2.2-2.51,4.45-2.51,3.77,0,5.83,2.69,5.83,6.02s-2.3,6.17-6.15,6.17c-4.71,0-6.46-3.92-6.46-9.1Zm10.33,2.98c0-2.3-1.31-4.11-3.84-4.11s-3.87,1.8-3.87,4.08,1.36,4.16,3.87,4.16,3.84-1.86,3.84-4.13Z"/><path class="cls-1" d="M22.07,2226.34h2.82v2.88h-2.82v-2.88Z"/></g><rect class="cls-1" x="2" y="2182.93" width="361.94" height="1.05" transform="translate(-4.06 .34) rotate(-.11)"/><g><path class="cls-1" d="M6.85,2662.87l7.92-15.88v-.1H5.28v-2.07h11.8v2.2l-8.03,16.11h-2.2v-.26Z"/><path class="cls-1" d="M16.08,2660.25h2.82v2.88h-2.82v-2.88Z"/></g><rect class="cls-1" x="2" y="2616.84" width="361.94" height="1.05" transform="translate(-4.86 .34) rotate(-.11)"/><g><g><rect class="cls-1" x="151.49" y="1511" width="90.67" height="16.34"/><path class="cls-1" d="M269.44,1423.5H104.64s-7.74,0-7.74,7.36v20.72c-.9,.07-1.82,.16-2.76,.26-4.9,.56-15.1,1.73-17.13,9.87-.93,3.76-7.16,48.09-5.8,79.04-.07,.06-.14,.11-.21,.17-7.3,6.67-7.89,16.76-7.89,28.29,0,17.44,1.83,31.77,5.43,42.61,3.24,9.74,7.94,16.55,13.59,19.68,7.63,4.2,19.76,4.62,22.11,4.66h.04c2.35-.04,14.47-.45,22.1-4.66,3.19-1.76,6.06-4.73,8.55-8.7h78.58c2.45,0,4.83-1.1,6.41-3.08l54.02-67.89s3.66-4.86,3.66-12.02v-108s-.02-8.31-8.17-8.31Zm-176.32,45.86c2.89-.51,7.32-.89,11.14-.93,3.82,.04,8.25,.42,11.15,.93,1.7,11.4,5.8,45.75,4.75,70.38-2.76,.44-7.62,.91-15.88,.91s-13.13-.46-15.89-.91c-1.06-24.69,3.05-59,4.75-70.38Zm30.54,137.04c-2.31,6.93-4.87,9.63-5.58,10.03-2.58,1.42-9.19,2.42-13.79,2.52-4.66-.11-11.27-1.1-13.84-2.52-.72-.4-3.28-3.1-5.58-10.03-2.09-6.23-4.57-17.75-4.57-37.19,0-5.27,.16-10.4,1.11-13.4,4.75,1.32,11.88,1.98,21.75,2.03h2.22c9.83-.04,16.96-.71,21.74-2.03,.94,3.01,1.1,8.13,1.1,13.4,0,19.42-2.48,30.94-4.55,37.19Zm98.05-15.17v-38.69h30.78l-30.78,38.69Zm39.56-55.03h-47.75c-4.5,0-8.17,3.67-8.17,8.17v2.06h-.03v.18h-48.01v16.35h48.04v43.5h-63.83c2.57-10.05,3.88-22.53,3.88-37.25,0-11.53-.59-21.62-7.89-28.29-.07-.06-.14-.11-.21-.17,1.39-31.11-4.86-75.32-5.8-79.04-2.02-8.14-12.22-9.31-17.19-9.88-1.13-.12-2.24-.22-3.32-.3v-11.94l150.27-.04v96.64Z"/><rect class="cls-1" x="146.46" y="1474.63" width="95.69" height="16.35"/></g><rect class="cls-1" x="157" y="1546.5" width="48" height="17"/></g></svg>