<svg id="Layer_1" data-name="Layer 1" xmlns="http://www.w3.org/2000/svg" xmlns:xlink="http://www.w3.org/1999/xlink" viewBox="0 0 1200 750"><defs><style>.cls-1{fill:none;}.cls-2{clip-path:url(#clip-path);}.cls-3{fill:#232c38;}.cls-4{fill:#fff;stroke:#d1d2d2;stroke-miterlimit:10;stroke-width:1.99px;}</style><clipPath id="clip-path"><rect class="cls-1" y="-0.5" width="1200" height="750"/></clipPath></defs><rect y="-0.5" width="1200" height="750"/><g class="cls-2"><path class="cls-3" d="M116.28,266.57c63.05-60.06,137.59-109.68,219.18-135.75C376.09,117.63,418,110.71,459.3,108.6c20.73-1.22,41.17-.09,61.7.86a393.78,393.78,0,0,1,61.25,8.09c80.44,17.87,153.08,58.26,217.56,109.54C738.75,67.61,584.34-45.68,403.38-45.68c-234.42,0-424.46,190-424.46,424.45a428.77,428.77,0,0,0,2.6,46.57C21.76,368.27,65.91,314.35,116.28,266.57Z"/><path class="cls-3" d="M755.34,287.86c-21.85-29.11-48.63-54.71-79.72-73.59A261.71,261.71,0,0,0,573.94,178a316.75,316.75,0,0,0-108.15,2.75A321.67,321.67,0,0,0,366,217.29C304.82,252,258,306.06,226.24,367.73c-32,61.78-50,131-57.3,201.37a721.09,721.09,0,0,0,5.18,181.77A422.25,422.25,0,0,0,403.38,818.2c213.45,0,390-157.58,419.94-362.75C814,394.44,791.65,336.36,755.34,287.86Z"/></g><path class="cls-4" d="M486.08,356.94H506v29.34a53,53,0,0,1-14.57,6.61,56.27,56.27,0,0,1-16.18,2.6,40,40,0,0,1-19.58-4.75,34.91,34.91,0,0,1-13.56-13.12,36.51,36.51,0,0,1-4.91-18.88,35.11,35.11,0,0,1,19.23-31.84,43.22,43.22,0,0,1,20.33-4.71,47.78,47.78,0,0,1,16.47,3,42.12,42.12,0,0,1,13.87,8L494,349.13a26.29,26.29,0,0,0-8.26-5.56,22.84,22.84,0,0,0-9.07-2.05,14.86,14.86,0,0,0-8,2.25,15.46,15.46,0,0,0-5.61,6.16,20.48,20.48,0,0,0,.06,17.78,15.71,15.71,0,0,0,5.65,6.21,15,15,0,0,0,8.11,2.25,23.46,23.46,0,0,0,9.22-2.41Z"/><path class="cls-4" d="M565.89,393.89l-3.5-9.91H536.05l-3.61,9.91H508.61l29.64-70.2h23.84l28.54,70.2Zm-23.83-26.54h14.62l-7.21-20.52Z"/><path class="cls-4" d="M582.12,323.69h63.19V342h-20v51.87H602V342H582.12Z"/><path class="cls-4" d="M654.82,323.69H714.2v17.63H678.05v8.61H710.9v17.62H678.05v8.72H715.1v17.62H654.82Z"/><path class="cls-4" d="M812.94,323.69h23.74l-23.74,70.2H789.11l-10.52-42-10.81,42H743.94l-23.53-70.2h24.84l11.31,46.07,11.22-46.07h22.63l11.42,46.07Z"/><path class="cls-4" d="M884.44,393.89l-3.5-9.91H854.6L851,393.89H827.16l29.64-70.2h23.84l28.54,70.2Zm-23.83-26.53h14.62L868,346.83Z"/><path class="cls-4" d="M973.17,323.69,948,372.06v21.83H924.8V372.56l-25.64-48.87H922.3l14.12,27,13.62-27Z"/><path class="cls-4" d="M464.06,419a9.63,9.63,0,0,0-4.17-1,9.51,9.51,0,0,0-4.83,1.26,9.13,9.13,0,0,0-3.45,3.47,10,10,0,0,0,0,9.71,9.25,9.25,0,0,0,3.45,3.49,9.43,9.43,0,0,0,4.83,1.28,10.27,10.27,0,0,0,4.09-.89,11.72,11.72,0,0,0,3.63-2.48l3.21,3.58a16.85,16.85,0,0,1-5.2,3.59,14.66,14.66,0,0,1-6,1.32,14.84,14.84,0,0,1-7.51-2,14.31,14.31,0,0,1-5.37-5.3,14.5,14.5,0,0,1-2-7.41,14.22,14.22,0,0,1,2-7.4,14.38,14.38,0,0,1,5.43-5.24,15.73,15.73,0,0,1,13.59-.69,14.76,14.76,0,0,1,5,3.37l-3.17,4A10.7,10.7,0,0,0,464.06,419Z"/><path class="cls-4" d="M499.4,415.05a14.56,14.56,0,0,1,5.46,20.05,14.41,14.41,0,0,1-5.46,5.3,16.16,16.16,0,0,1-15.39,0,14.51,14.51,0,0,1-5.47-5.3A14.39,14.39,0,0,1,484,415.05a16.46,16.46,0,0,1,15.39,0ZM487,419.3a9.73,9.73,0,0,0-3.51,13.3,9.71,9.71,0,0,0,3.53,3.53,9.32,9.32,0,0,0,4.81,1.31,9.17,9.17,0,0,0,4.76-1.31A9.48,9.48,0,0,0,500,432.6a10,10,0,0,0,0-9.81,9.45,9.45,0,0,0-3.47-3.49,9.24,9.24,0,0,0-4.76-1.28A9.49,9.49,0,0,0,487,419.3Z"/><path class="cls-4" d="M515.71,413.51h6.21l9.43,18.32,9.34-18.32h6.22v28.43h-5V421.55L533.06,439h-3.5l-8.9-17.47v20.39h-4.95Z"/><path class="cls-4" d="M558,413.51h6.21l9.42,18.32,9.35-18.32h6.21v28.43h-5V421.55L575.3,439h-3.49l-8.9-17.47v20.39H558Z"/><path class="cls-4" d="M607,435.53a6.92,6.92,0,0,0,5.11,1.91,6.72,6.72,0,0,0,5.06-1.91,7.31,7.31,0,0,0,1.85-5.29V413.51h5.44v16.73a13.18,13.18,0,0,1-1.5,6.44,10.19,10.19,0,0,1-4.29,4.21,14,14,0,0,1-6.56,1.46,14.32,14.32,0,0,1-6.64-1.46,10.15,10.15,0,0,1-4.32-4.21,13.07,13.07,0,0,1-1.51-6.44V413.51h5.45v16.73A7.14,7.14,0,0,0,607,435.53Z"/><path class="cls-4" d="M654.79,413.51h5.29v28.43h-5.16l-14.63-19.58v19.58H635V413.51h5.16l14.66,19.62Z"/><path class="cls-4" d="M671.13,413.51h5.44v28.43h-5.44Z"/><path class="cls-4" d="M684.45,413.51h23.2v4.83h-8.86v23.6h-5.48v-23.6h-8.86Z"/><path class="cls-4" d="M738.43,413.51l-10.36,19.13v9.3h-5.44v-9.1L712,413.51h5.52l7.76,13.36L733,413.51Z"/><path class="cls-4" d="M777,419a9.68,9.68,0,0,0-9,.29,9.13,9.13,0,0,0-3.45,3.47,10,10,0,0,0,0,9.71A9.25,9.25,0,0,0,768,436a9.49,9.49,0,0,0,4.84,1.28,10.26,10.26,0,0,0,4.08-.89,11.76,11.76,0,0,0,3.64-2.48l3.21,3.58a17,17,0,0,1-5.2,3.59,14.71,14.71,0,0,1-6,1.32,14.86,14.86,0,0,1-7.51-2,14.28,14.28,0,0,1-5.36-5.3,14.5,14.5,0,0,1-2-7.41,14.13,14.13,0,0,1,2-7.4,14.29,14.29,0,0,1,5.42-5.24,15.73,15.73,0,0,1,13.59-.69,14.66,14.66,0,0,1,5,3.37l-3.16,4A10.74,10.74,0,0,0,777,419Z"/><path class="cls-4" d="M792.34,413.51h5.44v12.14H812V413.51h5.44v28.43H812V430.41H797.78v11.53h-5.44Z"/><path class="cls-4" d="M835.31,435.53a6.94,6.94,0,0,0,5.12,1.91,6.72,6.72,0,0,0,5.06-1.91,7.31,7.31,0,0,0,1.85-5.29V413.51h5.44v16.73a13.18,13.18,0,0,1-1.5,6.44,10.19,10.19,0,0,1-4.29,4.21,14,14,0,0,1-6.56,1.46,14.32,14.32,0,0,1-6.64-1.46,10.23,10.23,0,0,1-4.33-4.21,13.18,13.18,0,0,1-1.5-6.44V413.51h5.44v16.73A7.18,7.18,0,0,0,835.31,435.53Z"/><path class="cls-4" d="M881.05,441.94l-4.91-8.4q-.33,0-1,0h-6.41v8.37h-5.45V413.51h11.86q5.53,0,8.53,2.56a8.94,8.94,0,0,1,3,7.23,10.71,10.71,0,0,1-1.44,5.69,8.86,8.86,0,0,1-4.21,3.53l6.26,9.42Zm-12.34-13.16h6.41a7.19,7.19,0,0,0,4.71-1.34,4.84,4.84,0,0,0,1.63-4,4.69,4.69,0,0,0-1.63-3.9,7.42,7.42,0,0,0-4.71-1.3h-6.41Z"/><path class="cls-4" d="M913.73,419a9.66,9.66,0,0,0-9,.29,9.15,9.15,0,0,0-3.46,3.47,10,10,0,0,0,0,9.71,9.2,9.2,0,0,0,3.46,3.49,9.43,9.43,0,0,0,4.83,1.28,10.26,10.26,0,0,0,4.08-.89,11.76,11.76,0,0,0,3.64-2.48l3.21,3.58a17,17,0,0,1-5.2,3.59,14.67,14.67,0,0,1-6,1.32,14.86,14.86,0,0,1-7.51-2,14.28,14.28,0,0,1-5.36-5.3,14.5,14.5,0,0,1-1.95-7.41,14.13,14.13,0,0,1,2-7.4,14.29,14.29,0,0,1,5.42-5.24,15.73,15.73,0,0,1,13.59-.69,14.71,14.71,0,0,1,5,3.37l-3.17,4A10.74,10.74,0,0,0,913.73,419Z"/><path class="cls-4" d="M929,413.51h5.44v12.14h14.18V413.51h5.44v28.43h-5.44V430.41H934.47v11.53H929Z"/><path class="cls-4" d="M280.08,359.62c10.38-9.89,22.66-18.06,36.1-22.36a79.33,79.33,0,0,1,20.4-3.66,98.29,98.29,0,0,1,10.16.14,64.7,64.7,0,0,1,10.09,1.34c13.25,2.94,25.22,9.59,35.84,18a69.91,69.91,0,0,0-134.79,32.66A173.31,173.31,0,0,1,280.08,359.62Z"/><path class="cls-4" d="M385.34,363.13A47.25,47.25,0,0,0,372.21,351a43,43,0,0,0-16.75-6,52.25,52.25,0,0,0-17.81.45,53.26,53.26,0,0,0-16.43,6c-10.09,5.72-17.8,14.63-23,24.79a92.88,92.88,0,0,0-9.44,33.16,118.85,118.85,0,0,0,.85,29.95,69.9,69.9,0,0,0,106.94-48.66A61.45,61.45,0,0,0,385.34,363.13Z"/></svg>