<?xml version="1.0" encoding="UTF-8"?><svg id="a" xmlns="http://www.w3.org/2000/svg" viewBox="0 0 386 2966"><defs><style>.b,.c{fill:none;}.c{stroke:#000;stroke-miterlimit:10;stroke-width:1.05px;}.d{fill:#161617;}</style></defs><g><g><polygon class="d" points="312.79 671.41 312.79 694.33 259.29 645.61 259.29 622.7 312.79 671.41"/><polygon class="d" points="312.79 724.25 312.79 699.3 259.29 650.58 259.29 724.25 312.79 724.25"/></g><g><polygon class="d" points="50.12 671.41 50.12 694.33 103.62 645.61 103.62 622.7 50.12 671.41"/><polygon class="d" points="103.62 724.25 103.62 650.58 50.12 699.3 50.12 724.25 103.62 724.25"/></g><g><path class="d" d="M230.05,724.25c2.23,0,3.06-1.39,2.08-3.2l-25.18-56.2,23.65-48.55c.98-1.95,.14-3.34-1.94-3.34h-14.61c-1.53,0-2.51,.69-3.2,2.08l-21.42,43.82v-43.13c0-1.81-.97-2.78-2.78-2.78h-13.36c-1.8,0-2.78,.98-2.78,2.78v105.73c0,1.8,.98,2.78,2.78,2.78h13.36c1.81,0,2.78-.98,2.78-2.78v-30.75l5.15-9.88,17.54,41.32c.55,1.39,1.52,2.08,3.19,2.08h14.75Z"/><path class="d" d="M130.95,653.01c0,13.08,6.95,20.03,20.03,20.03h18.36c12.94,0,20.03-6.96,20.03-20.03v-38.67c0-1.53-.84-2.23-2.23-2.23h-23.38c-1.53,0-2.23,.69-2.23,2.23v13.91c0,1.39,.7,2.23,2.23,2.23h7.24v18.64c0,3.76-1.94,5.56-5.57,5.56h-10.02c-3.61,0-5.56-1.81-5.56-5.56v-63.43c0-3.62,1.8-5.57,5.56-5.57h10.02c3.62,0,5.57,1.94,5.57,5.57v10.57c0,1.39,.7,2.23,2.23,2.23h13.91c1.39,0,2.23-.84,2.23-2.23v-14.47c0-13.08-7.1-20.03-20.03-20.03h-18.36c-13.08,0-20.03,6.96-20.03,20.03v71.22Z"/></g></g><path class="d" d="M62.16,2820.28c-.98-1.13-2.29-1.87-3.93-2.22,.46-.21,.77-.35,.95-.44,.18-.09,.49-.31,.95-.66,1.34-1.01,2.01-2.56,2.01-4.63,0-1.72-.6-3.27-1.79-4.64-.66-.73-1.64-1.32-2.95-1.75-1.3-.43-2.86-.65-4.65-.65h-10.34v26.56h11.63c3.65,0,6.2-.82,7.67-2.47,1.27-1.42,1.9-3.05,1.9-4.9,0-1.67-.49-3.07-1.46-4.2Zm-13.81-9.98h2.85c1.75,0,2.99,.19,3.72,.57,.73,.38,1.1,1.16,1.1,2.33s-.4,1.94-1.2,2.29c-.8,.36-2.02,.53-3.67,.53h-2.81v-5.74Zm7.88,15.9c-.85,.42-2.12,.63-3.82,.63h-4.07v-6.12h3.49c1.98,0,3.41,.19,4.31,.59,.9,.4,1.35,1.21,1.35,2.43s-.42,2.05-1.27,2.47Z"/><path class="d" d="M87.75,2805.29h-5.74l-11.48,26.56h6.31l2.47-5.74h11.13l2.47,5.74h6.31l-11.47-26.56Zm-6.19,15.62l3.34-7.71,3.31,7.71h-6.65Z"/><path class="d" d="M120.2,2826.6c-2.13,0-3.94-.75-5.44-2.25-1.49-1.49-2.24-3.47-2.24-5.95,0-2.47,.79-4.43,2.37-5.89,1.58-1.46,3.49-2.18,5.72-2.18,2.79,0,5.12,1.16,6.99,3.5l3.68-4.18c-2.94-3.32-6.59-4.97-10.94-4.97-3.9,0-7.2,1.31-9.9,3.95-2.7,2.64-4.05,5.92-4.05,9.86s1.32,7.2,3.97,9.79c2.64,2.58,6.02,3.87,10.11,3.87,4.09,0,7.64-1.7,10.66-5.09l-3.8-3.91c-1.85,2.31-4.23,3.46-7.14,3.46"/><path class="d" d="M141.51,2831.85h5.93v-7.52l2.66-2.97,7.79,10.49h6.92c-1.22-1.7-3.05-4.28-5.51-7.74-2.46-3.45-4.14-5.82-5.05-7.08l10.57-11.75h-7.33l-10.03,10.91v-10.91h-5.93v26.56Z"/><polygon class="d" points="206.41 2816.38 195.85 2816.38 195.85 2805.29 189.92 2805.29 189.92 2831.85 195.85 2831.85 195.85 2821.4 206.41 2821.4 206.41 2831.85 212.34 2831.85 212.34 2805.29 206.41 2805.29 206.41 2816.38"/><path class="d" d="M246.91,2808.61c-2.68-2.62-5.99-3.93-9.92-3.93-3.93,0-7.23,1.31-9.92,3.93-2.69,2.62-4.03,5.88-4.03,9.78s1.34,7.16,4.03,9.78c2.69,2.62,5.99,3.93,9.92,3.93,3.92,0,7.23-1.31,9.92-3.93,2.68-2.62,4.03-5.88,4.03-9.78s-1.34-7.16-4.03-9.78Zm-4.29,15.84c-1.52,1.66-3.39,2.49-5.61,2.49s-4.08-.83-5.6-2.49c-1.52-1.66-2.28-3.67-2.28-6.04s.76-4.39,2.28-6.06c1.52-1.67,3.39-2.51,5.6-2.51s4.09,.84,5.61,2.51c1.52,1.67,2.28,3.69,2.28,6.06s-.76,4.38-2.28,6.04Z"/><polygon class="d" points="285.44 2831.85 291.37 2831.85 291.37 2805.29 283.39 2805.29 276.51 2819.88 269.67 2805.29 261.66 2805.29 261.66 2831.85 267.58 2831.85 267.58 2815.13 274.73 2829.64 278.26 2829.64 285.44 2815.13 285.44 2831.85"/><polygon class="d" points="303.6 2805.29 303.6 2831.85 323.17 2831.85 323.17 2826.6 309.53 2826.6 309.53 2821.1 321.42 2821.1 321.42 2816.04 309.53 2816.04 309.53 2810.57 322.75 2810.57 322.75 2805.29 303.6 2805.29"/><path class="d" d="M21.92,2792.58c3.19,.41,7.45,.33,11.74-1.53,4.83-2.1,8.61-5.94,11.28-11.46h42.33v-7.69H39.8l-.96,2.44c-5.73,14.57-18,10.37-19.36,9.85l-5.26-2.08v63.32h7.69v-52.85Z"/><polygon class="d" points="348.68 2771.91 273.24 2771.91 273.24 2779.59 340.99 2779.59 340.99 2845.43 348.68 2845.43 348.68 2771.91"/><g><path class="d" d="M182.7,216.5l39.59,35.23c.5,.45,1.25,.49,1.8,.11l59.33-40.78c.67-.46,.83-1.37,.38-2.03l-10.25-14.91c-.46-.67-1.37-.83-2.03-.38l-13.61,9.35c-.84,.58-2,.14-2.24-.85-8.22-33.15-38.22-57.8-73.87-57.8-35.56,0-65.5,24.52-74.34,58.08-.26,.97-1.4,1.39-2.23,.83l-13.95-9.42c-.67-.45-1.58-.28-2.03,.39l-10.13,14.99c-.45,.67-.28,1.58,.39,2.03l59.91,40.46c.55,.37,1.29,.33,1.79-.12l39.55-35.19c.55-.49,1.39-.49,1.95,0Zm-55.72,1.55c-.44-.3-.69-.82-.64-1.35,2.8-28.87,26.56-51.23,55.46-51.23,29.1,0,53.01,22.69,54.95,51.31,.04,.52-.21,1.01-.64,1.31l-10.35,7.11c-.55,.38-1.3,.33-1.8-.11l-41.26-36.71c-.55-.49-1.39-.49-1.95,0l-41.32,36.76c-.5,.44-1.24,.49-1.79,.12l-10.67-7.2Z"/><path class="d" d="M223.83,273.74l-41-36.48c-.63-.56-1.59-.56-2.22,0l-41.06,36.53c-.57,.51-1.41,.56-2.05,.14l-46.07-31.11c-.76-.52-1.8-.32-2.32,.45l-9.89,14.65c-.52,.76-.32,1.8,.45,2.32l59.61,40.25c.63,.43,1.48,.37,2.05-.14l39.29-34.96c.63-.56,1.59-.56,2.22,0l39.33,35c.57,.51,1.42,.56,2.06,.13l59.02-40.57c.76-.52,.95-1.56,.43-2.32l-10.01-14.57c-.52-.76-1.56-.95-2.32-.43l-45.45,31.24c-.63,.44-1.48,.38-2.06-.13Z"/></g><g><path class="d" d="M191.05,1461.79h0c18.34,0,33.23,14.89,33.23,33.23v42.12h-33.23v-75.35h0Z" transform="translate(1707.12 1291.8) rotate(90)"/><path class="d" d="M200.22,1376.61h0v127.24h0c-20.42,0-36.99-16.58-36.99-36.99v-53.25c0-20.42,16.58-36.99,36.99-36.99Z" transform="translate(1621.95 1258.51) rotate(90)"/><path class="d" d="M245.34,1570.93h0c0,20.43-16.56,36.99-36.99,36.99h-53.25c-20.43,0-36.99-16.56-36.99-36.99h127.24Z"/><rect class="d" x="118.1" y="1482.85" width="32.61" height="66.45" transform="translate(268.81 3032.14) rotate(-180)"/></g><g><path class="d" d="M286.38,2370.34c-4.62,5.33-20.8,16.67-20.8,28.95,0,9.54,9.31,18.09,20.8,18.09s20.8-8.1,20.8-18.09c0-10.71-16.51-23.25-20.8-28.95Zm0,31.18c-2.36,0-4.27-1.76-4.27-3.72,0-2.52,3.29-5.12,4.24-6.22h.02c.88,1.17,4.29,4.02,4.29,6.22,0,2.05-1.92,3.72-4.28,3.72Z"/><g><path class="d" d="M57.94,2439.03c.18,.18,.27,.39,.27,.64s-.09,.46-.27,.63c-.18,.17-.39,.25-.64,.25h-7c-.34,0-.64-.12-.88-.36-.24-.24-.36-.54-.36-.88v-11.73c0-.25,.08-.46,.25-.64,.17-.18,.38-.26,.63-.26s.46,.09,.64,.26c.18,.18,.27,.39,.27,.64v11.17h6.45c.25,0,.46,.09,.64,.27Z"/><path class="d" d="M72.79,2439.13c.17,.16,.25,.36,.25,.6s-.08,.44-.25,.59c-.17,.16-.36,.24-.6,.24h-7.92c-.25,0-.46-.08-.63-.25-.17-.17-.25-.38-.25-.63v-11.98c0-.25,.08-.46,.25-.64,.17-.18,.38-.27,.63-.27h7.92c.24,0,.44,.08,.6,.25,.17,.16,.25,.36,.25,.6s-.08,.44-.25,.6c-.17,.16-.36,.24-.6,.24h-7.01v4.36h6.3c.24,0,.44,.08,.6,.25,.16,.17,.24,.37,.24,.6s-.08,.44-.24,.6c-.16,.16-.36,.24-.6,.24h-6.3v4.38h7.01c.24,0,.44,.08,.6,.25Z"/><path class="d" d="M90.19,2439.38l-5.03-11.88c-.23-.54-.62-.81-1.15-.81h-.2c-.53,0-.91,.27-1.14,.81l-5.04,11.88c-.07,.16-.1,.33-.1,.5s.08,.35,.24,.52c.15,.17,.41,.26,.75,.26s.59-.19,.75-.55l1.28-3.08h6.71l1.28,3.08c.15,.37,.41,.55,.75,.55s.59-.09,.75-.26c.15-.17,.23-.35,.23-.52s-.03-.35-.1-.5Zm-8.94-3.99l2.66-6.42,2.67,6.42h-5.33Z"/><path class="d" d="M106.16,2439.22c.14,.18,.22,.39,.22,.61s-.08,.42-.24,.58c-.17,.17-.39,.25-.66,.25s-.5-.12-.67-.36l-5.09-6.49-2.25,2.27v3.69c0,.25-.09,.46-.27,.63-.18,.17-.39,.26-.64,.26s-.46-.09-.63-.26c-.17-.17-.25-.38-.25-.63v-12.18c0-.25,.09-.46,.25-.64,.18-.18,.39-.26,.63-.26s.46,.09,.64,.26c.18,.18,.27,.39,.27,.64v6.28l6.75-6.87c.17-.21,.38-.31,.64-.31s.46,.07,.63,.23c.15,.15,.24,.35,.24,.59s-.08,.44-.22,.58l-4.56,4.54,5.23,6.59Z"/><path class="d" d="M131.33,2431.19c-.28-.82-.71-1.55-1.29-2.2-1.3-1.47-3.05-2.21-5.25-2.21h-3.97c-.25,0-.46,.09-.63,.27-.17,.18-.26,.39-.26,.64v11.98c0,.25,.09,.46,.26,.63,.17,.17,.38,.25,.63,.25h3.97c2.2,0,3.95-.73,5.25-2.21,.58-.65,1.02-1.38,1.29-2.2,.28-.82,.43-1.65,.43-2.48s-.14-1.65-.43-2.48Zm-2.81,6.25c-1,.96-2.32,1.44-3.95,1.44h-2.84v-10.42h2.84c1.63,0,2.95,.48,3.95,1.44,.97,.96,1.46,2.22,1.46,3.77s-.49,2.81-1.46,3.77Z"/><path class="d" d="M147.1,2439.13c.16,.16,.25,.36,.25,.6s-.09,.44-.25,.59c-.16,.16-.36,.24-.6,.24h-7.92c-.25,0-.46-.08-.63-.25-.18-.17-.26-.38-.26-.63v-11.98c0-.25,.09-.46,.26-.64,.17-.18,.38-.27,.63-.27h7.92c.24,0,.44,.08,.6,.25,.16,.16,.25,.36,.25,.6s-.09,.44-.25,.6c-.16,.16-.36,.24-.6,.24h-7.01v4.36h6.29c.23,0,.44,.08,.6,.25,.17,.17,.24,.37,.24,.6s-.08,.44-.24,.6c-.17,.16-.37,.24-.6,.24h-6.29v4.38h7.01c.24,0,.44,.08,.6,.25Z"/><path class="d" d="M162.87,2427.03c.16,.16,.25,.36,.25,.6s-.09,.44-.25,.6c-.16,.16-.36,.24-.6,.24h-4.01v11.31c0,.25-.09,.46-.27,.63-.18,.17-.39,.26-.64,.26s-.46-.09-.63-.26c-.17-.17-.26-.38-.26-.63v-11.31h-4.02c-.24,0-.43-.08-.59-.24-.16-.16-.24-.36-.24-.6s.08-.44,.24-.6c.16-.17,.35-.25,.59-.25h9.83c.24,0,.44,.08,.6,.25Z"/><path class="d" d="M177.68,2439.13c.16,.16,.24,.36,.24,.6s-.09,.44-.24,.59c-.17,.16-.37,.24-.6,.24h-7.92c-.25,0-.46-.08-.63-.25-.17-.17-.25-.38-.25-.63v-11.98c0-.25,.09-.46,.25-.64,.17-.18,.39-.27,.63-.27h7.92c.23,0,.44,.08,.6,.25,.16,.16,.24,.36,.24,.6s-.09,.44-.24,.6c-.17,.16-.37,.24-.6,.24h-7.01v4.36h6.3c.24,0,.44,.08,.61,.25,.16,.17,.24,.37,.24,.6s-.09,.44-.24,.6c-.17,.16-.37,.24-.61,.24h-6.3v4.38h7.01c.23,0,.44,.08,.6,.25Z"/><path class="d" d="M193.58,2438.11c.1-.05,.25-.08,.44-.08s.35,.08,.5,.23c.14,.15,.2,.33,.2,.52,0,.35-.14,.6-.43,.75-.62,.34-1.28,.63-1.99,.87-.71,.24-1.55,.35-2.53,.35s-1.89-.16-2.73-.49c-.84-.32-1.57-.79-2.19-1.41-1.32-1.29-1.98-3.02-1.98-5.19s.66-3.9,1.98-5.19c1.28-1.26,2.92-1.9,4.94-1.9,.97,0,1.81,.12,2.52,.35,.7,.24,1.24,.46,1.62,.66,.38,.2,.6,.37,.69,.49,.08,.13,.11,.28,.11,.47s-.07,.36-.2,.51c-.14,.15-.31,.23-.5,.23s-.34-.03-.44-.08c-.53-.28-1.07-.5-1.62-.67-.55-.17-1.24-.26-2.06-.26s-1.57,.14-2.23,.41c-.66,.28-1.22,.66-1.67,1.14-.88,.96-1.33,2.23-1.33,3.81s.44,2.85,1.33,3.81c.96,1.04,2.28,1.56,3.96,1.56,.78,0,1.45-.08,1.99-.26,.55-.17,1.09-.4,1.62-.67Z"/><path class="d" d="M210.05,2427.03c.17,.16,.24,.36,.24,.6s-.08,.44-.24,.6c-.17,.16-.36,.24-.6,.24h-4.01v11.31c0,.25-.09,.46-.27,.63-.18,.17-.39,.26-.64,.26s-.46-.09-.63-.26c-.17-.17-.25-.38-.25-.63v-11.31h-4.03c-.24,0-.43-.08-.59-.24-.16-.16-.23-.36-.23-.6s.08-.44,.23-.6c.16-.17,.35-.25,.59-.25h9.83c.24,0,.44,.08,.6,.25Z"/><path class="d" d="M216.34,2426.69c.25,0,.46,.09,.64,.26,.18,.18,.27,.39,.27,.64v12.18c0,.25-.09,.46-.27,.63-.17,.17-.39,.26-.64,.26s-.46-.09-.64-.26c-.17-.17-.25-.38-.25-.63v-12.18c0-.25,.09-.46,.25-.64,.18-.18,.39-.26,.64-.26Z"/><path class="d" d="M235.14,2428.58c-1.26-1.33-2.93-1.99-5.01-1.99s-3.76,.67-5.01,1.99c-1.25,1.31-1.89,3.01-1.92,5.09,.03,2.08,.67,3.78,1.92,5.09,1.25,1.33,2.92,1.99,5.01,1.99s3.75-.66,5.01-1.99c1.23-1.3,1.86-3,1.92-5.09-.05-2.09-.69-3.79-1.92-5.09Zm-1.22,8.94c-.93,1.04-2.19,1.56-3.79,1.56s-2.87-.52-3.79-1.56c-.9-1-1.35-2.28-1.35-3.85s.45-2.85,1.35-3.85c.92-1.04,2.18-1.56,3.79-1.56s2.87,.52,3.79,1.56c.89,1,1.34,2.28,1.34,3.85s-.45,2.85-1.34,3.85Z"/><path class="d" d="M254.11,2426.69c.25,0,.46,.09,.64,.26,.18,.18,.27,.39,.27,.64v11.78c0,.35-.13,.66-.39,.91-.26,.25-.57,.37-.92,.37h-.24c-.43,0-.78-.18-1.05-.53l-7.64-11.03v10.68c0,.25-.09,.46-.27,.63-.17,.17-.39,.26-.64,.26s-.46-.09-.63-.26c-.17-.17-.25-.38-.25-.63v-11.78c0-.36,.12-.66,.37-.92,.25-.25,.55-.38,.91-.38h.26c.41,0,.77,.2,1.09,.59l7.6,10.98v-10.66c0-.25,.08-.46,.26-.64,.17-.18,.38-.26,.63-.26Z"/><path class="d" d="M270.79,2426.69c.25,0,.46,.09,.64,.26,.18,.18,.27,.39,.27,.64v12.18c0,.25-.09,.46-.27,.63-.18,.17-.39,.26-.64,.26s-.46-.09-.63-.26c-.17-.17-.25-.38-.25-.63v-12.18c0-.25,.09-.46,.25-.64,.18-.18,.39-.26,.63-.26Z"/><path class="d" d="M289.6,2426.69c.25,0,.46,.09,.64,.26,.17,.18,.26,.39,.26,.64v11.78c0,.35-.12,.66-.38,.91-.25,.25-.56,.37-.92,.37h-.24c-.44,0-.79-.18-1.05-.53l-7.64-11.03v10.68c0,.25-.09,.46-.27,.63-.17,.17-.39,.26-.64,.26s-.46-.09-.64-.26c-.17-.17-.25-.38-.25-.63v-11.78c0-.36,.13-.66,.38-.92,.25-.25,.55-.38,.91-.38h.25c.41,0,.77,.2,1.08,.59l7.6,10.98v-10.66c0-.25,.08-.46,.26-.64,.17-.18,.38-.26,.63-.26Z"/><path class="d" d="M307.19,2438.11c.11-.05,.25-.08,.45-.08s.35,.08,.49,.23c.14,.15,.21,.33,.21,.52,0,.35-.14,.6-.43,.75-.62,.34-1.28,.63-1.98,.87-.71,.24-1.55,.35-2.53,.35s-1.89-.16-2.74-.49c-.84-.32-1.57-.79-2.19-1.41-1.32-1.29-1.98-3.02-1.98-5.19s.66-3.9,1.98-5.19c1.27-1.26,2.92-1.9,4.93-1.9,.98,0,1.81,.12,2.52,.35,.71,.24,1.24,.46,1.62,.66,.38,.2,.6,.37,.68,.49,.08,.13,.12,.28,.12,.47s-.07,.36-.21,.51c-.14,.15-.3,.23-.49,.23s-.34-.03-.45-.08c-.53-.28-1.07-.5-1.62-.67-.55-.17-1.24-.26-2.06-.26s-1.57,.14-2.23,.41c-.66,.28-1.22,.66-1.67,1.14-.88,.96-1.32,2.23-1.32,3.81s.44,2.85,1.32,3.81c.96,1.04,2.28,1.56,3.96,1.56,.78,0,1.44-.08,2-.26,.55-.17,1.09-.4,1.62-.67Z"/><path class="d" d="M315.56,2438.62c.22,.22,.33,.48,.33,.78v.12c0,.3-.11,.56-.33,.78-.21,.22-.48,.33-.78,.33h-.2c-.3,0-.56-.11-.78-.33-.22-.22-.33-.47-.33-.78v-.12c0-.3,.11-.56,.33-.78,.22-.22,.48-.33,.78-.33h.2c.3,0,.56,.11,.78,.33Z"/></g><path class="d" d="M33.48,2417.39c-1.81,0-3.58-.16-5.32-.47-1.74-.31-3.42-.77-5.04-1.38-1.61-.6-3.14-1.32-4.56-2.13-1.42-.81-2.71-1.72-3.84-2.72l9.12-9.91c1.05,1.13,2.45,2.14,4.19,3.02,1.74,.88,3.53,1.32,5.38,1.32,.84,0,1.6-.14,2.3-.44,.69-.29,1.04-.84,1.04-1.64,0-.42-.12-.77-.34-1.07-.23-.29-.64-.6-1.23-.91-.59-.31-1.39-.66-2.42-1.04-1.03-.37-2.32-.82-3.87-1.32-1.51-.5-2.96-1.1-4.35-1.8-1.38-.69-2.61-1.54-3.68-2.56-1.07-1.01-1.92-2.21-2.55-3.62-.63-1.41-.94-3.1-.94-5.08,0-2.77,.56-5.13,1.7-7.06,1.13-1.93,2.59-3.52,4.37-4.76,1.78-1.24,3.79-2.13,6.01-2.68,2.22-.55,4.43-.82,6.61-.82,2.94,0,5.92,.57,8.97,1.7,3.04,1.13,5.72,2.77,8.02,4.91l-9.31,9.5c-1.01-1.26-2.25-2.21-3.72-2.86-1.47-.65-2.79-.98-3.96-.98-1.09,0-1.97,.16-2.64,.47-.67,.31-1.01,.83-1.01,1.54,0,.67,.35,1.17,1.04,1.51,.69,.34,1.81,.76,3.36,1.26,1.6,.5,3.28,1.09,5.04,1.76,1.76,.67,3.39,1.54,4.88,2.61,1.49,1.07,2.72,2.39,3.68,3.93,.97,1.55,1.45,3.48,1.45,5.79,0,2.69-.54,5.02-1.61,7.02-1.07,1.99-2.47,3.65-4.21,4.97-1.74,1.32-3.7,2.31-5.88,2.96-2.19,.65-4.41,.97-6.67,.97Z"/><path class="d" d="M80.87,2417.39c-3.48,0-6.51-.48-9.09-1.45-2.58-.97-4.74-2.29-6.45-3.96-1.72-1.68-3-3.66-3.84-5.95-.84-2.29-1.26-4.75-1.26-7.39v-27.06h14.98v25.43c0,2.14,.52,3.81,1.54,5,1.03,1.2,2.49,1.79,4.38,1.79s3.35-.6,4.37-1.79c1.03-1.19,1.55-2.86,1.55-5v-25.43h14.92v27.06c0,2.64-.45,5.11-1.35,7.39-.91,2.29-2.23,4.27-4,5.95-1.76,1.68-3.95,3-6.58,3.96-2.62,.96-5.67,1.45-9.16,1.45Z"/><path class="d" d="M146.07,2379.35c-1.05-1.91-2.44-3.44-4.15-4.59-1.72-1.15-3.68-1.97-5.86-2.46-2.18-.48-4.41-.72-6.67-.72h-19.13v44.56h14.92v-14.35h4.22c2.31,0,4.56-.27,6.77-.82,2.2-.55,4.15-1.43,5.85-2.64,1.7-1.22,3.06-2.79,4.09-4.72,1.03-1.93,1.54-4.28,1.54-7.05s-.53-5.3-1.57-7.21Zm-14.63,10.2c-.94,.57-1.99,.85-3.11,.85h-3.15v-7.18h3.15c.54,0,1.09,.05,1.63,.16,.54,.11,1.04,.28,1.48,.53,.44,.25,.78,.6,1.04,1.04,.25,.44,.38,1.02,.38,1.73,0,1.34-.47,2.3-1.41,2.86Z"/><polygon class="d" points="153.94 2371.58 184.59 2371.58 184.59 2384.04 168.04 2384.04 168.04 2387.88 183.58 2387.88 183.58 2399.52 168.04 2399.52 168.04 2403.68 185.66 2403.68 185.66 2416.14 153.94 2416.14 153.94 2371.58"/><path class="d" d="M224.45,2398.07c2.51-1.13,4.44-2.74,5.78-4.81,1.34-2.08,2.01-4.48,2.01-7.21s-.53-5.15-1.58-7.02c-1.05-1.87-2.42-3.36-4.12-4.47-1.7-1.11-3.62-1.89-5.79-2.33-2.16-.44-4.33-.66-6.52-.66h-19.19v44.56h14.53v-15.92h.44l8.53,15.92h17.21l-11.31-18.06Zm-7.41-9.47c-.35,.48-.79,.86-1.31,1.13-.52,.28-1.08,.45-1.68,.54-.6,.09-1.16,.13-1.65,.13h-2.94v-7.18h3.56c.46,0,.96,.03,1.5,.09,.54,.07,1.04,.21,1.5,.44,.46,.23,.83,.58,1.13,1.04,.29,.46,.44,1.09,.44,1.89s-.18,1.44-.53,1.92Z"/><path class="d" d="M344.1,2398.07c2.51-1.13,4.44-2.74,5.78-4.81,1.34-2.08,2.01-4.48,2.01-7.21s-.53-5.15-1.58-7.02c-1.05-1.87-2.42-3.36-4.12-4.47-1.7-1.11-3.62-1.89-5.79-2.33-2.16-.44-4.33-.66-6.52-.66h-19.19v44.56h14.53v-15.92h.44l8.53,15.92h17.21l-11.31-18.06Zm-7.41-9.47c-.35,.48-.79,.86-1.31,1.13-.52,.28-1.08,.45-1.68,.54-.6,.09-1.16,.13-1.65,.13h-2.94v-7.18h3.56c.46,0,.96,.03,1.5,.09,.54,.07,1.04,.21,1.5,.44,.46,.23,.83,.58,1.13,1.04,.29,.46,.44,1.09,.44,1.89s-.18,1.44-.53,1.92Z"/><rect class="d" x="243.12" y="2371.58" width="15.1" height="44.56"/></g><g><path class="d" d="M99.82,1968.78c0-21.42,14.28-37.79,36.22-37.79,8.36,0,14.63,2.61,18.63,6.27v-33.09c0-9.75-4.53-12.02-13.93-12.02v-1.04l33.78-3.48v103.26c0,8.71,2.79,12.02,12.19,12.02v1.04h-31.69v-9.93c-5.05,6.27-12.71,11.84-23.68,11.84-19.33,0-31.52-17.24-31.52-37.09Zm54.85,23.68v-47.19c-1.22-6.62-6.62-12.71-14.63-12.71-13.06,0-19.16,18.81-19.16,35.18,0,17.24,5.75,32.74,19.33,32.74,6.44,0,11.14-3.66,14.45-8.01Z"/><g><path class="d" d="M188.54,1968.95c0-2.33,.17-4.61,.5-6.83h-9.66v10.07h9.28c-.07-1.07-.12-2.15-.12-3.24Z"/><path class="d" d="M149.82,1962.12h-23.83c-.17,1.86-.25,3.74-.25,5.61,0,1.48,.05,2.97,.15,4.46h23.94v-10.07Z"/><path class="d" d="M71.47,1968.79l2.65-1.61-2.63-1.64c-14.64-9.13-25.48-19.54-32.24-30.95-.34-.58-.97-.94-1.64-.94h-11.43l1.9,2.95c7.82,12.11,17.66,22.62,28.58,30.55-10.73,7.69-20.06,17.72-28.45,30.56l-1.93,2.96h11.33c.65,0,1.26-.34,1.61-.89,7.67-12.11,18.82-22.82,32.25-30.99Z"/><path class="d" d="M94.97,1968.78c0-2.28,.15-4.5,.43-6.66h-4.62c-.11,0-.21-.03-.3-.09-11.96-8.25-20.99-17.47-26.9-27.44-.34-.58-.97-.94-1.64-.94h-10.46c-.42,0-.67,.46-.44,.81l1.38,2.13c7.69,11.9,17.32,22.26,28.01,30.13,.29,.21,.28,.63,0,.84-10.49,7.63-19.63,17.52-27.88,30.15l-1.4,2.14c-.23,.35,.02,.82,.44,.82h10.35c.65,0,1.26-.34,1.61-.89,6.62-10.45,15.84-19.86,26.88-27.49,.09-.06,.2-.09,.3-.09h4.36c-.07-1.12-.12-2.26-.12-3.41Z"/><path class="d" d="M335.84,1965.54c-14.64-9.12-25.49-19.54-32.24-30.95-.34-.58-.97-.94-1.64-.94h-9.99c-.62,0-1,.69-.66,1.21l1.12,1.74c7.62,11.8,17.15,22.07,27.73,29.92,.42,.31,.42,.94,0,1.26-10.37,7.6-19.42,17.43-27.59,29.94l-1.14,1.74c-.34,.52,.03,1.21,.66,1.21h9.88c.65,0,1.26-.34,1.61-.89,7.67-12.1,18.82-22.82,32.26-30.99,1.22-.74,1.23-2.5,.02-3.25Z"/><path class="d" d="M312.39,1968.79h0c1.22-.74,1.23-2.5,.02-3.25-14.64-9.13-25.48-19.54-32.24-30.95-.34-.58-.97-.94-1.64-.94h-10.46c-.42,0-.67,.46-.44,.81l1.38,2.13c6,9.29,13.19,17.64,21.14,24.6,.37,.32,.14,.93-.34,.93h-25.24c-2.76,4.58-7.6,7.5-13.35,7.5s-10.69-2.97-13.46-7.5h-18.43c-.12,1.65-.18,3.3-.18,4.92,0,1.46,.05,3.22,.19,5.16h70.39c.49,0,.71,.6,.35,.93-7.66,6.71-14.57,14.84-20.94,24.59l-1.4,2.14c-.23,.35,.02,.82,.44,.82h10.35c.65,0,1.26-.34,1.61-.89,7.67-12.11,18.82-22.82,32.25-30.99Z"/></g><path class="d" d="M193.39,1968.95c0-23.68,18.63-37.96,39.18-37.96,18.46,0,29.6,11.32,29.6,21.94,0,6.97-4.7,11.84-10.97,11.84s-10.97-5.05-10.97-11.14c0-5.57,3.83-10.1,9.23-10.97-1.92-5.05-6.44-10.45-14.63-10.45-14.63,0-20.55,17.41-20.55,34.83,0,22.12,8.71,35.18,23.51,35.18,11.32,0,19.85-7.66,24.55-16.37l1.05,.52c-4.88,8.88-14.8,19.5-33.26,19.5-23.33,0-36.74-16.89-36.74-36.92Z"/></g><g><path d="M16.89,54.62c0,3.3-2.35,5.26-6.17,5.28-3.82-.03-6.17-1.99-6.17-5.28,0-2.12,1.02-3.82,3.11-4.6v-.1c-1.67-.76-2.56-2.2-2.56-4.03,0-2.96,2.14-4.81,5.62-4.84,3.48,.03,5.62,1.88,5.62,4.84,0,1.83-.89,3.27-2.56,4.03v.1c2.09,.78,3.11,2.48,3.11,4.6Zm-2.28-.16c0-1.91-1.1-3.43-3.9-3.45-2.8,.03-3.9,1.54-3.9,3.45,0,2.04,1.18,3.48,3.9,3.5,2.72-.03,3.9-1.46,3.9-3.5Zm-3.9-5.39c2.25-.03,3.37-1.39,3.37-3.09s-1.1-2.98-3.37-3.01c-2.28,.03-3.37,1.25-3.37,3.01s1.12,3.06,3.37,3.09Z"/><path d="M20.29,56.79h2.82v2.88h-2.82v-2.88Z"/></g><line class="c" x1=".75" y1="14.16" x2="362.69" y2="13.64"/><g><path d="M4.89,489.08h2.28c.18,1.67,1.52,2.72,3.4,2.72,3.32,0,4.5-3.35,4.5-7.17h-.1c-.79,1.49-2.2,2.51-4.45,2.51-3.77,0-5.83-2.69-5.83-6.02s2.3-6.17,6.15-6.17c4.71,0,6.46,3.92,6.46,9.1s-1.78,9.75-6.72,9.75c-3.16,0-5.33-1.91-5.67-4.73Zm9.78-7.98c0-2.28-1.36-4.16-3.87-4.16s-3.84,1.86-3.84,4.13,1.31,4.11,3.84,4.11,3.87-1.8,3.87-4.08Z"/><path d="M20.81,490.7h2.82v2.88h-2.82v-2.88Z"/></g><line class="c" x1=".75" y1="448.07" x2="362.69" y2="447.55"/><g><path d="M8.86,911.67h-.1l-4.21,3.3h-.26v-2.25l4.55-3.53h2.25v18.31h-2.22v-15.82Z"/><path d="M15.79,918.28c0-5.44,1.65-9.42,6.38-9.42s6.38,3.97,6.38,9.42-1.65,9.44-6.38,9.44-6.38-3.98-6.38-9.44Zm10.49,0c0-3.98-.81-7.43-4.11-7.43s-4.11,3.45-4.11,7.43,.78,7.45,4.11,7.45,4.11-3.45,4.11-7.45Z"/><path d="M32.09,924.61h2.82v2.88h-2.82v-2.88Z"/></g><line class="c" x1=".75" y1="881.98" x2="362.69" y2="881.46"/><g><path d="M8.86,1345.58h-.1l-4.21,3.3h-.26v-2.25l4.55-3.53h2.25v18.31h-2.22v-15.82Z"/><path d="M19.98,1345.58h-.1l-4.21,3.3h-.26v-2.25l4.55-3.53h2.25v18.31h-2.22v-15.82Z"/><path d="M26.78,1358.52h2.82v2.88h-2.82v-2.88Z"/></g><line class="c" x1=".75" y1="1315.89" x2="362.69" y2="1315.37"/><g><path d="M8.86,1779.49h-.1l-4.21,3.3h-.26v-2.25l4.55-3.53h2.25v18.31h-2.22v-15.82Z"/><path d="M15.71,1793.58l6.25-7.3c1.88-2.2,2.62-3.03,2.62-4.58,0-1.78-1.07-3.03-3.27-3.03s-3.43,1.23-3.43,3.45h-2.22c0-3.19,2.07-5.44,5.65-5.44s5.54,2.14,5.54,4.94c0,2.04-1.1,3.4-3.37,6.04l-4.73,5.49v.1h8.4v2.04H15.71v-1.73Z"/><path d="M30.54,1792.43h2.82v2.88h-2.82v-2.88Z"/></g><line class="c" x1=".75" y1="1749.8" x2="362.69" y2="1749.28"/><g><path d="M8.86,2213.4h-.1l-4.21,3.3h-.26v-2.25l4.55-3.53h2.25v18.31h-2.22v-15.82Z"/><path d="M15.79,2224.14h2.2c.03,1.88,1.33,3.35,3.82,3.35s3.79-1.36,3.79-3.4c0-2.2-1.49-3.43-4.05-3.43h-1.6v-1.96h1.54c2.09,0,3.53-1.26,3.53-3.14,0-1.65-.99-3.01-3.27-3.01s-3.43,1.31-3.5,3.19h-2.22c.16-3.22,2.25-5.15,5.81-5.15,3.14,0,5.49,1.86,5.49,4.81,0,2.04-.92,3.29-2.75,4v.1c2.14,.68,3.32,2.35,3.32,4.55,0,3.03-2.17,5.39-6.07,5.39-3.66,0-6.04-2.12-6.04-5.31Z"/><path d="M31.43,2226.34h2.82v2.88h-2.82v-2.88Z"/></g><line class="c" x1=".75" y1="2183.71" x2="362.69" y2="2183.19"/><g><path d="M8.86,2647.3h-.1l-4.21,3.3h-.26v-2.25l4.55-3.53h2.25v18.31h-2.22v-15.82Z"/><path d="M23.48,2659.26H15.14v-2.3l7.4-12.14h3.17v12.45h2.46v1.99h-2.46v3.87h-2.22v-3.87Zm0-1.99v-10.23h-.1l-6.09,10.12v.1h6.2Z"/><path d="M31.04,2660.25h2.82v2.88h-2.82v-2.88Z"/></g><line class="c" x1=".75" y1="2617.62" x2="362.69" y2="2617.1"/><g><path class="b" d="M240.76,1162.96c5.12,0,13.04-3.84,12.93-47.62,0,0-17.35,19.91-17.35,36.79,0,1.05-.7,10.83,4.43,10.83Z"/><path class="b" d="M141.77,1015.97c-3.37,0-5.09,11.71-6.06,20.98-.98,9.44-1.16,40.64-1.16,40.64,9.44-10.36,14.56-37.96,14.56-49.38s-5.36-12.25-7.34-12.25Z"/><path class="b" d="M118.01,1087.5s-1.87-77.79,18.4-77.79c16.77,0,16.07,17.93,16.07,17.93,0,30.28-17.93,55.81-17.93,55.81,0,0-2.09,11.03-1.4,14.76,14.91-21.19,20.27-21.42,27.95-21.42s9.78,7.21,9.78,14.9,1.16,16.54,2.09,18.63c3.13,.42,10.08,.19,27.55-14.01,17.47-14.21,16.71-14.4,16.71-14.4,0,0,3.49-10.48,15.84-10.48s14.44,10.72,14.44,10.72c0,0,.46,1.38-1.03,1.91-1.32,.47-2.31,.24-3.16-.98-.8-1.15-4.43-6.29-6.99-6.29-4.44,0-8.48,7.88-8.48,19.1s5.19,10.81,5.19,10.81c0,0,15.6-1.89,22.62-27.12,1-4.21,6.17-4.3,9.78-4.19,2.56,.08,3.49,3.26,3.49,27.95,13.98-6.99,45.42-19.33,94.1-19.33,8.89,0,16.48,.05,22.97,.12v-136.63H0v144.58c13.78,3.34,30.88,6.13,49.53,6.13,46.35,0,68.48-10.71,68.48-10.71Z"/><path class="b" d="M362.84,1086.21c-24.38,0-57.48,2.84-93.66,19.92,.16,8.7-2.03,37.49-4.42,44.25-5.67,16.04-15.37,17.7-22.83,17.7s-10.25-4.43-10.25-14.44,9.25-33.49,22.36-42.45c0-9.08,.66-18.87,1.17-21.13-2.8,4.19-7.98,22.02-28.62,22.02-12.93,0-14.2-21.17-11.41-23.96-6.52,4.89-26.85,31.16-50.84,31.16-9.55,0-11.15-2.82-11.15-13.38,0-3.03,2.33-22.13-.94-22.13s-18.13,16.85-19.33,26.09c-.44,3.34-2.15,4.87-3.49,5.25-1.62,.45-12.58,1.97-12.58-3.62s.23-18.63,.93-20.03c-3.03,.7-30.97,10.01-68.94,10.01-16.18,0-33.86-3.17-48.83-7v133.03H386v-141.21c-6.3-.05-13.92-.07-23.16-.07Z"/><polygon class="b" points="127.02 1131.71 123.44 1131.71 123.44 1133.82 126.74 1133.82 126.74 1136.21 123.44 1136.21 123.44 1140.34 120.5 1140.34 120.5 1129.32 127.02 1129.32 127.02 1131.71"/><polygon class="b" points="142.22 1140.34 135 1140.34 135 1129.32 137.98 1129.32 137.98 1137.94 142.22 1137.94 142.22 1140.34"/><path class="b" d="M158.19,1139.05c-.91,.97-2.24,1.45-3.99,1.45s-3.06-.48-3.98-1.45c-.92-.97-1.38-2.38-1.38-4.24s.46-3.24,1.38-4.2c.92-.97,2.25-1.45,4-1.45s3.08,.48,3.99,1.44c.9,.96,1.36,2.37,1.36,4.23s-.46,3.26-1.37,4.23Z"/><polygon class="b" points="208.02 1140.34 200.79 1140.34 200.79 1129.32 203.77 1129.32 203.77 1137.94 208.02 1137.94 208.02 1140.34"/><path class="b" d="M218.81,1132.84c.23,.17,.83,.48,1.82,.93,.95,.43,1.61,.89,1.98,1.38,.37,.49,.56,1.11,.56,1.85,0,.68-.18,1.29-.52,1.82-.35,.53-.84,.94-1.5,1.24-.65,.3-1.42,.44-2.3,.44-.74,0-1.35-.05-1.85-.15-.5-.1-1.02-.28-1.55-.54v-2.65c.57,.29,1.16,.52,1.77,.68,.61,.16,1.18,.24,1.69,.24,.44,0,.77-.07,.97-.23,.21-.15,.31-.35,.31-.59,0-.15-.04-.28-.13-.4-.08-.11-.21-.23-.4-.34-.18-.12-.67-.35-1.47-.71-.72-.33-1.26-.64-1.62-.95-.36-.31-.62-.66-.79-1.06-.18-.4-.26-.87-.26-1.41,0-1.01,.37-1.81,1.11-2.37,.74-.57,1.76-.85,3.05-.85,1.14,0,2.3,.26,3.49,.79l-.92,2.3c-1.03-.47-1.92-.71-2.67-.71-.38,0-.67,.07-.84,.2-.18,.13-.27,.31-.27,.5,0,.22,.11,.41,.33,.58Z"/><path class="d" d="M363.03,1084.01c-48.68,0-80.12,12.34-94.1,19.33,0-24.69-.93-27.87-3.49-27.95-3.61-.11-8.78-.02-9.78,4.19-7.02,25.23-22.62,27.12-22.62,27.12,0,0-5.19,.22-5.19-10.81s4.04-19.1,8.48-19.1c2.56,0,6.19,5.14,6.99,6.29,.85,1.22,1.84,1.44,3.16,.98,1.49-.53,1.03-1.91,1.03-1.91,0,0-2.1-10.72-14.44-10.72s-15.84,10.48-15.84,10.48c0,0,.76,.19-16.71,14.4-17.47,14.21-24.42,14.44-27.55,14.01-.93-2.1-2.09-10.95-2.09-18.63s-2.1-14.9-9.78-14.9-13.05,.22-27.95,21.42c-.7-3.73,1.4-14.76,1.4-14.76,0,0,17.93-25.53,17.93-55.81,0,0,.7-17.93-16.07-17.93-20.27,0-18.4,77.79-18.4,77.79,0,0-22.12,10.71-68.48,10.71-18.65,0-35.75-2.79-49.53-6.13v2.39c14.97,3.83,32.66,7,48.83,7,37.97,0,65.91-9.31,68.94-10.01-.7,1.4-.93,14.44-.93,20.03s10.96,4.07,12.58,3.62c1.34-.38,3.06-1.91,3.49-5.25,1.2-9.24,16.07-26.09,19.33-26.09s.94,19.1,.94,22.13c0,10.56,1.6,13.38,11.15,13.38,23.99,0,44.32-26.27,50.84-31.16-2.8,2.79-1.52,23.96,11.41,23.96,20.64,0,25.82-17.82,28.62-22.02-.51,2.26-1.17,12.05-1.17,21.13-13.11,8.96-22.36,32.44-22.36,42.45s2.79,14.44,10.25,14.44,17.15-1.67,22.83-17.7c2.39-6.76,4.58-35.56,4.42-44.25,36.18-17.08,69.28-19.92,93.66-19.92,9.24,0,16.86,.03,23.16,.07v-2.16c-6.49-.08-14.07-.12-22.97-.12Zm-227.32-47.05c.97-9.27,2.69-20.98,6.06-20.98,1.98,0,7.34,.84,7.34,12.25s-5.12,39.01-14.56,49.38c0,0,.18-31.2,1.16-40.64Zm105.05,126.01c-5.13,0-4.43-9.78-4.43-10.83,0-16.89,17.35-36.79,17.35-36.79,.12,43.79-7.8,47.62-12.93,47.62Z"/><polygon class="d" points="120.5 1140.34 123.44 1140.34 123.44 1136.21 126.74 1136.21 126.74 1133.82 123.44 1133.82 123.44 1131.71 127.02 1131.71 127.02 1129.32 120.5 1129.32 120.5 1140.34"/><polygon class="d" points="137.98 1129.32 135 1129.32 135 1140.34 142.22 1140.34 142.22 1137.94 137.98 1137.94 137.98 1129.32"/><path class="d" d="M158.19,1130.59c-.91-.96-2.23-1.44-3.99-1.44s-3.08,.48-4,1.45c-.92,.97-1.38,2.37-1.38,4.2s.46,3.27,1.38,4.24c.92,.97,2.25,1.45,3.98,1.45s3.09-.48,3.99-1.45c.91-.97,1.37-2.37,1.37-4.23s-.45-3.27-1.36-4.23Zm-2.33,6.65c-.36,.52-.92,.78-1.67,.78-1.49,0-2.23-1.07-2.23-3.2s.75-3.23,2.24-3.23c.73,0,1.28,.26,1.65,.79,.37,.52,.55,1.34,.55,2.44s-.18,1.9-.55,2.42Z"/><path class="d" d="M189.79,1129.28h-3.97l-3.6,11.07h3.27l.56-2.06h3.58l.54,2.06h3.26l-3.64-11.07Zm-3.12,6.56c.45-1.73,.75-2.89,.89-3.48,.13-.59,.22-1.01,.26-1.27,.06,.28,.16,.73,.32,1.37,.16,.64,.29,1.16,.4,1.56l.47,1.81h-2.34Z"/><polygon class="d" points="203.77 1129.32 200.79 1129.32 200.79 1140.34 208.02 1140.34 208.02 1137.94 203.77 1137.94 203.77 1129.32"/><path class="d" d="M219.58,1131.55c.75,0,1.64,.24,2.67,.71l.92-2.3c-1.19-.53-2.35-.79-3.49-.79-1.29,0-2.31,.28-3.05,.85-.74,.57-1.11,1.36-1.11,2.37,0,.54,.09,1.01,.26,1.41,.17,.4,.44,.75,.79,1.06,.36,.31,.9,.62,1.62,.95,.79,.36,1.28,.59,1.47,.71,.18,.12,.32,.23,.4,.34,.09,.11,.13,.25,.13,.4,0,.24-.11,.44-.31,.59-.21,.15-.53,.23-.97,.23-.51,0-1.08-.08-1.69-.24-.61-.16-1.2-.39-1.77-.68v2.65c.54,.26,1.05,.44,1.55,.54,.49,.1,1.11,.15,1.85,.15,.88,0,1.65-.15,2.3-.44,.65-.29,1.15-.71,1.5-1.24,.35-.53,.52-1.14,.52-1.82,0-.74-.19-1.36-.56-1.85-.37-.49-1.03-.95-1.98-1.38-.99-.45-1.6-.76-1.82-.93-.22-.17-.33-.37-.33-.58,0-.2,.09-.37,.27-.5,.17-.14,.46-.2,.84-.2Z"/><path class="d" d="M173.03,1135.54c1.24-.7,1.87-1.69,1.87-2.96,0-2.17-1.5-3.26-4.49-3.26h-3.61v11.02h2.98v-4.01h.76l2.34,4.01h3.38l-3.21-4.8Zm-2.7-1.45h-.56v-2.52h.59c1.02,0,1.53,.38,1.53,1.14,0,.92-.52,1.38-1.56,1.38Z"/></g></svg>